<?xml version="1.0" encoding="utf-8"?>
<!-- Generator: Adobe Illustrator 27.5.0, SVG Export Plug-In . SVG Version: 6.00 Build 0)  -->
<svg version="1.1" xmlns="http://www.w3.org/2000/svg" xmlns:xlink="http://www.w3.org/1999/xlink" x="0px" y="0px"
	 viewBox="0 0 3710 3710" style="enable-background:new 0 0 3710 3710;" xml:space="preserve">
<g id="Background">
	<g>
		<g>
			<rect style="fill:#FFFFFF;" width="3710" height="3710"/>
		</g>
	</g>
</g>
<g id="Illustration">
	<g>
		<linearGradient id="SVGID_1_" gradientUnits="userSpaceOnUse" x1="3579.9641" y1="4075.4468" x2="1106.4714" y2="1003.5243">
			<stop  offset="0" style="stop-color:#DAE3FE"/>
			<stop  offset="1" style="stop-color:#E9EFFD"/>
		</linearGradient>
		<path style="fill:url(#SVGID_1_);" d="M2899.49,2863.992c-56.815,59.813-110.573,98.385-153.046,128.86
			c-499.263,358.227-1090.024,253.805-1215.577,228.305c-185.403-37.656-543.783-110.445-802.885-415.144
			c-392-460.984-330.96-1187.251-26.898-1666.67c55.618-87.694,349.406-574.415,946.53-652.47
			c361.373-47.238,782.618,48.035,1087.671,303.61C3375.62,1326.956,3330.035,2410.728,2899.49,2863.992z"/>
		<g>
			<g>
				<path style="fill:#BDD0FB;" d="M595.674,851.199c4.446-14.849,25.892-13.866,28.894,1.341
					c29.023,147.025,117.203,530.164,282.589,742.824c269.287,346.259,424.1,886.265,213.896,1143.076
					C1121.053,2738.44,111.231,2469.167,595.674,851.199z"/>
				<path style="opacity:0.43;fill:#FFFFFF;" d="M607.888,1058.685c-0.006,4.73,0.365,8.634,0.58,12.85l0.903,12.415l2.08,24.783
					c1.499,16.507,3.251,32.985,5.004,49.464c3.624,32.943,7.657,65.838,11.992,98.696c8.791,65.7,19.36,131.153,30.912,196.434
					c11.461,65.303,24.748,130.285,39.405,194.958c14.714,64.657,30.349,129.132,48.096,193.058
					c35.239,127.897,77.466,254,128.435,376.612c26.124,61.025,53.857,121.399,85.033,180.036
					c31.586,58.391,65.672,115.468,103.765,169.804c0.828,1.181,2.458,1.468,3.639,0.639c1.152-0.807,1.453-2.377,0.7-3.551
					l-0.02-0.03c-35.825-55.571-68.598-112.967-98.486-171.848c-30.056-58.806-56.666-119.306-81.661-180.407
					c-24.969-61.134-47.47-123.262-68.556-185.854c-21.065-62.616-39.527-126.073-57.628-189.615
					c-35.669-127.275-64.525-256.404-89.812-386.197c-12.506-64.931-23.703-130.122-33.742-195.495
					c-5.071-32.68-9.843-65.407-14.208-98.191l-6.161-49.218l-2.827-24.63l-1.276-12.317c-0.353-4.041-0.8-8.38-0.963-11.928
					l-0.027-0.586c-0.065-1.429-1.277-2.535-2.706-2.469C608.974,1056.164,607.893,1057.312,607.888,1058.685z"/>
			</g>
			<g>
				<path style="fill:#91B3FA;" d="M975.143,473.27c6.538-13.312,26.621-9.001,27.055,5.824
					c4.194,143.322,26.965,518.79,149.488,745.562c199.496,369.236,260.401,903.247,21.525,1112.432
					C1173.211,2337.087,262.748,1923.678,975.143,473.27z"/>
				<path style="opacity:0.43;fill:#FFFFFF;" d="M953.893,670.985c-0.755,4.472-1.021,8.211-1.485,12.224l-1.109,11.859
					l-1.954,23.716c-1.194,15.815-2.143,31.641-3.091,47.468c-1.784,31.659-3.174,63.338-4.273,95.03
					c-2.08,63.388-2.437,126.822-1.844,190.25c0.503,63.434,2.787,126.853,6.415,190.198c3.682,63.338,8.263,126.65,14.924,189.778
					c13.075,126.257,33.043,251.922,61.807,375.672c15.036,61.709,31.692,123.059,51.872,183.31
					c20.611,60.083,43.784,119.321,71.182,176.598c0.607,1.268,2.127,1.805,3.395,1.198c1.237-0.591,1.778-2.051,1.242-3.299
					l-0.014-0.032c-25.018-58.1-46.879-117.433-65.781-177.715c-19.076-60.235-34.633-121.524-48.572-183.126
					c-13.91-61.628-25.342-123.803-35.362-186.193c-9.998-62.41-17.403-125.203-24.465-188.018
					c-13.59-125.727-20.445-252.132-23.852-378.599c-1.567-63.244-1.856-126.529-1.028-189.802
					c0.363-31.638,1.016-63.275,2.062-94.9l1.94-47.417l1.211-23.688l0.735-11.825c0.304-3.867,0.565-8.036,0.968-11.4l0.068-0.568
					c0.166-1.384-0.821-2.641-2.205-2.806C955.34,668.738,954.118,669.667,953.893,670.985z"/>
			</g>
		</g>
		<g>
			
				<linearGradient id="SVGID_00000008148967273089433200000008465682043987772545_" gradientUnits="userSpaceOnUse" x1="815.7244" y1="3222.4377" x2="3309.3811" y2="236.7875">
				<stop  offset="0" style="stop-color:#09005D"/>
				<stop  offset="1" style="stop-color:#1A0F91"/>
			</linearGradient>
			<path style="fill:url(#SVGID_00000008148967273089433200000008465682043987772545_);" d="M1093.343,764.11L2555,787.891
				c80.638,1.312,146.103,65.587,148.893,146.188l73.414,2120.884c2.183,63.073-48.292,115.425-111.402,115.545l-1675.739,3.192
				c-59.301,0.113-107.161-48.441-106.197-107.734l34.699-2132.775C920.213,838.266,998.417,762.566,1093.343,764.11z"/>
			<path style="fill:#BDD0FB;" d="M1235.661,3141.027c-0.036,0-0.069,0-0.102-0.002l-187.413-5.474
				c-62.319-1.822-112.195-54.019-111.181-116.357l4.604-283.014c0.03-1.843,1.534-3.316,3.37-3.316c0.016,0,0.036,0,0.056,0
				c1.859,0.031,3.343,1.563,3.314,3.424l-4.604,283.014c-0.954,58.672,45.986,107.798,104.639,109.512l187.413,5.474
				c1.859,0.054,3.324,1.606,3.271,3.467C1238.972,3139.582,1237.474,3141.027,1235.661,3141.027z"/>
			<path style="fill:#BDD0FB;" d="M946.367,2651.938c-0.016,0-0.036,0-0.056,0c-1.859-0.031-3.344-1.563-3.314-3.424l0.744-45.832
				c0.03-1.843,1.534-3.316,3.37-3.316c0.016,0,0.036,0,0.056,0c1.859,0.031,3.344,1.563,3.314,3.424l-0.744,45.832
				C949.707,2650.465,948.203,2651.938,946.367,2651.938z"/>
			<g>
				<path style="fill:#91B3FA;" d="M1098.118,747.006c199.162,30.316,884.181,125.199,1452.381,90.869
					c25.912-1.566,48.053,18.409,49.009,44.35l78.499,2130.416c1.076,29.212-21.617,53.807-50.822,55.059
					c-238.906,10.242-1222.738,48.851-1572.742,6.425c-21.302-2.582-37.207-20.811-36.983-42.268l23.222-2235.977
					C1040.997,765.506,1068.088,742.435,1098.118,747.006z"/>
				<path style="opacity:0.6;fill:#FFFFFF;" d="M1118.598,802.57c191.663,29.174,850.887,120.484,1397.691,87.447
					c24.936-1.507,46.243,17.715,47.163,42.68l75.543,2050.194c1.036,28.111-20.803,51.781-48.907,52.986
					c-229.909,9.855-1176.695,47.011-1513.519,6.182c-20.5-2.485-35.805-20.027-35.591-40.676l22.347-2151.78
					C1063.628,820.373,1089.7,798.171,1118.598,802.57z"/>
				<path style="opacity:0.78;fill:#FFFFFF;" d="M1238.574,1010.427l13.256,439.494c0.441,14.617,12.051,26.422,26.661,27.073
					c81.296,3.617,334.633,13.922,477.855,8.79c16.201-0.58,29.219-13.467,30.02-29.659c4.069-82.315,13.94-321.93-3.198-422.443
					c-2.768-16.237-16.489-28.323-32.938-29.167l-480.46-24.633C1252.443,978.994,1238.05,993.086,1238.574,1010.427z"/>
				
					<ellipse transform="matrix(0.9596 -0.2812 0.2812 0.9596 -268.5467 472.7311)" style="fill:#7D97F4;" cx="1512.643" cy="1171.937" rx="94.419" ry="94.419"/>
				<path style="fill:#7D97F4;" d="M1364.737,1446.778l300.766,4.894c18.439,0.3,29.82-19.882,20.142-35.581
					c-24.897-40.39-77.392-99.987-170.005-98.843c-89.259,1.103-143.004,53.289-170.206,90.901
					C1333.886,1424.115,1345.034,1446.457,1364.737,1446.778z"/>
				<g style="opacity:0.6;">
					<path style="fill:#FFFFFF;" d="M2453.805,1068.436c2.2,0.036,3.976-1.735,3.948-3.935l-0.278-21.479
						c-0.028-2.2-1.851-4.061-4.049-4.136l-553.251-18.866c-2.199-0.075-3.427,1.571-2.73,3.658l10.724,32.108
						c0.697,2.087,3.067,3.823,5.267,3.859L2453.805,1068.436z"/>
				</g>
				<g style="opacity:0.6;">
					<path style="fill:#FFFFFF;" d="M1898.842,1101.89c-2.199-0.075-3.427,1.571-2.73,3.658l10.724,32.108
						c0.697,2.087,3.067,3.823,5.266,3.859l540.371,8.792c2.2,0.036,3.976-1.735,3.948-3.935l-0.278-21.48
						c-0.028-2.2-1.851-4.061-4.049-4.136L1898.842,1101.89z"/>
				</g>
				<g style="opacity:0.6;">
					<path style="fill:#FFFFFF;" d="M1897.491,1184.95c-2.199-0.075-3.427,1.571-2.73,3.658l10.724,32.107
						c0.697,2.087,3.067,3.823,5.267,3.859l540.37,8.792c2.2,0.036,3.976-1.735,3.948-3.935l-0.278-21.479
						c-0.028-2.2-1.851-4.061-4.049-4.136L1897.491,1184.95z"/>
				</g>
				<g style="opacity:0.6;">
					<path style="fill:#FFFFFF;" d="M2495.809,1634.758c2.2,0.036,3.91-1.733,3.801-3.93l-1.069-21.506
						c-0.109-2.197-1.998-4.038-4.197-4.092l-1261.093-30.462c-2.199-0.053-2.901,1.33-1.558,3.073l25.905,33.642
						c1.342,1.743,4.24,3.199,6.44,3.234L2495.809,1634.758z"/>
				</g>
				<g style="opacity:0.6;">
					<path style="fill:#FFFFFF;" d="M1231.918,1656.638c-2.199-0.053-2.901,1.33-1.558,3.073l25.904,33.642
						c1.342,1.743,4.24,3.199,6.44,3.234l1231.774,20.041c2.2,0.036,3.91-1.733,3.801-3.93l-1.069-21.506
						c-0.109-2.197-1.998-4.039-4.198-4.092L1231.918,1656.638z"/>
				</g>
				<g>
					<path style="fill:#FFFFFF;" d="M1401.789,1975.154c-0.25,0-0.497-0.003-0.747-0.01l-104.214-2.697
						c-14.572-0.375-26.432-10.572-27.594-23.719l-7.74-87.604c-0.438-4.969,1.185-9.853,4.571-13.749
						c3.804-4.378,9.501-7.072,15.631-7.391l0,0c8.796-0.457,21.183-1.31,34.3-2.213c27.594-1.901,61.828-4.337,81.221-4.189
						c13.601,0.053,25.214,8.448,28.242,20.415c5.084,20.087,3.989,58.029,2.297,98.444
						C1427.227,1965.1,1415.65,1975.154,1401.789,1975.154z M1282.046,1846.714c-4.311,0.225-8.283,2.077-10.893,5.081
						c-2.175,2.503-3.222,5.606-2.945,8.737l7.74,87.604c0.859,9.731,9.909,17.287,21.052,17.575l104.218,2.697
						c0.194,0.005,0.385,0.007,0.573,0.007c10.284,0.002,18.856-7.19,19.235-16.257c1.669-39.896,2.764-77.298-2.099-96.509
						c-2.234-8.841-11.376-15.288-21.733-15.327c-18.978-0.145-53.249,2.282-80.734,4.173
						C1303.314,1845.399,1290.898,1846.253,1282.046,1846.714L1282.046,1846.714z"/>
					<g style="opacity:0.6;">
						<path style="fill:#FFFFFF;" d="M1489.729,1886.502c-2.2-0.042-3.569,1.671-3.042,3.807l10.977,44.543
							c0.526,2.136,2.757,3.894,4.957,3.907l971.732,5.641c2.2,0.013,3.99-1.777,3.978-3.977l-0.173-30.898
							c-0.012-2.2-1.822-4.035-4.022-4.077L1489.729,1886.502z"/>
					</g>
					
						<linearGradient id="SVGID_00000153697551803018348180000002607439781029413511_" gradientUnits="userSpaceOnUse" x1="1226.2555" y1="1045.3251" x2="1054.4026" y2="1606.3729" gradientTransform="matrix(0.9999 0.0163 -0.0163 0.9999 284.538 351.2055)">
						<stop  offset="0" style="stop-color:#FF928E"/>
						<stop  offset="1" style="stop-color:#FE7062"/>
					</linearGradient>
					<path style="fill:url(#SVGID_00000153697551803018348180000002607439781029413511_);" d="M1297.359,1870.342L1297.359,1870.342
						c7.812-4.415,17.727-1.543,21.97,6.363l19.959,37.189c1.998,3.722,7.385,3.577,9.179-0.249l52.839-112.695
						c2.636-5.621,11.038-3.57,10.844,2.635c-1.085,34.717-11.373,100.574-67.756,154.922c0,0-30.383-12.383-54.126-66.854
						C1286.839,1883.786,1289.887,1874.565,1297.359,1870.342z"/>
					<path style="fill:#FFFFFF;" d="M1398.156,2198.551c-0.25,0-0.497-0.003-0.747-0.01l-104.214-2.697
						c-14.572-0.375-26.432-10.572-27.594-23.719l-7.743-87.604c-0.438-4.969,1.185-9.851,4.571-13.749
						c3.804-4.378,9.501-7.072,15.631-7.391l0,0c8.793-0.458,21.177-1.31,34.287-2.211c27.597-1.899,61.999-4.234,81.238-4.189
						c13.598,0.051,25.211,8.444,28.242,20.411c5.084,20.089,3.989,58.031,2.297,98.446
						C1423.594,2188.497,1412.017,2198.551,1398.156,2198.551z M1278.409,2070.111c-4.311,0.225-8.283,2.078-10.893,5.083
						c-2.175,2.503-3.222,5.606-2.945,8.736l7.743,87.604c0.859,9.731,9.909,17.287,21.052,17.575l104.218,2.697
						c0.194,0.005,0.385,0.007,0.573,0.007c10.284,0.002,18.856-7.19,19.235-16.257c1.668-39.896,2.764-77.298-2.099-96.509
						c-2.238-8.841-11.377-15.288-21.733-15.325c-19.047-0.036-53.259,2.282-80.751,4.173
						C1299.668,2068.798,1287.258,2069.652,1278.409,2070.111L1278.409,2070.111z"/>
					<path style="opacity:0.6;fill:#FFFFFF;" d="M1289.51,2079.952c21.921-1.14,69.591-5.198,92.167-5.112
						c9.567,0.037,17.861,5.951,19.968,14.281c4.095,16.178,2.995,48.275,1.757,77.895c-0.371,8.871-8.637,15.823-18.588,15.565
						l-83.282-2.155c-10.241-0.265-18.632-7.387-19.437-16.5l-6.186-70.006C1275.269,2086.68,1281.384,2080.375,1289.51,2079.952z"
						/>
					<g style="opacity:0.6;">
						<path style="fill:#FFFFFF;" d="M1486.095,2109.899c-2.2-0.042-3.569,1.671-3.042,3.807l10.976,44.542
							c0.526,2.136,2.757,3.894,4.957,3.907l971.732,5.642c2.2,0.013,3.99-1.777,3.978-3.977l-0.173-30.898
							c-0.012-2.2-1.822-4.034-4.022-4.077L1486.095,2109.899z"/>
					</g>
					<path style="fill:#FFFFFF;" d="M1394.52,2421.948c-0.25,0-0.497-0.003-0.747-0.01l-104.214-2.697
						c-14.572-0.375-26.432-10.572-27.594-23.719l-7.74-87.604c-0.438-4.969,1.185-9.853,4.571-13.749
						c3.804-4.378,9.501-7.072,15.631-7.391l0,0c8.797-0.458,21.183-1.31,34.3-2.213c27.594-1.899,62.069-4.209,81.221-4.189
						c13.601,0.053,25.214,8.446,28.245,20.413c5.081,20.091,3.985,58.031,2.294,98.445
						C1419.958,2411.894,1408.381,2421.948,1394.52,2421.948z M1274.776,2293.508c-4.311,0.225-8.283,2.076-10.893,5.081
						c-2.175,2.503-3.222,5.606-2.945,8.737l7.74,87.604c0.859,9.731,9.909,17.287,21.052,17.575l104.218,2.697
						c0.194,0.005,0.385,0.007,0.573,0.007c10.284,0.002,18.857-7.19,19.235-16.257c1.668-39.896,2.764-77.299-2.096-96.509
						c-2.274-8.984-11.212-15.286-21.736-15.327c-19.107-0.158-53.249,2.282-80.731,4.173
						C1296.045,2292.193,1283.628,2293.047,1274.776,2293.508L1274.776,2293.508z"/>
					<path style="opacity:0.6;fill:#FFFFFF;" d="M1285.876,2303.35c21.921-1.141,69.591-5.198,92.167-5.112
						c9.567,0.037,17.861,5.951,19.969,14.281c4.094,16.178,2.995,48.274,1.756,77.895c-0.37,8.871-8.637,15.822-18.588,15.565
						l-83.283-2.155c-10.242-0.265-18.632-7.387-19.437-16.499l-6.186-70.007C1271.634,2310.076,1277.75,2303.772,1285.876,2303.35z
						"/>
					<g style="opacity:0.6;">
						<path style="fill:#FFFFFF;" d="M1482.46,2333.296c-2.2-0.042-3.569,1.671-3.042,3.807l10.977,44.542
							c0.526,2.136,2.757,3.894,4.957,3.907l971.732,5.642c2.2,0.013,3.99-1.777,3.978-3.977l-0.173-30.898
							c-0.012-2.2-1.822-4.034-4.021-4.077L1482.46,2333.296z"/>
					</g>
					<path style="fill:#FFFFFF;" d="M1390.887,2645.344c-0.25,0-0.497-0.003-0.747-0.01l-104.214-2.697
						c-14.572-0.375-26.432-10.572-27.594-23.719l-7.74-87.604c-0.441-4.967,1.181-9.851,4.568-13.747
						c3.804-4.38,9.504-7.075,15.635-7.393c8.793-0.457,21.18-1.31,34.291-2.213c27.597-1.899,61.897-4.288,81.231-4.189
						c13.598,0.052,25.211,8.446,28.242,20.413c5.084,20.089,3.988,58.031,2.297,98.445
						C1416.325,2635.291,1404.748,2645.344,1390.887,2645.344z M1271.143,2516.905c-4.314,0.224-8.286,2.076-10.896,5.083
						c-2.175,2.503-3.218,5.604-2.942,8.734l7.74,87.605c0.859,9.731,9.909,17.287,21.052,17.575l104.218,2.697
						c0.194,0.005,0.385,0.007,0.573,0.007c10.284,0,18.856-7.191,19.235-16.257c1.668-39.896,2.764-77.299-2.1-96.509
						c-2.238-8.841-11.376-15.288-21.733-15.327c-19.064-0.044-53.256,2.282-80.741,4.175
						C1292.405,2515.59,1279.992,2516.446,1271.143,2516.905L1271.143,2516.905z"/>
					<path style="opacity:0.6;fill:#FFFFFF;" d="M1282.241,2526.747c21.921-1.141,69.591-5.199,92.167-5.113
						c9.566,0.037,17.861,5.951,19.969,14.281c4.094,16.178,2.994,48.275,1.756,77.896c-0.371,8.871-8.637,15.822-18.588,15.565
						l-83.283-2.155c-10.242-0.265-18.632-7.388-19.438-16.5l-6.185-70.007C1268,2533.473,1274.115,2527.169,1282.241,2526.747z"/>
					<g style="opacity:0.6;">
						<path style="fill:#FFFFFF;" d="M1478.826,2556.693c-2.2-0.042-3.568,1.671-3.042,3.807l10.976,44.542
							c0.526,2.136,2.757,3.894,4.957,3.907l971.732,5.642c2.2,0.013,3.99-1.777,3.978-3.977l-0.173-30.898
							c-0.012-2.2-1.822-4.034-4.022-4.077L1478.826,2556.693z"/>
					</g>
					
						<linearGradient id="SVGID_00000176734504837030960550000001378487371525102724_" gradientUnits="userSpaceOnUse" x1="1286.5477" y1="1063.7892" x2="1114.6948" y2="1624.8372" gradientTransform="matrix(0.9999 0.0163 -0.0163 0.9999 284.538 351.2055)">
						<stop  offset="0" style="stop-color:#FF928E"/>
						<stop  offset="1" style="stop-color:#FE7062"/>
					</linearGradient>
					<path style="fill:url(#SVGID_00000176734504837030960550000001378487371525102724_);" d="M1288.513,2102.08L1288.513,2102.08
						c7.812-4.415,17.727-1.543,21.97,6.363l19.959,37.188c1.998,3.722,7.385,3.576,9.179-0.249l52.839-112.695
						c2.635-5.621,11.038-3.57,10.844,2.635c-1.085,34.717-11.373,100.574-67.756,154.922c0,0-30.383-12.383-54.126-66.854
						C1277.993,2115.523,1281.041,2106.302,1288.513,2102.08z"/>
					
						<linearGradient id="SVGID_00000091722339894672322830000010482284308280494243_" gradientUnits="userSpaceOnUse" x1="1418.304" y1="1104.1394" x2="1246.451" y2="1665.187" gradientTransform="matrix(0.9999 0.0163 -0.0163 0.9999 284.538 351.2055)">
						<stop  offset="0" style="stop-color:#FF928E"/>
						<stop  offset="1" style="stop-color:#FE7062"/>
					</linearGradient>
					<path style="fill:url(#SVGID_00000091722339894672322830000010482284308280494243_);" d="M1288.513,2548.874L1288.513,2548.874
						c7.812-4.415,17.727-1.543,21.97,6.363l19.959,37.189c1.998,3.722,7.385,3.576,9.179-0.249l52.839-112.695
						c2.635-5.621,11.038-3.57,10.844,2.635c-1.085,34.717-11.373,100.574-67.756,154.922c0,0-30.383-12.382-54.126-66.854
						C1277.993,2562.317,1281.041,2553.096,1288.513,2548.874z"/>
				</g>
			</g>
			
				<linearGradient id="SVGID_00000124846395025566303560000005544514100794790812_" gradientUnits="userSpaceOnUse" x1="1800.0511" y1="-107.5322" x2="1127.6711" y2="776.9677" gradientTransform="matrix(0.9999 0.0163 -0.0163 0.9999 284.538 351.2055)">
				<stop  offset="0" style="stop-color:#09005D"/>
				<stop  offset="1" style="stop-color:#1A0F91"/>
			</linearGradient>
			<path style="fill:url(#SVGID_00000124846395025566303560000005544514100794790812_);" d="M1919.526,488.543
				c-52.2-37.589-98.119-37.608-130.592-28.598c-29.621,8.218-49.191,36.37-46.885,67.025l11.462,152.347l165.603,17.416
				C1919.114,696.733,2021.896,562.26,1919.526,488.543z M1844.597,610.08c-22.838-0.372-41.051-19.186-40.679-42.025
				c0.372-22.839,19.187-41.052,42.025-40.681c22.839,0.372,41.052,19.187,40.68,42.026
				C1886.251,592.239,1867.436,610.451,1844.597,610.08z"/>
			<g>
				<path style="fill:#BDD0FB;" d="M1771.183,614.963c-1.747,0-3.225-1.348-3.357-3.118l-1.823-24.262
					c-0.138-1.854,1.25-3.472,3.107-3.612c1.853-0.117,3.475,1.252,3.613,3.108l1.823,24.262c0.138,1.854-1.25,3.472-3.106,3.612
					C1771.354,614.96,1771.268,614.963,1771.183,614.963z M1767.605,567.419c-1.747,0-3.225-1.348-3.357-3.116l-1.385-18.422
					c-2.175-28.903,16.421-55.479,44.213-63.189c19.788-5.491,40.092-5.991,60.347-1.499c1.817,0.403,2.962,2.201,2.56,4.02
					c-0.405,1.817-2.208,2.97-4.021,2.559c-19.169-4.255-38.378-3.778-57.083,1.413c-24.704,6.855-41.228,30.485-39.296,56.189
					l1.385,18.422c0.141,1.856-1.251,3.474-3.107,3.613C1767.777,567.415,1767.691,567.419,1767.605,567.419z"/>
			</g>
			
				<linearGradient id="SVGID_00000131366228739195390530000017725432054441910913_" gradientUnits="userSpaceOnUse" x1="1873.8188" y1="-51.4786" x2="1201.4203" y2="833.0459" gradientTransform="matrix(0.9999 0.0163 -0.0163 0.9999 284.538 351.2055)">
				<stop  offset="0" style="stop-color:#09005D"/>
				<stop  offset="1" style="stop-color:#1A0F91"/>
			</linearGradient>
			<path style="fill:url(#SVGID_00000131366228739195390530000017725432054441910913_);" d="M1525.565,773.941l1.244-76.481
				c0.43-26.402,22.656-47.191,49.027-45.858l527.012,26.645c23.388,1.183,42.039,19.962,43.06,43.359l3.211,73.56L1525.565,773.941
				z"/>
			<path style="fill:#BDD0FB;" d="M1723.785,682.203c-0.016,0-0.036,0-0.056,0l-22.677-0.369c-1.859-0.031-3.344-1.563-3.314-3.424
				c0.03-1.843,1.534-3.315,3.37-3.315c0.016,0,0.036,0,0.056,0l22.677,0.368c1.859,0.031,3.344,1.563,3.314,3.424
				C1727.125,680.73,1725.621,682.203,1723.785,682.203z"/>
			<path style="fill:#BDD0FB;" d="M1554.563,749.757c-0.016,0-0.036,0-0.056,0c-1.859-0.031-3.344-1.563-3.314-3.424l0.503-30.937
				c0.184-11.413,4.805-22.068,13.002-30.006c8.201-7.936,18.942-12.171,30.414-12.021l83.373,1.356
				c1.859,0.031,3.343,1.563,3.314,3.424c-0.03,1.843-1.533,3.315-3.37,3.315c-0.016,0-0.036,0-0.056,0l-83.373-1.356
				c-9.738-0.114-18.708,3.442-25.613,10.124c-6.907,6.685-10.797,15.661-10.952,25.272l-0.504,30.937
				C1557.903,748.285,1556.399,749.757,1554.563,749.757z"/>
			<path style="fill:#91B3FA;" d="M1360.796,743.262l922.094,14.977c33.156,0.538,61.114,24.859,66.238,57.622l0.707,4.521
				c5.612,35.886-22.471,68.167-58.787,67.576l-946.014-15.391c-21.734-0.354-38.758-18.807-37.362-40.5l2.724-42.307
				C1312.1,763.295,1334.282,742.832,1360.796,743.262z"/>
		</g>
		<g>
			
				<linearGradient id="SVGID_00000079467662827376977330000001014395830684865193_" gradientUnits="userSpaceOnUse" x1="2394.9253" y1="3269.5298" x2="2571.8333" y2="1374.1039">
				<stop  offset="0" style="stop-color:#E1473D"/>
				<stop  offset="1" style="stop-color:#E9605A"/>
			</linearGradient>
			<path style="fill:url(#SVGID_00000079467662827376977330000001014395830684865193_);" d="M1741.379,2106.269
				c0,0-115.317,284.807,15.407,447.75c130.724,162.943,501.874,388.771,762.488,560.566
				c260.614,171.795,441.326,155.628,536.512,89.457c95.186-66.171,171.778-354.198,176.601-459.078
				c4.822-104.88,97.45-960.87-256.732-1039.064c0,0,11.288-41.953,56.47-22.599c45.182,19.355,105.697,65.33,105.697,65.33
				s184.725-134.761,93.535-280.77c0,0-357.418-133.053-502.634-121.733c-145.215,11.32-332.334,292.106-442.846,378.448
				C2175.365,1810.918,1809.936,2008.638,1741.379,2106.269z"/>
			
				<linearGradient id="SVGID_00000031176939004179419080000010647161073973033091_" gradientUnits="userSpaceOnUse" x1="2793.4512" y1="1153.0166" x2="1981.9623" y2="2616.5959" gradientTransform="matrix(0.9997 0.023 -0.023 0.9997 58.9744 -62.349)">
				<stop  offset="0" style="stop-color:#E1473D"/>
				<stop  offset="1" style="stop-color:#E9605A"/>
			</linearGradient>
			<path style="fill:url(#SVGID_00000031176939004179419080000010647161073973033091_);" d="M2271.327,1571.293
				c0,0,120.608,145.241,210.378,166.985c89.77,21.744,103.468-72.649,117.175-120.251c13.706-47.601,91.9-401.783,271.82-338.08
				l21.79,42.755c0,0,112.963,95.178,245.256,4.798c0,0,60.458-281.57-104.136-365.445
				C2869.016,878.181,2431.728,744.335,2271.327,1571.293z"/>
			
				<linearGradient id="SVGID_00000091711690894352066020000011808176703650934440_" gradientUnits="userSpaceOnUse" x1="1550.569" y1="4589.6289" x2="782.5452" y2="2850.8259" gradientTransform="matrix(0.9192 0.3937 -0.3937 0.9192 2460.52 -1413.5541)">
				<stop  offset="0" style="stop-color:#E1473D"/>
				<stop  offset="1" style="stop-color:#E9605A"/>
			</linearGradient>
			<path style="fill:url(#SVGID_00000091711690894352066020000011808176703650934440_);" d="M2237.335,948.479
				c0,0-134.664,376.781-243.556,490.553c-108.893,113.772-366.213,324.382-383.083,738.253
				c-16.869,413.872,87.986,278.318,131.533,176.658c43.547-101.659,429.932-410.717,606.598-495.458
				c176.666-84.741,175.031-205.755,40.295-250.103c-134.737-44.349-126.678-94.369-59.747-266.221
				c66.931-171.852,179.035-371.141,179.035-371.141S2458.357,775.794,2237.335,948.479z"/>
			<path style="opacity:0.48;fill:#FFFFFF;" d="M2513.408,1872.173c0,0-417.067,162.232-342.747,722.111
				c74.32,559.879,62.959,180.704,28.239,12.096c-34.721-168.607,20.924-298.505,72.554-309.809
				c51.63-11.304-60.441,375.155,40.426,498.572c100.866,123.417-32.293-127.463,1.552-346.907
				C2344.607,2246.108,2293.195,2058.573,2513.408,1872.173z"/>
			<path style="opacity:0.48;fill:#FFFFFF;" d="M2782.85,1773.7c0,0,290.422-69.432,352.604,284.725
				c62.182,354.158-78.97,527.635-112.015,714.003c-33.045,186.368,60.458-281.57,70.11-444.538
				c9.653-162.967,48.353-300.124-56.534-351.738c-104.888-51.615-228.264,283.213-325.869,355.032
				c-97.606,71.818-32.276-33.878,94.352-220.263C2932.126,1924.539,3159.614,1814.78,2782.85,1773.7z"/>
		</g>
		<g>
			
				<linearGradient id="SVGID_00000119823331452805271720000012187457364199344524_" gradientUnits="userSpaceOnUse" x1="-4877.2476" y1="3074.9707" x2="-5562.2988" y2="3820.1155" gradientTransform="matrix(-1 0 0 1 -2870.7234 0)">
				<stop  offset="0" style="stop-color:#09005D"/>
				<stop  offset="1" style="stop-color:#1A0F91"/>
			</linearGradient>
			<path style="fill:url(#SVGID_00000119823331452805271720000012187457364199344524_);" d="M2223.07,3130.479
				c0,0,7.094,40.163,10.573,79.921c1.359,15.539-10.62,29.03-26.204,29.679c-52.945,2.205-166.198,6.493-206.837,4.68
				c-6.109-0.272-10.103-6.527-7.842-12.209c1.895-4.761,5.549-8.611,10.205-10.75l187.072-85.978L2223.07,3130.479z"/>
			
				<linearGradient id="SVGID_00000052782753467298595930000001757183454815591055_" gradientUnits="userSpaceOnUse" x1="-5099.605" y1="3130.3137" x2="-5038.7554" y2="3130.3137" gradientTransform="matrix(-1 0 0 1 -2870.7234 0)">
				<stop  offset="0" style="stop-color:#FEBBBA"/>
				<stop  offset="1" style="stop-color:#FF928E"/>
			</linearGradient>
			<path style="fill:url(#SVGID_00000052782753467298595930000001757183454815591055_);" d="M2228.882,3106.88l-5.7,48.041
				c0,0-32.77,15.255-55.15-1.923l13.571-53.537L2228.882,3106.88z"/>
			
				<linearGradient id="SVGID_00000072983542347804788180000011815642987360801672_" gradientUnits="userSpaceOnUse" x1="-5243.8936" y1="2665.0371" x2="-5042.6943" y2="2665.0371" gradientTransform="matrix(-1 0 0 1 -2870.7234 0)">
				<stop  offset="0" style="stop-color:#09005D"/>
				<stop  offset="1" style="stop-color:#1A0F91"/>
			</linearGradient>
			<path style="fill:url(#SVGID_00000072983542347804788180000011815642987360801672_);" d="M2224.598,2203.696
				c2.462,12.545,13.216,626.055-52.364,900.99c-1.07,4.487,1.204,9.11,5.474,10.855c10.059,4.11,29.777,10.061,53.409,10.854
				c7.318,0.246,13.88-4.511,15.944-11.536c18.746-63.788,108.572-383.39,120.29-688.696c13.094-341.149,0-11.616,0-11.616
				l-7.679-210.877L2224.598,2203.696z"/>
			
				<linearGradient id="SVGID_00000010292023818766300250000018101569916440809138_" gradientUnits="userSpaceOnUse" x1="-5030.9272" y1="2933.6841" x2="-5715.98" y2="3678.8296" gradientTransform="matrix(-1 0 0 1 -2870.7234 0)">
				<stop  offset="0" style="stop-color:#09005D"/>
				<stop  offset="1" style="stop-color:#1A0F91"/>
			</linearGradient>
			<path style="fill:url(#SVGID_00000010292023818766300250000018101569916440809138_);" d="M2438.264,3151.433
				c0,0,11.293,20.276,22.226,74.154c1.975,9.73-4.824,19.043-14.705,20.014c-17.482,1.719-44.396,3.929-65.955,3.781
				c-9.938-0.068-17.695-8.722-16.497-18.588c2.388-19.666,9.827-51.931,32.81-77.08L2438.264,3151.433z"/>
			
				<linearGradient id="SVGID_00000176725604133959448800000004424957770541712317_" gradientUnits="userSpaceOnUse" x1="-5318.9067" y1="3127.1931" x2="-5266.3687" y2="3127.1931" gradientTransform="matrix(-1 0 0 1 -2870.7234 0)">
				<stop  offset="0" style="stop-color:#FEBBBA"/>
				<stop  offset="1" style="stop-color:#FF928E"/>
			</linearGradient>
			<path style="fill:url(#SVGID_00000176725604133959448800000004424957770541712317_);" d="M2448.183,3089.641l-13.319,72.651
				c0,0-13.169,9.795-39.219,2.694l6.357-78.168L2448.183,3089.641z"/>
			
				<linearGradient id="SVGID_00000023261570243934208630000007155088325669634987_" gradientUnits="userSpaceOnUse" x1="-5375.5347" y1="2658.4541" x2="-5089.8965" y2="2658.4541" gradientTransform="matrix(-1 0 0 1 -2870.7234 0)">
				<stop  offset="0" style="stop-color:#09005D"/>
				<stop  offset="1" style="stop-color:#1A0F91"/>
			</linearGradient>
			<path style="fill:url(#SVGID_00000023261570243934208630000007155088325669634987_);" d="M2484.164,2222.523
				c53.635,323.693-11.635,800.034-33.648,893.265c-1.348,5.708-5.954,10.081-11.74,11.04c-9.826,1.629-26.003,2.958-41.951-1.674
				c-5.495-1.596-9.356-6.552-9.58-12.27c-2.953-75.375,2.362-538.103-47.614-720.975c-2.532-9.268-8.192-17.35-16.023-22.917
				l-97-68.958l-7.437-111.466L2484.164,2222.523z"/>
			<g>
				
					<linearGradient id="SVGID_00000053545515265877892490000012886558509699718325_" gradientUnits="userSpaceOnUse" x1="-3283.5374" y1="-5828.3711" x2="-3404.845" y2="-5338.0869" gradientTransform="matrix(-1 0 0 1 -2870.7234 0)">
					<stop  offset="0" style="stop-color:#4F52FF"/>
					<stop  offset="1" style="stop-color:#4042E2"/>
				</linearGradient>
				<path style="fill:url(#SVGID_00000053545515265877892490000012886558509699718325_);" d="M2142.398,1609.187
					c160.735-2.655,338.088,42.205,338.088,42.205c47.912,279.563,8.378,602.02,8.378,602.02
					c-124.437,32.633-264.809-19.952-264.809-19.952c-20.682-116.85-117.18-445.707-117.18-445.707
					C2028.34,1778.005,2092.822,1610.006,2142.398,1609.187z"/>
			</g>
			
				<linearGradient id="SVGID_00000076565791141395851830000003544261133616854175_" gradientUnits="userSpaceOnUse" x1="-5227.3735" y1="1548.5699" x2="-5061.9819" y2="1548.5699" gradientTransform="matrix(-1 0 0 1 -2870.7234 0)">
				<stop  offset="0" style="stop-color:#FEBBBA"/>
				<stop  offset="1" style="stop-color:#FF928E"/>
			</linearGradient>
			<path style="fill:url(#SVGID_00000076565791141395851830000003544261133616854175_);" d="M2287.175,1450.671
				c31.552,36.809,50.57,105.843,69.177,175.927c0.847,2.45-0.16,5.163-2.429,6.418c-13.941,7.708-64.168,29.988-124.697-8.388
				c-6.305-3.998-10.597-10.518-11.555-17.922l-26.413-136.595L2287.175,1450.671z"/>
			<g>
				
					<linearGradient id="SVGID_00000037676123633484764680000002981978172682178749_" gradientUnits="userSpaceOnUse" x1="-9510.5459" y1="-1944.0913" x2="-9568.6709" y2="-2135.8005" gradientTransform="matrix(-0.9985 -0.0539 -0.0539 0.9985 -7411.9214 3007.127)">
					<stop  offset="0" style="stop-color:#FEBBBA"/>
					<stop  offset="1" style="stop-color:#FF928E"/>
				</linearGradient>
				<path style="fill:url(#SVGID_00000037676123633484764680000002981978172682178749_);" d="M2136.269,1464.767
					c0,0,22.197,117.632,54.498,146.479s84.732-17.033,110.52-82.086l-38.155-115.665L2136.269,1464.767z"/>
				
					<linearGradient id="SVGID_00000079469768180880102740000005040493639865727126_" gradientUnits="userSpaceOnUse" x1="2439.5598" y1="747.0453" x2="2262.6528" y2="1287.8737">
					<stop  offset="0" style="stop-color:#09005D"/>
					<stop  offset="1" style="stop-color:#1A0F91"/>
				</linearGradient>
				<path style="fill:url(#SVGID_00000079469768180880102740000005040493639865727126_);" d="M2264.166,1487.066
					c-2.612,0.689-5.212-1.102-5.469-3.791c-0.781-8.178-2.957-24.397-8.526-35.664c0,0,3.843-11.356-29.456,4.316
					c-33.299,15.672-83.284,38.637-111.078,21.858c-27.098-16.359-51.327-92.641,21.66-74.814c2.777,0.678,5.477-1.418,5.421-4.276
					c-0.243-12.335,2.5-40.537,31.614-48.066c27.245-7.046,41.257,5.837,46.906,13.462c1.662,2.243,4.964,2.378,6.778,0.257
					c8.59-10.043,31.584-31.165,62.902-15.298c25.796,13.07,29.027,29.567,28.044,39.686c-0.318,3.278,2.896,5.685,5.958,4.47
					c8.293-3.291,21.415-4.525,33.041,11.77c16.073,22.528-9.57,39.929-17.225,44.441c-1.254,0.739-2.079,2.032-2.167,3.485
					c-0.675,11.229-5.066,60.13-31.114,86.443c-2.255,2.278-6.147,1.365-7.227-1.654l-16.478-46.069
					c-0.765-2.14-3.041-3.338-5.238-2.758L2264.166,1487.066z"/>
				
					<linearGradient id="SVGID_00000094588776611891011260000016674855686195937701_" gradientUnits="userSpaceOnUse" x1="-9569.9629" y1="-1944.9846" x2="-9622.2588" y2="-2117.47" gradientTransform="matrix(-0.9985 -0.0539 -0.0539 0.9985 -7411.9214 3007.127)">
					<stop  offset="0" style="stop-color:#FEBBBA"/>
					<stop  offset="1" style="stop-color:#FF928E"/>
				</linearGradient>
				<path style="fill:url(#SVGID_00000094588776611891011260000016674855686195937701_);" d="M2263.273,1496.191
					c0,0,14.082-46.404,30.798-30.19c16.715,16.214-7.208,48.627-27.645,53.949L2263.273,1496.191z"/>
			</g>
			
				<linearGradient id="SVGID_00000025437926401751306770000015280563996244501422_" gradientUnits="userSpaceOnUse" x1="-5195.9297" y1="1889.4196" x2="-5047.436" y2="1889.4196" gradientTransform="matrix(-1 0 0 1 -2870.7234 0)">
				<stop  offset="0" style="stop-color:#FEBBBA"/>
				<stop  offset="1" style="stop-color:#FF928E"/>
			</linearGradient>
			<path style="fill:url(#SVGID_00000025437926401751306770000015280563996244501422_);" d="M2296.104,1885.866
				c-3.692-2.876-7.304-5.239-10.535-6.894c-21.315-10.915-48.273-13.09-63.768-31.35c-5.96-7.023-14.327-20.922-24.816-21.123
				c-11.051-0.213-19.313,13.829-20.102,23.284c-1.403,16.807,6.033,37.458,17.638,49.693c11.39,12.007,26.019,20.351,40.482,28.396
				c19.145,10.65,49.425,30.597,72.372,22.643C2342.86,1938.216,2318.059,1902.969,2296.104,1885.866z"/>
			
				<linearGradient id="SVGID_00000106848932889810595870000009849520583487361955_" gradientUnits="userSpaceOnUse" x1="4038.3625" y1="739.535" x2="4185.1377" y2="739.535" gradientTransform="matrix(0.9708 0.2399 -0.2399 0.9708 -1655.708 146.5858)">
				<stop  offset="0" style="stop-color:#FEBBBA"/>
				<stop  offset="1" style="stop-color:#FF928E"/>
			</linearGradient>
			<path style="fill:url(#SVGID_00000106848932889810595870000009849520583487361955_);" d="M2119.153,1828.561
				c12.075-7.185,24.825-13.083,38.355-16.842c14.712-4.087,30.348-5.407,45.481-3.138c8.302,1.245,35.608,6.439,36.924,17.224
				c0.932,7.64-13.647,22.208-18.819,26.897c-7.78,7.054-16.913,13.614-26.53,17.941c-18.867,8.486-39.901,10.377-60.288,13.887
				c-11.81,2.033-24.842,8.487-36.977,5.176c-16.827-4.592-24.084-27.149-10.445-38.221
				C2097.084,1843.18,2107.821,1835.303,2119.153,1828.561z"/>
			
				<linearGradient id="SVGID_00000131362522786209865590000017132962218636829336_" gradientUnits="userSpaceOnUse" x1="-5281.2422" y1="1733.1884" x2="-5428.2124" y2="2285.655" gradientTransform="matrix(-1 0 0 1 -2870.7234 0)">
				<stop  offset="0" style="stop-color:#4F52FF"/>
				<stop  offset="1" style="stop-color:#4042E2"/>
			</linearGradient>
			<path style="fill:url(#SVGID_00000131362522786209865590000017132962218636829336_);" d="M2450.92,1829.707
				c-1.356-62.229-15.142-137.848,29.565-178.315c20.341-6.953,422.2,517.191-177.487,306.894
				c-28.368,2.089,36.714-27.137-17.429-79.313C2596.842,1921.682,2450.92,1829.707,2450.92,1829.707z"/>
			
				<linearGradient id="SVGID_00000150810334438351397100000010276108911440976814_" gradientUnits="userSpaceOnUse" x1="-4883.6128" y1="1758.6042" x2="-5641.7012" y2="2858.136" gradientTransform="matrix(-1 0 0 1 -2870.7234 0)">
				<stop  offset="0" style="stop-color:#4F52FF"/>
				<stop  offset="1" style="stop-color:#4042E2"/>
			</linearGradient>
			<path style="fill:url(#SVGID_00000150810334438351397100000010276108911440976814_);" d="M2131.665,1610.83l-23.338,181.887
				c-46.928,55.161-81.631,93.958-16.515,49.571c1.672-1.14,3.895,0.252,3.569,2.249c-2.306,14.149,7.726,29.281,28.144,45.242
				C1893.554,2188.568,1806.025,1757.203,2131.665,1610.83z"/>
		</g>
	</g>
</g>
</svg>
