<?xml version="1.0" encoding="utf-8"?>
<!-- Generator: Adobe Illustrator 26.0.3, SVG Export Plug-In . SVG Version: 6.00 Build 0)  -->
<svg version="1.1" id="Layer_1" xmlns="http://www.w3.org/2000/svg" xmlns:xlink="http://www.w3.org/1999/xlink" x="0px" y="0px"
	 viewBox="0 0 1920 1080" style="enable-background:new 0 0 1920 1080;" xml:space="preserve">
<style type="text/css">
	.st0{fill-rule:evenodd;clip-rule:evenodd;fill:#F2F2F2;}
	.st1{fill-rule:evenodd;clip-rule:evenodd;fill:#FFFFFF;}
	.st2{fill-rule:evenodd;clip-rule:evenodd;fill:#E2E3E4;}
	.st3{opacity:0.81;}
	.st4{fill-rule:evenodd;clip-rule:evenodd;fill:#D1D9EE;}
	.st5{opacity:0.26;fill-rule:evenodd;clip-rule:evenodd;fill:#D1D9EE;}
	.st6{fill-rule:evenodd;clip-rule:evenodd;fill:#BCC9E7;}
	.st7{fill-rule:evenodd;clip-rule:evenodd;fill:#AAB9DE;}
	.st8{fill-rule:evenodd;clip-rule:evenodd;fill:#1A315B;}
	.st9{fill-rule:evenodd;clip-rule:evenodd;fill:#9D7659;}
	.st10{fill-rule:evenodd;clip-rule:evenodd;fill:#C19274;}
	.st11{fill-rule:evenodd;clip-rule:evenodd;fill:#D2A484;}
	.st12{fill-rule:evenodd;clip-rule:evenodd;fill:#E2BB9B;}
	.st13{fill-rule:evenodd;clip-rule:evenodd;fill:#D5DCEF;}
	.st14{fill-rule:evenodd;clip-rule:evenodd;fill:#B3BFE0;}
	.st15{fill-rule:evenodd;clip-rule:evenodd;fill:#A3ADD6;}
	.st16{fill-rule:evenodd;clip-rule:evenodd;fill:#FAB17E;}
	.st17{fill-rule:evenodd;clip-rule:evenodd;fill:#659FD5;}
	.st18{fill-rule:evenodd;clip-rule:evenodd;fill:#4F8ECB;}
	.st19{fill-rule:evenodd;clip-rule:evenodd;fill:#274391;}
	.st20{fill-rule:evenodd;clip-rule:evenodd;fill:#4C67B0;}
	.st21{fill-rule:evenodd;clip-rule:evenodd;fill:#415DAA;}
	.st22{fill-rule:evenodd;clip-rule:evenodd;fill:#EF8261;}
	.st23{fill-rule:evenodd;clip-rule:evenodd;fill:#5074B9;}
	.st24{fill-rule:evenodd;clip-rule:evenodd;fill:#F7A4AD;}
	.st25{fill-rule:evenodd;clip-rule:evenodd;fill:#729AD1;}
	.st26{fill-rule:evenodd;clip-rule:evenodd;fill:#D35D2B;}
	.st27{fill-rule:evenodd;clip-rule:evenodd;fill:#F47B44;}
	.st28{fill:#E1E2F2;}
	.st29{fill:#D1D9EE;}
	.st30{fill:#B3BFE0;}
	.st31{opacity:0.5;fill:#FFFFFF;}
	.st32{fill:#E0EAF7;}
	.st33{fill:#B2CBEA;}
	.st34{fill:#CFDFF3;}
	.st35{fill:#82B379;}
	.st36{fill:#A8D29F;}
	.st37{fill:#F89748;}
	.st38{fill:#DB7027;}
	.st39{fill:#F9A86B;}
	.st40{fill:#FAB17E;}
	.st41{fill:#FFFFFF;}
	.st42{fill:#183660;}
	.st43{fill:#B6473D;}
	.st44{fill:#EFDECE;}
	.st45{fill:#FBEBDB;}
	.st46{fill:#1C478A;}
	.st47{fill:#243962;}
	.st48{fill:#EE985E;}
	.st49{fill:#EC7E2A;}
	.st50{fill:#2B5CA6;}
	.st51{fill:#A3ADD6;}
	.st52{fill:#729AD1;}
	.st53{fill:#5E8BC8;}
	.st54{fill:#F3D2B8;}
	.st55{fill:#5D8BC8;}
	.st56{fill:#D39E7A;}
	.st57{fill:#EFCBAC;}
	.st58{fill:#F4A36A;}
	.st59{fill:#7A97CD;}
	.st60{fill:#5074B9;}
	.st61{fill:#2B488C;}
	.st62{fill:#6DB7C0;}
	.st63{fill:#8DD3D7;}
	.st64{fill:#EDA04B;}
	.st65{fill:#FAB179;}
</style>
<g>
	<g>
		<rect x="112.8" y="312.8" class="st0" width="150.8" height="477.8"/>
	</g>
	<g>
		<rect x="188.2" y="312.8" class="st0" width="75.4" height="476.5"/>
	</g>
	<g>
		<rect x="130.1" y="265.9" class="st0" width="53.2" height="46.9"/>
	</g>
	<g>
		<rect x="100.3" y="310.1" class="st0" width="167.7" height="2.7"/>
	</g>
	<g>
		<g>
			<rect x="142.6" y="333.3" class="st1" width="12.8" height="26.9"/>
		</g>
	</g>
	<g>
		<path class="st1" d="M188.2,370.8c0,0.3-16.9,0.5-37.7,0.5c-20.8,0-37.7-0.2-37.7-0.5c0-0.3,16.9-0.5,37.7-0.5
			C171.3,370.2,188.2,370.5,188.2,370.8z"/>
	</g>
	<g>
		<g>
			<rect x="218.6" y="333.3" class="st1" width="12.8" height="26.9"/>
		</g>
	</g>
	<g>
		<path class="st0" d="M264.3,370.8c0,0.3-16.9,0.5-37.7,0.5c-20.8,0-37.7-0.2-37.7-0.5c0-0.3,16.9-0.5,37.7-0.5
			C247.4,370.2,264.3,370.5,264.3,370.8z"/>
	</g>
	<g>
		<g>
			<rect x="218.6" y="386.7" class="st1" width="12.8" height="26.9"/>
		</g>
	</g>
	<g>
		<ellipse class="st0" cx="226.6" cy="424.2" rx="37.7" ry="0.5"/>
	</g>
	<g>
		<g>
			<rect x="218.6" y="441.7" class="st1" width="12.8" height="26.9"/>
		</g>
	</g>
	<g>
		<path class="st0" d="M264.3,479.2c0,0.3-16.9,0.5-37.7,0.5c-20.8,0-37.7-0.2-37.7-0.5c0-0.3,16.9-0.5,37.7-0.5
			C247.4,478.7,264.3,478.9,264.3,479.2z"/>
	</g>
	<g>
		<g>
			<rect x="218.6" y="496.8" class="st1" width="12.8" height="26.9"/>
		</g>
	</g>
	<g>
		<path class="st0" d="M264.3,534.3c0,0.3-16.9,0.5-37.7,0.5c-20.8,0-37.7-0.2-37.7-0.5c0-0.3,16.9-0.5,37.7-0.5
			C247.4,533.7,264.3,534,264.3,534.3z"/>
	</g>
	<g>
		<g>
			<rect x="218.6" y="550.2" class="st1" width="12.8" height="26.9"/>
		</g>
	</g>
	<g>
		<path class="st0" d="M264.3,587.7c0,0.3-16.9,0.5-37.7,0.5c-20.8,0-37.7-0.2-37.7-0.5c0-0.3,16.9-0.5,37.7-0.5
			C247.4,587.2,264.3,587.4,264.3,587.7z"/>
	</g>
	<g>
		<g>
			<rect x="218.6" y="603.9" class="st1" width="12.8" height="26.9"/>
		</g>
	</g>
	<g>
		<g>
			<rect x="218.6" y="658.3" class="st1" width="12.8" height="26.9"/>
		</g>
	</g>
	<g>
		<path class="st0" d="M264.3,641.4c0,0.3-16.9,0.5-37.7,0.5c-20.8,0-37.7-0.2-37.7-0.5c0-0.3,16.9-0.5,37.7-0.5
			C247.4,640.9,264.3,641.1,264.3,641.4z"/>
	</g>
	<g>
		<g>
			<rect x="142.6" y="387.5" class="st1" width="12.8" height="26.9"/>
		</g>
	</g>
	<g>
		<path class="st1" d="M188.2,425c0,0.3-16.9,0.5-37.7,0.5c-20.8,0-37.7-0.2-37.7-0.5c0-0.3,16.9-0.5,37.7-0.5
			C171.3,424.5,188.2,424.7,188.2,425z"/>
	</g>
	<g>
		<g>
			<rect x="142.6" y="441.8" class="st1" width="12.8" height="26.9"/>
		</g>
	</g>
	<g>
		<path class="st0" d="M188.2,479.2c0,0.3-16.9,0.5-37.7,0.5c-20.8,0-37.7-0.2-37.7-0.5c0-0.3,16.9-0.5,37.7-0.5
			C171.3,478.7,188.2,479,188.2,479.2z"/>
	</g>
	<g>
		<g>
			<rect x="142.6" y="496" class="st1" width="12.8" height="26.9"/>
		</g>
	</g>
	<g>
		<path class="st1" d="M188.2,533.5c0,0.3-16.9,0.5-37.7,0.5c-20.8,0-37.7-0.2-37.7-0.5c0-0.3,16.9-0.5,37.7-0.5
			C171.3,533,188.2,533.2,188.2,533.5z"/>
	</g>
	<g>
		<g>
			<rect x="142.6" y="550.2" class="st1" width="12.8" height="26.9"/>
		</g>
	</g>
	<g>
		<path class="st1" d="M188.2,587.7c0,0.3-16.9,0.5-37.7,0.5c-20.8,0-37.7-0.2-37.7-0.5c0-0.3,16.9-0.5,37.7-0.5
			C171.3,587.2,188.2,587.4,188.2,587.7z"/>
	</g>
	<g>
		<g>
			<rect x="142.6" y="604.5" class="st1" width="12.8" height="26.9"/>
		</g>
	</g>
	<g>
		<path class="st1" d="M188.2,642c0,0.3-16.9,0.5-37.7,0.5c-20.8,0-37.7-0.2-37.7-0.5c0-0.3,16.9-0.5,37.7-0.5
			C171.3,641.4,188.2,641.7,188.2,642z"/>
	</g>
	<g>
		<g>
			<rect x="142.6" y="658.7" class="st1" width="12.8" height="26.9"/>
		</g>
	</g>
</g>
<g>
	<g>
		<polygon class="st2" points="513.2,790.1 261.3,790.1 260.3,392 512.2,392 		"/>
	</g>
	<g>
		<rect x="386.2" y="392" class="st2" width="126" height="398.1"/>
	</g>
	<g>
		<rect x="289" y="313.6" class="st2" width="88.9" height="78.4"/>
	</g>
	<g>
		<rect x="356.8" y="313.6" class="st2" width="21.2" height="78.4"/>
	</g>
	<g>
		<rect x="239.3" y="387.4" class="st2" width="280.3" height="4.6"/>
	</g>
	<g>
		<rect x="310" y="426.2" class="st1" width="21.3" height="45"/>
	</g>
	<g>
		<path class="st1" d="M386.2,488.8c0,0.5-28.2,0.9-63,0.9c-34.8,0-63-0.4-63-0.9s28.2-0.9,63-0.9
			C358,487.9,386.2,488.3,386.2,488.8z"/>
	</g>
	<g>
		<rect x="437" y="426.2" class="st1" width="21.3" height="45"/>
	</g>
	<g>
		<path class="st1" d="M513.2,488.8c0,0.5-28.2,0.9-63,0.9c-34.8,0-63-0.4-63-0.9s28.2-0.9,63-0.9
			C485.1,487.9,513.2,488.3,513.2,488.8z"/>
	</g>
	<g>
		<rect x="437" y="515.5" class="st1" width="21.3" height="45"/>
	</g>
	<g>
		<path class="st1" d="M513.2,578.1c0,0.5-28.2,0.9-63,0.9c-34.8,0-63-0.4-63-0.9c0-0.5,28.2-0.9,63-0.9
			C485.1,577.2,513.2,577.6,513.2,578.1z"/>
	</g>
	<g>
		<rect x="437" y="607.4" class="st1" width="21.3" height="45"/>
	</g>
	<g>
		<path class="st1" d="M513.2,670c0,0.5-28.2,0.9-63,0.9c-34.8,0-63-0.4-63-0.9c0-0.5,28.2-0.9,63-0.9
			C485.1,669.1,513.2,669.5,513.2,670z"/>
	</g>
	<g>
		<rect x="437" y="699.4" class="st1" width="21.3" height="45"/>
	</g>
	<g>
		<path class="st2" d="M513.2,762c0,0.5-28.2,0.9-63,0.9c-34.8,0-63-0.4-63-0.9c0-0.5,28.2-0.9,63-0.9
			C485.1,761.1,513.2,761.5,513.2,762z"/>
	</g>
	<g>
		<rect x="310" y="516.8" class="st1" width="21.3" height="45"/>
	</g>
	<g>
		<path class="st1" d="M386.2,579.4c0,0.5-28.2,0.9-63,0.9c-34.8,0-63-0.4-63-0.9s28.2-0.9,63-0.9
			C358,578.6,386.2,578.9,386.2,579.4z"/>
	</g>
	<g>
		<rect x="310" y="607.4" class="st1" width="21.3" height="45"/>
	</g>
	<g>
		<path class="st1" d="M386.2,670c0,0.5-28.2,0.9-63,0.9c-34.8,0-63-0.4-63-0.9c0-0.5,28.2-0.9,63-0.9
			C358,669.2,386.2,669.6,386.2,670z"/>
	</g>
	<g>
		<rect x="310" y="698.1" class="st1" width="21.3" height="45"/>
	</g>
	<g>
		<path class="st2" d="M386.2,760.7c0,0.5-28.2,0.9-63,0.9c-34.8,0-63-0.4-63-0.9s28.2-0.9,63-0.9
			C358,759.8,386.2,760.2,386.2,760.7z"/>
	</g>
</g>
<g>
	<g>
		<rect x="1517" y="314.8" class="st0" width="150.8" height="477.8"/>
	</g>
	<g>
		<rect x="1592.4" y="314.8" class="st0" width="75.4" height="476.5"/>
	</g>
	<g>
		<rect x="1534.3" y="267.9" class="st0" width="53.2" height="46.9"/>
	</g>
	<g>
		<rect x="1504.5" y="312.1" class="st0" width="167.7" height="2.7"/>
	</g>
	<g>
		<g>
			<rect x="1546.8" y="335.3" class="st1" width="12.8" height="26.9"/>
		</g>
	</g>
	<g>
		<path class="st1" d="M1592.4,372.8c0,0.3-16.9,0.5-37.7,0.5c-20.8,0-37.7-0.2-37.7-0.5c0-0.3,16.9-0.5,37.7-0.5
			C1575.5,372.3,1592.4,372.5,1592.4,372.8z"/>
	</g>
	<g>
		<g>
			<rect x="1622.8" y="335.3" class="st1" width="12.8" height="26.9"/>
		</g>
	</g>
	<g>
		<path class="st0" d="M1668.5,372.8c0,0.3-16.9,0.5-37.7,0.5c-20.8,0-37.7-0.2-37.7-0.5c0-0.3,16.9-0.5,37.7-0.5
			C1651.6,372.3,1668.5,372.5,1668.5,372.8z"/>
	</g>
	<g>
		<g>
			<rect x="1622.8" y="388.7" class="st1" width="12.8" height="26.9"/>
		</g>
	</g>
	<g>
		<ellipse class="st0" cx="1630.8" cy="426.2" rx="37.7" ry="0.5"/>
	</g>
	<g>
		<g>
			<rect x="1622.8" y="443.8" class="st1" width="12.8" height="26.9"/>
		</g>
	</g>
	<g>
		<path class="st0" d="M1668.5,481.2c0,0.3-16.9,0.5-37.7,0.5c-20.8,0-37.7-0.2-37.7-0.5c0-0.3,16.9-0.5,37.7-0.5
			C1651.6,480.7,1668.5,480.9,1668.5,481.2z"/>
	</g>
	<g>
		<g>
			<rect x="1622.8" y="498.8" class="st0" width="12.8" height="26.9"/>
		</g>
	</g>
	<g>
		<path class="st0" d="M1668.5,536.3c0,0.3-16.9,0.5-37.7,0.5c-20.8,0-37.7-0.2-37.7-0.5c0-0.3,16.9-0.5,37.7-0.5
			C1651.6,535.8,1668.5,536,1668.5,536.3z"/>
	</g>
	<g>
		<g>
			<rect x="1622.8" y="552.3" class="st0" width="12.8" height="26.9"/>
		</g>
	</g>
	<g>
		<path class="st0" d="M1668.5,589.7c0,0.3-16.9,0.5-37.7,0.5c-20.8,0-37.7-0.2-37.7-0.5c0-0.3,16.9-0.5,37.7-0.5
			C1651.6,589.2,1668.5,589.4,1668.5,589.7z"/>
	</g>
	<g>
		<g>
			<rect x="1622.8" y="605.9" class="st0" width="12.8" height="26.9"/>
		</g>
	</g>
	<g>
		<g>
			<rect x="1622.8" y="660.3" class="st0" width="12.8" height="26.9"/>
		</g>
	</g>
	<g>
		<path class="st0" d="M1668.5,643.4c0,0.3-16.9,0.5-37.7,0.5c-20.8,0-37.7-0.2-37.7-0.5c0-0.3,16.9-0.5,37.7-0.5
			C1651.6,642.9,1668.5,643.1,1668.5,643.4z"/>
	</g>
	<g>
		<g>
			<rect x="1546.8" y="389.5" class="st1" width="12.8" height="26.9"/>
		</g>
	</g>
	<g>
		<path class="st1" d="M1592.4,427c0,0.3-16.9,0.5-37.7,0.5c-20.8,0-37.7-0.2-37.7-0.5c0-0.3,16.9-0.5,37.7-0.5
			C1575.5,426.5,1592.4,426.7,1592.4,427z"/>
	</g>
	<g>
		<g>
			<rect x="1546.8" y="443.8" class="st1" width="12.8" height="26.9"/>
		</g>
	</g>
	<g>
		<path class="st0" d="M1592.4,481.2c0,0.3-16.9,0.5-37.7,0.5c-20.8,0-37.7-0.2-37.7-0.5c0-0.3,16.9-0.5,37.7-0.5
			C1575.5,480.7,1592.4,481,1592.4,481.2z"/>
	</g>
	<g>
		<g>
			<rect x="1546.8" y="498" class="st0" width="12.8" height="26.9"/>
		</g>
	</g>
	<g>
		<path class="st0" d="M1592.4,535.5c0,0.3-16.9,0.5-37.7,0.5c-20.8,0-37.7-0.2-37.7-0.5c0-0.3,16.9-0.5,37.7-0.5
			C1575.5,535,1592.4,535.2,1592.4,535.5z"/>
	</g>
	<g>
		<g>
			<rect x="1546.8" y="552.3" class="st0" width="12.8" height="26.9"/>
		</g>
	</g>
	<g>
		<path class="st0" d="M1592.4,589.7c0,0.3-16.9,0.5-37.7,0.5c-20.8,0-37.7-0.2-37.7-0.5c0-0.3,16.9-0.5,37.7-0.5
			C1575.5,589.2,1592.4,589.4,1592.4,589.7z"/>
	</g>
	<g>
		<g>
			<rect x="1546.8" y="606.5" class="st0" width="12.8" height="26.9"/>
		</g>
	</g>
	<g>
		<path class="st0" d="M1592.4,644c0,0.3-16.9,0.5-37.7,0.5c-20.8,0-37.7-0.2-37.7-0.5c0-0.3,16.9-0.5,37.7-0.5
			C1575.5,643.4,1592.4,643.7,1592.4,644z"/>
	</g>
	<g>
		<g>
			<rect x="1546.8" y="660.7" class="st0" width="12.8" height="26.9"/>
		</g>
	</g>
</g>
<g>
	<g>
		<rect x="1623" y="506.6" class="st2" width="285" height="284.4"/>
	</g>
	<g>
		<rect x="1639.3" y="525.9" class="st2" width="252.8" height="265.1"/>
	</g>
	<g>
		<g>
			<polygon class="st2" points="1711.1,525.9 1639.3,560.2 1639.3,577.5 1747.4,525.9 			"/>
		</g>
		<g>
			<polygon class="st2" points="1639.3,525.9 1639.3,551.1 1692.2,525.9 			"/>
		</g>
		<g>
			<polygon class="st2" points="1785.2,525.9 1639.3,595.6 1639.3,634.9 1867.7,525.9 			"/>
		</g>
		<g>
			<polygon class="st2" points="1892.1,639.3 1639.3,760 1639.3,787.6 1892.1,666.9 			"/>
		</g>
		<g>
			<polygon class="st2" points="1892.1,576.3 1639.3,697 1639.3,748.4 1892.1,627.7 			"/>
		</g>
		<g>
			<polygon class="st2" points="1892.1,553.4 1639.3,674.1 1639.3,685.4 1892.1,564.7 			"/>
		</g>
		<g>
			<polygon class="st2" points="1694,791 1892.1,791 1892.1,696.4 			"/>
		</g>
		<g class="st3">
			<polygon class="st2" points="1747.4,525.9 1639.3,577.5 1639.3,595.6 1785.2,525.9 			"/>
		</g>
		<g class="st3">
			<polygon class="st2" points="1692.2,525.9 1639.3,551.1 1639.3,560.2 1711.1,525.9 			"/>
		</g>
		<g class="st3">
			<polygon class="st2" points="1892.1,525.9 1867.7,525.9 1639.3,634.9 1639.3,674.1 1892.1,553.4 			"/>
		</g>
		<g class="st3">
			<polygon class="st2" points="1892.1,564.7 1639.3,685.4 1639.3,697 1892.1,576.3 			"/>
		</g>
		<g class="st3">
			<polygon class="st2" points="1892.1,627.7 1639.3,748.4 1639.3,760 1892.1,639.3 			"/>
		</g>
		<g class="st3">
			<polygon class="st2" points="1892.1,666.9 1639.3,787.6 1639.3,791 1694,791 1892.1,696.4 			"/>
		</g>
	</g>
	<g>
		<g>
			<rect x="1670.2" y="525.9" class="st1" width="3.1" height="265.1"/>
		</g>
		<g>
			<rect x="1702" y="525.9" class="st1" width="3.1" height="265.1"/>
		</g>
		<g>
			<rect x="1733.9" y="525.9" class="st1" width="3.1" height="265.1"/>
		</g>
		<g>
			<rect x="1765.8" y="525.9" class="st1" width="3.1" height="265.1"/>
		</g>
		<g>
			<rect x="1797.7" y="525.9" class="st1" width="3.1" height="265.1"/>
		</g>
		<g>
			<rect x="1829.5" y="525.9" class="st1" width="3.1" height="265.1"/>
		</g>
		<g>
			<rect x="1861.4" y="525.9" class="st1" width="3.1" height="265.1"/>
		</g>
	</g>
	<g>
		<rect x="1639.3" y="470.8" class="st2" width="252.8" height="35.8"/>
	</g>
	<g>
		<rect x="1630.5" y="459.5" class="st2" width="268.5" height="11.3"/>
	</g>
	<g>
		<rect x="1665.8" y="480.9" class="st1" width="14.8" height="14.8"/>
	</g>
	<g>
		<rect x="1711.3" y="480.9" class="st1" width="14.8" height="14.8"/>
	</g>
	<g>
		<rect x="1756.8" y="480.9" class="st1" width="14.8" height="14.8"/>
	</g>
	<g>
		<rect x="1802.3" y="480.9" class="st1" width="14.8" height="14.8"/>
	</g>
	<g>
		<rect x="1847.9" y="480.9" class="st1" width="14.8" height="14.8"/>
	</g>
	<g>
		<rect x="1639.3" y="710.1" class="st1" width="252.8" height="3.8"/>
	</g>
	<g>
		<rect x="1639.3" y="606.4" class="st1" width="252.8" height="3.8"/>
	</g>
</g>
<g>
	<g>
		<path class="st2" d="M1443.9,790.8v-72.9c0-16.3,13.4-29.7,29.7-29.7c16.3,0,29.7,13.4,29.7,29.7v72.9h119.5V658.4l0,0v-11h-303.2
			v11h0v132.4H1443.9L1443.9,790.8z M1421.6,724.4h-37.9v-24.7h37.9V724.4L1421.6,724.4z M1421.6,695.2h-37.8v-24.7h11
			C1408.8,670.6,1420.4,681.5,1421.6,695.2L1421.6,695.2z M1379.2,724.4h-37.9v-24.7h37.9V724.4L1379.2,724.4z M1379.2,695.2h-37.8
			c1.2-13.8,12.8-24.7,26.8-24.7h11V695.2z"/>
	</g>
	<g>
		<path class="st2" d="M1397.3,543.3h-50.7l-44.7,104.1h100.7h237.9l-44.7-104.1h-52.1c0.5,21.7,0.3,44.4,0.3,84.1h-146.6
			C1397.3,591.4,1397.3,562.4,1397.3,543.3z"/>
	</g>
	<g>
		<path class="st2" d="M1525.6,543.3l-54.4-41.7l-54.4,41.7l-14.1,10.8v6.6l-5.3,4.1c0,17.1,0,38.2,0,62.6H1544
			c0-27.6,0.1-47,0-63.5l-4.2-3.2v-6.6L1525.6,543.3z"/>
	</g>
	<g>
		<polygon class="st4" points="1401.5,559.6 1410.9,552.3 1473.2,504.6 1535.6,552.3 1545,559.6 1548.9,559.6 1539.5,552.3 
			1473.2,501.6 1407,552.3 1397.5,559.6 		"/>
	</g>
	<g>
		<path class="st1" d="M1443.9,717.8v72.9h59.4v-72.9c0-16.3-13.4-29.7-29.7-29.7C1457.3,688.1,1443.9,701.5,1443.9,717.8z"/>
	</g>
	<g>
		<g>
			<polygon class="st2" points="1471.2,508.1 1395.6,566 1367,566 1471.2,486.2 1575.4,566 1546.7,566 			"/>
		</g>
		<g>
			<polygon class="st2" points="1393.1,558.6 1403.4,550.8 1471.2,498.8 1539,550.8 1549.3,558.6 1553.5,558.6 1543.3,550.8 
				1471.2,495.5 1399.1,550.8 1388.8,558.6 			"/>
		</g>
	</g>
	<g>
		<g>
			<path class="st1" d="M1561.3,670.6h-11c-14,0-25.7,10.9-26.8,24.7h37.8V670.6z"/>
		</g>
		<g>
			<path class="st1" d="M1565.8,670.6v24.7h37.8c-1.2-13.8-12.8-24.7-26.8-24.7H1565.8z"/>
		</g>
		<g>
			<rect x="1565.8" y="699.8" class="st1" width="37.9" height="24.7"/>
		</g>
		<g>
			<rect x="1523.4" y="699.8" class="st1" width="37.9" height="24.7"/>
		</g>
	</g>
	<g>
		<path class="st1" d="M1379.2,695.2v-24.7h-11c-14,0-25.7,10.9-26.8,24.7H1379.2z"/>
	</g>
	<g>
		<path class="st1" d="M1383.8,670.6v24.7h37.8c-1.2-13.8-12.8-24.7-26.8-24.7H1383.8z"/>
	</g>
	<g>
		<rect x="1383.8" y="699.8" class="st1" width="37.9" height="24.7"/>
	</g>
	<g>
		<rect x="1341.3" y="699.8" class="st1" width="37.9" height="24.7"/>
	</g>
	<g>
		<g>
			<path class="st1" d="M1468.2,575.1v-20.3c-10.7,1.1-19.2,9.6-20.3,20.3H1468.2z"/>
		</g>
		<g>
			<path class="st1" d="M1473.1,554.8v20.3h20.3C1492.3,564.4,1483.8,555.9,1473.1,554.8z"/>
		</g>
		<g>
			<path class="st1" d="M1493.4,580h-20.3v20.3C1483.8,599.2,1492.3,590.7,1493.4,580z"/>
		</g>
		<g>
			<path class="st1" d="M1468.2,600.3V580h-20.3C1449,590.7,1457.5,599.2,1468.2,600.3z"/>
		</g>
	</g>
</g>
<rect x="-1.3" y="791" class="st5" width="1922.6" height="289"/>
<g>
	<g>
		<g>
			<path class="st4" d="M621.1,572c1.8-5.7,0.3-11.8-6.3-16.1c-7.1-4.6-17.2-4.4-24.5-0.2c-1.6-3.2-4.7-6-7.7-7.9
				c-1.8-1.1-3.6-1.6-5.3-1.6c0.5-5.6-1.2-11.4-5.1-15.4c-3-3-6.7-4.7-10.6-5.2c-0.8-4-2.7-7.9-5.5-10.1c-2.7-2.2-6.9-3.7-10.5-2.9
				c-5.1-6.5-15.8-7.6-23.6-6.8c-10.6,1.2-16.4,7.5-18.5,16.4c-3.6-2.3-8.4-2.1-12.1,1c-3.3,2.8-5,7.5-4.2,11.7
				c-4.5-1.5-9.7-1.1-14.4,1.9c-3,1.9-5.1,4.6-6.5,7.7c-7-5-17.1-6.6-24.5-4.2c-12,4-16.7,14.1-16.1,25.1c-2.2-0.6-4.4-0.4-6.5,1.3
				c-1.7,1.4-2.5,3.7-2.4,6.1c-13.4,1.1-24,15.7-21.8,28.8c1.2,6.9,5.5,12.7,12.1,15.3c0.8,0.3,1.7,0.6,2.7,0.8
				c0.4,4.4,1.8,8.7,4.5,12.3c5.8,7.8,15.9,5.2,22.7,0.3c0.8,1.4,2.1,2.4,4.1,2.8c3.5,0.6,7-1.6,9.1-4.5c1.4,5.3,3.9,10.2,8.9,13.2
				c4.8,3,10.7,2.8,15.9,0.8c2.1,6.8,9,13.1,15.1,14.5c10.1,2.2,18.9-4.1,24.7-12.2c6.5,6.5,15.2,10.6,24.9,10.9
				c7.7,0.2,17-3.4,21.1-9.8c4.3,0.9,9.9-0.9,12.5-3.3c2.2-2,3.9-6.1,4.4-10.3c5.1,0.8,10.6,0.3,14.7-1.1c8.8-3,16.5-10.9,18.2-20.1
				c7.5-1.5,14.9-7.6,17.5-13.9C631.2,589.9,629,576,621.1,572z"/>
		</g>
		<g>
			<path class="st6" d="M583.6,618.9c-12.7,16.7-32.3-2.1-32.3-2.1s-5.1,6.4-21.9,13.3c-16.8,6.9-27.8-18.5-27.8-18.5
				c0,0-9.2,16.9-24.5,11.9c-15.3-5-8.6-28.1-8.6-28.1s-8.8,10.9-21.9-0.4c-13-11.3,11.9-28.2,11.9-28.2s-15.9,0.2-14.9-16.2
				c0.4-6,2.9-9.3,6-11c-2.7,0-5.4,0.3-7.8,1.1c-12,4-16.7,14.1-16.1,25.1c-2.2-0.6-4.4-0.4-6.5,1.3c-1.7,1.4-2.5,3.7-2.4,6.1
				c-13.4,1.1-24,15.7-21.8,28.8c1.2,6.9,5.5,12.7,12.1,15.3c0.8,0.3,1.7,0.6,2.7,0.8c0.4,4.4,1.8,8.7,4.5,12.3
				c5.8,7.8,15.9,5.2,22.7,0.3c0.8,1.4,2.1,2.4,4.1,2.8c3.5,0.6,7-1.6,9.1-4.5c1.4,5.3,3.9,10.2,8.9,13.2c4.8,3,10.7,2.8,15.9,0.8
				c2.1,6.8,9,13.1,15.1,14.5c10.1,2.2,18.9-4.1,24.7-12.2c6.5,6.5,15.2,10.6,24.9,10.9c7.7,0.2,17-3.4,21.1-9.8
				c4.3,0.9,9.9-0.9,12.5-3.3c2.2-2,3.9-6.1,4.4-10.3c5.1,0.8,10.6,0.3,14.7-1.1c5.6-1.9,10.8-5.9,14.3-10.9
				C593,628.2,583.6,618.9,583.6,618.9z"/>
		</g>
		<g>
			<path class="st4" d="M513.3,689.7c3-6.8,6.1-13.7,8.9-20.6c7.5-18.5,10.7-39.1,21.5-56c0.2-0.2,0.4-0.3,0.6-0.5
				c2.4-1.9,4.8-3.7,7.1-5.6c8.5-2.7,17.5-0.9,26.4-2.9c7.6-1.6,14.4-5.6,18.3-12.4c0.1-0.2-0.2-0.4-0.3-0.3
				c-8,7.5-18.3,9.8-29.1,9.7c-2.9,0-5.9-0.2-8.8,0c0.5-0.5,1-1,1.4-1.6c4.5-5.5,7.7-11.9,10.2-18.5c0.4-1.1-1.2-1.5-1.7-0.5
				c-3.3,7.7-8.7,14.3-15.3,19.5c-5.6,4.5-12.2,7.7-17.1,13.1c-2.3,2.6-3.9,5.5-5.2,8.6c-1-6.5-3-12.8-4.7-19.2
				c-0.2-0.6-0.3-1.2-0.4-1.7c-0.6-3.4-1.1-6.8-1.2-10.5c0,0,0,0,0,0c0-0.9,0.1-1.8,0.1-2.8c2.3-8.9,4-18.7,12.2-23.6
				c6.3-3.7,12.8-5.2,16-12.4c0.3-0.7-0.6-1.3-1-0.6c-5.4,8.5-17.6,7.3-23.7,15.1c-1.8,2.3-3.2,5-4.4,8c-0.3-2.6-0.7-5.3-1.3-7.9
				c-2.5-10.6-8.7-20.5-6.8-31.8c0.1-0.5-0.7-0.8-0.8-0.2c-1.6,6.9-0.9,13.5,0.8,20.4c2.3,9.8,4,19,4.2,29.1
				c0.2,8.1,0.3,16.2,2.3,24.1c0.8,3.3,1.9,6.5,2.7,9.7c0.1,0.8,0.3,1.5,0.4,2.3c0.5,2.8,0.7,5.6,0.7,8.4
				c-1.3,8.3-4.5,16.4-8.4,24.1c-0.3,0.4-0.7,0.8-1.1,1c-0.2,0.1-0.3,0.1-0.5,0.2c-6-4-10.4-11.6-15.4-16.6
				c-5.1-5.1-10.2-10.4-13.4-16.5c-2.3-6.6-2-13.8,0.5-20.4c4.3-11.7,20.2-19,19.7-32.3c0-0.6-0.9-0.8-1.1-0.2
				c-2.2,10.1-11.6,13.7-17.4,21.3c-0.7,0.9-1.3,1.9-2,2.9c0.5-6.4-0.2-12.5-3.5-18.3c-0.2-0.4-0.9-0.1-0.7,0.4
				c6.9,15-5.4,30.7-2.9,45.9c-4.6-3.5-9.4-6.9-13.4-11.1c-3.6-3.8-6.6-7.9-9.2-12.2c-2.2-4.5-4.2-9.1-5.7-14.2
				c-1.3-4.2-3.1-8.6-7.1-10.9c-0.2-0.1-0.5,0.1-0.3,0.3c3.8,5.4,4.3,11.4,6.3,17.5c0.9,2.6,2,5.2,3.5,7.7c1.8,3.6,4,7,6.5,10.1
				c-4.8-2-10-2.4-14.9-3.9c-7.6-2.3-14-6.9-18.4-13.6c-0.3-0.5-1.1-0.1-0.8,0.4c5.5,9.9,13.3,15.8,24.3,18.7
				c10.9,2.8,18.9,9.1,27.2,15.5c13.1,12.9,25.9,25.8,26.5,45.3c0.7,24-14.3,43.5-26.1,62.9c-11,18-14.6,37.6-10.9,58.3l45.3,0.8
				C491.4,759.7,500,722.8,513.3,689.7z"/>
		</g>
		<g>
			<path class="st7" d="M522.1,596.3c-1.1-7-0.3-13.2-0.2-17.2c0.1-4-2-15-5-21.7c-3-6.8-2.7-23.5-2.7-23.5
				c-1.6,6.9-0.9,13.5,0.8,20.4c2.3,9.8,4,19,4.2,29.1c0.2,8.1,0.3,16.2,2.3,24.1c0.8,3.3,1.9,6.5,2.7,9.7c0.1,0.8,0.3,1.5,0.4,2.3
				c0.5,2.8,0.7,5.6,0.7,8.4c-1.3,8.3-4.5,16.4-8.4,24.1l-3.3,8c0,0-17-22.5-21.4-26.5c-4.4-4-7.1-10.2-8.5-14.3
				c-1.4-4.1-0.1-16.8,2.1-23.3c2.2-6.5,15.2-16.9,17.9-20.6c1.2-1.6,2.1-5,2.9-8.4c-0.3-0.3-0.8-0.3-0.9,0.2
				c-2.2,10.1-11.6,13.7-17.4,21.3c-0.7,0.9-1.3,1.9-2,2.9c0.5-6.4-0.2-12.5-3.5-18.3c-0.2-0.4-0.9-0.1-0.7,0.4
				c6.9,15-5.4,30.7-2.9,45.9l1.4,3.9c0,0-10.5-6.9-12.9-10.5c-2.4-3.6-9-10.4-11.3-14.4c-2.4-4-7.4-16.4-8.9-21.6
				c-0.7-2.2-2.4-4.1-4.1-5.6c0,0.1,0,0.1,0,0.2c3.8,5.4,4.3,11.4,6.3,17.5c0.9,2.6,2,5.2,3.5,7.7c1.8,3.6,4,7,6.5,10.1l2.5,2.9
				c0,0-7.6-2-14.5-4.2c-6.9-2.2-9.5-3.5-17.4-11.3c-2.2-2.2-3.6-3.8-4.6-5c-0.2,0.1-0.3,0.3-0.1,0.6c5.5,9.9,13.3,15.8,24.3,18.7
				c10.9,2.8,18.9,9.1,27.2,15.5c13.1,12.9,25.9,25.8,26.5,45.3c0.7,24-14.3,43.5-26.1,62.9c-11,18-14.6,37.6-10.9,58.3l22.8,0.4
				c-3.7-15.2-8.1-38.7-2.7-49.6c8.3-16.8,18.9-52.7,25.1-64c6.2-11.3,16.9-41.8,17.8-46.7C530.2,625.1,523.2,603.3,522.1,596.3z"/>
		</g>
		<g>
			<path class="st8" d="M456.6,621.5c0-0.5,0.2-1.8,0.6-2.5c0,0,0,1.3,0.1,2C457.5,621.6,456.6,621.5,456.6,621.5z"/>
		</g>
	</g>
	<g>
		<g>
			<path class="st4" d="M682.1,640.9c1.2-3.9,0.1-8-4.4-10.9c-4.9-3.1-11.7-2.9-16.7,0c-1.1-2.2-3.2-4-5.3-5.3
				c-1.2-0.8-2.5-1.1-3.6-1c0.3-3.8-0.9-7.7-3.6-10.4c-2-2-4.6-3.1-7.2-3.4c-0.5-2.7-1.9-5.3-3.8-6.9c-1.8-1.5-4.7-2.5-7.1-1.9
				c-3.5-4.4-10.8-5.1-16-4.5c-7.2,0.9-11.1,5.2-12.5,11.3c-2.5-1.5-5.8-1.3-8.2,0.8c-2.3,1.9-3.3,5.1-2.8,8c-3.1-1-6.6-0.7-9.8,1.4
				c-2,1.3-3.5,3.2-4.4,5.3c-4.8-3.3-11.7-4.4-16.7-2.7c-8.1,2.8-11.3,9.7-10.8,17.1c-1.5-0.4-3-0.3-4.4,0.9c-1.2,1-1.7,2.6-1.6,4.1
				c-9.1,0.8-16.2,10.8-14.6,19.7c0.8,4.7,3.8,8.6,8.3,10.3c0.6,0.2,1.2,0.4,1.8,0.6c0.3,3,1.2,5.9,3.1,8.4c4,5.2,10.9,3.5,15.4,0.1
				c0.5,0.9,1.4,1.6,2.8,1.9c2.4,0.4,4.7-1.1,6.1-3.1c1,3.6,2.7,6.9,6.1,8.9c3.3,2,7.3,1.8,10.8,0.5c1.5,4.6,6.2,8.9,10.3,9.7
				c6.9,1.5,12.8-2.9,16.7-8.4c4.4,4.4,10.4,7.1,17,7.2c5.2,0.1,11.5-2.4,14.3-6.8c2.9,0.6,6.7-0.7,8.5-2.3c1.5-1.3,2.6-4.2,2.9-7
				c3.5,0.5,7.2,0.2,10-0.8c5.9-2.1,11.1-7.5,12.2-13.7c5.1-1.1,10.1-5.3,11.8-9.5C689,653,687.5,643.6,682.1,640.9z"/>
		</g>
		<g>
			<path class="st6" d="M656.9,673c-8.6,11.4-22-1.2-22-1.2s-3.4,4.4-14.8,9.2c-11.4,4.8-19-12.4-19-12.4s-6.1,11.5-16.6,8.2
				c-10.4-3.3-6-19-6-19s-6,7.5-14.9-0.1c-8.9-7.6,7.9-19.2,7.9-19.2c0,0-10.8,0.2-10.2-10.9c0.2-4.1,1.9-6.3,4-7.5
				c-1.9,0-3.7,0.2-5.3,0.8c-8.1,2.8-11.3,9.7-10.8,17.1c-1.5-0.4-3-0.3-4.4,0.9c-1.2,1-1.7,2.6-1.6,4.1
				c-9.1,0.8-16.2,10.8-14.6,19.7c0.8,4.7,3.8,8.6,8.3,10.3c0.6,0.2,1.2,0.4,1.8,0.6c0.3,3,1.2,5.9,3.1,8.4c4,5.2,10.9,3.5,15.4,0.1
				c0.5,0.9,1.4,1.6,2.8,1.9c2.4,0.4,4.7-1.1,6.1-3.1c1,3.6,2.7,6.9,6.1,8.9c3.3,2,7.3,1.8,10.8,0.5c1.5,4.6,6.2,8.9,10.3,9.7
				c6.9,1.5,12.8-2.9,16.7-8.4c4.4,4.4,10.4,7.1,17,7.2c5.2,0.1,11.5-2.4,14.3-6.8c2.9,0.6,6.7-0.7,8.5-2.3c1.5-1.3,2.6-4.2,2.9-7
				c3.5,0.5,7.2,0.2,10-0.8c3.8-1.3,7.3-4,9.6-7.5C663.3,679.2,656.9,673,656.9,673z"/>
		</g>
		<g>
			<path class="st4" d="M609.5,721.5c2-4.7,4-9.3,5.9-14.1c5-12.6,7-26.6,14.3-38.2c0.1-0.1,0.3-0.2,0.4-0.3
				c1.6-1.3,3.2-2.6,4.8-3.9c5.7-1.9,11.9-0.8,17.9-2.1c5.1-1.2,9.7-3.9,12.4-8.5c0.1-0.2-0.1-0.3-0.2-0.2
				c-5.4,5.2-12.4,6.8-19.7,6.7c-1.9,0-4-0.1-6,0c0.3-0.4,0.6-0.7,0.9-1.1c3.1-3.7,5.1-8.2,6.8-12.7c0.3-0.7-0.9-1-1.1-0.3
				c-2.2,5.3-5.8,9.7-10.3,13.3c-3.8,3.1-8.3,5.3-11.5,9c-1.5,1.7-2.6,3.7-3.5,5.8c-0.7-4.4-2.1-8.7-3.3-13
				c-0.1-0.4-0.2-0.8-0.3-1.2c-0.4-2.3-0.8-4.6-0.9-7.1c0,0,0,0,0,0c0-0.6,0-1.3,0.1-1.9c1.5-6,2.6-12.8,8.2-16.1
				c4.3-2.6,8.7-3.6,10.8-8.5c0.2-0.5-0.4-0.9-0.7-0.4c-3.6,5.8-11.9,5.1-16,10.4c-1.2,1.5-2.2,3.4-2.9,5.5
				c-0.2-1.8-0.5-3.6-0.9-5.3c-1.8-7.2-6-13.9-4.8-21.6c0.1-0.4-0.5-0.5-0.5-0.2c-1,4.7-0.5,9.2,0.6,13.9c1.7,6.6,2.8,12.9,3,19.7
				c0.2,5.5,0.3,11,1.7,16.4c0.6,2.2,1.3,4.4,1.9,6.6c0.1,0.5,0.2,1,0.3,1.5c0.3,1.9,0.5,3.8,0.6,5.7c-0.8,5.7-3,11.2-5.6,16.4
				c-0.2,0.3-0.5,0.5-0.7,0.7c-0.1,0.1-0.2,0.1-0.3,0.1c-4.1-2.7-7.1-7.8-10.6-11.2c-3.5-3.5-7-7-9.2-11.2
				c-1.6-4.5-1.4-9.4,0.2-13.9c2.9-8,13.6-13,13.2-22c0-0.4-0.6-0.5-0.7-0.1c-1.4,6.9-7.8,9.4-11.7,14.6c-0.5,0.6-0.9,1.3-1.3,2
				c0.3-4.3-0.2-8.5-2.5-12.4c-0.2-0.3-0.6,0-0.5,0.3c4.8,10.1-3.5,20.9-1.7,31.2c-3.2-2.4-6.4-4.6-9.2-7.5
				c-2.5-2.5-4.5-5.3-6.3-8.2c-1.5-3.1-2.9-6.2-4-9.6c-0.9-2.9-2.1-5.8-4.9-7.4c-0.1-0.1-0.3,0.1-0.2,0.2c2.6,3.6,3,7.7,4.4,11.8
				c0.6,1.8,1.4,3.5,2.4,5.2c1.2,2.5,2.8,4.7,4.5,6.9c-3.3-1.3-6.8-1.6-10.2-2.6c-5.2-1.5-9.5-4.6-12.6-9.1c-0.2-0.3-0.7,0-0.5,0.3
				c3.8,6.7,9.1,10.7,16.6,12.5c7.4,1.8,12.9,6.1,18.6,10.4c9,8.7,17.8,17.3,18.3,30.6c0.6,16.3-9.4,29.6-17.4,42.9
				c-7.4,12.3-9.7,25.6-7.1,39.7l30.8,0.3C595,769.2,600.6,744.1,609.5,721.5z"/>
		</g>
		<g>
			<path class="st7" d="M614.9,658c-0.8-4.7-0.3-9-0.2-11.7c0-2.7-1.4-10.2-3.5-14.8c-2.1-4.6-2-15.9-2-15.9
				c-1,4.7-0.5,9.2,0.6,13.9c1.7,6.6,2.8,12.9,3,19.7c0.2,5.5,0.3,11,1.7,16.4c0.6,2.2,1.3,4.4,1.9,6.6c0.1,0.5,0.2,1,0.3,1.5
				c0.3,1.9,0.5,3.8,0.6,5.7c-0.8,5.7-3,11.2-5.6,16.4l-2.2,5.5c0,0-11.7-15.2-14.7-17.9c-3-2.7-4.9-6.9-5.9-9.7
				c-1-2.8-0.1-11.4,1.3-15.8c1.4-4.4,10.3-11.6,12.1-14.1c0.8-1.1,1.4-3.4,1.9-5.7c-0.2-0.2-0.5-0.2-0.6,0.1
				c-1.4,6.9-7.8,9.4-11.7,14.6c-0.5,0.6-0.9,1.3-1.3,2c0.3-4.3-0.2-8.5-2.5-12.4c-0.2-0.3-0.6,0-0.5,0.3
				c4.8,10.1-3.5,20.9-1.7,31.2l1,2.6c0,0-7.2-4.6-8.8-7c-1.6-2.4-6.2-7-7.8-9.7c-1.6-2.7-5.1-11.1-6.2-14.6
				c-0.5-1.5-1.6-2.8-2.8-3.8c0,0,0,0.1,0,0.1c2.6,3.6,3,7.7,4.4,11.8c0.6,1.8,1.4,3.5,2.4,5.2c1.2,2.5,2.8,4.7,4.5,6.9l1.7,2
				c0,0-5.2-1.3-9.9-2.8c-4.7-1.4-6.5-2.3-11.9-7.6c-1.5-1.5-2.5-2.6-3.1-3.4c-0.1,0.1-0.2,0.2-0.1,0.4c3.8,6.7,9.1,10.7,16.6,12.5
				c7.4,1.8,12.9,6.1,18.6,10.4c9,8.7,17.8,17.3,18.3,30.6c0.6,16.3-9.4,29.6-17.4,42.9c-7.4,12.3-9.7,25.6-7.1,39.7l15.5,0.1
				c-2.6-10.3-5.7-26.3-2.1-33.7c5.5-11.4,12.5-35.9,16.7-43.7c4.1-7.7,11.3-28.5,11.8-31.9C620.6,677.5,615.7,662.8,614.9,658z"/>
		</g>
		<g>
			<path class="st8" d="M570.6,675.5c0-0.3,0.1-1.2,0.4-1.7c0,0,0,0.9,0.1,1.4C571.2,675.6,570.6,675.5,570.6,675.5z"/>
		</g>
	</g>
	<g>
		<g>
			<path class="st9" d="M540.6,774.5l4.2,0l0,10.9l-4.2,0L540.6,774.5L540.6,774.5z M627.2,774.8l4.2,0l0,10.9l-4.2,0L627.2,774.8z"
				/>
		</g>
		<g>
			<path class="st10" d="M541.4,708.9l6.4,0l-0.1,47.4l-6.4,0L541.4,708.9L541.4,708.9z M624.5,709.1l6.4,0l-0.1,47.4l-6.4,0
				L624.5,709.1z"/>
		</g>
		<g>
			<path class="st11" d="M520.8,708.8l130.6,0.4c0.7,0,1.2,0.5,1.2,1.2l0,9.8c0,0.7-0.6,1.2-1.2,1.2l-130.6-0.4
				c-0.7,0-1.2-0.5-1.2-1.2l0-9.8C519.6,709.4,520.2,708.8,520.8,708.8z"/>
		</g>
		<g>
			<path class="st11" d="M520.8,733.1l130.6,0.4c0.7,0,1.2,0.5,1.2,1.2l0,9.8c0,0.7-0.6,1.2-1.2,1.2l-130.6-0.4
				c-0.7,0-1.2-0.5-1.2-1.2l0-9.8C519.5,733.6,520.1,733,520.8,733.1z"/>
		</g>
		<g>
			<path class="st12" d="M523.3,756.3l125.5,0.4c0.6,0,0.8,0.7,1.2,1.2l6.6,9.9c0.4,0.5-0.5,1.2-1.2,1.2l-138.8-0.4
				c-0.6,0-1.5-0.7-1.2-1.2l6.7-9.8C522.5,756.9,522.6,756.3,523.3,756.3z"/>
		</g>
		<g>
			<path class="st11" d="M656.6,768.1l0,5.8c0,0.5-0.4,0.9-0.8,0.9l-139.6-0.4c-0.5,0-0.8-0.4-0.8-0.9l0-5.8
				c0.2,0.4,0.8,0.7,1.2,0.7l138.8,0.4C655.8,768.8,656.4,768.5,656.6,768.1z"/>
		</g>
		<g>
			<path class="st10" d="M534.3,774.5l6.2,0l-0.1,27.1l-6.2,0L534.3,774.5L534.3,774.5z M631.4,774.8l6.2,0l-0.1,27.1l-6.2,0
				L631.4,774.8z"/>
		</g>
	</g>
	<g>
		<g>
			<rect x="746.3" y="415.3" class="st13" width="393.9" height="374"/>
		</g>
		<g>
			<rect x="730.9" y="778.8" class="st7" width="409.3" height="11.7"/>
		</g>
		<g>
			<polygon class="st14" points="1119,425 725.1,425 861.7,323 1119,323 			"/>
		</g>
		<g>
			<polygon class="st7" points="1258.5,426.1 1258.5,411.5 1091.1,261.3 923.7,411.5 923.7,426.1 			"/>
		</g>
		<g>
			<polygon class="st4" points="1249.8,789.3 932.4,789.3 932.4,415.3 1091.1,273 1249.8,415.3 			"/>
		</g>
		<g>
			<rect x="969.2" y="457.5" class="st7" width="106.4" height="104.9"/>
		</g>
		<g>
			<rect x="973.5" y="461.5" class="st1" width="97.9" height="96.7"/>
		</g>
		<g>
			<polygon class="st6" points="977.7,466.5 1071.4,466.5 1071.4,461.5 973.5,461.5 973.5,558.1 977.7,558.1 			"/>
		</g>
		<g>
			<rect x="1019.9" y="459.3" class="st7" width="4.6" height="100.8"/>
		</g>
		<g>
			<rect x="971.1" y="484" class="st7" width="104.2" height="4.6"/>
		</g>
		<g>
			<rect x="770.1" y="457.5" class="st7" width="106.4" height="104.9"/>
		</g>
		<g>
			<rect x="774.4" y="461.5" class="st1" width="97.9" height="96.7"/>
		</g>
		<g>
			<polygon class="st6" points="778.6,466.5 872.3,466.5 872.3,461.5 774.4,461.5 774.4,558.1 778.6,558.1 			"/>
		</g>
		<g>
			<rect x="820.8" y="459.3" class="st7" width="4.6" height="100.8"/>
		</g>
		<g>
			<rect x="772" y="484" class="st7" width="104.2" height="4.6"/>
		</g>
		<g>
			<rect x="1055.8" y="324.8" class="st7" width="65.6" height="70.8"/>
		</g>
		<g>
			<rect x="1060.1" y="328.7" class="st1" width="57.1" height="62.6"/>
		</g>
		<g>
			<polygon class="st6" points="1064.3,333.7 1117.1,333.7 1117.1,328.7 1060.1,328.7 1060.1,391.4 1064.3,391.4 			"/>
		</g>
		<g>
			<rect x="775.6" y="625.9" class="st7" width="31.6" height="120.9"/>
		</g>
		<g>
			<rect x="779.3" y="629.3" class="st1" width="24.2" height="113.7"/>
		</g>
		<g>
			<polygon class="st6" points="783,633.6 803.6,633.6 803.6,629.3 779.3,629.3 779.3,743 783,743 			"/>
		</g>
		<g>
			<rect x="888.9" y="625.9" class="st7" width="31.6" height="120.9"/>
		</g>
		<g>
			<rect x="892.6" y="629.3" class="st1" width="24.3" height="113.7"/>
		</g>
		<g>
			<polygon class="st6" points="896.3,633.6 916.8,633.6 916.8,629.3 892.6,629.3 892.6,743 896.3,743 			"/>
		</g>
		<g>
			<rect x="1108.5" y="457.5" class="st7" width="106.4" height="104.9"/>
		</g>
		<g>
			<rect x="1112.7" y="461.5" class="st1" width="97.9" height="96.7"/>
		</g>
		<g>
			<polygon class="st6" points="1117,466.5 1210.6,466.5 1210.6,461.5 1112.7,461.5 1112.7,558.1 1117,558.1 			"/>
		</g>
		<g>
			<rect x="1159.1" y="459.3" class="st7" width="4.6" height="100.8"/>
		</g>
		<g>
			<rect x="1110.3" y="484" class="st7" width="104.2" height="4.6"/>
		</g>
		<g>
			<rect x="969.2" y="623.4" class="st7" width="106.4" height="104.9"/>
		</g>
		<g>
			<rect x="973.5" y="627.4" class="st1" width="97.9" height="96.7"/>
		</g>
		<g>
			<polygon class="st6" points="977.7,632.4 1071.4,632.4 1071.4,627.4 973.5,627.4 973.5,724.1 977.7,724.1 			"/>
		</g>
		<g>
			<rect x="1019.9" y="625.3" class="st7" width="4.6" height="100.8"/>
		</g>
		<g>
			<rect x="971.1" y="649.9" class="st7" width="104.2" height="4.6"/>
		</g>
		<g>
			<rect x="1108.5" y="623.4" class="st7" width="106.4" height="104.9"/>
		</g>
		<g>
			<rect x="1112.7" y="627.4" class="st1" width="97.9" height="96.7"/>
		</g>
		<g>
			<polygon class="st6" points="1117,632.4 1210.6,632.4 1210.6,627.4 1112.7,627.4 1112.7,724.1 1117,724.1 			"/>
		</g>
		<g>
			<rect x="1159.1" y="625.3" class="st7" width="4.6" height="100.8"/>
		</g>
		<g>
			<rect x="1110.3" y="649.9" class="st7" width="104.2" height="4.6"/>
		</g>
		<g>
			<rect x="724.7" y="424.9" class="st7" width="207.9" height="7.2"/>
		</g>
		<g>
			<rect x="931.4" y="775.1" class="st7" width="324.1" height="15.4"/>
		</g>
		<g>
			<polygon class="st14" points="932.4,563.9 740.5,563.9 702,605.1 932.4,605.1 			"/>
		</g>
		<g>
			<rect x="701.5" y="605" class="st15" width="230.9" height="5.7"/>
		</g>
		<g>
			<rect x="746.2" y="610.8" class="st6" width="186.1" height="5.7"/>
		</g>
		<g>
			<rect x="746.2" y="432.3" class="st14" width="186.1" height="5.7"/>
		</g>
		<g>
			<rect x="816.8" y="625.6" class="st7" width="58.9" height="121.6"/>
		</g>
		<g>
			<rect x="819.7" y="628.3" class="st1" width="15.2" height="24"/>
		</g>
		<g>
			<rect x="838.4" y="628.3" class="st1" width="15.6" height="24"/>
		</g>
		<g>
			<rect x="857.4" y="628.3" class="st1" width="15.5" height="24"/>
		</g>
		<g>
			<rect x="819.7" y="654.9" class="st1" width="15.2" height="13.8"/>
		</g>
		<g>
			<rect x="838.4" y="654.9" class="st1" width="15.6" height="13.8"/>
		</g>
		<g>
			<rect x="857.4" y="654.9" class="st1" width="15.5" height="13.8"/>
		</g>
		<g>
			<polygon class="st6" points="822,632 834.9,632 834.9,628.3 819.7,628.3 819.7,652.2 822,652.2 			"/>
		</g>
		<g>
			<polygon class="st6" points="840.7,632 854,632 854,628.3 838.4,628.3 838.4,652.2 840.7,652.2 			"/>
		</g>
		<g>
			<polygon class="st6" points="859.8,632 873,632 873,628.3 857.4,628.3 857.4,652.2 859.8,652.2 			"/>
		</g>
		<g>
			<polygon class="st6" points="822,658.6 834.9,658.6 834.9,654.9 819.7,654.9 819.7,668.7 822,668.7 			"/>
		</g>
		<g>
			<polygon class="st6" points="840.7,658.6 854,658.6 854,654.9 838.4,654.9 838.4,668.7 840.7,668.7 			"/>
		</g>
		<g>
			<polygon class="st6" points="859.8,658.6 873,658.6 873,654.9 857.4,654.9 857.4,668.7 859.8,668.7 			"/>
		</g>
		<g>
			<rect x="819.7" y="671.7" class="st1" width="15.2" height="13.8"/>
		</g>
		<g>
			<rect x="838.4" y="671.7" class="st1" width="15.6" height="13.8"/>
		</g>
		<g>
			<rect x="857.4" y="671.7" class="st1" width="15.5" height="13.8"/>
		</g>
		<g>
			<polygon class="st6" points="822,675.5 834.9,675.5 834.9,671.7 819.7,671.7 819.7,685.5 822,685.5 			"/>
		</g>
		<g>
			<polygon class="st6" points="840.7,675.5 854,675.5 854,671.7 838.4,671.7 838.4,685.5 840.7,685.5 			"/>
		</g>
		<g>
			<polygon class="st6" points="859.8,675.5 873,675.5 873,671.7 857.4,671.7 857.4,685.5 859.8,685.5 			"/>
		</g>
		<g>
			<rect x="819.7" y="688.5" class="st1" width="15.2" height="13.8"/>
		</g>
		<g>
			<rect x="838.4" y="688.5" class="st1" width="15.6" height="13.8"/>
		</g>
		<g>
			<rect x="857.4" y="688.5" class="st1" width="15.5" height="13.8"/>
		</g>
		<g>
			<polygon class="st6" points="822,692.3 834.9,692.3 834.9,688.5 819.7,688.5 819.7,702.4 822,702.4 			"/>
		</g>
		<g>
			<polygon class="st6" points="840.7,692.3 854,692.3 854,688.5 838.4,688.5 838.4,702.4 840.7,702.4 			"/>
		</g>
		<g>
			<polygon class="st6" points="859.8,692.3 873,692.3 873,688.5 857.4,688.5 857.4,702.4 859.8,702.4 			"/>
		</g>
		<g>
			<rect x="819.7" y="705.4" class="st1" width="15.2" height="39"/>
		</g>
		<g>
			<rect x="838.4" y="705.4" class="st1" width="15.6" height="39"/>
		</g>
		<g>
			<rect x="857.4" y="705.4" class="st1" width="15.5" height="39"/>
		</g>
		<g>
			<polygon class="st6" points="822,709.2 834.9,709.2 834.9,705.4 819.7,705.4 819.7,744.5 822,744.5 			"/>
		</g>
		<g>
			<polygon class="st6" points="840.7,709.2 854,709.2 854,705.4 838.4,705.4 838.4,744.5 840.7,744.5 			"/>
		</g>
		<g>
			<polygon class="st6" points="859.8,709.2 873,709.2 873,705.4 857.4,705.4 857.4,744.5 859.8,744.5 			"/>
		</g>
		<g>
			<rect x="774.6" y="748.1" class="st14" width="156.8" height="10.6"/>
		</g>
		<g>
			<rect x="757.3" y="758.3" class="st7" width="174.1" height="10.6"/>
		</g>
		<g>
			<rect x="741.1" y="768.7" class="st14" width="190.3" height="10.6"/>
		</g>
		<g>
			<polygon class="st14" points="1091.1,273 932.4,415.3 932.4,428.3 1091.1,286 1249.8,428.3 1249.8,415.3 			"/>
		</g>
	</g>
</g>
<g>
	<g>
		<g>
			<path class="st16" d="M739.7,668.8c0,0,2.8-3.4,4.3-3.9s4.4-2.7,4.8-1.8c0.4,0.9-1.9,2.3-1.8,3.4c0.1,1.1,7.4,2.8,7.3,3.9
				c0,1.1-1.7,3.8-4.5,3.5c-2.8-0.3-9.8-2-11.3-1.3C737.1,673.4,739.7,668.8,739.7,668.8z"/>
		</g>
		<g>
			<path class="st17" d="M664.8,652.3c4.1,5.5,8.9,9.9,13.9,13.3c15.7,10.9,32.7,12.6,32.7,12.6c4.1-1.3,16.6-2.7,24-3.9l0,0
				c3.2-0.5,5.5-1,5.6-1.4l-0.2-6.5c0,0-27.2-1.4-31.7-3.5c-7.1-6.1-13.4-14.1-17.5-20.3c-3.5-5.2-7.3-9.1-13.7-11.4
				C668.8,628,652,635.2,664.8,652.3z"/>
		</g>
		<g>
			<path class="st18" d="M677.2,661.6l1.4,4.1c15.7,10.9,32.7,12.6,32.7,12.6c3.3,0,16.6-2.7,24-3.9c-0.3,0-20.2,1.6-24.6,1.1
				c-4.4-0.5-25-18.3-25-18.3L677.2,661.6z"/>
		</g>
		<g>
			<path class="st19" d="M695,866.1h-30.1c-2.1-1.5,0.6-15.7,0.6-15.7s8.2-3.1,9.6,3.2c1.4,6.3,10.5,8.3,15.2,9.1
				C693.6,863.2,694.6,865,695,866.1z"/>
		</g>
		<g>
			<path class="st19" d="M650.4,866.1h-30c-2.2-1.5,0.6-15.7,0.6-15.7s8.2-3.1,9.6,3.2c1.4,6.3,10.4,8.3,15.2,9.1
				C649.1,863.2,650.1,865,650.4,866.1z"/>
		</g>
		<g>
			<path class="st20" d="M686.9,720.4c0,0-1.3,16.9-2.9,37.1c-2.2,27.5-8,95.7-8,95.7s-3.8,3.3-12.3,1.5c0,0-7.2-23.5-9.3-50.4
				c0-0.4-0.1-0.9-0.1-1.3c-2-27.3-5.1-84.9-5.1-84.9L686.9,720.4z"/>
		</g>
		<g>
			<path class="st21" d="M687.3,714.6c0,0-1.8,22.7-3.4,42.9l-29.6,46.8c0-0.4-0.1-0.9-0.1-1.3c-2-27.3-5.1-84.9-5.1-84.9
				L687.3,714.6z"/>
		</g>
		<g>
			<path class="st20" d="M678.7,714.6c0,0-21.5,53.4-28.3,73.7c-4.9,14.4-18.7,65-18.7,65s-6,1.8-11-1.7c0,0-5.1-51.7,5.2-66.3
				c5.5-7.7,1.4-80.4,23.6-81C671.9,703.7,678.7,714.6,678.7,714.6z"/>
		</g>
		<g>
			<path class="st16" d="M669.1,635.9c-3.3,1.7-6.5,1.8-9.2,1.2c-2.5-0.5-4.7-1.6-6.3-2.6c-1.6-1-2.5-1.9-2.5-1.9s0.1-0.2,0.3-0.5
				c1-1.7,3.9-7.6,2.6-17.2c0-0.1,0.9,0.1,2.4,0.4c4.3,1,12.8,3.4,13.2,3.5h0c0,0,0.1,2,0.5,5.6c0,0.3,0.1,0.6,0.1,1
				c0.1,0.4,0.1,0.9,0.1,1.3C670.7,630.6,669.1,635.9,669.1,635.9z"/>
		</g>
		<g>
			<path class="st22" d="M670,624.5c-6.4,1.5-15.8-7.9-15.8-7.9c0.7-0.5,1.4-0.9,2.2-1.2c4.3,1,12.8,3.4,13.2,3.5h0
				C669.6,618.9,669.7,620.9,670,624.5z"/>
		</g>
		<g>
			<path class="st16" d="M672,619.5c0,0-2.7,1-6.1,1.4c-5,0.7-11.7,0.3-13.8-5.8c-3.5-10.3-8-16.4,2.3-20.6
				c5.5-2.2,9.1-2.4,11.5-1.5c2.1,0.7,3.3,2.2,4.2,3.7C672.1,599.9,676.2,617.7,672,619.5z"/>
		</g>
		<g>
			<path class="st19" d="M661.4,598.7c-2.6,1.1-3,5.4-3.1,6.8c0,1.4-0.2,2.5-3.7,1.7c-0.6-0.1-1-0.1-1.3,0.1c-1.5,0.9,0.4,5,1,5.9
				c0,0,0.8,3-1,4.4c-0.2,0.2-3.7,1.7-12.1-11.2c-1.3-2-2.6-6.8-0.6-11.2c-3.3-11.7,31.2-16,35.6-8.1
				C684.3,601.7,658,597.7,661.4,598.7z"/>
		</g>
		<g>
			<path class="st17" d="M690.2,705.6c-0.5,6.1-1.8,10.5-4.6,10.5c0,0-12.6,4.4-27.7,4.6c-2.9,0-7.1-0.6-10.6-1.1
				c-3.5-0.6-6.3-1.2-6.3-1.2c-3-0.7-6.4-2.6-5.9-6c0.3-1.9,0.4-4.5,0.6-7.5c0.3-8,0.3-19,0.3-29.6c0-6.5,0.1-12.8,0.3-18.1
				c0,0-3-20.9,0.3-24.3c3.9-4,15.2-5.2,15.9-5.1c0.2-0.1,0.4-0.1,0.6-0.1c0,0,9.7,5.5,16.9,1.4c0,0,0.1,0,0.2,0
				c1.8,0.3,10.5,2.3,13.5,5.5c1,1.1,5.2,7.8,5.3,15.2c0.2,10.3-0.2,22-0.2,22c0.1,1.7,0.3,3.8,0.5,6.3c0.2,2.6,0.4,5.6,0.6,8.7
				c0.1,1.6,0.2,3.1,0.3,4.7C690.5,696.5,690.6,701.5,690.2,705.6z"/>
		</g>
		<g>
			<path class="st18" d="M652.6,627.8c0,0,10.7,11.1,18.4,8.8c0,0,1-1.5-2.4-2C665.1,634.1,661.4,634.3,652.6,627.8z"/>
		</g>
		<g>
			<path class="st18" d="M645.9,666.6c0,0,0,29.9-10.2,38.2c0.3-8,0.3-19,0.3-29.6L645.9,666.6z"/>
		</g>
		<g>
			<path class="st16" d="M614.6,722.5c0,0-5.2,8.1-5.5,11.3c-0.2,2.1,0.3,10.5,1.3,10.5c1.5,0,3-5.2,3.6-6.5
				c0.6-1.4,1.3-2.4,1.8-2.4c0.6,0-1.2,5.2,0,4.6c1.2-0.6,3.4-5.4,3.6-6.5c0.2-1.1-1.1-4.8-0.5-6.3
				C619.5,725.7,614.6,722.5,614.6,722.5z"/>
		</g>
		<g>
			<path class="st17" d="M637.6,631.7c0,0-7,3.3-12.9,27.8c-4.4,18.5-12.9,65.6-12.9,65.6l7.2,3c0,0,26.2-60.3,30-68.7
				C652.8,650.9,637.6,631.7,637.6,631.7z"/>
		</g>
		<g>
			<path class="st16" d="M766.6,666.6c0,0,6.9,33.9,9.6,39.4c2.6,5.5,13.2,25.5,13.2,25.5l-3.1,2.1c0,0-19-19.7-19.7-21.8
				c-0.7-2.1-13.1-28.5-13.1-28.5L766.6,666.6z"/>
		</g>
		<g>
			<path class="st19" d="M754.3,620c0,0-10.9-16-22.8-6.5c0,0-5.9,2.5-8,12.5c-2.2,10.2,4.6,18,8.1,16.1c2.3-1.2,4,2.7,4,2.7
				L754.3,620z"/>
		</g>
		<g>
			<path class="st16" d="M718.3,720.5c5.3-11.8,7.8-15.2,7.9-18.9c0.1-2.9-1.4-6.1-4.2-13.9c-0.7-1.8-1.1-3.7-1.4-5.6
				c-2.2-15,6.4-31.2,11.8-32.4c1.5-0.4,4-5.8,4-14.6l0.7,0.1l11.4,2.2c0,0-0.3,3.6-0.3,6.9c0,2.8,0.2,5.5,0.8,5.8
				c0.8,0.1,1.3,0.1,1.3,0.1s9.5,13.2,10.3,25.4c0.8,12.2-7.6,17.6,0.1,42C768.4,742.8,715.3,727.1,718.3,720.5z"/>
		</g>
		<g>
			<path class="st22" d="M748.4,637.6c0,0-0.3,3.6-0.3,6.9c-6.3-0.2-9.7-6-11.1-9.2L748.4,637.6z"/>
		</g>
		<g>
			<path class="st19" d="M735.9,634.1c0,0-3.3-5.3-4.1-9.8c-0.6-3.2,1.1-15.1,13-13.4c0,0,3.5,0.3,6.7,2.5c2.6,1.8,6.4,5.6,2.2,16
				l-1.1,3.5L735.9,634.1z"/>
		</g>
		<g>
			<path class="st16" d="M750.6,640.8c0,0-15,0.3-15.1-9.1c0-9.4-2-15.6,7.7-16.2c9.6-0.5,11.5,3,12.2,6.2
				C756.2,624.7,754.5,640.5,750.6,640.8z"/>
		</g>
		<g>
			<path class="st19" d="M750,615.2c0,0-4.1,11-10.4,12.6s-9.1-0.1-9.1-0.1s4.8-3.9,5.8-10.6C736.4,617.2,746.9,610,750,615.2z"/>
		</g>
		<g>
			<path class="st19" d="M749,616.1c0,0,3.1,2.5,3.8,4.9c0.7,2.4,1.1,7.3,2.5,7.1c0,0,3.1-7.5-0.4-11.7
				C751.3,611.9,749,616.1,749,616.1z"/>
		</g>
		<g>
			<path class="st21" d="M731.6,834.1c3.8,15.1,9.5,26.6,9.5,26.6l5-0.4c0,0-2.4-11.6-2.3-27.2c0.1-10.9,1.4-23.9,5.8-36.2
				c14.8-42.4,12.4-73.3,12.4-73.3L734,727l-1.3,0.1c-0.1,12.8-0.4,30.2-0.7,43.8c-0.3,12.2-0.5,21.4-0.5,21.4
				C726.1,803.9,728.1,820.2,731.6,834.1z"/>
		</g>
		<g>
			<path class="st16" d="M698.7,733.1l4.5,1.4c0,0,14.9-24.7,16.3-31.2c0.4-2.1,1.5-6.3,2.8-11c2.6-9.7,6-21.6,6-21.6l1.1-4.8
				l3.8-16.4c0,0-7.3,0.7-11.5,2.5c-1.4,0.6-2.5,1.3-2.9,2.1c-3.1,6.8-6.2,24.2-8.4,36.5c-1.2,6.9-2.1,12.2-2.6,13.4
				C706.4,707.2,702.2,724.5,698.7,733.1z"/>
		</g>
		<g>
			<path class="st20" d="M709.6,818.2c-1.4,9.2-4.8,34.5-3.4,38.7l5.4-0.9c0,0,9.9-22.9,12.2-29.2c4.7-12.9,10-20.8,11.9-26.8
				c5.7-19,12.8-80.8,12.8-80.8l-28.3-1.4c-2.8,4.8-4.1,12.6-4.4,21.6c-0.7,22.5,2.2,48.6,3,52.8C716.5,796,712.1,801,709.6,818.2z"
				/>
		</g>
		<g>
			<path class="st19" d="M749.6,616.5c0,0-2.9,11.5-10.9,15.2c0,0,8-7.1,8.7-14.7C748,609.4,749.6,616.5,749.6,616.5z"/>
		</g>
		<g>
			<path class="st17" d="M714.7,729.1c-0.1,1,0,1.7,0.2,2.3c0.6,1.9,2.7,2.8,7.7,2.2c3.1-0.3,4.4-5.4,5-9.8
				c1.8,6.3,4.4,9.8,7.7,10.5c4.8,1.1,29.3,4.1,30.9-7.6c1.8-12.8-3.5-35.4-3.8-47.6c0.7-4.3,1-8.1,0.9-11.3
				c-0.2-8.7-2.8-13.6-4.7-15.5c-0.5-0.4-1.1-0.7-3.3-1.1c-1.1-0.2-2.7-0.4-5-0.7c0,0-0.9-0.1-0.9-0.1c0.4,0.7,6,9.1,5.5,11.3
				c-0.5,2.3-20.1,0.2-21.5-1c-1.4-1.2-3.5-10.7-3.5-10.7s-6.9,0.8-10.4,3.2c0,0,0,0,0,0c-0.4,0.3-0.7,0.6-0.9,0.9
				c-3.6,6.9-7.3,24.4-9.8,36.8c6.2,3.4,11.6,2.4,13.3,2C720,707.2,715,722.6,714.7,729.1z"/>
		</g>
		<g>
			<path class="st19" d="M738.2,864.9h3.2c1.1-0.2,1.8-0.5,2.9-0.6c1.6-0.2,2.4,0.5,2.6,0.6l0,0h13.5c0.3-0.5,0-1.6-0.3-2.4
				c-0.2-0.6-0.7-1-1.3-1.2c-1.4-0.4-4.2-0.8-6.8-3.1c-1.5-1.3-7-4.8-7-4.8l0,0c-0.1,0-0.7,0.2-3.2,2.3c-1.3,1.1-3.5-1.6-3.5-1.6
				s-0.4,0.3-0.7,1c-0.3,0.5-0.4,1.2-0.3,2.1c0.2,1.2-0.4,3.5-1,5c-0.3,0.9-0.6,1.6-0.6,1.6S735.5,864.5,738.2,864.9z"/>
		</g>
		<g>
			<path class="st23" d="M737.5,855.1c0.8,0.5,2.4,1.6,3.4,1.7c1.4,0.2,4.1-3.5,4.1-3.5l0,0c-0.1,0-0.7,0.2-3.2,2.3
				c-1.3,1.1-3.5-1.6-3.5-1.6S737.8,854.5,737.5,855.1z"/>
		</g>
		<g>
			<path class="st23" d="M738.2,864.9h3.2c1.1-0.2,1.8-0.5,2.9-0.6c1.6-0.2,2.4,0.5,2.6,0.6l0,0h13.5c0.3-0.5,0-1.6-0.3-2.4
				c-0.4-0.4-0.5,1.6-0.8,1.9c-0.2,0.3-11,0.1-11.6-0.3c-0.6-0.4-2.5-1.2-5.1-0.6c-2.3,0.5-5.6-0.8-6.4-1.2
				c-0.3,0.9-0.6,1.6-0.6,1.6S735.5,864.5,738.2,864.9z"/>
		</g>
		<g>
			<path class="st19" d="M705.7,864.9h3.2c1.1-0.2,1.9-0.5,2.9-0.6c1.7-0.2,2.4,0.5,2.6,0.6l0,0h13.5c0.3-0.5,0-1.6-0.3-2.4
				c-0.2-0.6-0.7-1-1.3-1.2c-1.4-0.4-4.2-0.8-6.8-3.1c-1.5-1.3-7-4.8-7-4.8l0,0c-0.1,0-0.7,0.2-3.2,2.3c-1.3,1.1-3.5-1.6-3.5-1.6
				s-0.4,0.3-0.7,1c-0.2,0.5-0.4,1.2-0.3,2.1c0.2,1.2-0.4,3.5-1,5c-0.3,0.9-0.6,1.6-0.6,1.6S703,864.5,705.7,864.9z"/>
		</g>
		<g>
			<path class="st23" d="M705,855.1c0.8,0.5,2.4,1.6,3.4,1.7c1.4,0.2,4.1-3.5,4.1-3.5l0,0c-0.1,0-0.7,0.2-3.2,2.3
				c-1.3,1.1-3.5-1.6-3.5-1.6S705.3,854.5,705,855.1z"/>
		</g>
		<g>
			<path class="st23" d="M705.7,864.9h3.2c1.1-0.2,1.9-0.5,2.9-0.6c1.7-0.2,2.4,0.5,2.6,0.6l0,0h13.5c0.3-0.5,0-1.6-0.3-2.4
				c-0.4-0.4-0.5,1.6-0.8,1.9c-0.2,0.3-11,0.1-11.6-0.3c-0.6-0.4-2.5-1.2-5.1-0.6c-2.3,0.5-5.6-0.8-6.4-1.2
				c-0.3,0.9-0.6,1.6-0.6,1.6S703,864.5,705.7,864.9z"/>
		</g>
		<g>
			<path class="st18" d="M714.7,729.1c3.4-1.1,7.7-4.1,12.8-10.8c13.7-17.7,1.2-38.5-0.5-38.9c-1.7-0.4-4.8,13.5-4.8,13.5
				C720,707.2,715,722.6,714.7,729.1z"/>
		</g>
		<g>
			<path class="st17" d="M757.7,651.8c0,0,9.4,4.7,12.5,23.8c0,0-3.1,4.2-7.4,5.5c-0.6,0.2-1.3,0.3-1.9,0.3
				C755.6,681.7,757.7,651.8,757.7,651.8z"/>
		</g>
		<g>
			<path class="st16" d="M699.5,731c0,0-6.5,4-7.5,5.8c-0.9,1.7-3.2,8.1-3.2,8.1s1.6,0.2,3.2-2.5c1.6-2.8,6.8-2.5,8.5-4
				c1.7-1.5,3.8-5.9,3.8-5.9L699.5,731z"/>
		</g>
		<g>
			<path class="st16" d="M703.6,733.9c0,0-1,4.8-2.3,6.3c-1.3,1.4-3,3.8-3.7,3.2c-0.7-0.6,0.8-5.9,0.8-5.9L703.6,733.9z"/>
		</g>
		<g>
			<path class="st16" d="M692.9,737.4c-0.2,0.2-5.6,6-5.6,6s2,0.9,2.5,0C690.3,742.5,692.9,737.4,692.9,737.4z"/>
		</g>
		<g>
			<path class="st19" d="M668.8,592.5c3.2,1,4.5,2.6,4,4.9c-3.8,3-7.9,4-12.1,3.2C663,599.9,665.7,597.2,668.8,592.5z"/>
		</g>
		<g>
			<path class="st19" d="M642,597.8c0.7-1.5,0.6-2.5-0.4-3.1c-2.4,0.4-4.1,1.4-5.3,3.3C637.3,597.3,639.2,597.3,642,597.8z"/>
		</g>
		<g>
			<path class="st19" d="M645.6,597.3c-0.4,2.2-1.4,3.2-2.9,3.1c-2.3-2.3-3.3-4.9-3.2-7.8C640.1,594.1,642.2,595.6,645.6,597.3z"/>
		</g>
		<g>
			<path class="st16" d="M789.2,731.3c0,0,5.2,3.4,6,4.8c0.8,1.5,2.5,6.8,2.5,6.8s-1.3,0.2-2.5-2.1c-1.3-2.3-5.5-2.1-6.8-3.4
				c-1.4-1.2-3-4.9-3-4.9L789.2,731.3z"/>
		</g>
		<g>
			<path class="st16" d="M785.9,733.6c0,0,0.8,4.1,1.8,5.2c1,1.2,2.4,3.2,3,2.6c0.6-0.5-0.6-5-0.6-5L785.9,733.6z"/>
		</g>
		<g>
			<path class="st16" d="M794.5,736.6c0.1,0.2,4.5,5,4.5,5s-1.6,0.8-2,0C796.5,740.9,794.5,736.6,794.5,736.6z"/>
		</g>
	</g>
</g>
<g>
	<g>
		<path class="st16" d="M588.8,734.8c0,0,13.3,28.2,11.7,30.3c-1.6,2.1-13-7.7-15.6-14.3C582.4,744.2,588.8,734.8,588.8,734.8z"/>
	</g>
	<g>
		<path class="st16" d="M607.4,741.1c0,0-8.1,12-11.7,17.5c-2,3,3.1,6.8,4.9,6.6c1.7-0.2,8.3-19.2,8.3-19.2L607.4,741.1z"/>
	</g>
	<g>
		<path class="st19" d="M600.5,857.1c0,0,1.7,2,4.3,2c1.7,0,3.2,0.5,4.3,1.4c1,0.8,0.6,2.4-0.7,2.7l-12.7,2.9
			c-1.2,0.3-2.4-0.6-2.6-1.8c-0.1-0.9-0.3-2-0.4-2.8c-0.3-1.9,1.2-3.8,1.2-3.8L600.5,857.1z"/>
	</g>
	<g>
		<path class="st16" d="M600.5,857.1c0,0,0.7,0.8-6.5,0.6c0,0-6.4-29.3-7.8-31.2c-0.3-0.5-2.8-6-3.7-7.6c-0.1-0.1-1.7,3.2-1.8,3.1
			c-2.9-5.2-7.4-13.9-7.8-15.2c-0.4-1.8,4.8-24.7,9-23.9c3.2,0.5,5.9,2,7.1,2.7c0.4,0.2,0.6,0.4,0.6,0.4s0.2,0.7,0.4,1.8
			c0.3,1,0.6,2.4,1,4.1c0,0.2,0.1,0.4,0.2,0.6c2.4,9.6,6.6,26.8,7.2,29.7C599.5,826.2,600.5,857.1,600.5,857.1z"/>
	</g>
	<g>
		<path class="st20" d="M589.2,780.9l9.4,34c0,0-2.8,5-8.2,6.8c-3.9,1.3-10.3,0.9-10.3,0.9l-9-21.9L589.2,780.9z"/>
	</g>
	<g>
		<path class="st21" d="M592.1,791.7L580,822.6c-2.9-5.2-6.7-14.5-7-15.8c-0.4-1.8,4.8-24.7,9-23.9c3.2,0.5,5.9,2,7.1,2.7
			c0.4,0.2,1,0.1,1,0.1s0.4,0.4,0.7,1.5C591.1,788.2,591.7,790,592.1,791.7z"/>
	</g>
	<g>
		<path class="st16" d="M581.3,733.9l-10.9,5.6l-2.2-7.6c0,0,1.4-2.6,2-6.9c0.3-1.8,0.4-3.9,0.2-6.2l8.9,4.5c0,0-0.2,0.8-0.4,2
			c-0.2,1.3-0.2,3.1,0.2,4.7C579.5,731.5,580.2,732.9,581.3,733.9z"/>
	</g>
	<g>
		<path class="st16" d="M563,788.2c0,0-4.4,27.3-3.9,71.1l6.2,0.8c0,0,4.9-16.9,8-33.8c1.8-10,0.6-39.1,0.6-39.1L563,788.2z"/>
	</g>
	<g>
		<path class="st20" d="M556.9,784.7c0,3.9-4.6,37.3-4.6,37.3s4.6,1.8,10.5,2.5c8.3,0.9,13.6-1.4,13.6-1.4l10.4-39.2L556.9,784.7z"
			/>
	</g>
	<g>
		<path class="st18" d="M588.2,787.9c-12.1,3.3-27.6,1.5-31.4,0.9c-0.6-0.1-0.9-0.1-0.9-0.1c-1.3-0.3-2.3-1.5-2.3-2.9
			c0-0.2,0-0.3,0-0.5l3.6-19.9l-1.2-10l-0.7-5.7l-1.6-13c5.2-2.6,9.9-4,14.2-4.7c1.7,1.7,4.9,4.2,8.6,3.7c2.7-0.4,3.4-1.8,3.3-3.4
			c5.8,1,8.8,2.6,8.8,2.6l3.7,46.9C592.8,784.5,591,787.1,588.2,787.9z"/>
	</g>
	<g>
		<path class="st18" d="M568.1,731.9l-1.6,3.3l-1.6,3.2l-7.7,16.7c-1.2-1.6-10.2-4.8-10.2-4.8s4.1-10.3,6.9-13.7
			c0.8-1,2.3-1.8,4.1-2.5c1.5-0.5,3.1-1,4.6-1.3C565.6,732.2,568.1,731.9,568.1,731.9z"/>
	</g>
	<g>
		<path class="st16" d="M564.7,760c0.4,0,2.1-0.9,2.1-0.9s1.6-5.8,7-6.8c0,0,2.6,0,2.1,1.8c-0.5,1.8-0.6,1-1.3,3.5
			c-0.7,2.5-2.5,4.4-4.4,4.5l-2,0.5C568.3,762.7,563.7,760.1,564.7,760z"/>
	</g>
	<g>
		<path class="st16" d="M566.8,759.1c0,0-10.4,0.9-11.9,1.6c0,0,0.8-2.3,2.3-5.7c-1.4-1.3-5.8-3.3-8.7-4.2
			c-2.3,5.7-3.1,11.4-1.9,16.9c0.1,0.6,0.7,1,1.2,1c3.3,0.2,14.3,0.1,22.4-6.6L566.8,759.1z"/>
	</g>
	<g>
		<path class="st22" d="M579.2,730.1c-5-0.1-8.9-5.1-8.9-5.1l8.7,0.4C578.9,726.6,578.8,728.4,579.2,730.1z"/>
	</g>
	<g>
		<path class="st16" d="M581.3,727.8c0,0-13.3,1.6-13.6-7.7c-0.3-9.3,5.3-15.4,9-15.3c7.4,0.1,8.6,3.1,9.4,6.2
			C587,714,587.4,727.1,581.3,727.8z"/>
	</g>
	<g>
		<path class="st19" d="M565.3,860c0,0,1.1,2.2,3.6,2.8c1.6,0.4,2.9,1.2,3.8,2.3c0.7,1,0,2.4-1.2,2.4h-12.8c-1.1,0-1.9-0.9-1.8-2
			c0.1-0.9,0.2-2,0.2-2.9c0.1-1.8,1.9-3.3,1.9-3.3L565.3,860z"/>
	</g>
	<g>
		<path class="st19" d="M570.2,725.4c0,0-8.7-6.4-8.7-14.1c0-9.5,5.8-12.1,14-12.5c8.1-0.5,13.9,6.4,11.8,10
			c-2.2,3.6-4.9,2.7-10,2.1c-5.1-0.6-4.9,4.1-7.1,3.9c-2.2-0.2-2.8-1-3,0.5c-0.2,1.5,2.3,2,1.8,3.5
			C568.1,721.6,570.2,725.4,570.2,725.4z"/>
	</g>
	<g>
		<path class="st16" d="M570.2,715.6c0,0-1.8-2.3-3-1.7c-1.2,0.6,0,4.1,0.9,4.5c0.9,0.5,1.9,0.8,2.1,0.6
			C570.4,718.8,570.2,715.6,570.2,715.6z"/>
	</g>
	<g>
		<path class="st18" d="M588.8,734.8c0,0,4.4,3.8,7.3,13.3c0,0,0.9,9.2-7.3,10.1C580.6,759,588.8,734.8,588.8,734.8z"/>
	</g>
	<g>
		<path class="st16" d="M566.8,759.1c0,0,0.3-1.7,0.9-3.4c0.5-1.7,0.9-3.3,1.3-2.5c0.4,0.8,0.5,2.9,0.5,2.9L566.8,759.1z"/>
	</g>
	<g>
		<path class="st16" d="M607.4,741.1c0,0,1.6-6.5,5.7-6.3c4.1,0.3,3.4,4.2,1.5,6.3c-2,2-5.7,4.9-5.7,4.9L607.4,741.1z"/>
	</g>
</g>
<g>
	<g>
		<g>
			<path class="st24" d="M822.3,797.3c-0.1,0.4-0.1,0.8,0,1.2c0-1,0.2-1.9,0.6-2.8C822.5,796.2,822.4,796.7,822.3,797.3z"/>
		</g>
		<g>
			<path class="st19" d="M807.2,765.2c8.1,31.7-45.4,40.3-29-3.1c1.5-4.1,2.5-4,3.8-8.3C789.1,743.2,807.3,744.7,807.2,765.2z"/>
		</g>
		<g>
			<path class="st16" d="M813.8,859l-5.2,2.7c0,0-3.1-4-5.8-8.9c-1.9-3.4-3.7-7.2-4.1-10.3c-1.1-7.6-9.1-20.1-8.3-22.2
				c0.8-2.1,16.8-5.8,16.8-5.8s3.1,21.3,5.2,35.1C813,853.6,813.5,857,813.8,859z"/>
		</g>
		<g>
			<path class="st25" d="M813.8,859l-5.2,2.7c0,0-3.1-4-5.8-8.9c2.1-0.2,5.9-0.8,9.6-3.2C813,853.6,813.5,857,813.8,859z"/>
		</g>
		<g>
			<path class="st16" d="M802.1,819.3c0,0-6.5,9.2-10.5,22.1c-0.9,3-4.1,6.8-7.3,10.2c-3.1,3.3-6.3,6.1-7.4,7.6l-5.2-2.5
				c0,0,1.8-5.3,4.6-10.1c1-1.8,2.2-3.5,3.4-4.9c1.7-1.9,1.1-25.5,2.8-27.1C784,813.1,802.1,819.3,802.1,819.3z"/>
		</g>
		<g>
			<path class="st16" d="M787.3,777.1L787.3,777.1L787.3,777.1z"/>
		</g>
		<g>
			<path class="st16" d="M800.7,785.3l-13.5-8.1c0.1,0,0.4-0.4,1.3-3.4c0.4-1.2,0.7-2.3,0.8-3.2c0-0.1,0-0.2,0-0.2c0.1-1.2,0-2,0-2
				l2.9,1.1l5.5,2c-0.1,1.4,0.1,2.4,0.4,3c0.7,1.6,2,1.6,2.1,1.6L800.7,785.3z"/>
		</g>
		<g>
			<path class="st22" d="M798.3,774.5c-5.3,0.5-8.2-3-8.9-3.9c-0.1-0.1-0.1-0.2-0.1-0.2s0.1,0,0.2-0.1c0.4-0.1,1.6-0.5,3-0.9l5.5,2
				C797.8,772.9,798,773.8,798.3,774.5z"/>
		</g>
		<g>
			<path class="st16" d="M798.6,772.6c-1,0.7-9.9,3.8-11.9-6.6c0.9-7.5,0.9-10.5,6.1-12.2c8.1-0.7,10,2.2,10.5,4.9
				C804.5,766.3,801.5,771.1,798.6,772.6z"/>
		</g>
		<g>
			<path class="st26" d="M776.7,745.7c-0.2-0.4-0.3-0.6-0.3-0.6C776.6,745.3,776.7,745.5,776.7,745.7z"/>
		</g>
		<g>
			<path class="st16" d="M802.3,776.9c0,0,11.2-8.6,12.4-11.5c1.2-2.8,6.3-13.3,7.7-14.4c0,0,2.8-0.4,3.2,1.6
				c0.4,1.9-2.7,13.4-4.8,16.9c-2.1,3.5-12.3,15.2-15.7,16.9L802.3,776.9z"/>
		</g>
		<g>
			<path class="st16" d="M829.6,745.8c-0.2,1-0.6,2.1-1.1,2.6c-0.6,0.7-1.6,2.2-2.3,3.2c-0.4,0.6-0.7,1-0.7,1l-3.2-1.5
				c0,0-0.1-5.4,2-6.6c0.1,0,0.1-0.1,0.2-0.1c0.9-0.5,1.7-0.8,2.5-1c1-0.3,1.8-0.3,2.2,0C829.7,743.6,829.8,744.7,829.6,745.8z"/>
		</g>
		<g>
			<path class="st27" d="M813.1,834.7c0,0-11.5,2.4-17,1.7c-7.4-1-13.9-1.2-20.9-4.9c0,0,3.7-18.3,3.9-19.1
				c0.3-1.3,2.7-11.1,4.8-20.2c2-8.3,3.8-16,3.8-16s5.5,3.9,8.7,2.5c3.2-1.4,2.8-2.9,2.8-2.9s2.1-0.8,3.1-0.5c1,0.3,3.8-1.3,3.8-1.3
				s3.1,2.4,3.2,7.5c0,0.8,0,1.6-0.2,2.4l-2.2,2.6C806.9,786.4,811.9,817,813.1,834.7z"/>
		</g>
		<g>
			<path class="st19" d="M822.3,865.3h-15.4c0,0-0.3-2.5,0-4.7c0.1-0.3,0.2-0.5,0.4-0.7c0.9,0.3,2.2,0.5,3.7,0
				c1.2-0.4,2.1-1.1,2.7-1.7c0.2,0.2,3.3,3.2,4.8,3.2C820.1,861.5,822.4,862.2,822.3,865.3z"/>
		</g>
		<g>
			<path class="st25" d="M784.3,851.7c-3.1,3.3-6.3,6.1-7.4,7.6l-5.2-2.5c0,0,1.8-5.3,4.6-10.1C777.1,848.1,779.6,851.1,784.3,851.7
				z"/>
		</g>
		<g>
			<path class="st19" d="M778,857.9c0,0-0.2,3.3,0.9,3.8c1.1,0.4,3.2,1.5,3.2,3.7h-7.7c0,0-5.3-2.6-6-3.7c-0.7-1.1,3.6-5.9,3.6-5.9
				S774.6,858.6,778,857.9z"/>
		</g>
		<g>
			<path class="st16" d="M790.8,803.5c0,0,3.4-0.6,4.7,0.2c1.3,0.9,1.7,2.2,0.8,2.8c-3,1.7-6-0.2-6-0.2L790.8,803.5z"/>
		</g>
		<g>
			<path class="st16" d="M787.9,777.2c0,0-10.4,2.2-14.5,18.4c-0.4,1.6,0,3.3,1.1,4.5c1.9,2.1,6,5.1,15.7,6.3
				c1.1,0.1,1.2-2.6,1.2-2.6c-0.1,0.2-6.6-4.2-9.3-6.5c-0.5-0.4-0.5-1.3-0.1-1.9c0.9-1.4,2.5-3.9,3-5.1
				C785.8,788.4,790.8,778,787.9,777.2z"/>
		</g>
		<g>
			<path class="st27" d="M787.8,776.1c0,0-6.1,0.4-11.1,7.1c0,0,1.7,6.1,9.6,7.8C786.3,791,791.2,779.9,787.8,776.1z"/>
		</g>
		<g>
			<path class="st16" d="M785.5,759.8c-0.8,0.2-1.2,1.4-0.9,2.7c0.3,1.3,1.2,2.2,2,2c0.8-0.2,1.2-1.4,0.9-2.7
				C787.2,760.5,786.3,759.6,785.5,759.8z"/>
		</g>
		<g>
			<path class="st19" d="M794.7,753.1c4.8,0,8.7,1.7,8.7,3.9c0,2.2-3.9,3.3-8.7,3.9c-4.3,0.6,0.6-0.9-0.7-1.2
				c-2.5-0.7-8.1-1.2-8.1-2.7C786,754.8,789.9,753.1,794.7,753.1z"/>
		</g>
	</g>
</g>
<g>
	<g>
		<g>
			<path class="st4" d="M1618.9,168.3c2.6-11.7,12.7-22.1,26.3-27c13.6-4.9,30.3-4.3,43.4,1.8c8.9-16.9,32.3-28.1,55.5-26.7
				c23.2,1.5,44.6,15.5,50.8,33.4c14.7-0.1,28,11.3,26.7,22.9c11.3-3.6,24.3,7.2,21.3,16.6c-3,9.4-17.5,14.2-29.3,11.5
				c-30.4,16.3-72.3,18-105.3,4.4c-27.1,12.9-67.6,3.3-81.9-19.4c1.9,3-30,6.6-35.8-4.4C1584.2,168.9,1607.4,162.5,1618.9,168.3z"/>
		</g>
		<g>
			<path class="st4" d="M1843,189.3c-3,9.4-17.5,14.2-29.3,11.5c-30.4,16.3-72.3,18-105.3,4.4c-27.1,12.9-67.6,3.3-81.9-19.4
				c1.9,3-30,6.6-35.8-4.4c-6.5-12.4,16.8-18.8,28.3-13c2.6-11.7,12.7-22.1,26.3-27c3.8-1.4,7.9-2.3,12-2.8
				c-4.6,4.3-8.5,9-10.2,14.5c-2.4,7.5,0.4,16.5,8.6,20.8c5.8,3,13,3.2,19.8,3.2c8,0,17.6-0.9,21-6.7c1.2-1.9,1.3-4.1,1.9-6.2
				c2.9-10.6,16.6-18.6,30.3-17.5c-7.1,0.4-12,6.7-10.7,12.3c1.2,5.6,7.2,10,13.8,12.2c6.7,2.1,14,2.4,21.1,2.3
				c12-0.1,25.2-1.3,32.9-8.4c5.6,5.2,16,6.6,23.4,3.3c3.6-1.7,6.2-4.3,7.7-7.4c0.1-0.2,0.2-0.6,0.3-1c3.2,3.8,5,8.3,4.5,12.9
				C1832.9,169.1,1845.9,179.9,1843,189.3z"/>
		</g>
		<g>
			<path class="st4" d="M1626.5,185.7c1.9,3-30,6.6-35.8-4.4c-6.5-12.4,16.8-18.8,28.3-13c-5.4-0.7-11.4-1.1-16.8-0.5
				c-3,0.3-6.4,1.1-7.7,3.3c-0.5,0.9-0.7,1.9-0.6,2.9c0.1,3.3,2,6.7,5.4,8.6c3,1.7,6.8,2.1,10.5,2.3
				C1614.6,185.2,1621.5,185.6,1626.5,185.7z"/>
		</g>
		<g>
			<path class="st4" d="M1626.5,185.7c14.4,22.8,54.8,32.4,81.9,19.4c33,13.6,75,11.9,105.3-4.4c11.8,2.7,26.3-2.1,29.3-11.5
				c3-9.4-10-20.2-21.3-16.6c8,0.9,13.1,8.7,10.5,14.7c-2.6,6-12.9,8.8-19.8,5.5c1.9-3.4,2.8-7.1,2.9-10.8
				c-3.3,5.3-11.9,6.6-19.4,6.5c-7.2-0.1-14.4-1-21.3-2.8c1.5,7,9.2,13,18.1,13.9c-13.2,5.3-28.6,5.9-43.4,5.3
				c-10-0.4-20.3-1.5-28.9-5.8c-8.5-4.3-14.7-12.5-12.3-20.1c-7.5,4.9-9.9,14.1-5.6,21.1c-12.1,4.6-26.6,4.9-39.7,2
				C1649.6,199.1,1636.6,193,1626.5,185.7z"/>
		</g>
	</g>
	<g>
		<g>
			<path class="st4" d="M1231.2,249.5c8.3-17.9,33.6-25.2,50.1-14.4c9.4-12.5,26-19.1,41.4-16.5c15.4,2.6,29,14.3,33.8,29.1
				c8.3-1.4,17.8,2.5,20.9,10.4c3.1,7.8-2.7,18.3-11.1,18.3c-2.8,0-5.6-1-8.2-0.3c-2.1,0.6-3.8,2.2-5.5,3.7c-21,18.2-57,15-74.3-6.8
				c-12.1,10.7-32.2,10.5-44.1-0.3c1.6,1.5-16.5,5.4-18.6,5.1c-6.6-1-15-4.9-16.2-12.3C1196.9,250,1220.3,242.2,1231.2,249.5z"/>
		</g>
		<g>
			<path class="st4" d="M1199.3,265.5c1.2,7.4,9.5,11.3,16.2,12.3c2.1,0.3,20.2-3.6,18.6-5.1c11.9,10.8,32.1,10.9,44.1,0.3
				c17.3,21.7,53.4,25,74.3,6.8c1.7-1.5,3.3-3.1,5.5-3.7c2.7-0.7,5.5,0.3,8.2,0.3c8.4,0,14.2-10.5,11.1-18.3
				c-3.1-7.8-12.6-11.8-20.9-10.4c-1.5-4.7-3.9-9-6.9-12.8c0.9,8.8-1.9,17.9-7.7,24.7c-3.1,3.6-7,6.5-11.4,8.1
				c-6.4,2.4-13.4,2-20.1,1.3c-4.5-0.5-9.1-1.3-13.2-3.4c-4-2.1-7.5-5.8-8.2-10.3c-0.6-3.8,0.8-7.7,2.6-11.1
				c2.8-5.2,6.7-9.9,11.3-13.6c-12.4,2.2-23.3,11.4-27.5,23.3c-0.6,1.7-1.1,3.5-2.4,4.7c-1.1,1-2.5,1.5-3.9,1.9
				c-6.9,2-14.1,2.9-21.3,2.7c-6-0.2-12.8-1.7-16.1-6.8c-2.1,3.1-5.2,5.9-8.9,6.5c-3.7,0.6-8-1.6-8.8-5.3c-0.7-2.9,1-6,3.2-7.9
				c0.8-0.7,3.8-1.8,5.5-2.8C1211.4,246,1197.4,253.4,1199.3,265.5z"/>
		</g>
		<g>
			<path class="st4" d="M1278.2,273c17.3,21.7,53.4,25,74.3,6.8c1.7-1.5,3.3-3.1,5.5-3.7c2.7-0.7,5.5,0.3,8.2,0.3
				c8.4,0,14.2-10.5,11.1-18.3c-1.3,5.4-6.1,10.2-11.2,12.4c-5.1,2.2-11.3,1.9-16.1-0.9c-1.7,5.7-6.5,10.1-11.9,12.4
				c-5.4,2.3-11.5,2.9-17.4,3c-4.1,0.1-8.2,0-12.3-0.9c-6.9-1.5-13.1-5-19.1-8.8c-4.9-3-10.1-6.8-11.2-12.4
				C1277.9,266,1278.4,270,1278.2,273z"/>
		</g>
		<g>
			<path class="st4" d="M1278.2,273c-12.1,10.7-32.2,10.5-44.1-0.3c1.6,1.5-16.5,5.4-18.6,5.1c-6.6-1-15-4.9-16.2-12.3
				c-1.9-12.1,12.1-19.5,23.4-18.7c-5.6,1.4-11.3,3.6-14.2,8.6c-2.9,5-2.3,12.3,2.5,15.5c3.1,2.1,7.2,2.2,11,1.6
				c4.5-0.7,9.3-2.6,11.4-6.7c5.4,5.7,13.3,8.7,21.2,9.5C1262.5,276.1,1270.5,274.6,1278.2,273z"/>
		</g>
	</g>
	<g>
		<g>
			<path class="st4" d="M485.2,139.4c-1.3-8-7.6-15.4-16.5-19.2c-8.9-3.9-20.1-4.1-29.2-0.6c-5.3-11.7-20.5-20.2-36.2-20.1
				c-15.6,0-30.6,8.6-35.4,20.4c-9.8-0.7-19.3,6.5-18.9,14.3c-7.4-2.9-16.6,3.9-15,10.3c1.6,6.4,11.2,10.3,19.2,8.9
				c19.7,12.1,47.8,15,70.5,7.2c17.7,9.8,45.2,5,55.8-9.7c-1.4,1.9,19.9,5.6,24.2-1.5C508.5,141.3,493.1,136,485.2,139.4z"/>
		</g>
		<g>
			<path class="st4" d="M334,144.4c1.6,6.4,11.2,10.3,19.2,8.9c19.7,12.1,47.8,15,70.5,7.2c17.7,9.8,45.2,5,55.8-9.7
				c-1.4,1.9,19.9,5.6,24.2-1.5c4.9-8.1-10.5-13.3-18.4-9.9c-1.3-8-7.6-15.4-16.5-19.2c-2.5-1.1-5.2-1.9-8-2.4
				c2.9,3.1,5.3,6.4,6.3,10.1c1.3,5.1-0.9,11.1-6.6,13.6c-4,1.8-8.9,1.6-13.4,1.3c-5.4-0.3-11.8-1.3-13.8-5.3
				c-0.7-1.3-0.7-2.8-1-4.3c-1.5-7.2-10.4-13.1-19.6-13c4.8,0.6,7.8,5,6.7,8.7c-1.1,3.7-5.2,6.4-9.8,7.6c-4.6,1.2-9.5,1-14.3,0.7
				c-8-0.5-16.9-1.9-21.8-7c-4,3.2-11,3.8-15.8,1.2c-2.4-1.3-4-3.2-4.9-5.3c-0.1-0.2-0.1-0.4-0.1-0.7c-2.3,2.4-3.7,5.4-3.5,8.5
				C341.5,131.3,332.4,138,334,144.4z"/>
		</g>
		<g>
			<path class="st4" d="M479.4,150.8c-1.4,1.9,19.9,5.6,24.2-1.5c4.9-8.1-10.5-13.3-18.4-9.9c3.7-0.3,7.7-0.2,11.3,0.4
				c2,0.3,4.2,1,5,2.5c0.3,0.6,0.4,1.3,0.3,1.9c-0.2,2.2-1.6,4.4-4,5.5c-2.1,1-4.7,1.1-7.1,1.1C487.3,151,482.7,151,479.4,150.8z"/>
		</g>
		<g>
			<path class="st4" d="M479.4,150.8c-10.6,14.7-38.1,19.5-55.8,9.7c-22.7,7.8-50.8,4.9-70.5-7.2c-8,1.4-17.6-2.5-19.2-8.9
				c-1.6-6.4,7.6-13.1,15-10.3c-5.4,0.3-9.1,5.3-7.6,9.4c1.5,4.1,8.3,6.5,13.1,4.5c-1.1-2.3-1.6-4.9-1.5-7.4c2,3.7,7.7,4.9,12.8,5.2
				c4.8,0.2,9.7-0.1,14.4-1c-1.3,4.6-6.7,8.3-12.7,8.6c8.6,4.1,18.9,5.1,28.9,5.3c6.7,0.1,13.7-0.2,19.6-2.7
				c5.9-2.5,10.4-7.8,9.1-13c4.8,3.6,6.1,9.8,2.9,14.4c8,3.6,17.6,4.4,26.6,2.9C463.3,158.9,472.3,155.3,479.4,150.8z"/>
		</g>
	</g>
</g>
</svg>
