<!DOCTYPE svg PUBLIC "-//W3C//DTD SVG 1.1//EN" "http://www.w3.org/Graphics/SVG/1.1/DTD/svg11.dtd">
<!-- Uploaded to: SVG Repo, www.svgrepo.com, Transformed by: SVG Repo Mixer Tools -->
<svg width="800px" height="800px" viewBox="0 0 32 32" xmlns="http://www.w3.org/2000/svg" fill="#000000">
<g id="SVGRepo_bgCarrier" stroke-width="0"/>
<g id="SVGRepo_tracerCarrier" stroke-linecap="round" stroke-linejoin="round"/>
<g id="SVGRepo_iconCarrier"> <defs> <style>.cls-1{fill:#A1D8F8;}.cls-2{fill:#055DA9;}</style> </defs> <title/> <g data-name="Layer 7" id="Layer_7"> <path class="cls-1" d="M23.91,16.14l3.88-3.62a3,3,0,0,0,.15-4.24L24.53,4.63a3,3,0,0,0-4.23-.15L16.13,8.36l-4-4a3,3,0,0,0-4.24,0L4.33,7.87a3,3,0,0,0,0,4.24l3.76,3.75L4.21,19.48a3,3,0,0,0-.15,4.24l3.41,3.65a3,3,0,0,0,2.1,1h.1a2.94,2.94,0,0,0,2-.81l4.17-3.88,2.06,2.07a1,1,0,0,0,.71.29h6.74a1,1,0,0,0,.71-.29l1.58-1.58h0a3,3,0,0,0,0-4.24Z"/> <path class="cls-2" d="M26,24.2a1,1,0,0,0-.61-1.13l-5-2a1,1,0,0,0-1.28.52l-1.36,3a1,1,0,0,0,.07.95,1,1,0,0,0,.84.46h6.74a1,1,0,0,0,.6-1.8Z"/> <circle class="cls-2" cx="11.5" cy="11.5" r="2.5"/> </g> </g>
</svg>