<?xml version="1.0" encoding="utf-8"?>
<!-- Generator: Adobe Illustrator 27.5.0, SVG Export Plug-In . SVG Version: 6.00 Build 0)  -->
<svg version="1.1" xmlns="http://www.w3.org/2000/svg" xmlns:xlink="http://www.w3.org/1999/xlink" x="0px" y="0px"
	 viewBox="0 0 3710 3710" style="enable-background:new 0 0 3710 3710;" xml:space="preserve">
<g id="Background">
	<g>
		<g>
			<rect style="fill:#FFFFFF;" width="3710" height="3710"/>
		</g>
	</g>
</g>
<g id="Illustration">
	<g>
		<linearGradient id="SVGID_1_" gradientUnits="userSpaceOnUse" x1="3619.0679" y1="4091.823" x2="1115.9424" y2="983.0981">
			<stop  offset="0" style="stop-color:#DAE3FE"/>
			<stop  offset="1" style="stop-color:#E9EFFD"/>
		</linearGradient>
		<path style="fill:url(#SVGID_1_);" d="M2930.442,2865.854c-57.496,60.529-111.897,99.563-154.88,130.404
			c-505.244,362.519-1103.083,256.846-1230.14,231.04c-187.624-38.107-550.297-111.768-812.503-420.117
			c-396.696-466.506-334.925-1201.474-27.22-1686.637c56.284-88.745,353.592-581.297,957.869-660.287
			c365.702-47.804,791.994,48.611,1100.702,307.247C3412.276,1310.405,3366.145,2407.16,2930.442,2865.854z"/>
		<g>
			<path style="fill:#BDD0FB;" d="M2952.774,2120.965c-118.308,5.078-249.974-129.516-280.272-260.93
				c-31.179-135.238,65.827-176.742,89.679-355.166c27.095-202.684-84.709-249.179-123.863-532.793
				c-8.833-63.989-59.953-434.289,73.415-484.024c123.313-45.986,421.396,175.718,446.683,410.454
				c18.031,167.378-115.91,218.178-94.267,413.212c18.99,171.129,128.392,188.624,148.473,353.971
				C3237.071,1866.983,3108.114,2114.298,2952.774,2120.965z"/>
			<path style="fill:#91B3FA;" d="M2937.638,2168.889c61.153-213.976,46.796-559.051,23.983-810.855
				c-24.698-272.62-64.34-497.673-64.737-499.916l-9.958,1.238c0.397,2.238,39.985,226.994,64.649,499.265
				c22.743,251.071,37.092,595.01-23.705,807.735L2937.638,2168.889z"/>
		</g>
		<g>
			<path style="fill:#BDD0FB;" d="M929.145,2128.282c176.982-40.653,302.887-305.625,237.877-419.305
				c-43.926-76.812-146.528-34.739-212.826-119.764c-84.648-108.559,32.851-240.958,1.23-460.549
				C928.516,941.79,800.302,738.224,692.627,745.13c-112.711,7.229-233.485,247.043-184.618,422.997
				c31.779,114.425,118.755,142.27,113.838,239.723c-5.706,113.079-125.761,134.085-153.414,237.958
				C418.762,1832.394,695.01,2182.063,929.145,2128.282z"/>
			<path style="fill:#7D97F4;" d="M826.46,2177.812c0.93,0.242,1.927,0.283,2.932,0.081c3.554-0.71,5.858-4.165,5.147-7.717
				c-95.834-479.521-27.902-989.203-27.206-994.295c0.492-3.59-2.023-6.902-5.608-7.388c-3.588-0.492-6.898,2.019-7.388,5.608
				c-0.7,5.115-68.924,516.985,27.338,998.645C822.185,2175.293,824.105,2177.199,826.46,2177.812z"/>
			
				<linearGradient id="SVGID_00000011013402230266727770000008448550642285874561_" gradientUnits="userSpaceOnUse" x1="555.6863" y1="1026.9789" x2="681.7128" y2="1026.9789">
				<stop  offset="0" style="stop-color:#DAE3FE"/>
				<stop  offset="1" style="stop-color:#E9EFFD"/>
			</linearGradient>
			<path style="fill:url(#SVGID_00000011013402230266727770000008448550642285874561_);" d="M612.233,1261.686
				c0.652,0.17,1.364,0.13,2.03-0.155c1.589-0.687,2.322-2.53,1.636-4.12c-43.435-100.684-82.992-245.259-24.768-362.256
				c34.675-69.678,88.297-96.773,88.834-97.038c1.552-0.767,2.189-2.644,1.423-4.198c-0.768-1.553-2.648-2.191-4.199-1.421
				c-2.271,1.12-56.06,28.31-91.669,99.865c-32.728,65.763-55.023,182.911,24.623,367.529
				C610.541,1260.815,611.331,1261.451,612.233,1261.686z"/>
		</g>
		<g>
			<path style="fill:#7D97F4;" d="M2877.781,1297.935c-0.152-8.711-3.79-16.999-10.102-23.005
				c-6.311-6.007-14.767-9.233-23.476-8.954l-704.676,22.516c-17.936,0.573-32.023,15.558-31.489,33.495l34.77,1167.05
				c0.528,17.71,15.127,31.744,32.844,31.572l690.511-6.716c8.673-0.084,16.954-3.628,23.005-9.844
				c6.05-6.216,9.367-14.59,9.217-23.263L2877.781,1297.935z"/>
			<g style="opacity:0.63;">
				<path style="fill:#BDD0FB;" d="M2804.265,1353.076h-627.516c-6.103,0-11.001,4.226-10.938,10.013l0.6,55.273
					c0.063,5.812,5.096,12.324,11.217,12.33l629.303,0.627c6.23,0.007,11.052-6.699,10.852-12.564l-1.909-55.558
					C2815.674,1357.359,2810.478,1353.076,2804.265,1353.076z"/>
				<path style="fill:#BDD0FB;" d="M2808.34,1473.081l-630.248-1.049c-6.13-0.01-11.035,5.84-10.972,11.678l0.604,55.988
					c0.063,5.863,5.106,11.421,11.254,11.438l632.051,1.746c6.257,0.017,11.139-5.564,10.937-11.48l-1.926-56.499
					C2819.838,1479.013,2814.579,1473.092,2808.34,1473.081z"/>
				<path style="fill:#BDD0FB;" d="M2812.592,1599.291l-633.099-2.153c-6.157-0.021-11.118,2.824-11.054,8.712l0.61,56.478
					c0.064,5.914,5.117,10.384,11.29,10.412l634.822,2.825c6.285,0.028,11.227-4.439,11.024-10.408l-1.943-56.998
					C2824.039,1602.218,2818.86,1599.313,2812.592,1599.291z"/>
				<path style="fill:#BDD0FB;" d="M2816.738,1722.38l-635.88-3.24c-6.184-0.031-11.154,3.978-11.089,9.918l0.616,56.974
					c0.063,5.966,5.127,9.33,11.328,9.367l637.618,3.924c6.313,0.039,11.316-3.293,11.11-9.314l-1.96-57.503
					C2828.277,1726.511,2823.034,1722.413,2816.738,1722.38z"/>
				<path style="fill:#BDD0FB;" d="M2820.921,1846.551l-638.685-4.345c-6.211-0.042-11.19,5.154-11.125,11.146l0.621,57.476
					c0.065,6.019,5.185,12.541,11.413,12.59l640.537,5.08c6.342,0.051,11.26-6.452,11.053-12.526l-1.978-58.015
					C2832.552,1851.907,2827.246,1846.594,2820.921,1846.551z"/>
				<path style="fill:#BDD0FB;" d="M2825.142,1971.817l-641.515-5.47c-6.238-0.053-11.226,6.349-11.16,12.395l0.626,57.985
					c0.065,6.072,5.195,11.484,11.451,11.545l643.384,6.217c6.37,0.061,11.35-5.303,11.141-11.433l-1.995-58.533
					C2836.865,1978.42,2831.494,1971.871,2825.142,1971.817z"/>
				<path style="fill:#BDD0FB;" d="M2829.547,2102.57l-644.47-6.654c-6.266-0.065-11.311,3.227-11.245,9.326l0.632,58.501
					c0.066,6.126,5.206,10.409,11.49,10.481l646.256,7.375c6.399,0.073,11.441-4.134,11.23-10.318l-2.014-59.059
					C2841.216,2106.066,2835.929,2102.636,2829.547,2102.57z"/>
				<path style="fill:#BDD0FB;" d="M2833.844,2230.11l-647.351-7.819c-6.294-0.076-11.348,4.427-11.281,10.581l0.637,59.024
					c0.067,6.181,5.217,9.315,11.529,9.397l649.153,8.553c6.429,0.084,11.534-2.942,11.322-9.183l-2.032-59.591
					C2845.607,2234.859,2840.254,2230.188,2833.844,2230.11z"/>
				<path style="fill:#BDD0FB;" d="M2838.179,2358.791l-650.259-9.005c-6.323-0.087-11.385,5.648-11.318,11.857l0.643,59.554
					c0.068,6.237,5.276,12.641,11.618,12.736l652.178,9.792c6.459,0.097,11.477-6.213,11.261-12.509l-2.05-60.132
					C2850.038,2364.814,2844.618,2358.88,2838.179,2358.791z"/>
			</g>
		</g>
		<g>
			<path style="fill:#7D97F4;" d="M1797.042,651.18c-0.391-20.9-17.328-38.099-38.089-38.099H974.23
				c-21.039,0-41.702,18.096-41.702,39.281v1893.514c0,10.192,5.832,19.965,12.997,27.162c7.167,7.196,17.785,11.224,27.907,11.197
				l820.471-2.255c10.21-0.028,20.205-4.182,27.346-11.529c7.141-7.348,11.167-17.503,10.975-27.781L1797.042,651.18z"/>
			<g style="opacity:0.81;">
				<g>
					<polygon style="fill:#BDD0FB;" points="1219.135,836.209 995.584,835.906 993.811,720.529 1217.579,720.529 					"/>
					<polygon style="fill:#BDD0FB;" points="1469.709,836.151 1246.383,835.848 1244.854,720.529 1468.396,720.529 					"/>
					<polygon style="fill:#BDD0FB;" points="1720.032,836.093 1496.93,835.791 1495.644,720.529 1718.962,720.529 					"/>
				</g>
				<g>
					<polygon style="fill:#BDD0FB;" points="1221.928,1043.307 998.768,1043.451 997,928.827 1220.378,928.734 					"/>
					<polygon style="fill:#BDD0FB;" points="1472.067,1043.146 1249.129,1043.29 1247.605,928.723 1470.758,928.63 					"/>
					<g>
						<polygon style="fill:#BDD0FB;" points="1721.954,1042.985 1499.241,1043.128 1497.958,928.619 1720.887,928.526 						"/>
					</g>
				</g>
				<g>
					<polygon style="fill:#BDD0FB;" points="1224.713,1248.983 1001.94,1249.218 1000.179,1134.991 1223.167,1134.807 					"/>
					<polygon style="fill:#BDD0FB;" points="1474.416,1248.718 1251.866,1248.953 1250.347,1134.784 1473.112,1134.6 					"/>
					<polygon style="fill:#BDD0FB;" points="1723.869,1248.454 1501.542,1248.69 1500.265,1134.577 1722.806,1134.392 					"/>
				</g>
				<g>
					<polygon style="fill:#BDD0FB;" points="1227.487,1453.946 1005.101,1454.273 1003.347,1340.441 1225.946,1340.165 					"/>
					<polygon style="fill:#BDD0FB;" points="1476.757,1453.58 1254.593,1453.906 1253.08,1340.131 1475.458,1339.855 					"/>
					<polygon style="fill:#BDD0FB;" points="1725.777,1453.214 1503.836,1453.54 1502.563,1339.822 1724.718,1339.546 					"/>
				</g>
				<g>
					<polygon style="fill:#BDD0FB;" points="1230.252,1658.201 1008.252,1658.618 1006.503,1545.18 1228.717,1544.813 					"/>
					<polygon style="fill:#BDD0FB;" points="1479.089,1657.733 1257.312,1658.15 1255.803,1544.768 1477.795,1544.401 					"/>
					<polygon style="fill:#BDD0FB;" points="1727.68,1657.266 1506.122,1657.683 1504.853,1544.357 1726.624,1543.991 					"/>
				</g>
				<g>
					<polygon style="fill:#BDD0FB;" points="1233.007,1861.752 1011.391,1862.258 1009.648,1749.212 1231.477,1748.754 					"/>
					<polygon style="fill:#BDD0FB;" points="1481.415,1861.183 1260.02,1861.689 1258.516,1748.699 1480.124,1748.242 					"/>
					<polygon style="fill:#BDD0FB;" points="1729.574,1860.615 1508.401,1861.121 1507.136,1748.187 1728.522,1747.73 					"/>
				</g>
				<g>
					<polygon style="fill:#BDD0FB;" points="1235.753,2064.601 1014.521,2065.197 1012.783,1952.54 1234.228,1951.993 					"/>
					<polygon style="fill:#BDD0FB;" points="1483.732,2063.933 1262.719,2064.528 1261.221,1951.926 1482.445,1951.38 					"/>
					<polygon style="fill:#BDD0FB;" points="1731.464,2063.265 1510.671,2063.86 1509.41,1951.314 1730.415,1950.768 					"/>
				</g>
				<g>
					<polygon style="fill:#BDD0FB;" points="1238.489,2266.752 1017.639,2267.437 1015.907,2155.167 1236.97,2154.532 					"/>
					<polygon style="fill:#BDD0FB;" points="1486.04,2265.986 1265.409,2266.669 1263.916,2154.454 1484.759,2153.819 					"/>
					<polygon style="fill:#BDD0FB;" points="1733.346,2265.219 1512.933,2265.902 1511.678,2153.742 1732.301,2153.108 					"/>
				</g>
				<g>
					<polygon style="fill:#BDD0FB;" points="1241.217,2468.211 1020.746,2468.984 1019.021,2357.099 1239.702,2356.375 					"/>
					<polygon style="fill:#BDD0FB;" points="1488.342,2467.344 1268.089,2468.116 1266.601,2356.287 1487.064,2355.564 					"/>
					<polygon style="fill:#BDD0FB;" points="1735.222,2466.48 1515.188,2467.251 1513.936,2355.476 1734.18,2354.753 					"/>
				</g>
			</g>
		</g>
		<g>
			<path style="fill:#91B3FA;" d="M2239.127,985.765c-0.237-11.232-10.591-20.271-23.28-20.271h-769.674
				c-12.86,0-26.52,9.317-26.52,20.702v1590.418c0,8.498,5.438,16.648,12.234,22.649c6.797,6.001,16.82,9.361,26.42,9.339
				l778.104-1.881c9.682-0.022,19.15-3.487,25.923-9.613c6.773-6.128,10.586-14.427,10.404-22.998L2239.127,985.765z"/>
			<g>
				<polygon style="fill:#BDD0FB;" points="1797.113,1078.204 1545.335,1077.432 1545.429,1049.54 1796.925,1050.244 				"/>
				<polygon style="fill:#BDD0FB;" points="1797.804,1180.939 1544.99,1179.918 1545.085,1151.797 1797.614,1152.749 				"/>
				<polygon style="fill:#BDD0FB;" points="1798.5,1284.523 1544.642,1283.249 1544.738,1254.895 1798.308,1256.101 				"/>
				<polygon style="fill:#BDD0FB;" points="1799.201,1388.97 1544.291,1387.436 1544.388,1358.847 1799.009,1360.311 				"/>
				<polygon style="fill:#BDD0FB;" points="1799.908,1494.286 1543.937,1492.489 1544.035,1463.662 1799.715,1465.386 				"/>
				<polygon style="fill:#BDD0FB;" points="1801.341,1707.57 1543.222,1705.235 1543.32,1675.924 1801.145,1678.183 				"/>
				<polygon style="fill:#BDD0FB;" points="1803.537,2034.305 1542.125,2031.13 1542.226,2001.067 1803.335,2004.164 				"/>
				<polygon style="fill:#BDD0FB;" points="1800.622,1600.481 1543.581,1598.418 1543.679,1569.351 1800.427,1571.34 				"/>
				<polygon style="fill:#BDD0FB;" points="1802.067,1815.563 1542.859,1812.954 1542.958,1783.395 1801.869,1785.929 				"/>
				<polygon style="fill:#BDD0FB;" points="1802.799,1924.471 1542.493,1921.58 1542.593,1891.771 1802.598,1894.584 				"/>
				<polygon style="fill:#BDD0FB;" points="1804.281,2145.078 1541.752,2141.613 1541.854,2111.294 1804.077,2114.678 				"/>
				<polygon style="fill:#BDD0FB;" points="1805.032,2256.801 1541.377,2253.041 1541.48,2222.462 1804.826,2226.141 				"/>
				<polygon style="fill:#BDD0FB;" points="1805.789,2369.49 1540.999,2365.43 1541.103,2334.589 1805.581,2338.565 				"/>
				<polygon style="fill:#BDD0FB;" points="1806.553,2483.151 1540.618,2478.789 1540.722,2447.679 1806.343,2451.96 				"/>
				<polygon style="fill:#BDD0FB;" points="2127.213,1079.214 1873.855,1078.439 1873.582,1050.459 2126.654,1051.167 				"/>
				<polygon style="fill:#BDD0FB;" points="2129.269,1182.278 1874.862,1181.251 1874.586,1153.039 2128.705,1153.998 				"/>
				<polygon style="fill:#BDD0FB;" points="2131.341,1286.196 1875.877,1284.912 1875.599,1256.468 2130.772,1257.681 				"/>
				<polygon style="fill:#BDD0FB;" points="2133.43,1390.981 1876.901,1389.438 1876.62,1360.757 2132.857,1362.228 				"/>
				<polygon style="fill:#BDD0FB;" points="2135.537,1496.64 1877.934,1494.833 1877.65,1465.912 2134.959,1467.646 				"/>
				<polygon style="fill:#BDD0FB;" points="2139.804,1710.63 1880.024,1708.281 1879.736,1678.871 2139.216,1681.146 				"/>
				<polygon style="fill:#BDD0FB;" points="2146.342,2038.468 1883.226,2035.272 1882.93,2005.108 2145.738,2008.224 				"/>
				<polygon style="fill:#BDD0FB;" points="2137.662,1603.186 1878.974,1601.11 1878.689,1571.947 2137.079,1573.948 				"/>
				<polygon style="fill:#BDD0FB;" points="2141.965,1818.986 1881.081,1816.358 1880.792,1786.701 2141.373,1789.252 				"/>
				<polygon style="fill:#BDD0FB;" points="2144.144,1928.26 1882.149,1925.352 1881.856,1895.442 2143.546,1898.273 				"/>
				<polygon style="fill:#BDD0FB;" points="2148.558,2149.621 1884.311,2146.133 1884.013,2115.71 2147.95,2119.118 				"/>
				<polygon style="fill:#BDD0FB;" points="2150.794,2261.732 1885.406,2257.947 1885.106,2227.261 2150.18,2230.965 				"/>
				<polygon style="fill:#BDD0FB;" points="2153.048,2374.813 1886.51,2370.727 1886.208,2339.777 2152.429,2343.78 				"/>
				<polygon style="fill:#BDD0FB;" points="2155.323,2488.875 1887.625,2484.483 1887.318,2453.263 2154.698,2457.571 				"/>
			</g>
		</g>
		<path style="fill:#7D97F4;" d="M2809.353,3170.514H901.166c-245.102,0-443.797-198.695-443.797-443.798v-587.331H3253.15v587.331
			C3253.15,2971.819,3054.455,3170.514,2809.353,3170.514z"/>
		<g>
			
				<linearGradient id="SVGID_00000062168565817811609270000016237031571888227509_" gradientUnits="userSpaceOnUse" x1="1319.0736" y1="786.5738" x2="1308.9056" y2="1132.2791">
				<stop  offset="0" style="stop-color:#FF928E"/>
				<stop  offset="1" style="stop-color:#FE7062"/>
			</linearGradient>
			
				<circle style="fill:url(#SVGID_00000062168565817811609270000016237031571888227509_);" cx="1306.439" cy="1216.132" r="385.126"/>
			<g>
				<path style="fill:#FFFFFF;" d="M1454.316,1033.015l-38.606-54.992c-5.879-8.314-15.427-13.658-25.612-13.658h-74.885h-26.034
					h-74.888c-10.183,0-19.731,5.344-25.612,13.658l-38.603,54.792c-7.034,9.945-7.674,23.164-1.643,33.746l88.947,156.868
					c5.579,9.79,15.982,16.663,27.252,16.663h35.705h3.718h35.702c11.27,0,21.673-6.823,27.252-16.613l88.947-156.429
					C1461.989,1056.468,1461.349,1042.961,1454.316,1033.015z"/>
				<path style="fill:#FFFFFF;" d="M1385.785,1417.786l-6.337,0.322c-0.005,0.047-62.25,57.708-59.081,59.821
					c1.596,1.065,5.244,4.096,8.481,6.954c0.672,0.593,0.969,1.504,0.777,2.379c-0.194,0.875-0.846,1.577-1.705,1.833
					c-1.516,0.445-3.081,0.632-4.608,1.013c-6.114,1.565-12.411,1.852-18.542,1.875c-6.107-0.439-12.214-0.917-17.81-2.891
					c-2.912-0.639-5.469-2.111-8.17-3.126c-2.474-1.44-5.088-2.655-7.282-4.393l-3.322-2.532c-1.087-0.855-1.953-1.954-2.949-2.888
					c-2.093-1.785-3.497-4.183-5.19-6.273c-1.462-2.283-2.748-4.683-3.93-7.116c-0.781-2.563-2.315-5.21-2.563-7.548l-0.873-3.517
					l-0.241-0.89l-0.15-1.331l-0.307-2.662l-0.613-5.325l-0.037-0.333l-0.017-0.167l-0.01-0.083
					c-0.12-0.923,0.152,1.163,0.127,0.927l0.025-0.496l0.047-0.99l0.07-1.971l0.051-3.919l0.782-3.78
					c0.246-2.554,1.305-4.949,2.154-7.368c0.573-2.489,2.314-4.718,3.305-7.121c1.448-2.283,2.952-4.566,4.629-6.783
					c3.556-4.376,7.408-8.723,12.154-12.554c4.515-3.997,9.612-7.056,14.888-10.482c5.109-3.357,11.274-5.482,15.999-8.415h0.004
					l0.925-0.769c4.858-1.213,8.505-5.504,9.237-10.457l0.628-4.38l5.223-29.247c9.708-6.126,16.177-16.953,16.177-29.28
					c0-7.926-2.693-15.222-7.177-21.055l4.068-22.744l-57.382-0.02l4.17,16.888c-7.839,6.342-12.863,16.027-12.863,26.898
					c0,11.208,5.356,21.142,13.62,27.463l0.193,13.974c0.039,2.845-1.645,5.435-4.261,6.553c-2.272,0.971-4.517,1.98-6.817,3.311
					c-6.931,3.965-13.51,9.498-19.758,14.879c-6.313,5.233-11.997,11.63-17.22,18.48c-2.486,3.557-4.793,7.353-6.929,11.216
					c-1.761,4.166-4.063,8.004-5.176,12.498c-1.298,4.394-2.582,8.764-2.914,13.376l-0.748,6.817l0.253,6.785l0.173,3.382l0.1,1.687
					l0.052,0.842l0.145,1.093l0.016,0.082l0.035,0.164l0.068,0.328l1.1,5.245l0.548,2.623l0.276,1.311l0.503,1.679l2.182,6.746
					c1.343,4.67,3.661,8.188,5.546,12.232c2.252,3.784,4.762,7.498,7.518,10.931c3.012,3.272,5.824,6.707,9.373,9.368
					c1.722,1.372,3.343,2.88,5.162,4.085l5.55,3.469c3.691,2.288,7.738,3.856,11.647,5.541c4.067,1.23,8.047,2.801,12.198,3.404
					c8.198,1.898,16.518,1.958,24.642,1.527c8.086-0.928,16.06-2.417,23.548-5.26c1.873-0.702,3.77-1.32,5.598-2.102l5.38-2.588
					l2.671-1.301l0.886-0.455l0.281-0.181l0.562-0.364l1.127-0.727l4.507-2.907c3.109-2.311,6.875-5.254,9.656-8.068
					c2.77-2.921,5.537-5.805,7.759-9.089c4.798-6.301,8.22-13.364,10.93-20.467c2.769-7.109,4.573-14.435,5.78-21.77
					C1385.515,1432.22,1386.061,1425.37,1385.785,1417.786z"/>
			</g>
		</g>
		<g>
			<g>
				
					<linearGradient id="SVGID_00000075164688770170810590000010524678047511106436_" gradientUnits="userSpaceOnUse" x1="-3840.9333" y1="2388.8074" x2="-3728.2544" y2="2411.7913" gradientTransform="matrix(0.9997 0.0258 -0.0258 0.9997 4816.9487 59.7606)">
					<stop  offset="0" style="stop-color:#2B3582"/>
					<stop  offset="1" style="stop-color:#150E42"/>
				</linearGradient>
				<path style="fill:url(#SVGID_00000075164688770170810590000010524678047511106436_);" d="M1033.556,2348.807l-98.285-26.619
					c0,0-23.246,6.729-19.82,41.299c3.427,34.569,101.445,28.26,101.445,28.26L1033.556,2348.807z"/>
				
					<linearGradient id="SVGID_00000183951778456255739550000012647320824235197116_" gradientUnits="userSpaceOnUse" x1="1884.3201" y1="1972.2743" x2="1947.5861" y2="1646.905">
					<stop  offset="0" style="stop-color:#4F52FF"/>
					<stop  offset="1" style="stop-color:#4042E2"/>
				</linearGradient>
				<path style="fill:url(#SVGID_00000183951778456255739550000012647320824235197116_);" d="M1907.16,1968.455
					c187.497,46.881,297.503,172.21,351.745,184.883c54.242,12.671,271.53,24.264,306.962,57.182
					c35.431,32.918,1.583,56.312,47.138,98.636c50.401,142.217-105.647,184.769-105.647,184.769l-1418.514-11.523
					c0,0-95.724,8.607-97.844-59.758c-2.121-68.365,21.136-102.898,26.164-164.464c5.028-61.566,5.139-64.666,18.849-96.592
					c13.71-31.926,146.878-35.393,172.795-70.902c25.916-35.509,56.771-92.141,166.728-111.448
					C1527.41,1952.57,1798.403,1941.26,1907.16,1968.455z"/>
				
					<linearGradient id="SVGID_00000163064549659254141720000010222205241734178177_" gradientUnits="userSpaceOnUse" x1="1373.1226" y1="1936.3973" x2="1269.1854" y2="2101.3413">
					<stop  offset="0" style="stop-color:#4F52FF"/>
					<stop  offset="1" style="stop-color:#4042E2"/>
				</linearGradient>
				<path style="fill:url(#SVGID_00000163064549659254141720000010222205241734178177_);" d="M983.399,2418.593
					c2.439,78.58,135.668,64.656,136.248,64.604c0,0,105.92-81.082-39.792-77.97c-43.787-1.13-88.181-24.325-88.181-24.325
					L983.399,2418.593z"/>
				
					<linearGradient id="SVGID_00000155123233312341436540000009984861972055227533_" gradientUnits="userSpaceOnUse" x1="2501.6687" y1="1825.5369" x2="2501.6687" y2="2121.5327">
					<stop  offset="0" style="stop-color:#4F52FF"/>
					<stop  offset="1" style="stop-color:#4042E2"/>
				</linearGradient>
				<path style="fill:url(#SVGID_00000155123233312341436540000009984861972055227533_);" d="M2621.642,2344.279
					c0,0,1.393,20.042-36.156,40.513c-46.541,25.375-208.144-2.522-208.144-2.522l-18.441,103.987l152.309,7.767
					C2507.649,2494.994,2711.218,2483.264,2621.642,2344.279z"/>
				
					<linearGradient id="SVGID_00000055666623666036975810000011066221225735613061_" gradientUnits="userSpaceOnUse" x1="-3159.0642" y1="1166.3292" x2="-3459.4275" y2="1859.4749" gradientTransform="matrix(0.9989 -0.0367 0.0367 0.9993 4737.2397 412.8723)">
					<stop  offset="0" style="stop-color:#09005D"/>
					<stop  offset="1" style="stop-color:#1A0F91"/>
				</linearGradient>
				<path style="fill:url(#SVGID_00000055666623666036975810000011066221225735613061_);" d="M1232.824,2193.604
					c0,0-4.57-35.683,32.914-79.431c37.484-43.747,59.365-72.601,88.191-80.031c28.825-7.429,239.806-36.62,253.663-14.167
					c13.856,22.453,31.706,160.312,31.706,160.312L1232.824,2193.604z"/>
				<g style="opacity:0.23;">
					<path style="fill:#7D97F4;" d="M1357.755,2030.369c23.635-3.521,203.092-24.385,249.428-18.432l11.99,46.127l-386.53,135.52
						c0,0-1.844-29.367,17.465-58.321C1282.55,2086.617,1333.044,2033.479,1357.755,2030.369z"/>
				</g>
				
					<linearGradient id="SVGID_00000057852192568055934770000006518272722371903904_" gradientUnits="userSpaceOnUse" x1="-2777.8762" y1="1330.9479" x2="-3078.3171" y2="2024.2726" gradientTransform="matrix(0.9993 -0.0367 0.0367 0.9993 4737.7969 412.9544)">
					<stop  offset="0" style="stop-color:#09005D"/>
					<stop  offset="1" style="stop-color:#1A0F91"/>
				</linearGradient>
				<path style="fill:url(#SVGID_00000057852192568055934770000006518272722371903904_);" d="M1670.7,2019.945
					c5.844,26.641,27.374,156.525,27.374,156.525l456.205-2.109c0,0-143.808-132.151-254.357-153.068
					C1789.374,2000.377,1666.965,2005.862,1670.7,2019.945z"/>
				
					<linearGradient id="SVGID_00000140000407273459302810000007197091854612822656_" gradientUnits="userSpaceOnUse" x1="-1645.2118" y1="-2036.667" x2="-1433.6543" y2="-2594.1028" gradientTransform="matrix(0.9993 -0.0367 0.0367 0.9993 4737.7969 412.9544)">
					<stop  offset="0" style="stop-color:#4F52FF"/>
					<stop  offset="1" style="stop-color:#4042E2"/>
				</linearGradient>
				<path style="fill:url(#SVGID_00000140000407273459302810000007197091854612822656_);" d="M1884.325,2011.487
					c-90.05-12.499-123.065-10.127-217.458-1.861l9.09,37.755c0,0,140.487-27.552,271.387-11.622
					C1947.345,2035.76,1913.721,2015.567,1884.325,2011.487z"/>
				
					<linearGradient id="SVGID_00000075853329800062753010000013348437066802959537_" gradientUnits="userSpaceOnUse" x1="2755.9285" y1="1923.4253" x2="3024.572" y2="1493.5959">
					<stop  offset="0" style="stop-color:#DAE3FE"/>
					<stop  offset="1" style="stop-color:#E9EFFD"/>
				</linearGradient>
				<path style="fill:url(#SVGID_00000075853329800062753010000013348437066802959537_);" d="M2555.352,2203.723
					c0,0-73.914-23.697-91.944,34.737c-17.188,55.704,149.597,70.696,149.597,70.696S2600.708,2226.519,2555.352,2203.723z"/>
				<path style="fill:#BDD0FB;" d="M1207.577,2130.472c0.411,0,0.826-0.059,1.241-0.184c17.356-5.243,31.975-23.526,48.904-44.696
					c24.72-30.915,52.743-65.958,98.436-74.676c87.635-16.727,220.469-28.316,221.802-28.433c2.364-0.206,4.112-2.285,3.906-4.644
					c-0.201-2.364-2.2-4.132-4.644-3.906c-1.337,0.113-134.615,11.744-222.673,28.551c-48.807,9.317-79.152,47.26-103.533,77.748
					c-16.032,20.051-29.88,37.365-44.679,41.842c-2.272,0.683-3.554,3.08-2.867,5.348
					C1204.031,2129.278,1205.733,2130.472,1207.577,2130.472z"/>
				<path style="fill:#BDD0FB;" d="M1071.738,2179.124c1.58,0,3.102-0.876,3.848-2.385c7.201-14.515,39.075-21.095,69.898-27.457
					c11.027-2.276,22.427-4.627,32.91-7.373c2.297-0.604,3.667-2.946,3.068-5.239c-0.603-2.297-2.946-3.642-5.239-3.068
					c-10.269,2.691-21.556,5.021-32.474,7.272c-34.352,7.092-66.796,13.789-75.849,32.051c-1.056,2.125-0.189,4.698,1.936,5.75
					C1070.447,2178.982,1071.097,2179.124,1071.738,2179.124z"/>
				<g>
					
						<linearGradient id="SVGID_00000164505411982166933710000009352085688333053833_" gradientUnits="userSpaceOnUse" x1="-3498.4734" y1="2549.5759" x2="-3142.5586" y2="2260.0005" gradientTransform="matrix(0.9997 0.0258 -0.0258 0.9997 4816.9487 59.7606)">
						<stop  offset="0" style="stop-color:#09005D"/>
						<stop  offset="1" style="stop-color:#1A0F91"/>
					</linearGradient>
					
						<circle style="fill:url(#SVGID_00000164505411982166933710000009352085688333053833_);" cx="1306.439" cy="2477.653" r="136.633"/>
					
						<linearGradient id="SVGID_00000008837254234118923590000010792179519302647208_" gradientUnits="userSpaceOnUse" x1="-3535.53" y1="2506.0605" x2="-3361.1912" y2="2506.0605" gradientTransform="matrix(0.9997 0.0258 -0.0258 0.9997 4816.9487 59.7606)">
						<stop  offset="0" style="stop-color:#4F52FF"/>
						<stop  offset="1" style="stop-color:#4042E2"/>
					</linearGradient>
					<path style="opacity:0.57;fill:url(#SVGID_00000008837254234118923590000010792179519302647208_);" d="M1392.109,2478.352
						c-1.243,48.128-41.267,86.135-89.395,84.892c-48.128-1.243-86.136-41.267-84.892-89.395
						c1.243-48.128,41.266-86.135,89.394-84.891C1355.345,2390.201,1393.353,2430.225,1392.109,2478.352z"/>
				</g>
				<g>
					
						<linearGradient id="SVGID_00000018205570221266658290000010094842664102027675_" gradientUnits="userSpaceOnUse" x1="-2524.1304" y1="2516.0027" x2="-2168.2158" y2="2226.4275" gradientTransform="matrix(0.9997 0.0258 -0.0258 0.9997 4816.9487 59.7606)">
						<stop  offset="0" style="stop-color:#09005D"/>
						<stop  offset="1" style="stop-color:#1A0F91"/>
					</linearGradient>
					
						<circle style="fill:url(#SVGID_00000018205570221266658290000010094842664102027675_);" cx="2281.356" cy="2469.228" r="136.633"/>
					
						<linearGradient id="SVGID_00000145763572022492664300000015870880370541293234_" gradientUnits="userSpaceOnUse" x1="-2561.1877" y1="2472.4871" x2="-2386.8479" y2="2472.4871" gradientTransform="matrix(0.9997 0.0258 -0.0258 0.9997 4816.9487 59.7606)">
						<stop  offset="0" style="stop-color:#4F52FF"/>
						<stop  offset="1" style="stop-color:#4042E2"/>
					</linearGradient>
					<path style="opacity:0.57;fill:url(#SVGID_00000145763572022492664300000015870880370541293234_);" d="M2367.027,2469.927
						c-1.243,48.128-41.267,86.135-89.395,84.892c-48.128-1.243-86.136-41.266-84.893-89.395
						c1.244-48.127,41.267-86.135,89.395-84.891C2330.262,2381.776,2368.27,2421.8,2367.027,2469.927z"/>
				</g>
				<g>
					<path style="fill:#BDD0FB;" d="M1698.544,2471.534c0.142,0,0.283,0,0.424,0c2.492,0,4.487-0.976,4.455-3.469
						c-0.024-1.807-1.107-2.8-2.651-3.5c-8.88-14.292-20.406-168.488-25.649-263.723c-0.137-2.49-2.265-4.271-4.754-4.119
						c-2.489,0.136-4.395,2.334-4.258,4.824c0.037,0.67,3.754,66.761,9.078,133.039
						C1686.024,2469.486,1692.702,2471.534,1698.544,2471.534z"/>
				</g>
				
					<linearGradient id="SVGID_00000176735597801288199250000000975932309341985444_" gradientUnits="userSpaceOnUse" x1="2367.7986" y1="1963.0531" x2="2252.5635" y2="2064.7312">
					<stop  offset="0" style="stop-color:#4F52FF"/>
					<stop  offset="1" style="stop-color:#4042E2"/>
				</linearGradient>
				<path style="fill:url(#SVGID_00000176735597801288199250000000975932309341985444_);" d="M2127.058,2240.394
					c0-16.477-13.357-29.833-29.833-29.833h-92.85c-16.477,0-29.833,13.357-29.833,29.833v4.729
					c0,16.477,13.357,29.833,29.833,29.833h92.85c16.477,0,29.833-13.357,29.833-29.833V2240.394z"/>
			</g>
		</g>
		<g>
			
				<linearGradient id="SVGID_00000142892189121327718080000001354037278222006675_" gradientUnits="userSpaceOnUse" x1="3185.5659" y1="2112.1851" x2="2655.1565" y2="2387.6895">
				<stop  offset="0" style="stop-color:#FF928E"/>
				<stop  offset="1" style="stop-color:#FE7062"/>
			</linearGradient>
			<path style="fill:url(#SVGID_00000142892189121327718080000001354037278222006675_);" d="M2774.862,1976.15h33.699
				c5.853,0,10.644,4.636,10.816,10.464l19.338,655.094l-88.414-2.447L2774.862,1976.15z"/>
			
				<linearGradient id="SVGID_00000124862748273081646410000003123089112313899450_" gradientUnits="userSpaceOnUse" x1="2564.6675" y1="688.6223" x2="2585.002" y2="1044.4771">
				<stop  offset="0" style="stop-color:#FF928E"/>
				<stop  offset="1" style="stop-color:#FE7062"/>
			</linearGradient>
			<path style="fill:url(#SVGID_00000124862748273081646410000003123089112313899450_);" d="M2539.092,2631.92l129.918-642.411
				c1.572-7.771,8.424-13.359,16.38-13.359h89.471l22.04,656.891L2539.092,2631.92z"/>
			
				<linearGradient id="SVGID_00000168804313538593703110000014781141136340843453_" gradientUnits="userSpaceOnUse" x1="1909.0732" y1="2883.5208" x2="1922.505" y2="2205.1987">
				<stop  offset="0" style="stop-color:#FF928E"/>
				<stop  offset="1" style="stop-color:#FE7062"/>
			</linearGradient>
			<path style="fill:url(#SVGID_00000168804313538593703110000014781141136340843453_);" d="M2796.902,2735.141h-1753.32
				c-8.114,0-14.691-6.577-14.691-14.691v-74.598c0-8.451,6.851-15.302,15.302-15.302h1752.709V2735.141z"/>
			
				<linearGradient id="SVGID_00000027585500050695536430000006084700358043855006_" gradientUnits="userSpaceOnUse" x1="3107.5029" y1="2239.373" x2="2603.822" y2="3004.9683">
				<stop  offset="0" style="stop-color:#FF928E"/>
				<stop  offset="1" style="stop-color:#FE7062"/>
			</linearGradient>
			<path style="fill:url(#SVGID_00000027585500050695536430000006084700358043855006_);" d="M3214.633,2333.056l-82.481-300.534
				c-2.067-7.629-8.028-8.932-14.743-8.932h-304.313c-16.432,0-29.752,13.847-29.752,30.928v679.472h450.822L3214.633,2333.056z"/>
			
				<linearGradient id="SVGID_00000103972706766274176450000017232137449186655893_" gradientUnits="userSpaceOnUse" x1="3147.2256" y1="2533.1604" x2="3127.0779" y2="3263.4988">
				<stop  offset="0" style="stop-color:#FF928E"/>
				<stop  offset="1" style="stop-color:#FE7062"/>
			</linearGradient>
			<path style="fill:url(#SVGID_00000103972706766274176450000017232137449186655893_);" d="M3244.22,2592.601
				c-2.522-4.372-6.6-6.737-10.116-6.56l-174.973,8.865c-12.297,0.623-21.976,10.727-22.069,23.039l-0.954,125.186l198.09,12.707
				c7.191,0,15.31-9.146,15.31-21.967v-124.626C3249.507,2602.976,3246.742,2596.971,3244.22,2592.601z"/>
			<g>
				
					<linearGradient id="SVGID_00000057868823131542689540000017210254073862469566_" gradientUnits="userSpaceOnUse" x1="8504.0977" y1="2226.5779" x2="8884.1885" y2="2236.1484" gradientTransform="matrix(1 0 0 1 -5548.4229 0)">
					<stop  offset="0" style="stop-color:#09005D"/>
					<stop  offset="1" style="stop-color:#1A0F91"/>
				</linearGradient>
				<path style="fill:url(#SVGID_00000057868823131542689540000017210254073862469566_);" d="M3150.245,2346.591l-49.855-241.017
					c-1.74-8.397-7.927-14.761-15.019-14.761h-194.984c-4.188,0-8.198,2.553-11.116,6.223c-2.917,3.671-4.494,8.869-4.37,13.982
					l4.676,193.263c0.219,9.071,5.68,16.735,13.015,18.182l240.165,47.422c5.15,1.016,10.372-1.186,13.896-5.885
					C3150.175,2359.302,3151.526,2352.768,3150.245,2346.591z"/>
				
					<linearGradient id="SVGID_00000000190258857624436850000017733024606848066441_" gradientUnits="userSpaceOnUse" x1="8787.1895" y1="2105.1055" x2="8929.877" y2="2108.6982" gradientTransform="matrix(0.9983 0.058 -0.058 0.9983 -5497.3374 -383.7952)">
					<stop  offset="0" style="stop-color:#09005D"/>
					<stop  offset="1" style="stop-color:#1A0F91"/>
				</linearGradient>
				<path style="fill:url(#SVGID_00000000190258857624436850000017733024606848066441_);" d="M3150.223,2086.027l-2.915,0.336
					c-4.944,0.569-9.437,3.357-12.368,7.677c-2.931,4.318-4.029,9.765-3.021,14.995l48.215,250.236
					c1.574,8.166,19.034,13.362,29.93,14.026c2.9,0.177,5.389-2.038,5.631-4.933l1.786-21.439c0.177-2.121-0.009-4.257-0.548-6.316
					L3150.223,2086.027z"/>
			</g>
			
				<linearGradient id="SVGID_00000078033220406830765880000004568620317675952056_" gradientUnits="userSpaceOnUse" x1="8637.7031" y1="2303.4897" x2="8394.8125" y2="2428.853" gradientTransform="matrix(1 0 0 1 -5548.4229 0)">
				<stop  offset="0" style="stop-color:#E1473D"/>
				<stop  offset="1" style="stop-color:#E9605A"/>
			</linearGradient>
			<path style="fill:url(#SVGID_00000078033220406830765880000004568620317675952056_);" d="M2889.674,2382.026
				c0-7.767,6.296-14.063,14.063-14.063h61.834c7.767,0,14.063,6.296,14.063,14.063v2.542c0,7.767-6.296,14.063-14.063,14.063
				h-61.834c-7.767,0-14.063-6.296-14.063-14.063V2382.026z"/>
			<path style="opacity:0.7;fill:#FFFFFF;" d="M2807.878,2539.055c-1.873,0-3.389-1.517-3.389-3.389v-361.888
				c0-1.872,1.516-3.389,3.389-3.389c1.874,0,3.389,1.518,3.389,3.389v361.888
				C2811.267,2537.538,2809.751,2539.055,2807.878,2539.055z"/>
			<g>
				
					<linearGradient id="SVGID_00000137126239074877939000000014804938780010688932_" gradientUnits="userSpaceOnUse" x1="8693.1904" y1="2781.6082" x2="8740.1934" y2="2669.2595" gradientTransform="matrix(1 0 0 1 -5548.4229 0)">
					<stop  offset="0" style="stop-color:#E1473D"/>
					<stop  offset="1" style="stop-color:#E9605A"/>
				</linearGradient>
				<path style="fill:url(#SVGID_00000137126239074877939000000014804938780010688932_);" d="M3158.306,2637.944
					c0-8.566,6.944-15.51,15.51-15.51h42.585c8.566,0,15.51,6.944,15.51,15.51v46.675c0,8.566-6.944,15.51-15.51,15.51h-42.585
					c-8.566,0-15.51-6.944-15.51-15.51V2637.944z"/>
				<path style="opacity:0.8;fill:#FFFFFF;" d="M3186.93,2615.062v89.961h-11.042c-8.556,0-23.716-9.104-23.716-17.66v-51.022
					c0-8.556,15.16-21.279,23.716-21.279H3186.93z"/>
			</g>
			
				<linearGradient id="SVGID_00000138566488406054260490000018308767879796772501_" gradientUnits="userSpaceOnUse" x1="1768.71" y1="734.0951" x2="1789.0447" y2="1089.9518">
				<stop  offset="0" style="stop-color:#E1473D"/>
				<stop  offset="1" style="stop-color:#E9605A"/>
			</linearGradient>
			<polygon style="fill:url(#SVGID_00000138566488406054260490000018308767879796772501_);" points="2784.31,2640.056 
				969.832,2640.056 967.609,2619.908 1076.566,2599.76 2784.31,2601.998 			"/>
			<g>
				<g>
					
						<linearGradient id="SVGID_00000096049391977479913650000014714883881334685356_" gradientUnits="userSpaceOnUse" x1="8381.6709" y1="2750.4355" x2="8679.3525" y2="2750.4355" gradientTransform="matrix(1 0 0 1 -5548.4229 0)">
						<stop  offset="0" style="stop-color:#09005D"/>
						<stop  offset="1" style="stop-color:#1A0F91"/>
					</linearGradient>
					
						<circle style="fill:url(#SVGID_00000096049391977479913650000014714883881334685356_);" cx="2982.089" cy="2750.436" r="148.841"/>
					
						<linearGradient id="SVGID_00000047745349912911497600000000571138831954572699_" gradientUnits="userSpaceOnUse" x1="2952.4446" y1="2406.5647" x2="3002.8127" y2="2990.835">
						<stop  offset="0" style="stop-color:#E1473D"/>
						<stop  offset="1" style="stop-color:#E9605A"/>
					</linearGradient>
					
						<circle style="fill:url(#SVGID_00000047745349912911497600000000571138831954572699_);" cx="2982.089" cy="2750.436" r="120.875"/>
					<path style="opacity:0.7;fill:#FFFFFF;" d="M3083.62,2795.484c-0.44,0-0.89-0.088-1.321-0.27
						c-1.724-0.728-2.529-2.717-1.801-4.442c5.402-12.776,8.142-26.346,8.142-40.337c0-57.143-46.49-103.631-103.631-103.631
						c-17.728,0-35.22,4.551-50.584,13.163c-1.645,0.915-3.704,0.328-4.614-1.301c-0.917-1.632-0.334-3.699,1.297-4.614
						c16.377-9.177,35.015-14.027,53.901-14.027c60.881,0,110.409,49.53,110.409,110.409c0,14.903-2.919,29.362-8.678,42.978
						C3086.195,2794.706,3084.94,2795.482,3083.62,2795.484z"/>
				</g>
				
					<linearGradient id="SVGID_00000119838015278715290960000018019714971476611764_" gradientUnits="userSpaceOnUse" x1="8585.1406" y1="2660.929" x2="8433.8379" y2="2908.8313" gradientTransform="matrix(1 0 0 1 -5548.4229 0)">
					<stop  offset="0" style="stop-color:#09005D"/>
					<stop  offset="1" style="stop-color:#1A0F91"/>
				</linearGradient>
				
					<circle style="fill:url(#SVGID_00000119838015278715290960000018019714971476611764_);" cx="2982.089" cy="2750.436" r="55.434"/>
			</g>
			<g>
				<g>
					
						<linearGradient id="SVGID_00000088125097529177992450000004256591331728364161_" gradientUnits="userSpaceOnUse" x1="6965.7329" y1="2754.5879" x2="7263.4141" y2="2754.5879" gradientTransform="matrix(1 0 0 1 -5548.4229 0)">
						<stop  offset="0" style="stop-color:#09005D"/>
						<stop  offset="1" style="stop-color:#1A0F91"/>
					</linearGradient>
					
						<circle style="fill:url(#SVGID_00000088125097529177992450000004256591331728364161_);" cx="1566.151" cy="2754.588" r="148.841"/>
					
						<linearGradient id="SVGID_00000125562289788499729650000002787432795786953895_" gradientUnits="userSpaceOnUse" x1="1546.5964" y1="2527.7585" x2="1596.9645" y2="3112.0291">
						<stop  offset="0" style="stop-color:#E1473D"/>
						<stop  offset="1" style="stop-color:#E9605A"/>
					</linearGradient>
					
						<circle style="fill:url(#SVGID_00000125562289788499729650000002787432795786953895_);" cx="1566.151" cy="2754.588" r="120.875"/>
					<path style="opacity:0.7;fill:#FFFFFF;" d="M1667.682,2799.636c-0.44,0-0.89-0.088-1.321-0.27
						c-1.724-0.728-2.529-2.718-1.801-4.442c5.402-12.776,8.142-26.346,8.142-40.337c0-57.142-46.49-103.631-103.631-103.631
						c-17.728,0-35.22,4.553-50.584,13.165c-1.645,0.914-3.704,0.331-4.614-1.301c-0.917-1.632-0.334-3.697,1.297-4.614
						c16.377-9.178,35.015-14.029,53.901-14.029c60.881,0,110.409,49.53,110.409,110.409c0,14.903-2.919,29.362-8.678,42.978
						C1670.257,2798.858,1669.002,2799.635,1667.682,2799.636z"/>
				</g>
				
					<linearGradient id="SVGID_00000109733285974159003470000003865446362209060500_" gradientUnits="userSpaceOnUse" x1="7169.2021" y1="2665.0811" x2="7017.9004" y2="2912.9836" gradientTransform="matrix(1 0 0 1 -5548.4229 0)">
					<stop  offset="0" style="stop-color:#09005D"/>
					<stop  offset="1" style="stop-color:#1A0F91"/>
				</linearGradient>
				
					<circle style="fill:url(#SVGID_00000109733285974159003470000003865446362209060500_);" cx="1566.151" cy="2754.588" r="55.434"/>
			</g>
			<g>
				<g>
					
						<linearGradient id="SVGID_00000008850992560256171550000015687715918806359424_" gradientUnits="userSpaceOnUse" x1="7804.5" y1="2754.5879" x2="8102.1812" y2="2754.5879" gradientTransform="matrix(1 0 0 1 -5548.4229 0)">
						<stop  offset="0" style="stop-color:#09005D"/>
						<stop  offset="1" style="stop-color:#1A0F91"/>
					</linearGradient>
					
						<circle style="fill:url(#SVGID_00000008850992560256171550000015687715918806359424_);" cx="2404.918" cy="2754.588" r="148.841"/>
					
						<linearGradient id="SVGID_00000017484671945764434840000008840480364663736224_" gradientUnits="userSpaceOnUse" x1="2379.1758" y1="2455.9846" x2="2429.5439" y2="3040.2549">
						<stop  offset="0" style="stop-color:#E1473D"/>
						<stop  offset="1" style="stop-color:#E9605A"/>
					</linearGradient>
					
						<circle style="fill:url(#SVGID_00000017484671945764434840000008840480364663736224_);" cx="2404.917" cy="2754.588" r="120.875"/>
					<path style="opacity:0.7;fill:#FFFFFF;" d="M2506.448,2799.636c-0.44,0-0.89-0.088-1.321-0.27
						c-1.724-0.728-2.529-2.718-1.801-4.442c5.402-12.776,8.142-26.346,8.142-40.337c0-57.142-46.49-103.631-103.631-103.631
						c-17.728,0-35.22,4.553-50.584,13.165c-1.645,0.914-3.704,0.331-4.614-1.301c-0.917-1.632-0.334-3.697,1.297-4.614
						c16.377-9.178,35.015-14.029,53.901-14.029c60.881,0,110.409,49.53,110.409,110.409c0,14.903-2.919,29.362-8.678,42.978
						C2509.023,2798.858,2507.769,2799.635,2506.448,2799.636z"/>
				</g>
				
					<linearGradient id="SVGID_00000054227670144404676620000010464393737112128927_" gradientUnits="userSpaceOnUse" x1="8007.9688" y1="2665.0811" x2="7856.667" y2="2912.9836" gradientTransform="matrix(1 0 0 1 -5548.4229 0)">
					<stop  offset="0" style="stop-color:#09005D"/>
					<stop  offset="1" style="stop-color:#1A0F91"/>
				</linearGradient>
				
					<circle style="fill:url(#SVGID_00000054227670144404676620000010464393737112128927_);" cx="2404.918" cy="2754.588" r="55.434"/>
			</g>
			<g>
				<g>
					
						<linearGradient id="SVGID_00000128464972760478893680000003484865704632075922_" gradientUnits="userSpaceOnUse" x1="6625.2437" y1="2754.5879" x2="6922.9248" y2="2754.5879" gradientTransform="matrix(1 0 0 1 -5548.4229 0)">
						<stop  offset="0" style="stop-color:#09005D"/>
						<stop  offset="1" style="stop-color:#1A0F91"/>
					</linearGradient>
					
						<circle style="fill:url(#SVGID_00000128464972760478893680000003484865704632075922_);" cx="1225.661" cy="2754.588" r="148.841"/>
					
						<linearGradient id="SVGID_00000026131872664635236140000017595899379746057365_" gradientUnits="userSpaceOnUse" x1="1208.6187" y1="2556.8945" x2="1258.9867" y2="3141.1648">
						<stop  offset="0" style="stop-color:#E1473D"/>
						<stop  offset="1" style="stop-color:#E9605A"/>
					</linearGradient>
					
						<circle style="fill:url(#SVGID_00000026131872664635236140000017595899379746057365_);" cx="1225.661" cy="2754.588" r="120.875"/>
					<path style="opacity:0.7;fill:#FFFFFF;" d="M1327.193,2799.636c-0.44,0-0.89-0.088-1.321-0.27
						c-1.724-0.728-2.529-2.718-1.801-4.442c5.402-12.776,8.142-26.346,8.142-40.337c0-57.142-46.49-103.631-103.631-103.631
						c-17.728,0-35.22,4.553-50.587,13.165c-1.642,0.914-3.704,0.331-4.614-1.301c-0.917-1.633-0.334-3.699,1.297-4.614
						c16.38-9.178,35.018-14.029,53.904-14.029c60.881,0,110.409,49.53,110.409,110.409c0,14.903-2.919,29.362-8.678,42.978
						C1329.768,2798.858,1328.514,2799.635,1327.193,2799.636z"/>
				</g>
				
					<linearGradient id="SVGID_00000031185844573861460080000005922909746346305466_" gradientUnits="userSpaceOnUse" x1="6828.7129" y1="2665.0811" x2="6677.4106" y2="2912.9836" gradientTransform="matrix(1 0 0 1 -5548.4229 0)">
					<stop  offset="0" style="stop-color:#09005D"/>
					<stop  offset="1" style="stop-color:#1A0F91"/>
				</linearGradient>
				
					<circle style="fill:url(#SVGID_00000031185844573861460080000005922909746346305466_);" cx="1225.661" cy="2754.588" r="55.434"/>
			</g>
		</g>
		<g>
			
				<linearGradient id="SVGID_00000103985171895966366400000010563965514485031054_" gradientUnits="userSpaceOnUse" x1="2290.4731" y1="1352.7153" x2="2421.2874" y2="1678.4169" gradientTransform="matrix(-1 0 0 1 3269.0122 0)">
				<stop  offset="0" style="stop-color:#09005D"/>
				<stop  offset="1" style="stop-color:#1A0F91"/>
			</linearGradient>
			<path style="fill:url(#SVGID_00000103985171895966366400000010563965514485031054_);" d="M495.173,2112.705
				c19.984-33.294,25.162-63.157,19.255-101.769c-9.751-63.737-2.154-134.72,38.462-187.17
				c38.529-49.758,107.88-54.201,150.2-98.597c0.293-0.307,1.27-1.755,2.687-3.987c10.693-16.844,16.559-36.002,17.219-55.944
				c4.134-124.924,95.006-123.466,138.121-99.765c68.261,37.525,53.276,107.551,53.276,107.551
				c-19.045,20.364-87.069-23.04-87.069-23.04l-28.274,45.39c8.015,3.485,16.625,7.423,25.995,12.017
				c64.065,31.412,70.924,276.825,34.845,316.078c-36.079,39.253-42.426,76.721-6.031,140.949
				c36.395,64.228,15.348,148.094-178.298,217.679c-31.364,11.27-78.583,12.484-109.564-0.083
				c-67.952-27.564-105.328-108.375-107.167-178.004C457.896,2168.672,477.856,2141.555,495.173,2112.705z"/>
			<path style="fill:#FFFFFF;" d="M545.368,2032.479c-0.434,0-0.804-0.331-0.844-0.771c-7.967-88.766,19.187-147.221,43.365-180.629
				c30.404-42.005,65.932-60.24,82.13-64.393c35.71-9.155,52.371-51.192,52.534-51.615c0.172-0.437,0.665-0.655,1.096-0.483
				c0.437,0.169,0.655,0.659,0.487,1.095c-0.169,0.432-17.151,43.276-53.692,52.645c-20.723,5.311-54.963,27.525-81.18,63.746
				c-24.01,33.173-50.971,91.239-43.051,179.482c0.043,0.467-0.301,0.879-0.768,0.92
				C545.418,2032.478,545.391,2032.479,545.368,2032.479z"/>
			<path style="fill:#FFFFFF;" d="M576.974,2344.167c-0.103,0-0.205-0.018-0.308-0.058c-0.774-0.301-77.635-31.112-76.305-116.359
				c0.007-0.463,0.384-0.834,0.847-0.834c0.003,0,0.01,0,0.013,0c0.467,0.007,0.841,0.392,0.834,0.86
				c-1.314,84.045,74.458,114.456,75.226,114.753c0.434,0.169,0.652,0.66,0.483,1.096
				C577.633,2343.962,577.312,2344.167,576.974,2344.167z"/>
			
				<linearGradient id="SVGID_00000134220421328788039360000010328152532437329562_" gradientUnits="userSpaceOnUse" x1="796.2547" y1="1926.0945" x2="721.6311" y2="2202.2019" gradientTransform="matrix(1 0 0 1 204.5823 0)">
				<stop  offset="0" style="stop-color:#FEBBBA"/>
				<stop  offset="1" style="stop-color:#FF928E"/>
			</linearGradient>
			<path style="fill:url(#SVGID_00000134220421328788039360000010328152532437329562_);" d="M1046.77,2031.23
				c0,0-83.852,100.422-168.289,18.869l-32.623,75.654c0,0,123.304,95.476,216.832-54.745L1046.77,2031.23z"/>
			
				<linearGradient id="SVGID_00000139988081041123492500000008396016970956778174_" gradientUnits="userSpaceOnUse" x1="1463.3151" y1="1197.2356" x2="1326.0568" y2="1370.0795">
				<stop  offset="0" style="stop-color:#FF928E"/>
				<stop  offset="1" style="stop-color:#FE7062"/>
			</linearGradient>
			<path style="fill:url(#SVGID_00000139988081041123492500000008396016970956778174_);" d="M839.668,1844.804
				c-23.276-6.978-91.049-19.862-155.514,39.628c-10.933,10.09-15.401,25.42-11.502,39.778
				c17.315,63.745,62.998,252.074,22.942,333.562c0,0,70.589,77.814,147.598,15.098c0,0,34.552-150.59,79.808-216.7
				c31.245-45.641-49.823-171.389-70.332-201.769C849.561,1849.801,844.984,1846.398,839.668,1844.804z"/>
			
				<linearGradient id="SVGID_00000132060570835318078500000009752643539019303836_" gradientUnits="userSpaceOnUse" x1="-5658.2075" y1="2962.9604" x2="-5639.5776" y2="2830.6904" gradientTransform="matrix(-0.9887 0.1503 0.1503 0.9887 -5206.5879 -161.5951)">
				<stop  offset="0" style="stop-color:#FEBBBA"/>
				<stop  offset="1" style="stop-color:#FF928E"/>
			</linearGradient>
			<path style="fill:url(#SVGID_00000132060570835318078500000009752643539019303836_);" d="M803.612,1723.288
				c0,0-46.97,91.979-55.205,134.218c0,0,35.431,22.168,74.82-2.046c0,0,16.56-95.911,24.246-112.457L803.612,1723.288z"/>
			
				<linearGradient id="SVGID_00000043447461498023027970000017061020768228561793_" gradientUnits="userSpaceOnUse" x1="1194.3528" y1="3401.3071" x2="1048.6145" y2="3218.2871">
				<stop  offset="0" style="stop-color:#FEBBBA"/>
				<stop  offset="1" style="stop-color:#FF928E"/>
			</linearGradient>
			<path style="fill:url(#SVGID_00000043447461498023027970000017061020768228561793_);" d="M933.091,2589.048
				c-0.264,6.836,11.739,61.063,18.271,89.987c2.63,11.638,0.799,23.818-5.127,34.173l-226.229,380.755
				c-2.737,4.605-4.729,9.594-5.94,14.813c-4.146,17.868-12.745,61.658-8.254,101.496l11.702,24.306l-50.615-11.492l-11.012-135.925
				l14.329-8.738c12.378-7.547,22.018-18.831,27.536-32.238c20.456-49.689,71.255-176.176,84.35-237.819
				c14.882-70.057,92.678-126.959,92.678-126.959l-13.667-32.312L933.091,2589.048z"/>
			
				<linearGradient id="SVGID_00000068647440683783915550000005832393389399255464_" gradientUnits="userSpaceOnUse" x1="4849.3955" y1="3152.5132" x2="4970.8765" y2="3152.5132" gradientTransform="matrix(1 -0.0095 0.0095 1 -4268.8198 56.9446)">
				<stop  offset="0" style="stop-color:#09005D"/>
				<stop  offset="1" style="stop-color:#1A0F91"/>
			</linearGradient>
			<path style="fill:url(#SVGID_00000068647440683783915550000005832393389399255464_);" d="M610.648,3176.314
				c0,0,27.333-43.334,30.549-60.202c3.216-16.868,12.168-46.655,29.019-37.688c0,0,7.941,81.94,5.203,113.958
				c-2.737,32.017,36.194,30.987,36.194,30.987s10.73,1.508,18.588,9.364c5.427,5.425,1.545,14.837-6.11,15.33
				c-12.741,0.822-32.977,1.036-54.225-3.07c-7.426-1.434-12.931-7.753-13.381-15.304l-5.609-94.306l-34.478,43.535
				L610.648,3176.314z"/>
			
				<linearGradient id="SVGID_00000106828282510279731440000010980680346747129527_" gradientUnits="userSpaceOnUse" x1="736.9296" y1="2823.1851" x2="1094.2782" y2="3574.7502">
				<stop  offset="0" style="stop-color:#FEBBBA"/>
				<stop  offset="1" style="stop-color:#FF928E"/>
			</linearGradient>
			<path style="fill:url(#SVGID_00000106828282510279731440000010980680346747129527_);" d="M797.945,2649.698
				c0,0-7.979,340.583-9.059,388.954c-1.08,48.372,7.638,155.568,56.13,187.609l-21.101,15.622c0,0-26.369-22.412-52.132-65.545
				c-28.94-48.456-37.691-57.309-37.691-57.309l9.603-19.667c4.205-8.61,5.44-18.35,3.504-27.734
				c-10.464-50.717-45.422-219.409-54.958-255.737c-11.257-42.883-12.056-100.15,27.104-148.086
				C758.506,2619.87,797.945,2649.698,797.945,2649.698z"/>
			
				<linearGradient id="SVGID_00000007407685972228510790000014398622060326532287_" gradientUnits="userSpaceOnUse" x1="4962.0239" y1="3174.4536" x2="5106.8403" y2="3174.4536" gradientTransform="matrix(1 -0.0095 0.0095 1 -4268.8198 56.9446)">
				<stop  offset="0" style="stop-color:#09005D"/>
				<stop  offset="1" style="stop-color:#1A0F91"/>
			</linearGradient>
			<path style="fill:url(#SVGID_00000007407685972228510790000014398622060326532287_);" d="M753.167,3257.233
				c-1.504,0.014-2.783-1.063-2.995-2.552c-1.614-11.354-8.331-56.875-13.829-68.664c-6.298-13.499-26.867-70.316,0.011-75.14
				c0,0,66.82,97.624,79.646,110.785c12.827,13.163,29.016,4.599,29.016,4.599s12.497,3.692,21.921,15.736
				c4.485,5.732,0.307,14.147-6.972,14.216l-45.007,0.43c-13.071,0.124-24.827-7.816-29.686-19.951
				c-7.923-19.788-21.531-48.813-37.392-61.689l8.241,78.917C756.305,3255.681,754.936,3257.218,753.167,3257.233L753.167,3257.233z
				"/>
			
				<linearGradient id="SVGID_00000018202238753771517390000006499117618478464407_" gradientUnits="userSpaceOnUse" x1="1009.4747" y1="2182.2354" x2="708.8491" y2="2601.9763">
				<stop  offset="0" style="stop-color:#4F52FF"/>
				<stop  offset="1" style="stop-color:#4042E2"/>
			</linearGradient>
			<path style="fill:url(#SVGID_00000018202238753771517390000006499117618478464407_);" d="M853.844,2236.148
				c0,0-10.142,32.327,5.439,85.571l96.656,337.527c1.519,5.304-1.344,10.855-6.536,12.718
				c-28.911,10.377-123.953,39.705-253.694,30.761c-6.531-0.451-12.009-5.075-13.429-11.468
				c-8.549-38.479-37.716-169.766-43.721-196.742c-22.884-102.787-45.044-200.54,67.359-267.567
				C757.72,2249.136,802.645,2249.118,853.844,2236.148z"/>
			
				<linearGradient id="SVGID_00000145767646002971861580000009462973438329399193_" gradientUnits="userSpaceOnUse" x1="652.8143" y1="2032.8738" x2="972.3806" y2="2032.8738" gradientTransform="matrix(1 0 0 1 204.5823 0)">
				<stop  offset="0" style="stop-color:#FEBBBA"/>
				<stop  offset="1" style="stop-color:#FF928E"/>
			</linearGradient>
			<path style="fill:url(#SVGID_00000145767646002971861580000009462973438329399193_);" d="M737.251,1930.522
				c0,0-19.457,278.041,160.185,138.389c0,0,26.53-25.062,45.684-28.11c10.317-1.641,21.957-2.738,30.501-3.4
				c3.899-0.302,5.722,4.733,2.522,6.981c-6.171,4.335-14.256,9.003-21.269,9.731c-13.552,1.405,0.896,11.336-13.862,37.286
				c-14.757,25.95-35.839,16.163-35.839,16.163s-205.835,210.789-246.931-156.84
				C656.791,1882.331,722.598,1885.968,737.251,1930.522z"/>
			<g>
				
					<linearGradient id="SVGID_00000008866717584485505100000000634773071143218358_" gradientUnits="userSpaceOnUse" x1="-6829.604" y1="1583.6749" x2="-6883.6626" y2="1640.811" gradientTransform="matrix(-0.9865 -0.1635 -0.2088 1.2596 -5389.312 -1140.5688)">
					<stop  offset="0" style="stop-color:#09005D"/>
					<stop  offset="1" style="stop-color:#1A0F91"/>
				</linearGradient>
				<path style="fill:url(#SVGID_00000008866717584485505100000000634773071143218358_);" d="M1101.896,1962.116l-61.114-8.052
					c-7.287-1.208-14.808,3.062-19.31,10.961l-40.201,88.86c-7.568,13.277-2.185,30.891,10.062,32.921l49.074,6.294
					c4.696,0.778,9.522-2.186,12.171-7.475l54.37-108.52C1110.09,1970.834,1107.463,1963.039,1101.896,1962.116z"/>
			</g>
			
				<linearGradient id="SVGID_00000155828057161059581300000007075322398186401425_" gradientUnits="userSpaceOnUse" x1="878.7117" y1="1955.2865" x2="839.3839" y2="2100.7993" gradientTransform="matrix(1 0 0 1 204.5823 0)">
				<stop  offset="0" style="stop-color:#FEBBBA"/>
				<stop  offset="1" style="stop-color:#FF928E"/>
			</linearGradient>
			<path style="fill:url(#SVGID_00000155828057161059581300000007075322398186401425_);" d="M1060.202,2081.974
				c0,0,41.09-59.798,36.317-67.161c-4.774-7.362-40.794-17.909-49.252-20.397C1038.81,1991.928,1022.89,2046.154,1060.202,2081.974
				z"/>
			
				<linearGradient id="SVGID_00000024700264098796998690000006507435268289929615_" gradientUnits="userSpaceOnUse" x1="-6525.8882" y1="3205.1243" x2="-6351.6973" y2="3405.3975" gradientTransform="matrix(-0.9609 -0.2771 -0.2771 0.9609 -4478.9717 -3190.0432)">
				<stop  offset="0" style="stop-color:#FEBBBA"/>
				<stop  offset="1" style="stop-color:#FF928E"/>
			</linearGradient>
			<path style="fill:url(#SVGID_00000024700264098796998690000006507435268289929615_);" d="M908.903,1671.442
				c0,0,8.753,154.621-56.299,156.787c-65.051,2.167-71.363-107.773-71.363-107.773s19.203-69.456,50.172-77.554
				C862.381,1634.803,908.903,1671.442,908.903,1671.442z"/>
			
				<linearGradient id="SVGID_00000143601307989280783970000004777680927183045565_" gradientUnits="userSpaceOnUse" x1="2291.8308" y1="1349.1948" x2="2422.9709" y2="1675.7076" gradientTransform="matrix(-1 0 0 1 3269.0122 0)">
				<stop  offset="0" style="stop-color:#09005D"/>
				<stop  offset="1" style="stop-color:#1A0F91"/>
			</linearGradient>
			<path style="fill:url(#SVGID_00000143601307989280783970000004777680927183045565_);" d="M889.773,1623.718
				c0,0,29.721,30.391,24.619,49.307c-5.104,18.916-68.856-0.865-84.573-9.8l-52.664,56.052c0,0,1.614-83.038,37.947-108.608
				C851.434,1585.097,889.773,1623.718,889.773,1623.718z"/>
			
				<linearGradient id="SVGID_00000121985652199669697330000017673266598770011560_" gradientUnits="userSpaceOnUse" x1="-6482.3672" y1="3167.2703" x2="-6308.1777" y2="3367.5415" gradientTransform="matrix(-0.9609 -0.2771 -0.2771 0.9609 -4478.9717 -3190.0432)">
				<stop  offset="0" style="stop-color:#FEBBBA"/>
				<stop  offset="1" style="stop-color:#FF928E"/>
			</linearGradient>
			<path style="fill:url(#SVGID_00000121985652199669697330000017673266598770011560_);" d="M800.948,1721.948
				c0,0-7.927-53.035-33.851-38.122c-25.924,14.913,1.901,56.014,22.153,53.449L800.948,1721.948z"/>
		</g>
	</g>
</g>
</svg>
