<?xml version="1.0" encoding="utf-8"?>
<!-- Generator: Adobe Illustrator 27.5.0, SVG Export Plug-In . SVG Version: 6.00 Build 0)  -->
<svg version="1.1" xmlns="http://www.w3.org/2000/svg" xmlns:xlink="http://www.w3.org/1999/xlink" x="0px" y="0px"
	 viewBox="0 0 3710 3710" style="enable-background:new 0 0 3710 3710;" xml:space="preserve">
<g id="Background">
	<g>
		<g>
			<rect style="fill:#FFFFFF;" width="3710" height="3710"/>
		</g>
	</g>
</g>
<g id="Illustration">
	<g>
		<linearGradient id="SVGID_1_" gradientUnits="userSpaceOnUse" x1="3598.6025" y1="4069.3931" x2="1114.9398" y2="984.8399">
			<stop  offset="0" style="stop-color:#DAE3FE"/>
			<stop  offset="1" style="stop-color:#E9EFFD"/>
		</linearGradient>
		<path style="fill:url(#SVGID_1_);" d="M2918.372,2850.851c-57.216,59.944-111.352,98.601-154.125,129.143
			c-502.781,359.012-1097.704,254.362-1224.142,228.805c-186.709-37.739-547.614-110.687-808.542-416.054
			C336.802,2330.75,398.272,1602.89,704.476,1122.42c56.01-87.886,351.868-575.675,953.199-653.901
			c363.919-47.341,788.132,48.141,1095.335,304.275C3397.857,1310.445,3351.95,2396.593,2918.372,2850.851z"/>
		<g>
			<path style="fill:#91B3FA;" d="M3154.135,596.831c-4.603-17.825-36.49-18.929-42.965-1.468
				c-62.599,168.813-244.307,607.412-517.595,838.621c-444.976,376.461-746.29,991.426-469.289,1313.705
				C2124.285,2747.69,3655.585,2539.023,3154.135,596.831z"/>
			<path style="opacity:0.43;fill:#FFFFFF;" d="M3106.772,838.086c-0.688,5.722-1.848,10.374-2.798,15.468l-3.234,14.911
				c-2.261,9.908-4.49,19.827-6.883,29.701c-4.733,19.762-9.785,39.441-14.91,59.1c-10.246,39.323-21.39,78.397-32.69,117.428
				c-23.082,77.919-48.351,155.187-75.33,231.856c-53.7,153.449-116.513,303.68-186.515,450.471
				c-35.193,73.322-73.276,145.235-113.111,216.147l-30.614,52.771c-5.017,8.845-10.342,17.508-15.687,26.161l-15.958,26.001
				l-15.959,25.997c-5.395,8.621-11.056,17.073-16.571,25.616c-11.149,17.01-22.057,34.182-33.513,50.987
				c-45.854,67.223-94.739,132.33-146.198,195.337c-26.654,30.739-52.708,61.984-80.975,91.254
				c-27.196,30.253-56.894,58.104-85.83,86.621c-0.903,0.892-2.358,0.882-3.249-0.022c-0.886-0.9-0.881-2.343,0.007-3.236
				l0.058-0.056c57.235-57.472,111.575-117.658,162.627-180.589c50.52-63.351,98.436-128.733,143.312-196.188
				c44.484-67.703,87.139-136.621,126.812-207.285c39.513-70.747,76.784-142.723,112.339-215.555
				c35.179-73.016,68.443-146.961,99.785-221.728l23.145-56.228l22.316-56.564c14.616-37.811,29.12-75.673,42.905-113.806
				c27.746-76.197,53.514-153.118,77.63-230.557c11.911-38.763,23.673-77.583,34.539-116.657c5.452-19.53,10.76-39.101,15.88-58.716
				c2.604-9.798,5.041-19.635,7.512-29.462l3.544-14.769c1.049-4.85,2.318-10.069,3.017-14.409l0.103-0.635
				c0.2-1.237,1.366-2.078,2.603-1.879C3106.087,835.768,3106.915,836.884,3106.772,838.086z"/>
		</g>
		<g>
			<path style="fill:#BDD0FB;" d="M2659.961,472.436c-2.78-15.332-24.313-16.75-29.015-1.894
				c-45.451,143.628-176.427,516.511-365.45,710.444c-307.774,315.768-522.875,837.902-341.629,1117.982
				C1923.867,2298.968,2962.813,2142.998,2659.961,472.436z"/>
			<path style="opacity:0.43;fill:#FFFFFF;" d="M2623.594,678.326c-0.538,4.509-1.375,8.442-2.091,12.594l-2.38,12.272
				l-5.028,24.472c-3.444,16.292-7.06,32.545-10.721,48.789c-7.416,32.464-15.235,64.837-23.352,97.135
				c-16.328,64.573-34.338,128.712-53.343,192.554c-18.947,63.865-39.554,127.235-61.455,190.156l-8.172,23.609l-8.482,23.502
				c-5.722,15.643-11.158,31.39-17.143,46.938l-17.633,46.76l-18.337,46.494c-49.547,123.709-105.596,244.943-170.035,361.697
				c-3.926,7.352-8.087,14.573-12.301,21.765l-12.545,21.628l-12.544,21.625c-4.271,7.155-8.732,14.201-13.088,21.305
				c-8.84,14.132-17.35,28.468-26.459,42.426l-27.567,41.721c-37.796,54.919-78.008,108.206-121.764,158.489
				c-0.612,0.703-1.677,0.777-2.379,0.167c-0.691-0.603-0.774-1.644-0.194-2.345l0.014-0.018
				c42.39-51.238,81.782-104.825,118.526-160.179l27.036-41.858c8.931-14.002,17.266-28.383,25.926-42.553
				c4.267-7.124,8.639-14.186,12.82-21.361l12.278-21.682l12.277-21.681c4.124-7.209,8.195-14.447,12.031-21.816l23.524-43.93
				c7.75-14.692,15.098-29.595,22.666-44.383c3.735-7.419,7.569-14.787,11.222-22.247l10.789-22.464l10.79-22.463
				c3.625-7.473,7.198-14.973,10.587-22.558c28.112-60.227,53.821-121.542,78.931-183.08
				c49.748-123.301,93.156-249.111,132.573-376.126c19.604-63.545,37.961-127.482,55.116-191.742
				c8.617-32.12,16.939-64.323,24.86-96.622c3.912-16.162,7.782-32.334,11.478-48.544l5.406-24.342l2.566-12.192
				c0.776-4.033,1.679-8.242,2.224-11.984l0.054-0.367c0.133-0.915,0.983-1.548,1.897-1.414
				C2623.073,676.602,2623.701,677.429,2623.594,678.326z"/>
		</g>
		<g>
			
				<linearGradient id="SVGID_00000046298054305564160890000001004265550198714522_" gradientUnits="userSpaceOnUse" x1="1492.03" y1="-877.4408" x2="1323.7031" y2="2068.2695">
				<stop  offset="0" style="stop-color:#4F52FF"/>
				<stop  offset="1" style="stop-color:#4042E2"/>
			</linearGradient>
			<path style="fill:url(#SVGID_00000046298054305564160890000001004265550198714522_);" d="M461.119,913.217
				c0-87.598,71.012-158.611,158.611-158.611h1348.833c74.414,0,135.774,58.316,139.558,132.634l99.563,1955.556
				c2.961,58.156-42.819,107.211-101.041,108.27L560.71,2979.163c-54.707,0.994-99.591-43.081-99.591-97.797V913.217z"/>
			<path style="fill:#BDD0FB;" d="M786.652,2945.918h-0.049l-172.981-2.236c-57.841-0.75-104.898-48.42-104.898-106.263V2576.25
				c0-2.041,1.654-3.693,3.693-3.693c2.039,0,3.693,1.652,3.693,3.693v261.169c0,53.822,43.786,98.177,97.608,98.876l172.979,2.236
				c2.04,0.025,3.671,1.702,3.646,3.74C790.316,2944.295,788.668,2945.918,786.652,2945.918z"/>
			<path style="fill:#BDD0FB;" d="M512.418,2499.045c-2.039,0-3.693-1.652-3.693-3.693v-42.296c0-2.041,1.654-3.693,3.693-3.693
				c2.039,0,3.693,1.652,3.693,3.693v42.296C516.111,2497.393,514.457,2499.045,512.418,2499.045z"/>
			<g>
				<path style="fill:#7D97F4;" d="M571.623,784.707c-0.165-28.026,24.482-49.718,52.255-45.951
					c184.195,24.979,817.595,102.233,1341.282,62.033c23.882-1.833,44.608,16.261,45.879,40.18l104.397,1964.272
					c1.432,26.933-19.135,49.965-46.059,51.558c-220.253,13.034-1127.324,63.421-1450.863,29.534
					c-19.691-2.063-34.638-18.641-34.755-38.44L571.623,784.707z"/>
				<path style="fill:#BDD0FB;" d="M593.32,833.93c-0.159-26.971,23.561-47.846,50.288-44.221
					c177.259,24.038,786.808,98.383,1290.776,59.696c22.983-1.764,42.928,15.649,44.151,38.667L2079,2778.379
					c1.378,25.919-18.415,48.084-44.325,49.617c-211.959,12.543-1084.874,61.033-1396.229,28.421
					c-18.95-1.985-33.334-17.939-33.446-36.992L593.32,833.93z"/>
				<g style="opacity:0.6;">
					<path style="fill:#FFFFFF;" d="M1867.629,1014.948c8.512,0,15.298-6.118,15.08-13.595c-0.218-7.477-7.36-13.719-15.871-13.871
						l-487.126-8.681c-8.511-0.152-13.161,6.293-10.333,14.322l2.545,7.227c2.828,8.029,12.106,14.598,20.618,14.598H1867.629z"/>
				</g>
				<g style="opacity:0.6;">
					<path style="fill:#FFFFFF;" d="M1379.711,1054.351c-8.511-0.152-13.161,6.293-10.333,14.322l2.545,7.227
						c2.828,8.029,12.106,14.598,20.618,14.598h475.087c8.512,0,15.298-6.118,15.08-13.595c-0.218-7.477-7.36-13.719-15.871-13.871
						L1379.711,1054.351z"/>
				</g>
				<g style="opacity:0.6;">
					<path style="fill:#FFFFFF;" d="M1379.711,1131c-8.511-0.152-13.161,6.293-10.333,14.322l2.545,7.227
						c2.828,8.029,12.106,14.598,20.618,14.598h475.087c8.512,0,15.298-6.118,15.08-13.595c-0.218-7.477-7.36-13.719-15.871-13.871
						L1379.711,1131z"/>
				</g>
				<g style="opacity:0.6;">
					<path style="fill:#FFFFFF;" d="M1914.88,1536.787c8.512,0,15.073-6.118,14.579-13.595c-0.494-7.477-7.862-13.65-16.374-13.717
						l-1140.329-8.988c-8.512-0.067-11.138,5.326-5.836,11.985l9.72,12.208c5.302,6.659,16.605,12.107,25.117,12.107H1914.88z"/>
				</g>
				<g style="opacity:0.6;">
					<path style="fill:#FFFFFF;" d="M772.757,1576.037c-8.512-0.067-11.138,5.326-5.836,11.985l9.72,12.208
						c5.302,6.659,16.605,12.107,25.117,12.107H1914.88c8.512,0,15.073-6.118,14.579-13.595c-0.494-7.477-7.862-13.65-16.374-13.717
						L772.757,1576.037z"/>
				</g>
				
					<linearGradient id="SVGID_00000111149015910037339520000004815681361715454649_" gradientUnits="userSpaceOnUse" x1="606.5524" y1="1591.8492" x2="1905.0179" y2="2629.793">
					<stop  offset="0" style="stop-color:#53D8FF"/>
					<stop  offset="1" style="stop-color:#3840F7"/>
				</linearGradient>
				<path style="fill:url(#SVGID_00000111149015910037339520000004815681361715454649_);" d="M767.941,1702.182
					c27.402-2.1,78.717-3.073,106.964-3.468c11.969-0.167,22.467,7.941,25.273,19.577c5.452,22.601,12.972,61.844,12.026,103.423
					c-0.284,12.452-10.484,22.392-22.939,22.258l-104.238-1.122c-12.819-0.138-23.461-9.938-24.654-22.701l-9.164-98.062
					C750.26,1711.943,757.783,1702.96,767.941,1702.182z"/>
				<g style="opacity:0.6;">
					<path style="fill:#FFFFFF;" d="M960.379,1742.435c-8.505-0.355-14.429,6.241-13.165,14.659l2.622,17.456
						c1.264,8.418,9.263,15.305,17.775,15.305h253.816c8.512,0,15.39-6.964,15.284-15.476l-0.061-4.931
						c-0.106-8.512-7.151-15.766-15.656-16.122L960.379,1742.435z"/>
				</g>
				<path style="opacity:0.6;fill:#FFFFFF;" d="M1335.818,1702.182c27.402-2.1,78.717-3.073,106.964-3.468
					c11.969-0.167,22.467,7.941,25.274,19.577c5.452,22.601,12.972,61.844,12.025,103.423
					c-0.283,12.452-10.483,22.392-22.938,22.258l-104.239-1.122c-12.818-0.138-23.461-9.938-24.654-22.701l-9.164-98.062
					C1318.138,1711.943,1325.66,1702.96,1335.818,1702.182z"/>
				<g style="opacity:0.6;">
					<path style="fill:#FFFFFF;" d="M1528.256,1742.435c-8.505-0.355-14.429,6.241-13.165,14.659l2.622,17.456
						c1.264,8.418,9.263,15.305,17.776,15.305h253.815c8.512,0,15.39-6.964,15.284-15.476l-0.061-4.931
						c-0.106-8.512-7.151-15.766-15.656-16.122L1528.256,1742.435z"/>
				</g>
				<g>
					<g style="opacity:0.6;">
						<path style="fill:#FFFFFF;" d="M704.941,2062.204c1.62,10.559,7.203,17.885,13.557,17.792l517.902-7.588
							c5.859-0.086,10.546-8.388,10.417-18.454c-0.125-9.786-4.763-17.62-10.459-17.665l-517.915-4.059
							C709.302,2032.158,702.61,2047.013,704.941,2062.204z"/>
					</g>
					<g style="opacity:0.6;">
						<path style="fill:#FFFFFF;" d="M701.116,2160.385c1.621,10.559,7.203,17.885,13.557,17.792l517.902-7.588
							c5.859-0.086,10.546-8.388,10.418-18.454c-0.125-9.786-4.763-17.62-10.459-17.665l-517.915-4.059
							C705.476,2130.338,698.785,2145.194,701.116,2160.385z"/>
					</g>
					<g style="opacity:0.6;">
						<path style="fill:#FFFFFF;" d="M704.941,2367.264c1.62,10.559,7.203,17.885,13.557,17.792l517.902-7.588
							c5.859-0.086,10.546-8.388,10.417-18.454c-0.125-9.786-4.763-17.62-10.459-17.665l-517.915-4.059
							C709.302,2337.219,702.61,2352.074,704.941,2367.264z"/>
					</g>
					<g style="opacity:0.6;">
						<path style="fill:#FFFFFF;" d="M704.941,2268.357c1.62,10.559,7.203,17.885,13.557,17.792l517.902-7.588
							c5.859-0.086,10.546-8.388,10.417-18.454c-0.125-9.786-4.763-17.62-10.459-17.664l-517.915-4.059
							C709.302,2238.311,702.61,2253.167,704.941,2268.357z"/>
					</g>
					<g style="opacity:0.6;">
						<path style="fill:#FFFFFF;" d="M704.941,2474.51c1.62,10.559,7.203,17.885,13.557,17.792l517.902-7.588
							c5.859-0.086,10.546-8.388,10.417-18.454c-0.125-9.786-4.763-17.62-10.459-17.664l-517.915-4.06
							C709.302,2444.465,702.61,2459.319,704.941,2474.51z"/>
					</g>
					<g style="opacity:0.6;">
						<path style="fill:#FFFFFF;" d="M712.591,2579.703c1.62,10.559,7.203,17.885,13.557,17.792l517.902-7.588
							c5.859-0.086,10.546-8.388,10.417-18.454c-0.125-9.786-4.763-17.62-10.459-17.665l-517.915-4.059
							C716.952,2549.658,710.26,2564.513,712.591,2579.703z"/>
					</g>
					<g style="opacity:0.6;">
						<path style="fill:#FFFFFF;" d="M704.941,2680.663L704.941,2680.663c1.62,10.56,7.203,17.885,13.557,17.792l517.902-7.588
							c5.859-0.086,10.546-8.388,10.417-18.454c-0.125-9.786-4.763-17.62-10.459-17.665l-517.915-4.059
							C709.302,2650.617,702.61,2665.472,704.941,2680.663z"/>
					</g>
				</g>
				<g>
					<g style="opacity:0.6;">
						<path style="fill:#FFFFFF;" d="M1381.685,2048.178c1.62,10.559,7.203,17.885,13.557,17.792l517.902-7.588
							c5.859-0.086,10.546-8.388,10.417-18.454c-0.125-9.786-4.763-17.62-10.459-17.665l-517.915-4.059
							C1386.045,2018.132,1379.353,2032.988,1381.685,2048.178z"/>
					</g>
					<g style="opacity:0.6;">
						<path style="fill:#FFFFFF;" d="M1377.86,2146.359c1.62,10.559,7.203,17.885,13.557,17.792l517.902-7.588
							c5.859-0.086,10.546-8.388,10.418-18.454c-0.125-9.786-4.763-17.62-10.459-17.665l-517.915-4.059
							C1382.22,2116.313,1375.528,2131.168,1377.86,2146.359z"/>
					</g>
					<g style="opacity:0.6;">
						<path style="fill:#FFFFFF;" d="M1381.685,2353.239c1.62,10.559,7.203,17.885,13.557,17.792l517.902-7.588
							c5.859-0.086,10.546-8.388,10.417-18.454c-0.125-9.786-4.763-17.62-10.459-17.665l-517.915-4.059
							C1386.045,2323.193,1379.353,2338.048,1381.685,2353.239z"/>
					</g>
					<g style="opacity:0.6;">
						<path style="fill:#FFFFFF;" d="M1381.685,2254.331c1.62,10.559,7.203,17.885,13.557,17.792l517.902-7.588
							c5.859-0.086,10.546-8.388,10.417-18.454c-0.125-9.786-4.763-17.62-10.459-17.665l-517.915-4.059
							C1386.045,2224.285,1379.353,2239.141,1381.685,2254.331z"/>
					</g>
					<g style="opacity:0.6;">
						<path style="fill:#FFFFFF;" d="M1381.685,2460.484c1.62,10.559,7.203,17.885,13.557,17.792l517.902-7.588
							c5.859-0.086,10.546-8.388,10.417-18.454c-0.125-9.786-4.763-17.62-10.459-17.665l-517.915-4.059
							C1386.045,2430.439,1379.353,2445.294,1381.685,2460.484z"/>
					</g>
					<g style="opacity:0.6;">
						<path style="fill:#FFFFFF;" d="M1389.335,2565.677c1.62,10.559,7.203,17.885,13.557,17.792l517.902-7.588
							c5.859-0.086,10.546-8.388,10.418-18.454c-0.125-9.786-4.763-17.62-10.459-17.664l-517.915-4.059
							C1393.695,2535.632,1387.003,2550.487,1389.335,2565.677z"/>
					</g>
					<g style="opacity:0.6;">
						<path style="fill:#FFFFFF;" d="M1381.685,2666.637L1381.685,2666.637c1.62,10.56,7.203,17.885,13.557,17.792l517.902-7.588
							c5.859-0.086,10.546-8.388,10.417-18.454c-0.125-9.786-4.763-17.62-10.459-17.665l-517.915-4.059
							C1386.045,2636.592,1379.353,2651.447,1381.685,2666.637z"/>
					</g>
				</g>
				<path style="opacity:0.83;fill:#FFFFFF;" d="M1247.819,1001.918c-160.776,1.849-198.915-90.051-198.915-90.051
					s-39.085,91.232-203.48,86.51c2.438,86.264,3.081,168.721,2.924,238.477c-0.129,53.585,21.128,104.871,58.959,142.442
					c37.705,37.434,88.689,58.071,141.596,57.465c48.662-0.557,102.297-22.189,139.161-59.913
					c36.737-37.601,56.662-88.239,56.538-140.847C1244.451,1167.515,1245.469,1086.565,1247.819,1001.918z"/>
			</g>
			
				<linearGradient id="SVGID_00000013879073206670949850000014314917510785073324_" gradientUnits="userSpaceOnUse" x1="1528.2904" y1="286.6398" x2="907.875" y2="1102.7816">
				<stop  offset="0" style="stop-color:#09005D"/>
				<stop  offset="1" style="stop-color:#1A0F91"/>
			</linearGradient>
			<path style="fill:url(#SVGID_00000013879073206670949850000014314917510785073324_);" d="M1377.803,487.977
				c-48.722-33.895-91.086-33.223-120.909-24.424c-27.205,8.027-44.837,34.292-42.249,62.539l12.861,140.378l153.041,13.582
				C1380.547,680.052,1473.354,554.45,1377.803,487.977z M1310.5,601.228c-21.075,0-38.16-17.084-38.16-38.16
				c0-21.076,17.085-38.161,38.16-38.161c21.076,0,38.161,17.085,38.161,38.161C1348.661,584.143,1331.576,601.228,1310.5,601.228z"
				/>
			<g>
				<path style="fill:#BDD0FB;" d="M1242.793,607.419c-1.888,0-3.498-1.439-3.673-3.358l-2.049-22.356
					c-0.187-2.031,1.309-3.827,3.34-4.014c2.072-0.194,3.83,1.309,4.014,3.343l2.048,22.356c0.188,2.03-1.309,3.826-3.339,4.014
					C1243.019,607.415,1242.905,607.419,1242.793,607.419z M1238.78,563.608c-1.888,0-3.498-1.439-3.673-3.358l-1.556-16.971
					c-2.467-26.908,14.465-51.961,40.257-59.574c18.266-5.392,37.086-6.163,55.933-2.297c1.998,0.407,3.285,2.362,2.876,4.36
					c-0.409,1.995-2.346,3.271-4.358,2.874c-17.655-3.614-35.269-2.896-52.361,2.146c-22.419,6.618-37.137,28.411-34.993,51.82
					l1.556,16.971c0.188,2.031-1.309,3.827-3.339,4.014C1239.005,563.604,1238.891,563.608,1238.78,563.608z"/>
			</g>
			
				<linearGradient id="SVGID_00000154414793562250262480000017830430478420787895_" gradientUnits="userSpaceOnUse" x1="1596.3452" y1="338.372" x2="975.9292" y2="1154.5148">
				<stop  offset="0" style="stop-color:#09005D"/>
				<stop  offset="1" style="stop-color:#1A0F91"/>
			</linearGradient>
			<path style="fill:url(#SVGID_00000154414793562250262480000017830430478420787895_);" d="M1018.632,757.189v-70.578
				c0-24.363,20.193-43.877,44.543-43.043l486.604,16.672c21.595,0.74,39.084,17.785,40.377,39.355l4.067,67.815L1018.632,757.189z"
				/>
			<path style="fill:#BDD0FB;" d="M1200.074,670.162h-20.926c-2.04,0-3.693-1.652-3.693-3.693c0-2.042,1.653-3.693,3.693-3.693
				h20.926c2.04,0,3.693,1.652,3.693,3.693C1203.767,668.511,1202.114,670.162,1200.074,670.162z"/>
			<path style="fill:#BDD0FB;" d="M1044.97,735.027c-2.039,0-3.693-1.651-3.693-3.693v-28.552c0-22.06,17.947-40.006,40.008-40.006
				h76.935c2.04,0,3.693,1.652,3.693,3.693c0,2.041-1.653,3.693-3.693,3.693h-76.935c-17.987,0-32.622,14.635-32.622,32.62v28.552
				C1048.663,733.376,1047.009,735.027,1044.97,735.027z"/>
			
				<linearGradient id="SVGID_00000119117813505705389920000000270008359321416346_" gradientUnits="userSpaceOnUse" x1="1437.1984" y1="356.6907" x2="1263.6384" y2="903.6688">
				<stop  offset="0" style="stop-color:#4F52FF"/>
				<stop  offset="1" style="stop-color:#4042E2"/>
			</linearGradient>
			<path style="fill:url(#SVGID_00000119117813505705389920000000270008359321416346_);" d="M820.361,775.011
				c1.174-24.44,21.331-43.652,45.8-43.653l850.918-0.023c30.597-0.001,56.754,22.017,61.973,52.166l0.72,4.161
				c5.716,33.022-19.708,63.225-53.221,63.225H853.56c-20.057,0-36.039-16.769-35.077-36.803L820.361,775.011z"/>
		</g>
		<g>
			<g>
				<g>
					
						<linearGradient id="SVGID_00000028305917848914846550000014793668951087018880_" gradientUnits="userSpaceOnUse" x1="-3903.0564" y1="-3451.3411" x2="-4050.8682" y2="-3113.4856" gradientTransform="matrix(-1 0 0 1 -3411.738 0)">
						<stop  offset="0" style="stop-color:#8D55D1"/>
						<stop  offset="0.9964" style="stop-color:#1C2873"/>
					</linearGradient>
					<path style="fill:url(#SVGID_00000028305917848914846550000014793668951087018880_);" d="M2576.043,955.262
						c0-9.145-7.414-16.559-16.559-16.559h-279.622c-9.145,0-16.559,7.414-16.559,16.559v2.12c0,9.145,7.414,16.559,16.559,16.559
						h279.622c9.145,0,16.559-7.414,16.559-16.559V955.262z"/>
					
						<linearGradient id="SVGID_00000031183395733963735480000009426311358492114312_" gradientUnits="userSpaceOnUse" x1="-3849.6802" y1="-3427.9858" x2="-3997.4922" y2="-3090.1304" gradientTransform="matrix(-1 0 0 1 -3411.738 0)">
						<stop  offset="0" style="stop-color:#8D55D1"/>
						<stop  offset="0.9964" style="stop-color:#1C2873"/>
					</linearGradient>
					<path style="fill:url(#SVGID_00000031183395733963735480000009426311358492114312_);" d="M2576.043,1100.62
						c0-9.145-7.414-16.559-16.559-16.559h-279.622c-9.145,0-16.559,7.414-16.559,16.559v2.12c0,9.145,7.414,16.559,16.559,16.559
						h279.622c9.145,0,16.559-7.414,16.559-16.559V1100.62z"/>
				</g>
				<path style="fill:#7D97F4;" d="M2397.358,872.631h42.234c9.677,0,17.521,8.73,17.521,18.408v1246.3l-79.286-51.34V891.039
					C2377.827,881.361,2387.682,872.631,2397.358,872.631z"/>
				
					<linearGradient id="SVGID_00000146498024956298760090000013617780461919934362_" gradientUnits="userSpaceOnUse" x1="-5723.4937" y1="1048.8225" x2="-5520.8735" y2="1048.8225" gradientTransform="matrix(-1 0 0 1 -3411.738 0)">
					<stop  offset="0" style="stop-color:#09005D"/>
					<stop  offset="1" style="stop-color:#1A0F91"/>
				</linearGradient>
				<path style="fill:url(#SVGID_00000146498024956298760090000013617780461919934362_);" d="M2311.756,1194.212
					c0,34.04-27.595,61.635-61.636,61.635h-79.347c-34.041,0-61.636-27.595-61.636-61.635V903.433
					c0-34.04,27.595-61.635,61.636-61.635h79.347c34.041,0,61.636,27.595,61.636,61.635V1194.212z"/>
				<g>
					
						<linearGradient id="SVGID_00000046313034048647762210000011063078865420725637_" gradientUnits="userSpaceOnUse" x1="-6115.4668" y1="951.9172" x2="-6000.9951" y2="951.9172" gradientTransform="matrix(-1 0 0 1 -3411.738 0)">
						<stop  offset="0" style="stop-color:#09005D"/>
						<stop  offset="1" style="stop-color:#1A0F91"/>
					</linearGradient>
					<path style="fill:url(#SVGID_00000046313034048647762210000011063078865420725637_);" d="M2700.237,916.679
						c1.169,0,2.262,1.083,2.909,2.059c0.646,0.976,0.762,2.456,0.309,3.534l-6.35,15.819c-1.578,3.749-2.134,7.897-2.134,11.964
						v28.337c0,3.048-2.986,8.764-6.034,8.764h-99.68v-70.477H2700.237z"/>
					
						<linearGradient id="SVGID_00000153686028044967413200000012433060255842493598_" gradientUnits="userSpaceOnUse" x1="-6115.4668" y1="1066.3956" x2="-6000.9951" y2="1066.3956" gradientTransform="matrix(-1 0 0 1 -3411.738 0)">
						<stop  offset="0" style="stop-color:#09005D"/>
						<stop  offset="1" style="stop-color:#1A0F91"/>
					</linearGradient>
					<path style="fill:url(#SVGID_00000153686028044967413200000012433060255842493598_);" d="M2700.237,1035.608
						c1.169,0,2.262-0.425,2.909,0.55c0.646,0.976,0.762,1.702,0.309,2.78l-6.35,15.441c-1.578,3.749-2.134,7.52-2.134,11.587
						v28.337c0,3.048-2.986,2.971-6.034,2.971h-99.68v-61.667H2700.237z"/>
					
						<linearGradient id="SVGID_00000038388141563476015660000009198154161584302731_" gradientUnits="userSpaceOnUse" x1="-6115.4668" y1="1183.1683" x2="-6000.9951" y2="1183.1683" gradientTransform="matrix(-1 0 0 1 -3411.738 0)">
						<stop  offset="0" style="stop-color:#09005D"/>
						<stop  offset="1" style="stop-color:#1A0F91"/>
					</linearGradient>
					<path style="fill:url(#SVGID_00000038388141563476015660000009198154161584302731_);" d="M2700.237,1150.132
						c1.169,0,2.262,0.269,2.909,1.244c0.646,0.976,0.762,2.049,0.309,3.127l-6.35,15.615c-1.578,3.749-2.134,7.694-2.134,11.761
						v28.337c0,3.048-2.986,5.988-6.034,5.988h-99.68v-66.072H2700.237z"/>
				</g>
				
					<linearGradient id="SVGID_00000027604072413976988840000014722009511422491571_" gradientUnits="userSpaceOnUse" x1="-6040.6382" y1="1048.8225" x2="-5926.1138" y2="1048.8225" gradientTransform="matrix(-1 0 0 1 -3411.738 0)">
					<stop  offset="0" style="stop-color:#09005D"/>
					<stop  offset="1" style="stop-color:#1A0F91"/>
				</linearGradient>
				<path style="fill:url(#SVGID_00000027604072413976988840000014722009511422491571_);" d="M2628.9,898.779
					c0-31.47-25.511-56.982-56.982-56.982h-0.561c-31.47,0-56.982,25.512-56.982,56.982v300.086
					c0,31.47,25.512,56.982,56.982,56.982h0.561c31.47,0,56.982-25.512,56.982-56.982V898.779z"/>
			</g>
			<g>
				<g>
					
						<ellipse transform="matrix(0.9571 -0.2898 0.2898 0.9571 -174.5836 679.7028)" style="fill:#FFFFFF;" cx="2207.941" cy="929.389" rx="49.084" ry="49.084"/>
					
						<linearGradient id="SVGID_00000065760462727247570840000004222772529627774605_" gradientUnits="userSpaceOnUse" x1="-5659.1958" y1="930.9352" x2="-5577.0703" y2="930.9352" gradientTransform="matrix(-1 0 0 1 -3411.738 0)">
						<stop  offset="0" style="stop-color:#E1473D"/>
						<stop  offset="1" style="stop-color:#E9605A"/>
					</linearGradient>
					
						<circle style="fill:url(#SVGID_00000065760462727247570840000004222772529627774605_);" cx="2206.395" cy="930.935" r="41.063"/>
				</g>
				<g>
					
						<ellipse transform="matrix(0.7071 -0.7071 0.7071 0.7071 -91.6716 1867.0902)" style="fill:#FFFFFF;" cx="2207.941" cy="1044.203" rx="49.084" ry="49.084"/>
					
						<linearGradient id="SVGID_00000024693161639033334500000011372617586584488382_" gradientUnits="userSpaceOnUse" x1="-5618.563" y1="1020.3932" x2="-5616.1709" y2="1161.5186" gradientTransform="matrix(-1 0 0 1 -3411.738 0)">
						<stop  offset="0" style="stop-color:#FF928E"/>
						<stop  offset="1" style="stop-color:#FE7062"/>
					</linearGradient>
					
						<circle style="fill:url(#SVGID_00000024693161639033334500000011372617586584488382_);" cx="2206.395" cy="1045.749" r="41.063"/>
				</g>
				<g>
					
						<ellipse transform="matrix(0.9571 -0.2898 0.2898 0.9571 -239.7396 689.3503)" style="fill:#FFFFFF;" cx="2207.941" cy="1154.232" rx="49.084" ry="49.084"/>
					
						<linearGradient id="SVGID_00000107584271317164418590000012415676760132478113_" gradientUnits="userSpaceOnUse" x1="-5659.1958" y1="1155.7788" x2="-5577.0703" y2="1155.7788" gradientTransform="matrix(-1 0 0 1 -3411.738 0)">
						<stop  offset="0" style="stop-color:#4F52FF"/>
						<stop  offset="1" style="stop-color:#4042E2"/>
					</linearGradient>
					
						<circle style="fill:url(#SVGID_00000107584271317164418590000012415676760132478113_);" cx="2206.395" cy="1155.779" r="41.063"/>
				</g>
			</g>
		</g>
		<g>
			<g>
				<g>
					
						<linearGradient id="SVGID_00000035492655615680558290000006736543285158808760_" gradientUnits="userSpaceOnUse" x1="989.6949" y1="2943.0725" x2="1249.467" y2="2943.0725">
						<stop  offset="0" style="stop-color:#09005D"/>
						<stop  offset="1" style="stop-color:#1A0F91"/>
					</linearGradient>
					<path style="fill:url(#SVGID_00000035492655615680558290000006736543285158808760_);" d="M1249.467,2797.085
						c0-58.9-47.748-106.648-106.648-106.648h-46.475c-58.9,0-106.648,47.748-106.648,106.648v291.974
						c0,58.9,47.748,106.648,106.648,106.648h46.475c58.9,0,106.648-47.748,106.648-106.648V2797.085z"/>
					
						<linearGradient id="SVGID_00000075867583261968622080000000247282719182756229_" gradientUnits="userSpaceOnUse" x1="2454.1245" y1="2943.0725" x2="2713.8965" y2="2943.0725">
						<stop  offset="0" style="stop-color:#09005D"/>
						<stop  offset="1" style="stop-color:#1A0F91"/>
					</linearGradient>
					<path style="fill:url(#SVGID_00000075867583261968622080000000247282719182756229_);" d="M2713.896,2797.085
						c0-58.9-47.748-106.648-106.648-106.648h-46.475c-58.9,0-106.648,47.748-106.648,106.648v291.974
						c0,58.9,47.748,106.648,106.648,106.648h46.475c58.9,0,106.648-47.748,106.648-106.648V2797.085z"/>
				</g>
				<g>
					
						<linearGradient id="SVGID_00000012471240228463534520000018119842027100620170_" gradientUnits="userSpaceOnUse" x1="941.1661" y1="2276.5723" x2="1198.4969" y2="2276.5723">
						<stop  offset="0" style="stop-color:#FF928E"/>
						<stop  offset="1" style="stop-color:#FE7062"/>
					</linearGradient>
					<path style="fill:url(#SVGID_00000012471240228463534520000018119842027100620170_);" d="M1128.497,2270.576
						c-3.197-0.708-7.489-3.542-7.489-6.816v-21.917c0-21.119-9.879-40.436-28.738-49.942c-24.328-12.263-51.93-12.69-76.614-1.16
						l-42.217,21.215c-21.642,10.11-32.274,31.835-32.274,55.722v16.712c0,30.76,20.032,56.79,50.511,60.939l185.407,25.427
						l21.413-85.055L1128.497,2270.576z"/>
					
						<linearGradient id="SVGID_00000165219008357567662770000015834848393597599906_" gradientUnits="userSpaceOnUse" x1="-2162.0327" y1="2276.5723" x2="-1897.3066" y2="2276.5723" gradientTransform="matrix(-1 0 0 1 620.375 0)">
						<stop  offset="0" style="stop-color:#FF928E"/>
						<stop  offset="1" style="stop-color:#FE7062"/>
					</linearGradient>
					<path style="fill:url(#SVGID_00000165219008357567662770000015834848393597599906_);" d="M2585.736,2270.576
						c3.197-0.708,5.411-3.542,5.411-6.816v-21.917c0-21.119,11.956-40.436,30.814-49.942c24.329-12.263,52.969-12.69,77.653-1.16
						l46.368,21.215c21.642,10.11,36.426,31.835,36.426,55.722v16.712c0,30.76-23.665,56.79-54.144,60.939l-187.223,25.427
						l-23.359-85.055L2585.736,2270.576z"/>
				</g>
				
					<linearGradient id="SVGID_00000121957721057781932700000000866961518767853209_" gradientUnits="userSpaceOnUse" x1="1979.7386" y1="3077.1628" x2="1711.6193" y2="2019.8624">
					<stop  offset="0" style="stop-color:#FF928E"/>
					<stop  offset="1" style="stop-color:#FE7062"/>
				</linearGradient>
				<path style="fill:url(#SVGID_00000121957721057781932700000000866961518767853209_);" d="M2722.235,2458.628
					c-27.037-91.261-166.732-174.712-166.732-174.712s-117.163-358.522-243.338-358.522c-101.316,0-344.604,0-436.554,0
					c0,0-13.489,0-36.051,0c-92.047,0-335.77,0-437.107,0c-126.176,0-243.339,358.522-243.339,358.522
					s-139.694,83.922-166.732,175.183c-19.766,66.719,23.088,325.581,47.566,457.999c8.63,46.686,52.684,84.494,104.128,84.494
					h695.484h36.051h694.93c51.444,0,95.497-38.044,104.127-84.729C2699.147,2784.445,2742.002,2525.347,2722.235,2458.628z"/>
				
					<linearGradient id="SVGID_00000091015393277311453450000001801232968478683833_" gradientUnits="userSpaceOnUse" x1="1888.0547" y1="2307.1157" x2="1837.4652" y2="3227.8325">
					<stop  offset="0" style="stop-color:#E1473D"/>
					<stop  offset="1" style="stop-color:#E9605A"/>
				</linearGradient>
				<path style="fill:url(#SVGID_00000091015393277311453450000001801232968478683833_);" d="M2704.686,2843.736
					c-7.863-8.994-19.854-13.422-32.544-13.422H1042.478c-12.611,0-24.538,4.363-32.405,13.264
					c-7.867,8.901-10.822,20.141-8.027,31.246l26.668,106.074c4.29,17.047,21.073,29.258,40.432,29.258H2644.14
					c19.192,0,35.876-12.213,40.331-29.069l28.002-105.711C2715.418,2864.23,2712.549,2852.73,2704.686,2843.736z"/>
				<g>
					
						<linearGradient id="SVGID_00000101094540600574329610000012769401361031990163_" gradientUnits="userSpaceOnUse" x1="1257.0979" y1="2384.2251" x2="1365.5745" y2="1316.5907">
						<stop  offset="0" style="stop-color:#FEBBBA"/>
						<stop  offset="1" style="stop-color:#FF928E"/>
					</linearGradient>
					<path style="fill:url(#SVGID_00000101094540600574329610000012769401361031990163_);" d="M1417.166,2677.557
						c0,0-40.556-121.669-91.627-132.184c-51.071-10.515-267.372-55.577-271.878-18.025
						c-4.506,37.552-48.067,166.732,81.113,178.748C1263.953,2718.114,1437.975,2728,1417.166,2677.557z"/>
					
						<linearGradient id="SVGID_00000126308358220899719400000007390370170654433455_" gradientUnits="userSpaceOnUse" x1="-1738.9989" y1="2156.1355" x2="-1630.5225" y2="1088.5009" gradientTransform="matrix(-1 0 0 1 695.3475 0)">
						<stop  offset="0" style="stop-color:#FEBBBA"/>
						<stop  offset="1" style="stop-color:#FF928E"/>
					</linearGradient>
					<path style="fill:url(#SVGID_00000126308358220899719400000007390370170654433455_);" d="M2297.453,2677.557
						c0,0,40.557-121.669,91.627-132.184c51.071-10.515,267.372-55.577,271.878-18.025c4.507,37.552,48.067,166.732-81.112,178.748
						C2450.667,2718.114,2276.644,2728,2297.453,2677.557z"/>
				</g>
				
					<linearGradient id="SVGID_00000007394709566393722550000016502012649336869025_" gradientUnits="userSpaceOnUse" x1="1851.9365" y1="2164.0559" x2="1863.3542" y2="3060.4094">
					<stop  offset="0" style="stop-color:#E1473D"/>
					<stop  offset="1" style="stop-color:#E9605A"/>
				</linearGradient>
				<path style="fill:url(#SVGID_00000007394709566393722550000016502012649336869025_);" d="M2268.325,2573.055
					c-4.196-6.465-11.379-11.077-19.086-11.077H1465.38c-7.983,0-15.381,4.894-19.497,11.734
					c-4.115,6.841-4.344,15.692-0.605,22.744l44.103,84.905c16.365,30.86,48.439,51.896,83.369,51.896h575.951
					c37.25,0,71.014-23.475,86.185-57.496l35.132-79.916C2273.158,2588.805,2272.52,2579.52,2268.325,2573.055z"/>
				<g>
					
						<linearGradient id="SVGID_00000072272598209833236470000000496766931741586330_" gradientUnits="userSpaceOnUse" x1="1951.559" y1="1566.9064" x2="1816.6488" y2="2612.457">
						<stop  offset="0" style="stop-color:#E1473D"/>
						<stop  offset="1" style="stop-color:#E9605A"/>
					</linearGradient>
					<path style="fill:url(#SVGID_00000072272598209833236470000000496766931741586330_);" d="M2481.773,2312.368
						c-5.093,7.751-13.744,12.676-23.072,12.676H1255.888c-9.418,0-18.205-5.06-23.252-13.036c-5.047-7.976-5.678-18.1-1.622-26.661
						c27.308-57.545,78.544-164.133,107.249-223.75c1.307-2.704,2.749-3.147,4.371-5.625c13.879-22.036,38.258-33.519,64.71-33.519
						h909.589c26.722,0,51.191,11.724,65.026,33.939c1.938,3.155,3.695,5.366,5.183,8.791l96.794,221.514
						C2487.676,2295.213,2486.865,2304.572,2481.773,2312.368z"/>
					<path style="opacity:0.49;fill:#FFFFFF;" d="M2381.959,2056.391c-63.719,12.572-250.954,42.814-533.361,42.814
						c-284.751,0-451.843-30.333-505.963-42.725c13.879-22.036,38.258-34.028,64.71-34.028h909.589
						C2343.656,2022.452,2368.125,2034.176,2381.959,2056.391z"/>
				</g>
				<g>
					<g>
						<path style="opacity:0.7;fill:#FFFFFF;" d="M1397.783,2512.046c-1.113,0-2.227-0.41-3.098-1.232l-155.904-147.534
							c-1.806-1.712-1.885-4.564-0.176-6.372c1.716-1.806,4.568-1.881,6.372-0.176l155.905,147.533
							c1.806,1.713,1.885,4.563,0.176,6.373C1400.171,2511.573,1398.978,2512.046,1397.783,2512.046z"/>
					</g>
					<g>
						<path style="opacity:0.7;fill:#FFFFFF;" d="M2305.357,2512.046c-1.195,0-2.387-0.473-3.274-1.408
							c-1.71-1.809-1.63-4.66,0.176-6.373l155.904-147.533c1.809-1.705,4.663-1.63,6.372,0.176c1.71,1.808,1.63,4.66-0.176,6.372
							l-155.904,147.534C2307.584,2511.636,2306.471,2512.046,2305.357,2512.046z"/>
					</g>
				</g>
			</g>
		</g>
		<g>
			
				<linearGradient id="SVGID_00000064350628188123916560000000760174951782897821_" gradientUnits="userSpaceOnUse" x1="11595.0146" y1="3040.9214" x2="10931.1533" y2="3763.0171" gradientTransform="matrix(1 0.0095 -0.0095 1 -10477.4473 -63.4747)">
				<stop  offset="0" style="stop-color:#09005D"/>
				<stop  offset="1" style="stop-color:#1A0F91"/>
			</linearGradient>
			<path style="fill:url(#SVGID_00000064350628188123916560000000760174951782897821_);" d="M878.32,3139.389
				c0,0-7.247,38.857-10.985,77.355c-1.462,15.045,10.023,28.229,25.119,29.004c51.289,2.626,161.003,7.829,200.403,6.447
				c5.923-0.208,9.852-6.232,7.713-11.759c-1.792-4.632-5.297-8.396-9.791-10.513l-180.497-85.051L878.32,3139.389z"/>
			
				<linearGradient id="SVGID_00000031169250446597293000000007196063272517523128_" gradientUnits="userSpaceOnUse" x1="11658.3984" y1="2047.4109" x2="11093.4971" y2="2813.0613" gradientTransform="matrix(1 0.0095 -0.01 1.0485 -10478.3896 15.3192)">
				<stop  offset="0" style="stop-color:#09005D"/>
				<stop  offset="1" style="stop-color:#1A0F91"/>
			</linearGradient>
			<path style="fill:url(#SVGID_00000031169250446597293000000007196063272517523128_);" d="M896.205,2241.226
				c-2.507,12.725-18.876,636.011,42.012,915.979c0.994,4.568-1.255,9.246-5.409,10.979c-9.788,4.083-28.955,9.947-51.864,10.535
				c-7.094,0.183-13.407-4.711-15.34-11.868c-17.548-64.99-101.501-390.566-109.897-700.896
				c-9.382-346.763,0.113-11.803,0.113-11.803l9.486-214.201L896.205,2241.226z"/>
			
				<linearGradient id="SVGID_00000155141163605629929240000001822700676756411809_" gradientUnits="userSpaceOnUse" x1="11456.9531" y1="2903.8782" x2="10793.0635" y2="3626.0044" gradientTransform="matrix(1 0.0095 -0.0095 1 -10477.4473 -63.4747)">
				<stop  offset="0" style="stop-color:#09005D"/>
				<stop  offset="1" style="stop-color:#1A0F91"/>
			</linearGradient>
			<path style="fill:url(#SVGID_00000155141163605629929240000001822700676756411809_);" d="M680.446,3157.706
				c0,0-11.132,19.545-22.226,71.658c-2.004,9.412,4.5,18.499,14.065,19.532c16.927,1.828,42.988,4.219,63.883,4.275
				c9.631,0.025,17.227-8.289,16.158-17.861c-2.132-19.08-9.044-50.419-31.083-75.002L680.446,3157.706z"/>
			
				<linearGradient id="SVGID_00000044173697933508604470000002046020772128397731_" gradientUnits="userSpaceOnUse" x1="11177.875" y1="3091.4102" x2="11228.7861" y2="3091.4102" gradientTransform="matrix(1 0.0095 -0.0095 1 -10477.4473 -63.4747)">
				<stop  offset="0" style="stop-color:#FEBBBA"/>
				<stop  offset="1" style="stop-color:#FF928E"/>
			</linearGradient>
			<path style="fill:url(#SVGID_00000044173697933508604470000002046020772128397731_);" d="M671.405,3097.731l12.235,70.53
				c0,0,12.672,9.614,37.983,2.973l-5.439-75.811L671.405,3097.731z"/>
			
				<linearGradient id="SVGID_00000093139617466005904100000015573342203944768929_" gradientUnits="userSpaceOnUse" x1="11557.1299" y1="1908.6156" x2="10992.2002" y2="2674.3049" gradientTransform="matrix(1 0.0095 -0.0101 1.0676 -10478.2119 46.5855)">
				<stop  offset="0" style="stop-color:#09005D"/>
				<stop  offset="1" style="stop-color:#1A0F91"/>
			</linearGradient>
			<path style="fill:url(#SVGID_00000093139617466005904100000015573342203944768929_);" d="M644.532,2259.294
				c-55.173,334.402,3.378,827.833,23.791,924.495c1.25,5.918,5.671,10.485,11.268,11.531c9.506,1.775,25.171,3.301,40.672-1.345
				c5.34-1.599,9.131-6.692,9.404-12.606c3.606-77.956,3.023-556.75,53.259-745.49c2.546-9.565,8.11-17.875,15.754-23.563
				l94.683-70.448l8.308-115.255L644.532,2259.294z"/>
			
				<linearGradient id="SVGID_00000070110856992587523710000006309636391440742570_" gradientUnits="userSpaceOnUse" x1="2182.95" y1="2120.3525" x2="2107.5259" y2="1825.9548" gradientTransform="matrix(1 0 0 1 -1525.8356 0)">
				<stop  offset="0" style="stop-color:#09005D"/>
				<stop  offset="1" style="stop-color:#1A0F91"/>
			</linearGradient>
			<path style="fill:url(#SVGID_00000070110856992587523710000006309636391440742570_);" d="M711.705,1855.017l-58.307-151.4
				c0,0-143.077,99.008-168.2,224.122c27.473,2.287,77.052,9.647,125.782,34.839
				C622.305,1903.496,711.705,1855.017,711.705,1855.017z"/>
			<g>
				
					<linearGradient id="SVGID_00000011033429942992973420000009158017448006090680_" gradientUnits="userSpaceOnUse" x1="2810.3333" y1="686.1956" x2="2810.3333" y2="1051.4255" gradientTransform="matrix(1 0 0 1 -1525.8356 0)">
					<stop  offset="0" style="stop-color:#09005D"/>
					<stop  offset="1" style="stop-color:#1A0F91"/>
				</linearGradient>
				<path style="fill:url(#SVGID_00000011033429942992973420000009158017448006090680_);" d="M1140.523,1641.894
					c7.736,34.415,25.747,92.681,64.696,138.708c138.843-76.332,198.868-204.097,223.254-279.313
					c-14.602-4.808-28.49-11.679-41.004-20.599C1341.812,1553.766,1242.169,1611.365,1140.523,1641.894z"/>
				
					<linearGradient id="SVGID_00000014600605178203142980000016669471379110031544_" gradientUnits="userSpaceOnUse" x1="-1930.1292" y1="1562.5164" x2="-2060.2832" y2="1326.1842" gradientTransform="matrix(-1 0 0 1 -564.4642 0)">
					<stop  offset="0" style="stop-color:#FEBBBA"/>
					<stop  offset="1" style="stop-color:#FF928E"/>
				</linearGradient>
				<path style="fill:url(#SVGID_00000014600605178203142980000016669471379110031544_);" d="M1409.158,1430.724
					c-4.275,17.318-11.716,34.006-21.689,49.966c12.513,8.921,26.401,15.791,41.004,20.599
					c11.799-36.396,15.261-60.495,15.261-60.495C1428.609,1422.165,1409.158,1430.724,1409.158,1430.724z"/>
				
					<linearGradient id="SVGID_00000144339707586319744730000002396684956137060008_" gradientUnits="userSpaceOnUse" x1="2442.1428" y1="686.1969" x2="2442.1428" y2="1051.4264" gradientTransform="matrix(1 0 0 1 -1525.8356 0)">
					<stop  offset="0" style="stop-color:#09005D"/>
					<stop  offset="1" style="stop-color:#1A0F91"/>
				</linearGradient>
				<path style="fill:url(#SVGID_00000144339707586319744730000002396684956137060008_);" d="M981.43,1665.843
					c-12.643-0.101-25.437,0.073-38.269,0.476c-0.485,0.015-2.068,2.596-2.554,2.612c-81.367,2.667-162.533,14.053-218.388,23.678
					c-0.554,0.096-1.608-1.922-2.157-1.827c-40.688,7.047-66.665,12.835-66.665,12.835
					c-49.017,270.483-13.685,583.343-13.685,583.343c120.29,32.774,256.811-16.887,256.811-16.887
					c21.124-113.049,117.682-430.854,117.682-430.854c76.198-8.719,139.104-30.08,191.012-58.617
					c-38.947-46.027-56.96-104.293-64.696-138.708C1085.285,1658.484,1029.468,1667.095,981.43,1665.843z"/>
			</g>
			<g>
				
					<linearGradient id="SVGID_00000049905089231568244620000007314524413053555105_" gradientUnits="userSpaceOnUse" x1="-1921.4901" y1="1557.7584" x2="-2051.6445" y2="1321.426" gradientTransform="matrix(-1 0 0 1 -564.4642 0)">
					<stop  offset="0" style="stop-color:#FEBBBA"/>
					<stop  offset="1" style="stop-color:#FF928E"/>
				</linearGradient>
				<path style="fill:url(#SVGID_00000049905089231568244620000007314524413053555105_);" d="M1439.975,1445.457
					c1.553,5.105-17.063,12.68-27.781-8.242c-0.286-9.981-5.946-52.783,0.094-60.855c32.166-42.986,94.245-96.665,94.245-96.665
					c10.307,10.366,1.639,20.369,1.639,20.369l-30.162,30.826c6.14,11.347,13.668,20.949,17.109,34.636
					c2.605,10.365,0.846,21.4-4.467,30.76c-5.332,9.394-12.601,21.603-19.454,31.146
					C1458.225,1445.495,1439.975,1445.457,1439.975,1445.457z"/>
				
					<linearGradient id="SVGID_00000121973571480819768360000017052081648387067827_" gradientUnits="userSpaceOnUse" x1="2974.7258" y1="1407.3821" x2="2976.5356" y2="1334.9895" gradientTransform="matrix(1 0 0 1 -1525.8356 0)">
					<stop  offset="0" style="stop-color:#FEBBBA"/>
					<stop  offset="1" style="stop-color:#FF928E"/>
				</linearGradient>
				<path style="fill:url(#SVGID_00000121973571480819768360000017052081648387067827_);" d="M1464.755,1350.951l-27.435,22.811
					l-8.764,22.888l24.008,27.15c0,0,8.594-45.498,14.751-55.305C1473.472,1358.689,1470.373,1353.89,1464.755,1350.951z"/>
			</g>
			<path style="fill:#FFFFFF;" d="M718.639,1691.091l97.002,204.071l128.125-229.328
				C855.876,1672.332,773.724,1680.413,718.639,1691.091z"/>
			
				<linearGradient id="SVGID_00000124870195203563174690000006961922370333256073_" gradientUnits="userSpaceOnUse" x1="2244.4744" y1="1782.3083" x2="2469.6006" y2="1782.3083" gradientTransform="matrix(1 0 0 1 -1525.8356 0)">
				<stop  offset="0" style="stop-color:#53D8FF"/>
				<stop  offset="1" style="stop-color:#3840F7"/>
			</linearGradient>
			<path style="opacity:0.26;fill:url(#SVGID_00000124870195203563174690000006961922370333256073_);" d="M718.639,1691.091
				l97.002,207.691l128.125-232.947C861.549,1668.544,785.328,1678.324,718.639,1691.091z"/>
			
				<linearGradient id="SVGID_00000026873052877082814120000000735065851477553822_" gradientUnits="userSpaceOnUse" x1="2407.3386" y1="1477.2504" x2="2354.854" y2="1730.6246" gradientTransform="matrix(1 0 0 1 -1525.8356 0)">
				<stop  offset="0" style="stop-color:#FEBBBA"/>
				<stop  offset="1" style="stop-color:#FF928E"/>
			</linearGradient>
			<path style="fill:url(#SVGID_00000026873052877082814120000000735065851477553822_);" d="M814.132,1516.911l-40.207,163.828
				c-0.843,2.366,0.107,5.005,2.295,6.242c13.439,7.598,61.908,29.654,120.922-6.977c6.148-3.816,10.368-10.095,11.364-17.262
				l17.233-123.903L814.132,1516.911z"/>
			<g>
				
					<linearGradient id="SVGID_00000077306889062233960400000002448836683049861549_" gradientUnits="userSpaceOnUse" x1="1520.0455" y1="498.3755" x2="1440.4131" y2="261.2886" gradientTransform="matrix(0.9995 0.0308 -0.0308 0.9995 -1099.2076 -639.8537)">
					<stop  offset="0" style="stop-color:#FEBBBA"/>
					<stop  offset="1" style="stop-color:#FF928E"/>
				</linearGradient>
				<path style="fill:url(#SVGID_00000077306889062233960400000002448836683049861549_);" d="M934.951,1397.764
					c0,0,32.151,80.55,33.189,122.341c1.038,41.791,9.193,69.138-39.304,76.052c-48.497,6.914-88.392-18.368-109.126-60.603
					c0,0-32.519-65.097-23.973-91.083C804.283,1418.486,934.951,1397.764,934.951,1397.764z"/>
				
					<linearGradient id="SVGID_00000126284014762610671890000008249689809856956073_" gradientUnits="userSpaceOnUse" x1="2664.4021" y1="1461.9722" x2="3200.1069" y2="1523.5059" gradientTransform="matrix(1 0 0 1 -1525.8356 0)">
					<stop  offset="0" style="stop-color:#09005D"/>
					<stop  offset="1" style="stop-color:#1A0F91"/>
				</linearGradient>
				<path style="fill:url(#SVGID_00000126284014762610671890000008249689809856956073_);" d="M822.459,1505.731l2.405-1.138
					c3.062-1.448,4.48-5.569,3.07-9.009c-5.461-13.324-15.967-43.793-0.979-50.364c19.317-8.468,95.277-23.977,112.504-54.506
					c16.556-29.341,3.888-68.264-16.598-79.856c-1.371-0.776-3.032-0.245-3.795,1.302l-1.853,3.754
					c-1.268,2.57-4.576,2.073-5.195-0.781l0,0c-0.595-2.74-3.697-3.363-5.064-1.003c-5.287,9.129-19.253,23.764-55.6,30.379
					c-51.655,9.401-86.325,32.438-88.436,73.534c-0.134,2.611-2.576,3.99-4.458,2.571c-3.707-2.795-9.731-4.238-18.079,3.414
					c-14.516,13.308-9.848,49.133,20.143,79.409c1.424,1.438,1.331,4.095-0.295,5.245c-5.732,4.056-14.391,13.859,6.83,27.937
					c21.95,14.561,38.695,13.938,45.167,12.905c1.61-0.257,2.697-2.022,2.405-3.87l-5.754-36.354
					c-0.326-2.057,1.077-3.954,2.883-3.898L822.459,1505.731z"/>
				
					<linearGradient id="SVGID_00000034807963424952388870000005783025822392620452_" gradientUnits="userSpaceOnUse" x1="1456.1234" y1="519.852" x2="1376.4911" y2="282.7651" gradientTransform="matrix(0.9995 0.0308 -0.0308 0.9995 -1099.2076 -639.8537)">
					<stop  offset="0" style="stop-color:#FEBBBA"/>
					<stop  offset="1" style="stop-color:#FF928E"/>
				</linearGradient>
				<path style="fill:url(#SVGID_00000034807963424952388870000005783025822392620452_);" d="M838.378,1513.856
					c0,0-11.636-51.18-34.838-37.646c-23.203,13.534,10.059,57.253,28.302,59.717L838.378,1513.856z"/>
			</g>
			<g>
				<path style="fill:#FFFFFF;" d="M779.443,1658.68l-34.989,34.99l76.012,65.153l37.403-63.947l46.452,39.213l33.372-69.711
					l-27.944-18.97C865.171,1686.594,821.845,1687.545,779.443,1658.68z"/>
				
					<linearGradient id="SVGID_00000059284289841832415280000017382013694999868072_" gradientUnits="userSpaceOnUse" x1="2365.0293" y1="1713.3408" x2="2411.8879" y2="1713.3408" gradientTransform="matrix(1 0 0 1 -1525.8356 0)">
					<stop  offset="0" style="stop-color:#09005D"/>
					<stop  offset="1" style="stop-color:#1A0F91"/>
				</linearGradient>
				<path style="fill:url(#SVGID_00000059284289841832415280000017382013694999868072_);" d="M855.244,1698.946l-15.285,23.692
					c-2.278,3.532,0.874,8.049,4.975,7.128l37.449-8.407c3.996-0.897,5.009-6.123,1.638-8.448l-22.164-15.285
					C859.674,1696.121,856.68,1696.719,855.244,1698.946z"/>
				
					<linearGradient id="SVGID_00000091730256247457805020000002721605467156044710_" gradientUnits="userSpaceOnUse" x1="2334.573" y1="1807.7847" x2="2411.801" y2="1807.7847" gradientTransform="matrix(1 0 0 1 -1525.8356 0)">
					<stop  offset="0" style="stop-color:#09005D"/>
					<stop  offset="1" style="stop-color:#1A0F91"/>
				</linearGradient>
				<polygon style="fill:url(#SVGID_00000091730256247457805020000002721605467156044710_);" points="843.391,1728.659 
					808.737,1885.861 813.837,1898.976 885.965,1774.391 883.207,1716.594 				"/>
			</g>
			<g>
				
					<linearGradient id="SVGID_00000077298123509856657530000006028240945735576751_" gradientUnits="userSpaceOnUse" x1="2362.2595" y1="1242.5048" x2="2355.0203" y2="1305.8484" gradientTransform="matrix(1 0 0 1 -1525.8356 0)">
					<stop  offset="0" style="stop-color:#09005D"/>
					<stop  offset="1" style="stop-color:#1A0F91"/>
				</linearGradient>
				<path style="fill:url(#SVGID_00000077298123509856657530000006028240945735576751_);" d="M945.981,1305.291
					c-47.733-12.853-109.682-25.526-142.556-21.851c-1.333-0.214-2.703-0.069-4.107,0.479c-0.11,0.043-0.226,0.097-0.336,0.14
					c-0.118,0.021-0.244,0.036-0.36,0.056c-1.484,0.268-2.726,0.86-3.752,1.741c-29.939,14.067-76.103,57.278-110.057,93.205
					c-35.681,37.752,52.349,82.151,52.349,82.151l105.153-22.379c0.005,0.012,0.022,0.043,0.022,0.043l0.342-0.121l0.355-0.075
					c0,0-0.004-0.035-0.004-0.049l101.32-35.942C944.348,1402.689,996.14,1318.796,945.981,1305.291z"/>
				
					<linearGradient id="SVGID_00000116940385339628379890000011932540886724836274_" gradientUnits="userSpaceOnUse" x1="2085.1365" y1="1791.141" x2="2168.2017" y2="1565.0197" gradientTransform="matrix(0.9972 -0.0745 0.0745 0.9972 -1390.1094 -50.5635)">
					<stop  offset="0" style="stop-color:#09005D"/>
					<stop  offset="1" style="stop-color:#1A0F91"/>
				</linearGradient>
				<path style="fill:url(#SVGID_00000116940385339628379890000011932540886724836274_);" d="M738.93,1461.08
					c0,0,211.494-37.623,245.626-60.601c34.132-22.978-33.816-9.323-33.816-9.323L738.93,1461.08z"/>
				
					<linearGradient id="SVGID_00000070118599159546191770000000162256052312720806_" gradientUnits="userSpaceOnUse" x1="2429.7776" y1="1212.1602" x2="2491.3115" y2="1007.6506" gradientTransform="matrix(1 0 0 1 -1525.8356 0)">
					<stop  offset="0" style="stop-color:#FF928E"/>
					<stop  offset="1" style="stop-color:#FE7062"/>
				</linearGradient>
				<path style="fill:url(#SVGID_00000070118599159546191770000000162256052312720806_);" d="M725.11,1454.382l231.022-74.428
					l-1.251,15.041L738.93,1461.08C738.93,1461.08,726.895,1460.524,725.11,1454.382z"/>
				
					<linearGradient id="SVGID_00000159452161120558709900000017482651812225205951_" gradientUnits="userSpaceOnUse" x1="1312.243" y1="1869.6683" x2="1376.9012" y2="1693.6545" gradientTransform="matrix(0.9745 -0.2245 0.2245 0.9745 -869.4951 -99.1264)">
					<stop  offset="0" style="stop-color:#FF928E"/>
					<stop  offset="1" style="stop-color:#FE7062"/>
				</linearGradient>
				<path style="fill:url(#SVGID_00000159452161120558709900000017482651812225205951_);" d="M865.262,1326.601
					c-24.543,6.118-33.171-4.852-33.171-4.852s-3.079,13.668-27.826,18.908c3.009,11.399,5.634,22.355,7.751,31.648
					c1.625,7.139,6.37,13.257,13.184,17.006c6.815,3.748,15.143,4.818,23.144,2.974c7.394-1.704,14.929-6.429,19.417-12.781
					c4.488-6.353,5.983-13.91,4.32-21.04C869.918,1349.181,867.546,1338.167,865.262,1326.601z"/>
			</g>
			
				<linearGradient id="SVGID_00000029027043756189017400000002216655051518821005_" gradientUnits="userSpaceOnUse" x1="2222.6665" y1="2107.6794" x2="2147.8606" y2="1815.6954" gradientTransform="matrix(1 0 0 1 -1525.8356 0)">
				<stop  offset="0" style="stop-color:#09005D"/>
				<stop  offset="1" style="stop-color:#1A0F91"/>
			</linearGradient>
			<path style="fill:url(#SVGID_00000029027043756189017400000002216655051518821005_);" d="M841.12,1998.157
				c0,0-164.237,90.763-218.605,11.405c-11.287-16.478-13.869-32.772-10.901-48.254c-48.731-25.192-98.688-32.82-126.161-35.107
				c-7.574,37.718-4.144,77.943,17.672,118.773c94.865,177.538,359.228-6.334,359.228-6.334L841.12,1998.157z"/>
			<g>
				
					<linearGradient id="SVGID_00000121241240256458749900000014460662403111462059_" gradientUnits="userSpaceOnUse" x1="1139.052" y1="1437.8855" x2="1068.2242" y2="1751.5503">
					<stop  offset="0" style="stop-color:#E1473D"/>
					<stop  offset="1" style="stop-color:#E9605A"/>
				</linearGradient>
				<path style="fill:url(#SVGID_00000121241240256458749900000014460662403111462059_);" d="M823.394,2110.083l87.345-305.028
					c0.992-3.464,3.946-5.988,7.524-6.405c15.825-1.847,61.681-7.031,114.626-11.509c63.775-5.394,137.835-9.765,182.091-6.047
					c6.292,0.529,10.094,7.183,7.296,12.843c-25.166,50.917-128.687,258.03-180.527,325.877c-1.717,2.248-4.373,3.563-7.202,3.536
					l-202.654-1.885C825.995,2121.41,821.772,2115.753,823.394,2110.083z"/>
				<path style="fill:#BDD0FB;" d="M1041.949,1760.697l63.327-10.552c3.373-0.562,6.135,2.661,5.064,5.907l-6.269,18.996
					c-0.546,1.654-1.988,2.85-3.715,3.081l-60.939,8.14c-3.153,0.422-5.752-2.443-5.027-5.54l3.881-16.584
					C1038.689,1762.358,1040.14,1760.998,1041.949,1760.697z"/>
				<path style="fill:#BDD0FB;" d="M994.532,1814.308l5.217-27.173c0.524-2.726,2.774-4.785,5.535-5.065l127.906-12.979
					c4.305-0.438,7.752,3.508,6.742,7.715l-8.132,33.861c-0.651,2.709-3.009,4.667-5.792,4.806l-124.989,6.292
					C996.949,1821.97,993.764,1818.309,994.532,1814.308z"/>
				
					<linearGradient id="SVGID_00000062163415844289520700000012563710470256759429_" gradientUnits="userSpaceOnUse" x1="3887.8455" y1="1984.6729" x2="4004.2119" y2="1984.6729" gradientTransform="matrix(1 0 0 1 -3051.7732 0)">
					<stop  offset="0" style="stop-color:#FEBBBA"/>
					<stop  offset="1" style="stop-color:#FF928E"/>
				</linearGradient>
				<path style="fill:url(#SVGID_00000062163415844289520700000012563710470256759429_);" d="M844.498,2036.389
					c0,0-12.167-50.031-7.259-67.781c4.907-17.75,14.417-40.572,46.113-35.501c31.697,5.072,69.086,18.424,69.086,18.424
					s-1.889,23.12-25.979,15.661l14.938,11.558c0,0-2.135,18.513-22.484,8.623l13.894,15.329c0,0-8.739,15.204-23.709,5.453
					C894.129,1998.402,886.953,2042.413,844.498,2036.389z"/>
			</g>
		</g>
		<g>
			
				<linearGradient id="SVGID_00000012433500574770665870000002224609362744746380_" gradientUnits="userSpaceOnUse" x1="6400.8926" y1="3625.2258" x2="6408.7407" y2="3389.7878" gradientTransform="matrix(1 0 0 1 -3426.126 0)">
				<stop  offset="0" style="stop-color:#4F52FF"/>
				<stop  offset="1" style="stop-color:#4042E2"/>
			</linearGradient>
			<path style="fill:url(#SVGID_00000012433500574770665870000002224609362744746380_);" d="M3054.03,3227.45
				c0.015-0.992-0.051-1.999-0.306-3.012c-15.018-59.539-76.423-90.056-76.423-90.056l-29.536,2.315
				c-16.981,52.477-27.932,78.095-25.205,92.43c0.075,0.402,0.198,0.784,0.305,1.173
				C2947.229,3232.477,2997.378,3233.898,3054.03,3227.45z"/>
			<path style="fill:#91B3FA;" d="M2922.865,3230.3c1.315,4.787,4.849,8.514,9.372,9.466c34.659,7.289,89.746,1.423,112.875-1.601
				c5.102-0.666,8.832-5.386,8.918-10.714C2997.378,3233.898,2947.229,3232.477,2922.865,3230.3z"/>
			
				<linearGradient id="SVGID_00000116939669830254176460000003134346120488399494_" gradientUnits="userSpaceOnUse" x1="-1718.0509" y1="3028.4988" x2="-1744.3809" y2="3258.2883" gradientTransform="matrix(-1 0 0 1 1247.371 0)">
				<stop  offset="0" style="stop-color:#FEBBBA"/>
				<stop  offset="1" style="stop-color:#FF928E"/>
			</linearGradient>
			<path style="fill:url(#SVGID_00000116939669830254176460000003134346120488399494_);" d="M3001.623,3088.419l-12.932,62.255
				c-0.948,4.562-4.453,7.977-8.699,8.376c-5.197,0.488-12.595,0.774-20.035-0.319c-6.672-0.98-11.318-7.759-10.135-15.035
				l8.99-55.276H3001.623z"/>
			<path style="fill:#91B3FA;" d="M2671.902,3229.784c31.545-0.883,47.861-4.599,56.296-8.046c0.019,3.137,0.001,6.329-0.1,9.636
				c-0.109,3.532-2.726,6.354-5.944,6.333l-173.202-1.118c-5.528-0.035-8.758-6.446-6.362-11.514
				C2565.299,3226.95,2623.139,3231.148,2671.902,3229.784z"/>
			
				<linearGradient id="SVGID_00000082353174696264137650000018025546644839759269_" gradientUnits="userSpaceOnUse" x1="-1406.3192" y1="3770.8198" x2="-1398.4709" y2="3535.3799" gradientTransform="matrix(-1 0 0 1 1247.371 0)">
				<stop  offset="0" style="stop-color:#4F52FF"/>
				<stop  offset="1" style="stop-color:#4042E2"/>
			</linearGradient>
			<path style="fill:url(#SVGID_00000082353174696264137650000018025546644839759269_);" d="M2542.59,3225.074
				c0.209-0.441,0.388-0.891,0.685-1.307c15.296-21.373,54.254-63.932,131.237-82.391l36.931-1.165c0,0,16.444,28.582,16.755,81.526
				c-8.436,3.448-24.751,7.163-56.296,8.046C2623.139,3231.148,2565.299,3226.95,2542.59,3225.074z"/>
			
				<linearGradient id="SVGID_00000004525423633967714080000010293190204302004648_" gradientUnits="userSpaceOnUse" x1="-1440.6841" y1="3057.897" x2="-1465.3142" y2="3272.8518" gradientTransform="matrix(-1 0 0 1 1247.371 0)">
				<stop  offset="0" style="stop-color:#FEBBBA"/>
				<stop  offset="1" style="stop-color:#FF928E"/>
			</linearGradient>
			<path style="fill:url(#SVGID_00000004525423633967714080000010293190204302004648_);" d="M2718.292,3084.243
				c-0.41,2.752-5.473,44.59-7.432,60.813c-0.466,3.854-3.257,6.837-6.778,7.258c-6.289,0.751-16.465,1.434-25.367-0.391
				c-4.803-0.984-8.279-5.598-8.279-10.963v-65.675L2718.292,3084.243z"/>
			
				<linearGradient id="SVGID_00000060742046635864274020000008164085957937810821_" gradientUnits="userSpaceOnUse" x1="3050.1396" y1="2114.0354" x2="2888.2561" y2="2670.5095">
				<stop  offset="0" style="stop-color:#09005D"/>
				<stop  offset="1" style="stop-color:#1A0F91"/>
			</linearGradient>
			<path style="fill:url(#SVGID_00000060742046635864274020000008164085957937810821_);" d="M2976.945,2270.925
				c0,0,59.096,525.297,26.265,853.608c0,0-39.398,0-59.096-6.567c0,0-61.409-513.604-81.276-660.575
				c-0.748-5.541-8.658-5.792-9.745-0.308c-24.511,123.647-120.783,608.527-132.23,654.318c0,0-32.831,13.132-59.095,0
				c0,0,52.529-702.584,91.926-827.343L2976.945,2270.925z"/>
			
				<linearGradient id="SVGID_00000132067608089403404360000006858260738814115514_" gradientUnits="userSpaceOnUse" x1="2922.616" y1="1723.7014" x2="2614.0264" y2="2421.8228">
				<stop  offset="0" style="stop-color:#4F52FF"/>
				<stop  offset="1" style="stop-color:#4042E2"/>
			</linearGradient>
			<path style="fill:url(#SVGID_00000132067608089403404360000006858260738814115514_);" d="M3095.137,1660.267
				c0,0-249.517-39.398-446.503,13.132l13.133,203.553c0,0,52.529,282.347,91.926,407.105c0,0,151.024,26.265,223.252-13.133
				c0,0,59.096-354.576,91.927-407.106C3068.871,1863.819,3101.703,1725.929,3095.137,1660.267z"/>
			
				<linearGradient id="SVGID_00000161614719765912577700000000623019817494980797_" gradientUnits="userSpaceOnUse" x1="-3511.1211" y1="1571.7854" x2="-3393.0488" y2="1571.7854" gradientTransform="matrix(-1 0 0 1 -564.4642 0)">
				<stop  offset="0" style="stop-color:#FEBBBA"/>
				<stop  offset="1" style="stop-color:#FF928E"/>
			</linearGradient>
			<path style="fill:url(#SVGID_00000161614719765912577700000000623019817494980797_);" d="M2921.801,1480.847l24.856,168.095
				c0,0-69.445,31.902-118.072-1.369l10.47-118.631L2921.801,1480.847z"/>
			<g>
				
					<linearGradient id="SVGID_00000006696175691672433040000015280345591730795175_" gradientUnits="userSpaceOnUse" x1="9650.6768" y1="-4545.3325" x2="9857.5195" y2="-4595.6748" gradientTransform="matrix(-0.8757 -0.4828 -0.4828 0.8757 -698.139 1095.1436)">
					<stop  offset="0" style="stop-color:#FEBBBA"/>
					<stop  offset="1" style="stop-color:#FF928E"/>
				</linearGradient>
				<path style="fill:url(#SVGID_00000006696175691672433040000015280345591730795175_);" d="M2814.779,1371.39
					c-0.783,1.42-15.765,86.184-24.987,138.653c-3.811,21.679,12.124,41.817,34.098,43.118l20.121,1.191
					c36.97,2.189,69.526-24.132,75.129-60.741l14.549-95.045C2933.688,1398.566,2833.784,1336.916,2814.779,1371.39z"/>
				
					<linearGradient id="SVGID_00000076578252056529734730000016647580201437697210_" gradientUnits="userSpaceOnUse" x1="-3381.0181" y1="-1470.2511" x2="-3167.9709" y2="-1470.2511" gradientTransform="matrix(-0.8757 -0.4828 -0.4828 0.8757 -698.139 1095.1436)">
					<stop  offset="0" style="stop-color:#09005D"/>
					<stop  offset="1" style="stop-color:#1A0F91"/>
				</linearGradient>
				<path style="fill:url(#SVGID_00000076578252056529734730000016647580201437697210_);" d="M2955.381,1398.8
					c7.715-9.594,14.441-25.105-1.987-41.417c-16.632-16.515-35.501-12.398-47.47-6.86c-5.296,2.452-11.825,1.366-15.597-3.092
					c-1.676-1.979-4.163-3.327-7.853-2.913c-6.958,0.781-13.169-3.814-13.995-10.766c-1.416-11.919-7.765-25.954-28.841-30.026
					c-38.655-7.471-57.937,31.212-57.249,58.403c0.689,27.188,43.059,32.907,67.097,28.394
					c17.657-3.316,32.925,12.201,39.785,20.672c2.49,3.074,3.42,7.103,2.523,10.956l-6.11,26.266
					c4.233,8.165,8.387,16.505,14.332,23.472c4.281,5.018,8.975,7.786,13.951,8.958c7.207-13.415,27.364-15.69,36.731-15.991
					c3.584-0.114,6.931-1.694,9.288-4.397c7.066-8.106,18.128-26.188-3.045-43.946
					C2951.678,1412.1,2951.077,1404.155,2955.381,1398.8z"/>
				
					<linearGradient id="SVGID_00000137820467222264310100000013233253660339538071_" gradientUnits="userSpaceOnUse" x1="9643.3936" y1="-4575.2964" x2="9850.2363" y2="-4625.6392" gradientTransform="matrix(-0.8757 -0.4828 -0.4828 0.8757 -698.139 1095.1436)">
					<stop  offset="0" style="stop-color:#FEBBBA"/>
					<stop  offset="1" style="stop-color:#FF928E"/>
				</linearGradient>
				<path style="fill:url(#SVGID_00000137820467222264310100000013233253660339538071_);" d="M2906.998,1508.968
					c0,0,0.833-47.428,20.029-51.884c19.195-4.455,39.906,9.424,23.488,37.82
					C2930.093,1530.225,2906.998,1508.968,2906.998,1508.968z"/>
			</g>
			
				<linearGradient id="SVGID_00000042694455583327142780000000083722774792328621_" gradientUnits="userSpaceOnUse" x1="3177.6943" y1="1836.4541" x2="2869.105" y2="2534.575">
				<stop  offset="0" style="stop-color:#4F52FF"/>
				<stop  offset="1" style="stop-color:#4042E2"/>
			</linearGradient>
			<path style="fill:url(#SVGID_00000042694455583327142780000000083722774792328621_);" d="M3095.137,1660.267
				c0,0,387.406,420.238-68.946,581.109v-32.83c0,0,170.722-144.458,39.397-341.443
				C3065.588,1867.103,3082.004,1679.966,3095.137,1660.267z"/>
			
				<linearGradient id="SVGID_00000139976403686948670970000003836187255847280789_" gradientUnits="userSpaceOnUse" x1="-3482.3853" y1="2174.2949" x2="-3692.5044" y2="2353.7715" gradientTransform="matrix(-1 0 0 1 -564.4642 0)">
				<stop  offset="0" style="stop-color:#FEBBBA"/>
				<stop  offset="1" style="stop-color:#FF928E"/>
			</linearGradient>
			<path style="fill:url(#SVGID_00000139976403686948670970000003836187255847280789_);" d="M3022.908,2211.829
				c0,0-59.096-39.398-85.361-26.264c-26.266,13.132-26.266,32.83-26.266,32.83s13.133,26.265,32.832,19.698
				c19.698-6.565,65.662,6.567,85.361,0C3029.474,2238.093,3036.041,2211.829,3022.908,2211.829z"/>
			<g>
				
					<linearGradient id="SVGID_00000070808234994677709270000015048921525213549449_" gradientUnits="userSpaceOnUse" x1="2618.6006" y1="1589.318" x2="2310.0103" y2="2287.4407">
					<stop  offset="0" style="stop-color:#4F52FF"/>
					<stop  offset="1" style="stop-color:#4042E2"/>
				</linearGradient>
				<path style="fill:url(#SVGID_00000070808234994677709270000015048921525213549449_);" d="M2346.531,1808.701
					c125.078,18.768,195.344-66.627,256.092-114.501c80.204-63.206,153.871-25.982,153.871-25.982l-78.92,184.213
					c-127.73,120.431-265.306,72.714-347.87,33.686C2328.435,1854.588,2336.86,1828.201,2346.531,1808.701z"/>
				
					<linearGradient id="SVGID_00000082339234653802690080000009683165093829928865_" gradientUnits="userSpaceOnUse" x1="-3771.6704" y1="1511.8771" x2="-4346.0669" y2="2246.7666" gradientTransform="matrix(-1 0 0 1 -1728.0153 0)">
					<stop  offset="0" style="stop-color:#FEBBBA"/>
					<stop  offset="1" style="stop-color:#FF928E"/>
				</linearGradient>
				<path style="fill:url(#SVGID_00000082339234653802690080000009683165093829928865_);" d="M2170.735,1734.079l41.479,22.32
					c49.744,30.287,94.259,46.291,134.317,52.301c-9.671,19.5-18.096,45.887-16.826,77.416
					c-52.557-24.842-85.508-54.66-85.508-54.66C2150.233,1775.427,2170.735,1734.079,2170.735,1734.079z"/>
			</g>
			
				<linearGradient id="SVGID_00000002371641520266868790000008817625724626984855_" gradientUnits="userSpaceOnUse" x1="-3694.7969" y1="1571.9594" x2="-4269.1958" y2="2306.8525" gradientTransform="matrix(-1 0 0 1 -1728.0153 0)">
				<stop  offset="0" style="stop-color:#FEBBBA"/>
				<stop  offset="1" style="stop-color:#FF928E"/>
			</linearGradient>
			<path style="fill:url(#SVGID_00000002371641520266868790000008817625724626984855_);" d="M2048.541,1792.529
				c2.678-8.902,9.259-16.103,17.885-19.572l84.179-33.852c0,0,1.271-10.797-17.786-18.133
				c-19.058-7.336-14.602-28.679-14.602-28.679s26.034,11.876,64.151,30.713c21.797,10.772,34.027,29.793,40.513,44.11
				l-21.67,28.498c-51.883,15.586-104.381,18.566-157.327,12.384L2048.541,1792.529z"/>
		</g>
	</g>
</g>
</svg>
