<?xml version="1.0" encoding="utf-8"?>
<!-- Generator: Adobe Illustrator 27.5.0, SVG Export Plug-In . SVG Version: 6.00 Build 0)  -->
<svg version="1.1" xmlns="http://www.w3.org/2000/svg" xmlns:xlink="http://www.w3.org/1999/xlink" x="0px" y="0px"
	 viewBox="0 0 3710 3710" style="enable-background:new 0 0 3710 3710;" xml:space="preserve">
<g id="Background">
	<g>
		<g>
			<rect style="fill:#FFFFFF;" width="3710" height="3710"/>
		</g>
	</g>
</g>
<g id="Illustration">
	<g>
		<linearGradient id="SVGID_1_" gradientUnits="userSpaceOnUse" x1="3374.1331" y1="3595.1086" x2="1374.6807" y2="1436.9695">
			<stop  offset="0" style="stop-color:#DAE3FE"/>
			<stop  offset="1" style="stop-color:#E9EFFD"/>
		</linearGradient>
		<path style="fill:url(#SVGID_1_);" d="M3095.496,2365.266c-274.74,642.171-999.963,917.999-1568.186,870.969
			c-155.148-12.841-467.31-38.677-711.048-269.172c-468.083-442.652-395.994-1367.916,52.096-1912.661
			c57.705-70.152,457.128-540.162,1079.554-533.871c455.707,4.606,775.563,262.029,814.456,294.099
			c49.133,40.513,157.5,136.785,255.164,289.513C3247.009,1463.003,3267.181,1963.973,3095.496,2365.266z"/>
		<g>
			<path style="fill:#91B3FA;" d="M496.693,470.112c-2.829-12.041,14.11-20.045,24.481-11.634
				c105.324,85.406,358.385,341.162,295.317,788.112c-79.128,560.766,56.151,765.385,224.539,890.198
				c0,0-231.253-58.695-376.747-266.325C307.063,1360.685,546.986,684.206,496.693,470.112z"/>
			<path style="fill:#FFFFFF;" d="M576.845,645.261c13.176,62.427,24.92,125.045,33.995,187.945
				c9.456,62.847,16.702,125.914,21.66,189.084c4.677,63.182,7.981,126.429,8.169,189.704c0.517,63.271-2.113,126.49-5.012,189.956
				c-2.486,63.443-5.408,127.343-0.764,191.696c4.567,64.221,18.085,129.004,44.911,189.733
				c6.706,15.135,13.757,30.224,21.768,44.803c7.701,14.714,16.159,29.137,24.912,43.424c17.675,28.505,37.572,56.045,59.745,82.185
				c44.506,52.191,98.182,98.489,157.313,137.672c6.224,4.124,15.14,3.11,19.917-2.264c4.69-5.277,3.642-12.797-2.29-16.971
				l-0.042-0.03c-14.07-9.882-27.991-19.89-41.348-30.4c-6.777-5.164-13.275-10.577-19.887-15.881
				c-6.372-5.514-12.994-10.817-19.162-16.496c-25.108-22.348-48.37-46.191-69.474-71.402
				c-42.449-50.187-76.431-106.111-102.176-164.087c-12.497-29.123-22.488-58.99-29.782-89.418
				c-7.268-30.435-11.839-61.4-14.367-92.613c-5.063-62.462-2.776-125.729-0.818-189.184c1.863-63.471,3.23-127.263,1.555-191.005
				c-0.738-31.869-2.139-63.722-4.199-95.538c-0.924-15.912-2.205-31.806-3.453-47.7c-1.424-15.883-2.95-31.758-4.625-47.618
				c-6.837-63.433-15.912-126.655-27.287-189.542c-11.724-62.839-25.376-125.388-41.795-187.377c-0.47-1.772-2.513-2.88-4.564-2.474
				C577.752,641.858,576.486,643.542,576.845,645.261z"/>
		</g>
		<g>
			<g>
				<path style="fill:#BDD0FB;" d="M769.529,1812.354c-12.914,13.702-35.625,9.762-43.393-7.389
					c-42.866-94.634-139.867-373.158,20.334-694.033C881.752,839.967,929.358,680.183,945.943,606.15
					c3.507-15.655,24.961-17.734,31.437-3.056C1048.826,765.034,1237.474,1315.867,769.529,1812.354z"/>
				<path style="fill:#FFFFFF;" d="M746.071,1802.368c-0.459,0.082-0.932,0.121-1.416,0.114c-4.059-0.062-7.3-3.403-7.238-7.462
					c0.071-4.602,9.027-464.586,180.108-849.84c1.648-3.707,5.99-5.38,9.703-3.735c3.71,1.649,5.382,5.992,3.735,9.704
					c-169.837,382.45-178.776,839.526-178.847,844.097C752.063,1798.82,749.465,1801.76,746.071,1802.368z"/>
			</g>
		</g>
		<g>
			
				<linearGradient id="SVGID_00000179648533897702809990000010065270632049594037_" gradientUnits="userSpaceOnUse" x1="2205.5188" y1="2455.0227" x2="597.5177" y2="166.16">
				<stop  offset="0" style="stop-color:#4F52FF"/>
				<stop  offset="1" style="stop-color:#4042E2"/>
			</linearGradient>
			<path style="fill:url(#SVGID_00000179648533897702809990000010065270632049594037_);" d="M3074.655,1982.171
				c-27.843,634.231-605.384,1124.014-1289.974,1093.96S567.692,2507.568,595.535,1873.337
				c27.843-634.231,605.384-1124.014,1289.974-1093.96C2570.099,809.43,3102.498,1347.939,3074.655,1982.171z"/>
			<path style="fill:#7D97F4;" d="M899.096,1166.2c-27.234,43.722-48.234,92.942-44.29,144.301
				c4.566,59.469,34.665,115.159,36.208,174.783c2.617,101.119-75.442,185.76-99.792,283.938
				c-27.217,109.737,75.401,234.771,116.285,296.021c40.884,61.25,23.314-49.697,48.107-92.959
				c24.793-43.262,78.251,182.04,161.755,231.488c44.802,26.53,97.364,44.191,129.587,85.091
				c46.997,59.652,33.975,144.536,26.919,220.148c-7.056,75.613,3.513,167.762,71.61,201.375
				c40.097,19.792,91.063,13.094,127.246,39.366c63.544,46.138,33.189,146.725,58.369,221.106
				c27.383,80.888,81.678,81.952,165.683,99.101c84.005,17.149-10.584-167.405,28.769-231.906
				c20.684-33.902,52.262-60.882,68.575-97.09c22.624-50.216,16.252-117.309,60.142-150.583
				c32.9-24.942,78.679-18.194,119.963-18.558c41.284-0.364,91.495-18.279,96.179-59.298c4.156-36.396-32.28-65.417-67.927-73.851
				s-73.633-4.412-108.643-15.192c-100.139-30.834-146.846-170.964-251.419-177.521c-89.388-5.604-164.258,94.73-252.09,77.206
				c-48.965-9.77-82.482-53.135-118.828-87.37c-46.691-43.978-104.638-76.985-141.708-129.329
				c-37.07-52.345-43.376-136.013,9.359-172.524c39.174-27.122,94.835-16.112,133.535,11.681
				c38.701,27.793,65.06,69.031,93.482,107.272c8.778,11.811,18.712,24.051,32.756,28.447c37.791,11.83,65.367-41.338,56.324-79.891
				s-36.277-72.463-37.556-112.042c-2.254-69.754,72.862-114.015,138.759-137c65.897-22.985,143.567-50.388,162.941-117.435
				c6.844-23.683,5.048-49.744,15.492-72.074c34.612-74.004,217.255-110.948,173.597-153.86
				c-43.658-42.912-182.225-52.239-209.208-138.661c-9.66-30.939-19.606-71.836-51.88-74.829
				c-52.57-4.874-82.566,60.197-126.66,71.366c-20.933,5.302-22.947,40.858-22.131,84.579c0.592,31.735-24.65,57.944-56.385,58.544
				c-31.735,0.6-57.954-24.635-58.559-56.37c-0.224-11.78,1.838-23.686,6.683-35.56c8.49-20.809,24.612-37.449,40.867-52.97
				c67.82-64.757,270.193-135.908,227.815-163.473c-42.378-27.565-245.768-103.637-276.106-61.655
				c-30.338,41.981,19.839,6.434,32.077,56.223c12.238,49.789-150.457,43.113-225.686,64.67
				c-12.421,3.559-26.197,7.026-37.827,1.395c-12.999-6.294-18.472-21.424-25.526-34.026
				c-37.781-67.498-163.445-23.686-163.445-23.686S923.429,1127.134,899.096,1166.2z"/>
			
				<linearGradient id="SVGID_00000019677449674792673540000003489360852639333248_" gradientUnits="userSpaceOnUse" x1="2460.5625" y1="2529.6311" x2="1759.1448" y2="761.3531">
				<stop  offset="0" style="stop-color:#53D8FF"/>
				<stop  offset="1" style="stop-color:#3840F7"/>
			</linearGradient>
			<path style="fill:url(#SVGID_00000019677449674792673540000003489360852639333248_);" d="M1467.481,859.891
				c-18.265,34.05,36.054,33.499,41.457,71.759c48.899,5.329,68.981-71.767,117.34-80.765c27.291-5.078,53.753,14.476,68.584,37.942
				c14.83,23.466,21.748,51.019,34.318,75.77c28.164,55.457,86.319,94.487,148.312,99.538c13.487,1.099,28.35,0.236,38.503-8.71
				c29.472-25.971-12.692-74.761-1.738-112.486c12.517-43.109,74.676-36.568,116.689-52.378
				c11.588-4.361,100.713-28.142,102.147-40.44c2.541-21.802-38.806-35.682-85.06-47.576
				c-78.367-20.151-216.255-19.314-283.654-13.216C1674.709,797.442,1525.313,790.887,1467.481,859.891L1467.481,859.891z"/>
			<g>
				<path style="fill:#7D97F4;" d="M2962.851,2324.302c20.319-127.194,18.628-257.873-4.976-384.498
					c-6.296-33.779-21.036-74.048-55.052-78.91c-39.344-5.624-87.511,39.572-112.141,8.379
					c-10.873-13.769-6.533-33.817-0.375-50.244c16.243-43.325,41.671-83.18,74.115-116.168
					c20.155-20.493,43.217-38.659,58.737-62.853c33.194-51.745,9.893-127.36-37.089-167.011
					c-46.981-39.65-107.589,31.454-156.975,3.229c-49.386-28.225-50.923-96.699-60.205-152.819
					c-6.875-41.57-37.504-154.193-71.338-99.344c-33.834,54.849,45.131,273.191,134.004,377.853
					c10.72,12.625,22.557,26.764,21.652,43.301c-2.162,39.49-59.707,37.733-98.421,45.818
					c-47.921,10.01-121.369-15.655-80.835,67.848c21.378,44.04,123.492,104.319,96.053,133.791
					c-27.438,29.473-111.791,114.843-151.371,183.882c-39.58,69.04-58.762,155.012-28.914,228.784
					c29.847,73.771,119.594,124.712,192.856,93.635c34.289-14.546,71.663-44.788,103.536-25.516
					c28.865,17.451,24.605,59.34,23.177,93.04c-1.428,33.699,17.998,78.434,50.785,70.517c10.789-2.605,19.274-10.785,26.559-19.157
					C2932.761,2464.843,2951.765,2393.696,2962.851,2324.302z"/>
			</g>
			<ellipse style="opacity:0.18;fill:#91B3FA;" cx="1767.943" cy="1844.82" rx="973.607" ry="919.748"/>
			<g style="opacity:0.68;">
				<path style="fill:#FFFFFF;" d="M2181.616,1947.483c-0.295,202.682-14.156,405.773-49.745,605.584
					c-9.014,49.912-19.463,99.583-31.923,148.782c-12.496,49.179-26.928,97.929-44.603,145.585
					c-17.819,47.531-38.509,94.375-66.553,137.16c-14.127,21.235-30.154,41.572-49.906,58.283
					c-9.871,8.301-20.706,15.659-32.612,21.046c-11.883,5.352-24.854,8.739-38.02,8.98c-13.149,0.389-26.315-2.199-38.43-7.082
					c-12.158-4.839-23.256-11.863-33.363-19.889c-20.221-16.188-36.599-36.301-50.982-57.368
					c-14.35-21.159-26.607-43.582-37.698-66.486c-11.046-22.936-20.871-46.416-29.823-70.196
					c-17.898-47.574-32.474-96.285-45.078-145.435c-12.585-49.166-23.145-98.815-32.231-148.711
					c-18.137-99.813-30.485-200.587-38.801-301.638c-8.256-101.067-12.365-202.455-12.818-303.855
					c-0.22-50.695,1.07-101.382,2.848-152.039c1.854-50.657,4.604-101.281,8.289-151.837
					c7.416-101.101,18.531-201.979,35.096-302.03c8.312-50.013,18.012-99.815,29.685-149.177
					c11.705-49.344,25.314-98.296,42.201-146.184c8.489-23.922,17.773-47.586,28.359-70.693
					c10.573-23.102,22.406-45.698,36.31-67.057c13.94-21.264,29.96-41.557,49.899-57.791c9.969-8.047,20.946-15.047,32.97-19.789
					c11.974-4.803,24.963-7.243,37.889-6.758c12.936,0.366,25.685,3.61,37.452,8.8c11.781,5.219,22.613,12.315,32.563,20.36
					c19.896,16.194,36.369,36.002,50.985,56.806c14.567,20.893,27.266,42.996,38.739,65.663
					c11.495,22.664,21.737,45.928,31.194,69.484c18.829,47.158,34.371,95.54,47.904,144.421
					c13.484,48.905,24.897,98.355,34.764,148.095C2165.228,1541.657,2181.074,1744.774,2181.616,1947.483z M2168.897,1947.483
					c0.154-101.049-3.721-202.122-12.148-302.82c-8.335-100.692-20.962-201.088-39.716-300.372
					c-9.372-49.634-20.283-98.987-33.255-147.793c-13.018-48.782-28.041-97.065-46.319-144.103
					c-18.413-46.904-39.756-92.987-68.075-134.633c-14.235-20.677-30.295-40.319-49.578-56.305
					c-9.635-7.945-20.099-14.928-31.431-20.071c-11.318-5.084-23.516-8.403-35.917-8.731c-12.391-0.399-24.776,2.08-36.241,6.789
					c-11.508,4.661-22.065,11.519-31.687,19.436c-19.253,15.966-34.84,36.039-48.39,57.144c-13.52,21.196-25.032,43.671-35.3,66.673
					c-10.288,23.006-19.289,46.591-27.503,70.441c-16.342,47.745-29.439,96.586-40.635,145.824
					c-11.167,49.256-20.372,98.959-28.192,148.871c-15.584,99.848-25.734,200.514-32.192,301.369
					c-6.504,100.869-8.863,201.969-8.696,303.028c-0.207,101.045,3.229,202.116,10.796,302.884
					c7.63,100.75,19.282,201.246,36.697,300.756c8.722,49.745,18.911,99.237,31.109,148.22
					c12.22,48.966,26.393,97.473,43.838,144.772c8.726,23.642,18.304,46.96,29.074,69.698c10.813,22.703,22.761,44.89,36.694,65.726
					c13.953,20.744,29.833,40.43,49.108,56.057c9.631,7.751,20.122,14.467,31.477,19.067c11.318,4.614,23.476,7.168,35.654,6.762
					c12.178-0.305,24.175-3.513,35.299-8.609c11.141-5.131,21.409-12.181,30.827-20.214c18.856-16.162,34.397-36.092,48.107-57.013
					c27.24-42.165,47.448-88.684,64.791-135.935c17.212-47.385,31.23-95.934,43.326-144.931
					c12.063-49.016,22.131-98.53,30.771-148.288c17.281-99.532,28.792-200.039,36.438-300.791
					C2165.356,2149.63,2168.926,2048.551,2168.897,1947.483z"/>
				<path style="fill:#FFFFFF;" d="M2692.89,1947.483c-0.666,130.445-17.402,260.95-52.288,386.75
					c-35.467,125.517-88.923,246.298-161.567,354.746c-36.323,54.165-77.484,105.156-123.478,151.424
					c-45.981,46.248-96.825,87.781-152.05,122.559c-55.274,34.642-114.975,62.375-177.472,81.195
					c-62.458,18.866-127.662,28.715-192.932,28.796c-65.27-0.03-130.49-9.828-192.977-28.651
					c-62.523-18.775-122.267-46.471-177.59-81.083c-55.271-34.748-106.181-76.25-152.224-122.482
					c-46.06-46.252-87.286-97.232-123.681-151.397c-72.768-108.46-126.32-229.285-161.927-354.855
					c-35.155-125.827-51.842-256.471-52.387-387c0.321-65.285,4.67-130.541,13.3-195.247c8.67-64.695,21.724-128.818,39.303-191.694
					c35.683-125.526,89.304-246.283,162.111-354.647c36.409-54.123,77.641-105.056,123.698-151.254
					c46.043-46.173,96.92-87.642,152.185-122.297c55.307-34.536,115.038-62.058,177.469-80.828
					c62.392-18.843,127.524-28.68,192.722-28.759c65.194,0.125,130.313,10.009,192.679,28.892
					c62.405,18.814,122.093,46.381,177.351,80.949c55.212,34.689,106.03,76.187,152.007,122.377
					c45.994,46.216,87.158,97.157,123.491,151.281c72.686,108.352,126.215,229.063,161.754,354.538
					C2675.34,1686.552,2692.148,1817.039,2692.89,1947.483z M2678.31,1947.483c-0.233-129.188-16.372-258.507-50.503-383.2
					c-34.351-124.493-86.078-244.646-157.206-352.685c-35.545-53.963-75.908-104.821-121.108-151.045
					c-45.213-46.155-95.155-87.889-149.747-122.593c-54.657-34.516-113.679-62.277-175.552-81.067
					c-61.841-18.81-126.408-28.693-191.091-28.901c-64.682,0.254-129.237,10.184-191.051,29.033
					c-61.847,18.834-120.826,46.641-175.434,81.188c-54.539,34.737-104.422,76.5-149.569,122.672
					c-45.134,46.241-85.428,97.108-120.905,151.072c-71.003,108.026-122.634,228.133-156.844,352.575
					c-17.025,62.295-29.38,125.817-37.738,189.819c-8.371,64.01-12.509,128.56-12.667,193.131
					c0.194,64.571,4.364,129.117,12.768,193.118c8.394,63.992,20.792,127.499,37.852,189.772
					c34.286,124.399,85.986,244.438,157.031,352.368c35.487,53.922,75.787,104.742,120.915,150.929
					c45.151,46.112,95.001,87.844,149.533,122.488c54.592,34.471,113.558,62.103,175.313,80.931
					c61.723,18.872,126.185,28.84,190.795,29.142c64.61-0.253,129.089-10.169,190.838-28.997
					c61.782-18.783,120.79-46.378,175.431-80.821c54.582-34.614,104.494-76.314,149.707-122.41
					c45.193-46.171,85.563-96.981,121.118-150.902c71.17-107.943,122.969-228.027,157.393-352.478
					C2661.787,2205.971,2678.001,2076.672,2678.31,1947.483z"/>
				<path style="fill:#FFFFFF;" d="M828.27,1502.065l258.598-1.765l258.599-1.009l517.197-0.81l517.2,0.891l258.598,1.097
					l258.599,1.911c0.354,0.002,0.643,0.293,0.64,0.649c-0.003,0.352-0.289,0.636-0.64,0.638l-258.599,1.911l-258.598,1.097
					l-517.2,0.891l-517.197-0.809l-258.599-1.01l-258.598-1.765c-0.532-0.003-0.958-0.436-0.952-0.965
					C827.321,1502.493,827.745,1502.069,828.27,1502.065z"/>
				<path style="fill:#FFFFFF;" d="M1128.275,1068.934l183.599-1.77l183.596-1.003c61.201-0.427,122.398-0.382,183.599-0.514
					l183.596-0.296l367.198,0.892l183.596,1.095c61.201,0.651,122.398,1.031,183.599,1.911c0.354,0.006,0.64,0.298,0.633,0.653
					c-0.003,0.349-0.286,0.629-0.633,0.634c-61.201,0.881-122.398,1.262-183.599,1.911l-183.596,1.096l-367.198,0.891
					l-183.596-0.296c-61.201-0.131-122.398-0.085-183.599-0.513l-183.596-1.003l-183.599-1.771
					c-0.528-0.005-0.955-0.438-0.948-0.967C1127.329,1069.36,1127.753,1068.94,1128.275,1068.934z"/>
				<path style="fill:#FFFFFF;" d="M738.401,1935.196l281.067-1.765l281.064-1.009l562.131-0.81l562.131,0.891l281.067,1.097
					l281.064,1.911c0.358,0.002,0.643,0.293,0.64,0.648c0,0.353-0.289,0.637-0.64,0.639l-281.064,1.911l-281.067,1.097
					l-562.131,0.891l-562.131-0.809l-281.064-1.01l-281.067-1.765c-0.528-0.003-0.955-0.435-0.952-0.965
					C737.453,1935.624,737.88,1935.2,738.401,1935.196z"/>
				<path style="fill:#FFFFFF;" d="M828.27,2368.327l258.598-1.764l258.599-1.009l517.197-0.81l517.2,0.891l258.598,1.097
					l258.599,1.911c0.354,0.002,0.643,0.293,0.64,0.648c-0.003,0.353-0.289,0.636-0.64,0.639l-258.599,1.911l-258.598,1.097
					l-517.2,0.891l-517.197-0.809l-258.599-1.01l-258.598-1.765c-0.532-0.003-0.958-0.436-0.952-0.965
					C827.321,2368.755,827.745,2368.332,828.27,2368.327z"/>
				<path style="fill:#FFFFFF;" d="M2634.058,2805.777H1165.277c-1.857,0-3.36-1.505-3.36-3.36s1.503-3.36,3.36-3.36h1468.781
					c1.857,0,3.36,1.505,3.36,3.36S2635.916,2805.777,2634.058,2805.777z"/>
			</g>
		</g>
		<g>
			
				<linearGradient id="SVGID_00000011738710054989176960000010429536301785129617_" gradientUnits="userSpaceOnUse" x1="1512.853" y1="3019.6333" x2="1621.6185" y2="3041.8191">
				<stop  offset="0" style="stop-color:#09005D"/>
				<stop  offset="1" style="stop-color:#1A0F91"/>
			</linearGradient>
			<path style="fill:url(#SVGID_00000011738710054989176960000010429536301785129617_);" d="M1626.734,3016.742l-95.501-23.235
				c0,0-22.263,7.072-18.095,40.344c4.168,33.272,98.59,24.74,98.59,24.74L1626.734,3016.742z"/>
			
				<linearGradient id="SVGID_00000144303906194392927770000010634175233992345269_" gradientUnits="userSpaceOnUse" x1="2811.5864" y1="2377.4675" x2="2152.9678" y2="3251.1443">
				<stop  offset="0" style="stop-color:#FF928E"/>
				<stop  offset="1" style="stop-color:#FE7062"/>
			</linearGradient>
			<path style="fill:url(#SVGID_00000144303906194392927770000010634175233992345269_);" d="M2460.211,2627.956
				c182.088,40.563,315.354,131.435,368.009,142.31c52.655,10.875,228.3,37.667,263.309,68.548
				c35.009,30.88,13.247,60.593,58.259,100.297c52.179,135.971-97.335,180.92-97.335,180.92l-1369.04,24.241
				c0,0-92.151,10.69-95.901-55.223c-3.75-65.914,17.83-99.815,21.147-159.347c3.317-59.531,3.347-62.525,15.781-93.673
				c12.433-31.148,140.843-37.813,164.965-72.722c24.122-34.909,52.483-90.323,158.1-111.694
				C2093.386,2622.095,2354.592,2604.427,2460.211,2627.956z"/>
			
				<linearGradient id="SVGID_00000175316267578386055980000005760761970967852696_" gradientUnits="userSpaceOnUse" x1="1694.374" y1="2603.0588" x2="1675.666" y2="2902.3911">
				<stop  offset="0" style="stop-color:#E1473D"/>
				<stop  offset="1" style="stop-color:#E9605A"/>
			</linearGradient>
			<path style="fill:url(#SVGID_00000175316267578386055980000005760761970967852696_);" d="M1580.076,3085.331
				c4.312,75.762,132.52,59.006,133.079,58.941c0,0,100.183-80.877-40.339-74.243c-42.28,0.001-85.694-21.273-85.694-21.273
				L1580.076,3085.331z"/>
			
				<linearGradient id="SVGID_00000163771934812402667450000018022583181277100948_" gradientUnits="userSpaceOnUse" x1="3070.0388" y1="2689.0388" x2="3051.3308" y2="2988.3704">
				<stop  offset="0" style="stop-color:#E1473D"/>
				<stop  offset="1" style="stop-color:#E9605A"/>
			</linearGradient>
			<path style="fill:url(#SVGID_00000163771934812402667450000018022583181277100948_);" d="M3158.997,2972.787
				c0,0,1.843,19.304-33.878,39.993c-44.276,25.644-200.905,2.754-200.905,2.754l-15.202,100.799l147.159,3.698
				C3052.76,3121.056,3248.896,3104.663,3158.997,2972.787z"/>
			
				<linearGradient id="SVGID_00000148638064420666196970000004152585416883077771_" gradientUnits="userSpaceOnUse" x1="2413.2603" y1="1738.2294" x2="2659.1067" y2="1323.8029" gradientTransform="matrix(0.998 -0.0625 0.0625 0.998 -69.7186 355.0107)">
				<stop  offset="0" style="stop-color:#09005D"/>
				<stop  offset="1" style="stop-color:#1A0F91"/>
			</linearGradient>
			<path style="fill:url(#SVGID_00000148638064420666196970000004152585416883077771_);" d="M1847.102,2974.581
				c78.436-4.915,139.416,51.165,144.455,131.584c5.039,80.42-75.624,145.376-126.899,148.589
				c-51.274,3.213-157.264-24.423-163.428-122.793S1772.988,2979.225,1847.102,2974.581z"/>
			
				<linearGradient id="SVGID_00000044143734372897389850000000292854386802206396_" gradientUnits="userSpaceOnUse" x1="2633.6306" y1="-88.8235" x2="2879.4753" y2="-503.2472" gradientTransform="matrix(0.5777 -0.8162 0.8162 0.5777 1521.6566 5408.0801)">
				<stop  offset="0" style="stop-color:#09005D"/>
				<stop  offset="1" style="stop-color:#1A0F91"/>
			</linearGradient>
			<path style="fill:url(#SVGID_00000044143734372897389850000000292854386802206396_);" d="M2822.033,3012.073
				c41.184-58.189,120.8-60.208,180.461-17.983c59.662,42.226,54.314,127.052,27.392,165.092
				c-26.922,38.039-111.782,92.744-184.76,41.093S2783.118,3067.056,2822.033,3012.073z"/>
			<path style="fill:#BDD0FB;" d="M1835.49,3050.248c40.398-2.531,71.806,26.352,74.401,67.772s-38.95,74.875-65.359,76.53
				c-26.409,1.655-80.998-12.579-84.173-63.244C1757.185,3080.641,1797.318,3052.64,1835.49,3050.248z"/>
			<path style="fill:#BDD0FB;" d="M2924.526,3041.983c31.927-2.001,56.75,20.827,58.801,53.562
				c2.051,32.735-30.783,59.176-51.654,60.483c-20.871,1.308-64.015-9.941-66.524-49.983
				C2862.639,3066.004,2894.357,3043.874,2924.526,3041.983z"/>
			<path style="fill:#91B3FA;" d="M1815.143,2862.016c0,0-5.299-34.317,29.78-77.464s55.472-71.535,83.102-79.422
				c27.629-7.888,230.481-41.313,244.411-19.993c13.93,21.32,34.59,153.898,34.59,153.898L1815.143,2862.016z"/>
			<path style="fill:#BDD0FB;" d="M1931.622,2701.394c22.718-3.987,195.36-28.593,240.219-24.003l12.719,44.21l-369.592,140.401
				c0,0-2.511-28.291,15.399-56.711C1860.457,2757.543,1907.856,2705.01,1931.622,2701.394z"/>
			<path style="fill:#91B3FA;" d="M2233.329,2683.534c6.303,25.561,30.316,150.352,30.316,150.352l440.149-13.407
				c0,0-142.058-123.93-249.25-141.357C2347.353,2661.694,2229.374,2670.039,2233.329,2683.534z"/>
			<path style="fill:#BDD0FB;" d="M2439.25,2670.048c-87.203-9.815-119.001-6.704-209.876,3.625l9.712,36.204
				c0,0,134.872-30.088,261.577-17.979C2500.663,2691.898,2467.716,2673.252,2439.25,2670.048z"/>
			
				<linearGradient id="SVGID_00000005266290592246816880000011564037505658340257_" gradientUnits="userSpaceOnUse" x1="3380.3945" y1="2621.0701" x2="2362.2241" y2="2879.45" gradientTransform="matrix(1.0938 -0.0685 0.0625 0.998 -616.7436 389.3108)">
				<stop  offset="0" style="stop-color:#E1473D"/>
				<stop  offset="1" style="stop-color:#E9605A"/>
			</linearGradient>
			<path style="fill:url(#SVGID_00000005266290592246816880000011564037505658340257_);" d="M2063.944,3023.834
				c76.33-4.815,694.691-11.458,698.69-3.125c2.76,5.75-530.621,10.741-665.502,13.047
				C2036.978,3034.919,2044.341,3025.063,2063.944,3023.834z"/>
			<path style="fill:#BDD0FB;" d="M3091.529,2838.814c0,0-71.911-21.023-87.852,35.81c-15.196,54.178,146.111,64.486,146.111,64.486
				S3135.863,2859.679,3091.529,2838.814z"/>
		</g>
		
			<linearGradient id="SVGID_00000090259658756181519260000004219418811071709104_" gradientUnits="userSpaceOnUse" x1="423.1981" y1="3055.5869" x2="3154.6953" y2="761.1259" gradientTransform="matrix(1.1026 -0.0019 -0.0019 1.0824 62.761 -77.7966)">
			<stop  offset="0" style="stop-color:#FF928E"/>
			<stop  offset="1" style="stop-color:#FE7062"/>
		</linearGradient>
		<path style="opacity:0.62;fill:url(#SVGID_00000090259658756181519260000004219418811071709104_);" d="M969.354,1976.956
			c173.951-189.998,447.629-245.986,693.633-172.025c44.264,13.308,87.446,30.749,133.038,38.727
			c148.948,26.064,320.873-7.285,443.212,107.062c13.878,12.972,27.046,28.439,45.584,33.267
			c26.602,6.927,52.789-10.366,75.916-25.133c105.299-67.235,243.309-102.895,367.979-81.868
			c129.212,21.793,212.257-4.95,326.205-81.983c20.323-13.739,41.365-30.426,46.762-54.041c9.97-43.621-36.563-77.586-76.607-98.673
			c91.304-7.975,184.055,51.384,213.328,136.526c6.029,17.537,9.6,36.337,6.543,54.631c-4.613,27.608-23.525,50.693-42.939,71.22
			c-52.218,55.211-116.892,104.021-192.594,115.877c-118.928,18.624-202.404,30.091-316.594,70.271
			c-111.831,39.35-217.466,94.902-317.256,157.915c-49.008,30.947-96.551,65.815-151.647,84.356
			c-136.716,46.007-241.301-32.375-371.854-34.934c-146.596-2.873-208.077,69.788-322.165,138.288
			c-74.004,44.433-167.081,36.083-253.651,33.563c-184.303-5.364-316.328,96.746-212.607,277.629
			c16.636,29.012,56.121,35.644,90.067,34.268c33.955-1.376,70.153-7.11,100.206,8.353c47.78,24.584,54.951,87.062,77.473,135.187
			c27.388,58.521,85.914,101.856,150.808,111.663c-84.734-17.378-169.467-34.756-254.201-52.134
			c-56.695-11.627-114.224-23.542-165.478-49.932c-62.663-32.264-112.08-84.11-160.225-134.984
			c-130.137-137.517-169.864-265.473-38.534-417.747c50.85-58.959,60.866-89.506,52.799-176.482
			c-4.728-50.972-18.412-103.95-0.451-152.079c8.346-22.364,23.036-41.892,38.598-60.184
			C959.502,1987.915,964.387,1982.38,969.354,1976.956z"/>
		<g>
			
				<linearGradient id="SVGID_00000070829612021090719270000008595873040242161031_" gradientUnits="userSpaceOnUse" x1="2119.7524" y1="1845.7139" x2="2227.281" y2="407.5053">
				<stop  offset="0" style="stop-color:#FF928E"/>
				<stop  offset="1" style="stop-color:#FE7062"/>
			</linearGradient>
			<path style="fill:url(#SVGID_00000070829612021090719270000008595873040242161031_);" d="M2232.564,1271.294
				c-23.107-14.582-66.416,5.062-62.797,32.344c-13.725-34.737-25.123-72.481-49.516-100.587
				c-24.394-28.105-61.329-48.089-99.122-42.687c-47.297,6.76-82.853,51.438-94.8,97.614c-11.947,46.175-5.574,94.154-0.995,141.04
				c1.152,11.796,2.096,24.2-2.712,35.26c-4.248,9.772-12.47,17.28-18.841,25.891c-25.151,34-18.315,82.68,4.863,116.364
				c23.178,33.685,59.329,55.783,94.466,76.946c-38.22,55.067,1.908,130.381,56.031,166.357
				c54.123,35.977,66.81,9.885,129.792,35.127c62.982,25.241,113.796,88.713,113.796,88.713s118.818-159.881,71.148-276.155
				c-20.324-28.32-20.041-66.54-17.343-101.902s6.739-72.606-7.884-104.336c-14.624-31.73-56.087-53.487-86.719-34.387
				c-7.022-26.501-1.33-54.882-0.615-82.542C2262.031,1316.693,2255.67,1285.876,2232.564,1271.294z"/>
			<path style="fill:#FFFFFF;" d="M2322.013,1905.52c-0.827,0-1.604-0.51-1.9-1.334c-32.576-90.063-78.754-187.491-123.409-281.709
				c-58.369-123.155-113.499-239.48-139.554-338.548c-0.282-1.08,0.361-2.184,1.441-2.468c1.099-0.299,2.186,0.364,2.471,1.441
				c25.957,98.704,81.011,214.864,139.298,337.843c44.695,94.305,90.912,191.821,123.553,282.066
				c0.381,1.05-0.164,2.208-1.211,2.588C2322.473,1905.482,2322.243,1905.52,2322.013,1905.52z"/>
			<path style="fill:#FFFFFF;" d="M2190.726,1609.822c-0.292,0-0.584-0.062-0.863-0.194c-0.774-0.366-78.258-37.382-162.669-108.327
				c-0.856-0.719-0.965-1.994-0.249-2.848c0.725-0.856,2.002-0.961,2.848-0.246c83.991,70.589,161.029,107.403,161.796,107.766
				c1.011,0.477,1.441,1.683,0.965,2.693C2192.209,1609.395,2191.48,1609.822,2190.726,1609.822z"/>
			<path style="fill:#FFFFFF;" d="M2157.077,1531.928c-0.184,0-0.371-0.025-0.555-0.079c-1.073-0.307-1.697-1.426-1.388-2.499
				c0.207-0.729,20.815-73.628,18.698-137.362c-0.036-1.116,0.84-2.051,1.956-2.087c1.139-0.085,2.051,0.837,2.087,1.953
				c2.133,64.38-18.646,137.874-18.856,138.609C2158.767,1531.35,2157.956,1531.928,2157.077,1531.928z"/>
			<path style="fill:#FFFFFF;" d="M2263.733,1762.955c-0.22,0-0.446-0.036-0.666-0.113
				c-91.237-31.839-170.105-87.399-170.889-87.957c-0.912-0.646-1.125-1.908-0.479-2.819c0.643-0.907,1.906-1.125,2.815-0.479
				c0.784,0.555,79.207,55.793,169.885,87.438c1.053,0.368,1.611,1.521,1.244,2.574
				C2265.351,1762.433,2264.57,1762.955,2263.733,1762.955z"/>
			<path style="fill:#FFFFFF;" d="M2252.409,1731.88c-0.105,0-0.213-0.008-0.322-0.025c-1.103-0.176-1.854-1.211-1.677-2.313
				c0.151-0.958,15.151-96.855,9.27-186.68c-0.072-1.113,0.771-2.076,1.887-2.148c1.021-0.098,2.074,0.768,2.149,1.885
				c5.907,90.287-9.162,186.615-9.316,187.576C2254.243,1731.172,2253.383,1731.88,2252.409,1731.88z"/>
		</g>
		<g>
			
				<linearGradient id="SVGID_00000031176916497599931210000012924751415627743621_" gradientUnits="userSpaceOnUse" x1="2502.1123" y1="1531.2922" x2="3019.5979" y2="939.8795">
				<stop  offset="0" style="stop-color:#FEBBBA"/>
				<stop  offset="1" style="stop-color:#FF928E"/>
			</linearGradient>
			<path style="fill:url(#SVGID_00000031176916497599931210000012924751415627743621_);" d="M2541.933,1558.138
				c-6.706-17.56-38.653-24.611-47.915-8.099c6.773-24.786,16.069-50.267,14.234-75.803c-1.836-25.536-13.926-51.774-36.961-64.39
				c-28.827-15.789-66.833-5.86-92.458,14.633c-25.625,20.492-41.909,49.536-58.729,77.237c-4.232,6.969-8.829,14.188-16.039,18.293
				c-6.37,3.628-13.994,4.369-21.053,6.482c-27.872,8.343-44.19,37.963-45.325,66.068c-1.135,28.106,9.651,55.185,20.265,81.331
				c-43.758,14.55-52.734,72.567-37.779,114.699c14.956,42.133,32.703,33.003,56.965,72.88
				c24.261,39.878,26.053,95.783,26.053,95.783s131.368-39.006,153.089-122.683c0.493-23.975,16.416-44.9,32.489-63.255
				c16.073-18.355,33.662-37.192,38.701-60.693c5.038-23.501-8.814-52.583-33.557-54.704c7.066-17.487,21.908-30.763,33.711-45.697
				C2539.427,1595.287,2548.638,1575.697,2541.933,1558.138z"/>
			<path style="fill:#FFFFFF;" d="M2307.082,1957.004c-0.194,0-0.39-0.033-0.584-0.105c-0.87-0.322-1.313-1.288-0.991-2.158
				c52.98-143.12,90.449-294.823,108.363-438.711c0.115-0.922,0.938-1.565,1.874-1.46c0.922,0.115,1.575,0.953,1.46,1.874
				c-17.943,144.142-55.478,296.105-108.547,439.462C2308.408,1956.585,2307.765,1957.004,2307.082,1957.004z"/>
			<path style="fill:#FFFFFF;" d="M2371.41,1744.913c-0.637,0-1.247-0.366-1.529-0.984c-0.243-0.535-24.539-54.423-37.4-129.219
				c-0.157-0.916,0.459-1.783,1.372-1.941c0.922-0.151,1.785,0.456,1.943,1.37c12.781,74.345,36.901,127.865,37.144,128.398
				c0.384,0.843,0.01,1.841-0.833,2.225C2371.88,1744.865,2371.643,1744.913,2371.41,1744.913z"/>
			<path style="fill:#FFFFFF;" d="M2387.88,1685.45c-0.522,0-1.034-0.243-1.362-0.699c-0.545-0.753-0.374-1.803,0.381-2.345
				c0.397-0.286,40.028-28.997,67.206-63.411c0.578-0.728,1.635-0.848,2.36-0.277c0.729,0.576,0.853,1.633,0.279,2.361
				c-27.476,34.789-67.481,63.765-67.882,64.054C2388.566,1685.346,2388.222,1685.45,2387.88,1685.45z"/>
			<path style="fill:#FFFFFF;" d="M2337.909,1871.018c-0.574,0-1.132-0.295-1.447-0.825c-33.797-57.237-56.99-129.686-57.22-130.412
				c-0.282-0.884,0.21-1.829,1.093-2.11c0.896-0.286,1.831,0.208,2.11,1.093c0.23,0.722,23.312,72.819,56.912,129.719
				c0.473,0.799,0.207,1.83-0.594,2.302C2338.497,1870.942,2338.201,1871.018,2337.909,1871.018z"/>
			<path style="fill:#FFFFFF;" d="M2347.609,1834.857c-0.473,0-0.938-0.197-1.273-0.583c-0.604-0.704-0.528-1.764,0.177-2.369
				c0.506-0.436,50.943-44.145,87.716-93.927c0.558-0.746,1.615-0.902,2.349-0.354c0.748,0.551,0.906,1.605,0.354,2.35
				c-37.003,50.093-87.719,94.039-88.228,94.475C2348.39,1834.722,2348,1834.857,2347.609,1834.857z"/>
		</g>
	</g>
</g>
</svg>
