<?xml version="1.0" encoding="utf-8"?>
<!-- Generator: Adobe Illustrator 27.5.0, SVG Export Plug-In . SVG Version: 6.00 Build 0)  -->
<svg version="1.1" xmlns="http://www.w3.org/2000/svg" xmlns:xlink="http://www.w3.org/1999/xlink" x="0px" y="0px"
	 viewBox="0 0 3710 3710" style="enable-background:new 0 0 3710 3710;" xml:space="preserve">
<g id="Background">
	<g>
		<g>
			<rect style="fill:#FFFFFF;" width="3710" height="3710"/>
		</g>
	</g>
</g>
<g id="Illustration">
	<g>
		<linearGradient id="SVGID_1_" gradientUnits="userSpaceOnUse" x1="3598.6851" y1="4057.0874" x2="1123.3972" y2="982.9353">
			<stop  offset="0" style="stop-color:#DAE3FE"/>
			<stop  offset="1" style="stop-color:#E9EFFD"/>
		</linearGradient>
		<path style="fill:url(#SVGID_1_);" d="M2917.718,2844.753c-56.856,59.856-110.653,98.456-153.157,128.953
			c-499.625,358.487-1090.815,253.99-1216.46,228.47c-185.537-37.684-544.177-110.525-803.467-415.445
			c-392.284-461.318-331.2-1188.112-26.918-1667.879c55.658-87.758,349.66-574.832,947.217-652.944
			c361.635-47.272,783.185,48.07,1088.461,303.83C3394.193,1306.602,3348.575,2391.16,2917.718,2844.753z"/>
		<g>
			<rect x="2560.858" y="1077.566" style="fill:#7D97F4;" width="131.263" height="1645.838"/>
			<g>
				<path style="fill:#FFFFFF;" d="M3031.994,1216.565l-178.861,338.275c-8.34,15.685-23.908,27.449-40.631,27.804l-368.333,7.82
					c-17.33,0.368-33.513-11.026-42.202-26.686l-88.565-160.451l-101.126-182.83c-8.847-15.947-8.847-36.107,0-52.107
					l189.691-343.755c8.688-15.713,24.872-25.894,42.202-25.633l368.333,5.553c16.723,0.252,32.292,10.555,40.631,26.189
					l70.13,131.896l108.731,203.968C3040.188,1181.971,3040.188,1201.178,3031.994,1216.565z"/>
				
					<linearGradient id="SVGID_00000020396081912785938100000009424284743262234518_" gradientUnits="userSpaceOnUse" x1="2766.3459" y1="369.1369" x2="2726.5542" y2="597.9395">
					<stop  offset="0" style="stop-color:#E1473D"/>
					<stop  offset="1" style="stop-color:#E9605A"/>
				</linearGradient>
				<path style="fill:url(#SVGID_00000020396081912785938100000009424284743262234518_);" d="M3005.598,1183.128L2826.28,847.919
					c-2.838-5.314-8.088-8.147-13.771-8.223l-368.346-4.949c-5.885-0.079-11.324,2.66-14.268,7.995l-189.216,342.636
					c-2.995,5.427-2.995,11.978,0,17.387l189.216,342.647c2.944,5.317,8.383,9.425,14.268,9.309l368.346-7.217
					c5.683-0.111,10.932-4.414,13.771-9.745l179.319-337.256C3008.387,1195.263,3008.387,1188.35,3005.598,1183.128z"/>
				<g>
					<path style="fill:#FFFFFF;" d="M2430.197,1203.342c-5.682-7.735-16.178-15.435-31.526-23.108
						c-11.629-5.822-18.996-9.837-22.116-12.089c-3.12-2.229-5.386-4.557-6.82-6.96c-1.41-2.403-2.127-5.244-2.127-8.476
						c0-5.199,1.757-9.427,5.295-12.661c3.537-3.232,8.595-4.861,15.2-4.863c5.539-0.002,11.19,0.748,16.908,2.25
						c5.737,1.477,12.968,4.115,21.712,7.889l11.197-28.44c-8.436-3.856-16.511-6.867-24.269-9.006
						c-7.742-2.117-15.88-3.193-24.44-3.202c-17.394-0.018-31.066,4.343-40.954,13.113c-9.897,8.753-14.862,20.822-14.862,36.152
						c0,8.152,1.508,15.254,4.524,21.33c3.014,6.075,7.048,11.415,12.098,15.973c5.027,4.555,12.594,9.319,22.655,14.265
						c10.744,5.327,17.854,9.183,21.34,11.62c3.483,2.436,6.112,4.972,7.91,7.584c1.799,2.636,2.698,5.664,2.698,9.035
						c0,6.063-2.029,10.658-6.111,13.737c-4.105,3.104-9.967,4.69-17.61,4.734c-6.377,0.036-12.534-0.992-20.238-3.087
						c-7.708-2.097-22.419-5.684-27.393-10.865v34.138c9.948,6.89,28.25,10.233,45.822,10.109
						c19.043-0.135,33.44-4.724,44.098-13.764c10.649-9.055,15.759-21.365,15.759-36.936
						C2438.946,1220.579,2435.875,1211.072,2430.197,1203.342z"/>
					<path style="fill:#FFFFFF;" d="M2457.617,1105.387v30.607l49.74-0.025v147.668l39.792-0.29v-147.405l44.766-0.035v-30.43
						L2457.617,1105.387z"/>
					<path style="fill:#FFFFFF;" d="M2748.252,1127.374c-12.958-15.049-31.688-22.593-56.239-22.619
						c-24.606-0.026-43.521,7.46-56.759,22.449c-13.232,15.008-19.853,36.774-19.853,65.262c0,28.487,6.599,50.287,19.808,65.431
						c13.193,15.102,32.062,22.571,56.58,22.397c24.484-0.173,43.235-7.878,56.306-23.078
						c13.055-15.204,19.566-36.848,19.566-64.968C2767.661,1164.033,2761.195,1142.429,2748.252,1127.374z M2691.789,1249.969
						c-13.5,0.077-23.641-4.682-30.436-14.305c-6.801-9.629-10.203-23.977-10.203-43.065c0-19.088,3.424-33.505,10.315-43.199
						c6.863-9.711,17.049-14.554,30.548-14.559c26.88-0.009,40.283,19.17,40.283,57.514
						C2732.296,1230.603,2718.825,1249.815,2691.789,1249.969z"/>
					<path style="fill:#FFFFFF;" d="M2905.477,1120.859c-8.542-7.613-20.506-12.857-35.905-13.892
						c-2.451-0.169-6.042-1.187-8.649-1.189l-50.153-0.074v175.683l34.818-0.138v-65.161l13.825-0.075
						c19.497-0.081,34.541-4.651,45.088-14.338c10.536-9.654,15.815-23.394,15.815-41.558
						C2920.315,1142.664,2915.375,1129.674,2905.477,1120.859z M2879.105,1182.482c-5.074,4.38-12.778,8.466-23.052,8.497
						l-10.466,0.048v-55.136l14.687-0.022c9.101-0.003,15.799,2.549,20.057,6.557c4.278,4.006,6.399,11.43,6.399,19.826
						C2886.73,1170.577,2884.2,1178.128,2879.105,1182.482z"/>
				</g>
			</g>
		</g>
		
			<linearGradient id="SVGID_00000160187555171293155540000007118943739783186617_" gradientUnits="userSpaceOnUse" x1="1888.6853" y1="2459.9685" x2="2027.156" y2="957.5494">
			<stop  offset="0" style="stop-color:#4F52FF"/>
			<stop  offset="1" style="stop-color:#4042E2"/>
		</linearGradient>
		<path style="fill:url(#SVGID_00000160187555171293155540000007118943739783186617_);" d="M3134.93,3255.764H577.339
			c-67.566,0-122.339-54.773-122.339-122.34v-555.26c0-22.918,18.579-41.498,41.498-41.498h2744.77c3.867,0,7.001,3.135,7.001,7.001
			v598.757C3248.269,3205.02,3197.525,3255.764,3134.93,3255.764z"/>
		<g>
			<path style="fill:#7D97F4;" d="M1485.158,963.571c-0.193-11.071-4.817-21.603-12.838-29.237
				c-8.02-7.634-18.767-11.734-29.835-11.38l-895.56,28.616c-22.794,0.728-40.697,19.772-40.018,42.568l44.188,1483.184
				c0.672,22.508,19.225,40.343,41.741,40.124l877.56-8.535c11.023-0.107,21.547-4.611,29.236-12.511
				c7.689-7.9,11.904-18.542,11.713-29.564L1485.158,963.571z"/>
			<g style="opacity:0.56;">
				<path style="fill:#BDD0FB;" d="M1391.729,1032.349h-797.5c-7.756,0-13.981,6.021-13.901,13.376l0.762,70.571
					c0.08,7.386,6.476,15.825,14.255,15.833l799.771,0.879c7.918,0.009,14.046-8.473,13.792-15.927l-2.427-71.238
					C1406.228,1038.421,1399.624,1032.349,1391.729,1032.349z"/>
				<path style="fill:#BDD0FB;" d="M1396.907,1186.162l-800.972-1.333c-7.79-0.013-14.025,7.422-13.944,14.841l0.768,71.155
					c0.08,7.451,6.489,14.515,14.302,14.537l803.263,2.218c7.952,0.022,14.156-7.071,13.9-14.59l-2.448-71.803
					C1411.52,1193.7,1404.836,1186.175,1396.907,1186.162z"/>
				<path style="fill:#BDD0FB;" d="M1402.311,1346.56l-804.595-2.736c-7.825-0.027-14.13,3.589-14.049,11.072l0.775,71.777
					c0.081,7.516,6.503,13.197,14.349,13.232l806.785,3.591c7.988,0.036,14.269-5.641,14.01-13.227l-2.47-72.437
					C1416.859,1350.279,1410.276,1346.588,1402.311,1346.56z"/>
				<path style="fill:#BDD0FB;" d="M1407.581,1502.992l-808.129-4.117c-7.859-0.039-14.175,5.056-14.093,12.605l0.783,72.406
					c0.081,7.582,6.516,11.857,14.396,11.905l810.338,4.986c8.023,0.049,14.382-4.185,14.12-11.838l-2.491-73.079
					C1422.244,1508.241,1415.582,1503.033,1407.581,1502.992z"/>
				<path style="fill:#BDD0FB;" d="M1412.897,1660.798l-811.694-5.522c-7.893-0.053-14.221,6.55-14.138,14.165l0.789,73.045
					c0.082,7.65,6.589,15.938,14.505,16l814.047,6.456c8.06,0.064,14.31-8.199,14.047-15.92l-2.514-73.73
					C1427.678,1667.605,1420.934,1660.852,1412.897,1660.798z"/>
				<path style="fill:#BDD0FB;" d="M1418.261,1819.996l-815.291-6.951c-7.927-0.067-14.267,8.069-14.183,15.752l0.796,73.693
					c0.083,7.717,6.602,14.595,14.553,14.672l817.665,7.901c8.096,0.078,14.424-6.74,14.159-14.53l-2.536-74.389
					C1433.159,1828.389,1426.333,1820.065,1418.261,1819.996z"/>
				<path style="fill:#BDD0FB;" d="M1423.859,1986.169l-819.046-8.456c-7.964-0.083-14.375,4.101-14.291,11.852l0.804,74.348
					c0.084,7.786,6.616,13.229,14.602,13.32l821.315,9.372c8.132,0.093,14.541-5.253,14.272-13.113l-2.559-75.057
					C1438.689,1990.611,1431.97,1986.252,1423.859,1986.169z"/>
				<path style="fill:#BDD0FB;" d="M1429.32,2148.257l-822.708-9.937c-7.999-0.096-14.422,5.626-14.337,13.447l0.81,75.012
					c0.085,7.855,6.63,11.838,14.651,11.943l824.997,10.869c8.17,0.107,14.659-3.739,14.388-11.67l-2.582-75.734
					C1444.27,2154.292,1437.467,2148.355,1429.32,2148.257z"/>
				<path style="fill:#BDD0FB;" d="M1434.829,2311.795l-826.403-11.444c-8.035-0.111-14.469,7.178-14.384,15.068l0.817,75.686
					c0.086,7.926,6.706,16.065,14.765,16.186l828.842,12.445c8.208,0.124,14.585-7.896,14.312-15.897l-2.605-76.42
					C1449.901,2319.45,1443.013,2311.908,1434.829,2311.795z"/>
			</g>
		</g>
		<g>
			<path style="fill:#91B3FA;" d="M2110.373,1577.959c-0.209-7.058-9.357-12.738-20.568-12.738h-680.024
				c-11.362,0-23.431,5.854-23.431,13.009v999.384c0,5.34,4.804,10.461,10.809,14.232c6.005,3.771,14.861,5.882,23.342,5.868
				l687.472-1.182c8.554-0.014,16.919-2.191,22.903-6.041c5.984-3.851,9.353-9.065,9.192-14.451L2110.373,1577.959z"/>
			<g style="opacity:0.57;">
				<polygon style="fill:#FFFFFF;" points="1719.844,1636.046 1497.393,1635.561 1497.476,1618.034 1719.678,1618.476 				"/>
				<polygon style="fill:#FFFFFF;" points="1720.454,1700.602 1497.088,1699.961 1497.172,1682.29 1720.287,1682.888 				"/>
				<polygon style="fill:#FFFFFF;" points="1721.069,1765.692 1496.78,1764.891 1496.865,1747.074 1720.9,1747.833 				"/>
				<polygon style="fill:#FFFFFF;" points="1721.689,1831.324 1496.471,1830.36 1496.556,1812.396 1721.519,1813.315 				"/>
				<polygon style="fill:#FFFFFF;" points="1722.314,1897.502 1496.158,1896.373 1496.244,1878.259 1722.143,1879.343 				"/>
				<polygon style="fill:#FFFFFF;" points="1723.58,2031.525 1495.525,2030.058 1495.613,2011.64 1723.406,2013.059 				"/>
				<polygon style="fill:#FFFFFF;" points="1725.52,2236.838 1494.556,2234.843 1494.646,2215.953 1725.341,2217.899 				"/>
				<polygon style="fill:#FFFFFF;" points="1722.945,1964.233 1495.843,1962.937 1495.93,1944.672 1722.772,1945.922 				"/>
				<polygon style="fill:#FFFFFF;" points="1724.221,2099.386 1495.205,2097.747 1495.293,2079.172 1724.046,2080.764 				"/>
				<polygon style="fill:#FFFFFF;" points="1724.868,2167.822 1494.882,2166.005 1494.97,2147.274 1724.691,2149.041 				"/>
				<polygon style="fill:#FFFFFF;" points="1726.177,2306.446 1494.228,2304.269 1494.318,2285.217 1725.997,2287.344 				"/>
				<polygon style="fill:#FFFFFF;" points="1726.84,2376.65 1493.896,2374.288 1493.987,2355.073 1726.659,2357.384 				"/>
				<polygon style="fill:#FFFFFF;" points="1727.51,2447.462 1493.562,2444.911 1493.653,2425.531 1727.326,2428.029 				"/>
				<polygon style="fill:#FFFFFF;" points="1728.184,2518.884 1493.225,2516.142 1493.317,2496.594 1727.999,2499.284 				"/>
				<polygon style="fill:#FFFFFF;" points="2011.495,1636.681 1787.647,1636.193 1787.406,1618.611 2011.001,1619.056 				"/>
				<polygon style="fill:#FFFFFF;" points="2013.311,1701.444 1788.537,1700.798 1788.293,1683.071 2012.813,1683.673 				"/>
				<polygon style="fill:#FFFFFF;" points="2015.142,1766.743 1789.434,1765.937 1789.188,1748.063 2014.639,1748.825 				"/>
				<polygon style="fill:#FFFFFF;" points="2016.988,1832.588 1790.339,1831.619 1790.09,1813.596 2016.481,1814.52 				"/>
				<polygon style="fill:#FFFFFF;" points="2018.849,1898.982 1791.251,1897.846 1791,1879.673 2018.338,1880.763 				"/>
				<polygon style="fill:#FFFFFF;" points="2022.619,2033.448 1793.097,2031.972 1792.843,2013.492 2022.099,2014.921 				"/>
				<polygon style="fill:#FFFFFF;" points="2028.395,2239.454 1795.926,2237.447 1795.666,2218.492 2027.862,2220.45 				"/>
				<polygon style="fill:#FFFFFF;" points="2020.726,1965.933 1792.17,1964.628 1791.918,1946.303 2020.211,1947.561 				"/>
				<polygon style="fill:#FFFFFF;" points="2024.528,2101.537 1794.032,2099.886 1793.776,2081.25 2024.005,2082.853 				"/>
				<polygon style="fill:#FFFFFF;" points="2026.453,2170.202 1794.975,2168.375 1794.716,2149.58 2025.925,2151.359 				"/>
				<polygon style="fill:#FFFFFF;" points="2030.353,2309.301 1796.885,2307.109 1796.622,2287.992 2029.816,2290.133 				"/>
				<polygon style="fill:#FFFFFF;" points="2032.328,2379.749 1797.853,2377.37 1797.587,2358.088 2031.786,2360.416 				"/>
				<polygon style="fill:#FFFFFF;" points="2034.321,2450.806 1798.828,2448.239 1798.561,2428.791 2033.774,2431.306 				"/>
				<polygon style="fill:#FFFFFF;" points="2036.33,2522.48 1799.813,2519.72 1799.542,2500.103 2035.778,2502.81 				"/>
			</g>
		</g>
		<g>
			<g>
				<g>
					<path style="fill:#91B3FA;" d="M873.194,1879.289c-14.808-30.851-25.401-63.147-27.872-98.311
						c-6.225-88.601,45.28-170.193,83.118-246.477c34.776-70.112,60.623-174.584-56.72-165.287
						c-93.486,7.407-203.391,100.572-215.931,197.722c-14.839,114.98,41.136,259.974-25.229,364.418
						c-92.842,146.113-159.811,112.628-159.811,359.194c0,105.356,58.357,163.47,125.199,195.479
						c105.501,50.522,231.302,30.108,315.36-51.24c74.261-71.867,118.415-175.18,103.482-278.903
						C999.707,2051.126,917.543,1971.683,873.194,1879.289z"/>
					<path style="fill:#BDD0FB;" d="M794.754,2673.806c-2.261,0-4.318-1.53-4.894-3.822
						c-58.188-232.269-89.863-442.835-94.145-625.85c-3.428-146.623,10.619-276.037,41.748-384.648
						c53.261-185.813,137.028-245.648,140.567-248.105c2.291-1.584,5.439-1.021,7.026,1.27c1.591,2.291,1.022,5.436-1.269,7.025
						c-1.167,0.82-84.976,61.303-137.001,243.929c-48.216,169.257-78.183,480.82,52.867,1003.923
						c0.677,2.705-0.966,5.447-3.671,6.124C795.572,2673.757,795.158,2673.806,794.754,2673.806z"/>
				</g>
				<path style="fill:#7D97F4;" d="M966.346,1619.358c-4.521-1.226-9.486-1.609-14.774-1.001
					c-29.245,3.363-41.255,34.203-49.846,58.317c-7.358,20.65-16.029,45.714-11.684,68.085
					c4.698,24.187,30.384,43.917,49.022,19.359c21.185-27.914,52.975-70.771,53.167-107.761
					C992.327,1637.971,982.003,1623.605,966.346,1619.358z"/>
			</g>
			<g>
				<path style="fill:#BDD0FB;" d="M1289.224,2273.636c13.239-87.219-18.46-187.351-34.281-279.584
					c-8.365-48.766-12.234-97.162-4.402-146.292c7.787-48.847,30.739-101.678,9.577-150.345
					c-42.643-98.046-144.013-53.426-202.081,20.385c-67.383,85.653-85.803,225.617-111.397,333.392
					c-15.429,64.973-38.671,131.616-46.809,197.825c-13.482,109.681,11.317,185.829,63.784,237.254
					c50.324,49.325,126.967,59.552,188.529,25.267C1207.757,2480.566,1267.866,2414.339,1289.224,2273.636z"/>
				<path style="fill:#7D97F4;" d="M1057.313,2680.012c-2.419,0-4.555-1.745-4.973-4.21c-0.22-1.323-22.282-134.458-22.861-318.144
					c-0.532-169.607,17.655-418.33,107.334-640.069c1.045-2.582,3.973-3.84,6.573-2.787c2.583,1.045,3.832,3.988,2.787,6.573
					c-89.064,220.221-107.127,467.548-106.598,636.252c0.575,182.868,22.499,315.184,22.723,316.499
					c0.46,2.749-1.39,5.354-4.141,5.815C1057.875,2679.99,1057.592,2680.012,1057.313,2680.012z"/>
			</g>
		</g>
		<g>
			
				<linearGradient id="SVGID_00000026859709667839345980000012692601281410060203_" gradientUnits="userSpaceOnUse" x1="1656.1305" y1="2581.8459" x2="1962.3805" y2="2315.9805">
				<stop  offset="0" style="stop-color:#FF928E"/>
				<stop  offset="1" style="stop-color:#FE7062"/>
			</linearGradient>
			<path style="fill:url(#SVGID_00000026859709667839345980000012692601281410060203_);" d="M1648.534,2514.363
				c3.979-1.481,139.58-129.103,139.58-129.103l60.431-7.677l160.422-64.853c13.175-5.326,30.204-4.217,41.497,2.702l0,0
				c2.995,1.835,2.534,5.015-0.934,6.453l-192.141,79.687l-53.061,6.717l-98.753,103.633l-47.165,2.879L1648.534,2514.363z"/>
			
				<linearGradient id="SVGID_00000145046809740448915110000013598033311896558476_" gradientUnits="userSpaceOnUse" x1="1392.5991" y1="2121.2263" x2="1947.9418" y2="990.345">
				<stop  offset="0" style="stop-color:#09005D"/>
				<stop  offset="1" style="stop-color:#1A0F91"/>
			</linearGradient>
			<path style="fill:url(#SVGID_00000145046809740448915110000013598033311896558476_);" d="M819.421,2443.536l-52.755,42.683
				c-14.649,11.85-6.751,37.013,11.566,36.84l870.302-9.026l-236.248-139.641l-406.899,1.821
				C938.29,2376.513,873.082,2400.118,819.421,2443.536z"/>
			
				<linearGradient id="SVGID_00000054973358151466064220000015083648009666938011_" gradientUnits="userSpaceOnUse" x1="1164.7043" y1="3091.928" x2="1359.8964" y2="2526.5435">
				<stop  offset="0" style="stop-color:#FF928E"/>
				<stop  offset="1" style="stop-color:#FE7062"/>
			</linearGradient>
			<path style="fill:url(#SVGID_00000054973358151466064220000015083648009666938011_);" d="M2087.211,2821.051
				c-0.792-7.131,7.547-24.898,6.731-31.971c-2.611-22.632-37.482-48.348-45.433-68.99c-9.969-25.884-31.48-36.298-48.798-57.211
				c-13.166-15.9,57.206-28.4,40.385-40.385l-20.192-55.529c-68.16-48.562-155.955-52.345-237.26-60.577l-134.11,7.646
				l-870.302,9.026c-18.317,0.173-26.215-24.99-11.566-36.84l52.755-42.683c53.661-43.418,118.869-67.023,185.966-67.323
				l406.899-1.821l-3.057-1.359c-24.499-10.892-50.752-16.44-77.242-16.322l-383.185,1.715c-23.282,0.104-46.415,3.972-68.629,11.47
				l-287.691,116.357c-14.222,4.803-26.897,13.835-36.571,26.059l-59.202,74.818c-12.322,15.573-19.05,35.404-18.958,55.886
				l0.544,121.486c0.144,32.154,106.032,141.543,106.032,141.543c11.508,6.256,24.223,9.487,37.105,9.429l1294.726-5.794
				l137.466-10.28C2092.992,2896.454,2091.911,2863.325,2087.211,2821.051z"/>
			
				<linearGradient id="SVGID_00000042696487037186907480000005234735074246674317_" gradientUnits="userSpaceOnUse" x1="523.2349" y1="2548.7571" x2="584.363" y2="2603.241">
				<stop  offset="0" style="stop-color:#E1473D"/>
				<stop  offset="1" style="stop-color:#E9605A"/>
			</linearGradient>
			<path style="fill:url(#SVGID_00000042696487037186907480000005234735074246674317_);" d="M592.884,2576.208l-0.403-89.954
				c-14.222,4.803-26.897,13.835-36.571,26.059l-59.202,74.818c-10.287,13-16.607,28.983-18.384,45.821l81.208-14.236
				C578.834,2615.335,592.978,2597.305,592.884,2576.208z"/>
			
				<linearGradient id="SVGID_00000132059112229522462260000016388697664938249614_" gradientUnits="userSpaceOnUse" x1="1431.516" y1="2370.4702" x2="1407.0029" y2="2669.5295">
				<stop  offset="0" style="stop-color:#FF928E"/>
				<stop  offset="1" style="stop-color:#FE7062"/>
			</linearGradient>
			<path style="fill:url(#SVGID_00000132059112229522462260000016388697664938249614_);" d="M1505.508,2510.717l-30.744-31.94
				c-12.811-13.31-28.9-22.363-46.346-26.076l-60.582-12.896c-16.625-3.539-32.466,9.093-34.202,27.275l-0.408,4.271
				c-1.768,18.519,11.857,34.558,29.112,34.269l77.967-1.305c10.873-0.182,20.786,6.709,25.129,17.468l1.452,3.598
				c1.928,4.776,6.305,7.857,11.132,7.835l19.173-0.086C1508.036,2533.081,1513.322,2518.835,1505.508,2510.717z"/>
			
				<linearGradient id="SVGID_00000139273016548662228750000011561459719501368510_" gradientUnits="userSpaceOnUse" x1="1296.3854" y1="2471.7642" x2="1217.944" y2="2711.9915">
				<stop  offset="0" style="stop-color:#E1473D"/>
				<stop  offset="1" style="stop-color:#E9605A"/>
			</linearGradient>
			<path style="fill:url(#SVGID_00000139273016548662228750000011561459719501368510_);" d="M1192.241,2570.227l133.453-0.597
				c10.409-0.046,17.797,11.081,14.235,21.63c-6.026,17.848-20.468,40.644-55.024,43.454c-31.078,2.527-70.349-16.289-99.985-34.201
				C1171.485,2592.393,1176.846,2570.296,1192.241,2570.227z"/>
			
				<linearGradient id="SVGID_00000027570546893516611010000016144328541078971812_" gradientUnits="userSpaceOnUse" x1="1009.7284" y1="2538.5068" x2="691.0588" y2="3063.0859">
				<stop  offset="0" style="stop-color:#2B3582"/>
				<stop  offset="1" style="stop-color:#150E42"/>
			</linearGradient>
			<circle style="fill:url(#SVGID_00000027570546893516611010000016144328541078971812_);" cx="800.694" cy="2882.61" r="176.172"/>
			
				<linearGradient id="SVGID_00000124155901181958748200000002191766513877196217_" gradientUnits="userSpaceOnUse" x1="229.1037" y1="2391.5896" x2="5937.624" y2="7295.4546">
				<stop  offset="0" style="stop-color:#4042E2"/>
				<stop  offset="1" style="stop-color:#4F52FF"/>
			</linearGradient>
			
				<circle style="opacity:0.41;fill:url(#SVGID_00000124155901181958748200000002191766513877196217_);" cx="800.694" cy="2882.61" r="143.071"/>
			
				<linearGradient id="SVGID_00000018227697780552201380000011367618506833346219_" gradientUnits="userSpaceOnUse" x1="2024.7792" y1="2548.6877" x2="1691.4014" y2="3141.9033">
				<stop  offset="0" style="stop-color:#2B3582"/>
				<stop  offset="1" style="stop-color:#150E42"/>
			</linearGradient>
			
				<circle style="fill:url(#SVGID_00000018227697780552201380000011367618506833346219_);" cx="1839.733" cy="2877.96" r="176.172"/>
			
				<linearGradient id="SVGID_00000023238827215523571900000005358604934986594484_" gradientUnits="userSpaceOnUse" x1="672.5892" y1="1875.3333" x2="6381.1152" y2="6779.2031">
				<stop  offset="0" style="stop-color:#4042E2"/>
				<stop  offset="1" style="stop-color:#4F52FF"/>
			</linearGradient>
			
				<circle style="opacity:0.41;fill:url(#SVGID_00000023238827215523571900000005358604934986594484_);" cx="1839.733" cy="2877.96" r="143.071"/>
			<path style="fill:#BDD0FB;" d="M1956.669,2930.111c-0.434,0-0.874-0.084-1.298-0.261c-1.715-0.717-2.524-2.688-1.807-4.402
				c6.363-15.23,9.551-31.393,9.475-48.039c-0.148-32.936-13.113-63.842-36.507-87.029c-23.259-23.051-54.06-35.728-86.783-35.728
				c-0.191,0-0.378,0-0.565,0.002c-21.096,0.095-41.883,5.605-60.12,15.933c-1.62,0.919-3.674,0.348-4.588-1.27
				c-0.917-1.617-0.348-3.671,1.269-4.586c19.239-10.895,41.164-16.707,63.407-16.807c0.197-0.002,0.401-0.002,0.598-0.002
				c34.515,0,66.992,13.366,91.523,37.678c24.672,24.45,38.344,57.046,38.498,91.779c0.079,17.552-3.283,34.597-9.994,50.661
				C1959.236,2929.332,1957.984,2930.111,1956.669,2930.111z"/>
			<path style="fill:#BDD0FB;" d="M921.087,2934.745c-0.434,0-0.874-0.084-1.298-0.261c-1.716-0.717-2.524-2.688-1.808-4.402
				c6.363-15.23,9.551-31.393,9.475-48.039c-0.148-32.936-13.113-63.842-36.507-87.029c-23.259-23.05-54.06-35.726-86.78-35.726
				c-0.191,0-0.378,0-0.569,0.002c-21.096,0.094-41.886,5.603-60.123,15.931c-1.627,0.917-3.674,0.35-4.588-1.27
				c-0.917-1.617-0.348-3.671,1.269-4.586c19.239-10.895,41.167-16.707,63.41-16.806c0.2-0.002,0.401-0.002,0.601-0.002
				c34.512,0,66.989,13.366,91.519,37.677c24.672,24.45,38.344,57.045,38.498,91.779c0.079,17.552-3.283,34.597-9.994,50.662
				C923.654,2933.966,922.402,2934.745,921.087,2934.745z"/>
			<path style="opacity:0.7;fill:#FFFFFF;" d="M1013.609,2828.247c-1.578,0-2.987-1.114-3.3-2.721
				c-15.946-81.839-62.841-133.767-139.384-154.341c-57.415-15.435-110.91-6.466-111.442-6.376c-1.837,0.309-3.572-0.91-3.891-2.741
				c-0.315-1.831,0.91-3.573,2.741-3.891c0.549-0.094,55.305-9.304,114.124,6.45c54.563,14.612,123.914,54.165,144.458,159.611
				c0.355,1.826-0.835,3.592-2.659,3.947C1014.039,2828.228,1013.823,2828.247,1013.609,2828.247z"/>
			<path style="opacity:0.7;fill:#FFFFFF;" d="M1624.423,2852.357c-1.801,0-3.296-1.428-3.359-3.245
				c-2.333-65.181,14.927-116.342,51.296-152.062c59.999-58.929,152.464-54.679,153.385-54.628c1.857,0.1,3.28,1.684,3.178,3.54
				c-0.099,1.857-1.742,3.254-3.54,3.181c-0.887-0.051-90.491-4.115-148.346,52.747c-34.939,34.339-51.506,83.791-49.248,146.982
				c0.069,1.857-1.384,3.417-3.241,3.484C1624.505,2852.357,1624.466,2852.357,1624.423,2852.357z"/>
			<path style="fill:#91B3FA;" d="M783.692,2504.357c-1.167,0-2.297-0.604-2.922-1.688c-0.927-1.612-0.371-3.669,1.242-4.594
				l117.7-67.669c33.618-19.326,71.876-30.001,110.64-30.87l135.345-3.035c0.026-0.002,0.053-0.002,0.053-0.002
				c1.847,0,3.346,1.458,3.388,3.29c0.04,1.859-1.433,3.398-3.29,3.439l-135.345,3.035c-37.64,0.845-74.794,11.21-107.439,29.978
				l-117.7,67.667C784.838,2504.212,784.26,2504.357,783.692,2504.357z"/>
		</g>
		<g>
			<g>
				<g>
					<g>
						
							<linearGradient id="SVGID_00000057834580375855188110000011692930780351755162_" gradientUnits="userSpaceOnUse" x1="2178.3577" y1="1855.0822" x2="2207.6987" y2="2784.2288">
							<stop  offset="0" style="stop-color:#09005D"/>
							<stop  offset="1" style="stop-color:#1A0F91"/>
						</linearGradient>
						<path style="fill:url(#SVGID_00000057834580375855188110000011692930780351755162_);" d="M2292.5,2822.569
							c0-37.082-30.061-67.143-67.143-67.143h-27.252c-37.082,0-67.144,30.061-67.144,67.143v178.694
							c0,37.083,30.061,67.144,67.144,67.144h27.252c37.082,0,67.143-30.061,67.143-67.144V2822.569z"/>
						
							<linearGradient id="SVGID_00000092450820558652467140000000841734400570626234_" gradientUnits="userSpaceOnUse" x1="3099.5574" y1="1826.0775" x2="3128.8982" y2="2755.2241">
							<stop  offset="0" style="stop-color:#09005D"/>
							<stop  offset="1" style="stop-color:#1A0F91"/>
						</linearGradient>
						<path style="fill:url(#SVGID_00000092450820558652467140000000841734400570626234_);" d="M3214.615,2822.569
							c0-37.082-30.061-67.143-67.144-67.143h-27.251c-37.082,0-67.144,30.061-67.144,67.143v178.694
							c0,37.083,30.061,67.144,67.144,67.144h27.251c37.082,0,67.144-30.061,67.144-67.144V2822.569z"/>
					</g>
					<g>
						
							<linearGradient id="SVGID_00000085972825205883717220000014370829792133533615_" gradientUnits="userSpaceOnUse" x1="2093.9424" y1="2491.1792" x2="2260.5198" y2="2491.1792">
							<stop  offset="0" style="stop-color:#FF928E"/>
							<stop  offset="1" style="stop-color:#FE7062"/>
						</linearGradient>
						<path style="fill:url(#SVGID_00000085972825205883717220000014370829792133533615_);" d="M2216.905,2487.404
							c-2.012-0.446-5.174-2.23-5.174-4.291v-13.798c0-13.296-5.76-25.458-17.633-31.443c-15.317-7.721-32.464-7.99-48.005-0.73
							l-29.205,13.356c-13.625,6.365-22.946,20.043-22.946,35.081v10.521c0,19.365,15.353,35.753,34.542,38.366l118.099,16.008
							l13.937-53.549L2216.905,2487.404z"/>
						
							<linearGradient id="SVGID_00000129913788747191524100000000725977584421451918_" gradientUnits="userSpaceOnUse" x1="-2634.625" y1="2491.1792" x2="-2470.0442" y2="2491.1792" gradientTransform="matrix(-1 0 0 1 620.375 0)">
							<stop  offset="0" style="stop-color:#FF928E"/>
							<stop  offset="1" style="stop-color:#FE7062"/>
						</linearGradient>
						<path style="fill:url(#SVGID_00000129913788747191524100000000725977584421451918_);" d="M3132.625,2487.404
							c2.012-0.446,1.221-2.23,1.221-4.291v-13.798c0-13.296,9.713-25.458,21.586-31.443c15.317-7.721,34.441-7.99,49.982-0.73
							l27.923,13.356c13.625,6.365,21.664,20.043,21.664,35.081v10.521c0,19.365-13.083,35.753-32.271,38.366l-116.964,16.008
							l-15.346-53.549L3132.625,2487.404z"/>
					</g>
					
						<linearGradient id="SVGID_00000087390313253330776410000008471399733059514047_" gradientUnits="userSpaceOnUse" x1="2672.1387" y1="2441.5444" x2="2664.2683" y2="3393.8796">
						<stop  offset="0" style="stop-color:#FF928E"/>
						<stop  offset="1" style="stop-color:#FE7062"/>
					</linearGradient>
					<path style="fill:url(#SVGID_00000087390313253330776410000008471399733059514047_);" d="M3220.749,2605.798
						c-17.022-57.456-104.971-111.315-104.971-111.315s-73.763-227.038-153.201-227.038c-63.786,0-216.955,0-274.845,0
						c0,0-8.492,0-22.696,0c-57.951,0-211.394,0-275.194,0c-79.438,0-153.2,227.038-153.2,227.038s-41.56,25.28-73.071,59.747
						c-14.328,15.673-26.579,33.245-31.9,51.204c-4.684,15.811,15.715,36.832,19.483,75.952c1.348,13.993-1.957,62.258,0,77.404
						c3.626,28.069-39.835,48.417-35.336,75.721c4.316,26.2,42.11,37.763,45.8,57.724c5.433,29.393,33.168,51.651,65.557,51.651
						h437.862h22.696h437.513c32.388,0,60.123-22.077,65.557-51.469C3206.213,2809.051,3233.194,2647.803,3220.749,2605.798z"/>
					
						<linearGradient id="SVGID_00000106136604659874476190000000384342787799818371_" gradientUnits="userSpaceOnUse" x1="2682.4878" y1="2225.1816" x2="2672.8181" y2="3206.6113">
						<stop  offset="0" style="stop-color:#E1473D"/>
						<stop  offset="1" style="stop-color:#E9605A"/>
					</linearGradient>
					<path style="fill:url(#SVGID_00000106136604659874476190000000384342787799818371_);" d="M3209.7,2848.132
						c-4.95-5.663-12.5-8.572-20.489-8.572H2163.208c-7.94,0-15.448,2.869-20.401,8.473c-4.953,5.604-6.813,12.741-5.054,19.733
						l16.79,65.607c2.701,10.732,13.267,17.245,25.455,17.245h991.583c12.083,0,22.587-6.483,25.391-17.096l17.629-66.011
						C3216.457,2860.493,3214.651,2853.795,3209.7,2848.132z"/>
					<g>
						
							<linearGradient id="SVGID_00000145047403910906385340000001798518675622677395_" gradientUnits="userSpaceOnUse" x1="2493.4451" y1="2288.0334" x2="2352.0989" y2="2567.3608">
							<stop  offset="0" style="stop-color:#E1473D"/>
							<stop  offset="1" style="stop-color:#E9605A"/>
						</linearGradient>
						<path style="fill:url(#SVGID_00000145047403910906385340000001798518675622677395_);" d="M2399.104,2743.631
							c0,0-25.533-76.6-57.687-83.22c-32.153-6.62-168.332-34.99-171.168-11.348s-30.262,104.971,51.067,112.536
							C2302.645,2769.165,2412.206,2775.389,2399.104,2743.631z"/>
						
							<linearGradient id="SVGID_00000109719687202452881070000016320647318071199123_" gradientUnits="userSpaceOnUse" x1="3181.8625" y1="2144.5681" x2="3000.4656" y2="3095.6736">
							<stop  offset="0" style="stop-color:#E1473D"/>
							<stop  offset="1" style="stop-color:#E9605A"/>
						</linearGradient>
						<path style="fill:url(#SVGID_00000109719687202452881070000016320647318071199123_);" d="M2953.315,2743.631
							c0,0,25.533-76.6,57.687-83.22c32.153-6.62,168.332-34.99,171.168-11.348c2.837,23.642,30.262,104.971-51.067,112.536
							C3049.775,2769.165,2940.214,2775.389,2953.315,2743.631z"/>
					</g>
					
						<linearGradient id="SVGID_00000026852238045203542700000017741975259040286883_" gradientUnits="userSpaceOnUse" x1="2654.7014" y1="2060.8826" x2="2688.9731" y2="3054.7781">
						<stop  offset="0" style="stop-color:#E1473D"/>
						<stop  offset="1" style="stop-color:#E9605A"/>
					</linearGradient>
					<path style="fill:url(#SVGID_00000026852238045203542700000017741975259040286883_);" d="M2934.977,2676.369
						c-2.642-4.07-7.164-8.443-12.016-8.443h-493.501c-5.026,0-9.684,4.551-12.274,8.857c-2.591,4.306-2.735,10.614-0.381,15.054
						l27.766,52.282c10.303,19.428,30.496,31.5,52.488,31.5h362.606c23.452,0,44.709-13.24,54.26-34.658l22.118-50.278
						C2938.02,2686.25,2937.618,2680.439,2934.977,2676.369z"/>
					<g>
						
							<linearGradient id="SVGID_00000018952076523765537450000004278492710551824307_" gradientUnits="userSpaceOnUse" x1="2730.9995" y1="2230.7551" x2="2872.3379" y2="1524.0609">
							<stop  offset="0" style="stop-color:#09005D"/>
							<stop  offset="1" style="stop-color:#1A0F91"/>
						</linearGradient>
						<path style="fill:url(#SVGID_00000018952076523765537450000004278492710551824307_);" d="M3069.359,2514.475
							c-3.206,4.88-8.653,8.739-14.526,8.739h-757.265c-5.93,0-11.462-3.945-14.639-8.966s-3.575-11.775-1.021-17.165
							c17.193-36.229,49.45-103.525,67.522-141.058c0.823-1.702,1.73-3.66,2.752-5.221c8.738-13.873,24.086-22.782,40.74-22.782
							h572.658c16.823,0,32.229,8.966,40.938,22.952c1.22,1.986,2.326,4.171,3.263,6.327l60.94,140.236
							C3073.075,2502.899,3072.565,2509.566,3069.359,2514.475z"/>
						
							<linearGradient id="SVGID_00000070828055137155031700000007180825470902836103_" gradientUnits="userSpaceOnUse" x1="2984.1743" y1="1825.8278" x2="2529.8691" y2="2608.2419">
							<stop  offset="0" style="stop-color:#4042E2"/>
							<stop  offset="1" style="stop-color:#4F52FF"/>
						</linearGradient>
						<path style="opacity:0.59;fill:url(#SVGID_00000070828055137155031700000007180825470902836103_);" d="M3006.518,2350.974
							c-40.116,7.915-157.995,27.747-335.793,27.747c-179.273,0-284.471-20.285-318.544-28.087
							c8.738-13.873,24.086-22.612,40.74-22.612h572.658C2982.403,2328.021,2997.808,2336.987,3006.518,2350.974z"/>
					</g>
					<g>
						<g>
							<path style="opacity:0.7;fill:#FFFFFF;" d="M2386.901,2639.428c-0.701,0-1.402-0.257-1.95-0.775l-98.154-92.885
								c-1.137-1.078-1.187-2.873-0.111-4.012c1.081-1.137,2.876-1.184,4.012-0.111l98.154,92.884
								c1.137,1.078,1.187,2.873,0.111,4.012C2388.405,2639.13,2387.654,2639.428,2386.901,2639.428z"/>
						</g>
						<g>
							<path style="opacity:0.7;fill:#FFFFFF;" d="M2958.291,2639.428c-0.752,0-1.503-0.298-2.061-0.886
								c-1.077-1.139-1.027-2.934,0.111-4.012l98.154-92.884c1.139-1.073,2.936-1.026,4.012,0.111
								c1.076,1.139,1.026,2.934-0.111,4.012l-98.154,92.885C2959.693,2639.171,2958.992,2639.428,2958.291,2639.428z"/>
						</g>
					</g>
				</g>
			</g>
		</g>
		<g>
			
				<linearGradient id="SVGID_00000109740353375949837610000014186108561998220207_" gradientUnits="userSpaceOnUse" x1="2297.6926" y1="2694.1721" x2="2296.6062" y2="2825.6538">
				<stop  offset="0" style="stop-color:#09005D"/>
				<stop  offset="1" style="stop-color:#1A0F91"/>
			</linearGradient>
			<polygon style="fill:url(#SVGID_00000109740353375949837610000014186108561998220207_);" points="2273.99,2669.608 
				2238.654,2715.041 2312.692,2715.041 2273.99,2763.839 2356.442,2708.31 2280.721,2699.896 			"/>
			
				<linearGradient id="SVGID_00000157278441056985665860000018300219757974775944_" gradientUnits="userSpaceOnUse" x1="2268.4966" y1="2731.762" x2="2210.895" y2="2660.2246">
				<stop  offset="0" style="stop-color:#09005D"/>
				<stop  offset="1" style="stop-color:#1A0F91"/>
			</linearGradient>
			<polygon style="fill:url(#SVGID_00000157278441056985665860000018300219757974775944_);" points="2238.654,2715.041 
				2205,2657.829 2253.798,2693.166 			"/>
		</g>
		
			<linearGradient id="SVGID_00000147898527330903586970000000523460249305932453_" gradientUnits="userSpaceOnUse" x1="2306.3176" y1="1613.6598" x2="2306.3176" y2="1775.1981">
			<stop  offset="0" style="stop-color:#FF928E"/>
			<stop  offset="1" style="stop-color:#FE7062"/>
		</linearGradient>
		<polygon style="fill:url(#SVGID_00000147898527330903586970000000523460249305932453_);" points="2179.561,2205.797 
			2251.478,2089.134 2286.213,2109.947 2358.98,1999.551 2433.074,2051.717 2295.358,2177.313 2255.497,2154.005 		"/>
		
			<linearGradient id="SVGID_00000086676096899762294540000006638985835659686539_" gradientUnits="userSpaceOnUse" x1="1693.6433" y1="1570.5063" x2="1797.9707" y2="1843.103">
			<stop  offset="0" style="stop-color:#FF928E"/>
			<stop  offset="1" style="stop-color:#FE7062"/>
		</linearGradient>
		<polygon style="fill:url(#SVGID_00000086676096899762294540000006638985835659686539_);" points="2010.971,2219.992 
			1936.248,2170.743 1956.627,2124.89 1861.525,2021.297 1829.258,2104.511 1909.076,2153.76 1890.395,2214.897 		"/>
		
			<linearGradient id="SVGID_00000023960584909295828530000005345811203330694559_" gradientUnits="userSpaceOnUse" x1="2169.6343" y1="1470.373" x2="2139.3459" y2="1685.7577">
			<stop  offset="0" style="stop-color:#FF928E"/>
			<stop  offset="1" style="stop-color:#FE7062"/>
		</linearGradient>
		<polygon style="fill:url(#SVGID_00000023960584909295828530000005345811203330694559_);" points="2081.122,2209.206 
			2039.306,2093.713 2075.148,2085.748 2047.271,1938.396 2140.859,1938.396 2134.885,2119.6 2083.113,2123.582 		"/>
	</g>
</g>
</svg>
