<?xml version="1.0" encoding="utf-8"?>
<!-- Generator: Adobe Illustrator 26.0.3, SVG Export Plug-In . SVG Version: 6.00 Build 0)  -->
<svg version="1.1" id="Layer_1" xmlns="http://www.w3.org/2000/svg" xmlns:xlink="http://www.w3.org/1999/xlink" x="0px" y="0px"
	 viewBox="0 0 1080 1080" style="enable-background:new 0 0 1080 1080;" xml:space="preserve">
<style type="text/css">
	.st0{fill:#9BC9EB;}
	.st1{fill:#4D598D;}
	.st2{fill:#9BC9EB;stroke:#4D598D;stroke-width:16;stroke-linecap:round;stroke-linejoin:round;stroke-miterlimit:10;}
	.st3{fill:#4D598D;stroke:#4D598D;stroke-width:0.3;stroke-miterlimit:10;}
	.st4{fill:#FFFFFF;}
	.st5{fill:#263A6E;}
	.st6{fill:#0E71B9;}
	.st7{fill:#23376F;}
	.st8{fill:#FFFFFF;stroke:#23376F;stroke-width:24;stroke-linecap:round;stroke-linejoin:round;stroke-miterlimit:10;}
	.st9{fill:#20ADE4;}
	.st10{fill:#EDF4FB;}
	.st11{fill:#234698;}
	.st12{fill-rule:evenodd;clip-rule:evenodd;fill:#0E71B9;}
	.st13{fill-rule:evenodd;clip-rule:evenodd;fill:#EDF4FB;}
	.st14{fill:#C6DEF4;}
	.st15{fill:#ABC7E8;}
	.st16{fill-rule:evenodd;clip-rule:evenodd;fill:#9CC0E6;}
	.st17{fill-rule:evenodd;clip-rule:evenodd;fill:#FFFFFF;}
	.st18{fill-rule:evenodd;clip-rule:evenodd;fill:#BBD4EE;}
	.st19{fill:#568AC8;}
	.st20{fill-rule:evenodd;clip-rule:evenodd;fill:#7AA8D9;}
	.st21{fill:#BBD4EE;}
	.st22{fill-rule:evenodd;clip-rule:evenodd;fill:#F4B1B1;}
	.st23{fill-rule:evenodd;clip-rule:evenodd;fill:#CDDFF3;}
	.st24{fill-rule:evenodd;clip-rule:evenodd;fill:#3050A3;}
	
		.st25{clip-path:url(#SVGID_00000001621521902439088090000012412372640681877933_);fill:url(#SVGID_00000167355511265639207440000018001803472305555375_);}
	.st26{fill-rule:evenodd;clip-rule:evenodd;fill:#25AFA6;}
	.st27{fill-rule:evenodd;clip-rule:evenodd;fill:#5ABEBB;}
	.st28{fill-rule:evenodd;clip-rule:evenodd;fill:#355399;}
	.st29{fill-rule:evenodd;clip-rule:evenodd;fill:#223B74;}
	.st30{fill-rule:evenodd;clip-rule:evenodd;fill:#76A1D5;}
	.st31{fill-rule:evenodd;clip-rule:evenodd;fill:#E98385;}
	.st32{fill:#F4B1B1;}
	.st33{fill:#F5EC79;}
	.st34{fill:#DDE293;}
	.st35{fill-rule:evenodd;clip-rule:evenodd;fill:#F5EC79;}
	.st36{fill-rule:evenodd;clip-rule:evenodd;fill:#DDE293;}
	.st37{fill-rule:evenodd;clip-rule:evenodd;fill:#F3AF8F;}
	.st38{fill-rule:evenodd;clip-rule:evenodd;fill:#7FAADA;}
	.st39{fill-rule:evenodd;clip-rule:evenodd;fill:#929CCF;}
	.st40{fill-rule:evenodd;clip-rule:evenodd;fill:#6E7DBD;}
	.st41{fill:#6E7DBD;}
	.st42{fill-rule:evenodd;clip-rule:evenodd;fill:#E16C6C;}
	.st43{fill:#929CCF;}
	.st44{opacity:0.79;fill-rule:evenodd;clip-rule:evenodd;fill:#FFFFFF;}
	.st45{fill:#11497F;}
	.st46{fill:#C4E8FA;}
	.st47{fill:none;stroke:#4F74B9;stroke-width:9.983;stroke-linecap:round;stroke-linejoin:round;stroke-miterlimit:10;}
	.st48{fill:#4F74B9;}
</style>
<g>
	<path class="st8" d="M526.8,165c0,0-178.8,199.6-354.9,199.6c0,471.4,332.7,598.9,332.7,598.9S881.7,836,881.7,364.6
		C705.6,364.6,526.8,165,526.8,165z"/>
	<g>
		<circle class="st9" cx="526.8" cy="586.4" r="155.3"/>
		<path class="st7" d="M526.8,749.8c-90.1,0-163.4-73.3-163.4-163.3s73.3-163.4,163.4-163.4s163.3,73.3,163.3,163.4
			S616.9,749.8,526.8,749.8z M526.8,439.2c-81.2,0-147.2,66-147.2,147.2s66,147.2,147.2,147.2S674,667.6,674,586.4
			S608,439.2,526.8,439.2z"/>
	</g>
	<path class="st4" d="M504.6,638.9c-2.1,0-4.1-0.8-5.7-2.4l-44.4-44.4c-3.2-3.2-3.2-8.3,0-11.4s8.3-3.2,11.4,0l38.6,38.6l83-83
		c3.2-3.2,8.3-3.2,11.4,0c3.2,3.2,3.2,8.3,0,11.4l-88.7,88.7C508.8,638.1,506.7,638.9,504.6,638.9z"/>
</g>
</svg>
