<?xml version="1.0" encoding="utf-8"?>
<!-- Generator: Adobe Illustrator 26.0.3, SVG Export Plug-In . SVG Version: 6.00 Build 0)  -->
<svg version="1.1" id="Layer_1" xmlns="http://www.w3.org/2000/svg" xmlns:xlink="http://www.w3.org/1999/xlink" x="0px" y="0px"
	 viewBox="0 0 1080 1080" style="enable-background:new 0 0 1080 1080;" xml:space="preserve">
<style type="text/css">
	.st0{fill:#9BC9EB;}
	.st1{fill:#4D598D;}
	.st2{fill:#9BC9EB;stroke:#4D598D;stroke-width:16;stroke-linecap:round;stroke-linejoin:round;stroke-miterlimit:10;}
	.st3{fill:#4D598D;stroke:#4D598D;stroke-width:0.3;stroke-miterlimit:10;}
	.st4{fill:#FFFFFF;}
	.st5{fill:#263A6E;}
	.st6{fill:#0E71B9;}
	.st7{fill:#23376F;}
	.st8{fill:#FFFFFF;stroke:#23376F;stroke-width:24;stroke-linecap:round;stroke-linejoin:round;stroke-miterlimit:10;}
	.st9{fill:#20ADE4;}
	.st10{fill:#EDF4FB;}
	.st11{fill:#234698;}
	.st12{fill-rule:evenodd;clip-rule:evenodd;fill:#0E71B9;}
	.st13{fill-rule:evenodd;clip-rule:evenodd;fill:#EDF4FB;}
	.st14{fill:#C6DEF4;}
	.st15{fill:#ABC7E8;}
	.st16{fill-rule:evenodd;clip-rule:evenodd;fill:#9CC0E6;}
	.st17{fill-rule:evenodd;clip-rule:evenodd;fill:#FFFFFF;}
	.st18{fill-rule:evenodd;clip-rule:evenodd;fill:#BBD4EE;}
	.st19{fill:#568AC8;}
	.st20{fill-rule:evenodd;clip-rule:evenodd;fill:#7AA8D9;}
	.st21{fill:#BBD4EE;}
	.st22{fill-rule:evenodd;clip-rule:evenodd;fill:#F4B1B1;}
	.st23{fill-rule:evenodd;clip-rule:evenodd;fill:#CDDFF3;}
	.st24{fill-rule:evenodd;clip-rule:evenodd;fill:#3050A3;}
	
		.st25{clip-path:url(#SVGID_00000079452441813491432730000010527674028219158168_);fill:url(#SVGID_00000028289984727386687580000010670160736589631153_);}
	.st26{fill-rule:evenodd;clip-rule:evenodd;fill:#25AFA6;}
	.st27{fill-rule:evenodd;clip-rule:evenodd;fill:#5ABEBB;}
	.st28{fill-rule:evenodd;clip-rule:evenodd;fill:#355399;}
	.st29{fill-rule:evenodd;clip-rule:evenodd;fill:#223B74;}
	.st30{fill-rule:evenodd;clip-rule:evenodd;fill:#76A1D5;}
	.st31{fill-rule:evenodd;clip-rule:evenodd;fill:#E98385;}
	.st32{fill:#F4B1B1;}
	.st33{fill:#F5EC79;}
	.st34{fill:#DDE293;}
	.st35{fill-rule:evenodd;clip-rule:evenodd;fill:#F5EC79;}
	.st36{fill-rule:evenodd;clip-rule:evenodd;fill:#DDE293;}
	.st37{fill-rule:evenodd;clip-rule:evenodd;fill:#F3AF8F;}
	.st38{fill-rule:evenodd;clip-rule:evenodd;fill:#7FAADA;}
	.st39{fill-rule:evenodd;clip-rule:evenodd;fill:#929CCF;}
	.st40{fill-rule:evenodd;clip-rule:evenodd;fill:#6E7DBD;}
	.st41{fill:#6E7DBD;}
	.st42{fill-rule:evenodd;clip-rule:evenodd;fill:#E16C6C;}
	.st43{fill:#929CCF;}
	.st44{opacity:0.79;fill-rule:evenodd;clip-rule:evenodd;fill:#FFFFFF;}
	.st45{fill:#11497F;}
	.st46{fill:#C4E8FA;}
	.st47{fill:none;stroke:#4F74B9;stroke-width:9.983;stroke-linecap:round;stroke-linejoin:round;stroke-miterlimit:10;}
	.st48{fill:#4F74B9;}
</style>
<g>
	<g>
		<path class="st4" d="M400.3,947.3c0,0,2.2,0.8,3.1,0.3c1-0.5,3.3-2,3.8-1.4c0.5,0.7,0.8,1.2,1.5,1.2s3.5,1.6,4.9,2.3
			c1.5,0.7,2.2,0.5,2.3,0.3c1.4,0.8,2.4,1.8,3.3,3.1c1.4,1.8,1,2.2,3.7,2.2c3,0.1,6.1,0.8,9,2c1.8,1,5.8-0.5,6.1-0.7
			c0.3-0.1-0.5-2.9-0.7-3.7c-0.1-0.8,1-3.3,1.8-3.3s4.6,2,5.2,2.2c0.5,0.1,0.5-5.2,0.8-5.8c1-1.4,2.3-2.3,3.8-3
			c0.8-0.1,1.5-0.5,2.2-1c0.8-0.7,2.3-2.6,2.3-3c0-0.4-4.3-7.1-4.1-7.5c0.1-0.3,2.3-3,2.2-3.5c-0.1-0.5-2.4-4.5-2.3-4.9
			c0.1-0.5,2.4-1.5,3.3-1.2c0.8,0.3,6.9,2.4,7.5,2.6c0.5,0.1,1.6,2.3,2.4,2.6c0.8,0.3,2.9,0.5,3.1-0.1c0.3-0.7,3.7-4.9,3.7-5.8
			s0.1-6.1,0-6.4c-0.1-0.3-4.3-5.4-4.3-6s0-3.3-0.5-3.5c-0.5-0.1-1.4-0.3-1.5-0.8c-0.1-0.5-2.3-3.3-3.1-4.1c-0.8-0.8-2.6-2.3-3-2.6
			c0-1,0-2,0.5-2.9c0.5-1.5,0.1-3.1-0.8-4.3c-1.4-1.6-3.7-6.9-2-6.7c2.9,0.3,5.8,0.3,8.6,0.1c0.5-0.1,2.6-1.4,3-2.2
			c1.4-3.3,2.3-6.7,3.1-10.1c0-1.2,1.5-2.2,2-2.6c1.4-1.2,2.6-2.2,4.3-3c0.7,0,4.6,1.8,5.6,1.8s3.7-3.3,3.9-3.5
			c0.3-0.1,5.6,3.5,6.7,3.7c2.6-0.3,5.4-0.7,8.2-1.4c0.5-0.1,3.8-4.5,4.5-4.5c0.5,0,7.3-0.5,7.6-0.7c0.3-0.1-0.5-5.4,0.3-6.9
			c0.8-1.4,1.5-2.6,2.2-4.1c0.3-0.7,0-1.4-0.7-1.6c-0.8-0.5-2-1.5-2-2.2c0-1.8,0.3-3.8,0.8-5.6c0.5-0.5,3.3-1.4,3.7-1.6
			c1.4-1.8,2.4-3.7,3.5-5.6c0.1-0.7,0-6-0.5-6.4s-2-1.6-2-2.4c0-0.8,0.1-3.3,0.8-3.7c0.7-0.3,3.1-2.6,3.3-3c0.1-0.3,0-3,1.2-3.1
			c1.2-0.3,2.3-1,3.3-1.8c0.3-0.5,0-2.9,0-3.1s5.3-5.6,5.3-6.8s0.8-9.8-0.3-10.7c-1.2-1-1.5-1.8-0.8-2.3c0.7-0.5,3.7-2.9,4.5-2.4
			c0.8,0.3,1.5-0.7,1.8-1.6c0.8-2.3,1.6-4.5,2.6-6.7c0.5-0.5,1.6,1,4.9,1.5c3.3,0.5,6.1-1,6.4-0.8c0.3,0.1,1.6,2.6,2.3,2.9
			c1.6-0.1,3.1-0.7,4.5-1.6c0.5-0.7,0.5-1.6,0.8-2c0.7-0.3,1.2-1,1.5-1.6c0.1-0.8-0.7-7.3,0-7.5c2-0.8,3.8-2,5.4-3.1
			c0.1-0.5,1.2-3.7,1.8-3.7c0.7,0,4.5-0.1,4.9-1.2c0.4-1.1-0.8-6.8,0-7.5c0.8-0.7,1.2-1.2,1-1.8c-0.1-0.7-0.5-2.4,0-2.4s1,0,1.2-1
			s0-10.5,0-10.9c-1.6-3.3-3.8-6.4-6.1-9.2c-1.2-1-4.9-3.8-5.3-4.8c-0.3-1.8-0.5-3.7-0.7-5.4c0-0.7-1.6-1-2.4-1.5
			c-0.8-0.5-1.4-1.4-0.8-1.8c1.2-1.2,2.3-2.4,3.3-3.8c0-0.3-0.7-22.3-1-23.1c-1.5-1.6-3-3.3-4.8-4.6c-0.3-0.3-4.1-0.5-4.8,0
			c-0.7,0.5-0.1,1.4-1,1.2s-9.7-3.9-10.1-4.1c-0.5-0.1-2.6,3.3-2.9,4.1c-0.5,1.4-1.4,2.3-2.4,3.1c-1.2,0.5-2.6,0.8-3.9,0.8
			c-2.2-0.1-4.1-0.5-6.3-1c-1.2-0.5-2.3-1.4-3.1-2.4c-2.2-5.2-3.9-10.5-5.6-15.8c-0.5-2.4-4.5-18.9-5.2-20.7c-0.7-1.8-4.6-1-6.3-1
			c-2.2-0.1-4.5-0.7-6.4-1.5c-0.7-0.3-2.3-4.5-1.5-5.4c1-1.2,1.4-2.9,1.2-4.3c-0.3-1.4-2.3-3.8-3.3-5.6c-1-1.8-2-6.4-3.3-6.8
			c-1.4-0.3-2.4-1-3.5-2.2c-1-1.4-1.5-3-1.5-4.6c0.1-1.5,0.5-5.4,0-6.1c-0.7-1.4-1-2.6-1.4-3.9c0-2.9-0.3-5.6-0.8-8.4
			c-0.5-1-2.4-3.7-2.3-4.6c0.1-1,0-3.9,1.5-2.6s2.3,1.6,3.1,0.8c0.8-0.8,1-2.6,1.6-3.1c1.4-1,2.4-2.3,3.3-3.8
			c0.3-1.4-0.5-2.6,0.1-3.3c1-1.2,1.6-2.3,2.3-3.7c-0.7-1.2-1.5-2.3-2.4-3.3c-0.5-0.7-0.8-1.5-1-2.3s-2.3-1.6-3-1.5
			c-0.7,0.1-1.8,0.3-2.2-1c-0.3-1.4-2.2-9.7-3.1-10.6c-0.7-0.8-1.5-1.2-2.4-1.2c-1.5-0.1-1.5-1-1.2-1.6c0.3-0.7-0.8-1.6-1.8-2
			c-1-0.3-1.5-1.6-0.5-2c1.2-0.5,1.8-1.5,2-2.6c0-0.8-1.5-3-1-3.5c0.5-0.5,9.2-2.4,9.7-2.6c0.3-0.1,4.9-3.8,5.6-4.5
			c0.7-0.7-1.8-7.9-2-8.3c-0.1-0.3-3-2-3.1-2.9c-0.1-0.8,1-2.6,0.8-3.3c-0.7-1.4-1.2-2.6-1.6-3.9c0-0.7,2-4.9,2-6.7
			c0-1.8-3.1-5.6-2.6-7.5c0.5-1.8,1.6-9.7,2.6-9.8c1,0,1.8-0.5,2-1.5c0.3-0.8,0-1.6,1.2-1.2c1,0.5,2,1.4,2.4-0.1
			c0.5-1.5-0.8-5.3-1-7.1c-0.1-2-0.1-4.1,0.1-6.1c0.3-1.8-0.1-3.5,0.7-4.1c0.8-0.5,3.7-1.4,3.9-2c0.5-0.7-2.9-8.3-2.2-8.6
			c0.7-0.3,6.1-3.1,6.4-4.1c0.5-1.8,0.8-3.7,1.2-5.4c0-0.3-4.3-15.8-4.3-16.7c-0.1-0.8-0.5-1.5-0.8-2.2c-1.5-1-2.6-2-3.8-3.3
			c-0.5-1-2.4-4.3-2-5.2c0.3-0.8,2-2.4,2-3.1s-1.5-2.3-1-3.3c0.5-1,1.6-1.4,0.8-3.3c-0.8-2-5.4-14.3-6.3-16
			c-0.5-1.5-1.4-2.9-2.2-4.1c-0.5-0.7-8.7-11.6-9.4-12.1c-0.7-0.5-2.2-0.3-3.1-0.7c-1.4-0.3-2.4-1-3.5-1.6c-0.8-1-1.8-1.8-2.9-2.4
			c-1.5-0.7-3.1-1.4-4.6-2c-1-0.5-2-1.4-3-2.2c-0.5-0.7-1.2-1.4-1.8-2c-0.8-0.7-1-1.4-1.6-0.8c-0.8,0.7-1.8,1.4-3,1.8
			c-1.2,0.5-1.8-0.3-2.4-0.3s-4.8-0.1-6-0.1s-2,0.1-2-0.7c0-1-0.1-1.8-0.7-2.6c-0.5-0.8-1.6-2.3-1-2.9c0.7-0.5,0.7-0.8,0.8-2
			c0.1-1.8-0.1-3.5-0.8-5.2c-0.3-0.7-3.8-3.1-4.3-3.7c-0.3-0.7-0.3-1.5,0.1-2c1-1,1.5-2.2,1.8-3.5c0-1.2-6-6.4-5.8-6.8
			c0.3-0.8,0.3-1.8,0.1-2.6c-0.3-0.7-1.4-1-2-3.3c-0.7-2.3-1.5-3.5-1.5-4.1c-0.3-1-1-2-2-2.4c-0.8-0.5-8.7-4.5-9.1-4.8
			c-1-1.6-2-3.3-3.1-4.9c-1-0.8-4.8-1.4-4.9-0.7c-0.1,0.7-0.3,0.7-2,1c-1.6,0.3-3.1,1.4-3.3,2.3c-0.1,1-2,6.8-2.9,7.1
			c-0.8,0.3-7.6,0.1-8.4-0.7c-0.8-0.8-1.4-1.4-2-1c-0.7,0.3-4.6,1.5-4.8,2.4c-0.1,1-1,3.8-1.6,4.1c-0.7,0.3-3-0.8-3.5-1.4
			c-0.5-0.5-1,2-1.4,2.4c-0.3,0.5-4.9,0.1-5.3,0.8c-0.3,0.7-0.3,2.3-1,2.6c-0.7,0.3-4.8-2-4.9-2.4c-0.1-0.5-4.8-4.1-5.3-5.3
			c-0.5-1.2-3.1-7.6-3.7-9c-0.5-1.4,1.5-3.3,1.6-5.2c0.1-1.8-0.7-4.1-0.1-4.1c0.5,0,2.6,1,3,0c0.3-1,0.1-2-0.3-2.9
			c-0.5-0.5-3.1-3.1-2.6-4.8c0.5-1.4,0.7-2.9,0.3-4.1c-0.5-0.7-1.5-0.7-2.3-1.5c-1-1.2-1.8-2.4-2.6-3.8c-0.3-0.5-3.9,0.3-3.9,1.4
			c0,1,0.1,1.6-0.5,2.3c-0.7,0.5-1.4,1.4-1.6,2.2c-0.1,0.8-1,1.5-2,1.5c-1,0.1-2.3,0.1-3,1c-0.7,0.8-7.3,8.7-7.5,9.9
			c-0.1,1.2,0.1,7.9,0,8.4c-0.1,0.5-8.2,4.9-8.3,5.6c0,1.5-0.1,3-0.5,4.5c-0.3,0.5-6,9-6,9.7c0,0.8-0.1,1.6-0.7,2.3
			c-0.7,0.7-3.1,1.4-3.5,2.2c-0.4,0.8-2.4,6.9-3.7,8.2s-7.5,4.1-7.7,4.8c-0.3,0.7-0.1,2.2-0.7,3c-0.5,0.8-1.6,1.5-1.6,2
			c0,0.5,1,4.1,0.8,4.9c-0.1,0.8-5.8,7.5-5.8,8.2s1.4,1.2,0,2.6c-1.4,1.5-16.6,21.6-16.6,22.2c0,0.5,18.5,14.8,19.2,16
			c0.7,1.2-2.9,6.1-3.3,8.2c-0.5,2-1.4,6.3-0.8,7.9s2,7.6,1.5,9.1c-0.5,1.5-2,3.1-1,3.8c1,0.7,2.4,1.8,1,2.4s-4.8,0-5.2,1.5
			s-0.1,4.3,1,4.9c1.2,0.7,3,2.4,0.8,3.1c-2.2,0.7-3.7,1.8-3.1,2.4c0.5,0.7,5.6,4.8,6,5.3c0.3,0.5-1.2,7.1-1,7.5
			c0.1,0.3,2.4,0,3.7-0.3s3.5-0.8,4.3-1c0.8-0.3,1.8-0.5,2.6-0.7c1.5-0.1,2.9,0.1,3.9,0.8c1.8,0.8,3.8,1.5,5.6,1.8
			c1.4,0.3,2.4,0.7,3.7,1.2c0.7,0.5,4.1,3.3,5.4,3.9c1.2,0.7,2.3,1.4,3.3,2.2c1,0.8,2.6,1.8,3.5,2.6c0.8,0.8,2,2.2,2.4,2.6
			c0.7,0.5,1.2,1.2,1.5,1.8c0.1,0.7,0.1,1.5,0,2.2c0,0.7-0.3,1.4-0.8,1.8c-0.7,0.7-1.4,1.2-2.2,1.5c-0.8,0.3-1.5,0.8-2.3,1
			c-0.8,0.1-1.5,0.3-1.5,1.2c0,0.8-0.5,5.3,0,6.1c0.5,1,0.7,2,0.7,3.1c0.1,1.2,0.1,2.4,0.1,3.7c-0.3,0.7-0.5,1.2-0.7,1.8
			c-0.1,0.8-0.3,1.6-0.7,2.3c-0.3,1-0.5,2.2-0.3,3.3c0.5,0.8,1.2,1.4,2,1.6c0.7,0.1,3.7,0.1,3.8,0.5c0.1,0.3-0.7,1.6-0.7,2.3
			c0.1,1.2,0.1,2.3-0.1,3.5c-0.3,0.8-0.5,1.6-1.4,1s-1.8-1-2,0c-0.1,1.2-0.3,2.3-0.7,3.5c-0.5,0.8-0.8,1.2-1.2,2
			c-0.7,1-1.5,1.6-2.3,2.3c-1.2,0.3-2.2,0.7-3.1,1.4c-1.2,0.7-2.4,0.8-3.8,0.7c-1-0.1-3.1-0.1-3.8-0.3c-0.7-0.1-1.4-1-2.4-1.4
			c-1.2-0.3-1.2-0.5-2.4-0.8c-1.4-0.3-2-0.7-1.5,0.3s1.5,1.5,1.6,3c0.1,1.5-0.1,2.4,1.5,3.3c1.4,0.5,2.6,1,4.1,1.2
			c1.6,0.5,2,0.3,2.3,2.3s0,3.3,0.3,4.3c0.3,1.1,0.8,2.2,0.5,3c-0.3,0.8-1.5,4.1-2,5.4c-0.5,1.4-1,2-1.5,3c-0.5,1.2-1.4,2.2-2.2,3
			c-1.2,0.7-2.2,1.6-3,2.6c-0.8,1.4-1.6,2.4-2.2,3.3c-0.7,0.8-1.2,1.8-1.6,2.6c-0.3,0.8-0.7,1.5-1.2,2.2c-0.3,0.1-1.8,0.3-2.2,0.5
			c-0.3,0.1-0.3,0.8,0.3,1.6c0.7,0.8,0.7-0.5,0.5,3.1c-0.1,3.7-0.8,9.1-0.3,10.2c1.2,1.6,2.6,3,4.5,4.1c0.8,0.1,1.5,0,2.2-0.3
			c0.5-0.3,2.3-0.8,3.1-0.3c1.6,1.6,3.1,3.7,4.5,5.6c1.5,2,2.3,4.3,2.4,6.8c0,2.9-0.5,5.4-1.5,8.2c-0.3,0.5-2.4,2.4-2.6,3
			c-0.1,0.5-2.2,2.2-2.2,2.9c-0.3,1.4-0.7,2.4-1.2,3.7c-0.7,1.2-0.5,2.9-1.5,3.8c-1,0.8-2.2,1.5-3.3,2c-1,0.7,0,3,0.3,3.5
			c0.3,0.5,0.5,2.6,0.8,3.7c0.3,0.8,0.5,1.6,0.7,2.4c0.5,1.8,0.7,3.8,0.7,5.8c-0.3,1.2-1,2.4-1.2,3.8c-0.1,1-0.1,2-0.1,3.1
			c-0.1,1-0.1,2-0.5,3c-0.1,1.8-0.1,3.8,0,5.8c0.5,1.2,0.7,1.2,2,2.6c1.4,1.4,1.8,1.5,2.3,2.6c0.5,1.2,0.5,2.4,0.1,3.7
			c-0.3,0.7-6.1,5.8-6.8,6.9c-0.7,1.2-2.2,3.7-2.6,4.6c-0.5,0.8-1,1.6-1.2,2.4c-0.1,0.8-0.5,1.8-0.3,2.3c0.3,0.5,1.4,0.5,1.5,1
			c0.1,0.5-1.2,0.5-2,1c-0.8,0.3-1.4,1.2-1.2,2.2c0,1.2-0.1,2.2-0.3,3.3c-0.8,1.6-1.8,3.1-3,4.6c-0.5,0.7-2.2,1-1.2,2.4
			c0.8,1.2,1.2,2.6,1,4.1c-0.3,1.4-0.7,2.6-0.8,4.1c-0.3,1.8-0.5,3.7-0.5,5.6c0,4.6,0,4.9-0.7,6.4c-0.7,2.2-1.5,4.3-2.4,6.3
			c-1.2,2-2.2,3.5-2.9,4.8c-0.7,1.4-1.6,2-1.8,2.6c-0.1,0.7-1.4,4.1-0.5,5.4c0.7,1.2,3.9,3.8,4.6,4.9c0.7,1,1,2.2,1.4,3.3
			c0.5,1.5,3.1,9.1,3.5,10.1c0.1,1.2,0.7,2.2,1.4,3.1c0.7,0.8,0.1-3.9,0.5-4.6c0.3-0.7,0.5-1.5,1.6-0.8c1.2,0.5,2.3,0.8,3.5,0.8
			c1.5,0.1,3.1,0.5,4.5,1.2c0.5,0.3,1,1.4,1,3.9c-0.1,2.2-0.7,4.1-1.6,6.1c-0.1,0.3-0.7-0.3-1.8-1.2c-1.2-0.8-2.2-1.5-3-0.7
			c-0.8,0.8-2.2,2-1,2.9c2.3,1.6,4.5,3.7,6.4,5.6c0.7,1,1.5,3.5,2.6,4.3c1.2,0.8,3.3,0.8,3.5,1.5c0.3,1.5,0.3,3.1-0.1,4.8
			c-0.5,1.5-1.5,1-1.2,3.5c0.3,2.4,1,5.8,1.2,8.3c0.1,2,0.1,3.9-0.3,5.8c-0.1,1.4-0.8,2.4-1.8,3.3c-1.2,0.7-2.3,1.4-3.7,1.8
			c-1.5,0.3-3.1,0.3-4.6-0.1c-0.5-0.8-1-1.6-1.5-2.3c-0.8-0.8-1-1.4-1.2-4.1c0-2.3-0.3-4.8-1-6.9c-0.5-0.8-3.5-4.1-3.8-4.9
			c-0.8-1-1.6-1.8-2.6-2.6c-0.8-0.8-1.8-1.6-3-2.4c-1.5-0.5-3.1-0.3-4.6,0.3c-0.8,0.5-1.5,1.4-1.8,2.2c-0.1,1.2,0.1,2.4,0.8,3.5
			c1.2,1.4,2.4,2.4,3.8,3.7c1.2,0.8,1.8,1.4,2.9,3.9c1.1,2.6,2.2,3.1,3,6.3c0.8,3.1,1.2,5.3,1.4,6.4c0.7,2.3,1.8,4.3,3.5,6.1
			c2,2.2,3.8,4.3,5.3,6.7c2,2.4,4.1,4.8,6.4,6.8c0,0,9.7,6.4,10.7,7.1c1.2,0.7,8.7,4.3,9.8,5.2c2,2,4.3,3.7,6.7,5.2
			c1.5,1,3.1,1.8,4.8,2.4c1.6,0.3,3.3,0.8,4.8,1.8c0.8,0.8,1.8,1.5,3,1.8c1.5,0.5,4.3,1,5.6,2.2c1.4,1.2,0.7,3.1,3.3,4.6
			c2.2,1.4,4.1,3,6,4.9c0.5,0.7,2,0.8,3.7,1.2c1.6,0.1,3.1,0.7,4.6,1.6c1.6,1.2,3.7,2.2,4.3,3.5c0.7,1.4,2.3,4.9,3.7,7.3
			c1.4,2.3,2.2,6.1,3.5,7.3c1.4,1.2,2.2,1.2,2.4,2.6c0.3,1.5,0.7,2.4,0.5,3c-0.7,1-1.5,1.8-2.3,2.6c-0.5,0.3-1.8,0.8-1.6,1.6
			c0.1,0.8,0.5,3.3,1.5,3.9c1,0.7,2.2,0.5,3.8,1.2c1.4,0.5,2.6,1.2,3.9,2c1.2,0.7,3.5,0.8,5.3,1.8c1.6,0.7,3,2.2,3.1,3.9
			c0.3,2.2-1.5,5.4-1.5,6.1c0,0.7-0.3,1.2-0.3,1.8c-0.3,1-0.7,2-1,3c0.1,1.4-0.1,2.6-0.7,3.9c-0.3,1-1,1.8-1.6,2.4
			c-0.5,0.8-1,1.8-1.4,3c-0.3,0.8-0.5,2,0,2.2c0.5,0.1,2.6,0.8,2.6,1.4s-0.3,0.8-0.8,1.8c-0.3,0.8-0.7,1.6-1,2.4
			c-0.5,1-1,1.4-1.2,2.3C398.8,947,397.2,947,400.3,947.3z"/>
		<path class="st7" d="M433.5,965.6c-1.8,0-3.7-0.3-5.4-1.3c-1.2-0.5-3.4-1-5.6-1.1c0,0,0,0,0,0c-4.2,0-6.9-1.4-9.2-4.8l-0.5-0.6
			c-0.8-0.2-1.6-0.5-2.5-0.9l-1.7-0.9c-0.6-0.3-1.2-0.7-1.8-0.9c-0.3-0.1-0.5-0.1-0.8-0.2c-2.8,1-5.5,0.7-7.4,0.1
			c-2.2-0.2-5.1-0.9-7-4l-2.1-3.4l0.9-2.3l0-0.1l0.5-1.9c0.2-0.8,0.5-1.5,0.8-2.1c-1.3-2.4-1.4-5-0.3-8.2c0.7-2,1.4-3.5,2.3-4.9
			l0.9-1.1l-0.1-1.4l0.6-1.6c0.2-0.6,0.4-1.2,0.6-1.9l0.2-0.6c0.1-0.3,0.1-0.6,0.2-0.8c0.1-1.1,0.4-2,0.7-2.9
			c-1.1-0.3-2.3-0.6-3.6-1.3c-1.2-0.7-2.1-1.2-3-1.6c-1.8-0.4-3.6-0.8-5.4-2.1c-3.2-2.3-4.2-6-4.7-9c-0.2-1.2-0.4-4.2,1.9-7
			c-1.2-1.7-1.9-3.5-2.6-5.2c-0.3-0.8-0.6-1.6-0.9-2.2c-1.1-2.1-2.4-4.6-3.2-6.4l-0.2-0.5c-0.2-0.1-0.4-0.2-0.5-0.4
			c-0.7-0.4-1.3-0.9-1.9-1.3c-0.1,0-0.4-0.1-0.6-0.1l-2.1-0.4c-1.7-0.4-4.5-0.9-6.6-3.3c-1.6-1.6-3-2.7-4.4-3.6
			c-2.7-1.6-4.1-3.7-4.9-5.3c-0.1,0-0.2-0.1-0.3-0.1c-0.6-0.2-1.2-0.3-1.7-0.5c-2-0.5-3.8-1.5-5.5-2.9c-0.4-0.2-0.9-0.3-1.4-0.4
			l-1.7-0.5c-2.2-0.9-4.2-1.9-6-3.1c-2.3-1.5-4.9-3.3-7.4-5.6c-1-0.6-3.7-1.9-5.8-3c-1.4-0.7-2.5-1.3-2.9-1.5
			c-1.5-0.9-11.3-7.4-11.3-7.4l-0.9-0.7c-2.9-2.5-5.3-5.3-7.3-7.7l-0.5-0.7c-1.2-1.8-2.6-3.6-4.4-5.6c-2.4-2.4-4.2-5.5-5.3-9.3
			l-0.3-1.2c-0.1-0.9-0.5-2.8-1.2-5.4c-0.2-0.7-0.3-0.9-0.8-1.7c-0.6-1-1.2-2-1.9-3.5c-0.1-0.3-0.2-0.5-0.3-0.7l-0.6-0.4
			c-1.7-1.6-3.1-2.8-4.4-4.2l-0.8-1.1c-1.6-2.6-2.3-5.5-2-8.6l0.4-1.7c0.8-2.5,2.6-4.7,4.9-6.2l1.7-0.9c3.6-1.3,7-1.4,10-0.3
			l1.7,0.8c1.6,1,2.9,2.2,4.2,3.4c0.8,0.7,1.9,1.8,3,3l1.2,1.7c0.4,0.5,0.9,1.1,1.3,1.6c0,0,0.1,0.1,0.1,0.1c0-1.1,0.2-2.2,0.5-3.1
			c-2-1.8-2.9-3.8-3.6-5.3l0,0c-1.3-1.3-3-2.8-4.6-4c-2.1-1.4-3.5-3.8-3.8-6.4c0-0.3,0-0.6,0-0.9l-1.5-1.7c-1.2-1.7-2.4-3.6-3-6.2
			c-0.5-1.4-1.3-3.8-2.1-5.9l-1.6-4.7c-0.2-0.5-0.6-0.9-1.1-1.3c-1.5-1.5-3-2.9-4-4.6c-2.3-3.8-0.9-8.6-0.3-10.9
			c0.6-2.3,1.7-3.7,2.3-4.4c0.8-1.3,1.4-2.3,2.1-3.5l1.2-2c0.4-0.8,1.1-2.6,1.7-4.5l0.3-0.9c0-0.2,0-1.2,0-3.1
			c0-2.3,0.3-4.6,0.6-6.8c0.1-0.9,0.3-2.1,0.6-3.4c-1.9-3.6-1.7-8.4,2.6-11.6c0.3-0.5,0.7-0.9,0.9-1.4c0-0.2,0-0.4,0-0.6
			c-0.1-2.3,0.5-4.5,1.8-6.3c0.1-0.6,0.2-1.2,0.3-1.6l0.3-1.2c0.4-1.3,1.1-2.6,1.8-3.9c0.5-0.9,1.1-2.1,1.8-3.2l0.8-1.4
			c0.9-1.5,2-2.6,4.5-5c-1-1.1-1.7-2.1-2.5-3.8l-0.6-1.3l-0.1-1.4c-0.2-2.4-0.2-4.9,0-7l0.6-2.4h0c0-1.5,0-3,0.2-4.3
			c0.3-1.6,0.7-2.7,1.1-3.7h0c0-1.1-0.1-1.9-0.3-2.4l-0.3-1.1c-0.1-0.4-0.2-0.7-0.3-1.1c-0.3-1.2-0.5-2-0.6-2.7l-0.2-0.8
			c-2.2-5.1-1.2-10,2.6-12.7l1-0.6c0.1-0.1,0.3-0.1,0.4-0.2c0.2-0.8,0.5-1.6,1-2.4c0.1-0.2,0.2-0.6,0.3-1.1c0.4-2.8,2.2-4.7,3.3-5.8
			c0,0,0,0,0,0c0.6-1,1.4-1.9,2.2-2.7c0.4-1.5,0.6-2.8,0.6-4.2c0-0.5-0.3-1.3-0.9-2.1c-0.4-0.6-0.9-1.2-1.4-1.9
			c-1.1,0.1-2.2,0.1-3.3,0l-1.4-0.2l-1.2-0.7c-2.7-1.5-4.8-3.5-6.9-6.2l-0.7-1.2c-1.3-2.7-1.1-5.6-0.8-10.5c0.1-1.2,0.2-2.3,0.2-3.4
			c-1-2.1-1.3-4.3-0.7-6.4l0.9-3.4l2.8-1.6c0.3-0.2,0.6-0.4,1-0.5c0.6-1,1.2-1.9,1.8-2.8l0.4-0.6c0.4-0.6,0.9-1.2,1.3-2l0.8-1.1
			c0.8-1,2.1-2.4,3.9-3.6c0-0.1,0.1-0.1,0.1-0.1l0.5-0.9c0.3-0.5,0.6-1,0.9-1.8c0.3-0.7,0.8-2.1,1.2-3.3c0-0.1-0.1-0.2-0.1-0.3
			c-0.2-0.7-0.3-1.3-0.3-1.8c-0.6-0.2-1.1-0.4-1.6-0.6c-5.2-2.6-6.1-6.5-6.4-8.6c-0.3-0.4-0.5-0.7-0.7-1.1l-2.5-4.5l2.9-4.7
			c1.2-1.6,4-4.1,9.1-2.8c1.8,0.4,2.7,0.7,3.3,1l0.8,0.2c0.8,0.3,1.5,0.7,2.1,1c0.7,0,1.3,0.1,1.8,0.1c0.8-0.4,1.5-0.8,2.4-1.1
			c0.1-0.2,0.2-0.4,0.4-0.6c0-0.3,0.1-0.7,0.1-1.2l0.6-2.5c-0.3-0.4-0.6-0.8-0.9-1.2l-0.8-1.2l-0.3-1.4c-0.7-3-0.1-5.6,0.4-7.4
			l0.6-2.1c0.1-0.4,0.3-0.9,0.4-1.3c0-0.4,0-0.8-0.1-1.3l-0.1-0.7c-1.1-2.2-1-5-0.7-8.9c0-2.9,1.1-5.9,3.8-7.8
			c-0.6-0.4-1.2-0.9-1.6-1.3c-0.5-0.4-1.3-0.9-2-1.3c-1.1-0.5-3-1.9-5.7-4c-0.4-0.2-0.8-0.3-1.2-0.3c-2-0.3-4.8-1.1-7.3-2.3l-0.1,0
			c-0.2,0.1-0.4,0.1-0.7,0.2l-1.2,0.3c-0.6,0.1-2,0.4-3.1,0.7l-0.8,0.2c-2.3,0.5-9.1,2-12.2-3.4c-1.5-2.5-1.2-4.8-0.6-8.3
			c-1.8-1.5-3.4-3.1-3.8-3.5l-2.6-3.3l1.1-4.5c0.3-0.9,0.7-1.8,1.3-2.6c-0.6-2.6-0.4-5.3,0.1-7.2c0.6-2.4,2-4.1,4-5.3
			c0.2-0.7,0.5-1.4,0.9-2.2c-0.2-1.4-0.8-3.8-1.1-4.8c-1.3-3.9-0.1-9.4,0.7-12.4c0.2-1.1,0.8-2.4,1.5-3.8c-1.9-1.6-4.3-3.5-6.2-5
			c-11.1-8.9-11.5-9.3-11.5-13.3c0-4.5,11.8-19.2,16.6-25c0.1-2.9,1.4-4.6,4.6-8.7c0.3-0.4,0.6-0.7,0.8-1.1c-0.3-1.2-0.4-2-0.4-3
			c0-2.7,1.3-4.7,2.3-5.8c0.1-0.7,0.3-1.4,0.6-2.2c1.2-2.9,3.4-4.1,7-6.1c0.8-0.4,1.5-0.8,2.2-1.2c0.5-1.2,1.3-3.2,1.6-3.9
			c0.4-1.1,0.7-1.9,0.9-2.2c1-2,2.6-3.3,4-4.1c0.7-1.8,2.2-4.1,5.2-8.6l0.6-1c0.1-0.4,0.1-0.9,0.1-1.5l0.2-1.6
			c0.8-3.7,3.1-5.1,8.1-8.2c0-2.2,0-4.4,0.1-5.1c0.3-2.6,1.1-4.3,9-13.8c1.8-2.2,4-3.1,5.6-3.6c0.1-0.1,0.2-0.2,0.2-0.3
			c0.7-3.3,3.1-6.2,8-7.3c5.6-1.3,9.2,1.3,10.6,4.1c0.2,0.4,0.6,0.9,1,1.4c0.9,0.5,2,1.2,3.1,2.5l0.9,1.1l0.4,1.3
			c0.6,1.8,0.8,3.9,0.5,5.9l0.8,0.8l0.6,1.2c1.3,2.6,1.6,5.7,0.8,8.5l-0.4,1c-0.2,0.5-1,2-2.5,3.3c-0.2,0.9-0.5,1.8-0.9,2.5
			c0.7,1.8,1.6,4,2.1,5.2c0.5,0.5,1.1,1,1.7,1.6c0,0,0.1,0.1,0.1,0.1c0.9-0.3,1.8-0.5,2.7-0.6c1-1.2,2.4-2.3,4.4-2.8l1.2-0.3
			c2.1-2.4,5.3-3.6,7.6-4.4h0c1.8-0.8,5-1.5,8.6,0.8c0.1-0.2,0.1-0.4,0.1-0.5c0.5-3.4,3.1-6,6.1-7.4l0.1-0.3l4.6-1.7
			c3.6-1.2,9.5-0.1,12.3,2.4l1.4,1.6c0.7,1.1,1.5,2.2,2.1,3.3c0.4,0.2,0.9,0.5,1.4,0.7c2,1,4.2,2.2,5.5,2.9c3,1.3,5.3,4.1,6.3,7.4
			l0.1,0.2c0.5,1,0.9,2.1,1.3,3.4c0.6,0.6,1.4,1.6,1.9,3l0.4,1.6c0,0.3,0.1,0.6,0.1,1c3.3,3.3,5.7,5.9,5.7,9.7l-0.2,1.5
			c-0.1,0.5-0.2,0.9-0.3,1.4c1,1,1.8,2,2.4,3.4c1.1,2.6,1.6,5.5,1.4,8.5l1.8,0c3.5-2.3,8-2.5,11.5,1.3l1.4,1.6
			c0.2,0.2,0.4,0.5,0.6,0.7c0.4,0.3,0.9,0.7,1.3,0.9l4.9,2.2c1.4,0.9,2.6,1.9,3.7,3c0.1,0,0.1,0.1,0.2,0.1l0.6,0.1
			c1.5,0.1,3.7,0.4,5.8,2.1c1,0.8,1.3,1.1,9.3,11.6l1.4,1.8c1.3,1.9,2.5,3.9,3.4,6.3c0.3,0.6,2.7,6.8,4.4,11.3l1.7,4.5
			c0.8,1.8,1.3,4.3,0.4,7.1c0.2,0.7,0.3,1.5,0.3,2.3c0,1.6-0.4,2.9-1,4c0.4,0.4,0.8,0.7,1.1,0.9l2.1,1.3l1,2.3c0.5,1,1,2.3,1.3,3.9
			l0.1,0.4c0.4,1.8,1.9,7.1,2.9,11c1.5,5.5,1.5,5.5,1.5,6.6l-0.5,3.4c-0.3,1.4-0.6,2.9-1,4.3c-0.6,2.3-2.6,4.2-4.6,5.7
			c1,3.2,1.4,6.1-0.4,8.9c-0.9,1.5-2.2,2.5-3.5,3.2c-0.1,1.1-0.2,2.5,0,4.3c0,0.2,0.2,0.7,0.3,1.2c0.6,2.8,1.4,5.9,0.2,9.1
			c-0.6,2.2-2.5,4.4-5,5.4c-0.6,0.3-1.2,0.4-1.8,0.5c-0.2,0.8-0.3,1.6-0.4,2.4c-0.1,0.6-0.2,1.2-0.4,1.8c0.1,0.2,0.2,0.4,0.3,0.6
			c1,1.9,2.1,4.1,2.1,6.8c0,2.1-0.6,4.1-1.5,6.5c0.1,0.2,0.2,0.4,0.3,0.6l0.7,1.9c0.2,0.7,0.2,1.4,0.2,2.1c0.5,0.6,1.1,1.2,1.5,2.1
			l0,0c1.5,3.1,5.5,12.4,0.6,17.3c-0.6,0.6-6,5.1-7.5,5.9l-1.2,0.5c-0.1,0-0.9,0.2-2,0.5c-0.4,0.1-1,0.2-1.5,0.4
			c0.9,0.6,1.7,1.3,2.4,2.2c0.3,0.3,1.9,1.9,3.8,9.6c0.9,0.4,1.7,0.8,2.4,1.3c1.8,1.3,3.1,3.1,3.7,5.1c1,1.2,1.9,2.5,2.7,3.9l2,3.6
			l-1.9,3.7c-0.5,1-1,1.9-1.6,2.8c0,0.7,0,1.4-0.2,2.2l-0.8,2.2c-1.1,2-2.4,3.7-3.9,5c-0.5,1.1-1.2,2.5-2.4,3.7c0,0,0,0,0,0
			c0.5,2.8,0.8,5.4,0.8,8.1c0.1,0.4,0.2,0.9,0.4,1.3c1.4,2.5,1.4,5.4,1,9.4c4.1,1.6,5.5,5.6,6.7,8.9c0.2,0.6,0.4,1.2,0.6,1.6
			c0.2,0.4,0.6,0.9,0.9,1.4c1.3,1.9,2.6,3.8,3.1,6.2l0.1,0.9c0.1,1.4,0,2.7-0.2,4c3.1-0.3,10.1-0.5,12.6,6
			c1.1,2.8,5.5,21.6,5.5,21.8c1.5,4.8,2.9,8.8,4.4,12.6c0.8,0.2,1.6,0.3,2.4,0.4c1.4-3,5.2-9.3,11.7-7.7c0.6,0.2,1.8,0.7,3.4,1.3
			c1.1,0.5,2.4,1,3.7,1.5c3.7-1.1,8.8-0.6,11.5,1.4l0,0c2.3,1.8,4.1,3.8,5.8,5.6l1.1,1.2l0.5,1.6c0.9,2.8,1.4,25.4,1.4,25.6v2.5
			l-0.7,1.1c0.6,1.3,0.7,2.6,0.7,3.5c0,0.5,0.1,1.1,0.2,1.8c1,0.8,2.1,1.7,2.7,2.1l1.3,1.3c2.9,3.6,5.3,7.2,7,10.7l0.8,1.7v1.9
			c0.2,10.7,0.1,11.7-0.3,13c-0.2,0.8-0.5,1.5-0.9,2.1c-0.1,1.2-0.4,2.5-1.2,3.9c0,0.2,0,0.3,0.1,0.5c0.2,2.5,0.4,4.6-0.4,6.8
			c-1.1,2.9-3.4,4.8-6.9,5.7l-0.4,1.2l-2.4,1.7c-0.7,0.4-1.3,0.9-2,1.3c0.1,1.8,0.2,2.9,0,4l-0.4,1.6c-0.5,1.3-1.2,2.4-2.1,3.4
			c-0.3,0.7-0.8,1.5-1.4,2.3l-1.6,1.5c-2.5,1.8-5.3,2.8-8.4,3l-1.9,0.2l-1.7-0.7c-1-0.4-1.7-0.9-2.4-1.5c-1,0.1-2.2,0.1-3.4,0
			c-0.6,2.2-2.3,4.3-4.4,5.6c0.1,2.2,0,4.7-0.2,7.7l-0.1,1.1c0,3.3-1.9,5.8-5.2,9.5c-0.1,1.3-0.3,2.5-0.9,3.8l-0.7,1.5l-1.2,1
			c-0.7,0.6-1.4,1.2-2.2,1.6c-0.1,0.2-0.2,0.4-0.3,0.6l0,0.1c-0.5,0.9-1.1,1.8-1.9,2.7c2.1,4.7,1.1,10.8,1.1,10.9l-0.2,1.3l-0.6,1.1
			c-1.1,2-2.4,4.3-4.1,6.5l-1.1,1.3c1.3,2.3,1.5,5.1,0.5,7.8c-0.7,1.6-1.3,2.8-2,4c0,0.6,0.1,1.4,0.1,1.9c0.1,2.1,0.4,6.9-4.3,9.3
			c-1.6,0.8-5.1,1.2-7.8,1.3c0,0,0,0,0,0c-1.8,2.1-3.2,3.7-5.9,4.4c-2.7,0.7-5.7,1.2-9.3,1.5l-0.9,0.1l-0.9-0.1
			c-1.5-0.2-2.8-0.7-4.6-1.7c-2.5,1.7-5.5,2.1-9.6,0.7c-0.1,0-0.1,0.1-0.2,0.1c-0.7,2.9-1.7,6.3-3.2,9.8c-1.9,3.9-6,6.1-8,6.7
			c0.2,1.1,0.2,2.1,0.1,3.2c0.4,0.4,1.8,1.9,3.1,3.7c3.2,1.9,4,5.2,4.3,7.8c0.6,0.7,1.2,1.6,1.7,2.3c1.2,1.5,1.5,1.9,1.9,2.7
			c0.9,1.8,0.9,3,0.8,8.6l0,1.3c0,3.1-1.6,5.4-3.9,8.6l-0.7,1c-2.1,4-7.1,5.6-12.4,3.9c0.9,1.6,1.3,2.8,1.3,4.4
			c0,4.5-4.3,8.3-5.2,9.1l-1,0.7c-0.6,0.4-1.4,0.9-2.5,1.3c-0.2,3.1-0.8,6-3.6,8.1l-3,2.2l-1-0.2c-0.6,1.3-1.7,2.6-3.5,3.5
			C441.5,963.7,437.7,965.6,433.5,965.6z M434.5,949.9c0.2,0.1,0.3,0.1,0.5,0.2C434.8,950,434.6,950,434.5,949.9z M424.9,947.6
			c1.9,0.2,3.7,0.5,5.3,0.9c0.6-1.5,1.4-2.7,2-3.4c1.6-1.9,3.7-3,6-3.2l0.2-0.4c1.2-1.7,2.7-3.1,4.6-4.3c-1.8-3.4-2.6-6.2-0.8-9.4
			l0-0.1c-1.1-2.3-1.6-4.3-0.8-6.9c0.3-1.1,1.4-3.4,4.4-5.1c1.4-0.8,5.1-2.4,8.9-1.1l2.5,0.9c1,0.3,2.1,0.7,3,1
			c-2.2-2.8-3.2-4.5-3.5-6.5c-0.6-0.7-1-1.3-1.3-2c-0.5-0.7-1.2-1.6-1.6-2c-0.5-0.5-1.6-1.4-2-1.7l-3.1-2.4l-0.2-4
			c0-0.9,0-2.3,0.4-3.8c-1.8-2.8-4.9-8.9-2.1-13.8l2.7-4.8l5.9,0.7c1,0.1,2.3,0.1,3.9,0.1c0.5-1.5,1.1-3.4,1.6-5.7
			c0.4-2.9,2.1-5.4,5.1-7.6c1.1-1.1,3-2.6,5.8-3.9l1.6-0.7h1.7c1.3,0,2.4,0.3,3.7,0.8l1.2-1.2l1.1-0.6c4-1.9,7-0.1,10,1.7
			c0.5,0.3,1,0.6,1.5,0.9c1-0.1,1.9-0.3,2.8-0.4c2.3-2.6,4.5-5.1,8.3-5.2c0.2-1.1,0.5-2.1,0.9-3.1c-0.9-1.4-1.3-2.9-1.3-4.5
			c0-2.7,0.4-5.5,1.2-7.9l0.6-1.8l1.3-1.4c1.2-1.3,2.7-2,4.2-2.6c0.3-0.4,0.5-0.9,0.8-1.3c0-0.1,0-0.2,0-0.2c-1.7-2-2.6-4.1-2.6-6.4
			c0-5.1,1.5-8.5,4.6-10.4c0.8-3.2,2.5-5,4.1-6c0.4-2.1,1.7-3.5,3.1-5.1c0.6-0.7,1.5-1.6,2.1-2.4c0.1-2,0.2-3.6,0.2-4.6
			c-1.4-1.9-1.7-3.9-1.7-5.3l0-3.8l3.4-3.1c1.1-0.9,2.7-2.2,4.7-3.1c0.6-1.6,1.2-3.1,1.8-4.6l0.6-1.4l1.1-1.1
			c1.3-1.3,4.9-3.9,10.4-1.2c0.5,0.3,0.8,0.4,1.4,0.5c0.5,0,1.5-0.2,2-0.4l3-1l1.1,0.4c0-3.8,0.9-8,5.5-9.5c0.5-0.2,0.9-0.5,1.4-0.8
			c1.2-2.9,2.9-4.8,5.1-5.8c0-1.6,0.2-3.3,1-4.8c0-1.7,0.3-3.6,1.6-5.5c0-1.7-0.1-3.7-0.1-5.2c-1-1.8-2.3-3.7-3.9-5.7
			c-4.5-3.6-6.1-5.2-7-7.3l-0.5-1.9c-0.1-0.7-0.2-1.3-0.3-2c-2.5-1.9-3.9-4.5-4-7.2l-0.1-4.1l2.8-2.4c0.2-0.2,0.5-0.5,0.7-0.7
			c-0.1-4-0.4-11.2-0.6-15.7l-4.1-0.4c-1-0.2-1.8-0.4-5.8-2.1c-0.9,1.4-2.1,2.6-3.6,3.7l-1.5,0.9c-2.2,1-4.7,1.5-7.2,1.5
			c-2.7-0.1-4.7-0.5-6.9-0.9l-2.6-0.7c-2.5-1.1-4.6-2.8-6.2-4.9l-1-1.7c-2-4.7-3.8-9.8-5.8-16.5c-0.6-2.7-2.6-10.9-3.9-16
			c-3.5-0.2-6.7-1-9.5-2.1c-3.6-1.4-5.3-5.5-6.1-8.6c-0.8-3.3-0.3-5.7,0.5-7.4c0,0,0,0,0,0c-0.7-1-1.3-2-1.8-2.8
			c-0.5-0.9-1-2.3-1.5-3.7c-0.1-0.2-0.1-0.3-0.2-0.5c-1.5-0.8-2.8-1.9-4-3.3l-0.6-0.7c-1.9-2.7-2.9-5.9-2.9-9.1l0.1-1
			c0.1-0.7,0.2-1.8,0.2-2.8c-0.5-1.1-0.8-2.1-1.1-3.2l-0.6-3c0-1.9-0.1-3.7-0.4-5.6c-1.6-2.7-3.1-5.4-2.6-8.6c0.1-1.8,0.5-7,5.5-9.1
			c1.1-0.4,2.1-0.6,3.3-0.6c0.1-0.1,0.2-0.1,0.2-0.2c0.1-0.1,0.2-0.1,0.2-0.2c0-1.4,0.3-2.7,0.8-3.8c-3.3-0.9-5.5-3.4-6.4-6.1
			l-0.3-1c-0.3-1.3-1-4.3-1.6-6.3c-2.4-1-3.6-2.5-4.2-3.5c-0.3-0.5-0.6-1.1-0.8-1.6c-1.8-1.6-3-3.9-3.2-6.4
			c-0.1-2.1,0.5-4.1,1.6-5.7c-0.5-3,0.3-5.3,2.2-7.3c1.8-1.8,3.5-2.4,11.8-4.3c0.1-0.1,0.3-0.2,0.4-0.3c0-0.1-0.1-0.2-0.1-0.3
			c-1.9-1.5-3.8-3.5-4.3-6.4c-0.3-1.5-0.1-2.8,0.2-3.9c-0.3-0.7-0.6-1.5-0.8-2.3l-0.3-2.3c0-1.7,0.5-3,1.2-4.8
			c0.2-0.4,0.4-0.9,0.5-1.3c0,0,0,0,0-0.1c-1.2-2.4-3.1-6-1.9-10.1c0.2-0.6,0.3-1.5,0.5-2.5c1-5.1,1.8-9.6,5.2-11.8
			c0.4-0.8,1-1.4,1.5-1.9c0-0.3-0.1-0.6-0.1-0.9c-0.2-2.9-0.1-5.4,0.2-7.7l0.1-0.9c0-1.5,0.1-5.3,3.2-8c-1.1-3.8-2-9.6,4.1-12.1
			c0.3-0.2,1.4-0.7,2.3-1.3c0-0.2,0.1-0.4,0.1-0.5l0-0.2c-0.2-0.7-0.4-1.6-0.7-2.7c-1.8-6.6-2.6-9.8-3.1-11.6
			c-1-0.9-1.9-1.7-2.7-2.5l-1.3-1.6c-2.2-3.9-4.2-8-2.5-12.1c0.2-0.4,0.4-0.8,0.5-1.1c-0.3-1.5-0.3-3.2,0.4-4.9l-0.9-2.3
			c-1.6-4.1-3.7-9.7-4.3-11c-0.5-1.4-1.1-2.4-1.6-3l-1.2-1.5c-1.6-2.1-4.2-5.6-5.9-7.8c-0.3-0.1-0.7-0.2-1-0.3
			c-2.4-0.6-4.3-1.7-5.5-2.5l-1.8-1.6c-0.2-0.2-0.4-0.4-0.7-0.6l-4.1-1.8c-1.6-0.9-2.9-1.8-4.1-2.8c-1.9,0.6-3.8,0.5-5.8-0.1l-1.1,0
			c-1.7-0.1-3.1-0.1-4.1-0.1c-1.8,0-4.5-0.2-6.8-2.5l-2.4-2.3l-0.1-2.9c-2.5-4.2-2.1-7.3-1.1-9.5c-0.2-0.1-0.3-0.2-0.4-0.3
			c-1-0.8-1.9-1.5-2.2-1.8l-1.1-1.1l-0.6-1.5c-1-2.4-1-5.1-0.1-7.4c0,0-0.1-0.1-0.1-0.1c-2-2-4.4-4.4-4.3-7.9
			c-0.6-0.9-1.1-2.1-1.5-3.5c-0.2-0.9-0.5-1.5-0.7-1.9c-0.1-0.2-0.2-0.4-0.3-0.6c-1-0.5-2.7-1.4-4.3-2.2c-2.2-1.1-4-2.1-4.2-2.3
			l-1.5-1l-0.9-1.5c0,0,0,0,0-0.1c-1.2,3.3-3.3,7.1-6.8,8.3c-0.6,0.2-6.6,1.1-11.6-0.1c-1,2-2.5,3.9-4.9,4.8
			c-1.3,0.5-2.6,0.7-3.8,0.6c-1.2,0.7-2.6,1.1-3.8,1.2c-0.8,1.1-1.9,2-3.6,2.7c-3.5,1.4-6.6,0-7.9-0.7c-3.4-1.6-5.2-3-6.2-4.3
			c-0.3-0.2-0.6-0.5-0.9-0.8c-2.7-2.4-4.3-3.9-5.3-6.1c-0.6-1.2-3.2-7.9-3.8-9.3c-1.6-4,0.2-7.6,1-9.1c0-0.1,0-0.2,0-0.3
			c-0.2-1.3-0.5-3.6,0.6-6c-1.1,0.7-2.4,1.2-3.7,1.4c-2.3,2.8-3.6,4.4-4.2,5.3c0,0.7,0,1.4,0,2.2c0.1,3.7,0.1,4.7-0.2,6
			c-0.9,3.4-2.9,4.6-7.3,7.3c-0.4,0.2-0.7,0.4-1.1,0.6c-0.1,0.8-0.3,1.5-0.5,2.2l-0.5,1.4c-0.1,0.2-0.9,1.5-1.9,3.1
			c-1.1,1.6-2.6,3.9-3.4,5.3c-0.3,1.9-1.1,3.6-2.2,5l-0.6,0.6c-0.9,0.9-1.9,1.5-2.7,1.9c-1.7,4.4-2.8,6.7-4.5,8.4
			c-1.3,1.3-3.2,2.4-6.1,4c0,0-0.1,0.1-0.1,0.1c-0.2,0.7-0.5,1.4-1,2.1c0.3,1.6,0.4,2.8,0.2,4.2c-0.4,2.4-1.5,3.8-4.5,7.6
			c-0.2,0.3-0.5,0.6-0.7,0.9c0,2.4-1,4.7-2.9,6.6c-0.9,1-7.3,9.5-11.5,15.2c0.9,0.7,1.9,1.5,2.9,2.3c10.6,8.5,11.5,9.4,12.6,11.2
			c2.5,4.4,0.2,8.7-1.6,12.1c-0.4,0.7-0.8,1.4-1,1.9c-0.3,1.4-0.6,3.1-0.7,4c0.8,2.6,2.4,8.6,1.4,12.7c0.6,1.3,1,2.8,0.8,4.5
			c-0.2,2.4-1.4,4.5-3.3,5.9c0.3,1,0.4,2.2,0.3,3.4c-0.1,0.8-0.2,1.5-0.5,2.2c0.3,0.3,0.6,0.6,0.8,0.9l0.7,1.2
			c0.2,0.5,0.4,1,0.6,1.5c0.2-0.1,0.5-0.1,0.7-0.1c3.6-0.3,6.4,0.2,8.9,1.6c1.1,0.5,2.3,0.9,3.2,1c2.6,0.5,4.3,1.2,5.7,1.8l1.7,1.1
			c0.5,0.4,2.9,2.4,4.2,3.1c1.5,0.8,3.2,1.8,4.7,3.2c0.3,0.2,0.7,0.5,1.1,0.8c0.9,0.6,1.8,1.2,2.4,1.8c1,1,1.7,1.7,2.3,2.3l0.5,0.5
			c1.3,1.2,2.4,2.6,3.1,4l0.7,2c0.3,1.5,0.3,3.1,0.1,4.6c-0.2,2.6-1.4,5-3.4,6.7c-0.8,0.8-1.9,1.7-3.4,2.5c0.4,1.3,0.6,2.7,0.7,4.1
			c0.1,1.4,0.1,2.8,0.1,4.1l-0.3,2.4c1.6,0.7,3.1,2,4,4.2c1.1,2.6,0.5,4.9,0,6.2c0,1.2,0,2.7-0.4,4.3l-0.2,0.8
			c-0.9,2.8-2.4,4.7-4.6,5.7l-0.4,0.7c-0.3,0.5-0.5,0.7-0.7,1.2l-0.6,1c-1.3,1.8-2.7,3-3.7,3.8l-1.5,1.2l-2.9,1
			c-0.2,0.1-0.3,0.2-0.5,0.3c0,0,0,0.1,0,0.1c0.2,1.4,0.2,2.6,0.2,3.6c0.4,1.6,1.3,4.3,0.3,7.3c-0.3,0.8-1.6,4.3-2.2,5.8
			c-0.7,1.7-1.2,2.6-1.8,3.7c-0.9,2.1-2.5,3.8-3.6,4.9l-1.7,1.3c0,0-0.2,0.1-0.5,0.4c-0.5,0.8-1.1,1.6-1.5,2.2l-0.9,1.3
			c-0.1,0.1-0.2,0.3-0.5,0.7c-0.5,1.2-1.1,2.3-1.9,3.4c0,0.2,0,0.3,0,0.5c-0.1,1.9-0.2,3.4-0.3,4.8c0,0.4-0.1,0.8-0.1,1.2
			c1.9-0.1,4.2,0.1,6.3,1.5l1.2,1c2.1,2.1,3.8,4.5,5.3,6.6c2.3,3.2,3.7,7,3.9,10.9c0,4-0.6,7.4-1.9,11.2l-0.4,1
			c-0.7,1.3-1.5,2.2-2.5,3.2l-0.4,0.4c-0.5,0.8-1.1,1.5-1.6,2c-0.4,1.4-0.9,2.5-1.3,3.5c-0.4,1.6-1,4-3.1,6.2
			c-0.1,0.1-0.2,0.2-0.3,0.3c0,0.1,0,0.2,0.1,0.4l0.2,1.1c0.2,0.6,0.5,1.5,0.7,2.5c0.8,2.9,0.9,5.7,0.9,7.7l-0.2,1.7
			c-0.2,0.9-0.5,1.8-0.9,2.8c-0.1,0.3-0.2,0.5-0.3,0.8c0,0.2,0,0.9,0,1.6l-0.1,1.1c-0.1,1-0.2,2.2-0.5,3.4c0,0.5,0,1,0,1.5l0.6,0.6
			c0.8,0.8,2,1.9,3,3.9c1.5,3.3,1.6,6.5,0.6,9.7c-0.9,2.4-2,3.4-5.2,6.4c-1,0.9-2,1.9-2.6,2.5l-0.5,1c-0.4,0.7-0.9,1.5-1.2,2
			c0,0.1,0.1,0.2,0.1,0.3c0.8,3,0.2,7-3.1,9.3c0,0.2,0,0.3-0.1,0.5l-0.2,1.3l-0.6,1.4c-0.8,1.5-1.6,2.9-2.6,4.3
			c0.3,1.5,0.3,3.1,0,4.7l-0.4,1.7c-0.1,0.5-0.3,1-0.3,1.6c-0.3,1.9-0.5,3.4-0.5,4.9c0,4.8,0,6.4-1.2,9.2c-0.8,2.6-1.8,5-2.8,7
			l-1.6,2.6c-0.6,0.9-1.1,1.7-1.4,2.4c-0.3,0.5-0.6,1.1-0.9,1.5c1.2,1.1,2.3,2.2,3,3.4c0.9,1.2,1.5,2.9,1.8,4l1.1,3.2
			c0.7,0.1,1.3,0.4,2.1,0.7l1,0.2c2.6,0.2,5.1,1,7.3,2c5.3,2.6,5.3,8.9,5.3,11c-0.2,3.3-0.8,5.9-2,8.7c0.3,0.5,0.6,1.1,1,1.8
			c2,0.7,4.4,2,5.7,5.1l0.4,1.5c0.5,2.7,0.4,5.4-0.2,8l-0.3,0.8c-0.2,0.5-0.4,1-0.6,1.4c0.1,0.8,0.2,1.6,0.4,2.4
			c0.3,1.6,0.5,3.2,0.7,4.5c0.2,2.4,0.2,5.1-0.3,8c-0.4,3.1-2,5.9-4.4,8l-1.3,0.9c-1.7,1-3.2,1.8-5.2,2.4l-0.9,0.2
			c-0.2,0-0.4,0.1-0.7,0.1c0.8,1,1.5,2,2.2,3c1.5,1.8,3.1,3.6,4.9,5.2c1.9,1.3,9.2,6.1,10.1,6.7c-0.1,0,0.6,0.3,2,1
			c5.6,2.9,7.3,3.8,8.3,4.5l0.8,0.7c1.6,1.6,3.6,3,5.4,4.1c0.9,0.6,1.8,1.1,2.8,1.5c2.4,0.5,4.7,1.4,6.7,2.7l2.4,1.3
			c2.1,0.6,5.2,1.4,7.6,3.8c1.4,1.2,2.2,2.9,2.6,4c1.9,1.3,3.7,2.7,5.5,4.4l0.5,0.1c2.7,0.3,5.2,1.3,7.6,2.8
			c0.8,0.6,1.2,0.8,1.6,1.1c1.8,1.1,4.2,2.7,5.6,5.6l0.8,1.6c0.8,1.6,1.8,3.7,2.7,5.4c0.7,1.1,1.4,2.8,2,4.4
			c0.2,0.5,0.3,0.9,0.5,1.3c1.5,1.1,3.6,2.9,4.4,6.5l0.2,1.1c0.3,1.2,0.8,3,0.2,5.3l-0.4,1.6c0.5,0.3,1,0.6,1.6,0.9l0.6,0.2
			c1.3,0.3,3.1,0.8,4.9,1.8c3.8,1.5,6.9,5.7,7.2,10.3c0.4,3-0.8,6.2-1.6,8.2l0,0c0,0.4-0.1,0.7-0.2,1l-0.3,1.5
			c-0.2,0.6-0.4,1.2-0.6,1.8l0,0.2c-0.1,1.8-0.4,3.6-1.2,5.4c-0.3,0.8-0.6,1.5-1,2.3c0.7,1.3,1,2.5,1.1,3.4c1,0.3,1.9,0.8,2.7,1.4
			l0.5-1.1l7.4,4.4C422,944.5,423.6,945.9,424.9,947.6z M391.1,943.7c0,0,0,0.1,0,0.1L391.1,943.7z M458.1,923.9L458.1,923.9
			C458.1,923.9,458.1,923.9,458.1,923.9C458.1,923.9,458.1,923.9,458.1,923.9z M461.2,921c0,0.1,0,0.1,0,0.2V921z M399,918.6
			c0,0,0.1,0,0.1,0.1C399.1,918.7,399.1,918.7,399,918.6z M469.9,901.4c0.1,0.2,0.2,0.4,0.2,0.6C470.1,901.8,470,901.6,469.9,901.4z
			 M504.6,870.2c-0.3,0-0.4,0-0.4,0C504.3,870.2,504.4,870.2,504.6,870.2z M477,861.4L477,861.4L477,861.4z M366.7,859.9
			c0,0,0.1,0,0.1,0.1C366.8,859.9,366.8,859.9,366.7,859.9z M517.6,842.2C517.6,842.3,517.6,842.3,517.6,842.2
			C517.6,842.3,517.6,842.2,517.6,842.2L517.6,842.2z M514.1,833.9c0,0,0.1,0.1,0.1,0.1C514.2,834,514.1,833.9,514.1,833.9z
			 M521.8,828.3L521.8,828.3c0.2-0.1,0.4-0.3,0.6-0.4C522.2,828,522,828.2,521.8,828.3z M522.9,803.5c0,0.1,0,0.2,0,0.3
			C522.9,803.7,522.9,803.6,522.9,803.5z M523.7,800.5L523.7,800.5L523.7,800.5z M531.7,795.7c0.3,0.1,0.6,0.2,0.9,0.2L531.7,795.7z
			 M523.1,795.4C523.1,795.4,523.1,795.4,523.1,795.4S523.1,795.4,523.1,795.4z M535.4,786.8c0.1,0.1,0.1,0.1,0.2,0.2
			C535.5,786.9,535.4,786.8,535.4,786.8z M528.5,784c-0.1,0.1-0.1,0.3-0.2,0.4C528.4,784.3,528.5,784.2,528.5,784z M561.9,778
			C561.9,778,561.9,778,561.9,778l-0.2,0.1C561.8,778.1,561.9,778,561.9,778z M307.2,763.4l0,0.2
			C307.3,763.5,307.2,763.5,307.2,763.4z M579.5,751.2c0,0.1,0,0.1,0.1,0.2C579.6,751.3,579.6,751.2,579.5,751.2L579.5,751.2z
			 M297.5,745.1L297.5,745.1L297.5,745.1z M572,743.1c-0.1,0-0.1,0-0.2,0H572z M553.2,720.3c0,0.3,0,0.7,0.1,1
			C553.3,721,553.2,720.7,553.2,720.3z M568.1,720.5L568.1,720.5L568.1,720.5z M292,711.5C292,711.5,292,711.5,292,711.5
			C292,711.5,292,711.5,292,711.5z M293.7,699.7C293.7,699.7,293.7,699.7,293.7,699.7C293.7,699.7,293.7,699.7,293.7,699.7z
			 M503,646.4c-0.2,0.3-0.4,0.6-0.6,0.9C502.6,647,502.8,646.7,503,646.4z M500.5,640.5c0.1,0,0.1,0.1,0.2,0.1
			C500.7,640.6,500.6,640.5,500.5,640.5z M484.8,630.5L484.8,630.5L484.8,630.5z M311.5,620.9c-0.1,0.3-0.3,0.7-0.4,1.1
			C311.3,621.7,311.4,621.3,311.5,620.9z M478.2,614.4L478.2,614.4L478.2,614.4z M316.4,607.7c-0.1,0.1-0.3,0.1-0.4,0.2
			C316.1,607.9,316.2,607.8,316.4,607.7z M482.1,575.9c0,0.1,0,0.2,0,0.3C482.1,576.1,482.1,576,482.1,575.9z M477.9,568
			c0.4,0.1,0.8,0.1,1.2,0.1C478.7,568.2,478.3,568.1,477.9,568z M485.4,565.3c0,0-0.1,0-0.1,0C485.3,565.3,485.4,565.3,485.4,565.3z
			 M479,561.7c-0.1,0-0.2,0.1-0.2,0.1C478.8,561.8,478.9,561.7,479,561.7z M485.3,561.5c0,0,0,0.1,0,0.1
			C485.3,561.5,485.3,561.5,485.3,561.5z M314.1,556.9C314.1,556.9,314.1,556.9,314.1,556.9C314.1,556.9,314.1,556.9,314.1,556.9z
			 M310,549.4c0.1,0,0.2,0,0.3,0.1L310,549.4z M329.6,540.5c0.1,0.1,0.2,0.2,0.3,0.2L329.6,540.5z M480.3,518.1L480.3,518.1
			L480.3,518.1z M338.3,507c0.2,0.4,0.4,0.8,0.6,1.1c0,0,0,0,0,0C338.8,507.8,338.6,507.4,338.3,507z M339.7,505.3
			c0,0.1,0,0.1,0,0.2C339.7,505.4,339.7,505.3,339.7,505.3z M332.1,502C332.1,502,332.1,502,332.1,502L332.1,502z M485.9,495.5
			L485.9,495.5L485.9,495.5z M333,495.3c-0.1,0.1-0.2,0.2-0.3,0.2L333,495.3z M494.2,462c0,0.1,0,0.1-0.1,0.2
			C494.1,462.1,494.1,462,494.2,462z M294.3,459.9C294.3,459.9,294.3,459.9,294.3,459.9C294.3,459.9,294.3,459.9,294.3,459.9z
			 M299.4,457.3c0.3,0.2,0.5,0.3,0.8,0.5C300,457.6,299.7,457.4,299.4,457.3z M303.3,448.8c0.2,0.2,0.5,0.4,0.8,0.6
			C303.9,449.2,303.6,449,303.3,448.8z M486.5,424.8c0,0.1,0.1,0.2,0.1,0.3L486.5,424.8z M487.4,419.5c0,0-0.1,0.1-0.1,0.1
			L487.4,419.5z M294.3,383c-0.2,0.1-0.3,0.3-0.4,0.5C294.1,383.2,294.2,383.1,294.3,383z M443.2,371.4l0.9,7.9v-7.8
			C443.8,371.4,443.5,371.4,443.2,371.4z M434.1,378.6C434.1,378.6,434.1,378.6,434.1,378.6L434.1,378.6z M453.6,372.3l0.3,0.1
			C453.8,372.3,453.7,372.3,453.6,372.3z M435.4,367c-0.1,0-0.1,0.1-0.2,0.1C435.3,367.1,435.4,367,435.4,367z M424.6,347.5
			c0,0,0,0.1,0,0.1C424.5,347.6,424.6,347.5,424.6,347.5z M370.4,335.9C370.4,335.9,370.4,335.9,370.4,335.9
			C370.4,335.9,370.4,335.9,370.4,335.9z M386.3,335.2l0.3,0.2C386.4,335.3,386.3,335.3,386.3,335.2z M347.1,311.4l1.3,7.8
			c0,0,0.1,0,0.3-0.1c-0.1,0-0.2,0-0.3,0v-3.7L347.1,311.4z M351.4,317.3C351.4,317.3,351.4,317.3,351.4,317.3
			C351.4,317.3,351.4,317.3,351.4,317.3z M368.4,311.5L368.4,311.5L368.4,311.5z M349.8,308c0.2,0.3,0.3,0.6,0.5,0.9
			C350.1,308.6,349.9,308.3,349.8,308z M347.8,303.4c-0.1,0-0.1,0-0.2,0L347.8,303.4L347.8,303.4z"/>
	</g>
	<g>
		<path class="st4" d="M559.9,698h26.5c0,0,7.5-5.4,9-6c1.5-0.5,6.4,1,7.5,2.3c1,1.4,0.1,2.2,2.6,2.4c3.8,0,7.6-0.7,11.3-1.8
			c0.8-0.7,13.3-9.9,15.4-10.1c6.1,0.3,12.2,1,18.2,2c0.5,0.3,3.1,7.5,4.9,8.3c1.8,0.8,5.4,0.5,6-0.1s4.6-6,6.4-6
			c1.8,0,3.1,0.5,4.9-0.3c1.8-0.8-0.1-3.3,0-4.5c0.5-1.5,1.4-2.6,2.4-3.8c0.3-0.1,7.5,1.8,9.8,2.2c2.3,0.3,6.4-1.2,7.1-1.6
			c1-0.8,1.8-1.8,2.3-3c0.1-0.5,0.1-7.1,0.8-7.9c0.7-0.8,6-3,6.7-3.7s4.6-9,5.2-9.2c0.5-0.3,5.4-1.5,5.6-2.2c0.1-0.7-0.3-5.6,0-6.8
			c0.3-1.2,8.4-10.2,9.8-10.2s8.7,0.1,9.8-0.8c1.1-1,3.9-5.3,4.5-5.6c0.5-0.3,8.7,7.3,10.9,7.6c2.2,0.3,6.7-6.8,8.7-7.6
			c2-1.2,4.3-1.8,6.7-1.6c3.1,0.1,11.4,4.8,12.5,4.8c1.1,0,2.4-0.3,3.5-0.7c0.3-0.1,0.1,4.8,1.2,5.4c1,0.7,5.4-2.3,6.1-2.6
			c2-0.1,3.9-0.1,6,0c0.8,0.1,2.9,3.1,3.1,3.5c0.3,0.3,21.5-2.6,22.7-2.2c1.2,0.5,4.1,1.8,4.6,2.2c0.5,0.3,12.5-13.2,13-13.6
			c0.5-0.3,4.9,8.2,6.3,8.7c1.4,0.7,5.6-6,6-6.3c0.3-0.3,1.6-27.9,2.6-29c1-1.1,4.5-7.5,6.4-7.9c1.9-0.4,21.5,0.5,22.8,0
			c1.6-0.7,3-1.5,4.1-2.6c0.1-3.1,0.1-6.3,0-9.2c-0.1-0.8-2.9-3-1.8-4.8c1-1.8,4.1-5.4,4.1-6.3s-4.3-9.9-4.1-11
			c0.1-1.2,2.6-10.6,2.6-12.5c0-1.4-0.1-2.6-0.8-3.8c-1.2-1.2-1.8-2.4-2.2-3.9c-0.1-2-0.3-10.6,0.1-10.7c1.6-0.3,3.5-0.8,4.9-1.6
			c0.8-0.8,4.9-9.4,6.4-11.4s-1-12.5-1.2-13.2c-0.1-0.7-7.5-2.2-8.6-3.5s-5.2-18.1-6-18.9s-4.3-3.8-4.5-4.9
			c-0.1-1.2-0.8-6.8-1.6-7.7c-0.8-1-2.9-2.4-2.9-3.3s0.1-10.2-0.1-12c-0.3-1.6-1.2-5.2-1.5-6.4c-0.3-1.4-1.4-0.8-3.5-0.8
			c-1.6,0.1-3.1-0.7-3.7-2.2c-0.8-1.5-2.3-2.3-3.9-2.3c-1.6,0.5-3.3,0.7-4.9,0.8c-1.8,0-3.8-0.5-5.3-1.6c-0.7-1-1.2-3.8-3.1-3.7
			c-1.8,0.1-3.8,0.1-5.6,0c-1.6-0.3-17.7-12-19.3-13.6c-1.6-1.6-7.5-6.1-7.7-6.9c-1-2.2-1.8-4.5-2.6-6.8c-0.1-1.6-0.5-2.2-1.8-2.3
			c-1.4-0.1-2.9,0.5-3.9-1.8s-4.3-6.8-4.9-7.9c-0.7-1.2-5.4-9.8-6.4-10.7c-1.6-1.2-3.3-2.2-4.9-3c-2-1.2-10.7-7.3-11-7.9
			c-0.5-1.2-1-2.3-1.4-3.5c-0.7-2.2-0.1-3.3-2-2.6c-1.6,0.5-3.1,1.5-4.1,2.9c-0.7,1.4-2.2,3.9-2.9,4.1c-0.7,0.1-6.8,0.1-7.5,0.8
			c-0.8,1.4-1.5,2.6-2.2,3.9c-1,1.6-3-2-3.8-2.2c-0.8-0.1-3.1,3.7-3.1,3.7s-9.1,2-10.5,2s-7.5,0.5-7.9-0.1
			c-0.5-0.7-10.2-8.7-11.6-9.2c-1.4-0.5-3.3,0-3.1,1.4s1.2,6-0.5,6.8c-1.6,0.8-4.8,2.2-5.4,1.4s-0.7-2.9-2.2-3.5
			c-1.5-0.7-6.8-2.6-6.9-2.2c-0.1,0.5-1.2,4.9-2,5.8s-4.5,0-4.8,0.7c-0.3,1.6-0.8,3.1-1.5,4.6c-1,1.4-2,2.6-3.3,3.7
			c-0.7,0.7-6.8-2.2-7.3-1.2c-0.5,1-0.7,4.3-2.3,5.2c-1.6,0.8-17.1-6-18.6-5.6c-1.5,0.4-8.3,4.9-8.7,5.3c-0.4,0.4-3.3-1.4-3.5-2.6
			c-0.3-1.2-0.1-3.1-1.4-3.5c-1.2-0.3-9.7-2.3-9.9-1.8c-0.3,0.5-3.1,3.7-2.6,4.3c0.8,1.6,1.5,3.3,2,5.2c0,0.8-6.4-3.1-6.9-3
			c-1.5,0.7-2.9,1.5-3.9,2.4c-0.1,0.3-3.3,6.7-4.5,7.1s-1.8-0.8-2.2,0.1c-0.3,1-4.5,11.3-4.5,12.2c0,1.8,0.3,3.7,1,5.3
			c0.5,0.7,1.6,2.6,1.4,3.1c-0.3,0.5-2.6-0.5-3.5-1c-0.8-0.5-4.6,2.3-4.6,2.3s-3.7,2.6-4.3,2.9c-0.7,0.1-5.3-3.9-5.3-4.9
			c0.1-1.6,0-3.3-0.3-4.8c-0.3-1.2-6-10.7-6.7-12c-0.5-0.8-1.2-1.5-2-2c-2-0.8-3.9-1.5-6.1-1.6c-0.8,0.1-8.2,2.6-9,4.5
			c-0.7,1.5-1.4,3-2.3,4.5c-0.5,0.5-20,8.7-20.5,9.2c-0.5,0.5-4.9,5.8-5.6,6.1c-0.7,0.3-6.3-1.5-6.7-1.4c-0.3,0.1-1.4,3.3-2.6,3.5
			c-1.4,0.1-7.7,0.3-8.2,1.2c-0.3,0.8-6,10.7-6.1,11.7c-0.1,1,0.1,4.8,0,6.3c-0.3,1.5,0,3,0.7,4.3c0.8,1.2,1.6,1.2,1.6,3
			c0,1.8-0.8,4.3-0.3,4.9c0.8,0.8,1.5,1.8,2,3c0,0.7-6.4,13.6-6.8,13.9c-2.4,0.7-5.2,1.2-7.6,1.4c-0.5-0.1-2.3-3.3-3.1-3.5
			c-0.8-0.1-6,3.7-6.7,3.8c-0.7,0.1-4.6-4.3-4.6-4.3s-5.3,2.2-5.4,2.6c-0.1,0.4,2.9,14.8,2.9,14.8s-7.6,4.3-7.7,4.8
			s-2.6,9.2-2.6,9.9s2.6,7.7,2.6,9s-2,4.9-2,5.6s5.6,16.7,5.8,17.1c0.1,0.5-11.7,5.8-13.3,6s-2.4,0.8-2.2,1.4
			c0.8,1.4,1.4,2.9,1.8,4.3c-0.5,1.4-1.2,2.6-2,3.8c-0.5,0.5,6.3,3.8,6.3,4.6s2.2,10.6,2.2,10.6s4.1,0.7,4.8,1.5
			c1.5,2,2.9,4.3,3.8,6.7c0.3,1.2-3.8,12.9-5.3,13.6c-1.5,0.7-4.3-0.3-4.9,0c-0.7,0.3,0.3,6,0.5,6.8c0.1,0.8,3.3,12.9,3.1,14.7
			c-0.1,1.8-0.7,3.8,0,4.5c0.7,0.7,9.7,13.7,10.1,15.1c0.5,1.4,0.3,13,2.6,13.9s10.6,0.7,11.6,0.8c1,0.1,9.1,37,10.2,37.7
			c4.3,1.4,8.6,2.4,13,3.3c0.8,0,4.1-6.8,4.8-7.3c0.7-0.5,1.6-0.8,2.2-0.7c0.5,0.1,5.8,3.3,6.9,3.3c1.2,0,5.8-1,6.9-1
			c1.4,0.1,2.4,0.8,3.3,1.8c0.3,0.5,1.8,8.3,2.2,9.7C559,695.3,559.9,698,559.9,698z"/>
		<path class="st7" d="M588.9,705.9H554l-1.7-5.6c0,0-0.1-0.4-0.3-0.8l-0.5-0.5l-0.6-1.9c-0.2-0.7-0.7-3-1.2-5.2
			c-1.5,0.2-3,0.4-3.6,0.4c-1.7,0-3.3-0.5-5.3-1.5c-2.2,3.6-4.3,6.2-8.6,6.2l-1.4-0.1c-4.6-0.8-9-1.9-14-3.5l-1.8-0.8
			c-3.3-2-3.4-2.4-8.7-23.9c-1-4.1-2.2-9.1-3.2-12.7c-4-0.1-6.4-0.4-8.4-1.1c-6.5-2.3-7-9.9-7.5-17.2c0-0.6-0.1-1.2-0.1-1.6
			c-1.8-2.9-7.4-11.1-8.5-12.5c-2.8-2.8-2.3-7-1.9-9.2l0.1-0.5c-0.3-2.1-1.8-8.2-2.3-10.3c-0.2-0.9-0.4-1.6-0.5-2.1
			c-0.9-2.9-3.5-13.1,4.1-16.2c1.1-0.5,2-0.6,3.3-0.7c0.6-1.5,1.2-3.3,1.6-4.6c-0.2-0.4-0.5-0.8-0.7-1.2c-0.5-0.1-0.9-0.2-0.9-0.2
			l-5.2-0.9l-1.2-5.2c-0.8-3.6-1.3-6.1-1.7-7.9c0,0-0.1,0-0.1-0.1c-3.2-1.9-6.3-3.8-6.8-7.9l-0.5-3.8l1.6-1.7l-2.1-3.6l2.3-4.5
			c1.5-2.6,4.2-4.3,7.7-4.8c1-0.3,2.9-1.1,4.9-2c-1.9-5.4-4-11.6-4-13.3c0-2,0.7-3.4,1.5-5.3c0.1-0.2,0.2-0.4,0.3-0.6
			c-0.3-0.8-0.6-1.9-0.9-2.8c-1-3.2-1.4-4.3-1.4-5.9c0-2.6,3-12.4,3-12.5c0.8-2.5,2-3.6,6.3-6.2c-2.3-11-2.2-11.3-1.4-13.4
			c1.2-3.8,4.3-5,9.9-7.3l5.2-2.1l3.4,3.9c2.4-1.4,4.4-2.1,7-1.7l1.1,0.3c1.4,0.5,2.5,1.2,3.4,2.1c0.9-1.7,1.9-3.8,2.7-5.5
			c-1.5-2.6-1.2-5.4-0.9-7.2c0,0,0-0.1-0.1-0.1l-0.5-0.9c-1.5-3-1.9-6.2-1.4-9.3c0,0.1-0.1-0.7-0.1-1.7c-0.1-1.8,0-3.5,0.1-4.2
			c0.2-1.8,0.9-3.1,4.8-10.2c0.9-1.6,1.6-3,1.9-3.5c1.9-4.5,6.2-5.3,11.2-5.7c0.6-1,1.6-2.1,3.2-2.9l1.2-0.5
			c2.2-0.7,3.9-0.4,6.4,0.3c0.4-0.4,0.7-0.8,1-1.2c0.8-1,1.5-1.7,1.7-1.9c1.3-1.3,1.5-1.4,12.7-6.3c2.9-1.3,5.9-2.5,7.7-3.4
			c0.3-0.6,0.5-1.2,0.8-1.7c2.8-6.4,14.7-9,14.8-9l0.9-0.2l0.9,0.1c3.4,0.2,6.2,1.2,8.6,2.2l1.4,0.7c1.7,1.1,3.1,2.5,4.3,4.2
			l1.3,2.2c5.5,9.4,6.1,10.8,6.5,12.4c0,0.1,0,0.2,0.1,0.4c0,0,0.1-0.1,0.2-0.1c0-0.6-0.1-1.1-0.1-1.6c0-1.9,0.4-3.1,3.7-11.6
			c0.6-1.4,1-2.6,1.2-3.1c1.1-2.6,3.1-4.7,5.6-5.5c0.4-0.8,0.9-1.7,1.5-2.8l0.7-1.4l1.2-1.1c1.6-1.4,3.6-2.7,5.9-3.7l1.3-0.5
			c0.2,0,0.4-0.1,0.6-0.1c0.7-1.1,1.4-2,1.9-2.7c2.8-5.6,8.1-4.4,17.8-2.2l1.5,0.4c1.8,0.6,3.2,1.6,4.3,3c1.8-1.1,3.6-2,4.7-2.3
			c3.1-0.9,5.5,0,12.8,2.7c1,0.4,2.2,0.8,3.5,1.3c2.8-4.6,7.6-4.2,10.9-3.4c0.1-0.3,0.1-0.6,0.2-0.9l0.4-1.6c1.1-2.8,3.2-4.5,6.3-5
			c0.1-0.2,0.1-0.4,0.1-0.5l0.9-3.7l3.6-1.6c1.4-0.6,3.8-1.6,11,1.2c0.6-1.5,1.6-2.8,3-3.9c2.8-2.1,6.9-2.6,10.3-1.3
			c2.2,0.9,8.3,5.8,12,9c0.8,0,1.7-0.1,2.4-0.1c0.9-0.1,1.7-0.1,2.1-0.1c0.4-0.1,2.9-0.6,5.7-1.2c1.9-2.5,4.8-5,8.8-4.5
			c2.2-1.8,4.9-2.2,8.4-2.4l0.6-0.9c1.9-2.7,4.7-4.7,8.1-5.8c2.7-1,5.3-0.8,7.6,0.5c3.4,2,4.1,5.3,4.3,6.6c0.2,0.7,0.4,1.2,0.5,1.7
			c2.3,1.7,7.2,5.1,8.5,5.9c1.7,0.8,3.7,2,5.6,3.4l0.8,0.7c0.7,0.7,1.8,1.8,7.7,12.5c0.3,0.5,0.7,1.2,1.2,1.9
			c0.9,1.4,1.8,2.7,2.5,3.8c2.4,0.5,6.7,2.2,7.7,8.2c0.5,1.5,1,2.9,1.6,4.3c0.7,0.6,1.7,1.4,2.6,2.2c1.6,1.4,3.2,2.7,4,3.5
			c1.6,1.4,12.1,9.1,15.8,11.4c0.8-0.1,1.9,0,2.8-0.1c2.8-0.2,6.5,0.6,9.3,5.2c0.9,0,1.6-0.1,2.1-0.3l1.2-0.4h1.3
			c3.7,0,7.2,1.6,9.5,4.4c0,0,0,0,0.1,0c7.5,0,9.1,6,9.3,7.3l0.3,1.4c0.4,1.7,1,4,1.2,5.2c0.2,1.4,0.3,3.5,0.3,10.4
			c0.4,0.4,0.7,0.7,0.9,1c0.9,1.1,2.3,2.6,3.2,9.9c0.5,0.5,1,0.9,1.4,1.3l1,1c1.8,1.8,2.3,3.4,4.7,12c0.5,1.9,1.3,4.7,1.9,6.7
			c0.5,0.1,1,0.3,1.4,0.4c3.5,1.1,7.5,2.4,8.5,7c1,3.5,3.8,14.4-0.1,19.6c-0.7,1-1.8,3.3-2.9,5.4c-2.3,4.4-3,5.8-4.2,6.9l-1.5,1.2
			c-0.4,0.3-0.9,0.5-1.3,0.7c0,1.1,0,2.1,0.1,3l0.6,0.6l0.7,1.4c1.6,2.9,1.8,5.8,1.8,7.6c0,1.8-0.5,4.2-1.9,10.4
			c-0.2,0.7-0.3,1.4-0.4,1.9c0.4,1.2,1.1,2.7,1.7,4.1c1.6,3.9,2.2,5.2,2.2,7.1c0,2.8-1.3,4.8-3.2,7.4c0.3,0.7,0.6,1.4,0.8,2.3l0.1,1
			c0.1,3.2,0.1,6.6,0,9.9l-0.1,3.1l-2.1,2.2c-1.7,1.8-3.9,3.2-6.6,4.3c-2.1,0.9-3.6,0.9-15.4,0.6c-2.7-0.1-5.4-0.1-7.3-0.1
			c-0.6,0.9-1.3,1.9-1.7,2.5c-0.2,0.3-0.4,0.6-0.6,0.9c-0.5,3.5-1.1,13.3-1.4,18.2c-0.7,10.2-0.7,10.8-2.7,12.8l-0.4,0.5
			c-3,4.1-8,11-15,7.4c-1.4-0.5-2.5-1.5-3.6-3.1c-8.4,9.1-10.6,10.6-15.7,8l-1.1-0.7c0,0-0.7-0.3-1.5-0.6c-2.5,0.2-8,0.8-11.5,1.2
			c-11.5,1.3-12.4,1.4-15.2-1.5l-0.8-1c0-0.1-0.1-0.1-0.2-0.2c-0.1,0-0.2,0-0.3,0c-3.5,2-8.3,4.4-12.8,1.2c-1.5-0.9-2.5-2.3-3.1-3.8
			c-1.1-0.4-2.4-1-4.1-1.7c-1.6-0.8-5.1-2.3-6.2-2.6c-0.5-0.3-1.2,0.2-1.8,0.6l-0.1,0c-0.5,0.5-1,1.1-1.6,1.8
			c-3.1,3.5-6.6,7.6-12,6.8c-2.6-0.3-4.9-1.7-8.6-4.5c-0.2,0.2-0.4,0.4-0.6,0.6c-2.5,2.2-5.9,2.7-12.4,2.8c-1.4,1.3-3.3,3.5-4.5,4.9
			c0,0.4,0.1,0.9,0.1,1.4c0.1,2.1,0.1,3.2-0.1,4.4c-0.9,4.4-4.5,6-8.1,7.2c-0.3,0.6-0.6,1.2-0.9,1.8c-2.1,4-2.7,5.2-3.9,6.4
			c-1.2,1.2-2.7,1.9-5,3.1c0,0.5,0,1-0.1,1.4c-0.1,1.7-0.1,2.4-0.3,3.4l-0.4,1.2c-1,2.2-2.4,4.1-4.4,5.8l-1.1,0.8
			c-1.5,0.9-7.2,3.4-12.1,2.7c-0.9-0.1-1.9-0.4-3-0.6c-0.9,3.9-4.1,5.7-5,6.1c-2.4,1.1-4.5,1.2-6,1.2c-0.5,0.6-1.3,1.4-2.2,2.6
			c-4,5-12.3,4.1-15.6,2.6c-3.2-1.5-4.9-4.3-6.9-8.3c-3.8-0.6-7.7-1-11.5-1.2c-3,1.8-10.1,6.8-11.8,8.2l-1.2,0.9l-1.5,0.5
			c-4.7,1.4-9.2,2.1-13.5,2.1l-0.9-0.1c-3.5-0.4-6-1.9-7.6-4.4c-1.4,1-3.9,2.7-5.9,4.2L588.9,705.9z M565.5,690.1h18.3
			c6.6-4.7,8.1-5.2,8.8-5.5c4.9-1.7,12.4,0.8,15.7,4.1c1.5-0.2,3.1-0.5,4.7-0.9c3.7-2.9,13.8-10.4,18.5-10.8l0.4,0l0.4,0
			c6.5,0.3,13,1,19.3,2.2l2.1,0.7c2.7,1.3,3.7,3.4,4.9,6c2.2-2.2,4.2-3.7,6.4-4.3c1-2.8,2.6-4.7,3.9-6.3l1-1.1l1.3-0.7
			c2.7-1.4,4.3-1,10.1,0.4c1.5,0.4,3.1,0.7,4.1,1c0.2,0,0.5-0.1,0.9-0.2c0.2-4.5,0.6-7.2,2.5-9.5c1.5-1.7,3.4-2.7,6.3-4.1
			c0.2-0.1,0.5-0.2,0.7-0.3c0.3-0.7,0.8-1.4,1.2-2.2c2.8-5.4,3.6-7,6.2-8.3c0.2-0.1,0.5-0.2,1.1-0.4c0-1.2,0.1-2.2,0.3-3.2
			c0.7-3.4,10.8-16.4,17.5-16.4c2.7,0,4.4,0,5.5-0.1c0.2-0.2,0.3-0.5,0.5-0.7c1.8-2.5,2.8-3.8,4.8-4.8c4.8-2.4,8.2,0.4,12.1,3.5
			c0.5,0.4,1.1,0.9,1.8,1.4c1.8-2,3.4-3.8,5.6-4.9c3.3-1.9,7-2.7,10.8-2.5c3.1,0.1,6.8,1.7,11.6,3.9c0.5,0.2,0.9,0.4,1.3,0.6
			l3.4-1.3l3.2,1.8c1,0.5,1.7,1.2,2.2,1.9l0.6,0c2.4-0.2,4.6-0.2,7.1,0c2.7,0.4,4.6,1.6,6.1,3.2c1.2-0.1,2.7-0.3,4.2-0.5
			c14-1.6,15.3-1.7,17.5-0.9l0.5,0.2c1.9-2.1,4.3-4.6,5.6-6c3.3-3.6,3.6-3.9,4.3-4.5l1.2-0.7c3.6-1.8,6.4-0.8,8.5,1
			c1.5-22.3,1.7-23.1,3.9-25.6c0-0.1,0.3-0.5,0.7-1c3.2-4.9,5.8-8.5,10-9.4c1.6-0.4,3.8-0.3,12.5-0.1c2.5,0.1,5.9,0.1,8.3,0.1
			c0-0.6,0-1.1,0-1.7c-3.2-5.1-2.2-8.9-0.7-11.3c0.3-0.5,1.1-1.7,2-3c0,0,0-0.1,0-0.1c-2.6-6.1-3.7-8.7-2.9-11.9
			c0.2-0.9,0.5-2.3,0.9-3.9c0.5-2.3,1.3-5.2,1.5-6.8c-1.5-2.1-2.2-4.1-2.7-5.7l-0.3-1.5c-0.8-11.2-0.5-16.7,5.5-18.7l1.2-0.3
			c0.3,0,0.5-0.1,0.8-0.2c0.4-0.7,0.8-1.5,1.3-2.4c1.3-2.5,2.3-4.4,3.1-5.8c-0.1-1.1-0.3-2.7-0.6-4.3c-3.3-1-6.1-2.1-8-4.5
			c-1.4-1.8-2.1-3.8-4.7-13.1c-0.7-2.4-1.3-4.7-1.8-6.2c-3.3-3.1-5.2-5.3-5.6-8.5c-0.2-1.5-0.4-3.3-0.6-4.4
			c-1.9-1.8-3.9-4.1-3.9-7.6l0-0.9c0.1-7.7,0-9.6-0.1-10c0-0.1-0.1-0.3-0.1-0.5c-2.4-0.5-4.6-1.8-6.2-3.8c-0.9,0.1-1.8,0.2-2.6,0.3
			c-0.1,0-0.1,0-0.2,0c-4.3,0-7.8-1.1-10.5-3.1l-1.8-1.8c-0.1-0.1-0.1-0.2-0.2-0.3c-0.9,0-1.8-0.1-2.7-0.1
			c-5.8-0.9-24.1-15.7-24.3-15.9c-0.6-0.6-1.7-1.5-2.9-2.5c-4.2-3.5-5.9-4.9-6.7-7.5c-0.5-1.1-1.1-2.6-1.7-4.3
			c-3.3-1.1-5.2-3.6-6.3-5.7c-0.5-1.2-1.8-3-2.7-4.4c-1-1.5-1.8-2.8-2.1-3.3c-1.9-3.4-4-7-5-8.6c-0.9-0.6-1.8-1.1-2.8-1.6
			c-0.5-0.3-8-4.8-12.1-8.6c-1.3,1.2-2.7,1.9-4.2,2.2c-0.3,0.1-1.4,0.2-2.9,0.2c-0.3,0-0.7,0-1.1,0c0,0.1-0.1,0.2-0.1,0.2l-1.9,3.9
			l-4.9,0.9c-0.7,0.1-1.4,0.1-2,0l-0.2,0.3l-3.3,0.6c-10,2.2-11.4,2.2-12.2,2.2l-1.3,0.1c-5.6,0.3-10,0.5-12.8-3.2
			c-0.3-0.2-1.1-0.9-2.1-1.7c-0.8,1.2-2,2.2-3.6,2.9c-2.3,1.1-9.5,4.7-14.3-0.1c-1.4,1.4-3,2.1-4.5,2.5c-0.1,0.2-0.2,0.4-0.2,0.6
			l-0.7,1.3c-1.3,1.9-2.8,3.6-4.5,5c-2.3,2.3-5.1,2.4-7.7,1.9c-0.9,1.3-2.1,2.4-3.7,3.2c-3.9,1.9-7.7,0.6-16.8-2.7
			c-1.6-0.6-3.1-1.2-4.4-1.6c-1.3,0.9-3.5,2.3-4.5,2.9l-2.9,2.9l-5-1.3c-1-0.3-3-1.2-4.8-2.6v1.1l-3.9,2.4c-3.4,2-6.5,1.1-9.6-0.4
			c-2.3,4.1-4,6.1-6.1,7.1c-0.8,2.2-1.9,4.7-2.4,6.2c0,0.3,0.1,0.6,0.1,0.8c1.5,2.3,3.3,6.3,1.3,10.3c-1.1,2.3-3.9,5.6-10.3,4
			c-0.1,0.1-0.2,0.1-0.2,0.2c-4.6,3.3-5.5,3.6-6.2,3.9l-1.3,0.4c-4.1,0.8-7.1-1.6-8.5-2.8c-5.5-4.5-6.2-7.4-6.2-9.8
			c0.1-1,0.1-1.8,0-2.6c-1-1.9-3.8-6.6-4.7-8.3l-0.6-1.1c-0.4-0.2-0.9-0.3-1.2-0.4c-0.9,0.3-2.2,0.9-3.1,1.3
			c-0.6,1.3-1.3,2.6-2.1,3.9l-1,1.3c-1.3,1.4-1.5,1.4-12.7,6.3c-3.4,1.5-6.7,2.9-8.5,3.7l-0.2,0.3c-3.9,4.6-5.2,5.9-7.3,6.8
			c-2,0.8-3.8,0.7-6.2,0.2c-1.1,1.1-2.5,1.9-4.3,2.3l-2.6,0.3c-0.6,0-1.2,0.1-1.9,0.1c-0.2,0.3-0.4,0.7-0.6,1.1
			c-1,1.9-2.3,4.1-3,5.5c0,0.3,0,0.6,0,0.9c0,1.6,0.1,3.2,0,4.2c0.9,1.1,2.3,3.3,2.3,6.7c0,0.7-0.1,1.5-0.2,2.3
			c0.5,0.7,0.9,1.5,1.2,2.3l0.7,1.5v1.7c0,2.7-7.2,18.4-10.3,20.4l-2.2,1c-2.3,0.6-5.8,1.4-9.3,1.6l-1.2,0.1l-1.2-0.3
			c-1-0.3-1.9-0.7-2.7-1.2c-1.3,0.8-2.3,1.3-3.6,1.6c-0.6,0.1-1.2,0.2-1.8,0.2c0.2,1.2,0.5,2.4,0.7,3.6l1.2,5.6l-5,2.8
			c0,0-2.8,1.6-4.8,2.8c-0.4,1.5-0.9,3.4-1.3,4.8c0.1,0.4,0.3,0.8,0.4,1.2c1.4,4.5,1.9,6.2,1.9,8c0,2.1-0.7,4-1.6,5.9
			c1.2,3.7,3.6,10.7,4.5,13l0.3,0.5l1.2,4.9l-2.1,3c-1.6,2.3-7.2,5-12,6.9l0.2,0.6l-0.3,0.7c2.1,1.6,3.9,3.5,4.1,6.6
			c0.1,0.9,0.6,2.9,1,4.8c2.2,0.9,3.3,1.9,4.2,2.9c2.3,3.1,3.9,6,5,8.7l0.4,1.2c0.8,3.7-3.5,18.9-9.2,22.2l0.1,0.4
			c2.5,10.5,2.9,12.9,2.8,14.8c0,0.4-0.1,0.8-0.1,1.2c3.3,4.5,9.1,13,9.9,15.6c0.4,0.9,0.5,2.5,0.7,5.4c0.1,0.8,0.1,2.2,0.3,3.5
			c1.3,0,2.7,0.1,3.5,0.1c1.6,0,2.9,0.1,3.2,0.2c5.7,0.8,5.8,1.2,11.6,24.5c1.1,4.6,2.7,10.8,3.7,14.6c1.1,0.3,2.2,0.6,3.3,0.8
			c1.3-2.3,2.1-3.6,3.5-4.7c2.6-2,6-2.9,8.9-2.2c1.2,0.3,2,0.7,3.7,1.6c0.7,0.4,1.6,0.9,2.4,1.2c0.4-0.1,0.9-0.2,1.4-0.2
			c1.9-0.3,3.8-0.6,4.6-0.6l0.8,0c3.3,0.3,6.3,1.9,8.5,4.5l1.1,1.6c0.6,1.2,0.8,2,1.8,6.8C565.3,689,565.4,689.6,565.5,690.1z
			 M729.1,630.1L729.1,630.1L729.1,630.1z M490.4,612.8c0.1,0.1,0.5,0.6,1,1.3C491.2,613.6,490.8,613.2,490.4,612.8z M888.8,579.7
			c0,0.1-0.1,0.1-0.1,0.2C888.7,579.8,888.8,579.7,888.8,579.7z M889.6,559.9L889.6,559.9l-0.1,0.8
			C889.5,560.4,889.5,560.2,889.6,559.9z M477.6,553.8c0,0-0.1,0-0.1,0C477.5,553.8,477.5,553.8,477.6,553.8z M885.3,512.5
			L885.3,512.5L885.3,512.5z M884,503.9c0,0,0,0.1,0,0.1C884,504,884,504,884,503.9L884,503.9z M510.6,484L510.6,484L510.6,484z
			 M858.7,446.6c0,0.2,0.1,0.3,0.1,0.5L858.7,446.6z M862.5,436.2c-0.1,0-0.2,0-0.3,0L862.5,436.2z M607.3,430.8
			c0.3,0.2,0.5,0.3,0.8,0.5L607.3,430.8z M579,413.9L579,413.9L579,413.9z M580.6,411.7c0,0.1-0.1,0.2-0.1,0.2
			C580.5,411.9,580.5,411.8,580.6,411.7z M658.1,398.7L658.1,398.7L658.1,398.7z M642.5,391.8c-0.1,0.3-0.4,0.8-0.8,1.4
			C642,392.8,642.3,392.3,642.5,391.8z M682.1,386.6c-0.2,0.1-0.3,0.3-0.4,0.4C681.8,386.8,682,386.7,682.1,386.6z M758.4,383.3
			L758.4,383.3L758.4,383.3z M733.5,377c0.6,0.6,1.1,1,1.2,1.2l0,0C734.3,377.8,733.9,377.3,733.5,377z M772.9,375.4
			c0,0.1-0.1,0.1-0.1,0.2c0.1,0,0.2-0.1,0.3-0.1L772.9,375.4z"/>
	</g>
	<g>
		<path class="st4" d="M493.9,468.4l3.1,8.3c1.2,1.6,2.4,3.1,3.9,4.6c0.3,0.1,4.6-3.8,5.2-3.9c0.7,0,1.4,0.1,2,0.3
			c1,0.3,1.8,0.8,2.6,1.5c0.1,0.7,0.3,1.4,0.3,2c0,0,7.6-1.4,7.9-1.5c0.3-0.1,1-5.4,1.4-6c0.4-0.5,6-5.2,6.1-6
			c0.1-0.8-1.4-2.4-2-3.7c-0.7-0.8-1.2-1.8-1.5-2.9c0-0.3,1.6-2.4,1.8-2.9c0.1-0.3-2.6-4.3-2.6-4.9c-0.1-3-0.1-6.1,0-9.1
			c0.3-0.3,3-3.7,2.9-4.1c-0.1-0.7-0.5-1.5-0.8-2.2c0,0,3-1.4,3.1-1.8c0.1-0.5,1.6-4.3,2.2-4.5c0.5-0.1,4.9,0.1,5.4,0
			c0.5-0.1,2.9-3.5,3.7-3.5c2.3-0.1,4.8-0.1,7.1,0c1.2,0.1,4.3-4.3,4.3-4.6c0-0.3,0.1-1.8,0.8-1.8c0.7,0,1.5-0.8,2-1
			c0.5-0.5,1.4-0.8,2-0.7c2.2,0,4.3-0.3,6.3-1c1-0.3,5.3-2,6.3-2.3c1.6-1,3.1-2.3,4.3-3.7c0.3-0.7,0.3-2.3,1.8-3s4.9-2.2,5.3-3.1
			c0.3-1,1.2-1.6,2.2-2c0.8-0.1,1.6-0.1,2.3,0c2,0.3,3.9,1,6,1.6c0.3,0.1,6.7,10.9,7.3,12c0.5,0.7,1,1.5,1.4,2.3
			c-0.1,1.8-0.1,3.5,0,5.3c0.5,1.2,1.2,2.4,1.8,3.5c0.3,0.1,1.5-0.8,2-0.7c0.5,0.1,1.8,1.2,2.3,1.2c1.4,0,2.6-0.3,3.8-0.8
			c0.5-0.3,3-3.5,3.5-3.5c0.5,0,0.8,1.2,1.4,1.5c0.5,0.3,1.6-0.3,2-0.5c0.3-0.1-2-7.1-1.8-7.6c0.1-0.5,2.9-3.8,2.9-4.5
			c-0.1-0.8-0.3-1.6-0.5-2.4c0-0.1,2.6-3.7,2.9-3.9c0.1-0.3-0.8-2.3-0.8-2.6s0.5-0.8,0.8-0.8c0.5,0.1,1.2,0.3,1.6,0.5
			c0.3-0.1,5.8-9,6.4-9.4c1.4-0.3,2.6-0.5,3.8-0.3c0.7,0.1,1.4,0.7,1.8,1.2c0.3,0.3,1.8,2.3,2.3,2.4c0.7,0,1.2-0.3,1.6-0.7
			c0.1-0.1-2-4.8-1.8-5.4c0.7-1.5,1.5-2.9,2.4-4.1c3.3,0.3,6.4,1,9.7,1.6c0.8,0.7,1.6,1.5,2.3,2.4c0.1,0.5-0.3,3.9,0,4.1
			c0.7,0,1.4,0,1.8-0.1c0.1,0,1.4-2.6,2-2.6c0.7,0,3.1,0.8,3.7,0.8s2.6-2.3,3.3-2.3c0.7,0,0-3.9-0.3-4.9c-0.3-1-3-2.4-3.3-3.1
			s-0.3-0.7-0.1-1.5c0-0.7,0-1.4-0.5-2c-0.1-0.3-1.4,0.1-1.8,0.5c-0.5,0.3-1-0.3-1.2-0.5c-0.1-0.1-0.5-1.8-0.7-2.2
			c-0.5-0.5-1.2-1-1.5-1.6c-0.7-1.2,1-5.6,1-6.4c0-0.8-0.5-0.5-0.1-1.2c0.3-0.7,0.8-1.6,1.4-1.2c0.7,0.3,1.4,0.5,2.2,0.7
			c0,0,1.6,0.8,2.2,1c0.5,0.1,1.4-0.7,1.5-1c0.1-0.3,0.3-2.9,1.4-2.9c2,0.3,3.8,0.3,5.8,0c1-0.5,3.8-6.1,3.8-6.7
			c0-0.5-3.3-8.3-3.5-9c-0.1-0.7,2.3-3.1,3.5-3.8s2.2-1.6,2.3-2.2c0.1-0.5,0-1.8,1-2.3c1-0.5,1-1.4,1.6-1.6c0.7-0.3,2.2-1,2.3-1.6
			c0.1-0.7,0.1-2.3,0.7-2.3s2.6-0.1,2.9-0.7c0.1-0.5,0.3-0.7,0-1.2c-0.3-0.5-1.8-2.3-2.2-2.6c-0.4-0.3,1.4-3,2-3c0.7,0,3.5,0,3.9,0
			c1-0.7,1.8-1.6,2.3-2.6c0.1-1,0.1-2,0-3c0.1-0.7,0.1-1.5,0-2.3c-0.1-0.5-0.8-1.2-1-1.6c-0.1-0.5-1.2-1.5-1-1.6
			c0.7-0.7,1.4-1,2.2-1.4c0.8-0.3,0.8-1.4,1-1.5l1.2-5.6c0,0,1.5,0.8,2,0.7c1.2-1,2.2-2.2,2.9-3.7c0-0.7-1.8-2-1.8-2.3
			s-1.2-1.6-1.2-2.4c0-0.8,0.1-1.5-0.1-2c-0.3-0.5-1.6-0.5-1.6-0.7c-0.1-0.3-0.3-0.7-0.3-1c0-0.5-0.5-3.3-0.5-3.3s-3.5,1.6-3.8,1.8
			c-1,0.5-2.2,0.8-3.1,1.2c-0.5,0-3.9,0.1-4.5,0.3c-0.5,0.1-1.2,0.3-1.6,0.7c-0.3,0.1-2,4.5-2.3,4.5c-0.8-0.8-1.5-1.6-2.2-2.6
			c-0.1-0.5-1-3.8-1.2-3.9c-1.2-0.1-2.3-0.3-3.5-0.1c-1.2-0.1-2.4-0.3-3.5-0.8c-0.7-0.7-1-1.4-1.4-2.2c0-1.2,0-2.3,0.5-3.5
			c-1.8-1.2-3.7-1.8-5.6-2.3c-0.7,0-1.8,2.2-2.3,2.4s-4.6-1-5.3-1.4c-1-0.5-1.8-1-2.6-1.6c-0.7-0.8-1.5-1.5-2.3-2.2
			c-0.7-0.1-1.6,2-2.2,2.2c-0.5,0.1-2.3-2.3-3-2.4c-0.7-0.1-8.3,1.5-8.7,1.2c-0.5-0.8-1-1.8-1-2.9c0.1-0.1,3.3-1.8,3.5-2.3
			c0.1-0.5-0.5-7.5,0-7.6c0.7-0.1,1.2-0.5,1.6-0.8c0.1-2,0.1-4.1,0-6.3c0-1.2,0-2.4,0.3-2.9c0.3-0.3,2.4-0.5,2.6-1.2
			c0.1-0.7-0.7-4.1-0.7-4.3s-1.4,0-1.4,0c-0.5,0.1-1.2,0-1.6-0.1c-0.7-0.3-2.4-0.3-2.9,0c-0.3,0.3-0.7,1-1.2,1.2
			c-0.8,0-1.8-0.3-2.6-0.7c-1.2-0.5-2.2-1-3.1-1.6c-0.5-0.3-2.6-3.7-3.5-4.5c-0.5-0.7-1.4-1-2-1.4c-1-0.1-2-0.1-2.9,0
			c-1,0-3,2-3.9,1.8c-1-0.1-2.3,0-2.3-0.8c0-0.8,0-3,0-3.7c-0.7-1.2-1.5-2.3-2.3-3.3c-1.4-1.6-2.4-3.5-3.5-5.4
			c0-0.5,1.2-4.3,1.4-4.9c0-2.3-0.5-4.6-1-6.9c-0.3-1.2-1-2.3-1.8-3.3c-1.4-0.1-2.9-0.1-4.1,0c-0.3,1-0.7,2.2-0.7,3.3l-3.7,1.4
			c-0.7-1.2-1-2.4-1.5-3.7c0.1-0.7,0.1-1.4,0-2c-0.3-0.5-1-0.5-1.2-1c-0.1-0.5-0.7-5.3-0.7-5.8c-0.5-1.5-0.8-3-1-4.5
			c0.1-0.5,0.1-4.3,0.1-4.8c-0.1-0.8-0.5-1.6-1-2.3c-0.3-0.5-3.9-0.3-4.6-0.7c-1.4-1.5-2.3-3-3.1-4.6c-0.1-0.5-0.5-1-1-1.4
			c-0.3-0.1-1.4,2.2-1.4,2.4s-0.5,2-0.5,2c-0.7,0.3-1.4,0.7-2,0.8c-0.8,0-1.6-0.1-2.4-0.5c-0.3-0.1-3-2.6-3.3-3.1
			c-1.2-0.8-2.4-1.4-3.8-1.8c-0.8-0.1-1.5-0.1-2.3,0l-1.8,0.5c-0.7,0.1-2,1.5-2.4,1.6c-1-0.1-2.2-0.5-3.1-0.8c0,0-2-0.1-2.3-0.5
			c-0.3-0.3-0.3-1.5-0.7-2c-0.3-0.5-1-1-1.6-1.2c-0.7-0.1-3.1-1.4-3.5-1.5c-0.3-0.1-1-0.1-1.4-0.5c-0.3-0.3-0.7-2-1.4-2.2
			c-0.7-0.1-2.4,0.3-2.9,0c-0.3-0.3-0.7-1.4-1-1.6c-0.3-0.3-1.8,0.3-2.3,0c-0.5-0.5-1-1.2-1.2-2c0-0.1,2.6-1.6,2.9-1.8
			c0.1-0.1-1.5-3-1.5-3.5s3.3,0.3,4.1,0.5c0.8,0.1,2.6,0.7,2.9,0.1c0.1-0.5-1-2.9-1.5-3.5c-0.5-0.7-1.5-3.1-1.8-3.7
			s-1.4-1.5-2.3-2.9c-0.8-0.8-1.5-1.8-2.3-2.9c-0.3-0.8-1-1.4-1.6-1.8c-1-0.1-2-0.1-3.1,0c-1.8,0-2.6,0.7-2.9,1
			c-0.1,0.3-0.1,2.9-0.1,3.1s-1.6,0.5-1.8,0.5s-4.3-0.5-4.8-0.5c-1.2-0.3-2.2-0.3-3.3-0.3c-1.2,0.8-2,1.8-2.9,2.9
			c-0.1,0.3-2.3,2.2-3,2.9c-1.2,1-2.4,2-3.8,2.9c-0.5,0.1-1.2,0.3-1.8,0.1c-1.4-0.1-2.4-0.1-3.8,0c-1,0.1-2,0.5-3,0.8
			c-0.7,0.3-1.2,0.5-1.5,0.1c-0.3-0.3-0.8-1.4-1.4-1.4s-1.2,0.8-1.2,0.8c0.8,0.8,1.6,1.8,2.3,2.9c0.3,1.4,0.5,2.6,0.5,3.9
			c0.8,1.5,2.2,2.6,3.7,3.5c1.2,0.5,2.3,1.2,3.5,1.8c0.1,1.4,0.3,2.4,0.7,3.8c0.8,0.7,1.6,1.2,2.4,1.6c0.8,0.5,1.5,1.4,2,2.3
			c0.1,0.7,0.7,5.3,0.7,6s-0.1,1.6-0.7,1.6c-0.5,0-1,0-1.5,0.1c-1,0.1-2,0.5-3,1.2c-0.5,0.5-0.7,1.5-0.5,1.6c0.1,0.1,1.5,0.3,1.8,1
			c0.3,0.7,0.1,6.9,0.1,6.9s-0.8,0-1.6,0c-0.8,0-0.8,0.8-0.8,1.5c0,0.5-0.1,1-0.3,1.5l-1.6-0.3c0,0-0.1,1.2-0.1,1.5s-0.7,0.5-1.5,1
			c-0.8,0.5-1.8,1.5-2.2,1.6c-0.3,0.1-0.1-0.5-0.3-1.2c-0.1-0.7-0.7-1.6-1.5-1.5c-1.5,0.1-2.9,0.5-4.1,1c-0.3,0.5-0.7,2.2-1.2,2.3
			c-0.5,0.1-1,0.5-1.4,1c-0.3,0.5-3,6.7-3.5,6.9s-1.5-1.4-1.6-1.6c-0.1-0.3-2.2,0-2.3,0c-0.5,0.1-0.8,0.5-1.2,0.8
			c-0.1,0.1-5.2,7.3-5.2,7.7c1.5,2.4,3,4.9,4.8,7.1c0.7,1,3.3,3,3.5,3.3c0.1,0.3,0.5,0.8,0.7,1.4c0,0-6.8,1.8-7.3,2.2
			c-0.5,0.3-2.9,2.4-3.5,3.1s-3.3,3.9-3.9,4.3c-0.8,0.5-1.8,0.8-2.6,0.8c-1-0.7-1.8-1.4-2.9-2.2c-0.5-0.3-2.3,0.1-2.9,0.3
			s-3.3,0.8-3.9,1c-0.8,0.3-1.8,0.5-2.9,0.5c-0.7,0-1.8-0.5-2.6-0.1c-0.8,0.3-2.4,1.5-2.9,1.6c-0.3,0.1-0.5-0.5-0.8-1.2
			s-3-0.7-3-0.7c-0.1,0.3-0.3,0.8-0.3,1.2c-0.1,0.7-0.5,1.2-1,0.7s-1.5-0.5-1.8-0.1c-0.3,0.3-1.2,2.2-1.4,2.3
			c-0.7,0.3-1.5,0.7-2.3,0.8c-1,0.1,1,7.1,1,7.5c-0.5,1.6-1.2,3.1-2.2,4.5c-2,1.2-3.9,2.3-6.1,3.3c-0.3-0.1-1.6-1-2.2-1
			s-0.7,0.5-0.8,0.5c-0.5,0.1-1,0-1.4-0.3c-1.5-1.5-3.1-3-4.9-4.1c-0.7-0.1-1.5,2.4-2,2.4c-1.8-0.5-3.5-1.2-5.2-2
			c-0.7-1-1.6-1.8-2.4-2.6c-2.4,0-5.2,0-7.6,0.5c-1.6,0.8-3.1,1.6-4.5,2.9c-0.7,2.6-1.4,5.3-1.6,7.9c0,0.3,2.2,1.4,2.4,1.6
			c0.3,0.3-1.4,1.8-2,2.3c-0.7,0.5,3.1-0.3,3.3,0c0.1,0.3,0,3,0.3,3.3c2,1.4,3.9,2.3,6,3.3c0.7,0.1,1.5-0.1,1.8,1
			c0.3,1.2,1.2,3,1.6,3.3c1,0.5,2,1.2,3,1.8c0.1,0.3-6,6.9-6.3,7.3c-0.3,1.2-0.5,2.4-0.5,3.8c0.1,0.7,1.2,3.7,1.5,4.3
			c0.3,1,0.5,2,0.7,3c-0.1,0.5-0.8,2.2-1,2.9s3.8,6,3.9,6.1c0.1,0.1,7.9,4.3,8.4,4.6c1.2,1.5,2.2,3,3.1,4.6c0.3,1.4,1,2.6,1.8,3.8
			c0.8,0.7,1.5,1.4,1.8,2.3c0,0.3-0.8,2-0.7,2.4c0.1,0.5,5.3,6,5.3,6s-0.3,2.6-0.5,2.9c-0.7,0.7-1.5,1.4-2.2,2.2
			c0,0.1,4.6,4.3,4.9,4.5c0.5,1.6,0.8,3.3,1,4.9c0,0.1-1.6,1.6-1.6,2c0.8,1,1.5,2,2.4,3c0.3,0.5-0.3,2.6-0.3,2.6s6.4,0.1,6.9,0.5
			c0.5,0.3,2.6,2,3,2.2c0.3,0.1,2.4-3,3-3.3c0.8-0.1,1.6-0.1,2.4,0c0.3,1.4,0.8,2.4,1.5,3.5c0.7,0.3,7.1,2.6,7.6,3.1
			c0.5,0.5,1,2.6,1.4,2.9c0.3,0.1,7.5,2.3,8.2,2.6c0.7,0.3,9.7,11.7,10.6,13c1,1.4,5.2,14.4,5.4,15.2c0.5,0.8,2.4,3.5,2.4,3.9
			c-0.5,1.4-0.8,2.6-1,4.1c0.1,0.5,0.8,1.6,0.7,2.3c-0.5,1-1,1.8-1.6,2.6c-0.5,0.7,1.8,5.4,2.2,5.8c1.4,1,2.6,2.2,3.8,3.5
			c0,0.5,0,1.8,0,2.2c0,0.3,4.9,15.1,4.9,15.5c0,0.5-1.5,5.6-1.5,5.6L493.9,468.4z"/>
		<path class="st7" d="M503.2,490.6v-1.7c-1.7,0.5-3.5,0.5-5.6-0.5l-1.2-0.6l-0.9-0.9c-1.8-1.8-3.2-3.5-4.7-5.5l-1.1-1.9l-5.2-13.8
			l9-6.7c0.1-0.2,0.1-0.4,0.2-0.6c-0.5-1.7-1.4-4.3-2.1-6.7c-1.7-5.3-2.2-6.9-2.4-7.9c-0.2-0.2-0.4-0.3-0.5-0.4l-1-0.8
			c-0.1-0.1-7.2-8.8-3.6-15.3l-0.1-0.4l0.1-1.4c0.1-0.8,0.2-1.5,0.3-2.2c0,0,0-0.1-0.1-0.1l-1.4-2.6c-3.2-9.6-4.3-12.7-4.7-13.6
			c-1.4-1.9-6-7.7-8.2-10.3c-0.7-0.2-1.5-0.5-2.3-0.7c-2.5-0.8-4.9-1.6-5.1-1.7l-0.7-0.4c-1.6-1-2.5-2.4-3-3.5
			c-1.2-0.5-2.6-1-3.5-1.3l-1.9-0.7c-1.7,0.8-3.9,1.1-6.3-0.1c-1-0.5-1.9-1.1-2.9-1.9c-1.7-0.1-3.9-0.1-4-0.1l-10.1-0.2l2.1-8
			l-2-2.3v-2.9c0-1.2,0.2-2.2,0.6-3.1c-2.4-2.1-4.8-5.1-4.8-8.3v-2.9l0.9-1c-2.4-2.7-2.8-3.7-3.2-5.1c-0.3-0.9-0.4-1.9-0.3-2.8
			c-0.8-1.2-1.7-2.8-2.3-4.7c-0.3-0.5-0.6-1-1-1.5c-2.6-1.4-7.6-4-8.8-5.2c-1.8-1.9-7.2-8.1-6.1-13.3c0.1-0.4,0.3-1,0.5-1.8
			c0,0,0,0,0,0c-0.4-1.1-1.5-3.9-1.7-5.3l-0.2-1.6c0-2.3,0.4-4.2,0.7-5.5l0.3-1.4l0.8-1.2c0.1-0.2,0.9-1.1,2-2.4
			c-1.8-0.9-3.8-1.9-5.9-3.3l-1.2-1c-0.5-0.5-0.9-1-1.2-1.5c-1.9-0.8-3.3-2.1-4.1-4.1l-2.3-5.5l1.4-1.1c0-0.2,0-0.3,0-0.5l0-0.8
			c0.3-3.1,1.1-6.2,1.8-9l0.6-2.3l1.8-1.6c2.1-1.9,4.3-3.1,6.2-4l1.8-0.6c3.3-0.7,6.6-0.7,9.3-0.7h3.3l2.3,2.3
			c0.2,0.2,0.4,0.4,0.6,0.6c1.9-0.9,3.8-0.8,5-0.6l1.4,0.3l1.2,0.7c1.3,0.8,2.5,1.7,3.6,2.7c0.4,0,0.8,0.1,1.2,0.2
			c0.1-0.1,0.2-0.1,0.3-0.2c-1-4.5-1.3-7.8,0.7-10.8l1.9-2.9l1.8-0.3c0-0.1,0.1-0.1,0.2-0.2l2.1-3.1l1.6-0.1l0.9-1.8h4.9
			c1.7,0,3.2,0.2,4.5,0.6c2-0.7,3.9-0.4,5-0.2l1-0.3c0.7-0.1,3.1-0.7,3.6-0.9c2.5-0.6,5.1-1,7.6,0c0.5-0.5,0.8-0.9,1.1-1.2
			c1.4-1.4,2.5-2.4,3.4-3.1c-0.9-1.3-1.7-2.7-2.6-4.1l-1.2-1.9l0-2.3c0-4.8,7.4-13.3,7.5-13.3l1.2-1c0.1-0.1,1.5-1.4,3.7-1.9
			l1.8-0.2l1-2.1l0.9-0.9c0.2-0.2,0.5-0.6,0.9-0.9c0.1-0.1,0.1-0.2,0.1-0.3l1.5-3l3.1-1c1.4-0.5,3-0.9,4.8-1.2l0.3-3l1.6,0.3l0-1.7
			c0-2.6,1.1-5.3,2.9-7.1l0.9-0.8c0,0,0,0,0,0c-0.2-0.1-0.3-0.3-0.5-0.4l-1.8-1.5l-0.7-2.3c-0.1-0.3-0.2-0.5-0.2-0.8l-0.7-0.4
			c-1.9-1.2-4.6-3.2-6.4-6.4l-0.9-1.8v-2c0-0.2,0-0.5-0.1-0.7c-0.2-0.2-0.3-0.3-0.5-0.5l-5.1-5.1l4.6-5.5c1.1-1.4,3.6-3.7,7.3-3.7
			c1.2,0,2.4,0.2,3.5,0.7c0.4-0.1,0.9-0.2,1.2-0.2c1.6-0.2,2.9-0.2,4.1-0.2c0.2-0.1,0.3-0.3,0.5-0.4l0.7-0.6c0.3-0.3,0.7-0.7,1.1-1
			c0.4-0.3,0.7-0.7,1-0.9c1.1-1.4,2.5-3,4.5-4.4l2-1.3h2.4c1,0,2.2,0,3.6,0.2l0.7-0.7c2-2,4.8-3.1,7.9-3.3c1.6-0.2,3.2-0.1,4.7,0.1
			l1.6,0.2l1.4,0.8c2,1.2,3.5,2.7,4.4,4.5c0.4,0.6,0.7,1,1.1,1.3l0.8,1c0.3,0.4,0.6,0.8,0.9,1.1c0.7,0.8,1.4,1.6,2,2.8
			c0.1,0.1,0.3,0.6,0.6,1.3c0.2,0.5,0.5,1.1,0.7,1.6c0.1,0.1,3.7,5.1,2.6,9.7l-0.6,1.7c-0.1,0.3-0.3,0.6-0.5,0.9
			c0.3,0.1,0.6,0.3,0.8,0.4l1,0.3c2,0.8,3.3,1.9,4.3,3c0.4-0.2,0.9-0.3,1.3-0.4l2-0.6c1.7-0.3,3.3-0.3,4.9,0l1,0.2
			c1.9,0.6,3.7,1.4,5.3,2.4c0.5-0.5,1-1,1.6-1.3l3.7-2.3l5.2,2.5l0.9,0.9c0.6,0.6,1.9,1.9,2.7,3.8c0,0.1,0.1,0.2,0.1,0.2
			c2.5,0.3,5.7,1.1,7.4,4.7c0.7,1.2,1.4,2.8,1.7,4.5l0.1,1.3c0,2.3,0,3.8-0.1,4.7c0.1,0.7,0.2,1.3,0.4,1.8l0.5,1.3v1.3
			c1.5-0.1,3.2-0.1,4.7,0.1l3.2,0.3l2.1,2.4c1.8,2.1,3,4.3,3.5,6.7l0.3,1.6c0.4,2.1,0.8,4.4,0.8,7l-0.2,1.9l-0.4,1.5
			c0,0.1-0.1,0.2-0.1,0.3c0.4,0.6,0.7,1.1,1.1,1.6c0.8,1,1.6,2,2.3,3.1c1.3-0.1,2.8-0.1,4.2,0.1l1.6,0.2l1.4,0.8
			c0.9,0.5,2.3,1.2,3.7,2.6c0.9,0.9,1.7,2,2.7,3.4c2.1-0.7,4.5-0.5,6.3-0.2c1.8-0.2,4.4-0.1,6.6,1.8l2.9,2.4l0,3
			c0.6,3.1,0.9,4.8,0.5,6.7c-0.3,1.8-1.2,3.3-2.6,4.5c0,1.5,0,3.1-0.1,4.8l-0.3,3.8l-0.7,0.5c0.2,0.1,0.4,0.1,0.5,0.2
			c1.4-0.4,2.7-0.4,3.8-0.1l1.9,0.4l1.5,1.3c0.9,0.8,1.8,1.5,2.6,2.4c0,0,0.1,0,0.1,0c1.2-0.9,2.8-1.5,4.8-1.5l2.2,0.3
			c2.1,0.6,5,1.4,7.9,3.4l5.4,3.7l-0.7,1.6l0.9,0.1l1.4,0.7c0.5,0.3,0.9,0.5,1.3,0.8c0.1,0,0.2-0.1,0.3-0.1c1.3-0.3,3.5-0.4,5-0.5
			c0.1,0,0.1,0,0.2-0.1l1-0.4c0.3-0.1,3.9-1.8,3.9-1.8l9.3-4.3l1.7,9.9c0,0,0,0.2,0.1,0.6c0.7,0.7,1.2,1.4,1.7,2.3
			c0.7,1.3,0.9,2.6,1,3.6c1.3,1.4,3,3.6,3,6.7v1.7l-0.7,1.6c-1.2,2.7-3,4.9-5.2,6.6l-0.4,0.4l-0.9,2.6c-0.1,0.2-0.2,0.4-0.3,0.6
			c0.2,1.4,0.3,2.6,0.2,3.7c0.1,1.3,0.1,2.7-0.1,4l-0.2,1.5l-0.8,1.3c-1.1,2-2.8,3.8-4.6,5.1l-0.4,0.3c-0.1,0.9-0.3,1.6-0.4,2
			l-0.6,1.6c-0.8,1.7-2.2,3-4,3.9c-0.9,1.4-2.2,2.6-4,3.6c-0.7,2.4-2.5,4.2-4.1,5.4c1.9,4.8,2.1,5.6,2.1,7.1
			c0,3.2-4.1,11.5-7.8,13.5l-1.3,0.7L666,375c-0.8,0.1-1.5,0.2-2.2,0.2c-0.6,0.8-1.5,1.6-2.4,2.2l0.2,0.4c0.9,1.4,1.3,2.7,1.6,3.9
			c1.4,1.2,2.7,2.7,3.3,4.8c1,3.6,1.7,8.5-0.9,11.8l-2.4,3.1l-1.4,0c-1.6,1.3-3.3,2.1-6,2.4l-0.3,0.6l-2.9,0.7l0.1,0.2
			c-1.6,0.5-3.1,0.5-4.2,0.5h-1.8l-1.6-0.8c-1-0.5-1.8-1.1-2.4-1.7c-0.3,0.5-0.6,0.9-1.1,1.4c-2.1,2.1-4.7,3.2-7.4,3.2l-2-0.2
			c-1.1-0.3-2.1-0.8-3-1.4c-0.1,0.1-0.1,0.2-0.2,0.3c-1.6,2.5-2.6,3.9-3.3,4.8c-0.1,0.4-0.3,0.8-0.5,1.2l-1.4,1.9c0,0,0,0.1-0.1,0.1
			l0,0.7c0,2.4-1,4.2-2.3,6.1c0.1,0.2,0.1,0.4,0.2,0.6c0.9,3.3,2.6,9.2-2.9,12.2c-1.1,0.7-3.2,1.7-5.6,1.7c-0.5,0.4-1,0.8-1.6,1.1
			c-4,1.8-7.9,2.1-10.6,1.1c-1.3,0.2-2.9,0.1-4.6-0.7l-2.5-1.2l-1.7-3.5c-0.5-0.9-1-1.8-1.4-2.8l-0.6-1.2l-0.1-1.4
			c-0.1-1.3-0.1-2.7-0.1-4l-1.9-3c-1.2-2-2.8-4.7-3.9-6.5c-0.1,0-0.2,0-0.2-0.1c-1.3,1.2-3,2.2-5,3.2l-0.4,1.1l-0.9,1
			c-2,2.2-4.1,4-6.3,5.2l-1.8,0.8c-0.4,0.1-1.4,0.5-2.4,0.9c-1.6,0.6-3.2,1.2-3.8,1.4c-1.7,0.6-3.9,1-6.4,1.2l-0.4,0.1
			c-1.5,2.6-3.7,4.8-4.4,5.3c-2.3,2-4.8,2.9-7.4,2.6c-0.8,0-1.8,0-2.9-0.1c-1.2,1.4-2.6,2.8-5,3.4c-0.8,0.2-1.5,0.3-2.5,0.3
			c-0.4,0.9-1,1.7-1.7,2.3c-0.3,1.4-1.1,3.2-2.8,5.3c0,1.3,0,2.7,0,4.1c0.1,0.2,0.2,0.4,0.3,0.6c1.5,2.6,3.3,5.5,1.8,9.2
			c1.2,1.7,2.8,4.3,2.2,7.8c-0.5,3.2-2.6,5.1-6.8,8.8c0,0.2-0.1,0.4-0.1,0.6c-0.6,3.2-1.2,6.4-4.8,8.3c-1.1,0.6-1.2,0.6-10,2.2
			L503.2,490.6z M527.7,476.3L527.7,476.3L527.7,476.3z M505.7,469.5h0.5c1.1,0,2.3,0.2,3.4,0.4l0.9,0.2c0.9,0.3,1.7,0.6,2.4,1
			c0.3-0.8,0.7-1.4,1.2-2.1c0.2-0.2,1.2-1.3,2.5-2.5c-0.6-1.1-1-2.2-1.3-3.3l-0.2-1.9c0-1.2,0.2-2.1,0.6-3c-0.9-1.6-1.4-3-1.4-4.8
			c-0.1-2.9-0.1-6.2,0-9.5l0.1-3l1.7-1.8L514,434l6.7-3.1c1.2-2.8,3.3-5.9,6.8-6.8c1.1-0.3,2.1-0.3,3.9-0.2c1.6-1.8,3.8-3.5,7.1-3.5
			c1.2-0.1,2.6-0.2,4-0.1c0.9-2.9,3-5.1,5.8-5.9c0.1-0.1,0.2-0.1,0.3-0.2c1.9-1.3,4.4-2,6.6-1.8c1.3,0,2.4-0.2,3.2-0.5
			c0.9-0.3,1.9-0.7,2.9-1.1c0.9-0.3,1.8-0.7,2.5-0.9c0.3-0.2,0.6-0.4,0.8-0.7c0.9-2.6,2.8-4.8,5.5-6c0.8-0.4,1.7-0.7,2.4-1.1
			c1.2-1.8,3-3.2,5.2-4.1l1.8-0.5c1.7-0.3,3.5-0.3,5.1,0c2.1,0.3,4.4,1,6.4,1.7l1.7,0.7c2.2,1.1,2.2,1.1,8.7,12l1.5,2.5
			c0.9,1.2,1.4,2.3,1.9,3.2l0.2,0.5c0.1-0.5,0.2-1,0.4-1.5c0.4-1.1,1-1.9,1.8-3v-1c0-2,0.9-4,2.1-5.7c0-0.3,0-0.5,0-0.8
			c0-3.8,2.7-7.2,6.3-8.3c0,0,0-0.1,0.1-0.1c3.8-5.7,4.3-6.5,5.7-7.5l1.4-1l1.7-0.4c1-0.2,2.1-0.4,3.3-0.5c0.7-1.2,1.4-2.4,2.2-3.4
			l2.6-3.4l4.3,0.3c2.1,0.2,4.1,0.5,6.1,0.9c-0.2-0.3-0.4-0.7-0.6-1.1c-1.3-2.8-1-5.7-0.4-8.3l-1.2-1.6l2.4-4.4
			c1.6-3.6,4.1-5,5.9-5.5l3.7-1.1l0.8,0.5c2.1-1.6,4.3-1.8,5.3-1.8l0.8,0c-0.6-1.4-1.2-2.8-1.6-3.8l-0.9-2.4c-1.1-5.7,4-10,6.4-11.6
			c0.6-2,1.8-3.4,3-4.3c0.5-0.6,1.1-1.3,2.1-2c0.2-0.4,0.3-0.8,0.5-1.1c-0.2-1.2-0.1-2.4,0.3-3.6c0-0.1,2-6.1,6.9-7.8
			c-0.7-1.3-1.2-3.2-0.7-5.4l0.9-3.7l2.5-1.2c0.1-0.1,0.2-0.1,0.3-0.2l1.2-5.4l-0.4,0c-0.1,0-0.4,0-0.8,0c-1.3,2.6-3.3,5.4-7.7,5.4
			h-3.3l-2.3-2.3c-1.1-1.1-2.1-2.3-3-3.6l-0.7-1c-1.4-0.2-3-0.6-4.7-1.4l-1.1-0.6l-0.9-0.9c-1.2-1.2-1.9-2.4-2.4-3.3
			c-4.8,0.5-10-2.4-10.1-2.4c-0.5-0.3-0.9-0.5-1.3-0.7c-3.1,0.8-5.6-0.5-7.2-1.8c0,0-0.1,0-0.1,0c-5.2,0.9-7.6,1.3-10.5-0.6
			l-1.3-0.9l-0.9-1.3c-1.5-2.3-2.3-4.7-2.3-7.2v-3.1l2.2-2.3c0.4-0.4,0.8-0.8,1.2-1c-0.1-3.1,0.1-6.3,1.9-8.5c0-0.5,0-1-0.1-1.5
			c0-0.1,0-0.2,0-0.3c-1.3-0.3-2.3-0.7-3.1-1.1c-1.1-0.5-2.4-1.1-3.9-2.1c-1.5-1-2.4-2.3-3.6-3.8c-1.6,0.7-3.4,1.3-5.7,1
			c-7.2-0.5-9-5.7-9-8.6v-1.3c-0.1-0.2-0.3-0.3-0.4-0.5c-1.9-2.3-3.2-4.6-4.4-6.7l-1-1.8v-2.1c0-0.9,0.1-1.7,0.4-2.9l-6,2.2
			l-3.3-5.9c-0.6-1.1-1.1-2.2-1.4-3.4l-1.4-3.2l0-0.2l-0.3-0.5l-0.3-1.3c-0.2-1-0.6-4.2-0.8-6.2c-0.5-1.7-0.8-3.4-1-5.4l-0.1-1
			c-0.5-0.2-1-0.4-1.5-0.7l-0.5-0.3c-0.6,0.2-1.2,0.4-2,0.6l-1.5,0.1c-2.1,0-4.2-0.5-6-1.4c-0.9-0.5-3-2.1-4.7-3.9
			c-0.9,0.7-1.7,1.2-2.8,1.6l-1.8,0.6l-1.9-0.3c-1-0.1-2.3-0.5-3.5-0.8c-2.3-0.2-5.1-1-7-3.4c-0.5-0.6-0.8-1.1-1.1-1.7
			c-0.3-0.1-0.6-0.3-1-0.4l-0.6-0.2c-1-0.3-2.6-0.9-4-2.3c-1-0.2-2.1-0.6-3.1-1.3l-0.7-0.5c-0.5-0.1-1.1-0.3-1.7-0.6l-1.2-0.6
			l-0.9-0.9c-1.4-1.4-2.4-3.1-3.1-5.1l-0.4-1.2v-1.3c0-1.8,0.6-3.3,1.4-4.5c0-0.3,0-0.5,0-0.8v-1.8c-0.8,0.2-1.7,0.3-2.6,0.3
			c-0.1,0-1.1-0.1-2.4-0.2c-0.9-0.1-2.1-0.3-2.7-0.3c-0.6,0.6-1.3,1.3-2.3,2.2l-2.6,2.3c-1.2,1-2.4,1.9-3.7,2.7l-0.2,0.1l0.9,0.4
			l0.5,4.5c1.6,1.2,3.1,2.8,4.2,4.7l0.6,1.1l0.2,1.3c0.2,0.8,0.8,6,0.8,7.5c0,3.8-1.6,6.5-3.8,8c0,1.2,0,2.7,0,4.7l-0.2,7.7h-3.6
			l-1,3.8l-3.7-0.5c-0.5,0.3-1,0.6-1.5,0.8c-0.7,0.7-1.6,1.4-2.8,2l-3.6,1.7l-2.2-1.2c-2.2,4.7-3.3,6.6-5.9,7.8l-2.9,1.4l-0.5-0.2
			c0.2,0.2,0.3,0.4,0.5,0.7c0.5,0.6,1.4,1.3,1.9,1.7l2.1,1.9l0.6,1.2c0.1,0.2,0.8,1.3,1.2,2.8l1.9,7.6l-7.6,2c0,0-3.5,0.9-5.4,1.5
			c-0.7,0.6-1.5,1.4-1.9,1.8l-0.8,1c-2.1,2.4-3.1,3.6-4.6,4.5c-1.7,1.2-4.2,1.9-6.7,1.9h-2.5l-2.1-1.5c-0.2-0.1-0.3-0.2-0.5-0.3
			c-0.9,0.2-1.9,0.5-2.5,0.6c-1.4,0.4-3.6,0.9-5.6,0.8c-0.5,0.3-0.9,0.6-1.5,0.8l-2.9,1.4l-2.5-0.9c0.3,1.2,0.4,1.8,0.4,2.8v1.3
			l-0.4,1.2c-0.8,2.5-1.9,4.6-3.2,6.5l-1,1.4l-1.5,0.9c-2.3,1.4-4.5,2.6-7,3.7l-3.4,1.5l-2.4-1.2c-2.1,0.1-4.2-0.4-6-1.6l-0.8-0.5
			c-0.6,0.1-1.2,0.2-1.8,0.2l-2.3-0.3c-2.3-0.7-4.4-1.5-6.4-2.5l-1.7-0.9l-0.6-0.8c-0.5,0-1,0.1-1.5,0.1l1.7,1.7l-0.1,1.4
			c0.1,0.1,0.2,0.3,0.2,0.4c0.4,0.8,0.6,1.4,0.7,2.1c0.2,0.1,0.5,0.2,0.7,0.3c3.8,0.5,6.2,3.4,7.1,6.2l3.1,1.8l1.1,2.1
			c2.6,5,0,7.9-5.6,14.2l-0.1,0.1c0.3,0.7,0.6,1.6,0.7,1.9l0.3,0.8c0.4,1.3,0.7,2.8,0.9,4.1l0.2,1.5l-0.4,1.5c0,0,0,0.1,0,0.1
			c0.2,0.3,0.5,0.7,0.7,1c2.1,1.2,6.1,3.3,6.7,3.6l1.4,0.7l1.1,1.3c1.7,2,2.9,4,3.8,5.6l0.7,1.1l0.3,1.3l0,0c0,0,0,0.1,0.1,0.2
			c1.3,1.2,2.6,2.9,3.3,5.3l0.3,2.2c0,0.1,0,0.3,0,0.4c1.2,1.3,2.5,2.6,2.5,2.6l2.5,2.6l-0.4,3.6c-0.1,0.9-0.2,1.7-0.3,2.6l1.1,0.6
			l1,3c0.7,2.1,1.1,4.3,1.3,6.7l0.1,0.8c0.5,0.1,0.9,0.2,1.3,0.3c0.2-0.1,0.5-0.3,0.7-0.4l2.2-0.7c1.7-0.3,3.4-0.3,5.1,0l5.4,0.9
			l0.8,4.2c4.8,1.8,5.9,2.5,7.1,3.7c0.6,0.7,1.1,1.3,1.5,2c0.1,0,0.3,0.1,0.4,0.1c2.2,0.7,4.5,1.4,4.9,1.6
			c4.2,1.6,14.1,15.7,14.2,15.9c0.8,1.1,1.5,2.2,6.1,16.3c2.1,3.2,3.2,4.9,3.2,7.4v1.5l-0.6,1.4c-0.1,0.1-0.1,0.3-0.1,0.4
			c0.4,1.1,0.7,2.8,0.3,4.7l-0.7,1.9c1.2,1.1,2.3,2.2,3.1,3.1l2,2.3v4.1c0.4,1.2,1,3.2,1.7,5.3c3.2,9.8,3.2,9.8,3.2,11.3
			c0,1,0,1.7-1.8,7.8l-0.7,2.5L505.7,469.5z M539.6,436.2c-0.2,0-0.4,0-0.6,0C539.2,436.2,539.4,436.2,539.6,436.2z M545.4,420.4
			c0.2,0,0.5,0,0.7,0C545.8,420.4,545.6,420.4,545.4,420.4z M577.1,417.4C577.1,417.4,577.1,417.4,577.1,417.4
			C577.1,417.4,577.1,417.4,577.1,417.4z M573.4,401.6L573.4,401.6L573.4,401.6z M659.4,401.4l-0.3,0
			C659.2,401.4,659.3,401.4,659.4,401.4z M443.1,385.5c0,0,0.1,0.1,0.1,0.1L443.1,385.5z M676.2,349.9c-0.1,0.1-0.2,0.1-0.3,0.2
			C676,350,676.1,349.9,676.2,349.9z M684.9,318.2L684.9,318.2L684.9,318.2L684.9,318.2z M683.4,310.2c-0.2,0.1-0.5,0.2-0.7,0.3
			L683.4,310.2z M662.2,294.7l-1.5,1l1.9-1H662.2z M444.2,276.7c-0.2,0-0.4,0.1-0.6,0.1C443.7,276.8,444,276.7,444.2,276.7z
			 M441.4,270.7c0.1,0.1,0.2,0.2,0.3,0.3L441.4,270.7z M632.4,251.1c-0.2,0-0.4,0.1-0.5,0.1C632,251.1,632.2,251.1,632.4,251.1z
			 M500.9,232.5L500.9,232.5C500.9,232.5,501,232.5,500.9,232.5C501,232.5,500.9,232.5,500.9,232.5z M497.3,223.8
			c0,0.3-0.1,0.7-0.1,1.1C497.2,224.6,497.2,224.2,497.3,223.8z M492.4,220.3c-0.1,0-0.2,0-0.2,0.1
			C492.2,220.3,492.3,220.3,492.4,220.3z M563.5,206.9l-0.5,0.1C563.1,207.1,563.3,207,563.5,206.9L563.5,206.9z M584.5,203.7
			C584.5,203.7,584.5,203.8,584.5,203.7C584.5,203.8,584.5,203.7,584.5,203.7L584.5,203.7z M529.8,173.7c0.1,0.2,0.2,0.5,0.3,0.7
			L529.8,173.7z"/>
	</g>
	<g>
		<path class="st4" d="M511.1,481.7v-0.3c0-0.7-0.1-1.4-0.3-2c-0.8-0.7-1.6-1-2.4-1.4h-0.1c-0.7-0.1-1.2-0.3-1.8-0.3
			c-0.8,0.5-1.5,1.2-2.3,1.6c-2.3,1.8-2.9,2.3-3.1,2.2c-1.5-1.5-3-3-4.1-4.8c0-0.1-2-5.4-3.1-8.3v-0.1l6.8-4.3
			c0.5-2,1.4-5.2,1.4-5.4c0-0.3-1.5-4.9-2.9-8.7c-1.8-5.6-2.2-6.8-2.2-6.9c0-0.1,0-0.5,0-1c0-0.5,0-0.8,0-1.2
			c-0.8-1-1.8-1.8-2.9-2.4l-0.8-0.8c-0.1-0.1-2.9-5.3-2.2-6.3c0.7-0.8,1.2-1.6,1.5-2.4c0-0.7-0.1-1.2-0.5-1.6c0-0.1-0.1-0.1-0.1-0.3
			c-0.1-0.3,0-1.2,0.7-2.9c0.1-0.5,0.3-1,0.3-1.4c-0.3-1-1-1.8-1.6-2.6c-0.3-0.5-0.7-1-0.8-1.4c-0.1-0.3-0.7-2-1.6-4.9
			c-1.4-3.9-3.1-9.7-3.8-10.2c-0.8-1.2-9.8-12.5-10.5-12.9c-0.3-0.1-2.6-0.8-4.5-1.5c-2.2-0.7-3.5-1.2-3.7-1.2s-0.5-0.7-0.8-1.5
			c-0.1-0.5-0.3-1-0.7-1.4c-0.1-0.1-2.9-1.2-4.5-1.8c-1.6-0.7-3-1.2-3.1-1.4c-0.8-1-1.4-2.3-1.6-3.5c-0.7-0.1-1.5-0.1-2.2,0
			c-0.5,0.5-1,1-1.5,1.6c-1.2,1.4-1.5,1.6-1.6,1.6c-0.7-0.3-1.2-0.7-1.6-1.2c-0.5-0.3-1-0.7-1.5-1c-0.3-0.1-4.3-0.3-6.8-0.3h-0.3
			v-0.3c0.3-0.8,0.3-1.6,0.3-2.4c0-0.1-0.5-0.5-0.8-1c-1.4-1.4-1.6-1.8-1.6-2.2s0.3-0.7,1.2-1.5c0.1-0.1,0.3-0.3,0.5-0.5
			c-0.1-1.5-0.5-3.1-0.8-4.6c-0.3-0.1-1.5-1.4-2.4-2.2c-2.4-2.2-2.4-2.3-2.4-2.4c0-0.1,0.1-0.3,1.5-1.6c0.3-0.1,0.5-0.5,0.7-0.7
			c0-0.1,0.3-1.5,0.5-2.6c-1.8-1.8-3.7-3.8-5.3-6c0-0.7,0-1.5,0.5-2c0.1-0.1,0.1-0.5,0.1-0.7c-0.5-0.8-1-1.5-1.8-2
			c-1-1.2-1.6-2.4-2-3.9c-0.8-1.6-1.8-3.1-3-4.6c-0.3-0.3-7.9-4.5-8.4-4.6c-0.5-0.1-4.3-5.4-4.1-6.4c0.1-0.7,0.3-1.5,0.7-2.2
			c0.1-0.3,0.1-0.7,0.3-0.8c0-1-0.1-2-0.7-2.9c0-0.1-0.1-0.7-0.3-1c-0.3-1.2-1-2.9-1-3.1c-0.1-1.4,0-2.9,0.5-3.9l1-1.2
			c1.4-1.5,4.6-5.2,5.2-6c-0.8-0.7-1.8-1.2-2.6-1.6c-0.8-0.3-1.6-2.4-1.8-3.5c-0.1-0.7-0.5-0.7-1-0.7h-0.5c-2.2-1-4.1-2-6.1-3.3
			c-0.1-0.1-0.3-0.7-0.3-2.2c0-0.3,0-0.8,0-1s-0.8,0-1.4,0.1c-1.6,0.1-2,0.1-2.2,0c0-0.1,0-0.3,0.1-0.5c0.8-0.5,1.5-1.2,2-2
			c-0.3-0.1-0.7-0.5-1-0.7c-1-0.7-1.5-0.8-1.5-1.2c0.3-2.9,0.8-5.4,1.6-8.2c1.5-1.2,3-2,4.6-2.9c2.4-0.3,5.2-0.5,7.7-0.5
			c0.3,0.1,1.2,0.8,2.3,2.3l0.5,0.5c1.6,1,3.3,1.6,5.2,2.2c0.1-0.3,0.3-0.7,0.5-1c0.5-0.8,1-1.8,1.5-1.6c1.8,1.4,3.7,2.6,5.2,4.3
			c0.1,0.3,0.7,0.5,1,0.3c0.1,0,0.1-0.1,0.1-0.1c0.1-0.1,0.5-0.3,0.7-0.3c0.5,0.1,1,0.3,1.4,0.7c0.3,0.1,0.5,0.3,0.8,0.3
			c0.5-0.1,3.9-2.2,5.2-2.9l0.8-0.5c0.8-1.4,1.6-2.9,2-4.3c0,0-0.1-0.5-0.1-1c-0.8-3.5-1.4-5.8-0.8-6.4c0-0.1,0.1-0.1,0.3-0.1
			c0.8-0.1,1.5-0.5,2.2-0.8c0-0.1,0.3-0.7,0.7-1.2c0.1-0.3,0.5-0.8,0.7-1.2c0.3-0.5,1.5-0.1,2.2,0.1c0.1,0,0.1,0,0.3,0
			c0.1,0,0.3-0.3,0.3-0.7c0.1-0.7,0.3-1.4,0.3-1.4v-0.1h0.1c0.7,0,2.9,0.1,3.1,0.8c0.1,0.1,0.1,0.3,0.3,0.5c0.1,0.1,0.1,0.3,0.1,0.3
			s0.7-0.3,1-0.5c0.5-0.3,1.2-0.8,1.8-1c0.7-0.1,1.5-0.1,2.2,0.1l0.7,0.1c1,0,1.8-0.1,2.6-0.5c0.5-0.1,2.3-0.7,3.3-0.8l0.7-0.1h0.1
			c1.5-0.3,2.4-0.5,2.9-0.3c0.3,0.1,0.5,0.5,0.8,0.7c0.5,0.5,1.2,1,1.8,1.5c0.8,0,1.8-0.3,2.4-0.8c0.1-0.1,1-1,1.6-2
			c0.7-1,1.8-2,2.2-2.4c0.3-0.5,0.5-0.5,0.8-0.8c1.4-1.2,2.3-2.2,2.6-2.3c0.3-0.1,5.4-1.6,7.1-2.2c-0.1-0.3-0.3-0.7-0.5-1
			c-0.3-0.3-0.8-0.8-1.4-1.2c-0.8-0.7-1.5-1.4-2.3-2.2c0,0-4.9-6.8-4.8-7.5c0-0.1,0-0.5,4.9-7.6l0.1-0.3c0.3-0.5,0.8-0.7,1.4-1h0.3
			c1.5-0.1,2.2-0.1,2.3,0.1l0.1,0.1c0.7,1,1,1.4,1.2,1.4c0.3-0.3,2.2-4.3,2.9-5.8c0.1-0.5,0.5-1,0.5-1c0.3-0.5,0.8-1,1.5-1.2l0,0
			c0.1,0,0.5-0.8,0.7-1.2c0.1-0.3,0.3-0.8,0.5-1.2c1.4-0.7,2.9-1,4.3-1.2c1-0.1,1.6,1,1.8,1.6c0,0.3,0,0.5,0,0.8l0,0l0.8-0.7
			c0.3-0.3,0.8-0.7,1.2-1c0.3-0.1,0.5-0.3,0.8-0.5c0.3-0.1,0.5-0.1,0.5-0.3c0-0.3,0.1-1.5,0.1-1.5v-0.3l1.6,0.3
			c0.1-0.3,0.1-0.8,0.3-1.2c0-0.7,0.1-1.6,1.2-1.8c0.5,0,1,0,1.4,0c0.1-2.2,0.1-4.5-0.1-6.7c-0.3-0.3-0.7-0.5-1.2-0.7
			c-0.3,0-0.5-0.1-0.7-0.3c-0.5-0.5,0-1.5,0.5-2.2c0.7-0.5,1.4-0.8,2.2-1c0.3,0,0.7-0.1,0.8-0.1c0.3-0.1,0.7-0.1,1.2-0.1l0,0
			c0.1,0,0.1,0,0.3,0s0.3-0.7,0.3-1.5c0-0.8-0.5-5.3-0.5-6c-0.5-0.8-1-1.5-1.8-2.2c-0.8-0.5-1.8-1-2.4-1.6c-0.1-0.3-0.3-1-0.5-2.6
			c0-0.5-0.1-1-0.1-1.2c-1-0.7-2-1.2-3.1-1.6h-0.1c-1-0.5-3.7-2.9-3.8-3.7c0-0.1,0-0.5,0-0.8c0-1-0.1-2.2-0.3-3.1
			c-0.7-1-1.4-1.8-2.3-2.6l-0.1-0.1l0.1-0.1c0.1-0.1,0.8-0.8,1.4-0.8s0.8,0.5,1.2,1c0.1,0.1,0.1,0.3,0.3,0.5
			c0.1,0.1,0.3,0.1,0.8-0.1l0.3-0.1c1-0.3,2-0.7,3.1-0.8c1.2-0.1,2.2-0.1,3.3,0h0.5h0.3c0.5,0,1,0,1.5-0.1c1.4-0.8,2.4-1.8,3.7-2.9
			c0.3-0.3,0.8-0.8,1.5-1.4c0.5-0.5,1-1,1.5-1.5c0.1-0.3,2.2-2.9,3-3c1-0.1,2.2,0,3.1,0.3h0.3c0.5,0,4.5,0.5,4.6,0.5
			c0.5,0,1-0.1,1.5-0.3c0-0.1,0-0.7,0-1.2c0-0.7,0-1.5,0.1-2.2c0.1-0.5,1.2-1.2,3-1.2h1.6c0.5,0,1,0,1.5,0c0.7,0.1,1.5,1.4,1.8,2
			c0.3,0.5,0.7,1,1,1.5c0.3,0.3,0.7,0.8,1.2,1.4c0.5,0.5,1.2,1.4,1.6,1.8c0.4,0.4,0.7,0.7,0.8,1c0.3,0.5,0.5,1,0.8,1.5
			c0.3,0.7,0.7,1.5,1,2c0.3,0.5,1.8,3.1,1.5,3.8c0,0.1-0.3,0.7-3.1,0c-1.2-0.3-2.4-0.7-3.8-0.7c0,0.3,0.5,1,0.7,1.5
			c0.7,1.4,0.8,1.8,0.7,2c-0.5,0.3-1,0.7-1.5,1s-1,0.7-1.4,0.8c0.1,0.7,0.5,1.2,1,1.6c0.3,0,0.8,0,1.2,0c0.3-0.1,0.8-0.1,1.2,0
			c0.3,0.3,0.5,0.7,0.7,1c0.1,0.1,0.3,0.5,0.5,0.7c0.3,0,0.8,0,1.2,0c0.5-0.1,1-0.1,1.5,0c0.7,0.1,1,1.2,1.4,1.8
			c0.1,0.1,0.1,0.3,0.1,0.5c0,0.1,0.3,0.3,0.7,0.3c0.1,0,0.3,0,0.3,0.1c0.1,0,0.7,0.1,1.2,0.5c0.8,0.3,1.6,0.7,2.4,1
			c0.7,0.1,1.4,0.7,1.8,1.4c0.1,0.3,0.3,0.8,0.5,1.4c0,0.1,0.1,0.5,0.1,0.7c0.7,0.1,1.4,0.3,2,0.3l0,0c1,0.3,2,0.7,3,0.8
			c0.5-0.1,0.8-0.5,1.2-0.7c0.3-0.3,0.8-0.7,1.4-0.8l1.8-0.5c0.8-0.1,1.6-0.1,2.4,0c1.4,0.5,2.6,1,3.9,1.8c0.5,0.5,3.1,2.9,3.3,3
			c0.7,0.1,1.5,0.3,2.3,0.3c0.7-0.1,1.2-0.5,1.8-0.8c0.1-0.3,0.3-1.5,0.5-1.8c0.1-0.3,0.8-2.4,1.5-2.6c0.1,0,0.3,0,0.3,0
			c0.5,0.3,0.8,0.8,1.2,1.5c0.8,1.5,1.8,2.9,2.9,4.1c0.7,0.1,1.2,0.1,1.8,0.1c1.8,0.1,2.6,0.1,3,0.5c0.5,0.7,0.8,1.6,1,2.4
			c0,1.6,0,3.1-0.1,4.8c0.1,1.2,0.3,2.2,0.8,3.3c0.1,0.5,0.1,0.8,0.1,1c0,0.1,0.1,0.7,0.1,1.8c0.1,1.5,0.3,3.7,0.5,3.9
			c0.1,0.3,0.1,0.1,0.3,0.3c0.3,0.1,0.7,0.3,0.8,0.7c0.1,0.7,0.1,1.4,0,1.8c0,0.1,0,0.1,0,0.3c0.3,1.2,0.8,2.3,1.4,3.3l3.1-1.2
			c0.5-3.1,0.7-3.3,0.8-3.3h0.1h0.1c0.1,0,0.7,0,1.2,0c1-0.1,2-0.1,3,0c0.8,1,1.5,2.2,2,3.3c0.7,2.3,1,4.6,1.2,7.1
			c0,0.1-0.1,0.5-0.3,1c-0.3,1.4-1,3.5-1,3.9c0.7,1.4,1.5,2.6,2.4,3.8c0.7,1,1,1.4,1,1.5s0.3,0.5,0.7,1c0.7,0.7,1.2,1.5,1.5,2.4
			c0,0.7,0,1.5,0,2.2c0,0.7,0,1.2,0,1.5c0,0.3,0.7,0.5,1.5,0.5h0.7c0.3,0,1.2-0.5,1.8-1c0.5-0.5,1.4-0.8,2-1h1c0.7-0.1,1.4-0.1,2,0
			c0.8,0.3,1.5,0.8,2.2,1.5c0.7,0.7,1.4,1.5,1.8,2.3c0.5,0.7,1,1.5,1.6,2.2c1,0.7,2,1.2,3,1.6l0.5,0.1c0.7,0.3,1.4,0.5,2,0.5
			c0.3,0,0.5-0.3,0.7-0.7c0.1-0.1,0.1-0.3,0.3-0.5c0.5-0.5,2.4-0.3,3.1,0c0.5,0.1,1,0.1,1.5,0c1.4-0.1,1.5,0,1.6,0
			c0,0,0.1,0.1,0.1,0.3c0,0,0,0.5,0.1,1c0.1,1.2,0.3,2.2,0.3,3.3c0,0.5-0.7,0.7-1.8,1c-0.3,0-0.7,0.1-0.8,0.3
			c-0.1,0.8-0.3,1.6-0.1,2.6c0,0.3,0,1,0,1.6c0.1,3.9,0.1,4.6-0.1,4.8c-0.5,0.3-1,0.7-1.6,0.8c-0.1,1.4-0.1,2.9,0,4.1
			c0.1,1.2,0.1,2.2,0,3.3c-0.1,0.5-1.2,1.2-3.3,2.3l-0.1,0.1c0.1,0.8,0.5,1.6,0.8,2.4c0.3,0,2.4-0.3,4.1-0.7c1.5-0.3,3-0.5,4.5-0.7
			c0.3,0.1,1,0.7,1.8,1.5c0.3,0.3,0.7,0.7,1,1c0.1-0.1,0.3-0.5,0.5-0.7c0.7-0.8,1.2-1.5,1.6-1.4c0.8,0.5,1.6,1.2,2.3,2l0.1,0.1
			c0.8,0.7,1.6,1.2,2.6,1.6c1.6,0.7,3.3,1.2,4.9,1.4c0.1-0.1,0.5-0.5,0.7-0.8c0.7-1,1.2-1.6,1.6-1.6c2.2,0.5,4.1,1.4,5.8,2.4
			c0,0.1,0,0.1,0,0.3c-0.3,1-0.5,2.2-0.3,3.3c0.1,0.7,0.7,1.5,1.2,2c1,0.5,2.2,0.7,3.3,0.8c0.3,0,0.8,0,1.2,0c1.6,0,2.3,0,2.4,0.3
			c0.3,0.7,0.5,1.5,0.7,2.3c0.1,0.7,0.3,1.2,0.5,1.8c0.5,0.8,1.2,1.6,1.8,2.3c0.1-0.3,0.8-1.5,1.2-2.3c0.3-0.7,0.7-1.5,1-2
			c0.5-0.3,1-0.5,1.5-0.5h0.1c0.7-0.1,4.3-0.3,4.6-0.3c1-0.3,2-0.7,3-1.2c0.3-0.1,3.3-1.5,3.8-1.8l0.3-0.1v0.3
			c0,0.1,0.5,2.9,0.5,3.3c0,0.3,0,0.7,0.1,0.8l0.5,0.1c0.5,0,1,0.1,1.4,0.5c0.3,0.5,0.3,1,0.1,1.5c0,0.1,0,0.3,0,0.7
			c0.1,0.7,0.3,1.2,0.7,1.6c0.1,0.3,0.3,0.5,0.3,0.8c0.1,0.1,0.3,0.5,0.7,0.7c0.8,0.7,1.4,1.4,1.4,1.6c-0.7,1.5-1.8,2.9-3.1,3.8
			c-0.7,0-1.4-0.1-1.8-0.5c-0.3,1.2-1.2,4.9-1.2,5.3v0.1c-0.1,0.3-0.3,1.4-1.2,1.6c-0.7,0.3-1.4,0.7-2,1.2c0.1,0.3,0.3,0.5,0.5,0.7
			c0.1,0.3,0.5,0.5,0.5,0.8c0.1,0.3,0.3,0.7,0.5,1c0.1,0.1,0.3,0.5,0.3,0.7c0.1,0.8,0.1,1.6,0,2.4c0,0.1,0,0.5,0,0.7
			c0.1,0.7,0.1,1.5,0,2.2c-0.1,0.8-2,3-2.4,3h-0.7c-1.4,0-2.9,0-3.3,0c0,0-0.1,0.1-0.7,0.5c-0.5,0.5-0.8,1.4-1,2
			c0,0.1,0.3,0.3,0.5,0.7c0.7,0.7,1.2,1.4,1.6,2c0.1,0.3,0.1,0.7,0.1,1c0,0.1,0,0.1,0,0.3c0,0.5-0.8,0.7-2.4,0.7H676
			c-0.1,0.3-0.3,0.8-0.3,1.2c0,0.3-0.1,0.7-0.1,1c-0.1,0.7-1.2,1.2-2,1.5L673,339c-0.1,0.1-0.3,0.3-0.5,0.7
			c-0.3,0.5-0.7,0.8-1.2,1.2c-0.7,0.3-0.8,1.4-0.8,2c0,0.1,0,0.1,0,0.1c0,0.7-1.2,1.8-2.3,2.3c-1.2,0.5-3.5,3-3.3,3.5
			c0,0.3,0.8,1.8,1.5,3.5c0.8,1.8,1.6,3.7,2.2,5.6c0,0.7-2.9,6.4-3.9,6.9c-2,0.3-3.9,0.3-6,0h-0.1c-0.3,0.1-0.7,1-0.8,2.3v0.1
			c-0.1,0.5-0.5,0.8-0.8,1c-0.3,0.1-0.7,0.3-0.8,0.1c-0.5-0.1-2-0.8-2.2-1c-0.8-0.1-1.5-0.3-2.3-0.8h-0.1c-0.1,0-0.7,0.5-0.8,1.2
			c0,0.1,0,0.1,0,0.3l0,0c0.1,0.1,0.1,0.5,0.1,0.8c0,0.7-0.1,1.2-0.3,1.8c-0.3,1.5-1,3.8-0.7,4.5c0.3,0.5,0.7,1,1.2,1.4
			c0.1,0.1,0.3,0.3,0.3,0.3s0,0.1,0.1,0.7c0.1,0.5,0.1,1,0.3,1.5c0.3,0.5,0.5,0.7,0.7,0.5c1-0.5,2-0.8,2.3-0.3
			c0.3,0.7,0.5,1.4,0.5,2.2v0.1c-0.1,0.7-0.1,0.7,0.1,1c0.3,0.3,0.8,0.8,1.2,1c0.8,0.5,1.5,1.4,2.2,2c0.5,1.6,0.7,3.3,0.5,5.2
			c0,0.1-0.1,0.1-0.3,0.1c-0.5,0.3-1,0.7-1.5,1.2c-1,0.8-1.5,1.4-1.8,1.4c-0.5,0-1.2-0.1-1.6-0.3c-0.7-0.1-1.4-0.3-2-0.5l0,0
			c-0.3,0-1,1.4-1.2,1.6c-0.1,0.3-0.5,0.8-0.7,1c-0.7,0.1-1.4,0.1-2,0.1c-0.3-0.1-0.3-0.8-0.1-3c0-0.5,0-1,0-1.4
			c-0.5-0.8-1.4-1.6-2.2-2.3c-3.1-0.7-6.3-1.4-9.4-1.6c-0.8,1.4-1.6,2.6-2.3,3.9c0.3,1,0.7,2.2,1,3.1c0.8,1.8,0.8,2.2,0.7,2.3
			c-0.5,0.5-1.2,0.8-2,0.8c-0.3,0-0.8-0.5-1.6-1.6c-0.1-0.3-0.5-0.5-0.7-0.8c-0.5-0.5-1-0.8-1.6-1c-1.2-0.1-2.4,0-3.7,0.3
			c-0.3,0.1-2.2,3.1-3.5,5.3c-2.4,3.8-2.6,4.1-2.9,4.1c-0.5,0-1.2-0.1-1.6-0.3h-0.1c-0.1,0.1-0.3,0.3-0.5,0.7
			c0.1,0.5,0.1,0.8,0.3,1.2c0.3,1,0.5,1.4,0.3,1.5c-0.1,0.3-0.5,0.8-0.8,1.2c-0.7,0.8-1.8,2.4-2,2.6c0,0.1,0.1,0.3,0.1,0.7
			c0.1,0.7,0.3,1.2,0.3,1.8c-0.5,1.2-1.2,2.3-2,3.1c-0.3,0.5-0.8,1.2-0.8,1.4c0,0.1,0.5,1.8,0.8,3c1.2,4.3,1.2,4.5,1,4.6
			c-0.1,0.1-1.6,0.8-2.3,0.5c-0.3-0.1-0.7-0.5-0.8-0.8c-0.1-0.1-0.3-0.5-0.5-0.5c-0.8,0.7-1.5,1.4-2.2,2.2c-0.3,0.5-0.7,0.8-1.2,1.2
			c-1.4,0.5-2.6,0.8-4.1,0.8c-0.5-0.1-1-0.5-1.5-0.7c-0.3-0.1-0.8-0.3-1-0.5c-0.3,0-0.5,0.1-0.8,0.3c-0.5,0.3-0.8,0.5-1.2,0.3
			c-0.3-0.1-0.7-0.8-1.4-2.4c-0.1-0.5-0.5-1-0.5-1.2c-0.1-1.2-0.1-2.4,0-3.7c0-0.5,0-1.2,0-1.8c-0.3-0.7-0.7-1.5-1.2-2v-0.1
			c-0.3-0.3-1.4-2.2-2.6-4.3c-1.6-2.9-4.3-7.1-4.6-7.6c-2-0.7-3.8-1.4-5.8-1.6h-0.7c-0.5-0.1-1.2-0.1-1.6,0c-0.8,0.3-1.6,1-2,1.8
			c-0.3,0.8-2.2,1.8-5.4,3.3c-0.8,0.5-1.4,1.2-1.4,2.2c0,0.1-0.1,0.5-0.1,0.7c-1.4,1.5-2.9,2.9-4.5,3.8c-1,0.5-5.3,2.2-6.3,2.3
			c-2.2,0.5-4.3,0.8-6.4,1c-0.5,0-1.2,0.1-1.6,0.5c-0.1,0.1-0.1,0.1-0.3,0.1l-0.5,0.3c-0.5,0.3-1,0.7-1.6,0.8h-0.3
			c-0.3,0.5-0.3,1-0.3,1.5c-0.8,1.6-1.8,3-3.1,4.3c-0.7,0.5-1.2,0.8-1.5,0.7c-2.3-0.1-4.6-0.1-6.9,0c-0.5,0-1.8,1.5-2.4,2.3
			c-0.3,0.3-0.7,0.8-1,1.2c-1.2,0.1-2.2,0.1-3.3,0c-0.8,0-1.8,0-2.2,0c-0.8,1.2-1.5,2.6-1.8,3.9v0.1c-0.8,0.8-2,1.5-3.1,1.8
			c0.3,0.7,0.5,1.4,0.8,2c0,0.3-0.3,1.2-2.6,3.9l-0.1,0.8c-0.1,3-0.1,6,0,9c0.3,0.8,0.8,1.5,1.4,2.3c1.2,2,1.5,2.4,1.5,2.9
			c-0.1,0.5-0.5,1-0.8,1.4c-0.3,0.5-0.7,1-1,1.5c0.3,0.7,0.7,1.4,1,2c0.1,0.1,0.1,0.3,0.3,0.7c0.1,0.3,0.5,0.8,0.8,1.2
			c0.8,1.4,1.4,2.2,1.4,2.6c0,0.5-1,1.4-3.8,3.8c-0.8,0.7-1.6,1.4-2.3,2.2c0,0.1-0.3,1.4-0.5,2.2c-0.1,1.4-0.3,2.6-0.8,3.8
			c-2.6,0.7-5.3,1.4-8.2,1.6L511.1,481.7z M494.2,468.7c0.5,1.4,3,7.7,3,8.2c1.2,1.5,2.4,3,3.8,4.5c0.8-0.7,1.8-1.4,2.6-2
			c0.7-0.7,1.5-1.4,2.4-1.8c0.7,0,1.4,0,2,0.3h0.1c1,0.3,2,1,2.9,1.6c0.1,0.7,0.3,1.2,0.3,1.8c2.9-0.5,6.9-1.2,7.5-1.5
			c0.3-1.2,0.5-2.3,0.7-3.5c0.1-1.4,0.3-2.2,0.5-2.3c0.7-0.8,1.5-1.6,2.4-2.3c1.4-1,2.4-2.2,3.7-3.5c-0.3-0.8-0.7-1.6-1.2-2.3
			c-0.3-0.5-0.7-0.8-0.8-1.4l-0.3-0.7c-0.5-0.7-0.8-1.5-1.2-2.3c0-0.3,0.3-0.8,1-1.8c0.3-0.3,0.5-0.7,0.7-1.2
			c-0.3-0.8-0.8-1.6-1.4-2.4c-0.5-0.8-1-1.6-1.4-2.4c0,0-0.3-8.7,0-9.4l0.1-0.3c1-1,1.8-2.3,2.4-3.7c-0.1-0.7-0.5-1.4-0.8-2.2
			l-0.1-0.1l0.1-0.1c1.2-0.3,2.2-1,3-1.6v-0.1c1.5-3.9,2-4.3,2.3-4.3c0.8,0,1.5,0,2.3,0c1,0,2.2,0,3.1,0c0.3-0.3,0.7-0.7,0.8-1
			c1.4-1.5,2.3-2.4,3-2.6c2.3-0.1,4.8-0.1,7.1,0c1,0.1,3.8-3.8,3.9-4.3c0-0.7,0.1-1.4,0.7-1.8c0.1-0.1,0.3-0.1,0.5-0.1
			c0.5-0.1,1-0.3,1.4-0.7c0.1-0.1,0.3-0.1,0.5-0.3l0.3-0.1c0.5-0.5,1.2-0.7,2-0.5c2.2-0.1,4.1-0.3,6.1-1c1-0.3,5.3-2,6.3-2.3
			c1.5-1,3-2.2,4.1-3.7c0.1-0.1,0.1-0.3,0.1-0.7c0.1-1,0.7-2,1.6-2.4c4.1-1.8,5.2-2.6,5.2-3c0.5-1,1.4-1.8,2.3-2.3
			c0.7-0.1,1.4-0.1,1.8,0h0.7c2,0.3,4.1,1,6.1,1.6c0.3,0.1,1.2,1.6,4.8,7.7c1.2,2,2.3,3.8,2.4,4.3v0.1c0.5,0.7,1,1.5,1.4,2.3
			c0,0.7,0,1.4,0,1.8c-0.1,1.2-0.1,2.2,0,3.3c0.1,0.1,0.3,0.7,0.5,1.2c0.3,0.8,0.7,1.5,1.2,2.3c0.1,0,0.5-0.1,0.7-0.3
			c0.5-0.1,0.8-0.5,1.4-0.3c0.3,0.1,0.7,0.3,1,0.5c0.5,0.3,0.8,0.5,1.4,0.7c1.4-0.1,2.4-0.3,3.7-0.8c0.3-0.3,0.7-0.7,1-1.2
			c1.6-1.8,2.3-2.4,2.6-2.3c0.3,0.1,0.7,0.5,0.8,0.8c0.1,0.1,0.3,0.5,0.5,0.7c0.3,0.1,1.4-0.1,1.6-0.3c-0.3-1.4-0.7-2.9-1-4.1
			c-0.3-1-0.7-2.2-0.8-3.3c0.3-0.5,0.7-1,1-1.5c0.7-0.8,1.4-1.8,1.8-2.9c0-0.5-0.1-1.2-0.3-1.6c0-0.3-0.1-0.5-0.1-0.8
			c0-0.1,0.1-0.5,2-3c0.3-0.3,0.7-0.8,0.7-1c-0.1-0.3-0.1-0.7-0.3-1c-0.3-1.2-0.5-1.4-0.3-1.6c0.1-0.3,0.7-1.2,1-1l0.3,0.1
			c0.3,0.1,0.8,0.3,1.2,0.3c0.3-0.3,1.5-2.2,2.6-3.9c1.2-2,2.3-3.7,3.8-5.4c1.4-0.5,2.6-0.5,4.1-0.3c0.7,0.1,1.4,0.7,1.8,1.2
			c0.3,0.3,0.5,0.5,0.8,0.8c0.3,0.5,0.8,1,1.5,1.5c0.5,0,1-0.3,1.4-0.7c0-0.3-0.3-1.2-0.7-2c-0.8-2.3-1.2-3.1-1-3.5
			c0.7-1.5,1.6-3,2.4-4.3c0.1,0,0.1-0.1,4.9,0.7c1.6,0.1,3.3,0.7,4.9,1c1,0.7,1.8,1.6,2.3,2.6c0,0.5,0,1,0,1.5c0,0.8,0,1.6,0,2.4
			c0.5,0,1.2,0,1.6-0.1c0.1-0.1,0.3-0.5,0.3-0.7c0.7-1.2,1.2-2,1.6-2l0,0c0.7,0.1,1.4,0.3,2.2,0.5c0.5,0.1,1,0.3,1.5,0.3
			c0.5-0.3,1-0.7,1.5-1.2c0.5-0.5,1-1,1.6-1.4c0.1-1.5-0.1-3.1-0.5-4.6c-0.5-0.7-1.2-1.4-2-1.8c-0.5-0.3-1-0.8-1.4-1.2
			c-0.3-0.5-0.3-1-0.1-1.5v-0.1c0-0.7-0.1-1.2-0.3-1.8l0,0c-0.5,0-1,0.3-1.5,0.5c-0.5,0.3-1,0-1.5-0.7c-0.1-0.5-0.3-1.2-0.5-1.6
			c0-0.1-0.1-0.5-0.1-0.5l-0.1-0.1c-0.5-0.3-1-1-1.4-1.5c-0.5-0.8,0-2.6,0.5-4.9c0.1-0.5,0.3-1.2,0.3-1.6c0-0.3,0-0.3-0.1-0.5
			c-0.1-0.1-0.1-0.3,0-0.8c0.1-0.5,0.7-1.4,1.2-1.5c0.1,0,0.5,0,0.7,0.1c0.7,0.3,1.4,0.5,2,0.7l0,0c0,0,1.6,0.8,2.2,1
			c0.1,0,0.3,0,0.5-0.1c0.3-0.1,0.5-0.3,0.7-0.7v-0.1c0-1,0.3-2,1-2.6c0.1-0.1,0.3-0.1,0.7-0.1c1.8,0.3,3.8,0.3,5.6,0
			c1-0.3,3.7-6,3.7-6.4s-1.4-3.3-2.2-5.3c-0.8-2-1.4-3.3-1.5-3.5c-0.1-1,2.6-3.5,3.7-3.9c1-0.5,2-1.5,2.2-2v-0.1
			c0-1,0.3-1.8,1.2-2.3c0.3-0.1,0.7-0.5,0.8-1c0.1-0.3,0.3-0.5,0.7-0.8c0.1-0.1,0.3-0.1,0.7-0.3c0.7-0.3,1.5-0.8,1.6-1.2
			c0-0.3,0.1-0.7,0.1-0.8c0.1-0.8,0.1-1.6,0.7-1.6h0.5c0.7,0,1.4-0.1,2-0.3c0-0.1,0-0.1,0-0.3c0.1-0.1,0.1-0.5,0-0.7
			c-0.5-0.7-1-1.4-1.6-2l-0.5-0.7c0-0.1-0.3-0.3,0.3-1.5c0.1-0.3,1-1.8,1.8-1.8l0,0c0.5,0,2.3,0,3.3,0h0.8c1.6-0.8,2.4-2.9,2-4.6
			c0-0.3,0-0.7,0-1c0.1-0.7,0.1-1.4,0.1-2c0-0.1-0.1-0.3-0.3-0.7c-0.1-0.3-0.5-0.7-0.7-1.2c-0.1-0.1-0.3-0.5-0.5-0.7
			c-0.5-0.5-0.8-1-0.7-1.4c0.7-0.7,1.5-1.2,2.3-1.5c0.5-0.1,0.7-1,0.8-1.4c0,0,0,0,0-0.1c0-0.3,1.2-5.6,1.2-5.6v-0.3l0.3,0.1
			c0.5,0.3,1,0.5,1.6,0.7c1.2-1,2-2,2.6-3.3c0-0.3-0.7-1-1.2-1.4c-0.5-0.4-0.7-0.7-0.8-1c-0.1-0.1-0.1-0.5-0.3-0.7
			c-0.3-0.5-0.7-1.2-0.8-1.8c0-0.1,0-0.3,0-0.7c0.1-0.3,0-0.8-0.1-1.2c-0.3-0.1-0.7-0.3-1-0.3c-0.3,0-0.7-0.1-0.8-0.3
			c-0.1-0.3-0.3-0.8-0.3-1.2c0-0.3-0.3-2-0.5-3c-1.6,0.7-3.3,1.5-3.5,1.6c-1,0.5-2.2,1-3.3,1.2c-0.7,0-3.9,0.1-4.5,0.3h-0.1
			c-0.5,0.1-0.8,0.3-1.4,0.5c-0.3,0.7-0.7,1.2-0.8,1.8c-1.2,2.4-1.4,2.6-1.6,2.6c-0.5,0-2.3-2.4-2.4-2.9c-0.1-0.7-0.3-1.4-0.5-1.8
			c-0.1-0.7-0.5-1.8-0.7-2.2c-0.7-0.1-1.4-0.1-2-0.1c-0.5,0-1,0-1.2,0c-1.4-0.1-2.4-0.5-3.7-1c-0.7-0.7-1.2-1.4-1.4-2.2
			c-0.1-1.2,0-2.4,0.3-3.5c-1.6-0.8-3.5-1.6-5.3-2.2l0,0c-0.1,0-1,1-1.4,1.4c-0.1,0.3-0.5,0.7-0.8,1c-0.7,0.5-5.4-1.4-5.4-1.4
			c-1-0.5-2-1.2-2.9-1.8l-0.1-0.1c-0.7-0.7-1.4-1.4-2-1.8c-0.1,0-0.8,0.8-1,1.2c-0.1,0.4-0.7,0.8-0.8,1s-0.7-0.1-1.5-1.2
			c-0.5-0.5-1-1-1.5-1.4c-1.5,0.1-2.9,0.3-4.3,0.7c-3.7,0.7-4.3,0.7-4.6,0.7c-0.7-0.8-1-1.8-1.2-3c0-0.1,0-0.3,0.1-0.3l0.3-0.1
			c2.4-1.4,3-1.8,3-2c0-1,0-2.2,0-3.1c-0.1-4.1-0.1-4.6,0.1-4.6c0.5-0.1,1-0.5,1.5-0.8c0.1-1.5,0.1-3,0-4.5c0-0.7,0-1.4,0-1.6
			c0-1.6,0-2.6,0.5-3c0.3-0.1,0.7-0.3,1.2-0.3c0.5-0.1,1-0.3,1.5-0.5c0-0.3-0.3-2.2-0.5-3.1c0-0.5-0.1-0.8-0.1-1c-0.3,0-0.7,0-1,0
			c-0.7,0.1-1.2,0-1.8-0.1c-0.8-0.1-1.6-0.1-2.6,0l-0.3,0.3c-0.1,0.3-0.5,0.7-1,0.8c-0.8,0-1.5-0.1-2.3-0.5l-0.5-0.1
			c-1.2-0.5-2.2-1-3.1-1.6c-0.7-0.7-1.2-1.5-1.6-2.2c-0.7-1-1.4-2-1.8-2.3c-0.5-0.5-1.2-1-2-1.4c-0.5,0-1.2,0-1.6,0h-1
			c-0.7,0.1-1.2,0.5-1.6,0.8c-0.7,0.5-1.5,0.8-2.3,1h0.5c-0.8,0-1.8-0.1-2-1c0-0.5,0-1.2,0-1.6c0-0.7,0-1.4,0-2
			c-0.3-0.8-0.8-1.5-1.5-2.2c-0.3-0.3-0.5-0.7-0.8-1.2c0-0.1-0.5-0.8-1-1.4c-2-3-2.4-3.8-2.4-4.1s0.5-2.2,1.2-3.9
			c0.1-0.5,0.1-0.8,0.3-1c0-2.3-0.5-4.5-1-6.8c-0.3-1.2-1-2.2-1.8-3.1c-0.8-0.1-1.8-0.1-2.6,0c-0.3,0-0.8,0-1.2,0
			c-0.3,1-0.5,2-0.7,3v0.1l-3.9,1.5l-0.1-0.1c-0.7-1.2-1.2-2.4-1.5-3.8c0-0.1,0-0.1,0-0.3c0.1-0.5,0.1-1,0-1.5
			c-0.1-0.1-0.3-0.3-0.5-0.3c-0.3-0.1-0.7-0.3-0.7-0.7c0-0.3-0.1-2-0.5-4.1c0-0.8-0.1-1.6-0.1-1.6s-0.1-0.5-0.1-1
			c-0.5-1.2-0.7-2.3-0.8-3.7c0.1-1.5,0.1-3.1,0.1-4.6c-0.1-0.8-0.5-1.5-1-2.2c-0.8-0.1-1.6-0.3-2.4-0.3c-0.7,0-1.4,0-2-0.3
			c-1.2-1.4-2.3-2.9-3.1-4.3c-0.1-0.5-0.5-0.8-0.8-1.2c-0.5,0.7-0.8,1.5-1,2.3c0,0.5-0.5,2-0.5,2v0.1h-0.1c-0.7,0.3-1.4,0.7-2.2,0.8
			c-0.8,0-1.8-0.1-2.6-0.5c-0.3-0.1-3-2.6-3.5-3.1c-1.2-0.8-2.3-1.4-3.7-1.8c-0.7-0.1-1.5-0.1-2.2,0l-1.8,0.5
			c-0.5,0.1-0.8,0.5-1.2,0.7c-0.3,0.3-0.8,0.7-1.4,0.8c-1.2-0.1-2.2-0.5-3.1-0.8c-0.8,0-1.6-0.1-2.4-0.7c-0.1-0.3-0.1-0.5-0.3-0.8
			c0-0.3-0.1-0.8-0.3-1.2c-0.3-0.5-0.8-0.8-1.5-1c-0.8-0.3-1.6-0.7-2.4-1l-1-0.5H546c-0.5,0-0.8-0.3-1.2-0.7c0-0.1-0.1-0.3-0.3-0.5
			c-0.1-0.5-0.7-1.4-1-1.5c-0.5,0-0.8,0-1.4,0c-0.8,0.1-1.4,0.1-1.6-0.1c-0.1-0.3-0.3-0.5-0.5-0.8c-0.1-0.3-0.3-0.5-0.5-0.7
			c-0.3,0-0.5,0-0.8,0c-0.5,0.1-1,0.1-1.5,0c-0.7-0.5-1.2-1.4-1.4-2.3c0-0.1,0.1-0.3,1.5-1.2c0.5-0.3,1.2-0.7,1.4-0.8
			c-0.1-0.5-0.5-1-0.7-1.5c-0.7-1.2-0.8-1.6-0.8-2c0-0.1,0.1-0.1,0.1-0.3c0.1-0.1,0.7-0.3,4.3,0.7c0.8,0.3,1.6,0.5,2.4,0.3
			c-0.3-1.2-0.8-2.2-1.5-3.1c-0.5-0.7-0.8-1.5-1.2-2.2c-0.3-0.7-0.5-1.4-0.7-1.5c-0.1-0.1-0.3-0.5-0.8-0.8c-0.5-0.3-1-1.2-1.6-1.8
			c-0.7-0.7-0.8-1-1.2-1.4c-0.5-0.5-0.8-1-1.2-1.5c-0.3-0.7-0.8-1.4-1.5-1.6c-0.5,0-0.8,0-1.4,0h-1.8c-1.8,0-2.4,0.7-2.4,0.8
			c0,0.7-0.1,1.4-0.1,1.8c0,0.7,0,1.2,0,1.2c-0.1,0.7-2,0.8-2.2,0.8s-4.3-0.5-4.8-0.5h-0.3c-1-0.1-1.8-0.3-2.9-0.3
			c-1,0.8-2,1.6-2.6,2.9c-0.5,0.5-1,1.2-1.5,1.5c-0.7,0.5-1.2,1.2-1.5,1.4c-1.2,1.2-2.4,2.2-3.8,3c-0.5,0.1-1.2,0.3-1.6,0.3h-0.1
			h-0.7c-1-0.1-2.2-0.1-3.1,0c-1,0.1-2,0.5-3,0.8l-0.3,0.1c-0.5,0.3-1,0.5-1.5,0c-0.1-0.1-0.3-0.3-0.3-0.5c-0.1-0.3-0.5-0.7-0.7-0.7
			c-0.3,0.1-0.5,0.3-0.8,0.5c0.8,0.8,1.5,1.6,2,2.6c0.3,1.2,0.5,2.2,0.3,3.3c0,0.3,0,0.7,0,0.8c0.8,1.4,2,2.4,3.5,3.3h0.1
			c2.4,1.2,3.3,1.6,3.5,2c0.1,0.5,0.1,0.8,0.1,1.4c0,0.8,0.1,1.6,0.3,2.3c0.7,0.7,1.5,1.2,2.3,1.5c1,0.7,1.6,1.5,2.2,2.4
			c0.1,0.7,0.7,5.3,0.7,6.1s0,1.8-0.8,2c-0.1,0-0.3,0-0.5,0l0,0c-0.3,0-0.7,0-1,0.1l-0.8,0.1c-0.7,0.1-1.4,0.3-2,0.8
			c-0.3,0.5-0.5,1.4-0.5,1.4c0.1,0.1,0.3,0.1,0.5,0.1c0.5,0.1,1.2,0.5,1.5,0.8c0.5,0.8,0.1,6.1,0.1,7.1v0.3h-0.3c0,0-0.8,0-1.5,0
			c-0.5,0-0.5,0.5-0.7,1.4c0,0.5-0.1,1-0.3,1.5v0.1l-1.5-0.3c0,0.3-0.1,1-0.1,1.4s-0.3,0.5-0.8,0.7c-0.3,0.1-0.5,0.3-0.8,0.5
			l-1.2,0.8c-0.5,0.3-0.8,0.7-1,0.8c-0.1,0-0.3,0-0.3,0c-0.1-0.1-0.1-0.3-0.1-0.7c0-0.1,0-0.5,0-0.7c-0.1-0.5-0.7-1.4-1.2-1.4
			c-1.4,0.1-2.6,0.5-3.9,1c-0.1,0.3-0.3,0.7-0.3,1c-0.1,0.7-0.5,1.4-0.8,1.5l0,0c-0.5,0.1-0.8,0.5-1.2,0.8c0,0.1-0.1,0.5-0.5,1
			c-0.8,2.2-1.8,4.1-3.1,6.1c-0.5,0.3-1.4-0.5-2-1.5c0,0,0-0.1-0.1-0.1c-0.7,0-1.2,0-1.8,0h-0.3c-0.3,0.1-0.7,0.3-0.8,0.7l-0.1,0.3
			c-3.9,5.8-4.8,7.1-4.8,7.3c1.5,2.4,3,4.8,4.6,6.9c0.7,0.7,1.4,1.5,2.2,2c0.5,0.3,1,0.8,1.4,1.4c0.1,0.5,0.5,0.8,0.7,1.4v0.3h-0.3
			c-2.6,0.7-6.8,2-7.3,2.2c-0.5,0.1-1.6,1.5-2.6,2.3l-0.8,0.8c-0.3,0.3-1.4,1.4-2.2,2.3c-0.8,1-1.5,1.8-1.8,2c-0.8,0.7-2,1-3,1
			c-0.8-0.3-1.5-1-2-1.5c-0.3-0.3-0.7-0.5-0.8-0.7c-0.1-0.1-0.7-0.1-2.3,0.3h-0.5l-0.7,0.1c-1,0.3-2.9,0.7-3.3,0.8
			c-1,0.3-2,0.5-3,0.5c-0.1,0-0.5,0-0.7-0.1c-0.5-0.4-1.2-0.4-1.9-0.4c-0.5,0.3-1.2,0.7-1.6,1c-0.3,0.3-0.7,0.5-1.2,0.7
			c-0.3,0.1-0.7-0.3-0.8-0.7c-0.1-0.1-0.1-0.3-0.3-0.5c-0.8-0.3-1.6-0.5-2.4-0.5c0,0.1-0.1,0.7-0.3,1c0,0.5-0.3,0.8-0.7,1
			c-0.3,0.1-0.7,0-0.8-0.1c-0.5-0.3-1.4-0.5-1.5-0.3c-0.1,0.3-0.5,0.7-0.7,1.2c-0.1,0.5-0.5,1-0.8,1.4c-0.7,0.5-1.5,0.7-2.3,1
			c-0.3,0.3,0,2.3,1,6.1c0.1,0.3,0.1,0.8,0.3,1.2c-0.5,1.6-1.2,3.3-2.3,4.8c-0.1,0-0.3,0.1-0.8,0.5c-4.8,2.9-5.3,3-5.6,3
			c-0.3-0.1-0.7-0.3-1-0.5c-0.3-0.1-0.7-0.3-1-0.5c-0.1,0-0.1,0.1-0.3,0.1c-0.1,0.1-0.1,0.1-0.3,0.3c-0.7,0.3-1.4,0-1.6-0.5
			c-1.5-1.5-3.1-2.9-4.8-4.1c-0.1,0-0.7,1-1,1.4c-0.3,0.8-0.7,1.2-1,1.2c-2-0.5-3.9-1.4-5.6-2.3c-0.1-0.1-0.3-0.3-0.5-0.5
			c-0.5-0.8-1.2-1.5-2-2c-2.4,0-4.9,0.1-7.5,0.5c-1.5,0.8-3,1.6-4.3,2.6c-0.7,2.4-1.2,5.2-1.5,7.6c0.3,0.3,0.8,0.7,1.4,0.8
			c0.5,0.1,0.8,0.5,1.2,0.8c0.3,0.5-0.8,1.8-1.6,2.4l1.4-0.1c1.4-0.1,1.6-0.1,1.8,0c0.1,0.1,0.1,0.3,0.1,1.4c0,0.7,0,1.4,0.1,1.8
			c1.8,1.2,3.8,2.3,6,3.1c0.1,0,0.3,0,0.5,0c0.7-0.1,1.4,0.3,1.5,1.2c0.3,1.2,0.8,2.2,1.5,3.1c1.2,0.5,2.2,1.2,3.1,2
			c0.1,0.3,0.1,0.3-5.3,6.4l-1,1.2c-0.3,1.2-0.5,2.3-0.3,3.7c0.1,0.3,0.7,2,1,3.1c0.1,0.5,0.3,0.8,0.3,1.2c0.3,1,0.5,2.2,0.7,3.1
			c0,0.1-0.1,0.5-0.3,0.8c-0.3,0.7-0.5,1.4-0.7,2c1,2.2,2.3,3.9,3.8,5.8c0.7,0.3,8.2,4.3,8.4,4.6c1.2,1.5,2.3,3.1,3.1,4.8
			c0.3,1.4,1,2.4,1.8,3.7c0.8,0.7,1.5,1.5,2,2.4c0,0.3-0.1,0.5-0.1,0.8c-0.3,0.5-0.3,1.2-0.5,1.6c0.1,0.3,3.3,3.8,5.2,5.8l0.1,0.1
			v0.1c-0.1,1-0.3,2-0.5,3c-0.1,0.3-0.5,0.5-0.8,0.8c-0.3,0.3-1,0.8-1.2,1.2c0.7,0.7,4.3,3.9,4.8,4.3c0.5,0.3,0.1,0.1,0.7,2.6
			c0.1,0.8,0.3,1.6,0.3,2.6c-0.1,0.3-0.3,0.5-0.7,0.8c-0.3,0.3-0.7,0.7-1,1.2c0.5,0.7,1,1.2,1.5,1.8c0.5,0.5,0.8,0.8,0.8,1
			c0.3,0.3,0,1.8-0.1,2.6c1.6,0,6.3,0.1,6.7,0.5c0.5,0.3,1,0.7,1.5,1c0.5,0.3,1.2,0.8,1.5,1c0.5-0.5,0.8-0.8,1.2-1.5
			c0.8-1,1.4-1.6,1.6-1.8c0.8-0.1,1.6-0.1,2.6,0h0.1v0.1c0.3,1.2,0.8,2.3,1.5,3.5c0.1,0.1,1.6,0.7,3.1,1.2c1.5,0.5,3.1,1.2,4.6,1.8
			c0.3,0.5,0.7,1,0.8,1.6c0.1,0.5,0.3,0.8,0.5,1.2c0.1,0.1,2,0.7,3.5,1.2c2.4,0.8,4.3,1.4,4.5,1.5c0.7,0.3,10.1,12.4,10.6,13
			c1.5,3.3,2.9,6.8,3.8,10.5c0.8,2.3,1.5,4.6,1.6,4.8c0.1,0.1,0.5,0.7,0.8,1.2c1,1.5,1.6,2.4,1.6,3c-0.1,0.5-0.1,1-0.3,1.5
			c-0.3,0.8-0.5,1.6-0.7,2.4c0,0.1,0.1,0.1,0.1,0.3c0.3,0.7,0.5,1.4,0.5,2c-0.5,1-1,1.8-1.6,2.6c0.5,2,1.2,3.8,2.2,5.4
			c0.3,0.3,0.5,0.5,0.8,0.7c2.6,2.2,3,2.6,3,3c0,0.3,0,0.7,0,1.2c0,0.5,0,0.8,0,1c0,0.1,1.2,3.5,2.2,6.8c2,6.3,2.9,8.6,2.9,9
			c0,0.5-1.2,4.8-1.5,5.6v0.1L494.2,468.7z M416.9,332.9 M595.5,223.6"/>
		<path class="st7" d="M500.3,492.2l-4.9-5.1c-1.7-1.7-3.6-3.6-5.2-6.2l-1.2-1.9v-0.9c-0.4-1.1-1.1-2.8-1.7-4.4l-2.7-7.8l1.2-0.9
			v-0.8l7.6-5c0.1-0.2,0.1-0.5,0.2-0.7c-0.2-0.6-0.4-1.3-0.7-2.2l-0.7-2.1c-0.2-0.6-0.4-1.1-0.6-1.7l-1-3c-0.6-2-1-3.2-1.3-4
			c-0.1-0.4-0.2-0.7-0.3-1l-1.5-1.4c-0.2-0.2-3.7-4.7-4.5-9.7c0-0.1,0-0.1,0-0.2l-1-3.9l1.7-2.1l0-1.5l0.1-0.7
			c0.1-0.4,0.2-0.8,0.3-1.2l-0.1-0.1c-0.2-0.2-0.8-1.1-1.3-2.4h0c-0.2-0.5-0.4-1.2-0.7-2l-1.9-5.6c-0.7-2.1-1.4-4.3-1.9-5.5l0,0
			c-0.8-1.1-6-7.6-8.4-10.5c-0.8-0.3-1.8-0.6-2.7-0.9c-1-0.3-2.1-0.7-2.8-0.9c-0.2-0.1,0.6,0.2,1.8,0.2c-1.6,0-5.1-0.5-7.3-4.6
			c-0.4-0.2-0.8-0.3-1.2-0.4l-1.4-0.6c-1.3-0.5-2.2-0.9-3-1.3c-0.2,0.1-0.4,0.2-0.6,0.2l-1.2,1.2l-1.7-0.8h-1.2l-1.4-0.6
			c-1.1-0.5-2.2-1.1-3.1-1.8c-1.2,0-2.8-0.1-3.9-0.1h-7.9l0-0.8H431l1.2-7.1c-0.7-0.9-1.3-1.9-1.8-3.2l-1.2-1.5l0.9-2.3
			c0.1-0.8,0.3-1.5,0.6-2.2c-1.8-1.6-3.2-3-4-4.7l-2.8-2.8l2.9-4.4c-0.6-0.8-1.2-1.5-1.8-2.2l-1.6-2.1v-1.5l-1.2-2.4l0.4-0.6
			c-0.7-1.2-1.3-2.5-1.8-3.8c-0.3-0.6-0.6-1.1-1-1.6c-1.7-0.9-4.7-2.6-5.9-3.2c-1.6-0.6-4-2.1-7.4-7.9c-0.5-0.9-1.5-2.5-1.7-4.6
			l-0.3-0.6l0.2-1.1c0-0.6,0.1-1.1,0.3-1.8c0-0.1,0.1-0.5,0.2-0.9l-0.2-0.3l-0.1-1.6c-0.1-0.4-0.3-0.9-0.4-1.3
			c-0.3-0.9-0.6-1.8-0.7-3c-0.1-0.9-0.1-2.1,0-3.5c0.1-1.2,0.3-2.1,0.5-2.9l0.4-1.7l2.1-2.8c0.1-0.1,0.2-0.3,0.3-0.4
			c-1.6-0.8-3.2-1.7-4.8-2.7l-1.4-1c-0.4-0.4-0.8-0.8-1.1-1.3c-0.3-0.1-0.6-0.2-0.9-0.4l-21.4,2.2l15.7-13.2l0.3-2.3
			c0.3-2.8,0.9-6,1.7-8.8l0.8-2.7l2.3-1.6c1.6-1.1,3.3-2.1,5.1-3.1l1.2-0.7l1.4-0.2c2.7-0.4,5.6-0.6,8.7-0.6h3.5l1.7,0.9
			c0.8,0.4,1.7,1,2.5,1.8c0.7-0.2,1.5-0.3,2.3-0.3l3,0.2c0.2,0,0.4,0.1,0.5,0.1l1.6,0.4l2.4,1.8c0.5,0.4,1.1,0.8,1.6,1.3
			c-1-4.1-1.5-7.9,0.7-10.9v-2.7l3.3-0.1c0.1-0.1,0.2-0.2,0.2-0.3l0,0c0.5-0.8,1.2-1.6,2-2.2v-3h7.9c0.7,0,1.3,0.1,1.9,0.1
			c0.8,0,1.6,0.1,2.2,0.2l0.4-0.2h1.8c0.4,0,1,0,1.6,0.1c0.7,0,1.5,0,2.3,0.1c0.3-0.1,0.7-0.2,1.2-0.3c0.5-0.1,1.1-0.3,1.5-0.4
			l2.5-0.4c0.5-0.1,1-0.2,1.6-0.3c1.5-0.3,3.2-0.4,5,0.1c0.4-0.4,0.7-0.7,0.9-0.9l1.9-1.9c0.4-0.4,0.8-0.9,1.4-1.3
			c-3.1-4.5-4-6.6-3.7-9.3c0.1-2.4,1.2-4.1,6.1-11.1c1.6-2.7,3.8-3.7,4.6-4.1l1.5-0.7l1.7-0.1v-1.2l1.3-0.9c0.5-0.7,1-1.3,1.7-1.8
			c0.2-0.4,0.5-0.9,0.8-1.5l1.2-1.7l1.8-0.9c1.8-0.9,3.5-1.3,5-1.7v-3l0.3,0.1v-0.3l1,0.1l1.2-3.4c0,0,0.1-0.4,0.3-0.9
			c0.4-1.4,1.1-2.8,2.2-4.2l0.6-0.7c-0.2-0.2-0.4-0.4-0.7-0.6l-1.7-1.7l-0.5-2.3c0-0.1,0-0.2-0.1-0.3l-0.1,0c-2.8-1.5-5-3.6-6.5-6.1
			l-1.1-1.9v-3.3l0,0l-5.6-5.6l0.6-0.6l-0.2-0.2l5.3-5.6c2.7-2.7,5.3-3.3,7.1-3.3c1.2,0,2.4,0.2,3.4,0.7c0.5-0.1,0.9-0.2,1.3-0.2
			c1.4-0.2,2.7-0.2,3.9-0.1c0.3-0.3,0.7-0.6,1-0.9c0.1-0.1,0.7-0.7,1.5-1.4c0.6-0.8,1.2-1.5,1.8-2.1c1.5-1.8,3.8-3.8,6.6-4.3
			c1.5-0.2,3.2-0.2,4.8,0c1.9-2.7,5.3-4.2,9.2-4.2l4.7,0.2c4.1,0.8,6.3,4.3,7.1,6c0.1,0.2,0.2,0.4,0.4,0.5l0.1,0.1
			c0.7,0.8,1.2,1.3,1.6,1.8c1,1.1,2,2,2.7,3.4l0.8,1.5c0.5,1.1,0.8,1.7,1,2.1c1.1,2.1,2.6,4.8,2.3,7.9l0.3,4.2
			c1.5,0.6,3,1.6,4.1,2.9c0.3-0.1,0.5-0.2,0.8-0.2l2.4-0.7c1.7-0.3,3.4-0.3,5.1,0l1.6,0.4c1.8,0.7,3.1,1.2,4.4,1.9
			c0.6-0.6,1.3-1.2,2.2-1.7l4-5l3.6,4.9c2.6,1.3,3.8,3.3,4.3,4.3c0.2,0.3,0.3,0.5,0.4,0.8c2.1,0.2,4.2,0.8,6.1,2.7l0.6,0.7
			c1.3,1.6,2.2,3.7,2.6,6.1l0.1,1.3c0,1.6,0,3-0.1,4.6c0,0,0,0.1,0,0.1l0.5,1.4c0.2,0.9,0.3,1.7,0.4,2.3c0,0.1,0,0.1,0,0.2h0.2
			c1.5-0.2,3.1-0.1,4.5,0.1l3,0.4l1.9,2.3c1.4,1.6,2.4,3.5,3.1,4.8l0.5,1.3c0.9,3,1.2,5.9,1.5,8.4l0.1,0.9c0,1.2-0.3,2.2-0.5,3.1
			c0,0.2-0.1,0.3-0.1,0.5c0.1,0.1,0.2,0.2,0.2,0.3c0.5,0.8,1.1,1.5,1.5,2.3c0.5,0.6,1,1.2,1.4,1.9h0.3c1.4-0.2,2.8-0.1,4.2,0.2
			l0.9,0.2c2.5,0.8,4.2,2.3,5.3,3.4c1.1,1.1,2,2.2,2.7,3.3c2.2-0.6,4.4-0.4,5.8,0c1-0.1,1.9-0.1,2.6,0h2.9l4.5,4.8l0.2,3.5
			c0.2,1.8,0.3,2.9,0.3,4.1c0,1.3-0.3,3.8-2.4,5.9l-0.2,0.5c0.1,3,0.1,5.7-1.2,7.8l0.5,0.3c1.4-0.3,2.8-0.2,4.3,0.2l2,1
			c1.2,0.8,2.3,1.7,3.3,2.8c1.2-0.8,2.7-1.4,4.6-1.4l1.9,0.2c2.9,0.7,5.6,1.8,8.1,3.4l3.7,2.3v3c1.6,0.2,3.4,0.6,4.9,1.8
			c0.4-0.1,0.9-0.1,1.3-0.2c1.1-0.1,2.7-0.2,3.8-0.2c0.2-0.1,0.4-0.2,0.5-0.2l15.6-7.5l0.3,11.7c0.1,0.1,0.2,0.2,0.3,0.3l0.9,0.9
			l0.6,1.1c0.6,1.3,1,2.6,1,4c2,2,2.9,4.1,2.9,6.5v1.7l-0.7,1.6c-0.7,1.6-1.7,3.1-2.8,4.4c-0.8,1.2-1.7,2.3-2.8,3.2l-0.4,0.8
			c-0.2,0.7-0.5,1.3-0.9,1.9v0c0.2,1.3,0.2,2.6,0.1,3.8c0.1,1.4,0.1,2.8-0.2,4.1c-0.1,0.8-0.5,1.8-1.1,2.8c-0.7,2.8-2.4,5.2-4.7,6.9
			c-0.2,0.7-0.4,1.6-0.9,2.4l-0.1,4.5l-4.9,1.2c-1,1.5-2.4,2.5-3.6,3.1c0,0-0.1,0.1-0.1,0.1c-0.1,0.2-0.2,0.4-0.4,0.6
			c-0.5,1.3-1.3,2.4-2.2,3.4c0.5,1.2,1.1,2.8,1.6,4.4l0.3,2.2c0,2.2-2,7.1-4.7,10.7c-1.6,2.5-3.6,4.7-6.1,5.4l-0.9,0.2
			c-0.8,0.1-1.6,0.2-2.4,0.2c-0.2,0.3-0.5,0.6-0.8,0.9l0.2,0.4c0.3,0.8,0.7,1.6,0.9,2.6c0.5,0.5,0.9,0.9,1.3,1.3l1.2,1.3l1.1,2.2
			c0.8,2.6,1.1,5.2,0.9,8.2l-0.5,7.3l-3.6,0.1l-1.2,0.7c-0.9,1-2,2-3.6,2.9l-1.7,0.9h-1.9c-0.1,0-0.3,0-0.4,0l-0.9,0.9l-1.8,0.6
			c-1.5,0.5-2.8,0.5-4.1,0.5l-7.9,0c-2.3,2-4.7,2.5-6.4,2.5h-2.8l-2.2-1.7c-0.1,0-0.1-0.1-0.2-0.1c0,0.1-0.1,0.1-0.1,0.2
			c-2.5,4-3.1,4.8-3.6,5.3c-0.1,0.1-0.1,0.2-0.2,0.3c-0.2,0.6-0.5,1.1-0.8,1.7v1.3l-0.7,1.5c-0.2,0.5-0.4,1-0.7,1.4l-0.2,0.6
			c-0.1,0.4-0.3,0.7-0.5,1.1c0.8,2.8,1.6,6.2,0.4,9l0.6,3.1l-5.3,2.7c-0.3,0.2-2.3,1.1-4.9,1.2l-0.7,0.7l-1.3,0.6
			c-2.4,1.1-4.5,1.3-6.1,1.5l-1.4,0.1l-1.4-0.3c-0.6-0.1-1-0.3-1.5-0.5c-0.3,0-0.6,0.1-0.9,0.1h-4.2l-2.3-3.5
			c-0.6-1-1.3-2.1-1.8-3.4l-0.8-0.8l-0.3-2.7c0,0,0-0.1,0-0.1l-0.1-0.1L589,425l0,0c-0.1-0.8-0.1-1.7-0.2-2.5l-0.7-1.6
			c-0.3-0.5-0.7-1.2-1.2-2l-0.4-0.7c-1.3-2.3-2.3-3.9-2.9-5c-0.1,0-0.3-0.1-0.4-0.1c-1.2,1.2-2.8,2.2-4.5,3l-1.5,1.9l0,0
			c-1.6,2.1-3.7,4.1-6.2,5.7l-2,0.9c-0.4,0.1-1.4,0.5-2.4,0.9c-1.6,0.6-3.3,1.2-3.9,1.4c-2.5,0.8-5,1.1-7.1,1.2c0,0-0.1,0.1-0.1,0.1
			c-1.8,3.3-5.8,8.6-11.5,7.8c-0.8,0-1.8,0-3,0c-0.4,0.4-0.8,0.9-1.3,1.4l-2.3,2.2l-3.1,0.2l-1.8,1.6l0,0l-1.2,2.5
			c-0.3,0.7-0.7,1.3-1,1.9c0,1.2,0,2.4,0,3.7l0.3,0.3c1.6,2.7,2.6,4.4,2.6,6.9l-0.2,2c-0.1,0.4-0.2,0.8-0.4,1.2
			c1.3,2.1,2.3,3.8,2.3,6.3c0,0.8-0.1,1.5-0.3,2.2l0.6,1.9l-3.1,3.4c-1.3,1.4-2.6,2.9-4.4,4.2c-0.2,1-0.5,2.1-1,3.3c0,0,0,0,0,0
			l-0.8,3.7l-3.5,2.3c-1.3,0.7-2.5,0.9-7,1.7l-11.9,2.3v-1.1L500.3,492.2z M509.1,469.9l1.2,0.3c0.8,0.2,1.5,0.5,2.2,0.9
			c0.1-0.2,0.2-0.4,0.3-0.6V469l1.8-2.2c0.4-0.5,0.8-0.9,1.2-1.3c0-0.1,0-0.1-0.1-0.2l-0.7-1.6l-0.3-2.4c0-0.7,0.1-1.3,0.2-1.9
			l-0.2-0.5l0.4-0.7c-0.2-0.4-0.4-0.8-0.6-1.3l-0.8-1.5l-0.1-1.7c-0.3-10.3,0-11.1,0.5-12.5l0.4-0.8l-2.4-2.4l3.2-3.4l-1.8-4.5
			l7.4-1.8c0.5-1,1-2,1.7-2.9l2.3-3.5h5.9c1.4-1.6,3.7-3.5,7.1-3.5c1.2-0.1,2.6-0.2,4-0.1c0.2-0.6,0.4-1.3,0.8-2l2.2-4.4l3.7-0.2
			c1.7-1.1,3.6-1.6,5.6-1.6c1.4-0.1,3-0.4,4.5-0.7l0.8-0.2c0.2-0.1,2.9-1.1,3.6-1.4c0.3-0.2,0.6-0.4,1-0.8c0.6-1.8,1.8-3.8,4.3-5.5
			l1.1-0.6c1.1-0.5,2-0.9,2.7-1.3c1.4-1.9,3.4-3.3,5.5-4.1c1.5-0.5,3.3-0.7,4.9-0.4l1,0.1c2.5,0.3,4.6,1,6.4,1.7l4,1.3l2.4,4.5
			c1,1.7,2.4,3.9,3.4,5.6c0.7,1.3,1.4,2.5,1.8,3.2l1.8,1.8v1.1c0.2,0.5,0.5,1,0.7,1.5l0.3,0.7l0.1-0.2c0.1-0.2,0.2-0.4,0.3-0.6
			c0.3-1.2,0.8-2,1.1-2.7l0,0c0-1.6,0.4-2.9,1.1-4.1l-0.1-3.8l2.3-2.8c0,0,0,0,0,0l1.4-2.6c0.7-1.1,1.1-1.5,1.5-1.8l2.3-2.3l1.3-0.2
			c3.4-5.5,4.3-7,6.7-8.1l1.7-0.6c1.2-0.3,2.4-0.4,3.5-0.5c0.4-0.6,0.7-1.3,1.1-1.9l3.2-5.3l4.9,0.4c1.2,0.1,2.4,0.3,3.5,0.4
			c-0.9-3-0.3-5.7,0.3-7.8l0.1-0.5c-0.1-1-0.1-2.2,0.3-3.5c0.4-1.7,1.4-3.6,3-5c1.5-2.3,4-4.1,7.1-4.1h2.1c0.4-0.4,0.9-0.7,1.5-0.9
			l2.5-0.8c-0.5-1.3-0.9-2.1-1-2.4l-0.7-2.4c-0.4-2.7,0.6-5.1,2.1-7.1c1.1-2.3,3.3-4.6,5.4-6c0.6-1.9,1.7-3.4,3.2-4.5
			c0.4-0.5,0.8-1,1.2-1.4l0.1-0.1c-0.1-2.3,0.7-4.1,1-4.8c0.2-0.5,0.5-1,0.8-1.4c0.6-1.7,1.5-3.1,2.6-4.2l1.9-2.2
			c-0.4-1.6-0.3-3,0-4l-1.2-2.2l5-4.1c0,0,0,0,0,0c0.1-0.4,0.2-0.9,0.3-1.4l-0.3-2.5c-0.1,0-0.4,0-0.7,0c-0.2,0.4-0.5,0.9-0.8,1.3
			l-4,7.3l-3-3.4c0,0,0,0,0,0c-5.3,0-8.4-5.1-9.5-7.2c-1.3-0.3-2.4-0.6-3.3-0.9l-1.7-0.6l-1.7-1.4c-0.5-0.5-1.6-1.6-2.5-3.3
			c-3,0.3-5.9-0.7-8.9-1.9l-1-0.5c-0.1-0.1-0.3-0.1-0.4-0.2l-0.7,0.7l-0.9-0.9l-1.7-0.1c-1.8-0.2-3.4-0.9-4.9-2.1
			c-4.3,0.8-5.4,0.9-6.3,0.9h-3.7l-2.4-2.9c-1.7-2.1-2.4-4.3-2.9-6.3l-0.2-1.7v-7.9l3.3-0.1c0-3.1,0.2-5.1,1.7-7l0-1.8
			c-0.3-0.1-0.7-0.2-1-0.4l-1.1-0.4c-1.5-0.7-3-1.3-4.5-2.4l-1-0.8c-0.8-0.8-1.5-1.7-2.2-2.7c-0.9,0.3-1.9,0.6-2.9,0.8l-0.3-1.5
			c-0.2,0-0.3,0-0.5,0v1.7c-5.4,0-8.5-3.3-9.5-6.3l-0.4-1.2v-2.5c-0.6-0.7-1-1.4-1.4-2.3L597,248l-0.1,0.1c-2.8-4.1-4-6-4-8.8
			c0-0.3,0-1.1,0.4-2.6l-4,1.5l-1-1l-0.1,0l-0.1-0.2l-4-4.3c-1.1-1.9-1.8-3.7-2.2-5.6c-1.3-1.9-1.5-4-1.5-4.8c0-0.1-0.1-1.2-0.4-2.5
			l-0.2-1.6c0-0.1-0.1-0.4-0.1-0.7c-0.6-1.7-0.8-3.3-0.9-4.8l-0.1-0.6c-0.1,0-0.2-0.1-0.3-0.1l-1.2-0.5c-0.7,0.3-1.5,0.5-2.4,0.7
			l-1.2,0.1c-2.2,0-4.3-0.5-6.1-1.4c-1.4-0.7-3.6-2.7-4.8-3.9c-0.9,0.6-2.1,1.3-3.5,1.6l-1.3,0.3l-1.4-0.1c-1.6-0.2-2.9-0.6-3.7-0.8
			c-2-0.2-3.8-0.9-5.4-1.9l-0.5-0.4l-2.2-0.4v-2.2l-1-0.5c-0.7-0.2-1.3-0.5-1.9-0.7h-3.2v-1.9c-1-0.3-1.9-0.8-2.8-1.4
			c-0.2,0-0.3-0.1-0.5-0.1l-1.7-0.4l-1.4-1.1c-2.3-1.9-3.8-4.5-4.2-7.4l-0.1-1.1c0-0.8,0.1-1.5,0.3-2.2l-0.7-3.5l1.8-0.9
			c-0.9,0.2-1.9,0.3-2.9,0.3c-0.1,0-1.1-0.1-2.3-0.2c-0.8-0.1-1.7-0.2-2.3-0.3l-0.2,0.2c-0.5,0.6-1.2,1.5-2.3,2.2
			c-0.4,0.4-0.7,0.7-1.1,1c-1.5,1.4-3,2.6-4.7,3.6l1.4,1l0.3,3.5c1.6,1.3,2.5,2.7,3.1,3.6l1.3,2l0.2,2.6c0,0.1,0.1,1,0.2,2
			c0.2,1.7,0.3,3.5,0.3,4c0,1.5-0.2,2.8-0.6,3.8c-0.5,2.2-1.5,3.7-2.6,4.7c0,1.4,0,2.9-0.1,4.5l-0.7,8.2l-2.6,0.1v4.7l-5.8-1
			c-0.3,0.2-0.6,0.4-1,0.5h0l-1,0.7l-2.3,2.3h-1.2l-9.3,7.7v-0.4l-1.5,0.7c-0.6,0.2-1.5,0.5-2.6,0.6c0.1,0.2,0.3,0.4,0.4,0.6
			l0.2,0.2c1.7,1,3,2.8,3.7,3.6l1,1.8c0.3,0.6,0.7,1.3,0.9,2.3l0.2,1.1l2.5,5.6l-2.5,0.9v2.3l-7,0.2c-1.4,0.4-3.2,0.9-4.4,1.3
			l-1.6,1.6c-0.2,0.2-0.9,0.9-1.3,1.4c-0.7,1.1-1.8,2.3-2.5,3l-0.6,0.6c-1.6,1.3-3.7,2.2-5.9,2.5c-0.8,0.2-1.6,0.2-2.5,0.2l-2.6-0.4
			c-1-0.3-1.8-0.8-2.6-1.3c-0.2,0.1-0.4,0.1-0.5,0.2l-0.2,0.1c-1.5,0.6-3,0.9-4.7,1c-0.6,0.1-1.3,0.1-2,0.1l0,0c0,0-0.1,0-0.1,0.1
			v0.9l-2.6,0.2l-3.1,1.2l0.4,2l-0.5,2c-0.7,2.5-1.8,4.6-2.9,6.3l-0.9,1.5l-4.2,2.6c-1.1,0.6-1.9,1.1-2.6,1.5v0.9l-1.9,0
			c-0.4,0.2-0.8,0.3-1.2,0.4l-1.9,0.2c-0.3,0-0.6,0-0.9-0.1c-0.3,0-0.6,0.1-1,0.1h-1.9l-1.1-0.6l0,0c-1.8,0-3.6-0.5-5.1-1.5
			l-2.6-0.6c0,0,0,0,0,0l-2-0.3c-1.7-0.4-3.3-1-4.8-1.7l-1.6,2.4c1.2,0.3,2.3,0.7,3.4,1.5c1.7,1.2,2.9,2.9,3.5,4.9
			c0.9,0.6,1.6,1.2,2.2,1.7l1.2,1l0.7,1.4l3.4,2.9l-3.9,5.9c-0.8,1.2-3.4,4.1-4.9,5.8c0.2,0.8,0.4,1.5,0.4,1.5
			c0.1,0.4,0.3,0.9,0.4,1.6c0.3,1.1,0.6,2.4,0.7,3.5l0.1,1.1c0,0.5-0.1,1-0.1,1.5v0.6c0.1,0.1,0.2,0.3,0.3,0.4
			c2.9,1.5,7.6,4,8.8,5.2l0.5,0.6c1.7,2,3,4.1,4.1,6.2l0.7,1.9l0,0c1.2,1.1,2.1,2.4,3,3.8l1,1.8v2.4c0.8,0.9,1.7,1.9,2.4,2.6
			l2.1,2.3l0,0.7l0.9,0.9l-1.1,4.3c-0.1,0.2-0.1,0.4-0.2,0.6l2.1,1l0.8,5c0,0.2,0.1,0.5,0.2,1c0.3,1.7,0.5,2.9,0.5,4.2
			c0.2,0,0.5,0.1,0.7,0.1c0.3-0.2,0.6-0.4,0.9-0.5l2.3-0.8c1.4-0.2,2.9-0.3,4.4-0.1h7.4l0.1,5.6l7.1,2.6l1.4,2.8
			c0.2,0.1,0.4,0.1,0.5,0.2l2.1,0.7c1.1,0.4,2.1,0.6,2.8,1c2.1,0.8,2.7,1.5,12.8,14.3l1.8,2.7c1.8,4,3.2,7.9,4.2,11.6l0.4,1.1l0.7,2
			c0.2,0.3,0.4,0.7,0.6,1c1,1.5,1.8,2.9,2.3,4.4c0.1,0.2,0.2,0.5,0.2,0.8l0.3,2.1c0,1.4-0.3,2.5-0.5,3.1l-0.1,0.4
			c0.2,0.8,0.3,1.6,0.3,2.6l-0.4,2.5c-0.1,0.3-0.2,0.5-0.3,0.8c1.8,1.6,3.3,3,4.2,4.7l0.9,1v3.9c0.5,1.4,1.1,3.4,1.7,5.4l0.6,1.8
			c2.7,7.7,2.7,8.6,2.7,9.6c0,1.1,0,1.5-1.6,7.5l0,0v1.8l-0.6,0.5l-0.2,0.7l-0.9,0.6C507.2,469.6,508.1,469.7,509.1,469.9z
			 M596.6,435.4c0.3,0.2,0.5,0.4,0.8,0.6L596.6,435.4C596.6,435.4,596.6,435.4,596.6,435.4z M572.9,399.1L572.9,399.1L572.9,399.1z
			 M694.9,296.4L694.9,296.4c0-0.2,0-0.4-0.1-0.6C694.8,296.1,694.8,296.3,694.9,296.4z M451.4,276.5l0,0.3
			C451.4,276.7,451.4,276.6,451.4,276.5z M643,256.1l0,0.4C643.1,256.4,643.1,256.3,643,256.1z M611.7,238.8
			C611.8,238.8,611.8,238.8,611.7,238.8C611.8,238.8,611.8,238.8,611.7,238.8z"/>
	</g>
</g>
<g>
</g>
</svg>
