<?xml version="1.0" encoding="utf-8"?>
<!-- Generator: Adobe Illustrator 26.0.3, SVG Export Plug-In . SVG Version: 6.00 Build 0)  -->
<svg version="1.1" id="Layer_1" xmlns="http://www.w3.org/2000/svg" xmlns:xlink="http://www.w3.org/1999/xlink" x="0px" y="0px"
	 viewBox="0 0 1080 1080" style="enable-background:new 0 0 1080 1080;" xml:space="preserve">
<style type="text/css">
	.st0{fill:#9BC9EB;}
	.st1{fill:#4D598D;}
	.st2{fill:#9BC9EB;stroke:#4D598D;stroke-width:16;stroke-linecap:round;stroke-linejoin:round;stroke-miterlimit:10;}
	.st3{fill:#4D598D;stroke:#4D598D;stroke-width:0.3;stroke-miterlimit:10;}
	.st4{fill:#FFFFFF;}
	.st5{fill:#263A6E;}
	.st6{fill:#0E71B9;}
	.st7{fill:#23376F;}
	.st8{fill:#FFFFFF;stroke:#23376F;stroke-width:24;stroke-linecap:round;stroke-linejoin:round;stroke-miterlimit:10;}
	.st9{fill:#20ADE4;}
	.st10{fill:#EDF4FB;}
	.st11{fill:#234698;}
	.st12{fill-rule:evenodd;clip-rule:evenodd;fill:#0E71B9;}
	.st13{fill-rule:evenodd;clip-rule:evenodd;fill:#EDF4FB;}
	.st14{fill:#C6DEF4;}
	.st15{fill:#ABC7E8;}
	.st16{fill-rule:evenodd;clip-rule:evenodd;fill:#9CC0E6;}
	.st17{fill-rule:evenodd;clip-rule:evenodd;fill:#FFFFFF;}
	.st18{fill-rule:evenodd;clip-rule:evenodd;fill:#BBD4EE;}
	.st19{fill:#568AC8;}
	.st20{fill-rule:evenodd;clip-rule:evenodd;fill:#7AA8D9;}
	.st21{fill:#BBD4EE;}
	.st22{fill-rule:evenodd;clip-rule:evenodd;fill:#F4B1B1;}
	.st23{fill-rule:evenodd;clip-rule:evenodd;fill:#CDDFF3;}
	.st24{fill-rule:evenodd;clip-rule:evenodd;fill:#3050A3;}
	
		.st25{clip-path:url(#SVGID_00000016788317653330828570000007992827718737539722_);fill:url(#SVGID_00000050649005891665147380000005908548041549272452_);}
	.st26{fill-rule:evenodd;clip-rule:evenodd;fill:#25AFA6;}
	.st27{fill-rule:evenodd;clip-rule:evenodd;fill:#5ABEBB;}
	.st28{fill-rule:evenodd;clip-rule:evenodd;fill:#355399;}
	.st29{fill-rule:evenodd;clip-rule:evenodd;fill:#223B74;}
	.st30{fill-rule:evenodd;clip-rule:evenodd;fill:#76A1D5;}
	.st31{fill-rule:evenodd;clip-rule:evenodd;fill:#E98385;}
	.st32{fill:#F4B1B1;}
	.st33{fill:#F5EC79;}
	.st34{fill:#DDE293;}
	.st35{fill-rule:evenodd;clip-rule:evenodd;fill:#F5EC79;}
	.st36{fill-rule:evenodd;clip-rule:evenodd;fill:#DDE293;}
	.st37{fill-rule:evenodd;clip-rule:evenodd;fill:#F3AF8F;}
	.st38{fill-rule:evenodd;clip-rule:evenodd;fill:#7FAADA;}
	.st39{fill-rule:evenodd;clip-rule:evenodd;fill:#929CCF;}
	.st40{fill-rule:evenodd;clip-rule:evenodd;fill:#6E7DBD;}
	.st41{fill:#6E7DBD;}
	.st42{fill-rule:evenodd;clip-rule:evenodd;fill:#E16C6C;}
	.st43{fill:#929CCF;}
	.st44{opacity:0.79;fill-rule:evenodd;clip-rule:evenodd;fill:#FFFFFF;}
	.st45{fill:#11497F;}
	.st46{fill:#C4E8FA;}
	.st47{fill:none;stroke:#4F74B9;stroke-width:9.983;stroke-linecap:round;stroke-linejoin:round;stroke-miterlimit:10;}
	.st48{fill:#4F74B9;}
</style>
<g>
	<circle class="st4" cx="532.8" cy="509.2" r="124.6"/>
	<g>
		<path class="st5" d="M617.2,635.3c40.5-26.9,67.3-72.9,67.3-125.1c0-82.8-67.3-150.1-150.1-150.1c-82.8,0-150.1,67.3-150.1,150.1
			c0,52.2,26.8,98.2,67.3,125.1C360,669.2,294.3,757.2,294.3,860.4h40c0-110.3,89.8-200.1,200.1-200.1
			c110.3,0,200.1,89.8,200.1,200.1h40C774.6,757.2,708.9,669.2,617.2,635.3z M424.4,510.3c0-60.7,49.4-110.1,110.1-110.1
			c60.7,0,110.1,49.4,110.1,110.1s-49.4,110.1-110.1,110.1C473.8,620.3,424.4,570.9,424.4,510.3z"/>
		<path class="st6" d="M817.3,535.3c40.5-26.9,67.3-72.9,67.3-125.1c0-82.8-67.3-150.1-150.1-150.1c-40.1,0-76.5,15.9-103.4,41.6
			c-10,9.5-18.6,20.4-25.7,32.3c12.5,5.1,24.4,11.3,35.4,18.7c7.1-11.5,16.2-21.6,26.9-29.8c18.6-14.3,41.7-22.8,66.9-22.8
			c60.7,0,110.1,49.4,110.1,110.1c0,50.4-34.1,92.9-80.3,105.9c-9.5,2.7-19.4,4.2-29.7,4.2c-3.5,0-7-0.2-10.5-0.5
			c-0.7,14.4-3,28.4-6.7,41.8c5.7-0.5,11.4-1.2,17.2-1.2c8.1,0,16.1,0.6,24,1.6c99.1,11.9,176.1,96.3,176.1,198.5h40
			C974.7,657.1,909,569.1,817.3,535.3z"/>
		<path class="st6" d="M334.3,560.3c5.8,0,11.5,0.7,17.2,1.2c-3.8-13.4-6-27.4-6.7-41.8c-3.5,0.3-6.9,0.5-10.5,0.5
			c-10.3,0-20.3-1.5-29.7-4.2c-46.3-13-80.3-55.5-80.3-105.9c0-60.7,49.4-110.1,110.1-110.1c25.2,0,48.3,8.6,66.9,22.8
			c10.7,8.2,19.8,18.3,26.9,29.8c11-7.5,22.9-13.7,35.4-18.7c-7.1-11.9-15.7-22.8-25.7-32.3c-26.9-25.7-63.3-41.6-103.4-41.6
			c-82.8,0-150.1,67.3-150.1,150.1c0,52.2,26.8,98.2,67.3,125.1C159.9,569.1,94.2,657.1,94.2,760.4h40
			c0-102.2,77.1-186.6,176.1-198.5C318.3,560.9,326.2,560.3,334.3,560.3z"/>
	</g>
</g>
</svg>
