<?xml version="1.0" encoding="utf-8"?>
<!-- Generator: Adobe Illustrator 26.0.3, SVG Export Plug-In . SVG Version: 6.00 Build 0)  -->
<svg version="1.1" id="Layer_1" xmlns="http://www.w3.org/2000/svg" xmlns:xlink="http://www.w3.org/1999/xlink" x="0px" y="0px"
	 viewBox="0 0 831.4 707.6" style="enable-background:new 0 0 831.4 707.6;" xml:space="preserve">
<style type="text/css">
	.st0{fill-rule:evenodd;clip-rule:evenodd;fill:#F2F2F2;}
	.st1{fill-rule:evenodd;clip-rule:evenodd;fill:#FFFFFF;}
	.st2{fill-rule:evenodd;clip-rule:evenodd;fill:#E2E3E4;}
	.st3{opacity:0.81;}
	.st4{fill-rule:evenodd;clip-rule:evenodd;fill:#D1D9EE;}
	.st5{opacity:0.26;fill-rule:evenodd;clip-rule:evenodd;fill:#D1D9EE;}
	.st6{fill-rule:evenodd;clip-rule:evenodd;fill:#BCC9E7;}
	.st7{fill-rule:evenodd;clip-rule:evenodd;fill:#AAB9DE;}
	.st8{fill-rule:evenodd;clip-rule:evenodd;fill:#1A315B;}
	.st9{fill-rule:evenodd;clip-rule:evenodd;fill:#9D7659;}
	.st10{fill-rule:evenodd;clip-rule:evenodd;fill:#C19274;}
	.st11{fill-rule:evenodd;clip-rule:evenodd;fill:#D2A484;}
	.st12{fill-rule:evenodd;clip-rule:evenodd;fill:#E2BB9B;}
	.st13{fill-rule:evenodd;clip-rule:evenodd;fill:#D5DCEF;}
	.st14{fill-rule:evenodd;clip-rule:evenodd;fill:#B3BFE0;}
	.st15{fill-rule:evenodd;clip-rule:evenodd;fill:#A3ADD6;}
	.st16{fill-rule:evenodd;clip-rule:evenodd;fill:#FAB17E;}
	.st17{fill-rule:evenodd;clip-rule:evenodd;fill:#659FD5;}
	.st18{fill-rule:evenodd;clip-rule:evenodd;fill:#4F8ECB;}
	.st19{fill-rule:evenodd;clip-rule:evenodd;fill:#274391;}
	.st20{fill-rule:evenodd;clip-rule:evenodd;fill:#4C67B0;}
	.st21{fill-rule:evenodd;clip-rule:evenodd;fill:#415DAA;}
	.st22{fill-rule:evenodd;clip-rule:evenodd;fill:#EF8261;}
	.st23{fill-rule:evenodd;clip-rule:evenodd;fill:#5074B9;}
	.st24{fill-rule:evenodd;clip-rule:evenodd;fill:#F7A4AD;}
	.st25{fill-rule:evenodd;clip-rule:evenodd;fill:#729AD1;}
	.st26{fill-rule:evenodd;clip-rule:evenodd;fill:#D35D2B;}
	.st27{fill-rule:evenodd;clip-rule:evenodd;fill:#F47B44;}
	.st28{fill:#E1E2F2;}
	.st29{fill:#D1D9EE;}
	.st30{fill:#B3BFE0;}
	.st31{opacity:0.5;fill:#FFFFFF;}
	.st32{fill:#E0EAF7;}
	.st33{fill:#B2CBEA;}
	.st34{fill:#CFDFF3;}
	.st35{fill:#82B379;}
	.st36{fill:#A8D29F;}
	.st37{fill:#F89748;}
	.st38{fill:#DB7027;}
	.st39{fill:#F9A86B;}
	.st40{fill:#FAB17E;}
	.st41{fill:#FFFFFF;}
	.st42{fill:#183660;}
	.st43{fill:#B6473D;}
	.st44{fill:#EFDECE;}
	.st45{fill:#FBEBDB;}
	.st46{fill:#1C478A;}
	.st47{fill:#243962;}
	.st48{fill:#EE985E;}
	.st49{fill:#EC7E2A;}
	.st50{fill:#2B5CA6;}
	.st51{fill:#A3ADD6;}
	.st52{fill:#729AD1;}
	.st53{fill:#5E8BC8;}
	.st54{fill:#F3D2B8;}
	.st55{fill:#5D8BC8;}
	.st56{fill:#D39E7A;}
	.st57{fill:#EFCBAC;}
	.st58{fill:#F4A36A;}
	.st59{fill:#7A97CD;}
	.st60{fill:#5074B9;}
	.st61{fill:#2B488C;}
	.st62{fill:#6DB7C0;}
	.st63{fill:#8DD3D7;}
	.st64{fill:#EDA04B;}
	.st65{fill:#FAB179;}
</style>
<g>
	<path class="st28" d="M262.7,506.3c0,0-46.6-7.7-78.2,18.3c-31.6,26-12.9,70.3-39,76.1c-37.6,8.3-124.2,20.2-115.1,101.5
		c0.9,8.2,264.2,0,264.2,0l-11.3-175.3L262.7,506.3z"/>
	<path class="st28" d="M632.5,568.3c0,0,55.6-10.2,94.2,21.5c38.6,31.6,21,57.6,41.7,64.4c20.7,6.8,49.9,20,43.4,53.5H624.9
		L632.5,568.3z"/>
	<rect x="252.6" y="72.8" class="st29" width="442.9" height="609.9"/>
	<rect x="246.8" y="349.8" class="st30" width="454.6" height="19.6"/>
	<g>
		<g>
			<rect x="512.2" y="157.9" class="st31" width="121" height="160.8"/>
			<rect x="515.2" y="160.9" class="st32" width="115.1" height="154.9"/>
			<g>
				<path class="st33" d="M542.5,159.3v44.1c0,0.4,0,0.8,0,1.1c-0.1,3.4-0.5,6.1-1,6.1h-0.1c-0.5,0-0.8-2.3-0.9-5.4
					c0-0.3,0-0.5,0-0.8c0,0,0,0,0-0.1c0-0.3,0-0.7,0-1v-44.3C541.1,159.1,541.8,159.2,542.5,159.3z"/>
				<path class="st33" d="M540.9,205.1c-7.6,0-13.8,6.5-13.8,14.6h27.7C554.8,211.6,548.6,205.1,540.9,205.1z"/>
				<path class="st34" d="M542,205.2c-0.4-0.1-0.8-0.1-1.2-0.1c-5,0-9,6.5-9,14.6h2.4C534.2,212.3,537.6,206.2,542,205.2z"/>
			</g>
			<g>
				<g>
					<path class="st35" d="M538.6,268.2c0,0-6.8-7.9-0.4-13c0,0,4.7-2.8,8.5-2.6c0,0-5.4,9-3.6,9.9c1.7,0.9,5.3-10.5,5.3-10.5
						s10.6-1,14,0.6c0,0-9.1,7.4-7.2,7.9c1.9,0.4,11.7-6.9,11.7-6.9s9.9,1.7,9.4,7.7c-0.5,6-3.9,7.9-5.4,7.7
						c-1.5-0.2-10.3-3.5-10.4-2.3c-0.2,1.2,5.1,5.2,8.8,5.4c0,0-7,7.7-11.6,5.5c-4.6-2.2-5-5.7-7.9-7.1c-2.9-1.3-5.4-1.3-4.2,0
						c1.2,1.3,6.4,2.7,8.1,5.6c1.7,2.9,3.1,4.9-1.7,4.2c-4.8-0.7-12.6-4.2-12.9-8.2C538.6,268.2,538.6,268.2,538.6,268.2z"/>
					<g>
						<path class="st35" d="M571.4,261.6c0,0-26.9-1-32.8,6.6c0,0-1.3,3.9-5.3,7.5l-0.6,1.7c0,0,4.7-4.9,6.3-5.2
							C539,272.3,536.4,262.7,571.4,261.6z"/>
						<path class="st35" d="M533.3,275.7c0,0-5.8,4.3-6.2,11.9l1,0.1c0,0,1.8-7.9,5.2-11C536.6,273.7,533.3,275.7,533.3,275.7z"/>
					</g>
				</g>
				<g>
					<path class="st36" d="M521.1,269.2c0,0,0,0-1.5,3.2c-0.1,0.1-0.1,0.3-0.2,0.5c0,0,0,0,0,0c-0.6,1.4-2.2,2.3-4.3,2.9v-26.1
						c1.5,0.6,2.4,1.1,2.4,1.1s-0.6,11.9,1.3,11.6c1.9-0.2,0-10.5,0-10.5c3.6,1.1,7,5.3,7,5.3C530.2,264.1,521.1,269.2,521.1,269.2z
						"/>
					<g>
						<path class="st35" d="M523.5,278v1.8c0,0,0-0.1-0.1-0.2c0,0,0,0,0,0c-0.1-0.2-0.2-0.4-0.2-0.5c0,0,0-0.1-0.1-0.1
							c0,0,0-0.1,0-0.1c-0.2-0.3-0.4-0.8-0.6-1.2c0,0,0,0,0,0c-0.9-1.9-2.2-4.3-3.1-4.8c0,0,0,0,0,0c0,0,0.1-0.2,0.2-0.5
							c0.4-1.1,0.6-4-4.5-8.4v-1.6c2.9,2.1,5.2,4.4,5.9,6.8C521.1,269.2,521,273.3,523.5,278C523.5,278,523.5,278,523.5,278z"/>
						<path class="st35" d="M523.5,278c0,0,3.9,6,1.7,13.2l-1-0.3c0,0,1-8-1.1-12C521.1,275,523.5,278,523.5,278z"/>
					</g>
				</g>
				<g>
					<path class="st36" d="M532,256.2c0,0-12-6.7-6.4-15.8c0,0,4.5-5.6,9.3-7c0,0-2.6,13.6,0,13.9c2.6,0.3,1.8-15.3,1.8-15.3
						s12.6-6.1,17.6-5.6c0,0-7.8,13.3-5.3,12.9c2.6-0.3,11.3-13.7,11.3-13.7s12.9-2.4,15,5.3c2.1,7.7-1.3,11.5-3.2,12
						c-1.9,0.5-14.2,0.3-13.9,1.9c0.3,1.6,8.6,4.2,13.3,2.7c0,0-5.1,12.6-11.8,12c-6.7-0.6-8.8-4.8-12.9-5.1
						c-4.2-0.3-7.2,0.8-5.1,1.9c2.1,1.1,9.1,0.4,12.5,3.2c3.4,2.9,6.1,4.6-0.2,5.9c-6.2,1.3-17.4,0.5-19.6-4.3
						C532,256.2,532,256.2,532,256.2z"/>
					<g>
						<path class="st35" d="M569.4,233.2c0,0-33.5,10.9-37.4,23c0,0,0.2,5.4-3.2,11.7v2.4c0,0,3.5-8.1,5.4-9.3
							C534.2,261,526.7,250.5,569.4,233.2z"/>
						<path class="st35" d="M528.8,267.9c0,0-5.2,7.9-2.2,17.4l1.3-0.4c0,0-1.3-10.5,1.4-15.8C532,263.8,528.8,267.9,528.8,267.9z"
							/>
					</g>
				</g>
			</g>
			<g>
				<g>
					<path class="st37" d="M604.4,291.2c0,0,17.7-72.2,19-78.3c0.6-2.7,2.3-3.7,4.1-3.9c-3.1-0.3-5.4-0.3-5.4-0.3
						c-6.1,0-11.6,4.4-13.6,10.9c-4.3,14.2-20.9,38.1-28.9,64.8C580,284.3,604.4,291.2,604.4,291.2z"/>
					<path class="st37" d="M515.2,315.8v-13.5c3.2-6.2,6.5-11.8,9.3-16.2c0.4-0.7,0.9-1.3,1.3-1.9v0c0.1-0.2,0.3-0.4,0.4-0.6v0
						c0.5-0.8,1.1-1.5,1.5-2.2c0,0,0,0,0,0c0.7-1,1.4-1.9,2-2.7c0.8-1,1.9-1.8,3.2-2.5c0,0,0,0,0,0c0.1-0.1,0.2-0.1,0.3-0.2
						c0.5-0.2,1-0.4,1.5-0.6c0.1,0,0.1,0,0.2-0.1h0c1.5-0.5,3.1-0.8,4.9-1h0c3.8-0.4,8.2-0.1,12.5,0.5h0c0.6,0.1,1.1,0.2,1.7,0.3
						c2.4,0.4,4.8,0.9,7,1.4c0,0,0,0,0,0c0.8,0.2,1.6,0.4,2.4,0.6c0.1,0,0.1,0,0.2,0h0c0.3,0.1,0.5,0.1,0.8,0.2
						c1.2,0.3,2.3,0.6,3.4,0.9c4.3,1.2,7.2,2.2,7.2,2.2l0,0.6l0.1,2.2l0,1.1l0.1,3.1l0,0.1l0,0.4l0.1,2.7l0,0.2l0.6,24.8H515.2z"/>
					<path class="st38" d="M598.8,290c-0.4-0.2-0.9-0.5-1.6-0.8h0c-0.1-0.1-0.3-0.1-0.4-0.2l0,0c-0.4-0.2-0.8-0.4-1.3-0.6
						c-0.6-0.3-1.2-0.6-1.8-0.9c-0.9-0.4-1.9-0.9-3-1.3c-0.3-0.1-0.6-0.3-1-0.4h0c-0.3-0.1-0.6-0.3-1-0.4c0,0,0,0,0,0
						c-1.3-0.5-2.6-1.1-4-1.7c0,0,0,0,0,0c-1.3-0.5-2.7-1.1-4.1-1.6l-0.2-0.1c-3.9-1.5-8.2-2.9-12.4-4c-1.3-0.4-2.6-0.7-4-1
						c0,0,0,0,0,0c-0.2,0-0.4-0.1-0.5-0.1h0c0,0,0,0,0,0h0c-0.8-0.2-1.7-0.3-2.5-0.5c0,0,0,0,0,0c-2.2-0.4-4.4-0.7-6.4-0.8
						c-0.5,0-1,0-1.4-0.1c-3.8-0.1-7.1,0.4-9.7,1.7c-1.8,0.9-3.2,2.2-4.2,4c-1,1.8-2.4,4.7-4,8.4c-2.9,6.8-6.5,16.2-9.5,26.1H597
						l0.2-2c0,0,0,0,0,0l0.4-4l1.8-19.4l0-0.1C599.3,290.3,599.1,290.2,598.8,290z"/>
					<path class="st39" d="M630.2,208.9v106.9h-4.1c-2.9-0.4-5.9-0.9-8.7-1.4h0c-4.9-0.8-9.5-1.8-13.5-2.8c-1.2-0.3-2.3-0.6-3.4-0.9
						c-0.6-0.2-1.3-0.4-1.9-0.6c-0.3-0.1-0.7-0.2-1-0.3c-4.5-1.6-7.4-3.3-7.8-5.1c-0.3-1.7,0.5-5.7,2-11.1c0,0,0,0,0,0
						c0.3-1,0.6-2,0.9-3.1c0.1-0.5,0.3-1,0.5-1.5c0.1-0.2,0.1-0.4,0.2-0.6l0.1-0.2c0.1-0.2,0.1-0.4,0.2-0.5c0,0,0-0.1,0-0.1v0
						c0.4-1.1,0.7-2.3,1.1-3.5c0.6-1.7,1.2-3.5,1.8-5.4c0.8-2.4,1.7-4.9,2.6-7.4c0.3-0.7,0.5-1.5,0.8-2.2c1-2.6,1.9-5.3,2.9-8
						c2.6-6.9,5.2-13.8,7.7-20.1c0.7-1.9,1.5-3.8,2.2-5.5c0,0,0,0,0,0c0.5-1.2,1-2.4,1.4-3.6c1.3-3.4,2.3-6.7,3.2-9.6v0
						c1.3-4.4,2.5-8.1,4.7-10.4c1.3-1.4,2.9-2.3,5-2.6c0.1,0,0.3,0,0.4,0c0,0,0,0,0,0h0c0.4,0,0.8-0.1,1.3-0.1H630.2z"/>
					<path class="st39" d="M617.4,314.4L617.4,314.4l-7.2-23.7l-0.1-0.4c0,0-0.8-0.1-2.3-0.2c-0.8-0.1-1.8-0.2-3-0.3
						c-1.9-0.2-4.3-0.4-6.9-0.6h0c-0.1,0-0.2,0-0.2,0h0c-0.1,0-0.2,0-0.4,0h0c-0.5,0-1-0.1-1.5-0.1h0c-0.2,0-0.5,0-0.7,0
						c-0.6,0-1.1-0.1-1.7-0.1c-4.1-0.3-8.6-0.5-13.4-0.8c-1.2-0.1-2.4-0.1-3.6-0.2c-0.4,0-0.8,0-1.3,0c-2.8-0.1-5.7-0.2-8.6-0.2h0
						c-3.9-0.1-7.8-0.1-11.5,0h0c-0.3,0-0.6,0-0.9,0c-1.8,0-3.6,0.1-5.4,0.2c-3.3,0.2-6.3,0.5-9.1,0.8c-1.7,0.2-3.2,0.5-4.6,0.8
						c-3.1,0.7-5.5,1.7-6.7,3c-2.6,2.8-4.5,11.8-5.9,23.1h95.2L617.4,314.4z"/>
				</g>
				<path class="st40" d="M590.7,244c0,0-4.1,1.5-7.3,8c-3.2,6.5-4.5,24.1-6.1,24.3c-1.6,0.2-13.7-2.2-13.7-2.2l0.3,3
					c0,0,12.6,8.4,15.2,6.9c2.6-1.5,9.9-21.8,10.4-24.9C589.9,256,590.7,244,590.7,244z"/>
				<path class="st41" d="M618.8,241.7c0,0-16.4-3.5-28.1,2.3c0,0-7.5,16.2-7.3,18.9c0.2,2.7,2.8,14.2,0.5,18.5
					c-2.4,4.3,21.8,12,26.1,9.3C614.4,288.1,619.5,244.7,618.8,241.7z"/>
				<path class="st42" d="M560.1,307.2c-1.1,2.6-2.6,5.5-4.2,8.6h-22.2c2.6-13.3,4.8-22.6,6-26.9c0.5-1.9,0.8-2.8,0.8-2.8
					c1.1-1.9,2.4-3,3.8-3.4c0,0,0,0,0,0c3-0.9,6.5,1.1,9.6,4.1c0.4,0.3,0.7,0.7,1.1,1.1h0c1.2,1.2,2.3,2.6,3.3,3.9
					c2.2,3,3.8,6,4,7.5C562.5,300.9,561.6,303.7,560.1,307.2z"/>
				<path class="st42" d="M544.1,282.7c0,0,5-2.9,16.4-0.4s20.7,8.4,20.7,8.4l-29,1.2L544.1,282.7z"/>
				<path class="st40" d="M614.3,241.7c0,0,7.3-1.3,8.3,4.6c1,5.9,0.1,41.6-5.4,43.4c-5.6,1.8-28.4-8.2-28.4-8.2l0.7-3.8
					c0,0,21.8,3,22.6,2.6C612.8,279.9,614.3,241.7,614.3,241.7z"/>
				<g>
					<path class="st43" d="M558.2,268.6l-1-9.5l13.5,17.7c0,0-5.6,2.8-6,2.3C564.3,278.5,558.2,268.6,558.2,268.6z"/>
					<polygon class="st43" points="578.3,268.6 590.8,287.5 569.9,287.5 558.2,268.6 					"/>
					<polygon class="st41" points="558.2,268.6 557.2,259.1 564.3,267.9 					"/>
					<polygon class="st44" points="590.1,286.6 591.1,285.9 578.7,267.5 578.3,268.6 					"/>
					<polygon class="st45" points="578.7,267.5 559.1,268.1 558.2,268.6 578.3,268.6 					"/>
				</g>
				<path class="st46" d="M585.3,315.8h-22.2c-1.1-3.1-2.1-5.9-2.9-8.6c-2.2-6.7-3.9-12-4.9-15.4c-0.6-1.9-0.9-3.2-1.2-4
					c-0.1-0.5-0.2-0.8-0.2-0.8c0-0.1,0-0.2,0-0.3c0-2.5,0.9-4.1,2.3-5.1c0.1-0.1,0.1-0.1,0.2-0.2c0,0,0,0,0,0
					c2.3-1.5,5.8-1.4,9.4-0.6h0c3.3,0.7,6.6,2.1,9.2,3.4c2.1,1.1,3.7,2.2,4.4,3.1c0,0.1,0.1,0.1,0.1,0.2c0.1,0.2,0.3,0.4,0.4,0.6
					c0.3,0.6,0.7,1.4,1,2.3c0,0,0,0.1,0,0.1c0,0,0,0,0,0.1c1.3,3.7,2.4,9.7,3.3,16.5v0C584.6,309.9,585,312.8,585.3,315.8z"/>
				<path class="st46" d="M556.3,281.4c0,0,8.6-7.7,43.7,8.9l-28.9,0.4L556.3,281.4z"/>
				<path class="st40" d="M589.5,277.6c0,0-3.2-2.1-4.4-2.3c-1.4-0.2-2.9-1.9-2.7-0.9s1.7,2.3,2.1,2.7c0.4,0.4-2.4,0.3-3.5-0.2
					c-0.5-0.3-3.4-1-3.3,0c0,0.6,1.1,3.5,3.9,4.2c1.3,0.3,7.5,0.5,7.5,0.5L589.5,277.6z"/>
				<g>
					<path class="st47" d="M604,225.1c0,0,6.1,3.3,1.4,10c0,0,5.3,0.8,6.7-0.7c0,0-0.2,0.7-0.5,1c0,0,5.2-0.5,7.1-2.4
						c1.9-1.9-3.1-28-17-23.1c0,0-12.2,0.8-9.2,14.6c3.1,13.8-1.5,14.5-1.5,14.5s1.4,0.4,2,0.4c0,0,0.8-0.5,1-1c0,0-0.1,0.8-0.3,1.1
						c0,0,5-0.2,7.2-2.4C603.2,234.8,605.2,227.9,604,225.1z"/>
					<path class="st47" d="M606.2,232.1c0,0,3.3-4.7,4.3-8.8c0.7-2.9,4.4-15-6.7-14c0,0-7.8,1.1-10.9,3c-2.5,1.5-6.1,4.8-2.8,14.5
						l0.8,3.3L606.2,232.1z"/>
					<path class="st40" d="M599.1,246.1c0.8,0.6,4.4,1.3,7.3-0.1c2.7-1.3,4-4.3,3.6-5.5c-0.4-1.2-1.7-1.6-3-8.8l-0.5,0.2l-8.9,3.6
						c0,0,0.8,2.9,1.3,5.6C599.3,243.6,598.6,245.8,599.1,246.1z"/>
					<path class="st48" d="M597.5,235.6c0,0,0.8,2.9,1.3,5.6c5.2-1.2,7-6.4,7.6-9.3L597.5,235.6z"/>
					<path class="st40" d="M596.3,238.6c0,0,12.3-2.2,10.8-9.8c-1.5-7.6-0.9-13.1-8.8-12c-7.9,1.1-8.9,4.3-9,7
						C589.1,226.4,593,238.9,596.3,238.6z"/>
					<path class="st47" d="M592.9,214.9c0,0,6.1,10.2,12,10.9c6,0.7,7.3-1.9,7.3-1.9s-4.9-2.9-6.7-8.9
						C605.6,215,595.1,209.8,592.9,214.9z"/>
					<path class="st47" d="M594,215.6c0,0-2.5,2.6-2.9,4.9c-0.4,2.3-0.1,6.8-1.4,6.8c0,0-3.8-6.4-1.1-10.7
						C591.4,212.1,594,215.6,594,215.6z"/>
					<path class="st47" d="M593.5,216c0,0,4.1,10.1,11.9,12.5c0,0-8.2-5.4-9.7-12.3C594,209.4,593.5,216,593.5,216z"/>
					<path class="st47" d="M618.7,232.9c-1.9,1.9-7.1,2.4-7.1,2.4c0.2-0.3,0.5-1,0.5-1c-2.7,2.1-9.2,0.3-9.2,0.3
						c5.2-1,3.7-8.5,2-8.9c-0.9-5.7-2.7-12.8-3.6-15.9c0.2,0,0.4,0,0.4,0C615.6,204.9,620.6,231,618.7,232.9z"/>
				</g>
				<path class="st41" d="M611.9,241c0,0,8,0.1,10.1,1.8c2.1,1.7,3.1,26.4,3.1,26.4s-3.8-1-7.2-0.2c-3.4,0.8-7.9,0-7.9,0L611.9,241z
					"/>
				<path class="st41" d="M598.4,241.5c0,0-10.1,2-12.4,4.7c-2.3,2.7-6.9,16.1-6.9,16.1s1.8,0.3,2.7,1.5c0.9,1.2,3.9,0.7,3.9,0.7
					L598.4,241.5z"/>
				<g>
					<path class="st37" d="M580,315.8c1.4-3,2.8-5.9,4.2-8.6v0c2.8-5.4,5.4-10.1,7.6-13.6c0,0,0,0,0,0c0.7-1.2,1.4-2.2,2-3.1
						c0.3-0.4,0.5-0.8,0.8-1.1c0.1-0.1,0.1-0.2,0.2-0.3c0,0,0.1-0.1,0.1-0.1c0.1-0.1,0.2-0.2,0.3-0.3c0.1-0.1,0.1-0.1,0.2-0.2
						c0,0,0.1-0.1,0.1-0.1c1.1-1.1,2.6-1.9,4.2-2.5c1.8-0.6,3.9-1,6.1-1.1c2.2-0.1,4.4-0.1,6.7,0.1h0c2.3,0.2,4.7,0.5,7,0.9
						c0.8,0.1,1.5,0.3,2.3,0.4c0,0,0,0,0,0h0c3.1,0.6,5.9,1.3,8.2,2v27.6H580z"/>
					<path class="st49" d="M596.5,315.8c0.2-0.7,0.5-1.4,0.7-2c0,0,0,0,0,0c0.4-1.2,0.9-2.5,1.3-3.7c1.3-3.4,2.5-6.5,3.6-9.2
						c1.7-4,3.2-7.2,4.3-9.1c0.1-0.2,0.2-0.4,0.3-0.5c0.3-0.4,0.6-0.8,1-1.2c0.4-0.5,0.9-0.9,1.4-1.3c0.8-0.6,1.7-1.1,2.8-1.5
						c2.2-0.8,4.8-1.2,7.6-1.2c0.8,0,1.6,0,2.4,0.1c0,0,0,0,0,0h0c1.4,0.1,2.8,0.2,4.2,0.4c0.2,0,0.5,0.1,0.7,0.1c0.1,0,0.1,0,0.2,0
						c1,0.2,2.1,0.4,3.1,0.6v28.4H596.5z"/>
				</g>
			</g>
		</g>
		<path class="st30" d="M638.8,315.7h-2.6V195.9v-6.6v-34.3H509.3v34.3v6.6v119.8h-2.6c-6.5,0-11.7,5.2-11.7,11.7v0.4h155.5v-0.4
			C650.5,321,645.3,315.7,638.8,315.7z M515.2,160.8h115.1v28.4H515.2V160.8z M515.2,195.9h115.1v119.8H515.2V195.9z"/>
		<g>
			<g>
				<rect x="517.3" y="163.4" class="st41" width="111.3" height="5.6"/>
				<rect x="517.3" y="172.1" class="st41" width="111.3" height="5.6"/>
				<rect x="517.3" y="180.9" class="st41" width="111.3" height="5.6"/>
				<rect x="517.3" y="189.2" class="st41" width="111.3" height="5.6"/>
				<rect x="517.3" y="198.4" class="st41" width="111.3" height="5.6"/>
			</g>
			<rect x="522.5" y="160.7" class="st41" width="1.1" height="47.8"/>
			<rect x="623" y="160.7" class="st41" width="1.1" height="47.8"/>
		</g>
	</g>
	<g>
		<g>
			<rect x="514.9" y="437.5" class="st32" width="121" height="160.8"/>
		</g>
		<path class="st41" d="M577.7,440.4c0,0,0.3,47.5-47.9,87.7c0,0,10,52.4,8.6,67.2h-23.2V440.4H577.7z"/>
		<g>
			<path class="st40" d="M581.9,521.4c0,0-5,0.5-7.9,5.5c-2.9,5-8.6,26.4-12.8,30.8c-4.2,4.4-18.8,13.1-18.8,13.1l3.7,2.4
				c0,0,22.4-6.8,25.6-10.7c3.3-3.9,7.9-25.1,7.9-25.1L581.9,521.4z"/>
			<path class="st47" d="M586.9,491.2c0,0,0.3-7.1,10.5-7.5c10.2-0.4,17.5,8.2,17.9,12.8c0.3,4.7-1.7,12,4.9,16.8
				c6.7,4.8,3.4,27.4-12.4,27.4c-15.8,0-25.2-0.9-25.2-9.1c-0.1-8.1-0.3-15.5,6-17.8C594.7,511.6,586.9,491.2,586.9,491.2z"/>
			<g>
				<path class="st46" d="M604.1,581.7c0,0,0,0.1-0.1,0.2c0,0,0,0.1-0.1,0.2c0,0.1-0.1,0.3-0.2,0.5c0,0,0,0.1,0,0.2
					c-0.1,0.2-0.1,0.4-0.2,0.6c0,0.1-0.1,0.3-0.1,0.4c-0.4,1.2-0.8,2.8-1.4,4.8c-0.1,0.5-0.3,1-0.5,1.6c-0.1,0.3-0.2,0.6-0.2,0.8
					c0,0.1-0.1,0.2-0.1,0.3c-0.1,0.2-0.1,0.4-0.2,0.6c-0.1,0.2-0.1,0.4-0.2,0.7c-0.2,0.5-0.3,1.1-0.5,1.6c-0.4,1.3-0.8,2.7-1.1,4.1
					h-23.8c0.1-1.5,0.1-2.9,0.2-4.2c0-0.3,0-0.6,0.1-0.9c0.1-1.5,0.2-2.9,0.3-4.1c0-0.3,0.1-0.7,0.1-1c0.1-0.6,0.1-1.2,0.2-1.8
					c0-0.1,0-0.2,0-0.3c0-0.1,0-0.2,0-0.3c0.1-0.6,0.1-1.1,0.2-1.6c0-0.2,0-0.3,0.1-0.5c0-0.2,0-0.3,0.1-0.4c0-0.1,0-0.3,0.1-0.4
					c0-0.1,0-0.3,0.1-0.4c0-0.1,0-0.1,0-0.2c0-0.2,0.1-0.3,0.1-0.5c0-0.1,0-0.2,0-0.3c0-0.1,0-0.2,0-0.2c0.1-0.3,0.2-0.6,0.3-0.9
					c0-0.1,0.1-0.1,0.1-0.2c0-0.1,0.1-0.1,0.1-0.2c0.1-0.1,0.2-0.2,0.3-0.3c0,0,0.1-0.1,0.1-0.1c0.1-0.1,0.1-0.1,0.2-0.1
					c0,0,0.1-0.1,0.1-0.1c0.1-0.1,0.2-0.1,0.2-0.2c0.1,0,0.1-0.1,0.2-0.1c0.1-0.1,0.2-0.1,0.4-0.2c0.1,0,0.1-0.1,0.2-0.1
					c0.1,0,0.2-0.1,0.2-0.1c0.1,0,0.2-0.1,0.2-0.1c0.1,0,0.2-0.1,0.2-0.1c0.3-0.1,0.6-0.2,0.9-0.2c0.1,0,0.1,0,0.2,0
					c0.1,0,0.2,0,0.3-0.1c0.2,0,0.3,0,0.5-0.1c0.1,0,0.2,0,0.3,0c0.1,0,0.2,0,0.3,0c0.1,0,0.3,0,0.4,0c0.2,0,0.4,0,0.5,0
					c0.8,0,1.7,0,2.6,0c0.2,0,0.4,0,0.6,0c0.3,0,0.7,0.1,1.1,0.1c0.5,0.1,1,0.1,1.6,0.2h0c0,0,0.1,0,0.1,0c0.2,0,0.5,0.1,0.7,0.1
					c0.7,0.1,1.5,0.2,2.2,0.4c0.3,0.1,0.6,0.1,0.9,0.2l0.8,0.2c0.7,0.2,1.5,0.3,2.2,0.5c0.3,0.1,0.5,0.1,0.8,0.2c0.1,0,0.1,0,0.2,0
					c0.1,0,0.3,0.1,0.4,0.1c0.2,0,0.4,0.1,0.5,0.1c0.3,0.1,0.6,0.2,0.9,0.2c0.1,0,0.2,0.1,0.3,0.1c0.2,0,0.4,0.1,0.5,0.1
					c0.5,0.1,0.9,0.2,1.3,0.4c0.2,0.1,0.4,0.1,0.5,0.2c0.1,0,0.3,0.1,0.4,0.1c0,0,0,0,0.1,0c0.1,0,0.2,0.1,0.3,0.1
					c0.1,0,0.2,0.1,0.3,0.1c0.1,0,0.2,0.1,0.3,0.1c0.1,0,0.1,0,0.2,0.1c0.1,0,0.1,0,0.2,0.1C603.9,581.7,604.1,581.7,604.1,581.7z"
					/>
			</g>
			<path class="st42" d="M604.1,581.7c0,0,0,0.1-0.1,0.2c0,0,0,0.1-0.1,0.2c0,0.1-0.1,0.3-0.2,0.5c0,0,0,0.1,0,0.2
				c-0.1,0.2-0.1,0.4-0.2,0.6c0,0.1-0.1,0.3-0.1,0.4c-0.4,1.2-0.8,2.8-1.4,4.8c-0.1,0.5-0.3,1-0.5,1.6c-0.1,0.3-0.2,0.6-0.2,0.8
				c0,0.1-0.1,0.2-0.1,0.3c-0.1,0.2-0.1,0.4-0.2,0.6c-0.1,0.2-0.1,0.4-0.2,0.7c-0.2,0.5-0.3,1.1-0.5,1.6c-0.4,1.3-0.8,2.7-1.1,4.1
				h-23.8c0.1-1.5,0.1-2.9,0.2-4.2c0-0.3,0-0.6,0.1-0.9c0.1-1.5,0.2-2.9,0.3-4.1c0-0.3,0.1-0.7,0.1-1c0.1-0.6,0.1-1.2,0.2-1.8
				c0-0.1,0-0.2,0-0.3c0-0.1,0-0.2,0-0.3c0.1-0.6,0.1-1.1,0.2-1.6c0-0.2,0-0.3,0.1-0.5c0-0.2,0-0.3,0.1-0.4c0-0.1,0-0.3,0.1-0.4
				c0-0.1,0-0.3,0.1-0.4c0-0.1,0-0.1,0-0.2c0-0.2,0.1-0.3,0.1-0.5c0-0.1,0-0.2,0-0.3c0-0.1,0-0.2,0-0.2c0.1-0.3,0.2-0.6,0.3-0.9
				c0-0.1,0.1-0.1,0.1-0.2c0-0.1,0.1-0.1,0.1-0.2c0.1-0.1,0.2-0.2,0.3-0.3c0,0,0.1-0.1,0.1-0.1c0.1-0.1,0.1-0.1,0.2-0.1
				c0,0,0.1-0.1,0.1-0.1c0.1-0.1,0.2-0.1,0.2-0.2c0.1,0,0.1-0.1,0.2-0.1c0.1-0.1,0.2-0.1,0.4-0.2c0.1,0,0.1-0.1,0.2-0.1
				c0.1,0,0.2-0.1,0.2-0.1c0.1,0,0.2-0.1,0.2-0.1c0.1,0,0.2-0.1,0.2-0.1c0.3-0.1,0.6-0.2,0.9-0.2c0.1,0,0.1,0,0.2,0
				c0.1,0,0.2,0,0.3-0.1c0.2,0,0.3,0,0.5-0.1c0.1,0,0.2,0,0.3,0c0.1,0,0.2,0,0.3,0c0.1,0,0.3,0,0.4,0c0.2,0,0.4,0,0.5,0
				c0.8,0,1.7,0,2.6,0c0.2,0,0.4,0,0.6,0c0.3,0,0.7,0.1,1.1,0.1c0.5,0.1,1,0.1,1.6,0.2h0c0,0,0.1,0,0.1,0c0.2,0,0.5,0.1,0.7,0.1
				c0.7,0.1,1.5,0.2,2.2,0.4c0.3,0.1,0.6,0.1,0.9,0.2l0.8,0.2c0.7,0.2,1.5,0.3,2.2,0.5c0.3,0.1,0.5,0.1,0.8,0.2c0.1,0,0.1,0,0.2,0
				c0.1,0,0.3,0.1,0.4,0.1c0.2,0,0.4,0.1,0.5,0.1c0.3,0.1,0.6,0.2,0.9,0.2c0.1,0,0.2,0.1,0.3,0.1c0.2,0,0.4,0.1,0.5,0.1
				c0.5,0.1,0.9,0.2,1.3,0.4c0.2,0,0.4,0.1,0.5,0.2c0.1,0,0.3,0.1,0.4,0.1c0,0,0,0,0.1,0c0.1,0,0.2,0.1,0.3,0.1
				c0.1,0,0.2,0.1,0.3,0.1c0.1,0,0.2,0.1,0.3,0.1c0.1,0,0.1,0,0.2,0.1c0.1,0,0.1,0,0.2,0.1C603.9,581.7,604.1,581.7,604.1,581.7z"/>
			<path class="st46" d="M615.9,598.3h-23.6c-0.6-3.3-1.1-6.4-1.6-9c-0.8-4.5-1.5-7.9-1.8-9.5c-0.1-0.6-0.2-0.9-0.2-0.9
				s0.2-0.3,0.6-0.7h0c2.4-2.8,11.7-12.5,16.1-8c0.7,0.7,1.5,1.5,2.3,2.4c2.6,2.9,5.4,6.5,7,11.7C615.9,588,616.4,592.6,615.9,598.3
				z"/>
			<path class="st40" d="M586.9,524.7l4,6l8-0.4l3.7-9.6c0,0-1.1-0.2-1.7-12.2l-10,3.1c0,0,0.5,3.1-0.2,6.5
				C590.2,520.5,589.1,523,586.9,524.7z"/>
			<path class="st40" d="M585.7,520.5c0.5,0,10-3.2,23.4,2.3c0,0-6.4,36.6-3.7,43.6c2.7,7,3.8,13.2,3.8,13.2l-29.8,0.4
				c0,0,0.4-24-1-32.5C577.2,539,585.7,520.5,585.7,520.5z"/>
			<path class="st37" d="M615.2,583.5c-0.5,1.1-1.6,1.9-3,2.5c-1.8,0.9-4,1.4-5.7,1.8c-1.4,0.3-3.4,0.7-5.9,0.9
				c-1.3,0.1-2.6,0.3-4,0.3c-0.2,0-0.4,0-0.6,0c-9,0.4-19,0.2-20.4-4c-0.1-0.4-0.1-1.2,0-2.3c0.2-2.2,0.7-5.5,1.2-8.6
				c0.5-2.9,0.9-5.7,1.1-7.1c0.7-7.6-0.8-18.4-1-25.5c-0.2-5.9,5.1-20.2,5.1-20.2s1-0.6,4.9-1.1c0,0,0.6,7,4.2,7.6
				c6.3,1,11.3-4.7,12.8-7c0,0,7.2,1.8,9.3,4.2c1.5,1.7,1.3,5.9,0.9,8.5c-0.1,0.8-0.3,1.5-0.5,1.9c-0.4,1.2-2.1,9.8-2.9,13.2
				c0,0.1,0,0.2-0.1,0.2c-0.1,0.2-0.1,0.4-0.1,0.6c0,0,0,0,0,0c0,0.2-0.1,0.3-0.1,0.4c0,0.1,0,0.1-0.1,0.2c0,0,0,0,0,0
				c-1.1,3.5-1.8,7.1-1.4,11.6c0,0.5,0.2,1.1,0.3,1.8C610.2,568.7,614.3,578.8,615.2,583.5z"/>
			<path class="st48" d="M590.7,518.1c4.1-0.3,10.2-9.6,10.2-9.6l-10,3.1C590.9,511.6,591.4,514.7,590.7,518.1z"/>
			<path class="st37" d="M586.8,520.3c0,0-9.6,1-12.8,5.5c-3.2,4.5-5.3,11.3-5.3,11.3s2.3,6.9,9,6
				C584.4,542.3,586.8,520.3,586.8,520.3z"/>
			<path class="st40" d="M589.2,514.3c0,0,12.2-0.4,11.9-8c-0.3-7.6,1-12.8-6.8-12.9c-7.8-0.1-9.2,2.9-9.7,5.5
				C584,501.5,586,514.2,589.2,514.3z"/>
			<path class="st47" d="M590.2,492.5c0,0,0.4,2.5,5.2,5.8c4.8,3.3,5.6,11,5.6,11s3.6-13.7-0.7-16.8
				C595.9,489.5,590.2,492.5,590.2,492.5z"/>
			<path class="st47" d="M594.1,488.2c0,0-6.3-0.6-10.7,6.4c-1.9,3-0.4,7.8,1.6,10.2c0,0,0.7-6.5,4.1-8.6
				C592.4,494,594.1,488.2,594.1,488.2z"/>
			<g>
				<g>
					<path class="st35" d="M552.3,560.6c0,0-3.2-3.8-0.2-6.2c0,0,2.2-1.3,4-1.2c0,0-2.6,4.3-1.7,4.7c0.8,0.4,2.5-5,2.5-5
						s5-0.5,6.7,0.3c0,0-4.3,3.5-3.4,3.7c0.9,0.2,5.6-3.2,5.6-3.2s4.7,0.8,4.4,3.7c-0.2,2.9-1.9,3.7-2.6,3.7s-4.9-1.7-4.9-1.1
						c-0.1,0.6,2.4,2.5,4.2,2.6c0,0-3.3,3.6-5.5,2.6c-2.2-1.1-2.4-2.7-3.8-3.3c-1.4-0.6-2.5-0.6-2,0c0.6,0.6,3,1.3,3.8,2.6
						c0.8,1.4,1.5,2.3-0.8,2c-2.3-0.3-6-2-6.1-3.9C552.3,560.6,552.3,560.6,552.3,560.6z"/>
					<g>
						<path class="st35" d="M567.8,557.4c0,0-12.7-0.5-15.5,3.1c0,0-0.6,1.9-2.5,3.6l-0.3,0.8c0,0,2.2-2.3,3-2.5
							C552.4,562.5,551.2,558,567.8,557.4z"/>
						<path class="st35" d="M549.7,564.1c0,0-2.7,2-2.9,5.6l0.5,0c0,0,0.9-3.7,2.4-5.2C551.3,563.2,549.7,564.1,549.7,564.1z"/>
					</g>
				</g>
				<g>
					<path class="st36" d="M541,555.8c0,0,5.1-2.9,2.7-6.8c0,0-1.9-2.4-4-3c0,0,1.1,5.8,0,6c-1.1,0.1-0.8-6.6-0.8-6.6
						s-5.4-2.6-7.5-2.4c0,0,3.4,5.7,2.3,5.5c-1.1-0.1-4.9-5.9-4.9-5.9s-5.5-1-6.4,2.3c-0.9,3.3,0.5,4.9,1.4,5.1
						c0.8,0.2,6.1,0.1,6,0.8c-0.1,0.7-3.7,1.8-5.7,1.2c0,0,2.2,5.4,5.1,5.1c2.9-0.3,3.8-2.1,5.5-2.2c1.8-0.1,3.1,0.3,2.2,0.8
						c-0.9,0.5-3.9,0.2-5.3,1.4c-1.4,1.2-2.6,2,0.1,2.5c2.7,0.5,7.5,0.2,8.4-1.8C541,555.8,541,555.8,541,555.8z"/>
					<g>
						<path class="st35" d="M525,546c0,0,14.4,4.7,16,9.9c0,0-0.1,2.3,1.4,5v1c0,0-1.5-3.5-2.3-4C540,557.9,543.2,553.4,525,546z"/>
						<path class="st35" d="M542.4,560.8c0,0,2.2,3.4,1,7.5l-0.6-0.2c0,0,0.6-4.5-0.6-6.8C541,559.1,542.4,560.8,542.4,560.8z"/>
					</g>
				</g>
				<g>
					<path class="st36" d="M549.2,551.9c0,0-6.8-3.8-3.6-8.9c0,0,2.5-3.2,5.2-4c0,0-1.4,7.7,0,7.8c1.4,0.2,1-8.7,1-8.7
						s7.1-3.4,9.9-3.2c0,0-4.4,7.5-3,7.3c1.4-0.2,6.4-7.8,6.4-7.8s7.3-1.4,8.5,3c1.2,4.3-0.7,6.5-1.8,6.8c-1.1,0.3-8,0.2-7.8,1.1
						c0.2,0.9,4.9,2.3,7.5,1.5c0,0-2.9,7.1-6.7,6.8c-3.8-0.4-5-2.7-7.3-2.9c-2.3-0.2-4.1,0.5-2.9,1.1c1.2,0.6,5.1,0.2,7,1.8
						c1.9,1.6,3.4,2.6-0.1,3.3c-3.5,0.7-9.8,0.3-11.1-2.4C549.2,551.9,549.2,551.9,549.2,551.9z"/>
					<g>
						<path class="st35" d="M570.3,538.9c0,0-18.9,6.1-21.1,13c0,0,0.1,3.1-1.8,6.6v1.4c0,0,2-4.6,3.1-5.2
							C550.4,554.6,546.2,548.6,570.3,538.9z"/>
						<path class="st35" d="M547.4,558.5c0,0-2.9,4.4-1.3,9.8l0.8-0.2c0,0-0.7-5.9,0.8-8.9C549.2,556.2,547.4,558.5,547.4,558.5z"/>
					</g>
				</g>
				<path class="st46" d="M562.2,566.8c0,7.3-5.9,13.3-13.3,13.3c-1.5,0-3-0.3-4.4-0.7c-5.2-1.8-8.9-6.7-8.9-12.5H562.2z"/>
				<path class="st50" d="M548.9,580c-0.5,0.1,2.2,0,1.6,0c-7.3,0-13.3-5.9-13.3-13.3h3.3C540.6,573.5,542.4,579.2,548.9,580z"/>
				<path class="st42" d="M562.4,580.7h-26.9c0-0.5,0.2-0.9,0.5-1.2c0.3-0.3,0.7-0.5,1.2-0.5h23.6
					C561.6,579.1,562.4,579.8,562.4,580.7z"/>
				<rect x="535.2" y="566.8" class="st42" width="27.2" height="0.4"/>
			</g>
			<path class="st40" d="M563,571.7c-0.3-0.7-3.2-1.4-4.3-1.9c0,0-0.7,0.5,0.2,1.4c0.3,0.2,0.8,0.6,1.2,0.9c-0.1,0-0.3-0.1-0.4-0.1
				c-1-0.3-7.7,2-8.4,3.5c-0.8,1.5,3.8,5.1,7.2,4c1.8-0.6,7.5-1.6,7.5-1.6l-1-4.7C565.1,573.2,563.3,572.4,563,571.7z"/>
			<path class="st40" d="M614.1,528.1c0,0,1.4,9.5-8.5,23.5c-9.9,14-9.3,14.9-14.9,18.6c-5.7,3.7-24.7,7.6-24.7,7.6l-1-4.7
				c0,0,18.4-11.9,20.2-14.2c1.8-2.3,13.6-28.7,13.6-28.7L614.1,528.1z"/>
			<path class="st37" d="M604.7,524.6c0,0-7.9,6.2-10,9.2c-2.1,3-4,9.8-4,9.8s8.2,5.2,22.4,1.4c0,0,3.8-17.6-0.1-19.8
				c-3.9-2.3-7.5-0.5-7.5-0.5H604.7z"/>
		</g>
		<path class="st41" d="M580.9,440.4c0,0,8.8,38.9,49.5,52.7c0,0-0.4,60-5,75.7c-4.6,15.8-5.7,26.5-5.7,26.5h10.7V440.4H580.9z"/>
		<path class="st30" d="M638.8,595.3h-2.6V475.5v-6.6v-34.3H509.3v34.3v6.6v119.8h-2.6c-6.5,0-11.7,5.2-11.7,11.7v0.4h155.5v-0.4
			C650.5,600.6,645.3,595.3,638.8,595.3z M515.2,440.4h115.1v28.4H515.2V440.4z M515.2,475.5h115.1v119.8H515.2V475.5z"/>
	</g>
	<rect x="246.8" y="645" class="st30" width="454.6" height="62.2"/>
	<path class="st51" d="M354.7,707.6c0,0-8.4-30.3-43.4-40.4s-32.7-5.1-64.3-23.1c-31.6-18.1-81.3-6.8-91.4,7.9
		c-10.2,14.7-33.9,22.6-66.6,22c-32.7-0.6-34.4,31.3-34.4,31.3L354.7,707.6z"/>
	<g>
		<g>
			<g>
				<rect x="319.6" y="437.5" class="st31" width="121" height="160.8"/>
				<rect x="322.6" y="440.5" class="st32" width="115.1" height="154.9"/>
				<g>
					<path class="st47" d="M369.5,576.9c0,0-6.6,9.1-6.6,18.5h45c0,0-2.4-14.7-12.7-18.5C385,573.1,369.5,576.9,369.5,576.9z"/>
					<path class="st40" d="M424.6,528.1c0,0-7.1,18-7.9,18.7c-2.1,1.7-15.2-18.3-17.2-21.8c-2-3.5-14.4-0.5-15.5-7
						c-0.3-2-1-4.2-1-5.6c0-0.2,0-0.3,0-0.5c0-1.3,0.1-2.6,0.3-4.1l-0.6,0l-10.4,0.8c0,0,1,2.5,0.7,5.5c-0.1,1-0.2,2.8-0.3,4.7
						c-0.1,2-1.5,3.8-3.5,4.3c-4.5,1.3-10,3.3-11,5.8c-1.9,4.8-6.1,26.7-6.9,34.1c-0.8,7.4-8.3,29.1-8.3,29.1h3.8
						c0,0,14.1-23.7,15.3-27.4c0.4-1.1,1.7-5.7,3.4-11.4c1.6,6.2,3.8,12.4,4.3,15c0.8,4.4-7.3,18.7-6.5,22.7c0.8,4,43.8,6.1,43.2,0
						c-0.6-6.1-6.7-16.4-7.9-21.2c-0.9-3.6,1.2-15.8,1.9-23c6.6,7.5,15.5,14.5,18.3,13.1c7-3.7,9.2-30.9,9.2-30.9L424.6,528.1z"/>
					<path class="st47" d="M375.6,502.2c0,0-5.6,4.5-0.9,10.9c0,0-5.5-0.2-6.9-1.7c0,0,0.2,0.6,0.5,1c0,0-5.1-0.4-7-2.2
						c-1.9-1.8,2.5-27.5,16.2-23c0,0,12,0.5,9.3,14.2c-2.8,13.6,1.7,14.2,1.7,14.2s-1.3,0.5-1.9,0.4c0,0-0.8-0.4-1-0.9
						c0,0,0.1,0.8,0.3,1.1c0,0-4.9-0.1-7.1-2.2C376.7,511.7,374.6,505,375.6,502.2z"/>
					<path class="st47" d="M370.7,507.9c0,0-2.4-5.1-2.7-9.2c-0.2-2.9,2.6-13.4,13.1-10.6c0,0,3.1,0.7,5.8,3
						c2.1,1.9,5.1,5.7,0.2,14.5l-1.4,3L370.7,507.9z"/>
					<path class="st48" d="M384,518c-7.5-1.1-11.8-9-11.8-9c3.1-0.3,7.4,1.2,10.8,2.9c0,0.2,0,0.3,0,0.5
						C383,513.8,383.5,516.1,384,518z"/>
					<path class="st40" d="M384.1,515c0,0-13.5-1.4-12.5-9.8c1-8.4-0.1-14.2,8.6-13.7c8.7,0.5,10,3.9,10.3,6.8
						C390.8,501.2,387.6,515.2,384.1,515z"/>
					<path class="st47" d="M386.3,492c0,0-4.9,9.4-10.7,10.2c-5.8,0.8-8.1-1-8.1-1s4.8-2.9,6.4-8.9C373.9,492.4,384.1,487,386.3,492
						z"/>
					<path class="st47" d="M385.3,492.7c0,0,2.5,2.5,2.9,4.7c0.4,2.2,0.2,6.7,1.5,6.7c0,0,3.6-6.4,0.9-10.5
						C387.8,489.2,385.3,492.7,385.3,492.7z"/>
					<path class="st47" d="M385.8,493.1c0,0-3.9,10-11.4,12.5c0,0,7.9-5.5,9.3-12.2C385.1,486.6,385.8,493.1,385.8,493.1z"/>
					<path class="st40" d="M424.5,529.1c0,0-0.2-6.4,0.4-8.6c0.7-2.2,2.2-5.8,2.5-5.6c0.3,0.1,1,5,0.7,6c-0.3,1.1,0.3,3.6,0.7,3.1
						s1.1-3.9,1.7-3.7c0.6,0.2,0,2.3,0.3,2.8c0.3,0.5,0.2,1.9-0.8,3.7s-2.1,3.8-2.1,3.8L424.5,529.1z"/>
					<path class="st40" d="M343.8,592.2c0,0-5.4-1.3-7.2-0.7c-1.8,0.6-5,3.8-4.2,3.8c0.8,0.1,4.6-1,5.1-0.8c0.5,0.1,2,0.3,2,0.3
						s-2.2,0.1-2.1,0.5c0.1,0.4,5.7,0.5,6.4,0c0.7-0.5,2.9-3.2,2.9-3.2H343.8z"/>
					<path class="st41" d="M363.4,525.2c0,0,6.8,5.8,15.5,5.4c8.7-0.5,15.5-7.6,15.5-7.6s4,0,6,2.2c2.1,2.2,10,12.1,10,12.1
						s0.7,7.4-8.2,12.6l-0.9-1.6c0,0-1.5,18.5-0.6,20.3c0.9,1.7,8.3,20,7.1,22.8c-1.2,2.8-41.6,9.7-44.6-0.4
						c-3-10.1,4.6-18.9,4.2-22.5c-0.3-3.6-2.1-15.1-2.1-15.1s-11.7-1.8-12.1-8.8C353.4,544.6,355.5,525.1,363.4,525.2z"/>
				</g>
			</g>
			<path class="st30" d="M446.2,595.3h-2.6V475.5v-6.6v-34.3H316.7v34.3v6.6v119.8h-2.6c-6.5,0-11.7,5.2-11.7,11.7v0.4h155.5v-0.4
				C457.9,600.6,452.7,595.3,446.2,595.3z M322.6,440.4h115.1v28.4H322.6V440.4z M322.6,475.5h115.1v119.8H322.6V475.5z"/>
			<g>
				<g>
					<rect x="324.7" y="443" class="st41" width="111.3" height="5.6"/>
					<rect x="324.7" y="451.8" class="st41" width="111.3" height="5.6"/>
					<rect x="324.7" y="460.5" class="st41" width="111.3" height="5.6"/>
					<rect x="324.7" y="468.8" class="st41" width="111.3" height="5.6"/>
					<rect x="324.7" y="478" class="st41" width="111.3" height="5.6"/>
				</g>
				<rect x="329.9" y="440.3" class="st41" width="1.1" height="47.8"/>
				<rect x="430.4" y="440.3" class="st41" width="1.1" height="47.8"/>
			</g>
		</g>
		<g>
			<g>
				<path class="st45" d="M407.2,590.9h-16.8v-5.8h16.8c1.1,0,1.9,0.9,1.9,1.9v1.9C409.1,590,408.3,590.9,407.2,590.9z"/>
				<path class="st52" d="M423.1,587.4v0.9c0,0.5-0.1,0.9-0.3,1.3c-0.4,0.8-1.3,1.3-2.2,1.3h-30.7c-0.2,0-0.4-0.2-0.4-0.4v-0.1
					c0-0.2,0.2-0.4,0.4-0.4h18.7c0.1-0.1,0.2-0.3,0.3-0.4c0.2-0.3,0.3-0.7,0.3-1.1v-1.1c0-0.2,0-0.4-0.1-0.6
					c-0.1-0.3-0.2-0.6-0.4-0.9h-18.7c-0.2,0-0.4-0.2-0.4-0.4v-0.1c0-0.2,0.2-0.4,0.4-0.4h30.8c1.1,0,2,0.7,2.3,1.7
					C423.1,587,423.1,587.2,423.1,587.4z"/>
				<path class="st53" d="M423,586.8h-14c-0.1-0.3-0.2-0.6-0.4-0.9h-18.7c-0.2,0-0.4-0.2-0.4-0.4v-0.1c0-0.2,0.2-0.4,0.4-0.4h30.8
					C421.8,585.1,422.7,585.8,423,586.8z"/>
			</g>
			<polygon class="st54" points="390.4,588 392.7,588.1 390.4,588.1 			"/>
			<polygon class="st54" points="390.4,588.9 395.8,589 390.4,589 			"/>
		</g>
		<g>
			<g>
				<g>
					<path class="st43" d="M393.9,595.3h17.4v-4.5h-17.6c-1.2,0-2.2,1-2.2,2.2l0,0C391.6,594.3,392.6,595.3,393.9,595.3z"/>
					<path class="st45" d="M409.6,595.3h20.6v-4.5h-20.6c-0.8,0-1.5,0.7-1.5,1.5v1.5C408.1,594.6,408.8,595.3,409.6,595.3z"/>
					<path class="st43" d="M406.8,595.3h24.1c0.2,0,0.3-0.2,0.3-0.3l0,0c0-0.2-0.2-0.3-0.3-0.3h-24.1c-0.2,0-0.3,0.2-0.3,0.3l0,0
						C406.4,595.2,406.6,595.3,406.8,595.3z"/>
					<path class="st43" d="M406.8,591.5h24.1c0.2,0,0.3-0.2,0.3-0.3l0,0c0-0.2-0.2-0.3-0.3-0.3h-24.1c-0.2,0-0.3,0.2-0.3,0.3l0,0
						C406.4,591.4,406.6,591.5,406.8,591.5z"/>
				</g>
				<polygon class="st54" points="430.2,593.1 427.5,593.2 430.2,593.2 				"/>
				<polygon class="st54" points="430.2,592 423.8,592.1 430.2,592.2 				"/>
			</g>
			<g>
				<path class="st52" d="M423.9,592.1c0,0,0.3,0.2,0.4,0.5c0,0.1,0,0.1,0,0.2c0,0.4,0,1.4,0,1.4l0.8-0.5l0.8,0.5v-1.3
					c0-0.2-0.1-0.5-0.2-0.6c-0.1-0.1-0.1-0.1-0.2-0.1H423.9z"/>
				<path class="st55" d="M423.9,592.1c0,0,0.3,0.2,0.4,0.5l1.6,0c0,0-0.1-0.5-0.4-0.5H423.9z"/>
			</g>
		</g>
	</g>
	<g>
		<g>
			<g>
				<rect x="317.1" y="157.9" class="st32" width="121" height="160.8"/>
			</g>
			<path class="st41" d="M375.3,160.8c0,0-0.3,47.5,47.9,87.7c0,0-10,52.4-8.6,67.2h23.2V160.8H375.3z"/>
			<g>
				<g>
					<path class="st56" d="M332.1,251c0,0-10.1,1.4-12.7,3.7c-4.4,3.8-1.2,62.3-1.2,62.3s15.2,1.3,15.2,0S332.1,251,332.1,251z"/>
					<path class="st57" d="M371.6,317.1l-21.7,1.6l-15.1,1.1l-3.2,0.2l-0.2-1.4l-0.2-1.2l0-0.3l-0.8-5.3l0,0l-0.3-2.1l-0.9-6.4
						l-4.7-32.9l-1.3-9.2c0,0-1-8.6,7-10.1c0.6-0.1,1.2-0.2,1.8-0.3c0,0,0,0,0,0c2.7-0.5,5.8-1,8.9-1.4c2.5-0.3,5-0.5,7.2-0.5
						c1,0,1.8,0.1,2.7,0.2c1.1,0.2,2,0.4,2.8,0.8c0.1,0,0.2,0.1,0.3,0.1c0.3,0.2,0.6,0.3,0.8,0.6c0.1,0.1,0.2,0.2,0.3,0.3
						c0.3,0.3,0.6,0.9,0.9,1.7c0.4,0.9,0.8,2.1,1.3,3.6c0.7,2.1,1.4,4.6,2.1,7.5c2.1,8,4.6,18.6,6.7,28.2c0.1,0.3,0.1,0.6,0.2,0.9
						c0.3,1.2,0.5,2.5,0.8,3.7c0,0.1,0,0.1,0,0.2c0,0.2,0.1,0.4,0.1,0.7c0.1,0.6,0.3,1.2,0.4,1.8c0.2,1.2,0.5,2.3,0.7,3.4
						c1.6,7.3,2.7,12.8,3,14.3C371.6,317,371.6,317.1,371.6,317.1z"/>
				</g>
				<g>
					<g>
						<path class="st58" d="M357.9,256.1c0,0,3.4,5.1,5.4,15.7c1.7,9.3,3.2,12.8,5.7,14.7c2.5,1.9,16.2,7.6,16.2,7.6l-1,2.4
							c0,0-20.2-2.7-22.5-6.1c-2.3-3.4-10.9-23.3-10.2-27.9C352.2,257.9,357.9,256.1,357.9,256.1z"/>
						<path class="st49" d="M404.2,318.7h-16.7c-0.4-1.7-1-2.7-2.2-2.8c-1.1-0.1-6.8,0.6-13.7,0.8c-11,0.4-25.1-0.2-28.2-5.7
							c-0.8-1.3-1.3-2.7-1.7-4v0c-0.1-0.2-0.1-0.4-0.2-0.6c-0.6-2.4-0.8-4.7-0.6-6.7c0.1-1.2,0.2-2.2,0.4-3.1
							c0.5-2.3,1.2-3.7,1.2-3.7l5.4,4c0,0,0,0,0,0l0.6,0.4c0,0,4.7-0.4,11.1-0.6c1.4-0.1,2.9-0.1,4.5-0.2c0.8,0,1.6,0,2.4-0.1
							c0.3,0,0.5,0,0.8,0c1.9,0,3.9-0.1,5.9-0.1c0.2,0,0.4,0,0.6,0c0.5,0,0.9,0,1.4,0c7.7,0.1,15,0.6,18.7,2c0.5,0.2,1,0.4,1.3,0.6
							c0,0,0,0,0,0C397.9,300.8,401.1,309,404.2,318.7z"/>
						<path class="st37" d="M388.9,318.7H350l-15.1,1.1c-0.7-0.3-1.4-0.7-2-1.1c-0.5-0.4-1-0.8-1.4-1.2c-0.1-0.1-0.1-0.2-0.2-0.3
							c-0.2-0.3-0.4-0.6-0.6-0.9c-0.8-1.5-1-2.9-0.9-4.2v0c0.1-0.8,0.2-1.5,0.5-2.2c0.6-1.7,1.7-3.2,3-4.6c3.3-3.4,7.6-5.5,7.6-5.5
							s0,0,0,0c0.4,0,5,0.2,11,0.7h0c0.6,0,1.2,0.1,1.8,0.1c0,0,0,0,0,0c4.7,0.4,10.1,1,15,1.8c6.3,1,11.9,2.3,14.4,4
							C384.8,307.7,386.9,312.4,388.9,318.7z"/>
						<path class="st43" d="M357.2,237.6C357.2,237.6,357.2,237.6,357.2,237.6C357.2,237.6,357.2,237.6,357.2,237.6
							c0-0.7,0-1.4-0.1-2.1c-0.1-2-0.4-3.9-0.7-5.6c-0.2-1-0.4-1.9-0.7-2.7c0-0.1-0.1-0.3-0.1-0.4v0c-0.6-1.9-1.4-3.3-2.3-3.8
							c-1.5-1-3.5-1.3-4.8-1.3c0.4-0.3,1.1-0.4,1.1-0.4c-0.8-0.2-2.8,0.5-2.8,0.5c-11.3-5.3-14.3,11.8-14.3,15.8
							c0,4-0.3,8.6-6.3,11.8c-2.3,1.2-3.9,2.7-4.8,4.3c-4,6.5,1.7,14.9,1.7,14.9c0,0,0.7,0.8,1.5,2c2.3,3,6.4,8.4,6.4,8.4s0,0,0,0
							c0-0.7,0.6-2.2,1.7-4c0.8-1.3,1.8-2.9,3-4.5c0.6-0.8,1.2-1.6,1.8-2.4c0.8-1.1,1.7-2.2,2.6-3.3c0.4-0.4,0.7-0.8,1.1-1.2
							c1.6-1.9,3.3-3.6,5-5.2c0.4-0.4,0.8-0.7,1.1-1.1h0c0.5-0.4,0.9-0.8,1.4-1.2c0.9-0.7,1.8-1.3,2.6-1.8c0,0,0.1,0,0.1-0.1h0
							c0.1-0.1,0.2-0.1,0.3-0.2c0.4-0.4,0.7-1,1-1.5c0.1-0.2,0.2-0.4,0.3-0.6c0.3-0.6,0.6-1.3,0.8-1.9c0.7-1.9,1-3.6,1.1-3.9
							c-0.2,1.6-0.5,2.9-0.8,4c-0.2,0.7-0.4,1.3-0.6,1.8c-0.1,0.4-0.3,0.7-0.4,1c-0.1,0.1-0.1,0.2-0.2,0.4c0.1-0.1,0.2-0.1,0.3-0.2
							c0.3-0.3,0.6-0.6,0.9-1c0.3-0.4,0.6-0.9,0.9-1.4C356.6,247.4,357.3,242.5,357.2,237.6z"/>
						<path class="st40" d="M351.5,251.7c-0.2-0.1-0.4-0.2-0.7-0.3c0-0.5,0-1.1,0.1-1.6c0.2-2.6,0.6-5.2,0.6-5.2l-8.5-2.3l-0.5-0.1
							c-0.2,3.7-1,6.3-1.7,8c-0.9,0-1.4,0.1-1.4,0.1c-0.1,0.5,0,1.3,0.5,2.2c-0.1,0.2-0.1,0.3-0.1,0.4c-0.5,2.4,5.5,5.7,8.2,5.9
							c1.6,0.1,2.5-0.6,2.9-1.4C354.2,256.5,354,252.7,351.5,251.7z"/>
						<path class="st58" d="M351.4,244.5c0,0-0.4,2.7-0.6,5.2c-4.8-0.5-7.1-5-7.9-7.5L351.4,244.5z"/>
						<path class="st43" d="M342.1,241.3c0,0-2.3-4.2-2.6-7.6c-0.3-2.5,1.6-11.4,10.6-9.5c0,0,2.6,0.4,5,2.3
							c1.9,1.5,4.5,4.5,0.8,12.2l-1,2.6L342.1,241.3z"/>
						<path class="st40" d="M352.9,247.1c0,0-11.4-0.6-10.9-7.7c0.5-7.1-0.7-12,6.6-11.9c7.3,0.1,8.5,2.9,9,5.3
							C357.9,235.2,355.9,247,352.9,247.1z"/>
						<path class="st43" d="M353.7,227.7c0,0-3.7,8.1-8.5,9c-4.9,0.9-6.9-0.5-6.9-0.5s3.9-2.7,5-7.7
							C343.3,228.5,351.7,223.6,353.7,227.7z"/>
						<path class="st43" d="M352.9,228.3c0,0,2.2,2,2.7,3.9c0.4,1.8,0.5,5.6,1.5,5.5c0,0,2.7-5.5,0.3-8.9
							C354.9,225.2,352.9,228.3,352.9,228.3z"/>
						<path class="st59" d="M364.3,298c-0.9,1.1-3.8,1.4-6.9,1.9c-2.4,0.4-5,0.9-6.8,2c-4.1,2.4-17.5,10.6-21.5,10.2
							c-1.5-0.1-1.2-3.1-0.3-6.9c1.5-6.1,4.5-14.6,4.5-18.3c0-2,0.7-6.8,1.6-12.2c0.1-0.4,0.1-0.9,0.2-1.3
							c1.8-10.6,4.2-23.1,4.2-23.1s2.7,6,8.1,6c5.3,0,4.1-4.5,4.1-4.5s4.9,0.6,6,1.8c1.1,1.2,4.1,6.6,4.6,8c0,0,0.1,1.9-4.5,2.7
							c0,0,1.1,5,1.3,8.4c0.1,2.5-1.7,10.2-2.2,15.1c-0.2,1.7-0.2,3,0.1,3.7c0.4,0.8,1.5,1.6,2.8,2.3
							C362.2,295.2,365.4,296.6,364.3,298z"/>
						<path class="st60" d="M359.6,293.7c2.9,5-8,6.5-9.8,7.6c-4.1,2.4-16.7,11.2-20.6,10.8c-1.5-0.1-1.2-3.1-0.3-6.9
							c1.5-6.1,4.5-14.6,4.5-18.3c0-2,0.7-6.8,1.6-12.2l4.7-4.6c0,0,5.1,13.1,9.9,15.3c2.5,1.1,5.2,1.9,7.1,2.3
							c-0.2,1.7-0.2,3,0.1,3.7C357.1,292.1,358.3,292.9,359.6,293.7z"/>
						<g>
							<rect x="360.6" y="297.3" class="st47" width="14.9" height="1.8"/>
							<path class="st47" d="M372.3,298.9c0.1-0.6,13.7-21.9,13.7-21.9h30.2l-15.1,21.3L372.3,298.9z"/>
							<path class="st61" d="M373.6,299.1c0.1-0.6,13.7-22.1,13.7-22.1h28.9l-14.4,22.1H373.6z"/>
							<path class="st33" d="M397.5,288.8c-0.3,0.9-1.2,1.6-2.1,1.6c-0.9,0-1.3-0.7-1-1.6c0.3-0.9,1.2-1.6,2.1-1.6
								C397.3,287.2,397.8,287.9,397.5,288.8z"/>
						</g>
						<path class="st40" d="M368.8,291.8c-0.6-0.3-5.4,0.6-6.8,0.9c-4.4-0.9-18.7-3.7-19.4-4.6c-0.8-1.1-2.6-33.3-4.7-33.9
							c0,0-4.1-2.5-8,2.2c-3.9,4.7,2.8,38,8.6,39.8c6.4,1.9,25.1-0.3,25.1-0.3v0c1.5,0.5,4.2,0.8,5.6,1.3c1.9,0.6,3.5,0.1,4-0.6
							C373.6,295.8,369.5,292.1,368.8,291.8z"/>
						<path class="st59" d="M339.3,250.3c0,0-8.3,0.8-10.7,3.5c-2.4,2.7-3.1,10.2-3.1,10.2s7.3,5.9,16.2,3.6L339.3,250.3z"/>
					</g>
				</g>
			</g>
			<path class="st41" d="M372.1,160.8c0,0-8.8,38.9-49.5,52.7c0,0,0.4,60,5,75.7c4.6,15.8,5.7,26.5,5.7,26.5h-10.7V160.8H372.1z"/>
			<path class="st30" d="M302.4,327.4v0.4h155.5v-0.4c0-6.5-5.2-11.7-11.7-11.7h-2.6V195.9v-6.6v-34.3H316.7v34.3v6.6v119.8h-2.6
				C307.7,315.7,302.4,321,302.4,327.4z M437.7,189.2H322.6v-28.4h115.1V189.2z M437.7,315.7H322.6V195.9h115.1V315.7z"/>
		</g>
		<g>
			<g>
				<path class="st62" d="M418.2,304c0,0,4.1,1.7,7-2.5C425.1,301.5,420.4,300.7,418.2,304z"/>
				<path class="st62" d="M417.9,302.3c0,0-0.3-1.5-2-1.5C415.9,300.8,416.5,302.3,417.9,302.3z"/>
				<path class="st62" d="M418.7,293.8c0,0,2,0.2,2.7-2C421.5,291.8,419.3,292.1,418.7,293.8z"/>
				<g>
					<path class="st62" d="M423.4,265.1c-4-0.9-4.1-4.1-4.1-4.1C424.1,262.4,423.4,265.1,423.4,265.1z"/>
					<path class="st62" d="M423.7,264.3c0,0,2.5,1,4.3-1.5C428,262.8,425.1,262.3,423.7,264.3z"/>
					<g>
						<path class="st62" d="M418.2,313.6l-0.5,0.6c-0.1,0.1-0.2,0-0.2-0.1c0-16.8,2.2-31.8,4-40.6c2-9.6,3.9-15.3,4-15.4l0,0
							c0,0.1-1.8,5.8-3.8,15.4c-1.8,8.8-3.9,20.4-3.3,39.8C418.3,313.5,418.3,313.6,418.2,313.6z"/>
					</g>
					<path class="st37" d="M425.4,255.9c-0.6,0.5-3.1,2.7-0.7,4.4c0,0,1.8,0.6,2.4-0.8c0.5-1.1,0.6-2.3,0.6-2.8
						c0-0.1-0.1-0.2-0.2-0.3c-0.1,0-0.3,0-0.5-0.1c-0.2-0.1-0.3-0.4-0.6-0.5c-0.2,0-0.4-0.1-0.6-0.1
						C425.6,255.7,425.5,255.8,425.4,255.9z"/>
					<path class="st62" d="M424,259.6c0,0,0.7,0.6,0.5,1.5l0,0.3c0,0,0.2-0.9,1.1-1.1C425.6,260.4,424.8,260.5,424,259.6z"/>
					<path class="st63" d="M423.4,265.1c-4-0.9-4.1-4.1-4.1-4.1S422.5,262.7,423.4,265.1z"/>
				</g>
				<g>
					<path class="st62" d="M419.6,262.8c0,0-2.5,1-4.2-1.6C415.4,261.2,418.2,260.8,419.6,262.8z"/>
					<g>
						<path class="st62" d="M424.1,312.2l0.5,0.6c0.1,0.1,0.2,0,0.2-0.1c0.3-16.8-1.5-31.8-3.1-40.7c-1.8-9.7-3.6-15.4-3.7-15.5l0,0
							c0,0.1,1.7,5.9,3.5,15.5c1.6,8.9,3.4,20.5,2.5,39.9C424,312.1,424,312.2,424.1,312.2z"/>
					</g>
					<path class="st37" d="M418.1,254.3c0.6,0.5,3,2.8,0.6,4.4c0,0-1.8,0.5-2.4-0.9c-0.4-1.1-0.5-2.3-0.6-2.8c0-0.1,0.1-0.2,0.2-0.2
						c0.1,0,0.3,0,0.5-0.1c0.2-0.1,0.3-0.4,0.7-0.5c0.2,0,0.4-0.1,0.6-0.1C417.9,254.2,418,254.3,418.1,254.3z"/>
					<path class="st62" d="M419.4,258.1c0,0-0.7,0.6-0.5,1.5l0,0.3c0,0-0.2-0.9-1.1-1.1C417.8,258.8,418.6,258.9,419.4,258.1z"/>
				</g>
				<g>
					<path class="st62" d="M420.7,259.9c0,0,2.7,0.4,3.8-2.4C424.5,257.5,421.6,257.6,420.7,259.9z"/>
					<g>
						<path class="st62" d="M426.1,309.2l-0.4,0.7c-0.1,0.1-0.2,0.1-0.2,0c-3.6-16.4-4.8-31.5-5-40.5c-0.2-9.8,0.5-15.8,0.5-15.9
							l0,0c0,0.1-0.5,6.1-0.3,15.9c0.2,9,0.7,20.7,5.4,39.6C426.1,309,426.1,309.1,426.1,309.2z"/>
					</g>
					<path class="st37" d="M420.4,251.3c-0.5,0.6-2.4,3.3,0.3,4.4c0,0,1.9,0.2,2.2-1.3c0.2-1.1,0.1-2.3,0-2.8c0-0.1-0.1-0.2-0.3-0.2
						c-0.1,0-0.3,0-0.5,0c-0.2,0-0.4-0.3-0.7-0.3c-0.2,0-0.4,0-0.6,0.1C420.6,251.1,420.5,251.2,420.4,251.3z"/>
					<path class="st62" d="M419.9,255.2c0,0,0.8,0.4,0.8,1.4l0.1,0.3c0,0,0-0.9,0.8-1.3C421.6,255.6,420.8,255.9,419.9,255.2z"/>
				</g>
				<path class="st62" d="M422.8,256.9c0,0,0-2.1,1.8-2.8C424.7,254.2,425.1,255.9,422.8,256.9z"/>
				<path class="st64" d="M418.6,253.6c0,0,0.1-1.6-1.4-2.1C417.2,251.5,416.8,253,418.6,253.6z"/>
				<path class="st64" d="M423.5,263.2c0.1,0,0.8-1.6-0.7-2.9C422.8,260.4,422.2,262.1,423.5,263.2z"/>
				<path class="st62" d="M424.5,263.1c0,0,0-0.8,0.7-0.9C425.2,262.2,425.4,262.8,424.5,263.1z"/>
				<path class="st62" d="M416.9,260.4c0,0-0.6-1.3-2.7-1.1C414.2,259.3,414.5,260.7,416.9,260.4z"/>
			</g>
			<path class="st37" d="M428.3,315.6h-13.2c-0.9,0-1.6-0.8-1.4-1.7l6.1-42.3c0.1-0.4,0.4-0.7,0.8-0.7h2c0.4,0,0.8,0.3,0.8,0.7
				l6.3,42.3C429.8,314.8,429.1,315.6,428.3,315.6z"/>
			<g>
				<path class="st65" d="M418,314.3l3.3-43.3c-0.4,0-0.6,0.3-0.7,0.7l-6.1,42.3c-0.1,0.9,0.6,1.7,1.4,1.7h2.6
					C418.2,315.3,418,314.8,418,314.3z"/>
			</g>
		</g>
	</g>
	<g>
		<path class="st51" d="M778.4,414h-2.8l0-0.2l0.8-7.4c0-0.2,0.2-0.4,0.5-0.4c0,0,0.1,0,0.1,0c0.2,0,0.3,0.1,0.4,0.2
			c0.1,0.1,0.2,0.3,0.2,0.5L778.4,414z"/>
		<path class="st51" d="M775.9,412.3L775.9,412.3l0.6-5.9c0-0.2,0.2-0.4,0.5-0.4c0,0,0.1,0,0.1,0c0,0,0.1,0,0.1,0.1
			c0.1,0.1,0.2,0.3,0.2,0.5l0,4.3C777.4,411.6,776.7,412.3,775.9,412.3z"/>
		<rect x="774.8" y="446.8" class="st51" width="5.3" height="235.6"/>
		<rect x="774.8" y="446.8" class="st51" width="2.5" height="235.6"/>
		<rect x="769" y="644.9" class="st51" width="17" height="62.3"/>
		<rect x="769" y="644.9" class="st51" width="10.1" height="62.3"/>
		<path class="st51" d="M786.8,417.6c0,2.9-4.4,5.3-9.8,5.3c-0.4,0-0.8,0-1.2,0c-4.8-0.3-8.6-2.5-8.6-5.2c0-2.7,3.7-4.9,8.6-5.2
			c0.4,0,0.8,0,1.2,0C782.4,412.3,786.8,414.7,786.8,417.6z"/>
		<path class="st51" d="M781.7,417.6c0,2.3-2.4,4.4-5.9,5.2c-4.8-0.3-8.6-2.5-8.6-5.2c0-2.7,3.7-4.9,8.6-5.2
			C779.3,413.2,781.7,415.2,781.7,417.6z"/>
		<polygon class="st51" points="786,451.5 769,451.5 763,422.6 791,422.6 		"/>
		<rect x="761.5" y="420.5" class="st51" width="31.1" height="2.8"/>
		<rect x="761.5" y="420.5" class="st51" width="19.5" height="2.8"/>
		<path class="st51" d="M771.8,644.9h10.9l-1.6-4.8c-0.1-0.4-0.5-0.7-1-0.7H775c-0.6,0-1,0.3-1.3,0.8L771.8,644.9z"/>
		<polygon class="st51" points="765,424.1 789,424.1 784.3,450 770.5,450 		"/>
		<path class="st51" d="M767.9,417.9c0,0,1.8-4,5.4-3.9c0,0-2.3,2-2.1,3.9C771.5,419.7,767.9,417.9,767.9,417.9z"/>
		<polygon class="st51" points="790.6,420.5 763.5,420.5 765.7,417.3 788.5,417.3 		"/>
		<polygon class="st51" points="783.9,420.5 763.5,420.5 765.7,417.3 781.8,417.3 		"/>
		<polygon class="st51" points="766.6,425 772.1,425 773.7,449.2 772.1,449.2 		"/>
	</g>
	
		<rect x="226.6" y="55.9" transform="matrix(0.9994 -3.600706e-02 3.600706e-02 0.9994 -2.3141 17.1157)" class="st30" width="494.8" height="33.9"/>
	<rect x="307.5" y="117.3" class="st30" width="145.8" height="31.2"/>
	<rect x="499.8" y="117.3" class="st30" width="145.8" height="31.2"/>
	<rect x="307.5" y="391.4" class="st30" width="145.8" height="31.2"/>
	<rect x="499.8" y="391.4" class="st30" width="145.8" height="31.2"/>
</g>
</svg>
