<!DOCTYPE svg PUBLIC "-//W3C//DTD SVG 1.1//EN" "http://www.w3.org/Graphics/SVG/1.1/DTD/svg11.dtd">
<!-- Uploaded to: SVG Repo, www.svgrepo.com, Transformed by: SVG Repo Mixer Tools -->
<svg height="800px" width="800px" version="1.1" id="Layer_1" xmlns="http://www.w3.org/2000/svg" xmlns:xlink="http://www.w3.org/1999/xlink" viewBox="0 0 512 512" xml:space="preserve" fill="#000000">
<g id="SVGRepo_bgCarrier" stroke-width="0"/>
<g id="SVGRepo_tracerCarrier" stroke-linecap="round" stroke-linejoin="round"/>
<g id="SVGRepo_iconCarrier"> <g transform="translate(-1)"> <path style="fill:#A1D8F8;" d="M142.279,88.276V35.31h17.655V0H54.003v35.31h17.655v114.759l-49.364,42.805 c-7.477,6.63-2.781,18.988,7.212,18.988h42.152V476.69H54.003V512h405.998l0.071-35.31h-17.655V211.862h42.214 c9.869,0,14.504-12.209,7.124-18.759L288.684,12.959c-17.752-17.09-45.833-17.09-63.576,0L142.279,88.276z"/> <polygon style="fill:#055DA9;" points="327.658,291.31 274.692,291.31 327.358,194.207 259.165,194.207 195.244,327.3 239.382,327.3 195.244,459.034 "/> </g> </g>
</svg>