<?xml version="1.0" encoding="utf-8"?>
<!-- Generator: Adobe Illustrator 27.5.0, SVG Export Plug-In . SVG Version: 6.00 Build 0)  -->
<svg version="1.1" xmlns="http://www.w3.org/2000/svg" xmlns:xlink="http://www.w3.org/1999/xlink" x="0px" y="0px"
	 viewBox="0 0 3710 3710" style="enable-background:new 0 0 3710 3710;" xml:space="preserve">
<g id="Background">
	<g>
		<g>
			<rect style="fill:#FFFFFF;" width="3710" height="3710"/>
		</g>
	</g>
</g>
<g id="Illustration">
	<g>
		<linearGradient id="SVGID_1_" gradientUnits="userSpaceOnUse" x1="3617.7285" y1="4070.6284" x2="1126.4221" y2="976.5821">
			<stop  offset="0" style="stop-color:#DAE3FE"/>
			<stop  offset="1" style="stop-color:#E9EFFD"/>
		</linearGradient>
		<path style="fill:url(#SVGID_1_);" d="M2932.354,2850.448c-57.224,60.243-111.369,99.094-154.148,129.788
			c-502.859,360.807-1097.874,255.633-1224.332,229.949c-186.738-37.928-547.699-111.241-808.667-418.134
			c-394.823-464.304-333.343-1195.801-27.092-1678.673c56.018-88.326,351.923-578.552,953.347-657.169
			c363.975-47.578,788.254,48.381,1095.505,305.796C3411.913,1302.343,3366,2393.92,2932.354,2850.448z"/>
		<g>
			<g>
				<path style="fill:#91B3FA;" d="M3012.287,2477.592c16.261-146.461-43.347-311.468-75.927-464.355
					c-17.224-80.835-26.921-161.352-17.135-243.878c9.729-82.052,44.502-171.766,5.924-251.579
					c-77.733-160.793-243.944-79.537-335.923,47.544c-106.737,147.47-128.116,382.314-163.622,563.914
					c-21.405,109.478-55.739,222.265-64.892,333.318c-15.164,183.969,31.323,309.407,122.336,391.729
					c87.295,78.959,215.904,90.901,316.362,29.557C2890.159,2828.426,2986.054,2713.865,3012.287,2477.592z"/>
				<path style="fill:#7D97F4;" d="M2650.391,3166.655c-1.135-0.518-2.018-1.549-2.294-2.863
					c-15.897-75.759-48.763-283.768-59.356-528.769c-7.776-179.842-3.019-353.695,14.141-516.73
					c21.458-203.867,62.48-391.307,121.927-557.115c0.757-2.112,3.083-3.211,5.195-2.453c2.131,0.744,3.212,3.083,2.454,5.195
					c-59.219,165.172-100.092,351.945-121.484,555.13c-17.121,162.615-21.872,336.042-14.121,515.464
					c10.561,244.498,43.34,452.032,59.198,527.61c0.461,2.196-0.945,4.35-3.143,4.81
					C2652.028,3167.118,2651.153,3167.002,2650.391,3166.655z"/>
			</g>
		</g>
		<g>
			<path style="fill:#91B3FA;" d="M1064.121,1187.109c-87.8-157.145-286.366-213.359-443.511-125.559
				c-157.145,87.8-213.359,286.366-125.56,443.511c0.006,0.01,0.011,0.02,0.017,0.03c48.817,87.351,57.747,191.456,24.608,285.877
				c-38.091,108.533-31.231,232.251,29.288,340.568c0.006,0.01,0.011,0.021,0.017,0.031
				c59.078,105.715,65.544,232.912,17.68,344.154c-55.983,130.111-53.025,283.866,21.404,417.079
				c127.159,227.588,414.739,309.002,642.328,181.843c227.588-127.158,309.004-414.738,181.844-642.327
				c-6.799-12.17-14.058-23.92-21.742-35.243c-75.254-110.886-101.449-247.887-72.475-378.728
				c21.26-96.005,8.74-199.866-43.001-292.472c-22.733-40.687-51.287-76.067-84.038-105.683
				c-65.752-59.458-98.442-147.214-87.781-235.219C1111.208,1318.858,1099.092,1249.7,1064.121,1187.109z"/>
			<path style="fill:#7D97F4;" d="M800.925,1343.708c0,0,2.016,6.18,5.516,17.923c3.64,11.704,8.513,28.957,14.812,50.898
				c2.99,11.011,6.305,23.201,9.912,36.473c1.79,6.64,3.653,13.55,5.586,20.718c1.827,7.195,3.719,14.649,5.675,22.35
				c3.869,15.412,8.162,31.771,12.368,49.092c4.098,17.348,8.407,35.587,12.906,54.62c4.648,19,8.835,38.937,13.343,59.533
				c4.402,20.619,9.315,41.861,13.705,63.834c4.363,21.98,8.845,44.559,13.423,67.637c2.218,11.553,4.767,23.175,6.779,35.011
				c2.105,11.82,4.23,23.753,6.375,35.786c4.273,24.069,8.622,48.539,13.022,73.31c3.895,24.855,7.837,50.013,11.812,75.371
				c8.42,50.651,14.762,102.424,21.969,154.08c1.674,12.93,3.706,25.818,5.089,38.771c1.455,12.945,2.911,25.877,4.363,38.783
				c2.904,25.815,5.795,51.53,8.666,77.041c0.716,6.378,1.432,12.744,2.148,19.095c0.653,6.358,1.137,12.717,1.714,19.051
				c1.111,12.674,2.211,25.284,3.308,37.818c2.191,25.07,4.359,49.836,6.488,74.195c2.413,24.341,3.517,48.366,5.026,71.855
				c1.432,23.494,2.838,46.479,4.2,68.855c3.259,44.729,3.998,87.126,5.42,126.232c0.646,19.556,1.266,38.298,1.857,56.123
				c0.292,8.913,0.58,17.596,0.859,26.038c0.278,8.442,0.126,16.648,0.209,24.597c0.109,31.799,0.206,59.52,0.285,82.35
				c0.156,45.664,0.242,71.758,0.242,71.758c0.017,4.451-3.58,8.072-8.032,8.087c-4.449,0.015-8.072-3.581-8.086-8.032v-0.061
				v-0.247c0,0,0.109-26.02,0.302-71.554c0.099-22.77,0.215-50.418,0.351-82.133c-0.023-7.928,0.192-16.115-0.023-24.536
				c-0.212-8.421-0.431-17.085-0.66-25.977c-0.451-17.784-0.925-36.484-1.422-55.996c-1.117-39.02-1.528-81.329-4.439-125.978
				c-1.19-22.337-2.417-45.282-3.667-68.736c-1.323-23.449-2.244-47.438-4.465-71.744c-1.939-24.327-3.912-49.06-5.908-74.096
				c-0.998-12.52-2.002-25.115-3.01-37.773c-0.527-6.327-0.965-12.679-1.568-19.03c-0.663-6.344-1.329-12.703-1.996-19.075
				c-2.672-25.488-5.36-51.178-8.062-76.969c-1.349-12.896-2.702-25.818-4.058-38.753c-1.283-12.943-3.209-25.822-4.784-38.744
				c-6.786-51.624-12.693-103.382-20.988-153.975c-3.872-25.337-7.714-50.473-11.51-75.308c-4.296-24.752-8.543-49.203-12.72-73.254
				c-2.095-12.025-4.17-23.949-6.229-35.761c-1.966-11.829-4.465-23.442-6.637-34.987c-4.485-23.064-8.871-45.628-13.144-67.594
				c-4.3-21.96-9.123-43.188-13.443-63.795c-4.422-20.585-8.53-40.512-13.095-59.499c-4.419-19.022-8.652-37.252-12.68-54.59
				c-4.134-17.311-8.354-33.658-12.16-49.061c-1.923-7.696-3.786-15.146-5.583-22.337c-1.9-7.162-3.733-14.067-5.496-20.701
				c-3.547-13.262-6.809-25.442-9.753-36.444c-6.199-21.912-10.999-39.159-14.57-50.797c-3.434-11.68-5.433-17.895-5.433-17.895
				c-0.524-1.624,0.368-3.364,1.992-3.887c1.621-0.523,3.362,0.37,3.885,1.993L800.925,1343.708z"/>
			<path style="fill:#7D97F4;" d="M869.597,1646.01c-0.338,0-0.68-0.02-1.024-0.065c-98.653-12.529-245.127-160.839-251.316-167.148
				c-3.116-3.177-3.067-8.279,0.109-11.397c3.176-3.118,8.278-3.071,11.401,0.109c1.475,1.503,148.724,150.619,241.835,162.444
				c4.416,0.56,7.542,4.595,6.982,9.012C877.065,1643.036,873.595,1646.01,869.597,1646.01z"/>
			<path style="fill:#7D97F4;" d="M875.172,1642.887c-1.866,0-3.743-0.646-5.268-1.963c-3.368-2.911-3.736-8.001-0.829-11.369
				c0.922-1.066,92.431-107.853,120.719-216.442c1.121-4.308,5.516-6.892,9.833-5.768c4.306,1.122,6.889,5.525,5.768,9.833
				c-29.252,112.283-120.261,218.455-124.123,222.919C879.681,1641.942,877.433,1642.887,875.172,1642.887z"/>
			<path style="fill:#7D97F4;" d="M954.652,2130.384c-0.769,0-1.552-0.111-2.327-0.345
				c-152.938-46.062-275.082-202.368-280.207-208.998c-2.722-3.522-2.072-8.583,1.449-11.306c3.521-2.722,8.579-2.074,11.308,1.447
				c1.223,1.583,124.176,158.87,272.098,203.422c4.263,1.283,6.677,5.78,5.394,10.041
				C961.315,2128.133,958.116,2130.384,954.652,2130.384z"/>
			<path style="fill:#7D97F4;" d="M958.782,2131.846c-2.761,0-5.453-1.422-6.955-3.975c-2.258-3.837-0.975-8.778,2.861-11.034
				c1.638-0.975,125.718-76.353,183.725-266.66c1.3-4.258,5.815-6.658,10.061-5.36c4.257,1.299,6.657,5.803,5.361,10.061
				c-60.039,196.972-185.654,272.725-190.972,275.853C961.58,2131.486,960.171,2131.846,958.782,2131.846z"/>
			<path style="fill:#7D97F4;" d="M1015.052,2732.084c-2.824,0-5.566-1.488-7.044-4.129c-2.171-3.884-0.782-8.795,3.1-10.968
				c1.495-0.837,150.1-85.531,214.515-250.788c1.615-4.144,6.285-6.199,10.436-4.583c4.147,1.618,6.199,6.29,4.581,10.438
				c-66.573,170.804-220.125,258.142-221.666,259.004C1017.731,2731.753,1016.382,2732.084,1015.052,2732.084z"/>
			<path style="fill:#7D97F4;" d="M1009.228,2733.19c-0.557,0-1.124-0.058-1.691-0.181c-6.06-1.294-149.822-33.643-269.184-201.01
				c-2.583-3.625-1.74-8.659,1.883-11.243c3.623-2.586,8.656-1.742,11.245,1.881c115.756,162.318,258.003,194.303,259.425,194.608
				c4.353,0.93,7.128,5.213,6.199,9.566C1016.295,2730.597,1012.951,2733.19,1009.228,2733.19z"/>
		</g>
		<g>
			<g>
				
					<linearGradient id="SVGID_00000132073652256990000400000015058242294647362697_" gradientUnits="userSpaceOnUse" x1="2476.9182" y1="-1031.0677" x2="778.72" y2="1891.4082">
					<stop  offset="0" style="stop-color:#4F52FF"/>
					<stop  offset="1" style="stop-color:#4042E2"/>
				</linearGradient>
				<path style="fill:url(#SVGID_00000132073652256990000400000015058242294647362697_);" d="M1704.167,539.942l-89.56-42.975
					c-8.09-3.882-18.531-1.557-23.202,5.167l-123.318,177.52l-33.243,215.363l-107.089-13.353l-78.424,112.893l22.572,125.14
					l-126.885,25.021l-550.186,792.005c-4.671,6.724-1.873,15.401,6.216,19.283l89.56,42.974c8.091,3.882,18.531,1.557,23.202-5.167
					l996.573-1434.588C1715.055,552.502,1712.257,543.824,1704.167,539.942z"/>
				
					<linearGradient id="SVGID_00000142135021181699656840000000930031101750143635_" gradientUnits="userSpaceOnUse" x1="4153.1504" y1="169.3344" x2="3313.9333" y2="926.1736">
					<stop  offset="0" style="stop-color:#09005D"/>
					<stop  offset="1" style="stop-color:#1A0F91"/>
				</linearGradient>
				<path style="fill:url(#SVGID_00000142135021181699656840000000930031101750143635_);" d="M2446.311,3143.307H843.461
					c-6.6,0-12-5.4-12-12v-1399.84c0-6.6,5.4-12,12-12h1602.851c6.6,0,12,5.4,12,12v1399.84
					C2458.311,3137.907,2452.911,3143.307,2446.311,3143.307z"/>
				
					<linearGradient id="SVGID_00000116237751512089522720000016104881140003988922_" gradientUnits="userSpaceOnUse" x1="3025.9456" y1="-3.6955" x2="2369.116" y2="887.353">
					<stop  offset="0" style="stop-color:#09005D"/>
					<stop  offset="1" style="stop-color:#1A0F91"/>
				</linearGradient>
				<polygon style="fill:url(#SVGID_00000116237751512089522720000016104881140003988922_);" points="714.321,1888.551 
					1673.114,566.465 2541.396,1918.716 				"/>
				<g style="opacity:0.66;">
					
						<linearGradient id="SVGID_00000014612718828423268390000011259240210921463980_" gradientUnits="userSpaceOnUse" x1="2055.0437" y1="1680.6813" x2="2112.9729" y2="3296.9312">
						<stop  offset="0" style="stop-color:#4F52FF"/>
						<stop  offset="1" style="stop-color:#4042E2"/>
					</linearGradient>
					<path style="opacity:0.49;fill:url(#SVGID_00000014612718828423268390000011259240210921463980_);" d="M2222.884,3020.466
						H1980.3c-6.11,0-11.11-5-11.11-11.11v-59.907c0-6.111,5-11.11,11.11-11.11h242.584c6.111,0,11.11,5,11.11,11.11v59.907
						C2233.994,3015.466,2228.995,3020.466,2222.884,3020.466z"/>
					
						<linearGradient id="SVGID_00000183208502549134464170000014912698901264023685_" gradientUnits="userSpaceOnUse" x1="2183.5989" y1="1675.0884" x2="2241.5281" y2="3291.3401">
						<stop  offset="0" style="stop-color:#4F52FF"/>
						<stop  offset="1" style="stop-color:#4042E2"/>
					</linearGradient>
					<path style="opacity:0.49;fill:url(#SVGID_00000183208502549134464170000014912698901264023685_);" d="M2355.286,3122.205
						h-242.583c-6.111,0-11.11-5-11.11-11.11v-59.907c0-6.111,5-11.11,11.11-11.11h242.583c6.111,0,11.11,5,11.11,11.11v59.907
						C2366.396,3117.206,2361.396,3122.205,2355.286,3122.205z"/>
					
						<linearGradient id="SVGID_00000137132754647110529110000005979186510163705005_" gradientUnits="userSpaceOnUse" x1="2254.9082" y1="1674.3671" x2="2312.8374" y2="3290.6169">
						<stop  offset="0" style="stop-color:#4F52FF"/>
						<stop  offset="1" style="stop-color:#4042E2"/>
					</linearGradient>
					<path style="opacity:0.49;fill:url(#SVGID_00000137132754647110529110000005979186510163705005_);" d="M2419.462,2922.461
						h-242.583c-6.111,0-11.11-5-11.11-11.11v-59.907c0-6.111,5-11.11,11.11-11.11h242.583c6.111,0,11.11,5,11.11,11.11v59.907
						C2430.572,2917.461,2425.573,2922.461,2419.462,2922.461z"/>
					
						<linearGradient id="SVGID_00000067237824727466156010000006673047276323356053_" gradientUnits="userSpaceOnUse" x1="2126.262" y1="1679.9388" x2="2184.1914" y2="3296.1904">
						<stop  offset="0" style="stop-color:#4F52FF"/>
						<stop  offset="1" style="stop-color:#4042E2"/>
					</linearGradient>
					<path style="opacity:0.49;fill:url(#SVGID_00000067237824727466156010000006673047276323356053_);" d="M2287.06,2823.243
						h-242.584c-6.11,0-11.11-5-11.11-11.11v-59.907c0-6.111,5-11.11,11.11-11.11h242.584c6.111,0,11.11,5,11.11,11.11v59.907
						C2298.17,2818.243,2293.171,2823.243,2287.06,2823.243z"/>
					
						<linearGradient id="SVGID_00000091015449591796315350000003392463007426743173_" gradientUnits="userSpaceOnUse" x1="2201.9512" y1="1679.1385" x2="2259.8804" y2="3295.3901">
						<stop  offset="0" style="stop-color:#4F52FF"/>
						<stop  offset="1" style="stop-color:#4042E2"/>
					</linearGradient>
					<path style="opacity:0.49;fill:url(#SVGID_00000091015449591796315350000003392463007426743173_);" d="M2355.286,2614.219
						h-242.583c-6.111,0-11.11-5-11.11-11.11v-59.908c0-6.11,5-11.11,11.11-11.11h242.583c6.111,0,11.11,5,11.11,11.11v59.908
						C2366.396,2609.219,2361.396,2614.219,2355.286,2614.219z"/>
					
						<linearGradient id="SVGID_00000117658745070758085090000006121200618849198747_" gradientUnits="userSpaceOnUse" x1="2248.573" y1="1679.2942" x2="2306.5022" y2="3295.5439">
						<stop  offset="0" style="stop-color:#4F52FF"/>
						<stop  offset="1" style="stop-color:#4042E2"/>
					</linearGradient>
					<path style="opacity:0.49;fill:url(#SVGID_00000117658745070758085090000006121200618849198747_);" d="M2394.786,2415.682
						h-242.583c-6.111,0-11.11-5-11.11-11.11v-59.907c0-6.111,5-11.11,11.11-11.11h242.583c6.111,0,11.11,5,11.11,11.11v59.907
						C2405.896,2410.682,2400.897,2415.682,2394.786,2415.682z"/>
					
						<linearGradient id="SVGID_00000141435614696115327880000009077209981068806586_" gradientUnits="userSpaceOnUse" x1="2214.0176" y1="1682.1392" x2="2271.958" y2="3298.7024">
						<stop  offset="0" style="stop-color:#4F52FF"/>
						<stop  offset="1" style="stop-color:#4042E2"/>
					</linearGradient>
					<path style="opacity:0.49;fill:url(#SVGID_00000141435614696115327880000009077209981068806586_);" d="M2327.796,2233.088
						h-191.007c-6.11,0-11.11-5-11.11-11.11v-59.907c0-6.111,5-11.11,11.11-11.11h191.007c6.111,0,11.11,5,11.11,11.11v59.907
						C2338.906,2228.088,2333.907,2233.088,2327.796,2233.088z"/>
					
						<linearGradient id="SVGID_00000078031816988511061280000011771015989168581764_" gradientUnits="userSpaceOnUse" x1="2311.2139" y1="1679.6709" x2="2369.1431" y2="3295.9224">
						<stop  offset="0" style="stop-color:#4F52FF"/>
						<stop  offset="1" style="stop-color:#4042E2"/>
					</linearGradient>
					<path style="opacity:0.49;fill:url(#SVGID_00000078031816988511061280000011771015989168581764_);" d="M2447.201,2130.743
						h-242.583c-6.111,0-11.11-5-11.11-11.11v-59.907c0-6.111,5-11.11,11.11-11.11h242.583c6.111,0,11.11,5,11.11,11.11v59.907
						C2458.311,2125.744,2453.312,2130.743,2447.201,2130.743z"/>
					
						<linearGradient id="SVGID_00000169552071112944225820000017234456411715772842_" gradientUnits="userSpaceOnUse" x1="2316.4673" y1="1683.2538" x2="2373.8643" y2="3284.658">
						<stop  offset="0" style="stop-color:#4F52FF"/>
						<stop  offset="1" style="stop-color:#4042E2"/>
					</linearGradient>
					<path style="opacity:0.49;fill:url(#SVGID_00000169552071112944225820000017234456411715772842_);" d="M2458.311,2938.061
						h-161.479c-16.611,0-30.202,11.295-30.202,25.101v31.926c0,13.805,13.591,25.101,30.202,25.101h161.479V2938.061z"/>
					
						<linearGradient id="SVGID_00000119821694285062067380000007651585624174466480_" gradientUnits="userSpaceOnUse" x1="2302.9023" y1="1683.7356" x2="2360.2996" y2="3285.1406">
						<stop  offset="0" style="stop-color:#4F52FF"/>
						<stop  offset="1" style="stop-color:#4042E2"/>
					</linearGradient>
					<path style="opacity:0.49;fill:url(#SVGID_00000119821694285062067380000007651585624174466480_);" d="M2458.311,2643.641
						c-1.745-0.263-3.532-0.423-5.364-0.423h-204.4c-16.612,0-30.202,11.296-30.202,25.101v31.926
						c0,13.806,13.591,25.101,30.202,25.101h204.4c1.832,0,3.619-0.159,5.364-0.423V2643.641z"/>
					
						<linearGradient id="SVGID_00000096747511314276443140000005150788761425590203_" gradientUnits="userSpaceOnUse" x1="2310.3386" y1="1683.4722" x2="2367.7358" y2="3284.8779">
						<stop  offset="0" style="stop-color:#4F52FF"/>
						<stop  offset="1" style="stop-color:#4042E2"/>
					</linearGradient>
					<path style="opacity:0.49;fill:url(#SVGID_00000096747511314276443140000005150788761425590203_);" d="M2458.311,2435.902
						c-1.745-0.263-3.532-0.423-5.364-0.423h-204.4c-16.612,0-30.202,11.295-30.202,25.101v31.925
						c0,13.805,13.591,25.101,30.202,25.101h204.4c1.832,0,3.619-0.16,5.364-0.423V2435.902z"/>
					
						<linearGradient id="SVGID_00000035495299030738240290000008296347651518005403_" gradientUnits="userSpaceOnUse" x1="2341.5354" y1="1682.3531" x2="2398.9324" y2="3283.7593">
						<stop  offset="0" style="stop-color:#4F52FF"/>
						<stop  offset="1" style="stop-color:#4042E2"/>
					</linearGradient>
					<path style="opacity:0.49;fill:url(#SVGID_00000035495299030738240290000008296347651518005403_);" d="M2458.311,2237.751
						h-161.479c-16.611,0-30.202,11.296-30.202,25.101v31.925c0,13.806,13.591,25.101,30.202,25.101h161.479V2237.751z"/>
					
						<linearGradient id="SVGID_00000082337205195360953610000004746377033375487407_" gradientUnits="userSpaceOnUse" x1="2388.1621" y1="1680.6819" x2="2445.5593" y2="3282.0903">
						<stop  offset="0" style="stop-color:#4F52FF"/>
						<stop  offset="1" style="stop-color:#4042E2"/>
					</linearGradient>
					<path style="opacity:0.49;fill:url(#SVGID_00000082337205195360953610000004746377033375487407_);" d="M2458.529,2146.777
						h-75.063c-16.611,0-30.202,11.295-30.202,25.101v31.925c0,13.806,13.59,25.101,30.202,25.101h75.063V2146.777z"/>
					
						<linearGradient id="SVGID_00000168115553705982423820000016577483006137484168_" gradientUnits="userSpaceOnUse" x1="2333.7886" y1="1682.6307" x2="2391.1858" y2="3284.0383">
						<stop  offset="0" style="stop-color:#4F52FF"/>
						<stop  offset="1" style="stop-color:#4042E2"/>
					</linearGradient>
					<path style="opacity:0.49;fill:url(#SVGID_00000168115553705982423820000016577483006137484168_);" d="M2456.012,1973.102
						h-191.816c-16.611,0-30.202,8.837-30.202,19.637v24.976c0,10.801,13.591,19.637,30.202,19.637h191.816V1973.102z"/>
				</g>
				<g>
					<ellipse style="fill:#FFFFFF;" cx="1656.732" cy="1203.158" rx="116.911" ry="117.068"/>
					<g>
						
							<linearGradient id="SVGID_00000026853622471824907670000000647220393395769252_" gradientUnits="userSpaceOnUse" x1="2050.3921" y1="850.575" x2="1543.9376" y2="1304.1824">
							<stop  offset="0" style="stop-color:#E1473D"/>
							<stop  offset="1" style="stop-color:#E9605A"/>
						</linearGradient>
						
							<ellipse style="fill:url(#SVGID_00000026853622471824907670000000647220393395769252_);" cx="1656.732" cy="1203.158" rx="90.287" ry="90.407"/>
						<path style="fill:#FFFFFF;" d="M1656.732,1300.513c-25.97,0-50.384-10.127-68.749-28.516
							c-18.363-18.386-28.476-42.834-28.476-68.839s10.113-50.453,28.477-68.839c18.363-18.389,42.778-28.516,68.748-28.516
							c25.97,0,50.384,10.127,68.749,28.516c18.363,18.386,28.475,42.834,28.475,68.839s-10.113,50.453-28.477,68.839h0.001h-0.001
							C1707.116,1290.386,1682.702,1300.513,1656.732,1300.513z M1656.732,1119.697c-22.262,0-43.193,8.682-58.935,24.445
							c-15.743,15.763-24.413,36.723-24.413,59.015s8.67,43.252,24.411,59.015c15.743,15.763,36.674,24.445,58.936,24.445
							c22.262,0,43.193-8.682,58.935-24.445h0.001c15.742-15.763,24.411-36.723,24.411-59.015s-8.67-43.252-24.411-59.015
							C1699.925,1128.379,1678.994,1119.697,1656.732,1119.697z"/>
					</g>
				</g>
				<g>
					
						<linearGradient id="SVGID_00000173124903109328638040000000718760118672742286_" gradientUnits="userSpaceOnUse" x1="1745.0287" y1="2712.0093" x2="916.2047" y2="3908.2515">
						<stop  offset="0" style="stop-color:#4F52FF"/>
						<stop  offset="1" style="stop-color:#4042E2"/>
					</linearGradient>
					<path style="fill:url(#SVGID_00000173124903109328638040000000718760118672742286_);" d="M1865.44,3142.825h-408.47v-601.497
						c0-32.087,26.011-58.098,58.098-58.098h297.956c28.949,0,52.417,23.468,52.417,52.417V3142.825z"/>
					<ellipse style="fill:#7D97F4;" cx="1517.009" cy="2840.879" rx="20.433" ry="19.407"/>
				</g>
				<g>
					<g>
						<g>
							
								<linearGradient id="SVGID_00000157987466795282950090000011074376089687962297_" gradientUnits="userSpaceOnUse" x1="2286.5061" y1="1880.338" x2="1460.0542" y2="2680.0071">
								<stop  offset="0" style="stop-color:#E1473D"/>
								<stop  offset="1" style="stop-color:#E9605A"/>
							</linearGradient>
							
								<rect x="1749.32" y="2086.457" style="fill:url(#SVGID_00000157987466795282950090000011074376089687962297_);" width="330.086" height="307.93"/>
							<path style="fill:#FFFFFF;" d="M2087.764,2401.335h-346.804v-321.826h346.804V2401.335z M1757.679,2387.44h313.366v-294.036
								h-313.366V2387.44z"/>
						</g>
						<g>
							<polygon style="fill:#FFFFFF;" points="1927.189,2398.053 1910.471,2397.949 1913.305,2089.627 1930.023,2089.731 							"/>
							<polygon style="fill:#FFFFFF;" points="2074.038,2225.268 1753.098,2223.177 1753.229,2209.281 2074.168,2211.373 							"/>
							<path style="fill:#FFFFFF;" d="M2091.425,2409.726H1737.3c-2.283,0-4.15-1.868-4.15-4.15v-22.379
								c0-2.283,1.868-4.15,4.15-4.15h354.124c2.282,0,4.15,1.868,4.15,4.15v22.379
								C2095.575,2407.858,2093.707,2409.726,2091.425,2409.726z"/>
						</g>
					</g>
					<g>
						<g>
							
								<linearGradient id="SVGID_00000147901609700284726450000015469964568677672865_" gradientUnits="userSpaceOnUse" x1="2076.2371" y1="1663.0265" x2="1249.7853" y2="2462.6953">
								<stop  offset="0" style="stop-color:#E1473D"/>
								<stop  offset="1" style="stop-color:#E9605A"/>
							</linearGradient>
							
								<rect x="1759.121" y="1656.207" style="fill:url(#SVGID_00000147901609700284726450000015469964568677672865_);" width="330.086" height="307.93"/>
							<path style="fill:#FFFFFF;" d="M2097.566,1971.083h-346.805V1649.26h346.805V1971.083z M1767.48,1957.188h313.368v-294.033
								H1767.48V1957.188z"/>
						</g>
						<g>
							<polygon style="fill:#FFFFFF;" points="1936.991,1967.804 1920.272,1967.7 1923.106,1659.378 1939.825,1659.482 							"/>
							<polygon style="fill:#FFFFFF;" points="2083.838,1795.02 1762.898,1792.925 1763.029,1779.03 2083.968,1781.125 							"/>
							<path style="fill:#FFFFFF;" d="M2086.919,1979.476h-325.511c-10.151,0-18.457-6.903-18.457-15.34l0,0
								c0-8.437,8.306-15.34,18.457-15.34h325.511c10.151,0,18.457,6.903,18.457,15.34l0,0
								C2105.376,1972.573,2097.07,1979.476,2086.919,1979.476z"/>
						</g>
					</g>
					<g>
						<g>
							
								<linearGradient id="SVGID_00000047047984857818329340000017685062794075436169_" gradientUnits="userSpaceOnUse" x1="2022.8055" y1="1607.804" x2="1196.3538" y2="2407.4729">
								<stop  offset="0" style="stop-color:#E1473D"/>
								<stop  offset="1" style="stop-color:#E9605A"/>
							</linearGradient>
							
								<rect x="1208.534" y="2082.028" style="fill:url(#SVGID_00000047047984857818329340000017685062794075436169_);" width="330.086" height="307.93"/>
							<path style="fill:#FFFFFF;" d="M1546.98,2396.904h-346.805v-321.823h346.805V2396.904z M1216.894,2383.009h313.368v-294.033
								h-313.368V2383.009z"/>
						</g>
						<g>
							<polygon style="fill:#FFFFFF;" points="1386.404,2393.625 1369.685,2393.521 1372.52,2085.199 1389.239,2085.303 							"/>
							<polygon style="fill:#FFFFFF;" points="1533.252,2220.84 1212.313,2218.746 1212.443,2204.851 1533.382,2206.945 							"/>
							<path style="fill:#FFFFFF;" d="M1536.333,2405.297h-325.511c-10.151,0-18.457-6.903-18.457-15.34l0,0
								c0-8.437,8.306-15.34,18.457-15.34h325.511c10.151,0,18.457,6.903,18.457,15.34l0,0
								C1554.79,2398.394,1546.484,2405.297,1536.333,2405.297z"/>
						</g>
					</g>
					<g>
						<g>
							
								<linearGradient id="SVGID_00000020396322895269043900000011901955153102525370_" gradientUnits="userSpaceOnUse" x1="1812.5355" y1="1390.4932" x2="986.0836" y2="2190.1624">
								<stop  offset="0" style="stop-color:#E1473D"/>
								<stop  offset="1" style="stop-color:#E9605A"/>
							</linearGradient>
							
								<rect x="1218.335" y="1651.778" style="fill:url(#SVGID_00000020396322895269043900000011901955153102525370_);" width="330.086" height="307.93"/>
							<path style="fill:#FFFFFF;" d="M1556.78,1966.655h-346.804V1644.83h346.804V1966.655z M1226.695,1952.76h313.367v-294.036
								h-313.367V1952.76z"/>
						</g>
						<g>
							<polygon style="fill:#FFFFFF;" points="1396.205,1963.374 1379.486,1963.27 1382.32,1654.948 1399.039,1655.052 							"/>
							<polygon style="fill:#FFFFFF;" points="1543.053,1790.589 1222.114,1788.497 1222.245,1774.602 1543.184,1776.694 							"/>
							<path style="fill:#FFFFFF;" d="M1546.134,1975.047h-325.511c-10.151,0-18.457-6.903-18.457-15.34l0,0
								c0-8.437,8.306-15.34,18.457-15.34h325.511c10.151,0,18.457,6.903,18.457,15.34l0,0
								C1564.591,1968.144,1556.285,1975.047,1546.134,1975.047z"/>
						</g>
					</g>
				</g>
				<g>
					
						<linearGradient id="SVGID_00000121266864303062792820000000640261165017515420_" gradientUnits="userSpaceOnUse" x1="1587.8995" y1="1973.5103" x2="2433.1218" y2="-215.9216">
						<stop  offset="0" style="stop-color:#09005D"/>
						<stop  offset="1" style="stop-color:#1A0F91"/>
					</linearGradient>
					<path style="fill:url(#SVGID_00000121266864303062792820000000640261165017515420_);" d="M1673.114,566.465l-946.35,1304.554
						c-5.466,7.701,1.289,17.41,12.047,17.315l69.843-0.618c43.167-0.382,82.93-19.553,104.757-50.507l719.744-1020.675
						c5.294-7.507,18.32-7.583,23.74-0.138l796.592,1094.32c2.916,4.005,8.465,6.139,14.025,5.391l0,0
						c51.149-6.872,79.204-53.341,55.26-91.529l-815.469-1300.59C1702.291,515.996,1678.624,558.702,1673.114,566.465z"/>
					
						<linearGradient id="SVGID_00000114761020752292201660000014758538442612854701_" gradientUnits="userSpaceOnUse" x1="2425.3792" y1="734.8622" x2="1037.936" y2="3122.5513">
						<stop  offset="0" style="stop-color:#4F52FF"/>
						<stop  offset="1" style="stop-color:#4042E2"/>
					</linearGradient>
					<path style="fill:url(#SVGID_00000114761020752292201660000014758538442612854701_);" d="M2691.74,1939.318L1738.052,566.465
						l0,0l-0.004-0.005l-42.249-60.819c-1.262-1.816-2.935-3.314-4.859-4.478l-35.576-49.314
						c-7.237-10.031-24.82-9.801-31.673,0.415l-66.419,99.006l17.516,1.472c-0.746,3.317-0.145,6.857,2.031,9.991l995.94,1433.677
						c4.846,6.975,15.675,9.386,24.067,5.36l88.463-42.449C2693.682,1955.293,2696.584,1946.292,2691.74,1939.318z"/>
				</g>
				
					<linearGradient id="SVGID_00000098936071454328455600000013832943943244939136_" gradientUnits="userSpaceOnUse" x1="1079.6162" y1="1452.2987" x2="1144.6615" y2="2638.4116">
					<stop  offset="0" style="stop-color:#4F52FF"/>
					<stop  offset="1" style="stop-color:#4042E2"/>
				</linearGradient>
				<path style="opacity:0.66;fill:url(#SVGID_00000098936071454328455600000013832943943244939136_);" d="M1031.873,3070.161
					c0.198,6.737,145.728-137.707,145.728-137.707l-154.858-190.496l170.712-198.215l-187.703-210.77l250.871,227.366
					l-154.272,175.86c0,0,201.146,235.555,197.052,236.708C1295.308,2974.061,1031.873,3070.161,1031.873,3070.161z"/>
				
					<linearGradient id="SVGID_00000071552437071484384370000001914739791262247845_" gradientUnits="userSpaceOnUse" x1="950.6124" y1="1610.9589" x2="1595.2313" y2="1694.6047" gradientTransform="matrix(0.8845 0.4666 -0.4666 0.8845 1399.2867 -523.57)">
					<stop  offset="0" style="stop-color:#4F52FF"/>
					<stop  offset="1" style="stop-color:#4042E2"/>
				</linearGradient>
				<path style="opacity:0.66;fill:url(#SVGID_00000071552437071484384370000001914739791262247845_);" d="M1936.624,1337.158
					c-15.676-9.245-289.197,11.32-289.197,11.32l28.545,191.214c0,0-327.524,36.482-325.136,31.956
					c2.387-4.526,397.984,30.195,397.984,30.195l-47.686-205.51L1936.624,1337.158z"/>
			</g>
			<g>
				
					<linearGradient id="SVGID_00000082353407498776921050000001949570297071600520_" gradientUnits="userSpaceOnUse" x1="2260.6755" y1="1512.2217" x2="3340.115" y2="376.7717">
					<stop  offset="0" style="stop-color:#FF928E"/>
					<stop  offset="1" style="stop-color:#FE7062"/>
				</linearGradient>
				<path style="fill:url(#SVGID_00000082353407498776921050000001949570297071600520_);" d="M2397.222,1859.913
					c-19.364,11.207-38.986,20.737-58.546,27.61c-180.197,63.318-458.198,53.655-509.665-172.59
					c-6.38-28.05-8.112-57.858,0.592-85.276c25.606-80.664,139.507-80.169,182.155-150.199
					c40.798-66.993,9.739-149.746,18.265-222.594c9.646-82.423,89.853-133.925,158.743-168.344
					c80.364-40.152,165.208-72.697,238.797-124.225c73.589-51.528,136.624-126.811,147.699-215.962
					c35.348,59.965,24.698,136.702-0.005,201.779c-24.572,64.735-65.259,126.443-76.486,195.202
					c-5.962,36.514-24.525,70.848-51.812,95.832c-19.811,18.139-44.562,32.127-57.7,55.555
					c-18.822,33.564-15.088,102.341-1.94,137.801c18.413,49.661,70.368,78.967,115.957,42.905
					c20.118-15.914,33.732-38.377,48.849-59.1c65.361-89.603,166.67-152.183,276.052-170.524
					c-97.18,16.197-104.501,167.141-122.972,240.041c-6.907,27.262-13.84,54.604-24.016,80.822
					c-29.041,74.819-82.984,135.918-143.743,186.964C2496.225,1790.241,2447.599,1830.755,2397.222,1859.913z"/>
				
					<linearGradient id="SVGID_00000052081223210007474510000011141793471866447276_" gradientUnits="userSpaceOnUse" x1="1707.472" y1="1798.2744" x2="2476.6099" y2="1367.7869">
					<stop  offset="0" style="stop-color:#E1473D"/>
					<stop  offset="1" style="stop-color:#E9605A"/>
				</linearGradient>
				<path style="fill:url(#SVGID_00000052081223210007474510000011141793471866447276_);" d="M1955.397,1608.908
					c27.112-36.464,60.765-71.352,85.469-102.654c31.094-39.398,57.833-85.199,69.204-134.498
					c7.232-31.353,8.19-63.799,13.463-95.54s15.604-64.007,38.013-87.097c16.092-16.581,37.433-27.41,53.158-44.339
					c-17.031,23.583-26.214,52.735-25.771,81.822c0.116,7.621,1.374,16.18,7.48,20.737c7.432,5.546,90.271-66.466,105.116-76.005
					c-49.986,32.12-71.938,98.117-80.552,153.465c-10.927,70.203,22.865,140.626-4.884,209.463
					c-10.008,24.828-29.313,38.583-42.417,61.017c-17.234,29.503-24.075,69.138-26.617,102.722
					c25.991-37.969,73.456-55.44,119.117-61.127c45.66-5.688,92.165-1.908,137.703-8.506
					c91.456-13.252,175.49-70.628,221.132-150.981c-4.344,18.831-14.933,35.526-25.343,51.807
					c-18.793,29.39-37.585,58.779-56.378,88.169c-22.449,35.107-45.047,70.411-73.179,101.153
					c-96.606,105.571-286.27,174.243-427.205,132.769c-31.181-9.176-63.274-18.843-88.424-39.432
					c-39.018-31.942-54.669-89.523-37.189-136.822C1925.539,1652.715,1939.318,1630.534,1955.397,1608.908z"/>
			</g>
			<g>
				
					<linearGradient id="SVGID_00000044151839137930940120000009772010795631890567_" gradientUnits="userSpaceOnUse" x1="1304.9012" y1="2630.4119" x2="-25.7934" y2="-234.6617">
					<stop  offset="0" style="stop-color:#FF928E"/>
					<stop  offset="1" style="stop-color:#FE7062"/>
				</linearGradient>
				<path style="fill:url(#SVGID_00000044151839137930940120000009772010795631890567_);" d="M825.438,1645.234
					c-16.032-64.231-35.485-147.686-84.664-195.288c14.324,40.789,6.305,87.36-15.427,124.731
					c-27.14,46.671-71.372,64.851-109.082,101.588c-16.231,15.812-31.051,33.335-41.731,53.32
					c-27.39,51.255-24.83,114.329-6.263,169.399c18.566,55.069,51.631,103.893,84.309,151.95
					c-83.849-50.875-119.184-94.064-206.497-138.383c62.785,31.403,52.829,78.444,88.89,138.675
					c60.941,101.788,159.593,179.203,257.033,244.196c100.253,66.869,230.068,77.759,347.586,76.019
					c116.976-1.732,246.354-40.116,283.357-164.856c17.958-60.538,12.056-125.894-1.628-188.136
					c-10.054-45.732-24.326-90.963-46.522-132.766c-35.167-66.232-88.252-121.287-131.843-182.249
					c-36.696-51.319-94.932-121.222-101.215-184.273c-2.26-22.686,2.288-45.285,6.815-67.507
					c11.195-54.954,23.851-112.797,62.842-153.791c-105.778,47.437-183.982,146.619-203.493,258.078
					c-5.555,31.734-6.655,64.355-15.362,95.359c-8.707,31.004-26.658,61.381-56.415,75.586
					C871.044,1757.954,837.971,1695.444,825.438,1645.234z"/>
				
					<linearGradient id="SVGID_00000106107297473529720530000004032082202201296285_" gradientUnits="userSpaceOnUse" x1="734.5315" y1="1069.7734" x2="1352.3586" y2="3092.9817">
					<stop  offset="0" style="stop-color:#E1473D"/>
					<stop  offset="1" style="stop-color:#E9605A"/>
				</linearGradient>
				<path style="fill:url(#SVGID_00000106107297473529720530000004032082202201296285_);" d="M1224.658,2001.479
					c8.251,21.434,16.173,42.998,21.894,65.983c10.159-4.503,15.058-12.798,19.005-23.507c13.089-35.512,14.697-75.155,4.527-111.61
					c2.066,7.404,28.453,23.968,34.47,32.341c10.712,14.907,15.938,30.75,21.041,48.089c9.559,32.477,17.631,63.195,19.51,97.355
					c4.67,84.893,15.305,208.834-89.539,235.134c-104.679,26.259-231.394-9.088-321.434-65.654
					c-59.785-37.559-110.799-87.799-155.41-142.523c-23.042-28.264-24.71-57.531-38.195-89.635
					c-14.429-34.353-35.679-64.668-39.255-102.928c-6.281-67.221,29.597-131.769,71.962-182.272
					c-74.206,88.46,63.577,220.852,132.475,260.6c38.467,22.192,80.872,36.632,120.562,56.556
					c39.689,19.923,77.968,46.817,99.11,85.871c8.881-51.782-22.749-101.665-27.603-153.978
					c-8.56-92.251,66.187-183.8,36.707-271.631c20.425,60.853,44.984,119.488,61.917,181.664
					C1204.048,1949.41,1214.598,1975.347,1224.658,2001.479z"/>
			</g>
		</g>
		<g>
			
				<linearGradient id="SVGID_00000173135581905236108130000011654552541997026723_" gradientUnits="userSpaceOnUse" x1="-1365.251" y1="3730.2227" x2="-1339.2563" y2="3605.4482" gradientTransform="matrix(-0.9505 0.8882 -0.6827 -0.7307 4815.3936 7139.3511)">
				<stop  offset="0" style="stop-color:#FEBBBA"/>
				<stop  offset="1" style="stop-color:#FF928E"/>
			</linearGradient>
			<path style="fill:url(#SVGID_00000173135581905236108130000011654552541997026723_);" d="M2859.759,1929.497
				c0,0-337.099-153.636-59.109-230.769c0,0-3.337-102.811-3.543-120.535c7.051,0,29.824,12.606,32.348,42.015
				c2.406,28.041,16.1,43.921,16.1,43.921s8.004-29.146,23.925-26.936l-11.061,50.098c0,0-13.674,34.468-32.515,34.468
				c-8.281,1.762-187.267,54.103,29.718,108.405c0,0,13.805,4.017,14.83,10.522
				C2873.571,1860.491,2877.292,1902.136,2859.759,1929.497z"/>
			
				<linearGradient id="SVGID_00000077312444267876590650000008489399048647950763_" gradientUnits="userSpaceOnUse" x1="-4824.6421" y1="1906.4736" x2="-4774.5273" y2="1793.7159" gradientTransform="matrix(1 0 0 1 7894.9624 0)">
				<stop  offset="0" style="stop-color:#09005D"/>
				<stop  offset="1" style="stop-color:#1A0F91"/>
			</linearGradient>
			<path style="fill:url(#SVGID_00000077312444267876590650000008489399048647950763_);" d="M3012.77,1663.061
				c0,0,37.333,18.159,44.198,39.02c5.508,16.738,46.789,18.896,50.866,51.814c2.105,16.996,14.682,30.607,31.611,33.202
				c42.161,6.462,107.135,28.356,117.531,101.557c7.935,55.874-20.548,77.06-50.441,84.394
				c-21.955,5.386-36.546,26.741-32.105,48.907c4.26,21.26-2.092,45.838-38.925,65.273
				c-82.538,43.553-164.966-103.179-164.966-103.179l-16.893-256.204L3012.77,1663.061z"/>
			
				<linearGradient id="SVGID_00000096018487082014276730000002615410676824967331_" gradientUnits="userSpaceOnUse" x1="-4699.0386" y1="1690.9331" x2="-4716.2261" y2="2393.1406" gradientTransform="matrix(1 0 0 1 7795.4951 0)">
				<stop  offset="0" style="stop-color:#09005D"/>
				<stop  offset="1" style="stop-color:#1A0F91"/>
			</linearGradient>
			<path style="fill:url(#SVGID_00000096018487082014276730000002615410676824967331_);" d="M3012.352,3191.742l5.342,43.908
				c1.013,8.33,7.571,14.916,15.908,15.868c14.076,1.608,36.664,3.256,58.765,0.92c9.701-1.025,15.998-10.848,13.043-20.145
				c-5.387-16.95-15.244-42.395-29.454-57.369h-48.708C3018.241,3174.926,3011.264,3182.803,3012.352,3191.742z"/>
			
				<linearGradient id="SVGID_00000170237686728771301910000015604082490419307430_" gradientUnits="userSpaceOnUse" x1="-5134.8828" y1="3058.3911" x2="-5126.2568" y2="3386.1907" gradientTransform="matrix(1 0 0 1 7795.4951 0)">
				<stop  offset="0" style="stop-color:#FEBBBA"/>
				<stop  offset="1" style="stop-color:#FF928E"/>
			</linearGradient>
			<path style="fill:url(#SVGID_00000170237686728771301910000015604082490419307430_);" d="M2649.507,2695.151l-26.876,30.593
				c0,0,27.531,278.867,32.428,390.413c0.768,17.489-3.757,34.771-12.936,49.677l-47.872,77.74l121.666-71.793l2.422-14.847
				l-19.917-27.384c0,0,22.683-225.554,26.088-312.4s-18.33-122.659-18.33-122.659L2649.507,2695.151z"/>
			
				<linearGradient id="SVGID_00000114036953595954962580000010839830877834574523_" gradientUnits="userSpaceOnUse" x1="-5106.106" y1="1680.9697" x2="-5123.293" y2="2383.1787" gradientTransform="matrix(1 0 0 1 7795.4951 0)">
				<stop  offset="0" style="stop-color:#09005D"/>
				<stop  offset="1" style="stop-color:#1A0F91"/>
			</linearGradient>
			<path style="fill:url(#SVGID_00000114036953595954962580000010839830877834574523_);" d="M2586.24,3254.835h38.826
				c7.267,0,14.121-3.337,18.553-9.096c12.104-15.727,37.181-46.412,49.172-47.213c16.142-1.078,14.077,56.309,14.077,56.309h9.048
				l11.461-71.31c2.884-17.942-6.039-35.716-22.15-44.123c0,0-3.69,27.289-23.698,39.36c-20.008,12.071-81.42,55.298-81.42,55.298
				s-7.522-1.073-15.78,0.42C2572.08,3236.694,2573.792,3254.835,2586.24,3254.835z"/>
			
				<linearGradient id="SVGID_00000179603857373305162590000010159460033115199878_" gradientUnits="userSpaceOnUse" x1="-4849.6279" y1="3050.8845" x2="-4841.002" y2="3378.6843" gradientTransform="matrix(1 0 0 1 7795.4951 0)">
				<stop  offset="0" style="stop-color:#FEBBBA"/>
				<stop  offset="1" style="stop-color:#FF928E"/>
			</linearGradient>
			<path style="fill:url(#SVGID_00000179603857373305162590000010159460033115199878_);" d="M2797.495,2700.352
				c0,0,161.285,305.943,186.924,375.794s34.62,128.124,34.964,133.642c0.537,8.623,11.262,16.893,40.824,16.893
				c15.256,0,22.728-6.116,26.386-12.035c3.122-5.05,3.282-11.369,0.652-16.692c-9.33-18.881-38.937-79.22-49.902-106.588
				c-13.092-32.675-41.253-180.753-56.697-232.238c-15.445-51.485-32.902-107.333-100.159-158.776
				C2880.486,2700.352,2834.316,2655.132,2797.495,2700.352z"/>
			
				<linearGradient id="SVGID_00000169530248307159882310000000897467705639482040_" gradientUnits="userSpaceOnUse" x1="2957.2236" y1="1962.9369" x2="3972.5229" y2="810.4343">
				<stop  offset="0" style="stop-color:#E1473D"/>
				<stop  offset="1" style="stop-color:#E9605A"/>
			</linearGradient>
			<path style="fill:url(#SVGID_00000169530248307159882310000000897467705639482040_);" d="M2979.5,2199.05
				c-41.604-176.294,63.792-276.004,63.792-276.004c-66.503-63.835-187.671-92.883-187.671-92.883s-115.62,84.529-101.904,150.691
				c8.039,38.778,81.27,232.273,81.27,232.273S2902.702,2245.174,2979.5,2199.05z"/>
			
				<linearGradient id="SVGID_00000102531916806260392290000010916260839953537164_" gradientUnits="userSpaceOnUse" x1="3813.8862" y1="1700.2595" x2="3335.2656" y2="2082.1377">
				<stop  offset="0" style="stop-color:#09005D"/>
				<stop  offset="1" style="stop-color:#1A0F91"/>
			</linearGradient>
			<path style="fill:url(#SVGID_00000102531916806260392290000010916260839953537164_);" d="M2824.692,2288.75
				c16.931-51.008,10.294-75.623,10.294-75.623c62.952,26.822,144.513-14.077,144.513-14.077s110.728,50.781,54.015,183.65
				c-46.047,107.88-144.981,324.043-144.981,324.043c-103.616,20.995-265.902,19.001-265.902,19.001
				C2688.177,2489.945,2807.761,2339.757,2824.692,2288.75z"/>
			
				<linearGradient id="SVGID_00000026159348795195235760000004613913175560391560_" gradientUnits="userSpaceOnUse" x1="-207.9602" y1="1918.4722" x2="-227.2673" y2="1764.0145" gradientTransform="matrix(-1 0 0 1 2709.6787 0)">
				<stop  offset="0" style="stop-color:#FEBBBA"/>
				<stop  offset="1" style="stop-color:#FF928E"/>
			</linearGradient>
			<path style="fill:url(#SVGID_00000026159348795195235760000004613913175560391560_);" d="M2981.885,1781.232l-16.853,84.366
				c3.239,13.383-8.961,11.193-22.492,8.642c-22.158-4.177-50.717-12.781-60.263-30.023c-0.972-1.755-1.457-3.739-1.731-5.726
				l36.146-37.786c-1.153-8.359,3.365-16.471,11.079-19.891l28.042-12.434C2966.61,1763.592,2979.107,1769.752,2981.885,1781.232z"
				/>
			<g>
				
					<linearGradient id="SVGID_00000157277565026866247540000015497111578771885503_" gradientUnits="userSpaceOnUse" x1="-5131.6157" y1="2175.1711" x2="-4908.4639" y2="1778.0359" gradientTransform="matrix(0.9917 0.1286 -0.1286 0.9917 8223.582 355.9484)">
					<stop  offset="0" style="stop-color:#FEBBBA"/>
					<stop  offset="1" style="stop-color:#FF928E"/>
				</linearGradient>
				<path style="fill:url(#SVGID_00000157277565026866247540000015497111578771885503_);" d="M2954.568,1644.996
					c0,0-41.903,11.625-76.359,65.53c-34.456,53.906-17.72,83.028,7.147,89.952c24.867,6.924,67.948,1.051,112.838-30.838
					C3043.084,1737.753,3008.79,1631.807,2954.568,1644.996z"/>
				
					<linearGradient id="SVGID_00000058584666341968133540000015025858486203314334_" gradientUnits="userSpaceOnUse" x1="-5066.2412" y1="2097.8916" x2="-5016.1274" y2="1985.1356" gradientTransform="matrix(0.9917 0.1286 -0.1286 0.9917 8223.582 355.9484)">
					<stop  offset="0" style="stop-color:#09005D"/>
					<stop  offset="1" style="stop-color:#1A0F91"/>
				</linearGradient>
				<path style="fill:url(#SVGID_00000058584666341968133540000015025858486203314334_);" d="M2970.108,1745.731
					c0,0,40.863-80.104-33.474-90.751l-19.11,9.975c0,0-21.285-50.109,26.442-66.524c47.726-16.415,97.83,8.751,109.081,71.642
					c11.25,62.891,9.266,103.757-26.231,128.546s-44.332-9.682-44.332-9.682s20.795-24.794,15.632-40.172
					s-23.66,10.207-23.66,10.207L2970.108,1745.731z"/>
			</g>
			
				<linearGradient id="SVGID_00000047034269067355566220000005237276565283157641_" gradientUnits="userSpaceOnUse" x1="-385.7561" y1="1947.1149" x2="-541.3964" y2="1619.812" gradientTransform="matrix(-1 0 0 1 2709.6787 0)">
				<stop  offset="0" style="stop-color:#FEBBBA"/>
				<stop  offset="1" style="stop-color:#FF928E"/>
			</linearGradient>
			<path style="fill:url(#SVGID_00000047034269067355566220000005237276565283157641_);" d="M3127.401,1733.331
				c0,0,191.042,249.068-84.11,189.714c-54.582,34.202-49.492,76.531-49.492,76.531s467.338,59.15,172.595-258.81
				c-4.806-5.184-4.122-12.922-4.738-19.965c-1.296-14.816-13.474-42.892-14.315-57.74c-1.046-18.486-28.44-59.072-45.878-55.004
				c-11.896,2.776-7.341,23.296-5.385,35.354l22.365,51.03c2.282,14.068-1.642,10.618-15.855,9.566c0,0-8.755-2.962-9.643-0.714
				C3090.155,1710.367,3127.401,1733.331,3127.401,1733.331z"/>
		</g>
	</g>
</g>
</svg>
