<?xml version="1.0" encoding="utf-8"?>
<!-- Generator: Adobe Illustrator 26.0.3, SVG Export Plug-In . SVG Version: 6.00 Build 0)  -->
<svg version="1.1" id="Layer_1" xmlns="http://www.w3.org/2000/svg" xmlns:xlink="http://www.w3.org/1999/xlink" x="0px" y="0px"
	 viewBox="0 0 1080 1080" style="enable-background:new 0 0 1080 1080;" xml:space="preserve">
<style type="text/css">
	.st0{fill:#9BC9EB;}
	.st1{fill:#4D598D;}
	.st2{fill:#9BC9EB;stroke:#4D598D;stroke-width:16;stroke-linecap:round;stroke-linejoin:round;stroke-miterlimit:10;}
	.st3{fill:#4D598D;stroke:#4D598D;stroke-width:0.3;stroke-miterlimit:10;}
	.st4{fill:#FFFFFF;}
	.st5{fill:#263A6E;}
	.st6{fill:#0E71B9;}
	.st7{fill:#23376F;}
	.st8{fill:#FFFFFF;stroke:#23376F;stroke-width:24;stroke-linecap:round;stroke-linejoin:round;stroke-miterlimit:10;}
	.st9{fill:#20ADE4;}
	.st10{fill:#EDF4FB;}
	.st11{fill:#234698;}
	.st12{fill-rule:evenodd;clip-rule:evenodd;fill:#0E71B9;}
	.st13{fill-rule:evenodd;clip-rule:evenodd;fill:#EDF4FB;}
	.st14{fill:#C6DEF4;}
	.st15{fill:#ABC7E8;}
	.st16{fill-rule:evenodd;clip-rule:evenodd;fill:#9CC0E6;}
	.st17{fill-rule:evenodd;clip-rule:evenodd;fill:#FFFFFF;}
	.st18{fill-rule:evenodd;clip-rule:evenodd;fill:#BBD4EE;}
	.st19{fill:#568AC8;}
	.st20{fill-rule:evenodd;clip-rule:evenodd;fill:#7AA8D9;}
	.st21{fill:#BBD4EE;}
	.st22{fill-rule:evenodd;clip-rule:evenodd;fill:#F4B1B1;}
	.st23{fill-rule:evenodd;clip-rule:evenodd;fill:#CDDFF3;}
	.st24{fill-rule:evenodd;clip-rule:evenodd;fill:#3050A3;}
	
		.st25{clip-path:url(#SVGID_00000010991945296471356250000013831911780920598701_);fill:url(#SVGID_00000055689512681603384270000001078063065410199939_);}
	.st26{fill-rule:evenodd;clip-rule:evenodd;fill:#25AFA6;}
	.st27{fill-rule:evenodd;clip-rule:evenodd;fill:#5ABEBB;}
	.st28{fill-rule:evenodd;clip-rule:evenodd;fill:#355399;}
	.st29{fill-rule:evenodd;clip-rule:evenodd;fill:#223B74;}
	.st30{fill-rule:evenodd;clip-rule:evenodd;fill:#76A1D5;}
	.st31{fill-rule:evenodd;clip-rule:evenodd;fill:#E98385;}
	.st32{fill:#F4B1B1;}
	.st33{fill:#F5EC79;}
	.st34{fill:#DDE293;}
	.st35{fill-rule:evenodd;clip-rule:evenodd;fill:#F5EC79;}
	.st36{fill-rule:evenodd;clip-rule:evenodd;fill:#DDE293;}
	.st37{fill-rule:evenodd;clip-rule:evenodd;fill:#F3AF8F;}
	.st38{fill-rule:evenodd;clip-rule:evenodd;fill:#7FAADA;}
	.st39{fill-rule:evenodd;clip-rule:evenodd;fill:#929CCF;}
	.st40{fill-rule:evenodd;clip-rule:evenodd;fill:#6E7DBD;}
	.st41{fill:#6E7DBD;}
	.st42{fill-rule:evenodd;clip-rule:evenodd;fill:#E16C6C;}
	.st43{fill:#929CCF;}
	.st44{opacity:0.79;fill-rule:evenodd;clip-rule:evenodd;fill:#FFFFFF;}
	.st45{fill:#11497F;}
	.st46{fill:#C4E8FA;}
	.st47{fill:none;stroke:#4F74B9;stroke-width:9.983;stroke-linecap:round;stroke-linejoin:round;stroke-miterlimit:10;}
	.st48{fill:#4F74B9;}
</style>
<g>
	<path class="st0" d="M870.9,699.2v109.1h-818V590.1c0-30.1,24.4-54.5,54.5-54.5l0,0h518.1h214.7l25.2,24.3L870.9,699.2z"/>
	<path class="st1" d="M871.6,817.1h-818c-4.8,0-8.8-3.9-8.8-8.8V590.1c0-34.9,28.4-63.3,63.3-63.3h518.1c4.9,0,8.8,3.9,8.8,8.8
		c0,4.8-3.9,8.8-8.8,8.8H108.1c-25.2,0-45.8,20.5-45.8,45.8v209.4h800.5V699.2c0-4.9,3.9-8.8,8.8-8.8s8.8,3.9,8.8,8.8v109.1
		C880.4,813.1,876.5,817.1,871.6,817.1z"/>
	<path class="st1" d="M735.3,735.3c-34.9,0-63.3-28.4-63.3-63.3s28.4-63.3,63.3-63.3c4.9,0,8.8,3.9,8.8,8.8s-3.9,8.8-8.8,8.8
		c-25.2,0-45.8,20.5-45.8,45.8c0,25.2,20.5,45.8,45.8,45.8c25.2,0,45.8-20.5,45.8-45.8c0-4.9,3.9-8.8,8.8-8.8s8.8,3.9,8.8,8.8
		C798.6,706.9,770.2,735.3,735.3,735.3z"/>
	<path class="st1" d="M222.6,926.1h-92.7c-16.9,0-30.6-13.7-30.6-30.6v-87.2c0-4.9,3.9-8.8,8.8-8.8s8.8,3.9,8.8,8.8v87.2
		c0,7.2,5.9,13.1,13.1,13.1h92.7c7.2,0,13.1-5.9,13.1-13.1v-87.2c0-4.9,3.9-8.8,8.8-8.8c4.8,0,8.8,3.9,8.8,8.8v87.2
		C253.2,912.4,239.5,926.1,222.6,926.1z"/>
	<path class="st1" d="M795.2,926.1h-92.7c-16.9,0-30.6-13.7-30.6-30.6v-87.2c0-4.9,3.9-8.8,8.8-8.8s8.8,3.9,8.8,8.8v87.2
		c0,7.2,5.9,13.1,13.1,13.1h92.7c7.2,0,13.1-5.9,13.1-13.1v-87.2c0-4.9,3.9-8.8,8.8-8.8c4.9,0,8.8,3.9,8.8,8.8v87.2
		C825.8,912.4,812.1,926.1,795.2,926.1z"/>
	<path class="st1" d="M108.1,544.4c-0.9,0-1.7-0.1-2.6-0.4c-4.6-1.4-7.2-6.3-5.8-11l68.6-224.3c8.7-32.1,38.3-54.6,71.8-54.6h331.6
		c4.9,0,8.8,3.9,8.8,8.8c0,4.8-3.9,8.8-8.8,8.8H240.1c-25.6,0-48.2,17.3-54.9,42l-68.7,224.5C115.3,542,111.9,544.4,108.1,544.4z"/>
	<path class="st1" d="M189.9,735.3c-34.9,0-63.3-28.4-63.3-63.3s28.4-63.3,63.3-63.3s63.3,28.4,63.3,63.3S224.8,735.3,189.9,735.3z
		 M189.9,626.2c-25.2,0-45.8,20.5-45.8,45.8c0,25.2,20.5,45.8,45.8,45.8s45.8-20.5,45.8-45.8C235.7,646.7,215.1,626.2,189.9,626.2z"
		/>
	<path class="st1" d="M571.7,708H353.5c-4.8,0-8.8-3.9-8.8-8.8v-81.8c0-4.9,3.9-8.8,8.8-8.8h218.1c4.9,0,8.8,3.9,8.8,8.8v81.8
		C580.4,704.1,576.5,708,571.7,708z M362.3,690.4h200.6v-64.2H362.3V690.4z"/>
	<path class="st1" d="M517.1,353.5H380.8c-4.8,0-8.8-3.9-8.8-8.8s3.9-8.8,8.8-8.8h136.3c4.8,0,8.8,3.9,8.8,8.8
		S522,353.5,517.1,353.5z"/>
	<path class="st2" d="M844.3,153.9c0,0-96.2,109.1-190.9,109.1c0,289.7,190.9,354.5,190.9,354.5s190.9-64.7,190.9-354.5
		C940.5,262.9,844.3,153.9,844.3,153.9z"/>
	<path class="st1" d="M844.3,435.3c-2.3,0-4.6-0.9-6.2-2.6l-54.5-54.5c-3.4-3.4-3.4-9,0-12.4c3.4-3.4,9-3.4,12.4,0l47.4,47.4
		l75.7-101c2.9-3.9,8.4-4.7,12.3-1.8c3.9,2.9,4.7,8.4,1.8,12.3l-81.8,109.1c-1.5,2-3.9,3.3-6.4,3.5
		C844.7,435.3,844.5,435.3,844.3,435.3z"/>
</g>
</svg>
