<?xml version="1.0" encoding="utf-8"?>
<!-- Generator: Adobe Illustrator 26.0.3, SVG Export Plug-In . SVG Version: 6.00 Build 0)  -->
<svg version="1.1" id="Layer_1" xmlns="http://www.w3.org/2000/svg" xmlns:xlink="http://www.w3.org/1999/xlink" x="0px" y="0px"
	 viewBox="0 0 1080 1080" style="enable-background:new 0 0 1080 1080;" xml:space="preserve">
<style type="text/css">
	.st0{fill:#9BC9EB;}
	.st1{fill:#4D598D;}
	.st2{fill:#9BC9EB;stroke:#4D598D;stroke-width:16;stroke-linecap:round;stroke-linejoin:round;stroke-miterlimit:10;}
	.st3{fill:#4D598D;stroke:#4D598D;stroke-width:0.3;stroke-miterlimit:10;}
	.st4{fill:#FFFFFF;}
	.st5{fill:#263A6E;}
	.st6{fill:#0E71B9;}
	.st7{fill:#23376F;}
	.st8{fill:#FFFFFF;stroke:#23376F;stroke-width:24;stroke-linecap:round;stroke-linejoin:round;stroke-miterlimit:10;}
	.st9{fill:#20ADE4;}
	.st10{fill:#EDF4FB;}
	.st11{fill:#234698;}
	.st12{fill-rule:evenodd;clip-rule:evenodd;fill:#0E71B9;}
	.st13{fill-rule:evenodd;clip-rule:evenodd;fill:#EDF4FB;}
	.st14{fill:#C6DEF4;}
	.st15{fill:#ABC7E8;}
	.st16{fill-rule:evenodd;clip-rule:evenodd;fill:#9CC0E6;}
	.st17{fill-rule:evenodd;clip-rule:evenodd;fill:#FFFFFF;}
	.st18{fill-rule:evenodd;clip-rule:evenodd;fill:#BBD4EE;}
	.st19{fill:#568AC8;}
	.st20{fill-rule:evenodd;clip-rule:evenodd;fill:#7AA8D9;}
	.st21{fill:#BBD4EE;}
	.st22{fill-rule:evenodd;clip-rule:evenodd;fill:#F4B1B1;}
	.st23{fill-rule:evenodd;clip-rule:evenodd;fill:#CDDFF3;}
	.st24{fill-rule:evenodd;clip-rule:evenodd;fill:#3050A3;}
	
		.st25{clip-path:url(#SVGID_00000023983313341052189940000006691901477469534861_);fill:url(#SVGID_00000037658136700221279220000001798094828564705711_);}
	.st26{fill-rule:evenodd;clip-rule:evenodd;fill:#25AFA6;}
	.st27{fill-rule:evenodd;clip-rule:evenodd;fill:#5ABEBB;}
	.st28{fill-rule:evenodd;clip-rule:evenodd;fill:#355399;}
	.st29{fill-rule:evenodd;clip-rule:evenodd;fill:#223B74;}
	.st30{fill-rule:evenodd;clip-rule:evenodd;fill:#76A1D5;}
	.st31{fill-rule:evenodd;clip-rule:evenodd;fill:#E98385;}
	.st32{fill:#F4B1B1;}
	.st33{fill:#F5EC79;}
	.st34{fill:#DDE293;}
	.st35{fill-rule:evenodd;clip-rule:evenodd;fill:#F5EC79;}
	.st36{fill-rule:evenodd;clip-rule:evenodd;fill:#DDE293;}
	.st37{fill-rule:evenodd;clip-rule:evenodd;fill:#F3AF8F;}
	.st38{fill-rule:evenodd;clip-rule:evenodd;fill:#7FAADA;}
	.st39{fill-rule:evenodd;clip-rule:evenodd;fill:#929CCF;}
	.st40{fill-rule:evenodd;clip-rule:evenodd;fill:#6E7DBD;}
	.st41{fill:#6E7DBD;}
	.st42{fill-rule:evenodd;clip-rule:evenodd;fill:#E16C6C;}
	.st43{fill:#929CCF;}
	.st44{opacity:0.79;fill-rule:evenodd;clip-rule:evenodd;fill:#FFFFFF;}
	.st45{fill:#11497F;}
	.st46{fill:#C4E8FA;}
	.st47{fill:none;stroke:#4F74B9;stroke-width:9.983;stroke-linecap:round;stroke-linejoin:round;stroke-miterlimit:10;}
	.st48{fill:#4F74B9;}
</style>
<g>
	<path class="st0" d="M900.2,292.4H727.6v-97.5c0-12.5-10.1-22.5-22.5-22.5h-38.3c-3.5-17.1-18.6-30-36.8-30H450
		c-18.2,0-33.3,12.9-36.8,30h-38.3c-12.5,0-22.5,10.1-22.5,22.5v75c0,4.2,3.3,7.5,7.5,7.5c4.2,0,7.5-3.3,7.5-7.5v-75
		c0-4.2,3.3-7.5,7.5-7.5h38.3c3.5,17.1,18.6,30,36.8,30H630c18.2,0,33.3-12.9,36.8-30h38.3c4.2,0,7.5,3.3,7.5,7.5v97.5H179.8
		c-20.7,0-37.5,16.8-37.5,37.5v555.2c0,20.7,16.8,37.5,37.5,37.5h83.9c3,8.7,11.4,15,21.2,15h30c9.8,0,18.2-6.3,21.2-15h407.9
		c3,8.7,11.4,15,21.2,15h30c9.8,0,18.2-6.3,21.2-15h83.9c20.7,0,37.5-16.8,37.5-37.5V329.9C937.7,309.2,920.9,292.4,900.2,292.4z
		 M322.4,915.2c0,4.2-3.3,7.5-7.5,7.5h-30c-4.2,0-7.5-3.3-7.5-7.5V367.4h45V915.2z M352.4,344.9c0,4.2-3.3,7.5-7.5,7.5h-90
		c-4.2,0-7.5-3.3-7.5-7.5v-37.5h105V344.9z M652.5,647.6h-72.5c-4.2,0-7.5,3.3-7.5,7.5v72.5h-65.1v-72.5c0-4.2-3.3-7.5-7.5-7.5
		h-72.5v-65.1h72.5c4.2,0,7.5-3.3,7.5-7.5v-72.5h65.1V575c0,4.2,3.3,7.5,7.5,7.5h72.5V647.6z M802.6,915.2c0,4.2-3.3,7.5-7.5,7.5
		h-30c-4.2,0-7.5-3.3-7.5-7.5V367.4h45V915.2z M840.3,357H719.2v-58.2h121.2V357z"/>
	<g>
		<path class="st1" d="M937.7,329.9v555.2c0,20.7-16.8,37.5-37.5,37.5h-90c-4.2,0-7.5-3.3-7.5-7.5s3.3-7.5,7.5-7.5h90
			c12.5,0,22.5-10.1,22.5-22.5V329.9c0-12.5-10.1-22.5-22.5-22.5H179.8c-12.5,0-22.5,10.1-22.5,22.5v555.2
			c0,12.5,10.1,22.5,22.5,22.5h90c4.2,0,7.5,3.3,7.5,7.5s-3.3,7.5-7.5,7.5h-90c-20.7,0-37.5-16.8-37.5-37.5V329.9
			c0-20.7,16.8-37.5,37.5-37.5h720.3C920.9,292.4,937.7,309.2,937.7,329.9z"/>
		<path class="st1" d="M757.6,915.2c0,4.2-3.3,7.5-7.5,7.5H329.9c-4.2,0-7.5-3.3-7.5-7.5s3.3-7.5,7.5-7.5h420.2
			C754.3,907.7,757.6,911,757.6,915.2z"/>
		<path class="st1" d="M427.5,179.8c0,4.2-3.3,7.5-7.5,7.5h-45c-4.2,0-7.5,3.3-7.5,7.5v75c0,4.2-3.3,7.5-7.5,7.5
			c-4.2,0-7.5-3.3-7.5-7.5v-75c0-12.5,10.1-22.5,22.5-22.5h45C424.2,172.3,427.5,175.6,427.5,179.8z"/>
		<path class="st1" d="M727.6,194.9v105c0,4.2-3.3,7.5-7.5,7.5c-4.2,0-7.5-3.3-7.5-7.5v-105c0-4.2-3.3-7.5-7.5-7.5h-45
			c-4.2,0-7.5-3.3-7.5-7.5s3.3-7.5,7.5-7.5h45C717.5,172.3,727.6,182.4,727.6,194.9z"/>
		<path class="st1" d="M666.8,172.3c-3.5-17.1-18.6-30-36.8-30H450c-18.2,0-33.3,12.9-36.8,30c-0.5,2.4-0.7,5-0.7,7.5
			s0.3,5.1,0.7,7.5c3.5,17.1,18.6,30,36.8,30H630c18.2,0,33.3-12.9,36.8-30c0.5-2.4,0.7-5,0.7-7.5S667.3,174.7,666.8,172.3z
			 M630,202.4H450c-12.5,0-22.5-10.1-22.5-22.5c0-12.5,10.1-22.5,22.5-22.5H630c12.5,0,22.5,10.1,22.5,22.5
			C652.5,192.3,642.5,202.4,630,202.4z"/>
		<path class="st1" d="M847.6,299.9v45c0,12.5-10.1,22.5-22.5,22.5h-90c-12.5,0-22.5-10.1-22.5-22.5v-15c0-4.2,3.3-7.5,7.5-7.5
			c4.2,0,7.5,3.3,7.5,7.5v15c0,4.2,3.3,7.5,7.5,7.5h90c4.2,0,7.5-3.3,7.5-7.5v-45c0-4.2,3.3-7.5,7.5-7.5
			C844.3,292.4,847.6,295.7,847.6,299.9z"/>
		<path class="st1" d="M359.9,292.4H239.9c-4.2,0-7.5,3.3-7.5,7.5v45c0,12.5,10.1,22.5,22.5,22.5h90c12.5,0,22.5-10.1,22.5-22.5v-45
			C367.4,295.7,364.1,292.4,359.9,292.4z M352.4,344.9c0,4.2-3.3,7.5-7.5,7.5h-90c-4.2,0-7.5-3.3-7.5-7.5v-37.5h105V344.9z"/>
		<path class="st1" d="M810.1,352.4h-60c-4.2,0-7.5,3.3-7.5,7.5v555.2c0,2.7,0.5,5.1,1.3,7.5c3,8.7,11.4,15,21.2,15h30
			c9.8,0,18.2-6.3,21.2-15c0.9-2.4,1.3-4.8,1.3-7.5V359.9C817.6,355.7,814.3,352.4,810.1,352.4z M802.6,915.2c0,4.2-3.3,7.5-7.5,7.5
			h-30c-4.2,0-7.5-3.3-7.5-7.5V367.4h45V915.2z"/>
		<path class="st1" d="M329.9,352.4h-60c-4.2,0-7.5,3.3-7.5,7.5v555.2c0,2.7,0.5,5.1,1.3,7.5c3,8.7,11.4,15,21.2,15h30
			c9.8,0,18.2-6.3,21.2-15c0.9-2.4,1.3-4.8,1.3-7.5V359.9C337.4,355.7,334.1,352.4,329.9,352.4z M322.4,915.2c0,4.2-3.3,7.5-7.5,7.5
			h-30c-4.2,0-7.5-3.3-7.5-7.5V367.4h45V915.2z"/>
		<path class="st1" d="M660.1,567.5h-72.5V495c0-4.2-3.4-7.5-7.5-7.5h-80.1c-4.1,0-7.5,3.3-7.5,7.5v72.5h-72.5
			c-4.2,0-7.5,3.4-7.5,7.5v80.1c0,4.1,3.3,7.5,7.5,7.5h72.5v72.5c0,4.2,3.4,7.5,7.5,7.5h80.1c4.1,0,7.5-3.3,7.5-7.5v-72.5h72.5
			c4.2,0,7.5-3.4,7.5-7.5V575C667.6,570.9,664.3,567.5,660.1,567.5z M652.5,647.6h-72.5c-4.2,0-7.5,3.3-7.5,7.5v72.5h-65.1v-72.5
			c0-4.2-3.3-7.5-7.5-7.5h-72.5v-65.1h72.5c4.2,0,7.5-3.3,7.5-7.5v-72.5h65.1V575c0,4.2,3.3,7.5,7.5,7.5h72.5V647.6z"/>
	</g>
</g>
</svg>
