<?xml version="1.0" encoding="utf-8"?>
<!-- Generator: Adobe Illustrator 26.0.3, SVG Export Plug-In . SVG Version: 6.00 Build 0)  -->
<svg version="1.1" id="Layer_1" xmlns="http://www.w3.org/2000/svg" xmlns:xlink="http://www.w3.org/1999/xlink" x="0px" y="0px"
	 viewBox="0 0 1080 1080" style="enable-background:new 0 0 1080 1080;" xml:space="preserve">
<style type="text/css">
	.st0{fill:#9BC9EB;}
	.st1{fill:#4D598D;}
	.st2{fill:#9BC9EB;stroke:#4D598D;stroke-width:16;stroke-linecap:round;stroke-linejoin:round;stroke-miterlimit:10;}
	.st3{fill:#4D598D;stroke:#4D598D;stroke-width:0.3;stroke-miterlimit:10;}
	.st4{fill:#FFFFFF;}
	.st5{fill:#263A6E;}
	.st6{fill:#0E71B9;}
	.st7{fill:#23376F;}
	.st8{fill:#FFFFFF;stroke:#23376F;stroke-width:24;stroke-linecap:round;stroke-linejoin:round;stroke-miterlimit:10;}
	.st9{fill:#20ADE4;}
	.st10{fill:#EDF4FB;}
	.st11{fill:#234698;}
	.st12{fill-rule:evenodd;clip-rule:evenodd;fill:#0E71B9;}
	.st13{fill-rule:evenodd;clip-rule:evenodd;fill:#EDF4FB;}
	.st14{fill:#C6DEF4;}
	.st15{fill:#ABC7E8;}
	.st16{fill-rule:evenodd;clip-rule:evenodd;fill:#9CC0E6;}
	.st17{fill-rule:evenodd;clip-rule:evenodd;fill:#FFFFFF;}
	.st18{fill-rule:evenodd;clip-rule:evenodd;fill:#BBD4EE;}
	.st19{fill:#568AC8;}
	.st20{fill-rule:evenodd;clip-rule:evenodd;fill:#7AA8D9;}
	.st21{fill:#BBD4EE;}
	.st22{fill-rule:evenodd;clip-rule:evenodd;fill:#F4B1B1;}
	.st23{fill-rule:evenodd;clip-rule:evenodd;fill:#CDDFF3;}
	.st24{fill-rule:evenodd;clip-rule:evenodd;fill:#3050A3;}
	
		.st25{clip-path:url(#SVGID_00000137110981087006798030000007921857179657796255_);fill:url(#SVGID_00000181068728772348558250000017418836619601480346_);}
	.st26{fill-rule:evenodd;clip-rule:evenodd;fill:#25AFA6;}
	.st27{fill-rule:evenodd;clip-rule:evenodd;fill:#5ABEBB;}
	.st28{fill-rule:evenodd;clip-rule:evenodd;fill:#355399;}
	.st29{fill-rule:evenodd;clip-rule:evenodd;fill:#223B74;}
	.st30{fill-rule:evenodd;clip-rule:evenodd;fill:#76A1D5;}
	.st31{fill-rule:evenodd;clip-rule:evenodd;fill:#E98385;}
	.st32{fill:#F4B1B1;}
	.st33{fill:#F5EC79;}
	.st34{fill:#DDE293;}
	.st35{fill-rule:evenodd;clip-rule:evenodd;fill:#F5EC79;}
	.st36{fill-rule:evenodd;clip-rule:evenodd;fill:#DDE293;}
	.st37{fill-rule:evenodd;clip-rule:evenodd;fill:#F3AF8F;}
	.st38{fill-rule:evenodd;clip-rule:evenodd;fill:#7FAADA;}
	.st39{fill-rule:evenodd;clip-rule:evenodd;fill:#929CCF;}
	.st40{fill-rule:evenodd;clip-rule:evenodd;fill:#6E7DBD;}
	.st41{fill:#6E7DBD;}
	.st42{fill-rule:evenodd;clip-rule:evenodd;fill:#E16C6C;}
	.st43{fill:#929CCF;}
	.st44{opacity:0.79;fill-rule:evenodd;clip-rule:evenodd;fill:#FFFFFF;}
	.st45{fill:#11497F;}
	.st46{fill:#C4E8FA;}
	.st47{fill:none;stroke:#4F74B9;stroke-width:9.983;stroke-linecap:round;stroke-linejoin:round;stroke-miterlimit:10;}
	.st48{fill:#4F74B9;}
</style>
<g>
	<path class="st1" d="M563.7,939.4c-72.6,0-245.6-103.5-253-108c-4.2-2.5-5.6-8.1-3.1-12.3c2.6-4.2,8.1-5.6,12.3-3.1
		c1.8,1.1,182,109,246.7,105.4c101.3-5.8,334.2-172.8,336.5-174.5c0.3-0.2,0.6-0.4,0.9-0.6c9.8-5.5,15.9-15.8,15.9-27
		c0-18.2-14.8-30.1-29.1-31.1c-5.4-0.3-10.6,0.7-15.5,3.1c-0.1,0-0.1,0.1-0.2,0.1L728,759.3l-6.3,3c-1.2,0.6-2.5,0.8-3.8,0.8
		c-3.3,0-6.4-1.8-7.9-4.7c-1.6-2.9-1.5-6.4,0.4-9.2c2.8-4.2,4.5-9.3,5-14.6v-3.9c-0.6-17.2-14.5-30.6-31.8-30.6h-93.5
		c-2.2,0-4.4-0.8-6-2.3c-15.7-14.2-33.1-26.4-51.7-36.5c-29.6-16-60.3-24.8-88.7-25.5c-25.4-0.6-51-0.8-74.1-0.7
		c-32,0.1-53.7,0.7-53.9,0.7c-4.9,0.1-9.1-3.8-9.2-8.7c-0.1-4.9,3.8-9.1,8.7-9.2c0.2,0,22.1-0.6,54.3-0.7c23.2-0.2,49.1,0,74.6,0.7
		c31.2,0.8,64.6,10.3,96.8,27.7c18.9,10.2,36.5,22.5,52.6,36.6h90.1c27.1,0,48.9,21.1,49.7,48.1c0,0.1,0,0.2,0,0.3v4.4
		c0,0.2,0,0.5,0,0.7c0,0.5-0.1,1-0.1,1.5l134.4-62c7.7-3.7,15.9-5.4,24.4-4.8c25.7,1.8,45.8,23.3,45.8,49c0,17.5-9.4,33.6-24.6,42.3
		C898.8,772,672.9,933.3,567.6,939.2C566.3,939.3,565,939.4,563.7,939.4z"/>
	<path class="st1" d="M683.5,781.8H502.7c-4.9,0-9-4-9-9s4-9,9-9h180.7c17.6,0,31.9-14.3,31.9-31.9c0-4.9,4-9,9-9c4.9,0,9,4,9,9
		C733.3,759.5,710.9,781.8,683.5,781.8z"/>
	<g>
		<path class="st0" d="M292.8,587.3h-99.6c-17.6,0-31.8,14.2-31.8,31.8v212.3c0,17.6,14.2,31.8,31.8,31.8h99.6
			c17.6,0,31.8-14.2,31.8-31.8c0-47.3,0-165,0-212.3C324.6,601.6,310.4,587.3,292.8,587.3z"/>
		<path class="st1" d="M292.8,872.2h-99.6c-22.5,0-40.8-18.3-40.8-40.8V619.2c0-22.5,18.3-40.8,40.8-40.8h99.6
			c22.5,0,40.8,18.3,40.8,40.8v212.3C333.6,853.9,315.3,872.2,292.8,872.2z M193.2,596.3c-12.6,0-22.9,10.3-22.9,22.9v212.3
			c0,12.6,10.3,22.9,22.9,22.9h99.6c12.6,0,22.9-10.3,22.9-22.9V619.2c0-12.6-10.3-22.9-22.9-22.9H193.2z"/>
	</g>
	<path class="st4" d="M265.2,789.6c0,12.3-9.9,22.2-22.2,22.2c-12.3,0-22.2-9.9-22.2-22.2c0-12.3,9.9-22.3,22.2-22.3
		C255.3,767.4,265.2,777.4,265.2,789.6z"/>
	<path class="st1" d="M640.5,635.1c-2,0-3.9-0.6-5.6-1.9c-0.8-0.5-3.2-1.9-5.5-3.2c-161.3-93.2-250.2-209.1-250.2-326.3
		c0-89.9,73.3-163,163.4-163c35.5,0,70,11.5,97.9,32.6c27.8-21.1,62.3-32.6,98-32.6c89.9,0,163.1,73.1,163.1,163
		c0,76.4-40.1,153.2-119.3,228.3c-52.6,49.9-107.5,84.6-135.5,100.8c-0.6,0.4-1.1,0.6-1.4,0.8C644,634.6,642.2,635.1,640.5,635.1z
		 M635.1,633.3L635.1,633.3L635.1,633.3z M634.3,632.6c0.1,0.1,0.3,0.3,0.5,0.5C634.6,633,634.4,632.8,634.3,632.6z M646.7,632.7
		C646.7,632.7,646.7,632.7,646.7,632.7C646.7,632.7,646.7,632.7,646.7,632.7z M646.7,632.6C646.7,632.6,646.7,632.6,646.7,632.6
		C646.7,632.6,646.7,632.6,646.7,632.6z M542.6,158.6c-80.2,0-145.5,65.1-145.5,145.1c0,149.2,151.1,258.8,241.2,310.8
		c0.8,0.5,1.6,0.9,2.2,1.3c28.1-16.4,79.8-49.7,129.4-96.8c75.4-71.6,113.7-144,113.7-215.3c0-80-65.1-145.1-145.2-145.1
		c-34,0-66.8,11.7-92.3,33c-3.3,2.8-8.2,2.8-11.5,0C609.1,170.3,576.4,158.6,542.6,158.6z"/>
	<g>
		<path class="st0" d="M469.4,408.9h68.8l35.1-58.9c4.5-7.5,12.7-11.7,21.2-11.1c8.5,0.6,15.9,6,19.2,13.9l18.7,44.5L713,260.6
			c4.5-7.5,13-11.8,21.5-11.1c8.7,0.7,16.3,6.6,19.3,14.7L806.2,405h107.2c12.5,0,22.7,10.2,22.7,22.7c0,12.6-10.2,22.8-22.7,22.8
			h-72h-51.1c-9.5,0-17.9-6-21.3-14.8l-41.2-111l-79.3,134.6c-4.1,7-11.6,11.2-19.6,11.2h-1.6c-8.6-0.6-15.9-6-19.3-13.9l-18.8-44.7
			l-18.7,31.4c-4.1,6.8-11.6,11.1-19.6,11.1H368.9c-12.6,0-22.8-10.2-22.8-22.7c0-12.6,10.2-22.8,22.8-22.8h45.8L469.4,408.9
			L469.4,408.9z"/>
		<path class="st1" d="M629,479.5h-1.6c-0.2,0-0.4,0-0.6,0c-11.9-0.9-22.2-8.3-26.9-19.4l-11.9-28.4l-9.6,16.1
			c-5.7,9.5-16.2,15.5-27.2,15.5H368.9c-17.5,0-31.7-14.2-31.7-31.6c0-17.5,14.2-31.7,31.7-31.7l164.3,0l32.5-54.5
			c6.3-10.4,17.6-16.3,29.5-15.4c12,0.9,22.3,8.4,26.8,19.5l11.7,27.9L705.3,256c6.3-10.5,18.1-16.5,30-15.5
			c12.1,1,22.7,9.1,26.9,20.5l50.2,135h101c17.4,0,31.6,14.2,31.6,31.6c0,17.5-14.2,31.7-31.6,31.7h-123c-13.1,0-25-8.3-29.7-20.6
			l-34.7-93.4l-69.8,118.4C650.6,473.5,640.2,479.5,629,479.5z M627.8,461.6h1.3c4.8,0,9.4-2.6,11.8-6.8l79.3-134.6
			c1.8-3,5.1-4.7,8.5-4.4c3.4,0.3,6.4,2.6,7.6,5.8l41.2,111c2,5.3,7.2,9,12.9,9h123c7.6,0,13.7-6.2,13.7-13.8
			c0-7.6-6.2-13.7-13.7-13.7H806.2c-3.7,0-7.1-2.3-8.4-5.8l-52.4-140.8c-1.8-4.9-6.5-8.5-11.7-8.9c-5.3-0.5-10.4,2.2-13.1,6.8
			l-80.5,136.7c-1.7,2.9-5,4.6-8.3,4.4c-3.4-0.2-6.3-2.3-7.7-5.5l-18.7-44.5c-2-4.9-6.4-8.1-11.6-8.5c-5.2-0.4-10.1,2.2-12.8,6.8
			l-35.1,58.9c-1.6,2.7-4.5,4.4-7.7,4.4h-68.8l0,0l-100.5,0c-7.6,0-13.8,6.2-13.8,13.8c0,7.6,6.2,13.7,13.8,13.7h182.2
			c4.8,0,9.4-2.6,11.9-6.7l18.7-31.4c1.7-2.9,4.9-4.6,8.3-4.4c3.4,0.2,6.3,2.3,7.6,5.5l18.8,44.7
			C618.4,457.9,622.7,461.1,627.8,461.6z"/>
	</g>
</g>
</svg>
