<?xml version="1.0" encoding="utf-8"?>
<!-- Generator: Adobe Illustrator 26.0.3, SVG Export Plug-In . SVG Version: 6.00 Build 0)  -->
<svg version="1.1" id="Layer_1" xmlns="http://www.w3.org/2000/svg" xmlns:xlink="http://www.w3.org/1999/xlink" x="0px" y="0px"
	 viewBox="0 0 1080 1080" style="enable-background:new 0 0 1080 1080;" xml:space="preserve">
<style type="text/css">
	.st0{fill:#9BC9EB;}
	.st1{fill:#4D598D;}
	.st2{fill:#9BC9EB;stroke:#4D598D;stroke-width:16;stroke-linecap:round;stroke-linejoin:round;stroke-miterlimit:10;}
	.st3{fill:#4D598D;stroke:#4D598D;stroke-width:0.3;stroke-miterlimit:10;}
	.st4{fill:#FFFFFF;}
	.st5{fill:#263A6E;}
	.st6{fill:#0E71B9;}
	.st7{fill:#23376F;}
	.st8{fill:#FFFFFF;stroke:#23376F;stroke-width:24;stroke-linecap:round;stroke-linejoin:round;stroke-miterlimit:10;}
	.st9{fill:#20ADE4;}
	.st10{fill:#EDF4FB;}
	.st11{fill:#234698;}
	.st12{fill-rule:evenodd;clip-rule:evenodd;fill:#0E71B9;}
	.st13{fill-rule:evenodd;clip-rule:evenodd;fill:#EDF4FB;}
	.st14{fill:#C6DEF4;}
	.st15{fill:#ABC7E8;}
	.st16{fill-rule:evenodd;clip-rule:evenodd;fill:#9CC0E6;}
	.st17{fill-rule:evenodd;clip-rule:evenodd;fill:#FFFFFF;}
	.st18{fill-rule:evenodd;clip-rule:evenodd;fill:#BBD4EE;}
	.st19{fill:#568AC8;}
	.st20{fill-rule:evenodd;clip-rule:evenodd;fill:#7AA8D9;}
	.st21{fill:#BBD4EE;}
	.st22{fill-rule:evenodd;clip-rule:evenodd;fill:#F4B1B1;}
	.st23{fill-rule:evenodd;clip-rule:evenodd;fill:#CDDFF3;}
	.st24{fill-rule:evenodd;clip-rule:evenodd;fill:#3050A3;}
	
		.st25{clip-path:url(#SVGID_00000102542775073300589910000012624023246427711120_);fill:url(#SVGID_00000015340474125225789720000011859116927933753257_);}
	.st26{fill-rule:evenodd;clip-rule:evenodd;fill:#25AFA6;}
	.st27{fill-rule:evenodd;clip-rule:evenodd;fill:#5ABEBB;}
	.st28{fill-rule:evenodd;clip-rule:evenodd;fill:#355399;}
	.st29{fill-rule:evenodd;clip-rule:evenodd;fill:#223B74;}
	.st30{fill-rule:evenodd;clip-rule:evenodd;fill:#76A1D5;}
	.st31{fill-rule:evenodd;clip-rule:evenodd;fill:#E98385;}
	.st32{fill:#F4B1B1;}
	.st33{fill:#F5EC79;}
	.st34{fill:#DDE293;}
	.st35{fill-rule:evenodd;clip-rule:evenodd;fill:#F5EC79;}
	.st36{fill-rule:evenodd;clip-rule:evenodd;fill:#DDE293;}
	.st37{fill-rule:evenodd;clip-rule:evenodd;fill:#F3AF8F;}
	.st38{fill-rule:evenodd;clip-rule:evenodd;fill:#7FAADA;}
	.st39{fill-rule:evenodd;clip-rule:evenodd;fill:#929CCF;}
	.st40{fill-rule:evenodd;clip-rule:evenodd;fill:#6E7DBD;}
	.st41{fill:#6E7DBD;}
	.st42{fill-rule:evenodd;clip-rule:evenodd;fill:#E16C6C;}
	.st43{fill:#929CCF;}
	.st44{opacity:0.79;fill-rule:evenodd;clip-rule:evenodd;fill:#FFFFFF;}
	.st45{fill:#11497F;}
	.st46{fill:#C4E8FA;}
	.st47{fill:none;stroke:#4F74B9;stroke-width:9.983;stroke-linecap:round;stroke-linejoin:round;stroke-miterlimit:10;}
	.st48{fill:#4F74B9;}
</style>
<g>
	<path class="st1" d="M224.8,910.9c-3.9,0-7.4-2.6-8.4-6.6l-86.7-350.7c-1-4.1,1-8.3,4.9-10l400.5-179.2c1.1-0.5,2.3-0.8,3.5-0.8
		h2.7c1.2,0,2.4,0.3,3.5,0.8l400.5,179.2c3.8,1.7,5.9,5.9,4.9,10l-86.7,350.7c-1.1,4.6-5.8,7.4-10.5,6.3c-4.6-1.1-7.5-5.8-6.3-10.5
		l84.9-343.7L540,381.3L148.2,556.5l84.9,343.7c1.1,4.6-1.7,9.3-6.3,10.5C226.2,910.8,225.5,910.9,224.8,910.9z"/>
	<path class="st1" d="M187,538.4c-1.9,0-3.7-0.6-5.3-1.8c-2.5-1.9-3.8-5.1-3.3-8.2l30.1-188.8c0.7-4.2,4.3-7.3,8.5-7.3h642.6
		c4.2,0,7.8,3,8.5,7.1l33.8,187.4c0.6,3.1-0.6,6.4-3.2,8.3c-2.5,2-5.9,2.4-8.8,1.1L540,381.2L190.5,537.6
		C189.4,538.1,188.2,538.4,187,538.4z M224.5,349.6l-26.5,165.7L535,364.5c1.1-0.5,2.3-0.8,3.5-0.8h3c1.2,0,2.4,0.3,3.5,0.7
		l337.2,149.3l-29.7-164.3H224.5z"/>
	<g>
		<polygon class="st0" points="677.7,163.3 399.2,163.3 395.2,216.1 681.7,216.1 		"/>
		<path class="st1" d="M681.7,224.7H395.2c-2.4,0-4.7-1-6.3-2.8c-1.6-1.8-2.5-4.1-2.3-6.5l4-52.8c0.3-4.5,4.1-8,8.6-8h278.5
			c4.5,0,8.3,3.5,8.6,8l4,52.8c0.2,2.4-0.6,4.8-2.3,6.5C686.4,223.7,684.1,224.7,681.7,224.7z M404.5,207.5h267.9l-2.7-35.5H407.2
			L404.5,207.5z"/>
	</g>
	<path class="st1" d="M786,349.6H291c-2.5,0-4.8-1.1-6.5-2.9c-1.6-1.8-2.4-4.3-2.1-6.8l15-124.8c0.5-4.3,4.2-7.6,8.6-7.6H771
		c4.4,0,8.1,3.3,8.6,7.6l14.9,124.8c0.3,2.5-0.5,4.9-2.1,6.8C790.8,348.5,788.4,349.6,786,349.6z M300.7,332.3h475.5l-12.9-107.6
		H313.6L300.7,332.3z"/>
	<g>
		<g>
			<g>
				<path class="st0" d="M310.7,426.2c0,5.3-4.3,9.6-9.6,9.6H257c-5.3,0-9.6-4.3-9.6-9.6v-44.1c0-5.3,4.3-9.6,9.6-9.6h44.1
					c5.3,0,9.6,4.3,9.6,9.6V426.2z"/>
				<path class="st1" d="M301.1,444.5H257c-10.1,0-18.3-8.2-18.3-18.3v-44.1c0-10.1,8.2-18.3,18.3-18.3h44.1
					c10.1,0,18.3,8.2,18.3,18.3v44.1C319.4,436.3,311.2,444.5,301.1,444.5z M257,381.1c-0.5,0-1,0.4-1,1v44.1c0,0.6,0.4,1,1,1h44.1
					c0.6,0,1-0.4,1-1v-44.1c0-0.5-0.4-1-1-1H257z"/>
			</g>
		</g>
		<g>
			<g>
				<path class="st0" d="M766.2,426.2c0,5.3,4.3,9.6,9.6,9.6H820c5.3,0,9.6-4.3,9.6-9.6v-44.1c0-5.3-4.3-9.6-9.6-9.6h-44.1
					c-5.3,0-9.6,4.3-9.6,9.6V426.2z"/>
				<path class="st1" d="M820,444.5h-44.1c-10.1,0-18.3-8.2-18.3-18.3v-44.1c0-10.1,8.2-18.3,18.3-18.3H820
					c10.1,0,18.3,8.2,18.3,18.3v44.1C838.3,436.3,830.1,444.5,820,444.5z M775.9,381.1c-0.5,0-1,0.4-1,1v44.1c0,0.5,0.4,1,1,1H820
					c0.6,0,1-0.4,1-1v-44.1c0-0.6-0.4-1-1-1H775.9z"/>
			</g>
		</g>
	</g>
	<g>
		<g>
			<g>
				<path class="st0" d="M418.2,295c0,5.3-4.3,9.6-9.6,9.6h-44.1c-5.3,0-9.6-4.3-9.6-9.6v-44.1c0-5.3,4.3-9.6,9.6-9.6h44.1
					c5.3,0,9.6,4.3,9.6,9.6V295z"/>
				<path class="st1" d="M408.6,313.3h-44.1c-10.1,0-18.3-8.2-18.3-18.3v-44.1c0-10.1,8.2-18.3,18.3-18.3h44.1
					c10.1,0,18.3,8.2,18.3,18.3V295C426.9,305.1,418.7,313.3,408.6,313.3z M364.5,249.9c-0.6,0-1,0.4-1,1V295c0,0.6,0.4,1,1,1h44.1
					c0.5,0,1-0.4,1-1v-44.1c0-0.6-0.4-1-1-1H364.5z"/>
			</g>
			<g>
				<path class="st0" d="M522,295c0,5.3-4.3,9.6-9.6,9.6h-44.1c-5.3,0-9.6-4.3-9.6-9.6v-44.1c0-5.3,4.3-9.6,9.6-9.6h44.1
					c5.3,0,9.6,4.3,9.6,9.6V295z"/>
				<path class="st1" d="M512.4,313.3h-44.1c-10.1,0-18.3-8.2-18.3-18.3v-44.1c0-10.1,8.2-18.3,18.3-18.3h44.1
					c10.1,0,18.3,8.2,18.3,18.3V295C530.7,305.1,522.5,313.3,512.4,313.3z M468.3,249.9c-0.6,0-1,0.4-1,1V295c0,0.5,0.4,1,1,1h44.1
					c0.5,0,1-0.4,1-1v-44.1c0-0.6-0.4-1-1-1H468.3z"/>
			</g>
		</g>
		<g>
			<g>
				<path class="st0" d="M658.7,295c0,5.3,4.3,9.6,9.6,9.6h44.1c5.3,0,9.6-4.3,9.6-9.6v-44.1c0-5.3-4.3-9.6-9.6-9.6h-44.1
					c-5.3,0-9.6,4.3-9.6,9.6V295z"/>
				<path class="st1" d="M712.5,313.3h-44.1c-10.1,0-18.3-8.2-18.3-18.3v-44.1c0-10.1,8.2-18.3,18.3-18.3h44.1
					c10.1,0,18.3,8.2,18.3,18.3V295C730.7,305.1,722.6,313.3,712.5,313.3z M668.3,249.9c-0.5,0-1,0.4-1,1V295c0,0.5,0.4,1,1,1h44.1
					c0.5,0,1-0.4,1-1v-44.1c0-0.5-0.4-1-1-1H668.3z"/>
			</g>
			<g>
				<path class="st0" d="M554.9,295c0,5.3,4.3,9.6,9.6,9.6h44.1c5.3,0,9.6-4.3,9.6-9.6v-44.1c0-5.3-4.3-9.6-9.6-9.6h-44.1
					c-5.3,0-9.6,4.3-9.6,9.6V295z"/>
				<path class="st1" d="M608.7,313.3h-44.1c-10.1,0-18.3-8.2-18.3-18.3v-44.1c0-10.1,8.2-18.3,18.3-18.3h44.1
					c10.1,0,18.3,8.2,18.3,18.3V295C627,305.1,618.8,313.3,608.7,313.3z M564.5,249.9c-0.5,0-1,0.4-1,1V295c0,0.6,0.4,1,1,1h44.1
					c0.6,0,1-0.4,1-1v-44.1c0-0.6-0.4-1-1-1H564.5z"/>
			</g>
		</g>
	</g>
	<path class="st1" d="M935.6,925.3c-19,0-28.9-5.9-37.6-11.1c-7.8-4.7-14.5-8.7-28.8-8.7s-21,4-28.8,8.7
		c-8.7,5.2-18.6,11.1-37.6,11.1c-19,0-28.9-5.9-37.6-11.1c-7.8-4.7-14.5-8.7-28.7-8.7c-14.2,0-21,4-28.8,8.7
		c-8.7,5.2-18.6,11.1-37.6,11.1c-19,0-28.9-5.9-37.6-11.1c-7.8-4.7-14.5-8.7-28.7-8.7c-14.2,0-21,4-28.8,8.7
		c-8.7,5.2-18.6,11.1-37.6,11.1c-19,0-28.9-5.9-37.6-11.1c-7.8-4.7-14.5-8.7-28.8-8.7c-14.2,0-20.9,4-28.7,8.7
		c-8.7,5.2-18.6,11.1-37.6,11.1s-28.9-5.9-37.6-11.1c-7.8-4.7-14.5-8.7-28.8-8.7c-14.2,0-20.9,4-28.7,8.7
		c-8.7,5.2-18.6,11.1-37.6,11.1c-19,0-28.9-5.9-37.6-11.1c-7.8-4.7-14.5-8.7-28.7-8.7c-14.2,0-21,4-28.8,8.7
		c-8.7,5.2-18.6,11.1-37.6,11.1c-4.8,0-8.6-3.9-8.6-8.6s3.9-8.6,8.6-8.6c14.2,0,21-4,28.8-8.7c8.7-5.2,18.6-11.1,37.6-11.1
		c19,0,28.9,5.9,37.6,11.1c7.8,4.7,14.5,8.7,28.8,8.7c14.2,0,20.9-4,28.7-8.7c8.7-5.2,18.6-11.1,37.6-11.1c19,0,28.9,5.9,37.6,11.1
		c7.8,4.7,14.5,8.7,28.7,8.7c14.2,0,20.9-4,28.7-8.7c8.7-5.2,18.6-11.1,37.6-11.1c19,0,28.9,5.9,37.6,11.1
		c7.8,4.7,14.5,8.7,28.7,8.7c14.2,0,21-4,28.8-8.7c8.7-5.2,18.6-11.1,37.6-11.1c19,0,28.9,5.9,37.6,11.1c7.8,4.7,14.5,8.7,28.7,8.7
		c14.2,0,21-4,28.8-8.7c8.7-5.2,18.6-11.1,37.6-11.1s28.9,5.9,37.6,11.1c7.8,4.7,14.5,8.7,28.7,8.7c14.2,0,21-4,28.8-8.7
		c8.7-5.2,18.6-11.1,37.6-11.1c19,0,28.9,5.9,37.6,11.1c7.8,4.7,14.5,8.7,28.8,8.7c4.8,0,8.6,3.9,8.6,8.6S940.4,925.3,935.6,925.3z"
		/>
	<path class="st1" d="M538.6,681c-4.8,0-8.6-3.9-8.6-8.6v-300c0-4.8,3.9-8.6,8.6-8.6s8.6,3.9,8.6,8.6v300
		C547.3,677.2,543.4,681,538.6,681z"/>
	<g>
		<g>
			<path class="st0" d="M480.6,505.8c-0.3,21.4-10.3,41.8-22.3,45.6c-12,3.8-21.7-10.3-21.7-31.6c0-21.3,10-41.7,22.3-45.6
				C471.2,470.2,480.9,484.4,480.6,505.8z"/>
			<path class="st1" d="M454.5,560.7c-4.3,0-8.6-1.4-12.3-4.1c-8.9-6.5-14.2-20.2-14.2-36.7c0-25.5,12.2-48.7,28.3-53.9
				c6.7-2.2,13.5-1.1,19.2,3.1c8.9,6.6,14,20.3,13.8,36.8v0c-0.4,25.6-12.5,48.7-28.3,53.7C458.8,560.3,456.6,560.7,454.5,560.7z
				 M463,482.2c-0.4,0-0.9,0.1-1.4,0.3c-7.7,2.5-16.3,19-16.3,37.4c0,12.1,3.6,20.2,7.1,22.8c1.1,0.8,2.1,1,3.3,0.6
				c6.6-2.1,15.9-17.4,16.2-37.5c0.2-12.1-3.3-20.1-6.8-22.7C464.4,482.4,463.7,482.2,463,482.2z M480.6,505.8L480.6,505.8
				L480.6,505.8z"/>
		</g>
	</g>
</g>
</svg>
