<?xml version="1.0" encoding="utf-8"?>
<!-- Generator: Adobe Illustrator 26.0.3, SVG Export Plug-In . SVG Version: 6.00 Build 0)  -->
<svg version="1.1" id="Layer_1" xmlns="http://www.w3.org/2000/svg" xmlns:xlink="http://www.w3.org/1999/xlink" x="0px" y="0px"
	 viewBox="0 0 1080 1080" style="enable-background:new 0 0 1080 1080;" xml:space="preserve">
<style type="text/css">
	.st0{fill:#9BC9EB;}
	.st1{fill:#4D598D;}
	.st2{fill:#9BC9EB;stroke:#4D598D;stroke-width:16;stroke-linecap:round;stroke-linejoin:round;stroke-miterlimit:10;}
	.st3{fill:#4D598D;stroke:#4D598D;stroke-width:0.3;stroke-miterlimit:10;}
	.st4{fill:#FFFFFF;}
	.st5{fill:#263A6E;}
	.st6{fill:#0E71B9;}
	.st7{fill:#23376F;}
	.st8{fill:#FFFFFF;stroke:#23376F;stroke-width:24;stroke-linecap:round;stroke-linejoin:round;stroke-miterlimit:10;}
	.st9{fill:#20ADE4;}
	.st10{fill:#EDF4FB;}
	.st11{fill:#234698;}
	.st12{fill-rule:evenodd;clip-rule:evenodd;fill:#0E71B9;}
	.st13{fill-rule:evenodd;clip-rule:evenodd;fill:#EDF4FB;}
	.st14{fill:#C6DEF4;}
	.st15{fill:#ABC7E8;}
	.st16{fill-rule:evenodd;clip-rule:evenodd;fill:#9CC0E6;}
	.st17{fill-rule:evenodd;clip-rule:evenodd;fill:#FFFFFF;}
	.st18{fill-rule:evenodd;clip-rule:evenodd;fill:#BBD4EE;}
	.st19{fill:#568AC8;}
	.st20{fill-rule:evenodd;clip-rule:evenodd;fill:#7AA8D9;}
	.st21{fill:#BBD4EE;}
	.st22{fill-rule:evenodd;clip-rule:evenodd;fill:#F4B1B1;}
	.st23{fill-rule:evenodd;clip-rule:evenodd;fill:#CDDFF3;}
	.st24{fill-rule:evenodd;clip-rule:evenodd;fill:#3050A3;}
	
		.st25{clip-path:url(#SVGID_00000132801864405447659930000006964338790454095238_);fill:url(#SVGID_00000080914073699753109600000011664176167981723038_);}
	.st26{fill-rule:evenodd;clip-rule:evenodd;fill:#25AFA6;}
	.st27{fill-rule:evenodd;clip-rule:evenodd;fill:#5ABEBB;}
	.st28{fill-rule:evenodd;clip-rule:evenodd;fill:#355399;}
	.st29{fill-rule:evenodd;clip-rule:evenodd;fill:#223B74;}
	.st30{fill-rule:evenodd;clip-rule:evenodd;fill:#76A1D5;}
	.st31{fill-rule:evenodd;clip-rule:evenodd;fill:#E98385;}
	.st32{fill:#F4B1B1;}
	.st33{fill:#F5EC79;}
	.st34{fill:#DDE293;}
	.st35{fill-rule:evenodd;clip-rule:evenodd;fill:#F5EC79;}
	.st36{fill-rule:evenodd;clip-rule:evenodd;fill:#DDE293;}
	.st37{fill-rule:evenodd;clip-rule:evenodd;fill:#F3AF8F;}
	.st38{fill-rule:evenodd;clip-rule:evenodd;fill:#7FAADA;}
	.st39{fill-rule:evenodd;clip-rule:evenodd;fill:#929CCF;}
	.st40{fill-rule:evenodd;clip-rule:evenodd;fill:#6E7DBD;}
	.st41{fill:#6E7DBD;}
	.st42{fill-rule:evenodd;clip-rule:evenodd;fill:#E16C6C;}
	.st43{fill:#929CCF;}
	.st44{opacity:0.79;fill-rule:evenodd;clip-rule:evenodd;fill:#FFFFFF;}
	.st45{fill:#11497F;}
	.st46{fill:#C4E8FA;}
	.st47{fill:none;stroke:#4F74B9;stroke-width:9.983;stroke-linecap:round;stroke-linejoin:round;stroke-miterlimit:10;}
	.st48{fill:#4F74B9;}
</style>
<g>
	<g>
		<path class="st1" d="M262.8,517.1c-34.4,63-56.6,137.8-56.6,190.4c0,43.7,17.4,80.3,51.8,108.6c3.4,2.6,3.9,7.6,1.1,10.9
			c-1.6,1.9-3.7,2.8-5.9,2.8c-1.9,0-3.6-0.5-5-1.7c-38.3-31.4-57.6-71.9-57.6-120.6c0-55.1,23-132.7,58.5-197.9
			c2-3.7,6.9-5.1,10.6-3.1C263.4,508.6,264.8,513.3,262.8,517.1z"/>
		<path class="st1" d="M253.2,831.1c-2.4,0-4.3-0.7-5.8-2.1c-38.5-31.6-58-72.5-58-121.5c0-55.1,23-133,58.7-198.5
			c2.3-4.3,8-6,12.3-3.6c4.4,2.4,6,7.8,3.6,12.3l0,0c-34.3,62.9-56.5,137.4-56.5,189.8c0,43.3,17.3,79.5,51.3,107.6
			c1.9,1.5,3.1,3.6,3.3,6.1c0.2,2.4-0.5,4.8-2.1,6.7C258.3,829.9,255.8,831.1,253.2,831.1z M256,506.9c-2.3,0-4.6,1.2-5.8,3.4
			c-35.4,65.1-58.3,142.6-58.3,197.3c0,48.2,19.2,88.5,57.1,119.6c1.1,1,2.4,1.4,4.2,1.4c1.9,0,3.7-0.8,4.9-2.3
			c1.1-1.3,1.7-3,1.5-4.7c-0.2-1.7-1-3.2-2.4-4.3c-34.7-28.6-52.3-65.5-52.3-109.6c0-52.8,22.3-127.8,56.8-191
			c1.7-3.3,0.5-7.1-2.6-8.8C258.1,507.2,257.1,506.9,256,506.9z"/>
	</g>
	<g>
		<path class="st1" d="M304.3,441.5c3.4,2.6,3.9,7.6,1.2,10.9c-6.5,8.1-12.9,16.8-19.1,25.8c-1.6,2.3-4,3.4-6.5,3.4
			c-1.4,0-3-0.5-4.4-1.2c-3.6-2.5-4.4-7.3-2-10.9c6.4-9.3,13.1-18.5,19.9-26.8C296.1,439.4,301.1,438.9,304.3,441.5z"/>
		<path class="st1" d="M279.9,483c-1.6,0-3.3-0.5-5-1.4c-4.2-2.9-5.2-8.5-2.5-12.7c7.3-10.6,13.8-19.4,20-26.9
			c1.4-1.9,3.6-3.1,6-3.3c2.4-0.3,4.8,0.4,6.7,1.9c1.9,1.5,3.1,3.6,3.4,6c0.3,2.4-0.4,4.9-1.9,6.7c-6,7.5-12.3,15.9-19.1,25.7
			C285.8,481.5,283,483,279.9,483z M299.5,441.1c-0.3,0-0.5,0-0.8,0c-1.7,0.2-3.2,1.1-4.3,2.4c-6.2,7.5-12.7,16.2-19.9,26.7
			c-2,3-1.2,7.1,1.7,9.1c1.1,0.6,2.5,1,3.6,1c2.3,0,4.2-1,5.5-2.8c6.8-9.9,13.1-18.4,19.2-25.9c1.1-1.3,1.6-3.1,1.4-4.8
			c-0.2-1.7-1.1-3.2-2.4-4.3l0,0C302.4,441.6,301,441.1,299.5,441.1z"/>
	</g>
	<path class="st0" d="M618,921.6c1.2,4-1.1,8.4-5.3,9.6c-45.9,13.7-97.7,21-149.8,21c-166.5,0-334.5-70.8-334.5-229
		c0-103.8,70.5-304.1,198.5-402c-1.4-0.8-2.8-1.9-4.2-2.8c-3.6-2.6-4.2-7.5-1.7-10.9c2.2-3.3,6.5-4,9.8-2.2
		c-2.6-80.1-60.4-164.4-61-165.5c-2-2.8-1.9-6.7,0.5-9.5c2.3-2.6,6.1-3.4,9.3-1.9c54.4,26.3,226,42.9,265.9,1.6
		c3-3,7.9-3.1,10.9-0.2c3.1,3,3.3,7.9,0.3,11c-14.3,14.9-25.7,30.5-34.5,45.9c28.6-3.6,77.8-15.9,122.1-57.1c3-2.6,7.6-2.8,10.6,0.2
		c3.1,2.8,3.3,7.5,0.6,10.6c-0.6,0.8-59.4,71.9-60.8,163.8c3.1-2,7.3-1.5,10,1.2c2.8,3.3,2.5,8.2-0.8,11c-1.7,1.4-3.4,3-5.3,4.4
		c19.8,14.9,38.9,33,56.9,53.7c2.8,3.3,2.5,8.1-0.8,10.9c-1.6,1.4-3.3,2-5.1,2c-2.2,0-4.4-0.9-5.9-2.6
		c-18.7-21.3-38.4-39.8-58.8-54.9c-31.1,17.7-76.1,27.7-122.3,27.7c-42.9,0-87-8.7-121.7-27.7c-126.8,93.6-197,291.5-197,393.3
		c0,168.5,200.5,213.4,318.9,213.4c50.6,0,100.8-7,145.5-20.4C612.4,915.1,616.7,917.4,618,921.6z"/>
	<path class="st0" d="M952.9,461.4V741c0,129.3-213.9,207.5-222.9,210.8c-0.9,0.3-1.7,0.5-2.6,0.5c-0.9,0-1.7-0.2-2.6-0.5
		c-9-3.3-222.9-81.5-222.9-210.8V461.4c0-3.3,2-6.2,5.1-7.3l217.8-77c1.7-0.6,3.6-0.6,5.3,0l217.8,77
		C950.9,455.2,952.9,458.2,952.9,461.4z"/>
	<g>
		<g>
			<path class="st1" d="M612.7,931.3c-45.9,13.7-97.7,21-149.8,21c-4.4,0-7.8-3.4-7.8-7.8s3.4-7.8,7.8-7.8
				c50.6,0,100.8-7,145.5-20.4c4-1.2,8.4,1.1,9.6,5.3C619.2,925.7,616.9,930,612.7,931.3z"/>
			<path class="st1" d="M462.9,953.6c-5.1,0-9.1-4-9.1-9.1s4-9.1,9.1-9.1c50.5,0,100.7-7,145.1-20.3c2.3-0.7,4.7-0.5,6.8,0.7
				c2.2,1.2,3.7,3.1,4.4,5.5c0.7,2.3,0.5,4.7-0.7,6.8c-1.2,2.2-3.1,3.7-5.5,4.4l0,0C566.9,946.3,515,953.6,462.9,953.6z
				 M610.5,917.3c-0.6,0-1.2,0.1-1.8,0.3c-44.6,13.4-95.1,20.4-145.8,20.4c-3.6,0-6.5,2.8-6.5,6.5s2.8,6.5,6.5,6.5
				c51.8,0,103.5-7.2,149.4-20.9l0,0c1.7-0.5,3.1-1.6,3.9-3.2c0.8-1.5,1-3.2,0.5-4.8c-0.5-1.7-1.6-3.1-3.2-3.9
				C612.6,917.6,611.6,917.3,610.5,917.3z"/>
		</g>
		<g>
			<path class="st1" d="M654.7,385.5c-1.6,1.4-3.3,2-5.1,2c-2.2,0-4.4-0.9-5.9-2.6c-18.7-21.3-38.4-39.8-58.8-54.9
				c-0.6-0.6-1.4-1.1-2-1.5c-0.2,0-0.2-0.2-0.2-0.2c-0.5-0.3-0.8-0.6-1.1-0.9c-0.5-0.5-0.9-1.1-1.2-1.7c-0.3-0.8-0.6-1.7-0.8-2.6
				c0-0.2,0-0.2,0-0.3v-0.5c0-1.5,0.5-3.1,1.6-4.5c2.5-3.6,7.3-4.4,10.7-1.7c1.1,0.8,2,1.6,3.1,2.3c1.2,0.8,2.3,1.7,3.6,2.6
				c19.8,14.9,38.9,33,56.9,53.7C658.3,377.9,658,382.7,654.7,385.5z"/>
			<path class="st1" d="M649.6,388.8c-2.6,0-5.1-1.1-6.9-3.1c-18.8-21.5-38.5-39.9-58.6-54.8c-0.5-0.5-1-0.9-1.5-1.2l-0.2-0.1h-0.9
				l-0.1-0.8c-0.3-0.2-0.5-0.4-0.7-0.6c-0.7-0.7-1.2-1.4-1.6-2.1c-0.5-1.1-0.7-2.1-0.9-3l0-1c0-1.9,0.6-3.8,1.8-5.3
				c1.4-2,3.5-3.3,5.9-3.7c2.4-0.4,4.7,0.3,6.7,1.7c0.5,0.4,1,0.8,1.5,1.1c0.5,0.4,1,0.8,1.6,1.2c0.8,0.5,1.7,1.2,2.5,1.8l1.1,0.8
				c19.8,15,39,33.1,57.1,53.9c3.3,3.8,2.9,9.4-0.9,12.7C653.8,388.1,651.8,388.8,649.6,388.8z M584,327.7l0.1,0.1
				c0.6,0.4,1.2,0.8,1.7,1.3c20.1,14.9,40,33.4,58.9,55c2.4,2.6,6.5,3,9.2,0.5l0,0c2.7-2.3,3-6.3,0.6-9.1
				c-18-20.6-37.1-38.6-56.7-53.5l-1.1-0.9c-0.8-0.6-1.5-1.2-2.4-1.7c-0.6-0.5-1.2-0.9-1.7-1.3c-0.5-0.4-1-0.7-1.5-1.1
				c-1.4-1.1-3.1-1.5-4.7-1.3c-1.7,0.3-3.2,1.2-4.2,2.7c-0.9,1.1-1.3,2.4-1.3,3.8v0.5c0.1,0.8,0.3,1.6,0.7,2.5
				c0.2,0.4,0.6,0.9,1,1.3c0.3,0.3,0.6,0.5,0.9,0.8L584,327.7z"/>
		</g>
		<g>
			<path class="st1" d="M470.6,944.5c0,4.4-3.4,7.8-7.8,7.8c-166.5,0-334.5-70.8-334.5-229c0-103.8,70.5-304.1,198.5-402
				c1.2-1.1,2.7-2,3.9-3c1.1-0.8,2-1.5,3.1-2.3c3.4-2.6,8.2-1.9,10.7,1.7c1.1,1.4,1.6,3,1.6,4.5v0.5c0,0.2,0,0.2,0,0.3
				c-0.2,0.9-0.5,1.9-0.8,2.6c-0.3,0.6-0.8,1.2-1.2,1.7c-0.3,0.3-0.6,0.6-1.1,0.9c0,0,0,0.2-0.2,0.2c-0.6,0.5-1.4,0.9-2,1.5
				c-126.8,93.6-197,291.5-197,393.3c0,168.5,200.5,213.4,318.9,213.4C467.2,936.7,470.6,940.1,470.6,944.5z"/>
			<path class="st1" d="M462.9,953.6c-167.1,0-335.8-71.2-335.8-230.3c0-102.6,70.9-305.1,199-403c0.8-0.8,1.8-1.5,2.8-2.2l1.1-0.8
				c0.6-0.4,1.1-0.8,1.6-1.2c0.5-0.4,1-0.8,1.5-1.2c1.9-1.5,4.2-2.1,6.6-1.7c2.4,0.4,4.5,1.7,5.9,3.7c1.2,1.5,1.8,3.3,1.8,5.3l0,1
				c-0.2,0.9-0.4,1.9-0.8,2.9c-0.4,0.8-0.9,1.6-1.5,2.2c-0.2,0.2-0.5,0.4-0.7,0.7v0.6l-1.2,0.3c-0.4,0.3-0.9,0.6-1.3,1
				c-126.6,93.5-196.6,291.3-196.6,392.4c0,167.5,199.6,212.1,317.6,212.1c5.1,0,9.1,4,9.1,9.1S468,953.6,462.9,953.6z M338.4,315.7
				c-1.3,0-2.6,0.4-3.7,1.3c-0.5,0.4-1,0.8-1.5,1.1c-0.5,0.4-1.1,0.8-1.7,1.2l-1.1,0.8c-0.9,0.6-1.8,1.3-2.7,2.1
				c-127.6,97.5-198.1,299-198.1,401C129.7,880.6,297,951,462.9,951c3.6,0,6.5-2.8,6.5-6.5s-2.8-6.5-6.5-6.5
				c-118.9,0-320.2-45.2-320.2-214.7c0-101.6,70.3-300.4,197.5-394.3c0.4-0.4,1-0.8,1.5-1.2l0.7-0.6c0.3-0.2,0.5-0.4,0.8-0.7
				c0.5-0.5,0.8-1,1.1-1.5c0.3-0.8,0.5-1.5,0.6-2.3l0-0.6c0-1.4-0.4-2.6-1.3-3.7c-1.1-1.5-2.5-2.5-4.3-2.7
				C339.1,315.7,338.7,315.7,338.4,315.7z"/>
		</g>
		<g>
			<path class="st1" d="M262.8,517.1c-34.4,63-56.6,137.8-56.6,190.4c0,43.7,17.4,80.3,51.8,108.6c3.4,2.6,3.9,7.6,1.1,10.9
				c-1.6,1.9-3.7,2.8-5.9,2.8c-1.9,0-3.6-0.5-5-1.7c-38.3-31.4-57.6-71.9-57.6-120.6c0-55.1,23-132.7,58.5-197.9
				c2-3.7,6.9-5.1,10.6-3.1C263.4,508.6,264.8,513.3,262.8,517.1z"/>
			<path class="st1" d="M253.2,831.1c-2.4,0-4.3-0.7-5.8-2.1c-38.5-31.6-58-72.5-58-121.5c0-55.1,23-133,58.7-198.5
				c2.3-4.3,8-6,12.3-3.6c4.4,2.4,6,7.8,3.6,12.3l0,0c-34.3,62.9-56.5,137.4-56.5,189.8c0,43.3,17.3,79.5,51.3,107.6
				c1.9,1.5,3.1,3.6,3.3,6.1c0.2,2.4-0.5,4.8-2.1,6.7C258.3,829.9,255.8,831.1,253.2,831.1z M256,506.9c-2.3,0-4.6,1.2-5.8,3.4
				c-35.4,65.1-58.3,142.6-58.3,197.3c0,48.2,19.2,88.5,57.1,119.6c1.1,1,2.4,1.4,4.2,1.4c1.9,0,3.7-0.8,4.9-2.3
				c1.1-1.3,1.7-3,1.5-4.7c-0.2-1.7-1-3.2-2.4-4.3c-34.7-28.6-52.3-65.5-52.3-109.6c0-52.8,22.3-127.8,56.8-191
				c1.7-3.3,0.5-7.1-2.6-8.8C258.1,507.2,257.1,506.9,256,506.9z"/>
		</g>
		<g>
			<path class="st1" d="M305.6,452.4c-6.5,8.1-12.9,16.8-19.1,25.8c-1.6,2.3-4,3.4-6.5,3.4c-1.4,0-3-0.5-4.4-1.2
				c-3.6-2.5-4.4-7.3-2-10.9c6.4-9.3,13.1-18.5,19.9-26.8c2.6-3.4,7.6-3.9,10.9-1.2C307.8,444.2,308.2,449.2,305.6,452.4z"/>
			<path class="st1" d="M279.9,483c-1.6,0-3.3-0.5-5-1.4c-4.2-2.9-5.2-8.5-2.5-12.7c7.3-10.6,13.8-19.4,20-26.9
				c1.4-1.9,3.6-3.1,6-3.3c2.4-0.3,4.9,0.4,6.7,1.9c1.9,1.5,3.1,3.6,3.4,6c0.3,2.4-0.4,4.9-1.9,6.7l0,0c-6,7.5-12.3,15.9-19.1,25.7
				C285.8,481.5,283,483,279.9,483z M299.5,441.1c-0.2,0-0.5,0-0.7,0c-1.7,0.2-3.2,1.1-4.3,2.4c-6.2,7.5-12.7,16.2-19.9,26.7
				c-2,3-1.2,7.1,1.7,9.1c1.1,0.6,2.5,1,3.6,1c2.3,0,4.2-1,5.5-2.8c6.8-9.9,13.1-18.4,19.2-25.9l0,0c1.1-1.3,1.6-3.1,1.4-4.8
				c-0.2-1.7-1.1-3.2-2.4-4.3C302.4,441.6,301,441.1,299.5,441.1z"/>
		</g>
		<g>
			<path class="st1" d="M655.5,140.5c-0.6,0.8-59.4,71.9-60.8,163.8c0,4.7,0,9.3,0.3,14c0,1.1,0.2,2.3,0.2,3.4c0,0.6,0,1.2-0.3,1.9
				c-0.5,3.4-3.3,6.1-7,6.4h-0.5c-0.6,0-1.2-0.2-1.9-0.5c-0.9,0-1.9-0.5-2.6-1.1c-0.2,0-0.2-0.2-0.2-0.2c-0.5-0.3-0.8-0.6-1.1-0.9
				c-0.5-0.5-0.9-1.1-1.2-1.7c-0.3-0.8-0.6-1.7-0.8-2.6c0-0.2,0-0.2,0-0.3v-0.5c-0.2-2.5-0.3-4.8-0.2-7.2
				c-2.2-60.4,19.3-112.2,38-145.5c-42.2,25.7-82.8,32.2-104.2,33.8c-1.7,0.2-3.3,0.3-4.7,0.3c-4.4,0.5-7.9-3.1-8.1-7.3
				c-0.2-4.4,3.1-8.1,7.3-8.2c3.9-0.2,8.7-0.6,14.5-1.2c28.6-3.6,77.8-15.9,122.1-57.1c3-2.6,7.6-2.8,10.6,0.2
				C658,132.7,658.1,137.4,655.5,140.5z"/>
			<path class="st1" d="M587.3,331.3c-0.7,0-1.5-0.2-2.2-0.5c-1.1-0.1-2.1-0.6-2.8-1.1h-0.9l-0.1-0.8c-0.3-0.2-0.5-0.4-0.7-0.6
				c-0.7-0.7-1.2-1.4-1.6-2.1c-0.5-1.1-0.7-2.1-0.9-3l0-1c-0.2-2.6-0.3-4.9-0.1-7.2c-2.1-58.1,17.8-108.5,35.8-141.8
				c-41.2,24-80.6,30-100.7,31.5l-0.4,0c-1.6,0.1-3,0.3-4.3,0.3c-2.2,0.2-4.5-0.5-6.3-2c-1.9-1.6-3-4-3.1-6.5
				c-0.1-2.5,0.7-4.8,2.3-6.6c1.6-1.8,3.8-2.9,6.2-3c3.8-0.2,8.5-0.6,14.4-1.2c26-3.2,76.4-14.9,121.4-56.7c3.6-3.2,9-3.1,12.4,0.2
				c3.5,3.2,3.8,8.6,0.7,12.3l0,0c-2.4,3-59.1,73.5-60.5,163c0,4.6,0,9.3,0.3,13.9c0,0.6,0,1.2,0.1,1.7c0,0.6,0.1,1.2,0.1,1.8
				c0,0.6,0,1.4-0.4,2.2c-0.6,4-4,7-8.2,7.3L587.3,331.3z M584,327.7c0.5,0.3,1,0.5,1.5,0.5l0.6,0.1c0.4,0.2,0.9,0.3,1.3,0.3h0.5
				c3-0.2,5.3-2.4,5.7-5.3l0.1-0.4c0.2-0.3,0.2-0.7,0.2-1.3c0-0.5,0-1.1-0.1-1.6c0-0.6-0.1-1.2-0.1-1.8c-0.3-4.6-0.3-9.4-0.3-14
				c1.4-90.4,58.6-161.6,61.1-164.6l0.1-0.1c2.2-2.6,2-6.5-0.5-8.8c-2.4-2.4-6.3-2.4-8.8-0.2c-45.5,42.3-96.5,54.1-122.8,57.4
				c-6,0.6-10.7,1.1-14.6,1.3c-1.7,0.1-3.2,0.8-4.4,2.1c-1.2,1.3-1.8,3-1.7,4.8c0.1,1.8,0.9,3.5,2.2,4.7c1.3,1.1,2.9,1.6,4.4,1.4
				c1.4,0,2.8-0.1,4.2-0.3l0.4,0c20.6-1.5,61.5-7.9,103.7-33.6l4.2-2.6l-2.4,4.3c-18.4,32.9-40,84.7-37.8,144.8
				c-0.1,2.3,0,4.5,0.1,6.9l0,0.8c0.1,0.8,0.3,1.6,0.7,2.5c0.2,0.4,0.6,0.9,1,1.3c0.3,0.3,0.6,0.5,0.9,0.8L584,327.7z"/>
		</g>
		<g>
			<path class="st1" d="M603.8,316.6c-1.7,1.4-3.4,3-5.3,4.4c-1.1,0.8-2.3,1.7-3.7,2.6c-3,2-6.1,4-9.3,5.9c-0.2,0.2-0.5,0.3-0.6,0.5
				c-31.1,17.7-76.1,27.7-122.3,27.7c-42.9,0-87-8.7-121.7-27.7c-0.3-0.2-0.5-0.3-0.6-0.5c-3.3-1.7-6.2-3.4-9.2-5.3
				c-1.5-0.9-3-1.9-4.2-2.9c-1.4-0.8-2.8-1.9-4.2-2.8c-3.6-2.6-4.2-7.5-1.7-10.9c2.2-3.3,6.5-4,9.8-2.2c0.3,0,0.8,0.3,1.1,0.5
				c4.7,3.4,9.5,6.5,14.6,9.3c68,38.4,177.8,33.1,232.9-0.2c5.3-3.1,10-6.5,14.2-10.1c0.3-0.3,0.6-0.5,1.1-0.6c3.1-2,7.3-1.5,10,1.2
				C607.4,308.8,607.1,313.8,603.8,316.6z"/>
			<path class="st1" d="M462.6,359c-46,0-89.4-9.9-122.3-27.9c-0.3-0.2-0.6-0.4-0.8-0.6c-3.1-1.6-6-3.3-9.1-5.2
				c-1.8-1.1-3.2-2.1-4.4-3.1c-0.8-0.4-1.8-1.1-2.7-1.8c-0.4-0.3-0.9-0.6-1.3-0.9c-4.1-3-5-8.6-2.1-12.7c2.4-3.6,7.3-4.8,11.3-2.7
				c0.4,0.1,0.7,0.3,1,0.4l0.4,0.2c4.8,3.5,9.6,6.6,14.5,9.2c68.4,38.7,178.7,31.8,231.6-0.1c4.9-2.9,9.5-6.2,14-10
				c0.4-0.4,0.9-0.6,1.5-0.9c3.4-2.2,8.3-1.7,11.3,1.6c1.7,1.9,2.4,4.3,2.2,6.8c-0.2,2.4-1.3,4.6-3.1,6.2l0,0L603,319
				c-1.2,1-2.4,2.1-3.7,3l-1,0.7c-0.9,0.6-1.8,1.3-2.8,2c-3.3,2.3-6.4,4.2-9.3,5.9c-0.1,0.1-0.3,0.2-0.4,0.3l-0.4,0.3
				C554.4,348.8,509.6,359,462.6,359z M327,305.7c-2,0-3.8,0.9-5,2.6c-2.2,3-1.5,7,1.4,9.1c0.4,0.3,0.9,0.6,1.3,0.9
				c0.9,0.6,1.8,1.3,2.7,1.8c1.2,1.1,2.5,1.9,4.2,3c3.1,1.9,6,3.6,9.1,5.3l0.6,0.5c32.5,17.8,75.4,27.5,121,27.5
				c46.6,0,90.9-10,121.6-27.5c-0.1,0-0.1,0,0.2-0.2l0.4-0.3c2.9-1.7,5.9-3.6,9.2-5.9c1-0.7,1.9-1.3,2.8-1.9l1-0.7
				c1.2-0.9,2.4-1.9,3.6-2.9l1.6-1.4c1.3-1.1,2.1-2.7,2.2-4.4c0.1-1.8-0.4-3.5-1.6-4.8c-2.2-2.3-5.7-2.7-8.3-1
				c-0.7,0.3-0.8,0.3-0.9,0.5c-4.7,4-9.4,7.3-14.4,10.3c-53.6,32.4-162.9,40.4-234.2,0.2c-5-2.7-9.8-5.8-14.7-9.4
				c-0.3-0.1-0.4-0.2-0.5-0.2l-0.5-0.2C329.2,306,328.1,305.7,327,305.7z"/>
		</g>
		<g>
			<path class="st1" d="M556.7,141c-14.3,14.9-25.7,30.5-34.5,45.9c-3.4,5.6-6.4,11-9,16.5c-25.2,51.6-25.4,96.4-25.4,97.1
				c0,4.2-3.4,7.8-7.8,7.8c-4.4,0-7.8-3.4-7.8-7.8c-0.2-3.3,0-71.4,47.9-139.4c-62.1,18.8-168.8,7.3-225.1-10.1
				c19.1,32.5,53.1,99.9,51.5,164.3c0,2.3-0.2,4.7-0.3,7v0.5c0,0.2,0,0.2,0,0.3c-0.2,0.9-0.5,1.9-0.8,2.6c-0.3,0.6-0.8,1.2-1.2,1.7
				c-0.3,0.3-0.6,0.6-1.1,0.9c0,0,0,0.2-0.2,0.2c-0.8,0.6-1.7,1.1-2.6,1.1c-0.6,0.3-1.2,0.5-1.9,0.5h-0.5c-3.6-0.3-6.2-2.6-6.9-5.8
				c-0.5-0.8-0.5-1.7-0.5-2.5c0.2-1.1,0.2-2.3,0.2-3.4c0.3-4.4,0.3-8.7,0-12.9c-2.6-80.1-60.4-164.4-61-165.5
				c-2-2.8-1.9-6.7,0.5-9.5c2.3-2.6,6.1-3.4,9.3-1.9c54.4,26.3,226,42.9,265.9,1.6c3-3,7.9-3.1,10.9-0.2
				C559.5,132.9,559.6,137.9,556.7,141z"/>
			<path class="st1" d="M338.4,331.3h-0.5c-4.1-0.3-7.3-3-8.1-6.6c-0.5-1-0.5-2.1-0.5-3c0.2-1.2,0.2-2.4,0.2-3.4
				c0.3-4.4,0.3-8.7,0-12.8c-2.4-72.9-50.8-149.7-60.4-164.4c-0.2-0.3-0.4-0.5-0.4-0.6c-2.3-3.2-2.1-7.8,0.6-11
				c2.7-3.1,7.1-4,10.9-2.2c54.2,26.2,224.9,42.8,264.4,1.8c1.7-1.7,4.1-2.7,6.5-2.7c0,0,0,0,0,0c2.4,0,4.6,0.9,6.2,2.5
				c1.7,1.7,2.8,3.9,2.8,6.4c0.1,2.4-0.8,4.7-2.5,6.5l0,0c-13.4,14-25,29.4-34.3,45.6c-3.3,5.5-6.3,10.8-9,16.4
				c-24.9,51.1-25.2,96.1-25.2,96.5c0,5-4.1,9.1-9.1,9.1c-5.1,0-9.1-4-9.1-9.1c0-0.6-1.1-68.3,46.1-137.1
				c-62.8,17.5-165.4,5.7-219.2-10.2c20.1,34.7,51.5,99.4,50,162.1c0,2.3-0.1,4.5-0.3,7.1l0,0.5l0,0.4c-0.2,0.9-0.4,1.9-0.8,2.9
				c-0.4,0.8-0.9,1.6-1.5,2.2c-0.2,0.2-0.5,0.4-0.7,0.7v0.6l-0.9,0.1c-0.9,0.7-1.9,1.1-2.8,1.1C339.9,331.1,339.2,331.3,338.4,331.3
				z M276.1,129c-1.8,0-3.6,0.8-4.9,2.2c-1.9,2.3-2.1,5.5-0.4,7.9l0.4,0.6c9.7,14.8,58.4,92.1,60.9,165.7c0.3,4.2,0.3,8.6,0,13.1
				c0,1,0,2.3-0.2,3.5c0,0.5,0,1.2,0.3,1.6l0.2,0.4c0.5,2.6,2.8,4.5,5.7,4.7l0.4,0c0.4,0,0.8-0.1,1.3-0.3l0.6-0.1
				c0.4,0,1-0.2,1.5-0.5v-0.1l0.6-0.4c0.3-0.2,0.5-0.4,0.8-0.7c0.5-0.5,0.8-1,1.1-1.5c0.3-0.8,0.5-1.5,0.6-2.3l0-0.6
				c0.2-2.6,0.3-4.8,0.3-7c1.6-63.9-31.5-129.9-51.3-163.6l-1.7-2.9l3.2,1c53.5,16.5,161.2,29.3,224.4,10.1l3.6-1.1l-2.2,3.1
				c-48.8,69.2-47.7,137.9-47.7,138.6c0,3.7,2.9,6.5,6.5,6.5c3.6,0,6.5-2.9,6.5-6.5c0-1.9,0.3-46,25.5-97.6
				c2.8-5.7,5.7-11.1,9.1-16.6c9.5-16.4,21.2-32,34.7-46.1l0,0c1.2-1.2,1.8-2.9,1.8-4.6c0-1.8-0.8-3.4-2-4.6
				c-1.2-1.2-2.7-1.8-4.4-1.8c0,0,0,0,0,0c-1.8,0-3.5,0.7-4.7,1.9c-40.1,41.6-212.7,25.1-267.4-1.3C278.1,129.2,277.1,129,276.1,129
				z"/>
		</g>
		<g>
			<circle class="st1" cx="851.8" cy="656.7" r="15.6"/>
			<path class="st1" d="M851.8,673.5c-9.3,0-16.9-7.6-16.9-16.8c0-9.3,7.6-16.9,16.9-16.9c9.3,0,16.9,7.6,16.9,16.9
				C868.7,666,861.1,673.5,851.8,673.5z M851.8,642.4c-7.9,0-14.3,6.4-14.3,14.3s6.4,14.3,14.3,14.3s14.3-6.4,14.3-14.3
				S859.7,642.4,851.8,642.4z"/>
		</g>
		<g>
			<circle class="st1" cx="602.9" cy="656.7" r="15.6"/>
			<path class="st1" d="M602.9,673.5c-9.3,0-16.9-7.6-16.9-16.8c0-9.3,7.6-16.9,16.9-16.9s16.9,7.6,16.9,16.9
				C619.7,666,612.2,673.5,602.9,673.5z M602.9,642.4c-7.9,0-14.3,6.4-14.3,14.3s6.4,14.3,14.3,14.3s14.3-6.4,14.3-14.3
				S610.7,642.4,602.9,642.4z"/>
		</g>
		<g>
			<path class="st1" d="M739.5,761.9h-24.4c-24.4,0-44.3-19.9-44.3-44.3c0-4.3,3.5-7.8,7.8-7.8c4.3,0,7.8,3.5,7.8,7.8
				c0,15.8,12.9,28.7,28.7,28.7h24.4c15.9,0,28.7-12.9,28.7-28.7v-24.4c0-15.8-12.9-28.7-28.7-28.7h-24.4
				c-24.4,0-44.3-19.9-44.3-44.3v-24.4c0-24.4,19.9-44.3,44.3-44.3h24.4c24.4,0,44.3,19.9,44.3,44.3c0,4.3-3.5,7.8-7.8,7.8
				c-4.3,0-7.8-3.5-7.8-7.8c0-15.8-12.9-28.7-28.7-28.7h-24.4c-15.9,0-28.7,12.9-28.7,28.7v24.4c0,15.8,12.9,28.7,28.7,28.7h24.4
				c24.4,0,44.3,19.9,44.3,44.3v24.4C783.8,742,763.9,761.9,739.5,761.9z"/>
			<path class="st1" d="M739.5,763.2h-24.4c-25.1,0-45.6-20.5-45.6-45.6c0-5,4.1-9.1,9.1-9.1c5,0,9.1,4.1,9.1,9.1
				c0,15.1,12.3,27.4,27.4,27.4h24.4c15.1,0,27.4-12.3,27.4-27.4v-24.4c0-15.1-12.3-27.4-27.4-27.4h-24.4
				c-25.1,0-45.6-20.5-45.6-45.6v-24.4c0-25.1,20.5-45.6,45.6-45.6h24.4c25.1,0,45.6,20.5,45.6,45.6c0,5-4.1,9.1-9.1,9.1
				c-5,0-9.1-4.1-9.1-9.1c0-15.1-12.3-27.4-27.4-27.4h-24.4c-15.1,0-27.4,12.3-27.4,27.4v24.4c0,15.1,12.3,27.4,27.4,27.4h24.4
				c25.1,0,45.6,20.5,45.6,45.6v24.4C785.1,742.7,764.7,763.2,739.5,763.2z M678.6,711.1c-3.6,0-6.5,2.9-6.5,6.5
				c0,23.7,19.3,43,43,43h24.4c23.7,0,43-19.3,43-43v-24.4c0-23.7-19.3-43-43-43h-24.4c-16.6,0-30-13.5-30-30v-24.4
				c0-16.6,13.5-30,30-30h24.4c16.6,0,30,13.5,30,30c0,3.6,2.9,6.5,6.5,6.5c3.6,0,6.5-2.9,6.5-6.5c0-23.7-19.3-43-43-43h-24.4
				c-23.7,0-43,19.3-43,43v24.4c0,23.7,19.3,43,43,43h24.4c16.6,0,30,13.5,30,30v24.4c0,16.6-13.5,30-30,30h-24.4
				c-16.6,0-30-13.5-30-30C685.1,714,682.2,711.1,678.6,711.1z"/>
		</g>
		<g>
			<path class="st1" d="M727.3,567.1c-4.3,0-7.8-3.5-7.8-7.8v-42.6c0-4.3,3.5-7.8,7.8-7.8c4.3,0,7.8,3.5,7.8,7.8v42.6
				C735.1,563.6,731.6,567.1,727.3,567.1z"/>
			<path class="st1" d="M727.3,568.4c-5,0-9.1-4.1-9.1-9.1v-42.6c0-5,4.1-9.1,9.1-9.1s9.1,4.1,9.1,9.1v42.6
				C736.4,564.3,732.3,568.4,727.3,568.4z M727.3,510.2c-3.6,0-6.5,2.9-6.5,6.5v42.6c0,3.6,2.9,6.5,6.5,6.5c3.6,0,6.5-2.9,6.5-6.5
				v-42.6C733.8,513.1,730.9,510.2,727.3,510.2z"/>
		</g>
		<g>
			<path class="st1" d="M727.3,804.5c-4.3,0-7.8-3.5-7.8-7.8v-42.6c0-4.3,3.5-7.8,7.8-7.8c4.3,0,7.8,3.5,7.8,7.8v42.6
				C735.1,801,731.6,804.5,727.3,804.5z"/>
			<path class="st1" d="M727.3,805.8c-5,0-9.1-4.1-9.1-9.1v-42.6c0-5,4.1-9.1,9.1-9.1s9.1,4.1,9.1,9.1v42.6
				C736.4,801.7,732.3,805.8,727.3,805.8z M727.3,747.6c-3.6,0-6.5,2.9-6.5,6.5v42.6c0,3.6,2.9,6.5,6.5,6.5c3.6,0,6.5-2.9,6.5-6.5
				v-42.6C733.8,750.5,730.9,747.6,727.3,747.6z"/>
		</g>
		<path class="st3" d="M947.8,454.1l-217.8-77c-1.7-0.6-3.6-0.6-5.3,0l-217.8,77c-3.1,1.1-5.1,4-5.1,7.3V741
			c0,129.3,213.9,207.5,222.9,210.8c0.9,0.3,1.7,0.5,2.6,0.5c0.9,0,1.7-0.2,2.6-0.5c9-3.3,222.9-81.5,222.9-210.8V461.4
			C952.9,458.2,950.9,455.2,947.8,454.1z M937.4,741c0,111.1-185.6,185.8-210,195.2c-24.4-9.5-210-84.2-210-195.2V467l210-74.4
			l210,74.4V741z"/>
	</g>
</g>
</svg>
