<?xml version="1.0" encoding="utf-8"?>
<!-- Generator: Adobe Illustrator 26.0.3, SVG Export Plug-In . SVG Version: 6.00 Build 0)  -->
<svg version="1.1" id="Layer_1" xmlns="http://www.w3.org/2000/svg" xmlns:xlink="http://www.w3.org/1999/xlink" x="0px" y="0px"
	 viewBox="0 0 580.05 207.25" style="enable-background:new 0 0 580.05 207.25;" xml:space="preserve">
<style type="text/css">
	.st0{fill:#055DA9;}
	.st1{fill:#FFFFFF;}
	.st2{fill-rule:evenodd;clip-rule:evenodd;fill:#FFFFFF;}
	.st3{fill-rule:evenodd;clip-rule:evenodd;fill:#055DA9;}
</style>
<g>
	<g>
		<g>
			<g>
				<path class="st0" d="M198.63,127.23c15.01,0,25.41-8.46,25.41-19.15c0-9.7-8.92-13.43-22.89-18.53
					c-20.66-7.46-33.29-12.44-33.29-26.12c0-12.93,13.82-23.13,37.3-23.13c8.32,0,17.39,1.62,26.6,5.1v23.75h-3.27
					c-7.43-20.02-8.92-26.24-25.56-26.24c-14.27,0-24.37,6.47-24.37,14.92c0,10.32,10.85,13.81,27.64,19.78
					c19.32,6.84,31.51,11.94,31.51,25.74c0,14.55-16.05,26.74-39.98,26.74c-13.38,0-24.52-3.36-29.57-7.71V96.26h3.27
					C179.91,121.01,181.84,127.23,198.63,127.23z"/>
				<path class="st0" d="M197.74,131.55c-12.86,0-24.84-3.17-30.53-8.07l-0.51-0.44V94.79h5.78l0.63,1.84
					c8.25,24.11,9.97,29.13,25.52,29.13c13.88,0,23.95-7.44,23.95-17.69c0-8.71-8.33-12.19-21.92-17.16
					c-19.88-7.18-34.25-12.37-34.25-27.49c0-14.71,15.58-24.6,38.77-24.6c8.88,0,18,1.75,27.12,5.19l0.95,0.36v26.23h-5.75
					l-1.35-3.66c-6.57-17.8-8.34-22.59-23.19-22.59c-13.06,0-22.91,5.79-22.91,13.46c0,8.94,9.4,12.27,24.96,17.79l1.7,0.6
					c20.21,7.16,32.48,12.55,32.48,27.12C239.18,119.43,221.37,131.55,197.74,131.55z M169.63,121.68
					c4.98,3.91,14.66,6.52,25.42,6.89c-14.42-1.01-17.11-8.78-24.66-30.85h-0.76V121.68z M189.88,43.47
					c-12.71,3.14-20.55,10.39-20.55,19.95c0,12.48,11.08,17.07,32.32,24.74c12.8,4.67,23.85,8.71,23.85,19.91
					c0,10.36-8.99,18.48-21.61,20.26c18.82-1.82,32.36-11.95,32.36-24.98c0-12.9-11.6-17.66-30.53-24.36l-1.7-0.61
					c-16.21-5.75-26.91-9.55-26.91-20.55C177.1,51.42,182.06,46.19,189.88,43.47z M229.52,67.68h0.79V46.41
					c-6.93-2.53-13.85-4.03-20.64-4.5c11,1.8,13.62,8.89,19.21,24.03L229.52,67.68z"/>
			</g>
			<g>
				<path class="st0" d="M280.22,42.03v3.11h-9.07v80.1h9.07v3.11h-34.03v-3.11h9.07v-80.1h-9.07v-3.11H280.22z"/>
				<path class="st0" d="M281.68,129.81h-36.96v-6.04h9.07V46.61h-9.07v-6.04h36.96v6.04h-9.07v77.17h9.07V129.81z M247.65,126.88
					h31.1v-0.18h-9.07V43.68h9.07V43.5h-31.1v0.18h9.07v83.02h-9.07V126.88z"/>
			</g>
			<g>
				<path class="st0" d="M365.82,68.9h-5.05c-7.13-20.89-8.47-25.99-21.4-25.99c-21.7,0-32.55,14.55-32.55,43.41
					c0,27.61,9.21,41.17,28.98,41.17c13.38,0,16.79-4.48,16.79-13.31V92.65h-13.82v-3.11h36.71v3.11h-7.43V122
					c-7.58,4.98-19.17,8.08-30.91,8.08c-28.68,0-47.11-17.29-47.11-43.53c0-27.73,21.1-46.39,49.94-46.39
					c9.66,0,18.28,2.11,25.86,5.85V68.9z"/>
				<path class="st0" d="M337.13,131.55c-29.51,0-48.58-17.66-48.58-44.99c0-28.18,21.14-47.86,51.4-47.86c9.51,0,18.42,2.02,26.5,6
					l0.82,0.4v25.26h-7.56l-0.97-2.83c-6.54-19.18-7.9-23.17-19.39-23.17c-20.91,0-31.08,13.72-31.08,41.94
					c0,27.09,8.74,39.7,27.52,39.7c12.89,0,15.33-4.16,15.33-11.84V94.12h-13.82v-6.04h39.64v6.04h-7.43v28.68l-0.66,0.43
					C360.91,128.44,349.05,131.55,337.13,131.55z M340.23,91.19h13.82v22.98c0,8.37-3.17,12.71-10.93,14.19
					c8.91-0.8,17.34-3.34,23.46-7.15V91.19h7.43v-0.18h-33.78V91.19z M330.35,42.37c-23.3,3.68-38.86,20.82-38.86,44.19
					c0,21.96,13.23,37.24,34.55,41.11c-13.9-4.04-20.69-17.67-20.69-41.36C305.35,60.8,313.75,46.07,330.35,42.37z M361.81,67.43
					h2.54v-20.5c-6.21-2.93-12.93-4.65-20.05-5.15c9.28,1.49,11.53,8.11,17.22,24.81L361.81,67.43z"/>
			</g>
			<g>
				<path class="st0" d="M375.92,125.24h8.17l32.84-84.7h9.21l32.99,84.7h7.88v3.11h-35.07v-3.11h10.25l-11-31.09h-31.06
					l-11.74,31.09h12.48v3.11h-24.97V125.24z M430.02,91.03l-13.67-38.93l-14.71,38.93H430.02z"/>
				<path class="st0" d="M468.49,129.81h-38v-6.04h9.65l-9.96-28.16h-29.01l-10.64,28.16h11.83v6.04h-27.9v-6.04h8.64l32.84-84.7
					h11.22l32.99,84.7h8.34V129.81z M433.41,126.88h32.14v-0.18h-7.41L425.15,42h-7.21l-32.84,84.7h-7.71v0.18h22.04v-0.18h-13.14
					l12.85-34.02h33.11l12.03,34.02h-10.86V126.88z M432.08,92.5h-32.57l16.88-44.67L432.08,92.5z M403.75,89.57h24.2l-11.66-33.19
					L403.75,89.57z"/>
			</g>
			<g>
				<path class="st0" d="M508.48,42.03v3.11H495.7v80.1h20.95c6.69,0,8.92-0.37,11-4.23c1.78-3.36,4.9-12.31,7.73-26.74h4.16v34.08
					h-68.81v-3.11h9.07v-80.1h-9.07v-3.11H508.48z"/>
				<path class="st0" d="M541,129.81h-71.74v-6.04h9.07V46.61h-9.07v-6.04h40.68v6.04h-12.78v77.17h19.49
					c6.82,0,8.09-0.45,9.71-3.46c1.77-3.33,4.82-12.24,7.58-26.33l0.23-1.18H541V129.81z M472.2,126.88h65.88V95.73h-1.49
					c-2.76,13.73-5.82,22.54-7.64,25.96c-2.47,4.58-5.33,5.01-12.29,5.01h-22.42V43.68h12.78V43.5H472.2v0.18h9.07v83.02h-9.07
					V126.88z"/>
			</g>
		</g>
		<g>
			<g>
				<g>
					<path class="st0" d="M176.88,141.54v1.1h-3.21v28.41h3.21v1.1h-12.07v-1.1h3.22v-28.41h-3.22v-1.1H176.88z"/>
					<path class="st0" d="M177.43,172.7h-13.17v-2.2h3.22v-27.31h-3.22v-2.2h13.17v2.2h-3.21v27.31h3.21V172.7z M165.36,171.6
						l10.97,0h-3.21v-29.5l3.21,0l-10.97,0h3.22v29.5L165.36,171.6z"/>
				</g>
				<g>
					<path class="st0" d="M180.47,171.05h2.79V150.8h-2.79v-1.1h7.38v3.79c1-2.69,3.95-4.41,7.38-4.41c6.59,0,7.33,3.26,7.33,8.78
						v13.19h2.79v1.1h-10.39v-1.1h2.85v-13.59c0-4.5-0.11-7.1-3.85-7.1c-3.43,0-5.9,3-5.9,8.38v12.31h2.79v1.1h-10.38V171.05z"/>
					<path class="st0" d="M205.9,172.7h-11.48v-2.2h2.85v-13.04c0-4.85-0.27-6.55-3.3-6.55c-3.3,0-5.35,3-5.35,7.83v11.76h2.79v2.2
						h-11.48v-2.2h2.79v-19.15h-2.79v-2.2h8.48v2.31c1.49-1.82,3.98-2.92,6.83-2.92c7.3,0,7.88,4.04,7.88,9.33v12.64h2.79V172.7z
						 M195.51,171.6l9.29,0H202v-13.74c0-5.8-0.94-8.23-6.78-8.23c-0.74,0-1.45,0.08-2.12,0.24c0.28-0.04,0.56-0.06,0.86-0.06
						c4.4,0,4.4,3.38,4.4,7.65v14.13L195.51,171.6z M181.02,171.6l9.29,0h-2.79v-12.86c0-3.28,0.93-5.86,2.53-7.39
						c-0.76,0.63-1.34,1.42-1.67,2.33l-1.06,2.86v-6.29l-6.28,0h2.79v21.34L181.02,171.6z"/>
				</g>
				<g>
					<path class="st0" d="M228.17,157.02h-2c-2.16-5.78-1.9-7.01-6.22-7.01c-3.9,0-6.27,1.59-6.27,3.71c0,2.69,3.27,3.22,9.07,5.34
						c4.69,1.72,7.12,3.44,7.12,6.57c0,3.84-4.27,7.15-11.23,7.15c-4.01,0-7.38-0.97-9.23-2.38v-6.88h2.21
						c1.74,6.7,2.16,8.29,6.91,8.29c3.95,0,6.69-2.12,6.69-4.68c0-2.6-2.48-3.57-7.22-5.16c-5.59-1.85-8.91-3.13-8.91-6.48
						c0-3.48,4.16-6.4,11.17-6.4c2.48,0,5.27,0.49,7.91,1.41V157.02z"/>
					<path class="st0" d="M218.63,173.32c-3.94,0-7.52-0.93-9.56-2.49l-0.22-0.17v-7.7h3.19l0.11,0.41
						c1.73,6.68,2.04,7.88,6.37,7.88c3.5,0,6.15-1.77,6.15-4.13c0-2.14-1.98-3.01-6.85-4.64c-5.75-1.91-9.28-3.27-9.28-7
						c0-4.09,4.82-6.95,11.72-6.95c2.57,0,5.44,0.51,8.09,1.44l0.37,0.13v7.47h-2.93l-0.13-0.36c-0.3-0.81-0.56-1.53-0.79-2.17
						c-1.38-3.88-1.59-4.48-4.92-4.48c-3.42,0-5.72,1.27-5.72,3.16c0,1.74,1.68,2.39,5.81,3.81c0.88,0.3,1.84,0.63,2.89,1.01
						c4.49,1.65,7.48,3.48,7.48,7.09C230.4,169.45,226.36,173.32,218.63,173.32z M216.49,149.96c-4.17,0.77-6.85,2.83-6.85,5.52
						c0,2.84,2.6,4,8.53,5.96c4.85,1.62,7.6,2.69,7.6,5.68c0,2.4-2.03,4.33-4.98,4.98c5.6-0.6,8.52-3.56,8.52-6.48
						c0-2.61-1.83-4.25-6.76-6.06c-1.04-0.38-2-0.71-2.87-1.01c-4.09-1.4-6.56-2.25-6.56-4.85
						C213.12,151.98,214.39,150.64,216.49,149.96z M209.95,170.11c1.37,0.96,3.44,1.64,5.84,1.94c-2.65-0.75-3.31-3.02-4.6-7.99
						h-1.24V170.11z M226.55,156.47h1.07v-5.59c-1.64-0.55-3.36-0.93-5.02-1.12c1.76,0.57,2.27,2,3.3,4.9
						C226.09,155.21,226.3,155.81,226.55,156.47z"/>
				</g>
				<g>
					<path class="st0" d="M241.18,149.7v15.04c0,0.31,0,0.97,0,1.94c0,3,1.27,4.54,3.64,4.54c3.21,0,5.22-2.74,5.22-7.72v-12.7h-3.8
						v-1.1h8.8V171h2.85v1.15h-7.59v-3.97c-0.95,2.87-3.69,4.59-6.96,4.59c-6.38,0-7.22-3.31-7.22-8.95V150.8h-2.85v-1.1H241.18z"/>
					<path class="st0" d="M243.35,173.32c-7.19,0-7.77-4.3-7.77-9.5v-12.46h-2.85v-2.2h9.01v17.53c0,2.69,1.01,3.99,3.09,3.99
						c2.97,0,4.67-2.61,4.67-7.17v-12.15h-3.8v-2.2h9.9v21.3h2.85v2.25h-8.69v-2.32C248.34,172.21,246.02,173.32,243.35,173.32z
						 M233.83,150.25h2.85v13.56c0,5.81,0.96,8.41,6.67,8.41c1.39,0,2.65-0.32,3.69-0.91c-0.66,0.3-1.4,0.46-2.22,0.46
						c-1.56,0-4.19-0.66-4.19-5.09v-16.43L233.83,150.25z M250.85,171.6l6.49-0.05h-2.85v-21.3l-7.7,0h3.8v13.25
						c0,1.02-0.08,1.95-0.24,2.8l0.51-1.53V171.6z"/>
				</g>
				<g>
					<path class="st0" d="M261.58,171.05h2.85V150.8h-2.85v-1.1h7.7v3.57c1.11-2.69,3.69-4.19,6.9-4.19c1.27,0,2.43,0.27,3.53,0.79
						v8.16h-1.69c-1.48-5.16-1.95-7.45-3.9-7.45c-2.16,0-4.69,2.47-4.69,7.85v12.62h4.16v1.1h-12.02V171.05z"/>
					<path class="st0" d="M274.15,172.7h-13.12v-2.2h2.85v-19.15h-2.85v-2.2h8.79v2.13c1.43-1.75,3.69-2.75,6.36-2.75
						c1.34,0,2.58,0.28,3.77,0.85l0.31,0.15v9.06h-2.65l-0.46-1.62c-1.23-4.33-1.72-5.83-3.02-5.83c-1.67,0-4.14,1.94-4.14,7.3
						v12.07h4.16V172.7z M262.13,171.6l10.92,0h-4.16v-13.16c0-2.81,0.68-4.93,1.7-6.34c-0.32,0.42-0.59,0.88-0.8,1.39l-1.06,2.57
						v-5.8l-6.6,0h2.85v21.34L262.13,171.6z M278.44,157.49h0.72v-7.26c-1.92-0.82-4.23-0.75-5.96-0.08
						c0.3-0.08,0.61-0.12,0.92-0.12c2.21,0,2.83,2.22,4.08,6.63L278.44,157.49z"/>
				</g>
				<g>
					<path class="st0" d="M293.99,149.08c3.16,0,5.85,0.84,7.27,1.98c2.11,1.68,2.16,3.66,2.16,6.44v13.54h2.95v1.1h-7.91v-4.06
						c-1.48,3.18-3.95,4.68-7.85,4.68c-4.53,0-7.64-2.43-7.64-5.95c0-3.97,2.74-5.47,8.07-6.57c3.16-0.66,5.64-1.15,7.33-2.56v-1.94
						c0-3.75-0.95-5.69-4.95-5.69c-3.74,0-4.06,1.63-6.22,7.94h-1.63v-6.97C287.72,149.96,290.36,149.08,293.99,149.08z
						 M291.52,161.48c-2.32,0.88-3.32,2.56-3.32,5.12c0,3.04,1.74,4.72,4.27,4.72c3.53,0,5.9-3.18,5.9-8.95v-3.44
						C295.89,160.29,293.41,160.73,291.52,161.48z"/>
					<path class="st0" d="M290.62,173.32c-4.82,0-8.19-2.67-8.19-6.5c0-4.45,3.25-6.02,8.5-7.11l0.28-0.06
						c2.82-0.59,5.08-1.06,6.61-2.22v-1.68c0-3.89-1.07-5.14-4.4-5.14c-3.04,0-3.44,0.92-5.33,6.49l-0.5,1.45h-2.58v-7.86l0.31-0.15
						c1.75-0.86,4.55-2,8.68-2c3.09,0,6.01,0.81,7.62,2.11c2.37,1.88,2.37,4.19,2.37,6.87v12.99h2.95v2.2h-9.01v-2.59
						C296.3,172.29,293.94,173.32,290.62,173.32z M293.03,160.38c-0.51,0.11-1.04,0.22-1.59,0.34l-0.28,0.06
						c-5.7,1.18-7.63,2.7-7.63,6.03c0,3.23,2.85,5.41,7.09,5.41c1.57,0,2.89-0.25,3.99-0.76c-0.65,0.27-1.37,0.4-2.15,0.4
						c-2.93,0-4.82-2.07-4.82-5.27c0-2.85,1.2-4.69,3.67-5.63C291.85,160.76,292.42,160.57,293.03,160.38z M299.02,171.6l6.81,0
						h-2.95v-14.09c0-2.85-0.09-4.53-1.95-6.01c-1.21-0.97-3.29-1.63-5.63-1.82c2.95,0.63,3.62,2.9,3.62,6.06v2.2l-0.17,0.14
						l0.17-0.09v4.37c0,2.35-0.4,4.35-1.13,5.9c0.07-0.13,0.13-0.26,0.19-0.39l1.05-2.25V171.6z M297.82,159.82
						c-1.4,0.67-2.77,1.09-4,1.47c-0.75,0.23-1.46,0.45-2.1,0.7l-0.01,0c-2.05,0.78-2.97,2.2-2.97,4.6c0,2.61,1.39,4.17,3.72,4.17
						c3.35,0,5.35-3.14,5.35-8.41V159.82z M286.11,157.44h0.69l0.24-0.71c1.4-4.12,2.1-6.16,4.07-6.9
						c-2.17,0.32-3.82,0.97-5.01,1.53V157.44z"/>
				</g>
				<g>
					<path class="st0" d="M309.64,171.05h2.79V150.8h-2.79v-1.1h7.38v3.79c1-2.69,3.95-4.41,7.38-4.41c6.59,0,7.33,3.26,7.33,8.78
						v13.19h2.79v1.1h-10.38v-1.1h2.85v-13.59c0-4.5-0.1-7.1-3.85-7.1c-3.43,0-5.9,3-5.9,8.38v12.31h2.79v1.1h-10.38V171.05z"/>
					<path class="st0" d="M335.07,172.7h-11.48v-2.2h2.85v-13.04c0-4.85-0.27-6.55-3.3-6.55c-3.3,0-5.35,3-5.35,7.83v11.76h2.79v2.2
						H309.1v-2.2h2.79v-19.15h-2.79v-2.2h8.48v2.3c1.49-1.82,3.98-2.92,6.83-2.92c7.3,0,7.88,4.04,7.88,9.33v12.64h2.79V172.7z
						 M324.69,171.6l9.29,0h-2.79v-13.74c0-5.8-0.94-8.23-6.78-8.23c-0.74,0-1.45,0.08-2.12,0.24c0.28-0.04,0.56-0.06,0.86-0.06
						c4.4,0,4.4,3.38,4.4,7.65v14.13L324.69,171.6z M310.19,171.6l9.29,0h-2.79v-12.86c0-3.29,0.93-5.87,2.53-7.39
						c-0.76,0.64-1.34,1.43-1.68,2.34l-1.06,2.86v-6.3l-6.28,0h2.79v21.34L310.19,171.6z"/>
				</g>
				<g>
					<path class="st0" d="M357.5,158.48h-1.48c-1.74-6.18-2.11-8.42-5.48-8.42c-4.32,0-6.69,3.75-6.69,11.2
						c0,6.79,2.05,10.19,6.33,10.19c3.95,0,6.59-2.65,6.96-7.54h1.11c-0.05,5.51-3.85,8.87-9.17,8.87c-6.06,0-10.75-4.5-10.75-11.6
						c0-7.32,5.06-12.09,12.49-12.09c2.27,0,4.69,0.49,6.69,1.41V158.48z"/>
					<path class="st0" d="M349.07,173.32c-6.66,0-11.3-5-11.3-12.15c0-7.56,5.24-12.64,13.04-12.64c2.39,0,4.92,0.53,6.92,1.46
						l0.32,0.15v8.88h-2.44l-0.46-1.66c-1.52-5.48-1.98-6.77-4.6-6.77c-5.08,0-6.15,5.79-6.15,10.65c0,6.49,1.89,9.64,5.78,9.64
						c3.74,0,6.07-2.56,6.41-7.04l0.04-0.51h2.17l-0.01,0.55C358.74,169.54,354.83,173.32,349.07,173.32z M348.49,149.8
						c-5.85,0.9-9.63,5.24-9.63,11.36c0,6.51,4.2,11.05,10.2,11.05c1.26,0,2.41-0.19,3.44-0.56c-0.72,0.22-1.49,0.33-2.33,0.33
						c-4.56,0-6.87-3.61-6.87-10.74C343.3,153.52,345.8,150.65,348.49,149.8z M357.63,164.45c-0.25,2.27-1.02,4.1-2.21,5.38
						c1.32-1.33,2.11-3.17,2.24-5.38H357.63z M356.44,157.93h0.51v-7.08c-1.47-0.63-3.22-1.04-4.95-1.17
						c2.32,0.63,2.98,3.01,4.2,7.4L356.44,157.93z"/>
				</g>
				<g>
					<path class="st0" d="M385.17,163.37c-0.53,6.09-4.27,9.4-10.33,9.4c-6.75,0-11.97-4.85-11.97-11.91
						c0-7.06,5.27-11.78,11.91-11.78c6.27,0,10.07,3.4,10.07,9.4c0,0.22,0,0.4,0,0.62h-16.5c0,0.57-0.05,1.19-0.05,1.9
						c0,6.97,2.48,10.54,7.22,10.54c4.48,0,7.7-2.91,8.22-8.16H385.17z M379.43,157.99c0.05-0.93,0.05-1.5,0.05-1.68
						c0-4.23-1.58-6.31-4.8-6.31c-3.58,0-5.9,2.78-6.17,7.98H379.43z"/>
					<path class="st0" d="M374.84,173.32c-7.25,0-12.51-5.24-12.51-12.46c0-7.14,5.24-12.33,12.46-12.33
						c6.65,0,10.62,3.72,10.62,9.94v1.17H368.9c0,0.11-0.01,0.21-0.01,0.32c-0.01,0.32-0.03,0.66-0.03,1.02
						c0,6.63,2.25,9.99,6.67,9.99c4.33,0,7.19-2.87,7.68-7.67l0.05-0.49h2.52l-0.05,0.6C385.18,169.71,381.21,173.32,374.84,173.32z
						 M372.43,149.84c-5.33,0.99-9,5.32-9,11.02c0,6.58,4.8,11.36,11.42,11.36c5.61,0,9.04-2.94,9.72-8.3h-0.32
						c-0.69,5.05-3.99,8.16-8.71,8.16c-3.55,0-7.77-1.92-7.77-11.09c0-0.38,0.01-0.73,0.03-1.07c0.01-0.29,0.02-0.56,0.02-0.83
						v-0.55h16.5v-0.07c0-5.03-2.78-8.15-7.71-8.74c2.28,0.74,3.43,2.94,3.43,6.58c0,0.18,0,0.76-0.05,1.71l-0.03,0.52h-12.01
						l0.03-0.58C368.19,153.67,369.78,150.83,372.43,149.84z M369.1,157.44h9.8c0.03-0.61,0.03-0.99,0.03-1.13
						c0-5.16-2.42-5.76-4.25-5.76C371.44,150.56,369.47,153,369.1,157.44z"/>
				</g>
				<g>
					<path class="st0" d="M431.34,151.07h-1.79c-2.53-7.41-3-9.22-7.59-9.22c-7.7,0-11.54,5.16-11.54,15.39
						c0,9.79,3.27,14.6,10.28,14.6c4.74,0,5.96-1.59,5.96-4.72v-7.63h-4.9v-1.1h13.02v1.1h-2.64v10.41
						c-2.69,1.76-6.8,2.87-10.96,2.87c-10.17,0-16.71-6.13-16.71-15.44c0-9.84,7.48-16.45,17.71-16.45c3.43,0,6.48,0.75,9.17,2.07
						V151.07z"/>
					<path class="st0" d="M421.17,173.32c-10.49,0-17.26-6.28-17.26-15.99c0-10.01,7.51-17,18.26-17c3.38,0,6.55,0.72,9.42,2.13
						l0.31,0.15v9.01h-2.74l-0.35-1.02c-2.31-6.78-2.79-8.2-6.85-8.2c-7.4,0-11,4.86-11,14.84c0,9.59,3.09,14.05,9.73,14.05
						c4.54,0,5.41-1.47,5.41-4.17v-7.08h-4.9v-2.2h14.12v2.2h-2.64v10.16l-0.25,0.16C429.61,172.21,425.4,173.32,421.17,173.32z
						 M422.3,158.94h4.9v8.18c0,2.8-1,4.34-3.4,4.95c2.96-0.33,5.74-1.2,7.78-2.47v-10.66l2.64-0.01L422.3,158.94z M417.99,141.83
						c-7.82,1.55-12.98,7.49-12.98,15.5c0,7.6,4.47,12.93,11.72,14.45c-4.61-1.61-6.86-6.41-6.86-14.54
						C409.87,148.58,412.6,143.41,417.99,141.83z M429.94,150.52h0.85v-7.22c-2.04-0.96-4.24-1.55-6.56-1.77
						c2.88,0.69,3.7,3.1,5.61,8.71L429.94,150.52z"/>
				</g>
				<g>
					<path class="st0" d="M437.66,171.05h2.85V150.8h-2.85v-1.1h7.7v3.57c1.11-2.69,3.69-4.19,6.91-4.19c1.26,0,2.42,0.27,3.53,0.79
						v8.16h-1.69c-1.48-5.16-1.95-7.45-3.9-7.45c-2.16,0-4.69,2.47-4.69,7.85v12.62h4.16v1.1h-12.02V171.05z"/>
					<path class="st0" d="M450.23,172.7h-13.12v-2.2h2.85v-19.15h-2.85v-2.2h8.79v2.13c1.43-1.75,3.69-2.75,6.36-2.75
						c1.34,0,2.57,0.28,3.77,0.85l0.31,0.15v9.06h-2.65l-0.46-1.61c-1.23-4.34-1.72-5.84-3.03-5.84c-1.66,0-4.14,1.94-4.14,7.3
						v12.07h4.16V172.7z M438.21,171.6l10.92,0h-4.16v-13.16c0-2.82,0.69-4.95,1.71-6.36c-0.32,0.42-0.6,0.89-0.81,1.41l-1.06,2.57
						v-5.8l-6.6,0h2.85v21.34L438.21,171.6z M454.53,157.49h0.72v-7.26c-1.92-0.82-4.23-0.75-5.96-0.08
						c0.3-0.08,0.61-0.12,0.92-0.12c2.21,0,2.83,2.22,4.09,6.64L454.53,157.49z"/>
				</g>
				<g>
					<path class="st0" d="M482.31,160.9c0,6.93-5.11,11.87-11.49,11.87c-6.38,0-11.44-4.9-11.44-11.87
						c0-6.93,5.01-11.82,11.44-11.82C477.25,149.08,482.31,153.98,482.31,160.9z M464.91,160.9c0,7.41,1.53,10.94,5.9,10.94
						c4.43,0,5.9-3.53,5.9-10.94c0-7.41-1.53-10.89-5.9-10.89C466.44,150.01,464.91,153.49,464.91,160.9z"/>
					<path class="st0" d="M470.82,173.32c-6.83,0-11.99-5.34-11.99-12.41c0-7.05,5.15-12.37,11.99-12.37
						c6.86,0,12.04,5.32,12.04,12.37C482.86,167.98,477.68,173.32,470.82,173.32z M468.52,149.85c-5.09,1-8.59,5.34-8.59,11.05
						c0,5.61,3.54,10.02,8.54,11.07c-3.56-1.42-4.1-6.29-4.1-11.07C464.37,156.12,464.91,151.24,468.52,149.85z M473.16,149.87
						c3.57,1.41,4.11,6.27,4.11,11.04c0,4.98-0.55,9.66-4.03,11.06c4.99-1.08,8.52-5.48,8.52-11.06
						C481.76,155.31,478.2,150.91,473.16,149.87z M470.82,150.56c-3.85,0-5.35,2.9-5.35,10.35c0,7.38,1.55,10.39,5.35,10.39
						c3.85,0,5.36-2.91,5.36-10.39C476.17,153.46,474.67,150.56,470.82,150.56z"/>
				</g>
				<g>
					<path class="st0" d="M494.22,149.7v15.04c0,0.31,0,0.97,0,1.94c0,3,1.27,4.54,3.64,4.54c3.22,0,5.22-2.74,5.22-7.72v-12.7
						h-3.79v-1.1h8.8V171h2.85v1.15h-7.59v-3.97c-0.95,2.87-3.69,4.59-6.96,4.59c-6.38,0-7.22-3.31-7.22-8.95V150.8h-2.85v-1.1
						H494.22z"/>
					<path class="st0" d="M496.38,173.32c-7.18,0-7.77-4.3-7.77-9.5v-12.46h-2.85v-2.2h9.01v17.53c0,2.69,1.01,3.99,3.09,3.99
						c2.97,0,4.67-2.61,4.67-7.17v-12.15h-3.79v-2.2h9.9v21.3h2.85v2.25h-8.69v-2.33C501.38,172.21,499.05,173.32,496.38,173.32z
						 M486.86,150.25h2.85v13.56c0,5.81,0.96,8.41,6.67,8.41c1.39,0,2.65-0.32,3.69-0.91c-0.66,0.3-1.4,0.46-2.22,0.46
						c-1.56,0-4.19-0.66-4.19-5.09v-16.43L486.86,150.25z M503.89,171.6l6.49-0.05h-2.85v-21.3l-7.7,0h3.79v13.25
						c0,1.02-0.08,1.96-0.25,2.81l0.51-1.54V171.6z"/>
				</g>
				<g>
					<path class="st0" d="M514.24,179.69v-1.1h3.06V150.8h-3.06v-1.1h7.64v3.18c1.21-2.43,3.64-3.79,6.75-3.79
						c6.01,0,10.49,4.46,10.49,11.69c0,7.37-4.96,12-10.49,12c-2.79,0-5.17-1.15-6.54-3.18v9h3.74v1.1H514.24z M522.31,160.77
						c0,7.1,1.58,10.63,5.8,10.63c3.9,0,5.48-3.62,5.48-10.94c0-6.66-1.9-10.01-5.59-10.01
						C524.1,150.45,522.31,153.85,522.31,160.77z"/>
					<path class="st0" d="M526.39,180.24h-12.7v-2.2h3.06v-26.69h-3.06v-2.2h8.74v1.93c1.45-1.64,3.62-2.55,6.2-2.55
						c6.6,0,11.04,4.92,11.04,12.24c0,8.15-5.69,12.55-11.04,12.55c-2.38,0-4.49-0.8-5.99-2.23v6.95h3.74V180.24z M514.79,179.15
						l10.5-0.01h-3.74V167.8l1,1.49c1.26,1.86,3.48,2.93,6.08,2.93c4.82,0,9.94-4.01,9.94-11.45c0-6.66-3.99-11.14-9.94-11.14
						c-2.91,0-5.13,1.24-6.26,3.49l-1.04,2.08v-4.95l-6.55,0h3.06v28.89L514.79,179.15z M528.11,171.95
						c-5.63,0-6.35-5.97-6.35-11.18c0-7.31,2.04-10.87,6.24-10.87c4.07,0,6.14,3.55,6.14,10.56
						C534.14,165.81,533.45,171.95,528.11,171.95z M528,151c-2.21,0-5.14,1.01-5.14,9.77c0,7.07,1.57,10.08,5.25,10.08
						c2.3,0,4.93-1.18,4.93-10.39C533.04,154.18,531.35,151,528,151z"/>
				</g>
			</g>
		</g>
		<path class="st3" d="M39.04,78.14c0-0.8,0.02-1.59,0.05-2.37h28.57c-0.47,1.38-0.78,2.83-0.93,4.35H39.08
			C39.06,79.46,39.04,78.8,39.04,78.14L39.04,78.14z M66.63,82.29c0,0.01,0,0.02,0,0.04c0,1.51,0.14,2.95,0.43,4.32H39.74
			c-0.24-1.44-0.41-2.89-0.53-4.35H66.63L66.63,82.29z M67.65,88.83c0.53,1.55,1.26,3.01,2.2,4.35H41.27
			c-0.43-1.43-0.81-2.88-1.11-4.35H67.65L67.65,88.83z M71.64,95.36c0.08,0.09,0.17,0.18,0.26,0.27c0.39,0.39,0.83,0.79,1.33,1.21
			c1.06,0.91,2.39,1.87,4.01,2.88H43.72c-0.65-1.42-1.23-2.87-1.75-4.35H71.64L71.64,95.36z M80.99,101.89
			c2.52,1.37,5.49,2.82,8.9,4.35H47.25c-0.89-1.41-1.72-2.86-2.48-4.35H80.99L80.99,101.89z M94.9,108.42
			c0.38,0.15,0.76,0.32,1.15,0.48v3.87H52.11c-1.21-1.4-2.34-2.85-3.4-4.35H94.9L94.9,108.42z M96.05,114.95v4.36H71.22
			c-0.26-0.81-0.52-1.65-0.77-2.49c-0.13-0.42-0.2-0.7-0.24-0.86h-0.26c-0.03-0.12-0.05-0.21-0.07-0.28h-2.91v3.64h-8.18
			c-1.65-1.37-3.22-2.82-4.69-4.36H96.05L96.05,114.95z M96.05,121.48v4.36H73.53c-0.54-1.39-1.07-2.84-1.59-4.36H96.05
			L96.05,121.48z M96.05,128.01v4.36h-5.48c-5.56-0.52-10.9-1.8-15.88-3.74c-0.09-0.21-0.18-0.41-0.26-0.62H96.05L96.05,128.01z
			 M66.96,121.48v3.48c-1.86-1.06-3.66-2.22-5.38-3.48H66.96L66.96,121.48z M39.24,73.59c0.13-1.47,0.32-2.92,0.57-4.36h31.67
			c-1.19,1.36-2.16,2.81-2.91,4.36H39.24L39.24,73.59z M40.23,67.05c0.32-1.47,0.7-2.92,1.15-4.35h38.97
			c-1.63,0.78-3.16,1.68-4.58,2.7c-0.74,0.53-1.44,1.09-2.1,1.65H40.23L40.23,67.05z M42.11,60.52c0.53-1.48,1.13-2.94,1.79-4.36
			h52.15v2.8c-3.54,0.21-6.81,0.73-9.82,1.55H42.11L42.11,60.52z M44.97,53.99c0.78-1.49,1.62-2.95,2.53-4.35h48.55v4.35H44.97
			L44.97,53.99z M48.99,47.46c1.08-1.51,2.24-2.96,3.47-4.35h43.6v4.35H48.99L48.99,47.46z M54.48,40.93
			c1.51-1.54,3.11-2.99,4.79-4.35h36.78v4.35H54.48L54.48,40.93z M62.14,34.4c2.27-1.61,4.67-3.07,7.19-4.35h26.73v4.35H62.14
			L62.14,34.4z M74.11,27.86c6.76-2.71,14.17-4.21,21.94-4.21v4.21H74.11L74.11,27.86z M96.05,62.7v4.35H81.4
			c0.39-0.32,0.8-0.64,1.24-0.95c2.21-1.56,4.74-2.69,7.58-3.4H96.05L96.05,62.7z M96.05,69.23v4.36H76.97
			c0.44-1.57,1.19-3.02,2.27-4.36H96.05L96.05,69.23z M96.05,75.76v4.35H77.09c-0.38-1.05-0.57-2.1-0.57-3.16
			c0-0.4,0.02-0.8,0.05-1.19H96.05L96.05,75.76z M96.05,82.29v4.35H82.02c-1.67-1.44-2.95-2.89-3.86-4.35H96.05L96.05,82.29z
			 M96.05,88.83v4.35H92.6c-2.96-1.44-5.52-2.89-7.68-4.35H96.05L96.05,88.83z"/>
		<path class="st3" d="M153.09,129.12c0-0.37,0-0.74-0.01-1.1h-24.53c-0.31,1.51-0.78,2.96-1.39,4.36h25.83
			C153.06,131.29,153.09,130.21,153.09,129.12L153.09,129.12z M126.06,134.55c-0.88,1.52-1.95,2.97-3.21,4.35h29.32
			c0.27-1.43,0.49-2.88,0.65-4.35H126.06L126.06,134.55z M120.63,141.08c-0.53,0.46-1.08,0.92-1.66,1.37
			c-1.44,1.11-2.95,2.11-4.55,2.98h36.05c0.47-1.43,0.88-2.88,1.23-4.35H120.63L120.63,141.08z M109.65,147.61
			c-4.09,1.52-8.61,2.38-13.56,2.61v1.74h51.73c0.69-1.42,1.32-2.87,1.88-4.35H109.65L109.65,147.61z M96.09,154.14v4.35h47.97
			c0.95-1.41,1.83-2.86,2.65-4.35H96.09L96.09,154.14z M96.09,160.67v4.35h42.81c1.28-1.39,2.48-2.84,3.61-4.35H96.09L96.09,160.67z
			 M96.09,167.2v4.36h35.67c1.76-1.36,3.44-2.81,5.02-4.36H96.09L96.09,167.2z M96.09,173.73v4.36h24.93
			c2.7-1.26,5.27-2.72,7.71-4.36H96.09L96.09,173.73z M96.09,180.27v3.33c6.88,0,13.49-1.18,19.61-3.33H96.09L96.09,180.27z
			 M152.99,125.84c-0.09-1.47-0.24-2.92-0.46-4.36H129c0.04,0.53,0.05,1.07,0.05,1.62c0,0.93-0.05,1.84-0.15,2.74H152.99
			L152.99,125.84z M152.17,119.31c-0.28-1.47-0.63-2.93-1.03-4.36h-23.67c0.59,1.37,1.02,2.82,1.28,4.36H152.17L152.17,119.31z
			 M150.47,112.77c-0.49-1.48-1.04-2.93-1.66-4.35h-26.13c0.42,0.37,0.81,0.73,1.15,1.09c0.97,1.02,1.81,2.1,2.51,3.26H150.47
			L150.47,112.77z M147.81,106.24c-0.73-1.49-1.52-2.94-2.38-4.35h-33.09c3.03,1.52,5.54,2.97,7.54,4.35H147.81L147.81,106.24z
			 M144.04,99.71c-1.01-1.5-2.1-2.96-3.26-4.35H97.42c0.58,0.24,1.16,0.49,1.76,0.73c0.7,0.27,1.19,0.48,1.5,0.61
			c2.56,1.03,4.92,2.04,7.09,3.01H144.04L144.04,99.71z M138.87,93.18c-1.41-1.53-2.91-2.99-4.48-4.35h-38.3v4.35H138.87
			L138.87,93.18z M131.72,86.65c-2.07-1.59-4.26-3.05-6.55-4.35h-1.41v4.35H131.72L131.72,86.65z M120.04,86.65
			c-0.12-0.37-0.26-0.78-0.41-1.23c-0.35-1.08-0.7-2.12-1.07-3.13H96.09v4.35H120.04L120.04,86.65z M117.73,80.12
			c-0.23-0.57-0.46-1.12-0.69-1.66c-3.01-1.15-6.15-2.05-9.39-2.69H96.09v4.35H117.73L117.73,80.12z M96.09,108.92v3.86h8.52
			c-2.29-1.16-4.97-2.38-8.04-3.66C96.41,109.05,96.25,108.98,96.09,108.92L96.09,108.92z M96.09,114.95v4.36h17.81
			c-0.33-0.43-0.69-0.84-1.07-1.24c-0.24-0.24-0.5-0.49-0.79-0.74c-0.92-0.75-2.07-1.55-3.45-2.38H96.09L96.09,114.95z
			 M96.09,121.48v4.36h20.4c-0.18-1.56-0.59-3.01-1.25-4.36H96.09L96.09,121.48z M96.09,128.01v4.36h19.92
			c0.35-1.38,0.54-2.83,0.57-4.36H96.09L96.09,128.01z M96.09,134.55v4.35h16.63c1.09-1.35,1.95-2.8,2.58-4.35H96.09L96.09,134.55z
			 M96.09,141.08v4.35h7.57c2.41-0.92,4.58-2.22,6.53-3.91c0.17-0.15,0.33-0.29,0.49-0.44H96.09L96.09,141.08z"/>
		<g>
			<g>
				<path class="st0" d="M54.01,145.87v1.08h-3.16v27.87h3.16v1.08H42.17v-1.08h3.15v-27.87h-3.15v-1.08H54.01z"/>
				<path class="st0" d="M54.38,176.28H41.8v-1.81h3.15v-27.14H41.8v-1.81h12.58v1.81h-3.16v27.14h3.16V176.28z M42.53,175.55h11.11
					v-0.35h-3.16v-28.61h3.16v-0.35H42.53v0.35h3.15v28.61h-3.15V175.55z"/>
			</g>
			<g>
				<path class="st0" d="M83.8,155.22h-1.76c-2.48-7.27-2.95-9.05-7.45-9.05c-7.55,0-11.33,5.06-11.33,15.11
					c0,9.61,3.21,14.33,10.09,14.33c4.65,0,5.84-1.56,5.84-4.63v-7.49h-4.81v-1.08h12.78v1.08h-2.59v10.21
					c-2.64,1.73-6.67,2.81-10.76,2.81c-9.98,0-16.4-6.02-16.4-15.15c0-9.65,7.34-16.14,17.38-16.14c3.36,0,6.36,0.74,9,2.03V155.22z
					"/>
				<path class="st0" d="M73.82,176.88c-10.18,0-16.76-6.09-16.76-15.51c0-9.72,7.3-16.51,17.75-16.51c3.29,0,6.37,0.7,9.16,2.07
					l0.2,0.1v8.56h-2.39l-0.3-0.89c-2.3-6.75-2.78-8.16-6.89-8.16c-7.38,0-10.96,4.82-10.96,14.74c0,9.52,3.09,13.96,9.72,13.96
					c4.6,0,5.48-1.5,5.48-4.27v-7.12h-4.81v-1.81h13.51v1.81h-2.59v10.05l-0.17,0.11C82.04,175.81,77.94,176.88,73.82,176.88z
					 M74.8,145.59c-10.02,0-17.01,6.49-17.01,15.78c0,8.98,6.29,14.78,16.03,14.78c3.9,0,7.77-0.99,10.39-2.65v-10.38h2.59v-0.35
					H74.75v0.35h4.81v7.85c0,3.6-1.74,5-6.21,5c-7.03,0-10.45-4.81-10.45-14.69c0-10.27,3.93-15.47,11.69-15.47
					c4.63,0,5.25,1.83,7.58,8.66l0.13,0.39h1.13v-7.37C80.8,146.23,77.9,145.59,74.8,145.59z"/>
			</g>
		</g>
	</g>
</g>
</svg>
