<?xml version="1.0" encoding="utf-8"?>
<svg version="1.1" id="Layer_1" xmlns="http://www.w3.org/2000/svg" x="0px" y="0px" viewBox="34.319 0 127.18 207.25" style="enable-background:new 0 0 580.05 207.25;">
  <style type="text/css">
	.st0{fill:#055DA9;}
	.st1{fill:#FFFFFF;}
	.st2{fill-rule:evenodd;clip-rule:evenodd;fill:#FFFFFF;}
	.st3{fill-rule:evenodd;clip-rule:evenodd;fill:#055DA9;}
</style>
  <g>
    <g>
      <g/>
      <g>
        <path class="st1" d="M280.22,43.4v3.11h-9.07v80.1h9.07v3.11h-34.03v-3.11h9.07v-80.1h-9.07V43.4H280.22z"/>
        <path class="st1" d="M281.68,131.18h-36.96v-6.04h9.07V47.97h-9.07v-6.04h36.96v6.04h-9.07v77.17h9.07V131.18z M247.65,128.25 h31.1v-0.18h-9.07V45.04h9.07v-0.18h-31.1v0.18h9.07v83.02h-9.07V128.25z"/>
      </g>
      <g>
        <path class="st1" d="M365.82,70.26h-5.05c-7.13-20.89-8.47-25.99-21.4-25.99c-21.7,0-32.55,14.55-32.55,43.41 c0,27.61,9.21,41.17,28.98,41.17c13.38,0,16.79-4.48,16.79-13.31V94.02h-13.82v-3.11h36.71v3.11h-7.43v29.35 c-7.58,4.98-19.17,8.08-30.91,8.08c-28.68,0-47.11-17.29-47.11-43.53c0-27.73,21.1-46.39,49.94-46.39 c9.66,0,18.28,2.11,25.86,5.85V70.26z"/>
        <path class="st1" d="M337.13,132.92c-29.51,0-48.58-17.66-48.58-44.99c0-28.18,21.14-47.86,51.4-47.86c9.51,0,18.42,2.02,26.5,6 l0.82,0.4v25.26h-7.56l-0.97-2.83c-6.54-19.18-7.9-23.17-19.39-23.17c-20.91,0-31.08,13.72-31.08,41.94 c0,27.09,8.74,39.7,27.52,39.7c12.89,0,15.33-4.16,15.33-11.84V95.48h-13.82v-6.04h39.64v6.04h-7.43v28.68l-0.66,0.43 C360.91,129.81,349.05,132.92,337.13,132.92z M340.23,92.55h13.82v22.98c0,8.37-3.17,12.71-10.93,14.19 c8.91-0.8,17.34-3.34,23.46-7.15V92.55h7.43v-0.18h-33.78V92.55z M330.35,43.73c-23.3,3.68-38.86,20.82-38.86,44.19 c0,21.96,13.23,37.24,34.55,41.11c-13.9-4.04-20.69-17.67-20.69-41.36C305.35,62.17,313.75,47.43,330.35,43.73z M361.81,68.8 h2.54V48.3c-6.21-2.93-12.93-4.65-20.05-5.15c9.28,1.49,11.53,8.11,17.22,24.81L361.81,68.8z"/>
      </g>
      <g>
        <path class="st1" d="M375.92,126.6h8.17l32.84-84.7h9.21l32.99,84.7h7.88v3.11h-35.07v-3.11h10.25l-11-31.09h-31.06L388.4,126.6 h12.48v3.11h-24.97V126.6z M430.02,92.4l-13.67-38.93L401.63,92.4H430.02z"/>
        <path class="st1" d="M468.49,131.18h-38v-6.04h9.65l-9.96-28.16h-29.01l-10.64,28.16h11.83v6.04h-27.9v-6.04h8.64l32.84-84.7 h11.22l32.99,84.7h8.34V131.18z M433.41,128.25h32.14v-0.18h-7.41l-32.99-84.7h-7.21l-32.84,84.7h-7.71v0.18h22.04v-0.18h-13.14 l12.85-34.02h33.11l12.03,34.02h-10.86V128.25z M432.08,93.86h-32.57l16.88-44.67L432.08,93.86z M403.75,90.94h24.2l-11.66-33.19 L403.75,90.94z"/>
      </g>
      <g>
        <path class="st1" d="M508.48,43.4v3.11H495.7v80.1h20.95c6.69,0,8.92-0.37,11-4.23c1.78-3.36,4.9-12.31,7.73-26.74h4.16v34.08 h-68.81v-3.11h9.07v-80.1h-9.07V43.4H508.48z"/>
        <path class="st1" d="M541,131.18h-71.74v-6.04h9.07V47.97h-9.07v-6.04h40.68v6.04h-12.78v77.17h19.49c6.82,0,8.09-0.45,9.71-3.46 c1.77-3.33,4.82-12.24,7.58-26.33l0.23-1.18H541V131.18z M472.2,128.25h65.88V97.1h-1.49c-2.76,13.73-5.82,22.54-7.64,25.96 c-2.47,4.58-5.33,5.01-12.29,5.01h-22.42V45.04h12.78v-0.18H472.2v0.18h9.07v83.02h-9.07V128.25z"/>
      </g>
    </g>
    <g>
      <g>
        <g/>
        <g/>
        <g/>
        <g>
          <path class="st1" d="M241.18,151.07v15.04c0,0.31,0,0.97,0,1.94c0,3,1.27,4.54,3.64,4.54c3.21,0,5.22-2.74,5.22-7.72v-12.7h-3.8 v-1.1h8.8v21.3h2.85v1.15h-7.59v-3.97c-0.95,2.87-3.69,4.59-6.96,4.59c-6.38,0-7.22-3.31-7.22-8.95v-13.01h-2.85v-1.1H241.18z"/>
          <path class="st1" d="M243.35,174.68c-7.19,0-7.77-4.3-7.77-9.5v-12.46h-2.85v-2.2h9.01v17.53c0,2.69,1.01,3.99,3.09,3.99 c2.97,0,4.67-2.61,4.67-7.17v-12.15h-3.8v-2.2h9.9v21.3h2.85v2.25h-8.69v-2.32C248.34,173.58,246.02,174.68,243.35,174.68z M233.83,151.62h2.85v13.56c0,5.81,0.96,8.41,6.67,8.41c1.39,0,2.65-0.32,3.69-0.91c-0.66,0.3-1.4,0.46-2.22,0.46 c-1.56,0-4.19-0.66-4.19-5.09v-16.43L233.83,151.62z M250.85,172.97l6.49-0.05h-2.85v-21.3l-7.7,0h3.8v13.25 c0,1.02-0.08,1.95-0.24,2.8l0.51-1.53V172.97z"/>
        </g>
        <g>
          <path class="st1" d="M261.58,172.41h2.85v-20.25h-2.85v-1.1h7.7v3.57c1.11-2.69,3.69-4.19,6.9-4.19c1.27,0,2.43,0.27,3.53,0.79 v8.16h-1.69c-1.48-5.16-1.95-7.45-3.9-7.45c-2.16,0-4.69,2.47-4.69,7.85v12.62h4.16v1.1h-12.02V172.41z"/>
          <path class="st1" d="M274.15,174.07h-13.12v-2.2h2.85v-19.15h-2.85v-2.2h8.79v2.13c1.43-1.75,3.69-2.75,6.36-2.75 c1.34,0,2.58,0.28,3.77,0.85l0.31,0.15v9.06h-2.65l-0.46-1.62c-1.23-4.33-1.72-5.83-3.02-5.83c-1.67,0-4.14,1.94-4.14,7.3v12.07 h4.16V174.07z M262.13,172.97l10.92,0h-4.16V159.8c0-2.81,0.68-4.93,1.7-6.34c-0.32,0.42-0.59,0.88-0.8,1.39l-1.06,2.57v-5.8 l-6.6,0h2.85v21.34L262.13,172.97z M278.44,158.85h0.72v-7.26c-1.92-0.82-4.23-0.75-5.96-0.08c0.3-0.08,0.61-0.12,0.92-0.12 c2.21,0,2.83,2.22,4.08,6.63L278.44,158.85z"/>
        </g>
        <g>
          <path class="st1" d="M293.99,150.45c3.16,0,5.85,0.84,7.27,1.98c2.11,1.68,2.16,3.66,2.16,6.44v13.54h2.95v1.1h-7.91v-4.06 c-1.48,3.18-3.95,4.68-7.85,4.68c-4.53,0-7.64-2.43-7.64-5.95c0-3.97,2.74-5.47,8.07-6.57c3.16-0.66,5.64-1.15,7.33-2.56v-1.94 c0-3.75-0.95-5.69-4.95-5.69c-3.74,0-4.06,1.63-6.22,7.94h-1.63v-6.97C287.72,151.33,290.36,150.45,293.99,150.45z M291.52,162.84c-2.32,0.88-3.32,2.56-3.32,5.12c0,3.04,1.74,4.72,4.27,4.72c3.53,0,5.9-3.18,5.9-8.95v-3.44 C295.89,161.65,293.41,162.09,291.52,162.84z"/>
          <path class="st1" d="M290.62,174.68c-4.82,0-8.19-2.67-8.19-6.5c0-4.45,3.25-6.02,8.5-7.11l0.28-0.06 c2.82-0.59,5.08-1.06,6.61-2.22v-1.68c0-3.89-1.07-5.14-4.4-5.14c-3.04,0-3.44,0.92-5.33,6.49l-0.5,1.45h-2.58v-7.86l0.31-0.15 c1.75-0.86,4.55-2,8.68-2c3.09,0,6.01,0.81,7.62,2.11c2.37,1.88,2.37,4.19,2.37,6.87v12.99h2.95v2.2h-9.01v-2.59 C296.3,173.65,293.94,174.68,290.62,174.68z M293.03,161.75c-0.51,0.11-1.04,0.22-1.59,0.34l-0.28,0.06 c-5.7,1.18-7.63,2.7-7.63,6.03c0,3.23,2.85,5.41,7.09,5.41c1.57,0,2.89-0.25,3.99-0.76c-0.65,0.27-1.37,0.4-2.15,0.4 c-2.93,0-4.82-2.07-4.82-5.27c0-2.85,1.2-4.69,3.67-5.63C291.85,162.12,292.42,161.94,293.03,161.75z M299.02,172.97l6.81,0 h-2.95v-14.09c0-2.85-0.09-4.53-1.95-6.01c-1.21-0.97-3.29-1.63-5.63-1.82c2.95,0.63,3.62,2.9,3.62,6.06v2.2l-0.17,0.14 l0.17-0.09v4.37c0,2.35-0.4,4.35-1.13,5.9c0.07-0.13,0.13-0.26,0.19-0.39l1.05-2.25V172.97z M297.82,161.18 c-1.4,0.67-2.77,1.09-4,1.47c-0.75,0.23-1.46,0.45-2.1,0.7l-0.01,0c-2.05,0.78-2.97,2.2-2.97,4.6c0,2.61,1.39,4.17,3.72,4.17 c3.35,0,5.35-3.14,5.35-8.41V161.18z M286.11,158.81h0.69l0.24-0.71c1.4-4.12,2.1-6.16,4.07-6.9c-2.17,0.32-3.82,0.97-5.01,1.53 V158.81z"/>
        </g>
        <g>
          <path class="st1" d="M309.64,172.41h2.79v-20.25h-2.79v-1.1h7.38v3.79c1-2.69,3.95-4.41,7.38-4.41c6.59,0,7.33,3.26,7.33,8.78 v13.19h2.79v1.1h-10.38v-1.1h2.85v-13.59c0-4.5-0.1-7.1-3.85-7.1c-3.43,0-5.9,3-5.9,8.38v12.31h2.79v1.1h-10.38V172.41z"/>
          <path class="st1" d="M335.07,174.07h-11.48v-2.2h2.85v-13.04c0-4.85-0.27-6.55-3.3-6.55c-3.3,0-5.35,3-5.35,7.83v11.76h2.79v2.2 H309.1v-2.2h2.79v-19.15h-2.79v-2.2h8.48v2.3c1.49-1.82,3.98-2.92,6.83-2.92c7.3,0,7.88,4.04,7.88,9.33v12.64h2.79V174.07z M324.69,172.97l9.29,0h-2.79v-13.74c0-5.8-0.94-8.23-6.78-8.23c-0.74,0-1.45,0.08-2.12,0.24c0.28-0.04,0.56-0.06,0.86-0.06 c4.4,0,4.4,3.38,4.4,7.65v14.13L324.69,172.97z M310.19,172.97l9.29,0h-2.79v-12.86c0-3.29,0.93-5.87,2.53-7.39 c-0.76,0.64-1.34,1.43-1.68,2.34l-1.06,2.86v-6.3l-6.28,0h2.79v21.34L310.19,172.97z"/>
        </g>
        <g>
          <path class="st1" d="M357.5,159.84h-1.48c-1.74-6.18-2.11-8.42-5.48-8.42c-4.32,0-6.69,3.75-6.69,11.2 c0,6.79,2.05,10.19,6.33,10.19c3.95,0,6.59-2.65,6.96-7.54h1.11c-0.05,5.51-3.85,8.87-9.17,8.87c-6.06,0-10.75-4.5-10.75-11.6 c0-7.32,5.06-12.09,12.49-12.09c2.27,0,4.69,0.49,6.69,1.41V159.84z"/>
          <path class="st1" d="M349.07,174.68c-6.66,0-11.3-5-11.3-12.15c0-7.56,5.24-12.64,13.04-12.64c2.39,0,4.92,0.53,6.92,1.46 l0.32,0.15v8.88h-2.44l-0.46-1.66c-1.52-5.48-1.98-6.77-4.6-6.77c-5.08,0-6.15,5.79-6.15,10.65c0,6.49,1.89,9.64,5.78,9.64 c3.74,0,6.07-2.56,6.41-7.04l0.04-0.51h2.17l-0.01,0.55C358.74,170.9,354.83,174.68,349.07,174.68z M348.49,151.17 c-5.85,0.9-9.63,5.24-9.63,11.36c0,6.51,4.2,11.05,10.2,11.05c1.26,0,2.41-0.19,3.44-0.56c-0.72,0.22-1.49,0.33-2.33,0.33 c-4.56,0-6.87-3.61-6.87-10.74C343.3,154.88,345.8,152.01,348.49,151.17z M357.63,165.82c-0.25,2.27-1.02,4.1-2.21,5.38 c1.32-1.33,2.11-3.17,2.24-5.38H357.63z M356.44,159.29h0.51v-7.08c-1.47-0.63-3.22-1.04-4.95-1.17c2.32,0.63,2.98,3.01,4.2,7.4 L356.44,159.29z"/>
        </g>
        <g>
          <path class="st1" d="M385.17,164.74c-0.53,6.09-4.27,9.4-10.33,9.4c-6.75,0-11.97-4.85-11.97-11.91 c0-7.06,5.27-11.78,11.91-11.78c6.27,0,10.07,3.4,10.07,9.4c0,0.22,0,0.4,0,0.62h-16.5c0,0.57-0.05,1.19-0.05,1.9 c0,6.97,2.48,10.54,7.22,10.54c4.48,0,7.7-2.91,8.22-8.16H385.17z M379.43,159.36c0.05-0.93,0.05-1.5,0.05-1.68 c0-4.23-1.58-6.31-4.8-6.31c-3.58,0-5.9,2.78-6.17,7.98H379.43z"/>
          <path class="st1" d="M374.84,174.68c-7.25,0-12.51-5.24-12.51-12.46c0-7.14,5.24-12.33,12.46-12.33 c6.65,0,10.62,3.72,10.62,9.94v1.17H368.9c0,0.11-0.01,0.21-0.01,0.32c-0.01,0.32-0.03,0.66-0.03,1.02 c0,6.63,2.25,9.99,6.67,9.99c4.33,0,7.19-2.87,7.68-7.67l0.05-0.49h2.52l-0.05,0.6C385.18,171.08,381.21,174.68,374.84,174.68z M372.43,151.21c-5.33,0.99-9,5.32-9,11.02c0,6.58,4.8,11.36,11.42,11.36c5.61,0,9.04-2.94,9.72-8.3h-0.32 c-0.69,5.05-3.99,8.16-8.71,8.16c-3.55,0-7.77-1.92-7.77-11.09c0-0.38,0.01-0.73,0.03-1.07c0.01-0.29,0.02-0.56,0.02-0.83v-0.55 h16.5v-0.07c0-5.03-2.78-8.15-7.71-8.74c2.28,0.74,3.43,2.94,3.43,6.58c0,0.18,0,0.76-0.05,1.71l-0.03,0.52h-12.01l0.03-0.58 C368.19,155.03,369.78,152.19,372.43,151.21z M369.1,158.81h9.8c0.03-0.61,0.03-0.99,0.03-1.13c0-5.16-2.42-5.76-4.25-5.76 C371.44,151.92,369.47,154.36,369.1,158.81z"/>
        </g>
        <g>
          <path class="st1" d="M431.34,152.43h-1.79c-2.53-7.41-3-9.22-7.59-9.22c-7.7,0-11.54,5.16-11.54,15.39 c0,9.79,3.27,14.6,10.28,14.6c4.74,0,5.96-1.59,5.96-4.72v-7.63h-4.9v-1.1h13.02v1.1h-2.64v10.41 c-2.69,1.76-6.8,2.87-10.96,2.87c-10.17,0-16.71-6.13-16.71-15.44c0-9.84,7.48-16.45,17.71-16.45c3.43,0,6.48,0.75,9.17,2.07 V152.43z"/>
          <path class="st1" d="M421.17,174.68c-10.49,0-17.26-6.28-17.26-15.99c0-10.01,7.51-17,18.26-17c3.38,0,6.55,0.72,9.42,2.13 l0.31,0.15v9.01h-2.74l-0.35-1.02c-2.31-6.78-2.79-8.2-6.85-8.2c-7.4,0-11,4.86-11,14.84c0,9.59,3.09,14.05,9.73,14.05 c4.54,0,5.41-1.47,5.41-4.17v-7.08h-4.9v-2.2h14.12v2.2h-2.64v10.16l-0.25,0.16C429.61,173.58,425.4,174.68,421.17,174.68z M422.3,160.31h4.9v8.18c0,2.8-1,4.34-3.4,4.95c2.96-0.33,5.74-1.2,7.78-2.47v-10.66l2.64-0.01L422.3,160.31z M417.99,143.19 c-7.82,1.55-12.98,7.49-12.98,15.5c0,7.6,4.47,12.93,11.72,14.45c-4.61-1.61-6.86-6.41-6.86-14.54 C409.87,149.95,412.6,144.78,417.99,143.19z M429.94,151.88h0.85v-7.22c-2.04-0.96-4.24-1.55-6.56-1.77 c2.88,0.69,3.7,3.1,5.61,8.71L429.94,151.88z"/>
        </g>
        <g>
          <path class="st1" d="M437.66,172.41h2.85v-20.25h-2.85v-1.1h7.7v3.57c1.11-2.69,3.69-4.19,6.91-4.19c1.26,0,2.42,0.27,3.53,0.79 v8.16h-1.69c-1.48-5.16-1.95-7.45-3.9-7.45c-2.16,0-4.69,2.47-4.69,7.85v12.62h4.16v1.1h-12.02V172.41z"/>
          <path class="st1" d="M450.23,174.07h-13.12v-2.2h2.85v-19.15h-2.85v-2.2h8.79v2.13c1.43-1.75,3.69-2.75,6.36-2.75 c1.34,0,2.57,0.28,3.77,0.85l0.31,0.15v9.06h-2.65l-0.46-1.61c-1.23-4.34-1.72-5.84-3.03-5.84c-1.66,0-4.14,1.94-4.14,7.3v12.07 h4.16V174.07z M438.21,172.97l10.92,0h-4.16V159.8c0-2.82,0.69-4.95,1.71-6.36c-0.32,0.42-0.6,0.89-0.81,1.41l-1.06,2.57v-5.8 l-6.6,0h2.85v21.34L438.21,172.97z M454.53,158.85h0.72v-7.26c-1.92-0.82-4.23-0.75-5.96-0.08c0.3-0.08,0.61-0.12,0.92-0.12 c2.21,0,2.83,2.22,4.09,6.64L454.53,158.85z"/>
        </g>
        <g>
          <path class="st1" d="M482.31,162.27c0,6.93-5.11,11.87-11.49,11.87c-6.38,0-11.44-4.9-11.44-11.87 c0-6.93,5.01-11.82,11.44-11.82C477.25,150.45,482.31,155.34,482.31,162.27z M464.91,162.27c0,7.41,1.53,10.94,5.9,10.94 c4.43,0,5.9-3.53,5.9-10.94c0-7.41-1.53-10.89-5.9-10.89C466.44,151.37,464.91,154.86,464.91,162.27z"/>
          <path class="st1" d="M470.82,174.68c-6.83,0-11.99-5.34-11.99-12.41c0-7.05,5.15-12.37,11.99-12.37 c6.86,0,12.04,5.32,12.04,12.37C482.86,169.35,477.68,174.68,470.82,174.68z M468.52,151.22c-5.09,1-8.59,5.34-8.59,11.05 c0,5.61,3.54,10.02,8.54,11.07c-3.56-1.42-4.1-6.29-4.1-11.07C464.37,157.48,464.91,152.61,468.52,151.22z M473.16,151.23 c3.57,1.41,4.11,6.27,4.11,11.04c0,4.98-0.55,9.66-4.03,11.06c4.99-1.08,8.52-5.48,8.52-11.06 C481.76,156.68,478.2,152.28,473.16,151.23z M470.82,151.92c-3.85,0-5.35,2.9-5.35,10.35c0,7.38,1.55,10.39,5.35,10.39 c3.85,0,5.36-2.91,5.36-10.39C476.17,154.82,474.67,151.92,470.82,151.92z"/>
        </g>
        <g>
          <path class="st1" d="M494.22,151.07v15.04c0,0.31,0,0.97,0,1.94c0,3,1.27,4.54,3.64,4.54c3.22,0,5.22-2.74,5.22-7.72v-12.7 h-3.79v-1.1h8.8v21.3h2.85v1.15h-7.59v-3.97c-0.95,2.87-3.69,4.59-6.96,4.59c-6.38,0-7.22-3.31-7.22-8.95v-13.01h-2.85v-1.1 H494.22z"/>
          <path class="st1" d="M496.38,174.68c-7.18,0-7.77-4.3-7.77-9.5v-12.46h-2.85v-2.2h9.01v17.53c0,2.69,1.01,3.99,3.09,3.99 c2.97,0,4.67-2.61,4.67-7.17v-12.15h-3.79v-2.2h9.9v21.3h2.85v2.25h-8.69v-2.33C501.38,173.58,499.05,174.68,496.38,174.68z M486.86,151.62h2.85v13.56c0,5.81,0.96,8.41,6.67,8.41c1.39,0,2.65-0.32,3.69-0.91c-0.66,0.3-1.4,0.46-2.22,0.46 c-1.56,0-4.19-0.66-4.19-5.09v-16.43L486.86,151.62z M503.89,172.97l6.49-0.05h-2.85v-21.3l-7.7,0h3.79v13.25 c0,1.02-0.08,1.96-0.25,2.81l0.51-1.54V172.97z"/>
        </g>
        <g>
          <path class="st1" d="M514.24,181.06v-1.1h3.06v-27.79h-3.06v-1.1h7.64v3.18c1.21-2.43,3.64-3.79,6.75-3.79 c6.01,0,10.49,4.46,10.49,11.69c0,7.37-4.96,12-10.49,12c-2.79,0-5.17-1.15-6.54-3.18v9h3.74v1.1H514.24z M522.31,162.14 c0,7.1,1.58,10.63,5.8,10.63c3.9,0,5.48-3.62,5.48-10.94c0-6.66-1.9-10.01-5.59-10.01C524.1,151.82,522.31,155.21,522.31,162.14 z"/>
          <path class="st1" d="M526.39,181.61h-12.7v-2.2h3.06v-26.69h-3.06v-2.2h8.74v1.93c1.45-1.64,3.62-2.55,6.2-2.55 c6.6,0,11.04,4.92,11.04,12.24c0,8.15-5.69,12.55-11.04,12.55c-2.38,0-4.49-0.8-5.99-2.23v6.95h3.74V181.61z M514.79,180.51 l10.5-0.01h-3.74v-11.34l1,1.49c1.26,1.86,3.48,2.93,6.08,2.93c4.82,0,9.94-4.01,9.94-11.45c0-6.66-3.99-11.14-9.94-11.14 c-2.91,0-5.13,1.24-6.26,3.49l-1.04,2.08v-4.95l-6.55,0h3.06v28.89L514.79,180.51z M528.11,173.32c-5.63,0-6.35-5.97-6.35-11.18 c0-7.31,2.04-10.87,6.24-10.87c4.07,0,6.14,3.55,6.14,10.56C534.14,167.18,533.45,173.32,528.11,173.32z M528,152.36 c-2.21,0-5.14,1.01-5.14,9.77c0,7.07,1.57,10.08,5.25,10.08c2.3,0,4.93-1.18,4.93-10.39C533.04,155.55,531.35,152.36,528,152.36 z"/>
        </g>
      </g>
    </g>
    <path class="st2" d="M39.04,79.5c0-0.8,0.02-1.59,0.05-2.37h28.57c-0.47,1.38-0.78,2.83-0.93,4.35H39.08 C39.06,80.83,39.04,80.17,39.04,79.5L39.04,79.5z M66.63,83.66c0,0.01,0,0.02,0,0.04c0,1.51,0.14,2.95,0.43,4.32H39.74 c-0.24-1.44-0.41-2.89-0.53-4.35H66.63L66.63,83.66z M67.65,90.19c0.53,1.55,1.26,3.01,2.2,4.35H41.27 c-0.43-1.43-0.81-2.88-1.11-4.35H67.65L67.65,90.19z M71.64,96.72c0.08,0.09,0.17,0.18,0.26,0.27c0.39,0.39,0.83,0.79,1.33,1.21 c1.06,0.91,2.39,1.87,4.01,2.88H43.72c-0.65-1.42-1.23-2.87-1.75-4.35H71.64L71.64,96.72z M80.99,103.25 c2.52,1.37,5.49,2.82,8.9,4.35H47.25c-0.89-1.41-1.72-2.86-2.48-4.35H80.99L80.99,103.25z M94.9,109.79 c0.38,0.15,0.76,0.32,1.15,0.48v3.87H52.11c-1.21-1.4-2.34-2.85-3.4-4.35H94.9L94.9,109.79z M96.05,116.32v4.36H71.22 c-0.26-0.81-0.52-1.65-0.77-2.49c-0.13-0.42-0.2-0.7-0.24-0.86h-0.26c-0.03-0.12-0.05-0.21-0.07-0.28h-2.91v3.64h-8.18 c-1.65-1.37-3.22-2.82-4.69-4.36H96.05L96.05,116.32z M96.05,122.85v4.36H73.53c-0.54-1.39-1.07-2.84-1.59-4.36H96.05L96.05,122.85 z M96.05,129.38v4.36h-5.48c-5.56-0.52-10.9-1.8-15.88-3.74c-0.09-0.21-0.18-0.41-0.26-0.62H96.05L96.05,129.38z M66.96,122.85 v3.48c-1.86-1.06-3.66-2.22-5.38-3.48H66.96L66.96,122.85z M39.24,74.95c0.13-1.47,0.32-2.92,0.57-4.36h31.67 c-1.19,1.36-2.16,2.81-2.91,4.36H39.24L39.24,74.95z M40.23,68.42c0.32-1.47,0.7-2.92,1.15-4.35h38.97 c-1.63,0.78-3.16,1.68-4.58,2.7c-0.74,0.53-1.44,1.09-2.1,1.65H40.23L40.23,68.42z M42.11,61.89c0.53-1.48,1.13-2.94,1.79-4.36 h52.15v2.8c-3.54,0.21-6.81,0.73-9.82,1.55H42.11L42.11,61.89z M44.97,55.36c0.78-1.49,1.62-2.95,2.53-4.35h48.55v4.35H44.97 L44.97,55.36z M48.99,48.82c1.08-1.51,2.24-2.96,3.47-4.35h43.6v4.35H48.99L48.99,48.82z M54.48,42.29 c1.51-1.54,3.11-2.99,4.79-4.35h36.78v4.35H54.48L54.48,42.29z M62.14,35.76c2.27-1.61,4.67-3.07,7.19-4.35h26.73v4.35H62.14 L62.14,35.76z M74.11,29.23c6.76-2.71,14.17-4.21,21.94-4.21v4.21H74.11L74.11,29.23z M96.05,64.06v4.35H81.4 c0.39-0.32,0.8-0.64,1.24-0.95c2.21-1.56,4.74-2.69,7.58-3.4H96.05L96.05,64.06z M96.05,70.6v4.36H76.97 c0.44-1.57,1.19-3.02,2.27-4.36H96.05L96.05,70.6z M96.05,77.13v4.35H77.09c-0.38-1.05-0.57-2.1-0.57-3.16 c0-0.4,0.02-0.8,0.05-1.19H96.05L96.05,77.13z M96.05,83.66v4.35H82.02c-1.67-1.44-2.95-2.89-3.86-4.35H96.05L96.05,83.66z M96.05,90.19v4.35H92.6c-2.96-1.44-5.52-2.89-7.68-4.35H96.05L96.05,90.19z"/>
    <path class="st2" d="M153.09,130.48c0-0.37,0-0.74-0.01-1.1h-24.53c-0.31,1.51-0.78,2.96-1.39,4.36h25.83 C153.06,132.66,153.09,131.57,153.09,130.48L153.09,130.48z M126.06,135.91c-0.88,1.52-1.95,2.97-3.21,4.35h29.32 c0.27-1.43,0.49-2.88,0.65-4.35H126.06L126.06,135.91z M120.63,142.44c-0.53,0.46-1.08,0.92-1.66,1.37 c-1.44,1.11-2.95,2.11-4.55,2.98h36.05c0.47-1.43,0.88-2.88,1.23-4.35H120.63L120.63,142.44z M109.65,148.98 c-4.09,1.52-8.61,2.38-13.56,2.61v1.74h51.73c0.69-1.42,1.32-2.87,1.88-4.35H109.65L109.65,148.98z M96.09,155.51v4.35h47.97 c0.95-1.41,1.83-2.86,2.65-4.35H96.09L96.09,155.51z M96.09,162.04v4.35h42.81c1.28-1.39,2.48-2.84,3.61-4.35H96.09L96.09,162.04z M96.09,168.57v4.36h35.67c1.76-1.36,3.44-2.81,5.02-4.36H96.09L96.09,168.57z M96.09,175.1v4.36h24.93 c2.7-1.26,5.27-2.72,7.71-4.36H96.09L96.09,175.1z M96.09,181.63v3.33c6.88,0,13.49-1.18,19.61-3.33H96.09L96.09,181.63z M152.99,127.2c-0.09-1.47-0.24-2.92-0.46-4.36H129c0.04,0.53,0.05,1.07,0.05,1.62c0,0.93-0.05,1.84-0.15,2.74H152.99L152.99,127.2 z M152.17,120.67c-0.28-1.47-0.63-2.93-1.03-4.36h-23.67c0.59,1.37,1.02,2.82,1.28,4.36H152.17L152.17,120.67z M150.47,114.14 c-0.49-1.48-1.04-2.93-1.66-4.35h-26.13c0.42,0.37,0.81,0.73,1.15,1.09c0.97,1.02,1.81,2.1,2.51,3.26H150.47L150.47,114.14z M147.81,107.61c-0.73-1.49-1.52-2.94-2.38-4.35h-33.09c3.03,1.52,5.54,2.97,7.54,4.35H147.81L147.81,107.61z M144.04,101.08 c-1.01-1.5-2.1-2.96-3.26-4.35H97.42c0.58,0.24,1.16,0.49,1.76,0.73c0.7,0.27,1.19,0.48,1.5,0.61c2.56,1.03,4.92,2.04,7.09,3.01 H144.04L144.04,101.08z M138.87,94.55c-1.41-1.53-2.91-2.99-4.48-4.35h-38.3v4.35H138.87L138.87,94.55z M131.72,88.01 c-2.07-1.59-4.26-3.05-6.55-4.35h-1.41v4.35H131.72L131.72,88.01z M120.04,88.01c-0.12-0.37-0.26-0.78-0.41-1.23 c-0.35-1.08-0.7-2.12-1.07-3.13H96.09v4.35H120.04L120.04,88.01z M117.73,81.48c-0.23-0.57-0.46-1.12-0.69-1.66 c-3.01-1.15-6.15-2.05-9.39-2.69H96.09v4.35H117.73L117.73,81.48z M96.09,110.28v3.86h8.52c-2.29-1.16-4.97-2.38-8.04-3.66 C96.41,110.41,96.25,110.34,96.09,110.28L96.09,110.28z M96.09,116.32v4.36h17.81c-0.33-0.43-0.69-0.84-1.07-1.24 c-0.24-0.24-0.5-0.49-0.79-0.74c-0.92-0.75-2.07-1.55-3.45-2.38H96.09L96.09,116.32z M96.09,122.85v4.36h20.4 c-0.18-1.56-0.59-3.01-1.25-4.36H96.09L96.09,122.85z M96.09,129.38v4.36h19.92c0.35-1.38,0.54-2.83,0.57-4.36H96.09L96.09,129.38z M96.09,135.91v4.35h16.63c1.09-1.35,1.95-2.8,2.58-4.35H96.09L96.09,135.91z M96.09,142.44v4.35h7.57 c2.41-0.92,4.58-2.22,6.53-3.91c0.17-0.15,0.33-0.29,0.49-0.44H96.09L96.09,142.44z"/>
    <g>
      <g>
        <path class="st1" d="M54.01,147.24v1.08h-3.16v27.87h3.16v1.08H42.17v-1.08h3.15v-27.87h-3.15v-1.08H54.01z"/>
        <path class="st1" d="M54.38,177.64H41.8v-1.81h3.15v-27.14H41.8v-1.81h12.58v1.81h-3.16v27.14h3.16V177.64z M42.53,176.91h11.11 v-0.35h-3.16v-28.61h3.16v-0.35H42.53v0.35h3.15v28.61h-3.15V176.91z"/>
      </g>
      <g>
        <path class="st1" d="M83.8,156.59h-1.76c-2.48-7.27-2.95-9.05-7.45-9.05c-7.55,0-11.33,5.06-11.33,15.11 c0,9.61,3.21,14.33,10.09,14.33c4.65,0,5.84-1.56,5.84-4.63v-7.49h-4.81v-1.08h12.78v1.08h-2.59v10.21 c-2.64,1.73-6.67,2.81-10.76,2.81c-9.98,0-16.4-6.02-16.4-15.15c0-9.65,7.34-16.14,17.38-16.14c3.36,0,6.36,0.74,9,2.03V156.59z"/>
        <path class="st1" d="M73.82,178.25c-10.18,0-16.76-6.09-16.76-15.51c0-9.72,7.3-16.51,17.75-16.51c3.29,0,6.37,0.7,9.16,2.07 l0.2,0.1v8.56h-2.39l-0.3-0.89c-2.3-6.75-2.78-8.16-6.89-8.16c-7.38,0-10.96,4.82-10.96,14.74c0,9.52,3.09,13.96,9.72,13.96 c4.6,0,5.48-1.5,5.48-4.27v-7.12h-4.81v-1.81h13.51v1.81h-2.59v10.05l-0.17,0.11C82.04,177.18,77.94,178.25,73.82,178.25z M74.8,146.96c-10.02,0-17.01,6.49-17.01,15.78c0,8.98,6.29,14.78,16.03,14.78c3.9,0,7.77-0.99,10.39-2.65v-10.38h2.59v-0.35 H74.75v0.35h4.81v7.85c0,3.6-1.74,5-6.21,5c-7.03,0-10.45-4.81-10.45-14.69c0-10.27,3.93-15.47,11.69-15.47 c4.63,0,5.25,1.83,7.58,8.66l0.13,0.39h1.13v-7.37C80.8,147.6,77.9,146.96,74.8,146.96z"/>
      </g>
    </g>
  </g>
</svg>