<?xml version="1.0" encoding="utf-8"?>
<svg id="Layer_1" data-name="Layer 1" xmlns="http://www.w3.org/2000/svg" viewBox="0 0 2485.1 1505.66">
  <defs>
    <style>.cls-1{fill:#f9af79;}.cls-1,.cls-10,.cls-11,.cls-12,.cls-13,.cls-14,.cls-15,.cls-16,.cls-17,.cls-18,.cls-19,.cls-2,.cls-20,.cls-22,.cls-23,.cls-24,.cls-25,.cls-26,.cls-27,.cls-28,.cls-29,.cls-3,.cls-30,.cls-4,.cls-5,.cls-6,.cls-7,.cls-8,.cls-9{fill-rule:evenodd;}.cls-2{fill:#0e5491;}.cls-3{fill:#c3d7d2;}.cls-4{fill:#6d96ce;}.cls-5{fill:#1467af;}.cls-6{fill:#20386f;}.cls-7{fill:#223f81;}.cls-8{fill:#466fb5;}.cls-9{fill:#0e2952;}.cls-10{fill:#f48661;}.cls-11{fill:#ed7d57;}.cls-12{fill:#d05627;}.cls-13{fill:#1d2b5b;}.cls-14{fill:#fff;}.cls-15{fill:#e9f0f9;}.cls-16{fill:#eb795b;}.cls-17{fill:#e3bb9b;}.cls-18{fill:#d1a383;}.cls-19{fill:#6998d0;}.cls-20{fill:#406fb5;}.cls-21{fill:#e6ecf7;}.cls-22{fill:#d0d9ee;}.cls-23{fill:#d2e5f7;}.cls-24{fill:#a4d0fc;}.cls-25{fill:#8bbae9;}.cls-26{fill:#c3dffa;}.cls-27{fill:#9c7357;}.cls-28{fill:#859ac6;}.cls-29{fill:#b0c2e4;}.cls-30{fill:#c4d1eb;}</style>
  </defs>
  <path class="cls-1" d="M1326.44,967.56s-6.13-5-8.34-5-6.39-1.12-6.22-.41,3.69,1.65,3.08,2-5.72-1-7.16-.22-4.79,4.24-2.09,5.73,10.8,3.86,12.89,3.59,6.83-.61,6.83-.61Z"/>
  <path class="cls-2" d="M1304.86,884.74l.29,0-.29,0Zm.5-.08h0Zm33.91-6.34.12,0-.12,0Zm.28-.06.27-.06-.27.06Zm.35-.08.24,0-.24,0Zm.28-.06q3.72-.81,7.36-1.67c-24.5-3.21-71.81-13.22-62.91-42.12,8.35-27.09,72.49-45,111.77-54.76-30.13-2-67.31-.19-107.06,6-91,14.24-162.31,46.35-164.08,73.11,1.77-26.76,73.06-58.87,164.08-73.11,39.87-6.24,77.18-8.06,107.35-6,41.59,2.78,69.62,12.87,72.1,28.73C1472.53,832.16,1417.24,861.23,1340.18,878.12Z"/>
  <path class="cls-3" d="M1305.15,884.69l.21,0-.21,0Zm.29,0c11.63-1.84,22.94-4,33.83-6.33-10.89,2.37-22.2,4.49-33.83,6.33Zm34-6.35.16,0-.16,0Zm.43-.1.08,0-.08,0Zm.32-.07h0Z"/>
  <path class="cls-2" d="M1211.81,891.43c-22.2-1-32.48-2-43.89-4.3-24.89-4.8-40.68-13.36-42.51-25.09a14.74,14.74,0,0,1-.15-3.32c1.77-26.76,73.06-58.87,164.08-73.11,39.75-6.23,76.93-8,107.06-6-39.28,9.74-103.42,27.67-111.77,54.76-8.9,28.9,38.41,38.91,62.91,42.12q-3.64.85-7.36,1.67h0l-.24,0-.08,0-.27.06-.16,0-.12,0c-10.89,2.37-22.2,4.49-33.83,6.33h-.08l-.21,0-.29,0h0C1271.07,890,1239.13,892.14,1211.81,891.43Z"/>
  <path class="cls-4" d="M1206.57,805a89.76,89.76,0,0,0-11,16.8c-15.79,31.89-20.52,57.24-21.81,66.4l1.47.24c1.26-9,5.94-34.2,21.67-66a90.5,90.5,0,0,1,12.34-18.3Z"/>
  <path class="cls-4" d="M1266.15,789.7a239.9,239.9,0,0,0-8.79,31.73c-5.85,28.68-5.57,58.62-5.24,69.15l1.48-.09c-.32-10.51-.6-40.26,5.21-68.77a237.45,237.45,0,0,1,9-32.35Z"/>
  <path class="cls-4" d="M1330.7,810.84c-1.85-2.91-3.88-5.78-6-8.59l-1.4.61c2.2,2.88,4.28,5.81,6.17,8.77,14.12,22.13,28.14,53.59,31.58,61.49l1.45-.38c-3.29-7.57-17.48-39.49-31.77-61.9Zm-24.87-27.58h0l1.87-.24Z"/>
  <path class="cls-4" d="M1391.69,787.19c-2.13-1.65-4.37-3.22-6.69-4.73l-2,.52a94.13,94.13,0,0,1,7.74,5.39c32,24.86,45.48,56.16,45.62,56.48l.07,0c.43-.23.85-.47,1.27-.71-.73-1.66-14.41-32.45-46-57ZM1379,778.86l0,0-3.15,0h0Z"/>
  <path class="cls-4" d="M1276.81,729.83a3,3,0,0,0-5.87,1L1315,990.5a3,3,0,0,0,2.74,2.48l.7,0a3,3,0,0,0,2.43-3.43Z"/>
  <path class="cls-5" d="M1283.93,752.62c-94.83,14.84-162.81,82-158.52,109.42-4.29-27.37,69.11-61.59,163.93-76.43s175.17-4.68,179.45,22.69C1464.51,780.93,1378.75,737.78,1283.93,752.62Z"/>
  <path class="cls-1" d="M1254.83,1149.79s3.69,3.65,3.78,5,.32,15.7-1.18,17-5.94,2.31-4.52,3.81c1.08,1.13,9.36.88,14.85.59,1.6-.11,3.61-13,4.25-14.94.91-2.77,4.23-8.81,3.4-10.71-.41-.94-3.45-3.09-6.2-4.88s-5.66-6.12-5.66-6.12Z"/>
  <path class="cls-6" d="M1174,979.07l-8.26,21.36s-5.38,51-2.25,81.49c1.31,12.78,29.69,81.1,29.69,81.1l14.09-2-18.87-80.91,6.94-30.94,9.84-61.18Z"/>
  <path class="cls-7" d="M1212.84,980.17l7.08,23.77,10.75,71.81,36.41,67.17s-5.47,8.43-11.35,9.74l-51.67-67.89-28-85,1-18.89Z"/>
  <path class="cls-1" d="M1101.35,978.66c5.49-.26,5.32.69,6,.62s9.71-6.92,9.71-6.92,26.27-20,27.65-21.15l16.4-30.21,17.09,4s-18.7,32.36-20,33.88-39.9,24.39-43.24,26.54c0,0-3.06,4-5.06,6.49s-5,3.88-5.65,4.49a27.94,27.94,0,0,1-5.93,3.51c-3,1.35-.77-1.31-.77-1.31s5.15-3.49,4.81-3.84-3,1.78-6.28,3.29c-.85.39-1.69.76-2.47,1.09-2,.9-3.17-.1-1.18-1.4a23.47,23.47,0,0,1,2.8-1.56,19.92,19.92,0,0,0,2.54-1.64,22.86,22.86,0,0,0,2.61-1.7c-.1,0,.08-.46-.84-.07-1.11.45-3.23,2-4.92,2.5-.94.32-2.88,1.09-2.88,1.09a20.59,20.59,0,0,1-3.39.72c-.53-.94,1.65-2.27,3-2.51a13.87,13.87,0,0,1,2.84-1.36s3.84-2.48,3.51-3-10.61,3.65-11.08,2.69,2.68-2.2,2.68-2.2,1.91-.68,2.53-1,2.82-1.49,2.82-1.49,7.1-4.34,6.74-4.85a3.85,3.85,0,0,0-2.33-1.28c-.54.12-1.41.85-1.93.94a1.36,1.36,0,0,1-1.52-.84c-.18-.66,2.18-2.21,2.18-2.21A8.77,8.77,0,0,1,1101.35,978.66Z"/>
  <path class="cls-8" d="M1154.62,929.43l17.58,9.93s7.53-14.92,10.72-22.22c3.87-8.86,7.8-20.55,6.64-20.77-3.26-.6-7.67-.71-11.49,1.54C1164.86,905.76,1154.62,929.43,1154.62,929.43Z"/>
  <path class="cls-1" d="M1240.38,1018.25c3.06-5,3.75-4.3,4.13-5s0-12.72,0-12.72-1.22-35.26-1.36-37.16l-15.7-32.55L1241,918.07S1257.12,954,1257.64,956s-3.2,49.94-3.4,54.18c0,0,1.57,5.13,2.45,8.37s.33,6.74.43,7.68a30.31,30.31,0,0,1-.57,7.38c-.67,3.46-1.57-.14-1.57-.14s.13-6.63-.37-6.54-.27,3.7-1,7.54c-.18,1-.37,2-.55,2.84-.45,2.36-2,2.74-1.88.21a24.48,24.48,0,0,1,.35-3.43,21.15,21.15,0,0,0,.14-3.22,23.81,23.81,0,0,0,.11-3.33c-.09.06-.34-.35-.56.7-.28,1.26-.28,4-.82,5.85-.3,1-.8,3.22-.8,3.22a21.47,21.47,0,0,1-1.58,3.14c-1.12-.08-.77-2.52-.18-3.87a16.37,16.37,0,0,1,.55-3.32s.21-4.89-.47-4.94c-.28,0-.76,3-1.67,5.85-.85,2.66-2.12,5.21-2.66,5.1-.9-.14-.26-3.19-.26-3.19s.55-2.1.68-2.82.44-3.38.44-3.38.57-8.91-.07-8.89a4.18,4.18,0,0,0-2.48,1.32c-.22.54-.12,1.74-.35,2.28a1.42,1.42,0,0,1-1.62.83c-.67-.21-.56-3.24-.56-3.24A9.85,9.85,0,0,1,1240.38,1018.25Z"/>
  <path class="cls-9" d="M1269,1145.58s-7.78,23.82-11.1,25c-.9.29-5.87,1.55-6.67,3.46l-.06.19a2,2,0,0,0,2,2.3H1269s2.24-10.7,3.14-15.4c0,0,4.69-11.51,4.17-12.53S1269,1145.58,1269,1145.58Z"/>
  <path class="cls-9" d="M1211.24,1176.51l-2.62-8.37s-5.47,2.37-8.21,2a77.78,77.78,0,0,1-8.09-2c-10.94,3.65-19.9,5.43-18.27,8.37Z"/>
  <path class="cls-10" d="M1108,983.76a7,7,0,0,1-6.54-.4A4.3,4.3,0,0,0,1108,983.76Z"/>
  <path class="cls-4" d="M1210.28,892.93s10.63,1.48,13.43,3.54c3.15,2.31,12.91,13.12,12.91,13.12s-20.31,58.18-19.53,68.54,3,25.71,3,25.71-39.74,2.52-54.67-3.38c0,0,5-23.51,5-29.66s2.65-67.76,4.54-71,5.68-5.05,12.89-6.63S1210.28,892.93,1210.28,892.93Z"/>
  <path class="cls-1" d="M1207.38,876.32l2.62,17.23s-9.61,20.52-15.35,18.75c-4.81-1.5-1.85-19.64-1.85-19.64s2.63-9.77,1.85-14.65S1207.38,876.32,1207.38,876.32Z"/>
  <path class="cls-11" d="M1194.65,878c-.8-4.86,12.73-1.69,12.73-1.69l.21,1.42a7.45,7.45,0,0,1-1.47,2.42,17.79,17.79,0,0,1-11.81,5.31A26.92,26.92,0,0,0,1194.65,878Z"/>
  <path class="cls-1" d="M1209.59,852c.38-.13,3.06,19.62-2,25.07s-15,7.22-18.56,2.92c-1.75-2.11-5.27-8.05-2.8-14.75s2.6-13.73,7-16.83C1201.09,842.78,1209.59,852,1209.59,852Z"/>
  <path class="cls-6" d="M1190.31,840c15.14-4.41,44,19.42,24.46,32.41a17.21,17.21,0,0,0-6.41,10.31l-.89-2.6a14.22,14.22,0,0,1-.7-6,11.54,11.54,0,0,1,.91-3.62c1.33-2.85-2.89-4.75-4.08-7.14-.9-1.83-.95-6-2.38-9L1199.5,852s-4-3.06-7.83-2.17S1181.29,841.51,1190.31,840Z"/>
  <path class="cls-1" d="M1203.87,866.88c0,2.41,1.06,4.4,2.46,4.4s2.57-1.91,2.61-4.33-1.06-4.37-2.46-4.4S1203.91,864.46,1203.87,866.88Z"/>
  <path class="cls-8" d="M1249.82,930.44,1232,944.32s-7.85-7.51-11.81-15.86-.48-33,3.77-31.91C1233.5,899.13,1249.82,930.44,1249.82,930.44Z"/>
  <path class="cls-6" d="M1197.8,865.41c.84.19,2.23-3,.2-3.43C1196.91,861.74,1196.44,865.09,1197.8,865.41Z"/>
  <path class="cls-6" d="M1188.6,863.15c-.83-.2-.76-3.64,1.27-3.18C1191,860.22,1190,863.47,1188.6,863.15Z"/>
  <path class="cls-6" d="M1197.94,858.9c-1.36-.26-1.57.86-.65,1.39.26.16,5.5,2.49,5.33,2.1A7.09,7.09,0,0,0,1197.94,858.9Z"/>
  <path class="cls-6" d="M1191.85,857c1.36.29,1.12,1.41.08,1.53-.5.06-6.09.16-5.66-.24A7.09,7.09,0,0,1,1191.85,857Z"/>
  <path class="cls-11" d="M1188.1,869.9c2.14,2.37,2.58,1,1.76.66-2.74-1,.48-1,2.72-5.47.23-.48-.29-.73-.54-.37s-.66,1.23-.87,1.49C1188.74,869.38,1187.41,869.13,1188.1,869.9Z"/>
  <path class="cls-11" d="M1188.45,873.67c1.81,3.67,4.74,1.37,7,1.32C1189.57,873.34,1188.06,872.69,1188.45,873.67Z"/>
  <path class="cls-6" d="M1278.3,1048.15c-11,42.78,61.22,54.45,39.11-4.12-2.08-5.49-3.39-5.39-5.16-11.2C1302.77,1018.47,1278.12,1020.46,1278.3,1048.15Z"/>
  <path class="cls-1" d="M1269.38,1174.81l7,3.61a117.08,117.08,0,0,0,7.89-12c2.61-4.59,5-9.74,5.59-14,1.42-10.24,12.27-27.08,11.13-29.94s-22.63-7.83-22.63-7.83-4.2,28.78-7,47.39C1270.51,1167.52,1269.81,1172.09,1269.38,1174.81Z"/>
  <path class="cls-4" d="M1269.38,1174.81l7,3.61a117.08,117.08,0,0,0,7.89-12,27.69,27.69,0,0,1-12.91-4.34C1270.51,1167.52,1269.81,1172.09,1269.38,1174.81Z"/>
  <path class="cls-1" d="M1285.21,1121.28a115.41,115.41,0,0,1,14.14,29.88c1.25,4.12,5.52,9.24,9.84,13.78s8.43,8.3,10,10.21l7.09-3.42a94.48,94.48,0,0,0-6.18-13.64,39.35,39.35,0,0,0-4.54-6.57c-2.26-2.53-1.52-34.48-3.76-36.58S1285.21,1121.28,1285.21,1121.28Z"/>
  <path class="cls-1" d="M1305.18,1064.31l0,0Z"/>
  <path class="cls-1" d="M1287,1075.29l18.16-11c-.1,0-.47-.59-1.83-4.52a22.66,22.66,0,0,1-1-4.28c0-.12,0-.23,0-.34a12.17,12.17,0,0,1,0-2.64l-4,1.44-7.35,2.67a9.33,9.33,0,0,1-.57,4.08,3.28,3.28,0,0,1-2.8,2.2Z"/>
  <path class="cls-11" d="M1290.29,1060.74a13.63,13.63,0,0,0,12-5.21c.14-.17.2-.26.2-.26l-.24-.08-4-1.2-7.35,2.67A9.33,9.33,0,0,1,1290.29,1060.74Z"/>
  <path class="cls-1" d="M1289.94,1058.19s15.79,1.73,16.12-9c-1.27-10.11-1.22-14.16-8.28-16.53-10.93-1-13.51,3-14.16,6.6C1281.61,1050.6,1285.48,1057.7,1289.94,1058.19Z"/>
  <path class="cls-12" d="M1319.4,1021.92l.37-.82A2.57,2.57,0,0,0,1319.4,1021.92Z"/>
  <path class="cls-1" d="M1284.85,1064s-15.15-11.64-16.76-15.49-8.58-18-10.37-19.4c0,0-3.77-.49-4.31,2.12s3.59,18.09,6.46,22.75,16.65,20.51,21.18,22.81Z"/>
  <path class="cls-1" d="M1248,1022a8.27,8.27,0,0,0,1.45,3.55c.85,1,2.19,3,3,4.29.55.8.9,1.4.9,1.4l4.3-2.1s.1-7.29-2.75-8.84c-.1,0-.15-.1-.25-.1a18.54,18.54,0,0,0-3.35-1.4,4.38,4.38,0,0,0-3,0C1247.84,1019,1247.74,1020.49,1248,1022Z"/>
  <path class="cls-4" d="M1270.33,1141.94s15.54,3.26,23,2.26c10-1.36,18.82-1.58,28.15-6.62,0,0-5-24.65-5.26-25.84-.44-1.72-3.61-15-6.55-27.22-2.67-11.2-5.15-21.58-5.15-21.58s-7.4,5.26-11.72,3.4-3.75-3.95-3.75-3.95-2.83-1.14-4.15-.72-5.07-1.71-5.07-1.71-4.15,3.21-4.31,10.09a17.52,17.52,0,0,0,.22,3.3l3,3.45S1271.92,1118.07,1270.33,1141.94Z"/>
  <path class="cls-13" d="M1257.84,1183.37h20.8a26.14,26.14,0,0,0-.08-6.27,1.78,1.78,0,0,0-.51-.95,7.57,7.57,0,0,1-5,0,10.38,10.38,0,0,1-3.68-2.29c-.22.2-4.52,4.3-6.5,4.3S1257.72,1179.13,1257.84,1183.37Z"/>
  <path class="cls-4" d="M1309.19,1164.94c4.2,4.42,8.43,8.3,10,10.21l7.09-3.42a94.48,94.48,0,0,0-6.18-13.64A15.17,15.17,0,0,1,1309.19,1164.94Z"/>
  <path class="cls-13" d="M1317.65,1173.32s.26,4.51-1.24,5.1-4.31,2.09-4.31,4.95h10.42s7.19-3.53,8.14-5-4.79-7.91-4.79-7.91S1322.34,1174.33,1317.65,1173.32Z"/>
  <path class="cls-1" d="M1300.41,1099.91s-4.56-.85-6.35.31-2.3,3-1,3.75c4,2.34,8.11-.24,8.11-.24Z"/>
  <path class="cls-1" d="M1304.28,1064.37s14.06,3,19.59,24.82a6.6,6.6,0,0,1-1.49,6.06c-2.55,2.82-8.16,7-21.23,8.48-1.43.16-1.62-3.46-1.62-3.46.14.29,8.88-5.64,12.59-8.83a2.07,2.07,0,0,0,.17-2.53,57.14,57.14,0,0,1-4.07-6.93C1307.18,1079.51,1300.35,1065.49,1304.28,1064.37Z"/>
  <path class="cls-4" d="M1304.46,1062.94s8.26.58,15,9.57c0,0-2.27,8.26-13,10.47C1306.48,1083,1299.88,1068.1,1304.46,1062.94Z"/>
  <path class="cls-6" d="M1295,1045.3c.79.1,1.76-2.92-.14-3.15C1293.79,1042,1293.68,1045.13,1295,1045.3Z"/>
  <path class="cls-6" d="M1285.07,1044.27c-.78-.1-1-3.26.86-3C1287,1041.37,1286.36,1044.43,1285.07,1044.27Z"/>
  <path class="cls-6" d="M1295.28,1038.81c-1.26-.1-1.35.94-.46,1.34.26.12,5.26,1.75,5.07,1.41A6.51,6.51,0,0,0,1295.28,1038.81Z"/>
  <path class="cls-6" d="M1287.65,1037.67c1.27.14,1.16,1.19.21,1.4-.44.1-5.54.72-5.19.32A6.52,6.52,0,0,1,1287.65,1037.67Z"/>
  <path class="cls-11" d="M1287.37,1049.67c2.83.8,2.49-.5,1.7-.34-2.64.52-.11-1-.55-5.59-.06-.48-.59-.42-.6,0s.08,1.29,0,1.59C1287.62,1049,1286.47,1049.42,1287.37,1049.67Z"/>
  <path class="cls-14" d="M1286.67,1051.75c3.68,7,7.65.72,6.55.54C1287.66,1051.34,1286.22,1050.89,1286.67,1051.75Z"/>
  <path class="cls-1" d="M1307.54,1040.92c1.09.26,1.62,1.92,1.19,3.7s-1.66,3-2.75,2.75-1.63-1.92-1.2-3.7S1306.44,1040.66,1307.54,1040.92Z"/>
  <path class="cls-6" d="M1389.4,892.67s8.07,6.88.66,14.79c0,0,6.18.61,8.26-1.1a5.86,5.86,0,0,1-.79,1.21s6.9.24,9.74-1.91,1-37.44-18.12-33.49c0,0-16.23-1.23-14.72,17.55s-4.61,18.77-4.61,18.77a8.67,8.67,0,0,0,2.53.84s1.2-.46,1.44-1.12a4.36,4.36,0,0,1-.55,1.38s6.61.62,9.91-1.87S1390.33,896.55,1389.4,892.67Z"/>
  <path class="cls-1" d="M1365.07,933.84h44.24c-3.17-7.92-7.7-13.66-11.14-14.36-1.83-.49-5-7.12-4.91-17.8l-.83.16-13.89,2.75s.32,4.38.33,8.5c0,3.43-.18,6.92-1,7.33-1,.09-1.91.27-1.91.27S1368.47,926,1365.07,933.84Z"/>
  <path class="cls-11" d="M1378.54,904.59s.32,4.38.33,8.49c7.78-.21,11.88-7.31,13.56-11.24Z"/>
  <path class="cls-6" d="M1393.87,900.33s4.07-6.44,5.05-11.94c.7-3.94-1.3-18.5-15.94-16.41a19.85,19.85,0,0,0-8.24,3.12c-3.19,2.15-7.78,6.78-2.64,19.5l1.32,4.29Z"/>
  <path class="cls-1" d="M1376,908.49s18.39.3,18.4-11.15,2.4-19.14-9.35-19.82-14,3.7-15,7.52S1371.16,908.12,1376,908.49Z"/>
  <path class="cls-6" d="M1376.63,877.24s5,13.44,12.77,15.43,11.08-.08,11.08-.08a21.89,21.89,0,0,1-7.16-12.93S1380.43,870.84,1376.63,877.24Z"/>
  <path class="cls-6" d="M1377.88,878.33s-3.76,3-4.68,5.92-1.34,8.93-3.08,8.72c0,0-3.8-9.14.47-14.3C1375.11,873.18,1377.88,878.33,1377.88,878.33Z"/>
  <path class="cls-6" d="M1377.17,878.79s3.59,14.08,13.35,18.58c0,0-9.76-8.65-10.58-17.94S1377.17,878.79,1377.17,878.79Z"/>
  <polygon class="cls-1" points="1404.77 1153.95 1399.63 1175.62 1391.92 1175.58 1391.64 1153.95 1404.77 1153.95"/>
  <polygon class="cls-1" points="1339.96 1154.88 1325.33 1175.62 1319.62 1168.3 1328.43 1152.03 1339.96 1154.88"/>
  <path class="cls-7" d="M1321.94,1162.61l7.54.23,8.16.25s18.84-21,29.41-54.61c.25-.78.51-1.57.79-2.38,5.78-16.86,17.77-38,24.09-57.2,1-3.06,1.91-5.93,2.72-8.65.26-.87.52-1.72.76-2.57a204.32,204.32,0,0,0,7.25-38.16l-45.64.37S1349.65,1077.41,1321.94,1162.61Z"/>
  <path class="cls-15" d="M1363.41,973.66c.11,21.72-3.19,31-3.19,31a61.3,61.3,0,0,0,42.76,2.62c.28-.09,19.23-4.41,19.23-4.41-.39-.88-3.84-15.52-4.22-16.33-4.9-10.52-8.63-15.14-9.21-18.38a68.66,68.66,0,0,1-.56-18.19,146.33,146.33,0,0,1,5.63-28.57c-6.33-1.44-12.26-4-18.84-6.44-1.51,1.88-6.15,3.85-10.16,3.77-4.63-.11-6.13-2.09-5.89-4.25-4.93,2.75-8.86,5.34-8.86,5.34-4.19,7.27-12.69,14.34-13.3,25.51C1356.64,948.11,1363.4,973.06,1363.41,973.66Z"/>
  <path class="cls-1" d="M1399.89,1174.41a20.89,20.89,0,0,0,1,8.88s1.26,5.75-4.4,5.86-7-.43-6.41-4,1.86-9.62,1.86-9.62Z"/>
  <path class="cls-9" d="M1389.32,1192.56c3.59,6.79,8.72,6.3,12.39,0,.51-2.55-.61-8-.8-9a1.64,1.64,0,0,0,0-.18.18.18,0,0,1,0,0c-6.41,5.87-10.42-.16-10.42-.16v0C1389.5,1185.48,1389.3,1191.66,1389.32,1192.56Z"/>
  <path class="cls-1" d="M1306,1185.77s10.44-11.58,13.64-17.47l7.76,4L1310,1188.56,1306,1188Z"/>
  <path class="cls-9" d="M1299.36,1192.56h13.12c1.93,0,3.48-3.21,5.56-7.37.85-1.7,2.77-2.64,4.73-3.16l-.06,10.53h3l2.79-11.13c1.85-3.4.15-6.48-1.15-9.16-1.51,0-5.58,1-13.29,9.72a10.09,10.09,0,0,1-8.11,3.78.39.39,0,0,1-.11.06C1299.46,1188.72,1299.36,1192.56,1299.36,1192.56Z"/>
  <path class="cls-6" d="M1329.48,1162.84l8.16.25s18.84-21,29.41-54.61c.25-.78.51-1.57.79-2.38,5.78-16.86,17.77-38,24.09-57.2,1-3.06,1.91-5.93,2.72-8.65.26-.87.52-1.72.76-2.57l-6.73-5.1s-20.17,32.68-26.42,63.43C1356.84,1122.72,1335.11,1154.85,1329.48,1162.84Z"/>
  <path class="cls-7" d="M1388,1098.87c-.11,15,.65,49.33,2.59,63.56h7.23c4,0,6,0,6,0,4.88-24.75,8.36-45.23,10.89-62.87,2.07-14.48,3.92-26.89,5.34-37.57s2.42-19.77,2.77-27.37c.06-1.2.1-2.37.12-3.5s0-2.24,0-3.31l-39.43-3.85C1384,1050.11,1388.05,1090.18,1388,1098.87Z"/>
  <path class="cls-6" d="M1397.8,1162.43c4,0,6,0,6,0,4.88-24.75,8.36-45.23,10.89-62.87,2.07-14.48,3.92-26.89,5.34-37.57s2.42-19.77,2.77-27.37l-14.47,8.51s9.24,3.26,5.72,27.92S1402.7,1158.94,1397.8,1162.43Z"/>
  <path class="cls-4" d="M1395.94,1034.32s2.77,10,12.38,8.76,23.28-7,23.28-7-4.11-13-9.21-30c-6.19-20.64-7.73-49.65-11.33-66.43-1-4.7-7.82-6.23-8.08-9l-8-15.47s-11.89,26.68-12.53,33.41S1395.94,1034.32,1395.94,1034.32Z"/>
  <path class="cls-8" d="M1402.66,968.28c.43,10.9,4.23,29.48,19.54,37.64l.19.09c-6.19-20.64-6.11-40.44-9.71-57.22C1404.45,947.07,1402.42,962.29,1402.66,968.28Z"/>
  <path class="cls-1" d="M1419.47,992.47s-6.87-1.49-8.63.47-2.76,5.08-1,6.17,6.86-1.91,8.7-.69c1.31.86,1.73,3.07,3,2.3s2.72-5.83,2.72-5.83Z"/>
  <path class="cls-4" d="M1395,915.07s18.53.82,23,4.95,31.12,36.09,31.56,44.46-23.36,32.17-23.36,32.17-6.61-1.59-9.48-5.75c0,0,14.77-26.33,13.88-27.47s-25.89-21.65-27.93-17.1C1400.89,950.25,1395,915.07,1395,915.07Z"/>
  <path class="cls-4" d="M1324.53,964.85s21.15,7,23.8,6.46,6.42-29.25,8.46-39.08c2.63-12.65,12.66-15.16,12.66-15.16l9.51-2.55s-10.89,26.91-11.21,32.36-1.28,89-1.28,89,.64,3.85-6.73,2.25-9.29-3.21-9.29-3.21,3.2-23.37,4.69-44.12c-7.5-1.28-31.64-13.51-31.64-13.51C1319.76,971.45,1324.53,964.85,1324.53,964.85Z"/>
  <path class="cls-16" d="M1380.7,900.74a24,24,0,0,1-6.87.52c-1.09,0,2.63,7.47,7.1-.13A.25.25,0,0,0,1380.7,900.74Z"/>
  <path class="cls-6" d="M1380.39,885.75c-1.27.35-1,1.37,0,1.42C1391.08,887.68,1383.54,884.87,1380.39,885.75Z"/>
  <path class="cls-6" d="M1373.86,886.08c1.3.22,1.12,1.26.13,1.41C1363.42,889.08,1370.64,885.52,1373.86,886.08Z"/>
  <path class="cls-16" d="M1375.69,897.75h-.07c-1.13-.31-1.74-.49-1.93-.93s0-.84.43-1.64a22.47,22.47,0,0,0,1.73-4.42.32.32,0,0,1,.38-.21.31.31,0,0,1,.21.38,23,23,0,0,1-1.78,4.53c-.26.52-.48,1-.42,1.11s.89.41,1.54.59a.3.3,0,0,1,.21.38A.32.32,0,0,1,1375.69,897.75Z"/>
  <path class="cls-6" d="M1371.91,893.1c-.75.07-1.6-2.73.22-2.89C1373.1,890.12,1373.14,893,1371.91,893.1Z"/>
  <path class="cls-6" d="M1382.08,892.34c-.75.06-1.6-2.74.22-2.9C1383.27,889.35,1383.31,892.22,1382.08,892.34Z"/>
  <path class="cls-14" d="M1380.55,900.91c1.11.8-5,2.09-6.21,1.33-.14-.08-.62-.56-.52-.75s.86,0,1.06,0A18.91,18.91,0,0,0,1380.55,900.91Z"/>
  <path class="cls-17" d="M1010.74,1210.63q-15.75,15.07-55.38,111.86c68.3,21.42,111.94,31.26,148.88,31.66q10.34-35.84,25.36-53.19c49.11-2.62,98,20.78,182.45,15.17q190.54-78.64,238-100.56c36.79-20.4,17.89-45.78-17.68-43.84-26.32,1.45-66.38,11.7-114.22,25q15.74-66.51-126.66-20.87-21.32-1.83-32.49-2.07c-59.4-30.14-111.86-37.73-156.92-9.4Q1037.7,1186.24,1010.74,1210.63Z"/>
  <path class="cls-17" d="M1594.77,1195.34c-4.66-17.58-17.33-23-40.86-20.95,19.75,6.91,24.34,25.51-3.91,41.18q-15,6.93-44.33,19.54C1549,1226.09,1598.29,1223.63,1594.77,1195.34Z"/>
  <path class="cls-18" d="M1553.91,1174.39c19.75,6.91,24.34,25.51-3.91,41.18q-15,6.93-44.33,19.54c7.11-1.48,14.39-2.78,21.56-4q20.38-8.85,32.06-14.25c30.68-17,22.62-37.5-1.54-42.69Q1555.88,1174.21,1553.91,1174.39Z"/>
  <path class="cls-18" d="M1375.39,1217.63q-33.11,20.46-95,23.58-37,13.33-91.76,14,43.2,13,95.59,1,64.74-7.31,93-26.13,37.32-5.83,48.48-35.42l-7.68,2.13Q1403,1211.25,1375.39,1217.63Z"/>
  <path class="cls-14" d="M934.86,1348.93c4.81-11.92,9.39-23,12.07-29.11,76.13,24.22,122.52,34.76,161.93,34.33-1.4,6.78-4.33,21-7.53,36.5Q1036.78,1385.09,934.86,1348.93Z"/>
  <path class="cls-19" d="M890.16,1423.4q17.18-39.17,35.26-77.85,118.09,42.79,187.66,45.88-3,14.13-5.85,27.49C1026.94,1419.64,953.09,1421.2,890.16,1423.4Z"/>
  <path class="cls-20" d="M973.36,1337.58a8.45,8.45,0,1,1-8.45,8.44A8.44,8.44,0,0,1,973.36,1337.58Z"/>
  <rect class="cls-21" y="1416.57" width="2485.1" height="1583.43"/>
  <path class="cls-22" d="M836,743.13H544.55a20.09,20.09,0,0,1,19.54-15.45c.46,0,.91,0,1.37.06a30.89,30.89,0,0,1,44.1-15,44.69,44.69,0,0,1,54.56-30.07,62.11,62.11,0,0,1,117.32,12.65l1.51,0A37.54,37.54,0,0,1,820.19,728,20.1,20.1,0,0,1,836,743.13Z"/>
  <path class="cls-22" d="M1727.69,769.9H1501.51a15.59,15.59,0,0,1,15.17-12c.35,0,.71,0,1.06,0A24,24,0,0,1,1552,746.29,34.61,34.61,0,0,1,1594.31,723a48.19,48.19,0,0,1,91,9.81l1.17,0a29.13,29.13,0,0,1,28.89,25.45A15.57,15.57,0,0,1,1727.69,769.9Z"/>
  <path class="cls-23" d="M644.76,1167.33c11.45,5,19.88,15.56,24.11,27.31s4.61,24.59,3.2,37c-2.73,24-16.37,48.26-31.06,67.44-20.21-17.65-24.86-48.43-26.24-64.2C612.58,1210,623.77,1163.61,644.76,1167.33Z"/>
  <path class="cls-24" d="M642.4,1167.25c-3.53,0-6.91,1.46-10.09,4.36-13.16,12.06-19,45-17.41,63.26,2.55,29.13,11.57,51.26,26.1,64,22.62-29.58,29.31-52.9,30.94-67.26s.58-26.44-3.2-36.93c-4.55-12.65-13.31-22.58-24-27.23a12.89,12.89,0,0,0-2.31-.21Zm-1.36,132-.11-.09c-14.65-12.78-23.74-35-26.3-64.28-1.61-18.34,4.28-51.37,17.5-63.49,3.93-3.59,8.18-5,12.65-4.22l0,0c10.78,4.68,19.6,14.66,24.19,27.39,3.79,10.53,4.83,22.65,3.21,37.05s-8.36,37.82-31.09,67.51Z"/>
  <path class="cls-23" d="M664.52,1338.71c-3.24-13.57,2.41-28.46,12.83-37.74s25-13.21,38.88-12.15c6.43.5,13.38,2.37,17.06,7.67,3.45,5,3.06,11.86.26,17.2s-7.62,9.34-12.73,12.55C703.3,1337.23,684.33,1344.66,664.52,1338.71Z"/>
  <path class="cls-24" d="M664.63,1338.61c16.75,5,34.59,1,56.12-12.49,6.16-3.86,10.32-7.95,12.69-12.49,3-5.79,2.93-12.49-.26-17.07-3.07-4.41-8.78-7-17-7.6-1.52-.12-3-.18-4.52-.18-13.08,0-25.38,4.38-34.27,12.29a41.59,41.59,0,0,0-11.49,17.2,36.3,36.3,0,0,0-1.31,20.34Zm14.2,2.34a49.7,49.7,0,0,1-14.35-2.11l-.08,0v-.07a36.47,36.47,0,0,1,1.29-20.55,41.71,41.71,0,0,1,11.58-17.32c10-8.87,24.14-13.31,39-12.19,8.27.64,14,3.24,17.16,7.73,3.25,4.66,3.35,11.47.27,17.35-2.39,4.57-6.57,8.7-12.78,12.59C705.27,1336.16,691.58,1341,678.83,1341Z"/>
  <path class="cls-24" d="M638.59,1412.33c-.13,0,.15-1.78.72-4.93.63-3.46,1.45-8,2.44-13.33,2.24-11.14,5.1-27.11,13.77-42.6s20.5-26.84,30.57-32.48a57.52,57.52,0,0,1,12.46-5.52,35.43,35.43,0,0,1,3.59-.91,4.12,4.12,0,0,1,1.28-.18c.15.39-7,1.68-16.7,7.66-9.71,5.82-21.27,17.09-29.67,32.28s-11.55,30.92-14.08,42c-1.23,5.58-2.22,10.12-3,13.22A26.44,26.44,0,0,1,638.59,1412.33Z"/>
  <path class="cls-24" d="M639.35,1203.38a10.6,10.6,0,0,1,.25,2.16c.09,1.59.21,3.64.36,6.18.29,5.38.61,13.16.92,22.78.62,19.24,1.11,45.83,1,75.21s-.86,56-1.65,75.2c-.39,9.62-.77,17.4-1.1,22.77-.18,2.54-.32,4.59-.42,6.19a10.32,10.32,0,0,1-.27,2.15,10.19,10.19,0,0,1-.09-2.17c0-1.6,0-3.65.09-6.2.14-5.6.33-13.32.56-22.78.47-19.23,1-45.81,1.12-75.17s-.17-55.94-.47-75.17c-.15-9.45-.27-17.18-.36-22.78,0-2.55,0-4.6,0-6.2A9.87,9.87,0,0,1,639.35,1203.38Z"/>
  <path class="cls-23" d="M629.54,1353.32a92.89,92.89,0,0,0-50.71-68c-6.76-3.24-15.58-5.35-21.13-.33s-4.32,14.07-1.6,21.06c11.32,29.09,41.74,49.63,73,49.27Z"/>
  <path class="cls-24" d="M628.25,1355.44A79.5,79.5,0,0,1,556,1306.08c-1.7-4.39-5-15.23,1.63-21.2,2.67-2.42,9-5.59,21.28.3a93,93,0,0,1,50.79,68.13l-.27,0a92.68,92.68,0,0,0-50.63-67.93c-12.16-5.83-18.37-2.71-21-.34-2.17,2-6.63,7.89-1.56,20.91a79.24,79.24,0,0,0,72,49.18h.8v.26Z"/>
  <path class="cls-24" d="M582.11,1308.08c0-.12,1.56.55,4.28,1.87a43.44,43.44,0,0,1,4.85,2.58,72.6,72.6,0,0,1,6.17,3.87,82,82,0,0,1,7.07,5.31,92.21,92.21,0,0,1,7.51,6.84,103.19,103.19,0,0,1,14.28,18.34,101,101,0,0,1,9.41,21.27,86.72,86.72,0,0,1,2.37,9.88,74.69,74.69,0,0,1,1.22,8.75,69.47,69.47,0,0,1,.33,7.29,41.72,41.72,0,0,1-.16,5.48,23.8,23.8,0,0,1-.52,4.66c-.4,0,.29-6.68-.89-17.3a79.25,79.25,0,0,0-1.4-8.6,94.09,94.09,0,0,0-2.49-9.68,105.64,105.64,0,0,0-9.37-20.85,107.63,107.63,0,0,0-13.94-18.12,94.53,94.53,0,0,0-7.29-6.84,86.24,86.24,0,0,0-6.84-5.42C588,1311.18,581.93,1308.41,582.11,1308.08Z"/>
  <path class="cls-24" d="M581.63,1435.69s5.07-4.71,9.34-6.28,6.41-3.93,9.08-5.89,6.68-6.28,10.41-6.67,7.75,3.14,11.49,4.32,12.54-3.54,16.82-4.32a60.77,60.77,0,0,0,9.61-2.95s4.54-6.28,5.34-7.07,6.67-3.73,6.67-3.73,4.54,4.32,5.88,5.3,9.61,11,9.61,11a9,9,0,0,1,3.2-1.77c1.34-.19,5.61,1.38,5.61,1.38l3.74,5.49s5.9-8.12,8.81-10c4.54-3,7.21-2.16,7.21-2.16s4.27,3.14,7.21,4.91,12.81,6.48,15,9,9.08,3.73,12.55,4.32,16,5.1,16,5.1Z"/>
  <path class="cls-25" d="M662.42,1413.73c-.4,1,1.74,4.31,1.74,4.31l7.74,5.3v2.58l1.32,9.77h19.37s-8.55-8.07-9.75-9.77-7-6.52-7-6.52l-8.39-9.89-5.33.29-1.34,1.67Z"/>
  <polygon class="cls-26" points="660.42 1402.73 653.88 1406.37 650.95 1410.29 652.81 1409.9 652.41 1411.66 652.01 1414.31 656.01 1409.6 655.88 1410.68 657.62 1409.7 658.82 1411.37 662.15 1409.8 666.03 1413.14 665.5 1409.7 667.63 1411.57 670.7 1413.43 666.69 1408.23 660.42 1402.73"/>
  <polygon class="cls-25" points="665.89 1426.27 662.29 1421.77 658.69 1419.4 660.82 1425.43 660.82 1428.25 655.35 1430.51 653.88 1435.69 667.36 1435.69 668.41 1427.55 665.89 1426.27"/>
  <polygon class="cls-25" points="684.69 1419.01 683.11 1420.4 684.69 1421.48 683.11 1423.64 686.45 1427.95 688.43 1424.5 684.69 1419.01"/>
  <path class="cls-25" d="M704.45,1412.33,703,1414.9l2.8,1.28,2.14,1.57-1.3,2.75-2.44,3.43h12s7.6,3.5,7.2,3.62-2.8,1.48-2.13,1.48,4.68.79,4.94.69-8.78,6-8.78,6h37.73s-6.93-4.1-12.41-5.28-12.82-2.49-13.68-4.14-8.07-5-12.21-7.26S707,1412.8,704.45,1412.33Z"/>
  <path class="cls-26" d="M581.63,1435.69s2-4,4.71-4.69,3.62-2.29,6.28-3,11-7.34,11-7.34,2.5.85,2.77,2-.58,2.18-.89,3.67,3,2.67,3.56,3.55-8.94,5.87-8.94,5.87Z"/>
  <polygon class="cls-26" points="638.53 1424.01 642.93 1422.17 646.4 1419.01 650.41 1416.85 654.82 1414.31 653.88 1419.16 650.27 1421.28 650.27 1425.43 652.68 1425.92 649.61 1434.43 634.74 1427.55 638.53 1424.01"/>
  <polygon class="cls-26" points="631.04 1423.48 633.99 1420.61 640 1420.61 645.09 1417.45 638.79 1419.01 633.99 1419.01 626.38 1422.6 631.04 1423.48"/>
  <path class="cls-25" d="M610.46,1416.85a35.67,35.67,0,0,1,7.38,1.39c1.33.59,2.53,2.59,5.6,3.11s11,2,11.3,2.68-1.28,1.4-1.28,1.4c1.2.76,7.74,2,10.27,3.51s7.88,6.75,7.88,6.75H618s19.63-1.84,21.49-3-.69-2.85-1.34-3.24-10.67-2.2-11.34-3.16.6-1.26.6-1.26-6.2-1.47-7-2.06-1.78-3.23-3.09-4A53.18,53.18,0,0,0,610.46,1416.85Z"/>
  <polygon class="cls-25" points="697.24 1414.49 688.43 1422.6 686.45 1427.95 685.77 1429.72 692.59 1435.69 697.24 1435.69 694.06 1430.6 697.24 1429.72 699.8 1423.48 694.19 1425.43 697.53 1422.17 700.46 1420.61 697.79 1419.01 697.24 1414.49"/>
  <polygon class="cls-24" points="659.73 1406.85 662.15 1409.8 666.03 1413.14 666.37 1410.91 670.7 1413.43 666.69 1408.23 660.56 1402.52 659.73 1406.85"/>
  <path class="cls-22" d="M1839.17,936.5H1677.86a11.11,11.11,0,0,1,10.82-8.55l.75,0a17.1,17.1,0,0,1,24.41-8.32,24.73,24.73,0,0,1,23.65-17.53,24.48,24.48,0,0,1,6.55.89,34.37,34.37,0,0,1,64.93,7l.83,0a20.77,20.77,0,0,1,20.61,18.14A11.13,11.13,0,0,1,1839.17,936.5Z"/>
  <path class="cls-22" d="M844,1006.38H682.69a11.11,11.11,0,0,1,10.82-8.54l.75,0a17.12,17.12,0,0,1,24.41-8.33,24.74,24.74,0,0,1,30.2-16.64,34.37,34.37,0,0,1,64.93,7c.28,0,.55,0,.83,0A20.78,20.78,0,0,1,835.24,998,11.14,11.14,0,0,1,844,1006.38Z"/>
  <path class="cls-7" d="M279.75,1394.53s-6,5.55-4.82,9.48,6.57,6.56,7.3,11.37,3.65,7.44,6.27,7.44H301s1.94-3.38-2.74-4.4-6.42-6.68-6.13-11.93a94.92,94.92,0,0,0-.43-12.25l-9.92-2.33Z"/>
  <path class="cls-7" d="M354.26,1422.17a23.43,23.43,0,0,0,5.67.65h28.29c-.09-.84-.75-3.84-5.38-4.59-5.22-.85-14.28-3.88-16.3-10.57q-.1-.33-.18-.66c-1.6-7.14-13.26,2.19-13.26,2.19s0,.29-.09.77C352.74,1412.59,352.05,1421.06,354.26,1422.17Z"/>
  <path class="cls-9" d="M381.46,1231.05s-1.78,22.11-3.86,48.68c-2.83,36.1-6.23,80.43-6.57,88.83-.58,14.59-2.91,37.92-2.91,37.92s-5.54,5.54-16.63,3.2c0,0-9.88-33.3-12.7-68.54,0-.57-.09-1.16-.13-1.74C336,1303.53,332,1228,332,1228Z"/>
  <path class="cls-9" d="M381.46,1231.05s-1.78,22.11-3.86,48.68l-38.81,61.41c0-.57-.09-1.16-.13-1.74C336,1303.53,332,1228,332,1228Z"/>
  <path class="cls-6" d="M373.36,1233.68s-31.93,80.06-52.92,117.68-27.57,48.12-27.57,48.12-12-4.81-13.12-8.09c0,0,8-72.64,22.09-90.34,8-10,17.28-40,17.72-50.53s2.84-31.27,2.84-31.27Z"/>
  <path class="cls-1" d="M471.86,1181.34s8.67-2,10.12-1.88,6.56,2.23,6.63,2.64-.17.76-1.05.81-3.78-.31-3.6,0,8.53,2,8.63,3.68-4.48,4.8-8.35,5-11.47-4.28-12.13-4.34C466.58,1186.82,471.86,1181.34,471.86,1181.34Z"/>
  <path class="cls-4" d="M475.57,1183.54c1.24-4,.95-4.59.95-4.59s-35.11-19-38.32-20.91-39.51-40.54-39.51-40.54l-37.16,10.23s57.52,43.82,65.75,48.53c13.63,7.8,45.18,12.21,45.18,12.21A11.5,11.5,0,0,0,475.57,1183.54Z"/>
  <path class="cls-1" d="M387.43,1107.65s13,22.93,25.77,25.92c0,0-.53-7.7-3.63-13,1.27-1.5,2.38-2.88,3.35-4.1a78.18,78.18,0,0,0,4.73-6.63l-4.32-11.62-2.94-7.88a38.05,38.05,0,0,1-4.58,6.6C397.47,1106.57,387.43,1107.65,387.43,1107.65Z"/>
  <path class="cls-11" d="M405.81,1097s-1.56,11.49,7.11,19.53a78.18,78.18,0,0,0,4.73-6.63l-4.32-11.62A24.81,24.81,0,0,0,405.81,1097Z"/>
  <path class="cls-1" d="M421.09,1111.56s-19.47-7.58-14.56-19.63,5.71-21.15,18.34-16.81,13.17,9.91,12.51,14.33S426.27,1113.23,421.09,1111.56Z"/>
  <path class="cls-4" d="M320.51,1225.29c7.86,11.3,66.57,26.38,65.88,18.57a84.9,84.9,0,0,1,0-15.42c.14-1.68.35-3.45.62-5.32,1.49-10.27,5-23.48,12.94-38.76.59-1.15,1.21-2.3,1.85-3.47A119.61,119.61,0,0,0,410,1162.6c4.07-11.76,5.71-23,3.65-30.36a.17.17,0,0,0,0-.1c-12.27-5.68-17-27.69-17-27.69s-34.33-2.65-49.59,57.11C347,1161.56,313.68,1215.47,320.51,1225.29Z"/>
  <path class="cls-8" d="M386.4,1228.44c.14-1.68.35-3.45.62-5.32,1.49-10.27,5-23.48,12.94-38.76-1.36-8.23-3.23-15.07-5.28-18.15-8.36-12.51-13.22-14.47-13.22-14.47S368.93,1204.56,386.4,1228.44Z"/>
  <path class="cls-6" d="M413.36,1065.79c7.93-1.1,15.9,1.08,23.11,5.66,3.51,2.23,5.22,4.39,8.61,3.58,10.14-2.44,7.47,13.8-5.66,14.23-3.16,1-9-5.25-14.19-6.1s-8.06,6.43-10.05,7-.86-1-2.95-2.71-3.29,2.24-3.24,5-4,5.33-4,5.33l-2.39-4.37C395.55,1084.37,401.36,1067.46,413.36,1065.79Z"/>
  <path class="cls-27" d="M512.7,1199.76,474.19,1191a9.11,9.11,0,0,0-10.89,6.84l-6.47,28.37a9.11,9.11,0,0,0,6.84,10.89l38.51,8.78a9.1,9.1,0,0,0,10.88-6.84l6.48-28.37A9.13,9.13,0,0,0,512.7,1199.76Z"/>
  <path class="cls-27" d="M505.37,1180.59c-3.05-.63-12.9-3.13-15.26-3.13a11.55,11.55,0,0,0-13.07,9.06l-1,4.88,7.63,1.74,1.05-5.11a3.72,3.72,0,0,1,1.57-2.27,3.65,3.65,0,0,1,2.77-.53l.45.09,14.3,2.94a3.64,3.64,0,0,1,2.32,1.57,3.7,3.7,0,0,1,.54,2.77l-1.14,5.53,7.17,1.63.46.12,1.18-5.71a11.55,11.55,0,0,0-9-13.58Z"/>
  <path class="cls-27" d="M513.23,1238.29l67.51-21.47,12.67,4.89c.81.11,1.11-.06.45-.78l-8.82-8.51-4.28.41-64.16,10.71Z"/>
  <path class="cls-1" d="M452.41,1215.88s11.58.6,13.37,1.25,7.44,5.15,7.38,5.69-.49.88-1.61.64-4.64-1.75-4.54-1.24,10,5.56,9.53,7.7-7.35,4.43-12.29,3.31-12.86-9.47-13.67-9.78C443.82,1220.87,452.41,1215.88,452.41,1215.88Z"/>
  <path class="cls-4" d="M454.59,1220.27c2.32-3.75.65-5.46.65-5.46s-35.79-28-38.59-30.85-15.8-47.9-15.8-47.9-4.47-18.24-14.94-20.25c-9.1-1.75-15.39,2.75-19.51,8a19.41,19.41,0,0,0-1.32,21.82c9.14,15.4,27.57,46,32.95,51.18,12,11.62,52.06,27.86,52.06,27.86A13.87,13.87,0,0,0,454.59,1220.27Z"/>
  <path class="cls-1" d="M1922.56,1201c6.28-.3,6.09.77,6.9.69s11.1-7.79,11.1-7.79,30-22.56,31.63-23.83l18.75-34,19.55,4.52s-21.39,36.45-22.84,38.16-45.63,27.48-49.46,29.89c0,0-3.49,4.53-5.78,7.31s-5.69,4.37-6.46,5.07a32,32,0,0,1-6.79,3.94c-3.45,1.51-.87-1.47-.87-1.47s5.88-3.93,5.49-4.33-3.38,2-7.18,3.71c-1,.44-1.93.85-2.82,1.23-2.33,1-3.63-.12-1.35-1.58a25.11,25.11,0,0,1,3.2-1.75,23.6,23.6,0,0,0,2.91-1.85,30.47,30.47,0,0,0,3-1.92c-.12,0,.08-.52-1-.08-1.26.51-3.7,2.2-5.62,2.82-1.09.36-3.31,1.22-3.31,1.22s-3.77,1-3.87.81c-.6-1,1.89-2.55,3.42-2.82a15.72,15.72,0,0,1,3.25-1.54s4.4-2.79,4-3.41-12.14,4.11-12.67,3c-.43-.91,3.07-2.47,3.07-2.47s2.18-.78,2.89-1.1,3.23-1.68,3.23-1.68,8.12-4.89,7.71-5.46-2.06-1.58-2.67-1.44-1.61,1-2.2,1.06a1.58,1.58,0,0,1-1.75-.94c-.2-.75,2.5-2.5,2.5-2.5A10.13,10.13,0,0,1,1922.56,1201Z"/>
  <path class="cls-8" d="M1983.49,1145.55l20.11,11.19s8.61-16.81,12.26-25c4.42-10,8.91-23.14,7.59-23.38-3.73-.69-8.78-.81-13.14,1.73C1995.21,1118.89,1983.49,1145.55,1983.49,1145.55Z"/>
  <path class="cls-28" d="M1912.84,1167.61c-2.1-5.6-8.78-16.81-30-29,0,0,21.4,8,30.81,21.84.69-5.82,1.42-11.17,1.84-14.75,1-8.83-5.27-17.65-5.27-17.65s10.14,7.93,8.26,30.58c0,0,18.69-5.84,22.94-24.65,0,0,.49,16.53-21.72,31a30.82,30.82,0,0,0,3.53,18.27c5,9.18,9.55,14.57,10.77,21l-16,2.11s-5.77-10.44-6.09-21.4A144.87,144.87,0,0,1,1912.84,1167.61Z"/>
  <path class="cls-29" d="M1911.41,1149.71s-2.77,4.21-13.08,3.46-19.89-12.34-19.89-12.34a7.43,7.43,0,0,1-6.21-3c-2.86-3.44-1.37-9.15-1.37-9.15s-6.54-7-6.16-9.75,3.45-3.13,3.45-3.13-.61-5.81.23-7.21,2.79-.61,2.79-.61a28.81,28.81,0,0,1,.72-12.64c2-6,8.73-6.35,8.73-6.35a12.49,12.49,0,0,1,2.4-6.66c2.38-3.29,6.6-3.08,6.6-3.08s1.86-5.06,4.09-5.86,4.35,1.09,4.35,1.09,3.31-5.81,6.91-6.25,13.2,9.58,13.2,9.58,1-1.86,4.41-.26,3,4.1,3,4.1,7.07,0,11.21,3.17a10.65,10.65,0,0,1,4.43,6.94s6.58.29,7,.94-.42,2.5-.42,2.5,7.28,5,10,10.66.81,9,.81,9,6.25,6.83,4.42,10.31a12.35,12.35,0,0,1-5.26,5s2.71,4.12,2.06,5-2.72-.74-2.72-.74a11.06,11.06,0,0,1-3,7.6c-3.19,3.11-9.78,1-9.78,1s-.38,2.72-2.1,3.49-11-1.61-11-1.61-.47,3.85-3.74,4.72-6.17-2.79-6.17-2.79S1919.67,1154.18,1911.41,1149.71Z"/>
  <path class="cls-30" d="M1864.7,1118.93c.38-2.73,3.45-3.13,3.45-3.13s-.61-5.81.23-7.21,2.79-.61,2.79-.61a28.81,28.81,0,0,1,.72-12.64c2-6,8.73-6.35,8.73-6.35a12.49,12.49,0,0,1,2.4-6.66c2.38-3.29,6.6-3.08,6.6-3.08s1.86-5.06,4.09-5.86,4.35,1.09,4.35,1.09,3.31-5.81,6.91-6.25,13.2,9.58,13.2,9.58,1-1.86,4.41-.26,3,4.1,3,4.1,7.07,0,11.21,3.17a10.65,10.65,0,0,1,4.43,6.94,54.23,54.23,0,0,1,6.09.59c3,26.37-19.53,50.83-51.18,55a69.08,69.08,0,0,1-10,.59,47.29,47.29,0,0,1-7.66-7.11,7.43,7.43,0,0,1-6.21-3c-2.86-3.44-1.37-9.15-1.37-9.15S1864.32,1121.64,1864.7,1118.93Z"/>
  <path class="cls-29" d="M1893,1225.25l17.85,46.27,50.17-6.61,3.57-49.1Z"/>
  <path class="cls-29" d="M1889.13,1225.76a2.92,2.92,0,0,1-3.42-2.12l-1.54-10.26a2.79,2.79,0,0,1,2.67-2.93l79.37-10.47a2.91,2.91,0,0,1,3.42,2.13l1.54,10.26a2.81,2.81,0,0,1-2.67,2.93Z"/>
  <path class="cls-28" d="M1895.17,1230.83l-2.15-5.58,71.59-9.44-.43,5.92Z"/>
  <path class="cls-1" d="M2098.1,1393.77s4.22,4.11,4.33,5.62.36,17.69-1.36,19.2-6.79,2.59-5.16,4.29c1.23,1.27,10.7,1,17,.66,1.82-.12,4.13-14.69,4.86-16.83,1-3.12,4.84-9.92,3.89-12.06-.47-1.06-3.94-3.48-7.09-5.51-3.31-2.14-6.48-6.89-6.48-6.89Z"/>
  <path class="cls-1" d="M2041.58,1403.86l3.79,10.7c.28,1.7,1.39,5.87,1.39,7.41,0,5.77-26.06-4.89-20.22-7.47a6.16,6.16,0,0,0,2.36-4c.27-3-2.19-6.8-2.19-6.8Z"/>
  <path class="cls-9" d="M2005.62,1201.47l-9.43,24.06s-6.16,57.43-2.58,91.79c1.5,14.39,34,91.35,34,91.35l16.13-2.27-21.59-91.13,7.94-34.85,11.25-68.92Z"/>
  <path class="cls-7" d="M2050.07,1202.7l8.1,26.79,12.3,80.88,41.64,75.66s-6.26,9.49-13,11l-59.1-76.47-32-95.73,1.13-21.28Z"/>
  <path class="cls-9" d="M2114.35,1389s-8.9,26.84-12.71,28.17c-1,.33-6.7,1.76-7.62,3.9l-.06.22a2.22,2.22,0,0,0,2.27,2.59h18.08s2.57-12.06,3.59-17.35c0,0,5.36-13,4.77-14.11S2114.35,1389,2114.35,1389Z"/>
  <path class="cls-9" d="M2048.24,1423.87l-3-9.42s-6.26,2.65-9.39,2.2a89.4,89.4,0,0,1-9.26-2.2c-12.5,4.1-22.75,6.1-20.89,9.42Z"/>
  <path class="cls-4" d="M2047.15,1104.44c24.21,3.3,28.36,23.25,21.41,44.37-6.49,19.75-14.14,44.8-13.62,51.6.9,11.67,3.45,28.95,3.45,28.95s-45.44,2.85-62.53-3.8c0,0,5.71-26.48,5.71-33.41s3-76.32,5.19-79.94,6.5-5.69,14.75-7.47S2047.15,1104.44,2047.15,1104.44Z"/>
  <path class="cls-1" d="M2043.83,1085.73l3,19.41s-11,23.12-17.56,21.12c-5.5-1.69-2.11-22.12-2.11-22.12s3-11,2.11-16.51S2043.83,1085.73,2043.83,1085.73Z"/>
  <path class="cls-11" d="M2029.27,1087.63c-.91-5.47,14.56-1.9,14.56-1.9l.25,1.6a8.58,8.58,0,0,1-1.69,2.72,20.54,20.54,0,0,1-13.51,6A29.68,29.68,0,0,0,2029.27,1087.63Z"/>
  <path class="cls-1" d="M2046.36,1058.28c.43-.15,3.5,22.1-2.31,28.23s-17.15,8.13-21.23,3.3c-2-2.38-6-9.08-3.2-16.62s3-15.46,8-19C2036.64,1047.94,2046.36,1058.28,2046.36,1058.28Z"/>
  <path class="cls-6" d="M2028.07,1035.38c8.46,17.12,17.62,14.69,19.29,16.48,13.36,1.52,21.61,23.56,8.1,33.75-6.38,4.83-10.51,7.37-10.51,7.37l-1-2.93a15.71,15.71,0,0,1-.81-6.8,13,13,0,0,1,1-4.08c1.53-3.21-3.3-5.35-4.66-8-1-2.06-1.09-6.8-2.73-10.19l-2-2.63s-4.52-3.45-9-2.45S2018.47,1045.62,2028.07,1035.38Z"/>
  <path class="cls-1" d="M2039.81,1075.09c0,2.72,1.22,5,2.82,5s2.95-2.14,3-4.86-1.2-4.93-2.81-5S2039.86,1072.37,2039.81,1075.09Z"/>
  <path class="cls-1" d="M1961.26,1212.43c6.73,0,6.42,1.13,7.3,1.1,1,0,12.43-7.44,12.43-7.44s33.82-21.69,35.61-22.92l22.62-34.07,20.52,5.66s-25.61,36.44-27.3,38.13-50.81,25.95-55.08,28.22c0,0-4.1,4.5-6.76,7.24s-6.4,4.22-7.26,4.87a35.69,35.69,0,0,1-7.56,3.75c-3.8,1.35-.8-1.6-.8-1.6s6.56-3.73,6.19-4.17-3.78,1.9-8,3.45l-3.11,1.13c-2.58.93-3.85-.32-1.32-1.69a27,27,0,0,1,3.57-1.67,24,24,0,0,0,3.24-1.73,29.52,29.52,0,0,0,3.33-1.83c-.11-.06.14-.53-1-.14-1.4.47-4.13,2.09-6.21,2.62-1.18.3-3.63,1.09-3.63,1.09s-3.91.52-4,.3c-.58-1.11,2-2.2,3.68-2.42a19.42,19.42,0,0,1,3.59-1.4s4.9-2.64,4.55-3.32c-.16-.27-3.36,1-6.71,1.79-3.11.73-6.35,1-6.57.4-.4-1,3-2.11,3-2.11s2.37-.69,3.16-1,3.57-1.54,3.57-1.54,9.07-4.63,8.66-5.24-2.09-1.72-2.75-1.62-1.78.89-2.44,1a1.65,1.65,0,0,1-1.77-1.08c-.19-.77,2.84-2.44,2.84-2.44A11.65,11.65,0,0,1,1961.26,1212.43Z"/>
  <path class="cls-8" d="M2052.84,1170.49l-24.09-9.09s2.73-11.94,8.57-20.61c14.77-32.38,31.29-28.21,33.48-14.92C2073.88,1136.53,2052.84,1170.49,2052.84,1170.49Z"/>
  <path class="cls-28" d="M1835.86,1325.8c1.62-7.61,8.09-23.26,33.15-42.74,0,0-26.1,14.07-35.58,33.54-2-7.41-4-14.21-5.23-18.79-3.07-11.25,3.4-23.76,3.4-23.76s-11.57,12-4.76,41c0,0-25.28-4.36-34.41-28,0,0,2.56,21.49,34.06,36.5a40.13,40.13,0,0,1-1,24.26c-4.76,12.76-9.52,20.51-9.86,29h21.09s5.44-14.5,3.74-28.76A192,192,0,0,0,1835.86,1325.8Z"/>
  <path class="cls-29" d="M1834.24,1302.38s4.4,5,17.57,2.25,23.32-19.37,23.32-19.37,4.39,0,7.43-5,0-12.07,0-12.07,7.1-10.24,6.08-13.7-5.06-3.45-5.06-3.45-.34-7.63-1.69-9.3-3.72-.32-3.72-.32.34-8.85-3.38-16.23-12.5-6.75-12.5-6.75a16.82,16.82,0,0,0-4.39-8.21c-3.72-3.85-9.13-2.87-9.13-2.87s-3.38-6.22-6.42-6.88-5.4,2.16-5.4,2.16-5.41-7-10.14-6.92-15.21,14.66-15.21,14.66-1.69-2.23-5.74.42-3,5.81-3,5.81-9.13,1.26-13.86,6-4.39,9.75-4.39,9.75-8.45,1.5-8.79,2.4,1,3.17,1,3.17-8.45,7.68-10.81,15.51.67,11.73.67,11.73-6.76,9.91-3.72,14.1a16.56,16.56,0,0,0,7.77,5.62s-2.7,5.79-1.69,6.89,3.38-1.42,3.38-1.42a14.78,14.78,0,0,0,5.41,9.32c4.73,3.48,12.84-.35,12.84-.35s1,3.45,3.38,4.16,13.86-4,13.86-4,1.35,4.9,5.74,5.46,7.43-4.66,7.43-4.66S1824.44,1309.57,1834.24,1302.38Z"/>
  <path class="cls-30" d="M1888.64,1254.53c-1-3.46-5.06-3.45-5.06-3.45s-.34-7.63-1.69-9.3-3.72-.32-3.72-.32.34-8.85-3.38-16.23-12.5-6.75-12.5-6.75a16.82,16.82,0,0,0-4.39-8.21c-3.72-3.85-9.13-2.87-9.13-2.87s-3.38-6.22-6.42-6.88-5.4,2.16-5.4,2.16-5.41-7-10.14-6.92-15.21,14.66-15.21,14.66-1.69-2.23-5.74.42-3,5.81-3,5.81-9.13,1.26-13.86,6-4.39,9.75-4.39,9.75a67.12,67.12,0,0,0-7.74,1.81c1.15,34.67,35.06,62.48,76.75,62.48a91.45,91.45,0,0,0,13-.94,61.44,61.44,0,0,0,8.52-10.51s4.39,0,7.43-5,0-12.07,0-12.07S1889.66,1258,1888.64,1254.53Z"/>
  <path class="cls-29" d="M1872.62,1397.07l-14.12,63h-66.1l-14.11-63Z"/>
  <path class="cls-29" d="M1877.74,1397.07c2.2,0,4-1.5,4-3.33v-13.56c0-1.84-1.81-3.34-4-3.34H1773.17c-2.21,0-4,1.5-4,3.34v13.56c0,1.83,1.81,3.33,4,3.33Z"/>
  <path class="cls-28" d="M1870.91,1404.67l1.71-7.6h-94.33l1.7,7.6Z"/>
</svg>