<?xml version="1.0" encoding="utf-8"?>
<!-- Generator: Adobe Illustrator 26.0.3, SVG Export Plug-In . SVG Version: 6.00 Build 0)  -->
<svg version="1.1" id="Layer_1" xmlns="http://www.w3.org/2000/svg" xmlns:xlink="http://www.w3.org/1999/xlink" x="0px" y="0px"
	 viewBox="0 0 1080 1080" style="enable-background:new 0 0 1080 1080;" xml:space="preserve">
<style type="text/css">
	.st0{fill:#9BC9EB;}
	.st1{fill:#4D598D;}
	.st2{fill:#9BC9EB;stroke:#4D598D;stroke-width:16;stroke-linecap:round;stroke-linejoin:round;stroke-miterlimit:10;}
	.st3{fill:#4D598D;stroke:#4D598D;stroke-width:0.3;stroke-miterlimit:10;}
	.st4{fill:#FFFFFF;}
	.st5{fill:#263A6E;}
	.st6{fill:#0E71B9;}
	.st7{fill:#23376F;}
	.st8{fill:#FFFFFF;stroke:#23376F;stroke-width:24;stroke-linecap:round;stroke-linejoin:round;stroke-miterlimit:10;}
	.st9{fill:#20ADE4;}
	.st10{fill:#EDF4FB;}
	.st11{fill:#234698;}
	.st12{fill-rule:evenodd;clip-rule:evenodd;fill:#0E71B9;}
	.st13{fill-rule:evenodd;clip-rule:evenodd;fill:#EDF4FB;}
	.st14{fill:#C6DEF4;}
	.st15{fill:#ABC7E8;}
	.st16{fill-rule:evenodd;clip-rule:evenodd;fill:#9CC0E6;}
	.st17{fill-rule:evenodd;clip-rule:evenodd;fill:#FFFFFF;}
	.st18{fill-rule:evenodd;clip-rule:evenodd;fill:#BBD4EE;}
	.st19{fill:#568AC8;}
	.st20{fill-rule:evenodd;clip-rule:evenodd;fill:#7AA8D9;}
	.st21{fill:#BBD4EE;}
	.st22{fill-rule:evenodd;clip-rule:evenodd;fill:#F4B1B1;}
	.st23{fill-rule:evenodd;clip-rule:evenodd;fill:#CDDFF3;}
	.st24{fill-rule:evenodd;clip-rule:evenodd;fill:#3050A3;}
	
		.st25{clip-path:url(#SVGID_00000127762003030621089180000000804445513984824456_);fill:url(#SVGID_00000044881181229345214740000002899031685691045775_);}
	.st26{fill-rule:evenodd;clip-rule:evenodd;fill:#25AFA6;}
	.st27{fill-rule:evenodd;clip-rule:evenodd;fill:#5ABEBB;}
	.st28{fill-rule:evenodd;clip-rule:evenodd;fill:#355399;}
	.st29{fill-rule:evenodd;clip-rule:evenodd;fill:#223B74;}
	.st30{fill-rule:evenodd;clip-rule:evenodd;fill:#76A1D5;}
	.st31{fill-rule:evenodd;clip-rule:evenodd;fill:#E98385;}
	.st32{fill:#F4B1B1;}
	.st33{fill:#F5EC79;}
	.st34{fill:#DDE293;}
	.st35{fill-rule:evenodd;clip-rule:evenodd;fill:#F5EC79;}
	.st36{fill-rule:evenodd;clip-rule:evenodd;fill:#DDE293;}
	.st37{fill-rule:evenodd;clip-rule:evenodd;fill:#F3AF8F;}
	.st38{fill-rule:evenodd;clip-rule:evenodd;fill:#7FAADA;}
	.st39{fill-rule:evenodd;clip-rule:evenodd;fill:#929CCF;}
	.st40{fill-rule:evenodd;clip-rule:evenodd;fill:#6E7DBD;}
	.st41{fill:#6E7DBD;}
	.st42{fill-rule:evenodd;clip-rule:evenodd;fill:#E16C6C;}
	.st43{fill:#929CCF;}
	.st44{opacity:0.79;fill-rule:evenodd;clip-rule:evenodd;fill:#FFFFFF;}
	.st45{fill:#11497F;}
	.st46{fill:#C4E8FA;}
	.st47{fill:none;stroke:#4F74B9;stroke-width:9.983;stroke-linecap:round;stroke-linejoin:round;stroke-miterlimit:10;}
	.st48{fill:#4F74B9;}
</style>
<g>
	<path class="st1" d="M637,833.5c-5,0-9.1-4.1-9.1-9.1v-45c-13.2-31.6-16-65.9-8.1-99.3c8.1-34,26.5-63.8,53.3-86.3l72.7-61.3
		c20-16.9,50.4-14.6,67.7,5.1c17.4,19.8,15.6,50.4-4,68l-68,61.3c-3.7,3.4-9.5,3.1-12.8-0.7c-3.4-3.7-3.1-9.5,0.7-12.8l68-61.3
		c12.3-11.1,13.4-30.2,2.5-42.6c-10.8-12.3-29.9-13.8-42.4-3.2l-72.7,61.3C636.7,648,620.5,716.4,645.3,774c0.5,1.1,0.7,2.4,0.7,3.6
		v46.9C646.1,829.5,642,833.5,637,833.5z"/>
	<path class="st1" d="M797.7,833.5c-5,0-9.1-4.1-9.1-9.1v-53.2c0-2.3,0.9-4.5,2.5-6.2c0.5-0.6,54-57.7,91.1-113.2
		c21.5-32.1,32.9-69.7,32.9-108.5V358.8c0-8.3-3.2-16.1-9.1-22c-5.7-5.7-13.4-9-21.5-9.1c-7.9-0.1-15.7,3-21.6,8.9
		c-6.3,6.2-10,14.8-10,23.6v164.4c0,2.5-1,4.9-2.8,6.6l-30.7,29c-2.1,2-5.2,2.9-8,2.3c-2.9-0.6-5.3-2.6-6.5-5.3
		c-1.2-2.7-2.8-5.3-4.9-7.7c-10.8-12.3-29.9-13.7-42.4-3.2l-72.7,61.4c-32.5,27.3-51.1,67.2-51.1,109.6c0,19.5,4,38.6,11.7,56.6
		c0.5,1.1,0.7,2.4,0.7,3.6v46.9c0,5-4.1,9.1-9.1,9.1s-9.1-4.1-9.1-9.1v-45c-8.3-19.8-12.5-40.7-12.5-62.1c0-47.8,21-92.8,57.6-123.5
		l72.7-61.3c20-16.9,50.4-14.6,67.7,5.1c0.5,0.6,1,1.2,1.5,1.8l19.8-18.6V360.2c0-13.6,5.6-26.9,15.4-36.5
		c9.3-9.1,21.3-14.2,33.9-14.2c0.2,0,0.5,0,0.7,0c12.9,0.2,24.9,5.3,34,14.4c9.3,9.3,14.4,21.7,14.4,34.8v184.5
		c0,42.5-12.4,83.5-35.9,118.6c-33.4,49.9-79.4,100.8-90.5,112.8v49.6C806.8,829.5,802.8,833.5,797.7,833.5z"/>
	<g>
		<path class="st0" d="M815.3,815.4h-17.6h-57.2H625.7c-12.1,0-21.9,9.8-21.9,21.9v64.8c0,12.1,9.8,22,21.9,22h189.6
			c12.1,0,21.9-9.9,21.9-22v-64.8C837.2,825.2,827.4,815.4,815.3,815.4z"/>
		<path class="st1" d="M815.3,933.2H625.7c-17.1,0-30.9-13.9-30.9-31.1v-64.8c0-17.1,13.9-31,30.9-31h189.6c17.1,0,30.9,13.9,31,31
			v64.8C846.3,919.2,832.4,933.2,815.3,933.2z M625.7,824.5c-7.1,0-12.8,5.8-12.8,12.8v64.8c0,7.1,5.8,13,12.8,13h189.6
			c7.1,0,12.8-5.8,12.8-13v-64.8c0-7.1-5.8-12.8-12.8-12.8H625.7z"/>
	</g>
	<path class="st1" d="M443,833.5c-5,0-9.1-4.1-9.1-9.1v-46.9c0-1.2,0.3-2.5,0.7-3.6c24.9-57.6,8.7-125.9-39.4-166.2l-72.7-61.4
		c-12.5-10.6-31.6-9.2-42.4,3.2c-10.9,12.4-9.8,31.5,2.5,42.6l68,61.3c3.7,3.4,4,9.1,0.7,12.8c-3.4,3.7-9.1,4-12.8,0.7l-68-61.3
		c-19.6-17.7-21.4-48.2-4-68c17.3-19.7,47.7-22,67.7-5.1l72.7,61.3c26.8,22.4,45.2,52.3,53.2,86.3c7.9,33.4,5.1,67.7-8.1,99.3v45
		C452,829.5,448,833.5,443,833.5z"/>
	<path class="st1" d="M443,833.5H282.3c-5,0-9.1-4.1-9.1-9.1v-49.6c-11.1-12-57.2-63-90.5-112.8c-23.5-35.1-35.9-76.1-35.9-118.6
		V358.8c0-13.1,5.1-25.5,14.4-34.8c9.1-9.1,21.2-14.2,34-14.4c12.9-0.2,25.2,4.8,34.6,14.1c9.8,9.6,15.4,22.9,15.4,36.5v160.5
		l19.8,18.6c0.5-0.6,1-1.2,1.5-1.8c17.3-19.7,47.7-22,67.7-5.1l72.7,61.4c36.6,30.7,57.6,75.7,57.6,123.5c0,21.4-4.2,42.3-12.5,62.1
		v45C452,829.5,448,833.5,443,833.5z M291.3,815.4h142.6v-37.8c0-1.2,0.3-2.5,0.7-3.6c7.8-18,11.7-37.1,11.7-56.6
		c0-42.4-18.6-82.3-51.1-109.6c0,0,0,0,0,0l-72.7-61.4c-12.5-10.6-31.6-9.2-42.4,3.2c-2.1,2.4-3.7,5-4.9,7.7
		c-1.2,2.7-3.6,4.7-6.5,5.3c-2.9,0.6-5.9-0.3-8-2.3l-30.7-29c-1.8-1.7-2.8-4.1-2.8-6.6V360.2c0-8.7-3.6-17.3-10-23.6
		c-6-5.9-13.7-9.1-21.6-8.9c-8.1,0.1-15.8,3.4-21.5,9.1c-5.9,5.9-9.1,13.7-9.1,22v184.5c0,38.9,11.4,76.4,32.9,108.5
		c37.1,55.5,90.6,112.6,91.1,113.2c1.6,1.7,2.5,3.9,2.5,6.2V815.4z"/>
	<g>
		<path class="st0" d="M454.3,815.4H339.5h-57.2h-17.6c-12.1,0-21.9,9.8-21.9,21.9v64.8c0,12.1,9.8,22,21.9,22h189.6
			c12.1,0,21.9-9.9,21.9-22v-64.8C476.1,825.2,466.4,815.4,454.3,815.4z"/>
		<path class="st1" d="M454.3,933.2H264.7c-17.1,0-31-13.9-31-31.1v-64.8c0-17.1,13.9-31,31-31h189.6c17.1,0,30.9,13.9,31,31v64.8
			C485.2,919.2,471.3,933.2,454.3,933.2z M264.7,824.5c-7.1,0-12.8,5.8-12.8,12.8v64.8c0,7.1,5.8,13,12.8,13h189.6
			c7.1,0,12.8-5.8,12.8-13v-64.8c0-7.1-5.8-12.8-12.8-12.8H264.7z"/>
	</g>
	<path class="st1" d="M540.1,605.8c-1.4,0-2.7-0.3-4-0.9c-67.2-32.6-118.7-62.9-151-104.3c-24.1-31-35.8-66.7-35.8-109.2V225.6
		c0-3.8,2.4-7.3,6.1-8.6L537,153.1c2.2-0.8,4.6-0.7,6.7,0.3L724.9,217c3.6,1.3,6.1,4.7,6.1,8.6v165.8c0,50.9-16.2,91.1-51,126.4
		c-34.9,35.4-85.6,62.7-135.4,86.8C543.3,605.4,541.7,605.8,540.1,605.8z M367.4,232v159.4c0,38.9,10.2,70,32,98.1
		c31.2,40,85.8,70.4,140.7,97.2c114.6-56,172.8-102.1,172.8-195.3V232L540,171.3L367.4,232z"/>
	<g>
		<path class="st0" d="M663.2,262.6c2.6,0.9,4.4,3.4,4.4,6.2v122.6c0,58.5-29.8,94-124.4,143c-1.9,1-4.2,1-6.1,0
			c-41.6-21.5-80.2-45.2-101.9-72.9c-15.5-19.8-22.4-41.5-22.4-70.1V268.8c0-2.8,1.8-5.3,4.4-6.2l120.7-42.4c1.4-0.5,2.9-0.5,4.3,0
			L663.2,262.6z"/>
		<path class="st1" d="M540,544.2c-2.5,0-4.9-0.6-7.2-1.7c-53.2-27.4-85.5-50.7-104.9-75.4c-16.8-21.5-24.3-44.9-24.3-75.7V268.8
			c0-6.6,4.2-12.5,10.4-14.7l120.7-42.4c3.3-1.2,7-1.2,10.3,0l121,42.4c6.2,2.2,10.4,8.1,10.4,14.7v122.6c0,62.9-32.6,101-129.3,151
			C545,543.7,542.5,544.2,540,544.2z M421.8,270.6v120.9c0,26.5,6.3,46.4,20.4,64.5c22.4,28.6,63.8,52.3,97.8,69.8
			c89.7-46.5,118.5-79.3,118.5-134.4V270.6L540,229L421.8,270.6z M660.2,271.2L660.2,271.2L660.2,271.2z"/>
	</g>
	<path class="st4" d="M525.2,415.7c-2.3,0-4.6-0.9-6.4-2.7l-24.6-24.6c-3.5-3.5-3.5-9.3,0-12.8c3.5-3.5,9.3-3.5,12.8,0l18.2,18.2
		l51.6-51.6c3.5-3.5,9.3-3.5,12.8,0c3.5,3.5,3.5,9.3,0,12.8l-58,58C529.8,414.9,527.5,415.7,525.2,415.7z"/>
</g>
</svg>
