<?xml version="1.0" encoding="utf-8"?>
<!-- Generator: Adobe Illustrator 26.0.3, SVG Export Plug-In . SVG Version: 6.00 Build 0)  -->
<svg version="1.1" id="Layer_1" xmlns="http://www.w3.org/2000/svg" xmlns:xlink="http://www.w3.org/1999/xlink" x="0px" y="0px"
	 viewBox="0 0 1080 1080" style="enable-background:new 0 0 1080 1080;" xml:space="preserve">
<style type="text/css">
	.st0{fill:#263A6E;}
	.st1{fill:#9BC9EB;}
	.st2{fill:#FFFFFF;}
	.st3{fill:#4F74B9;}
	.st4{fill:#39B54A;}
	.st5{fill:none;stroke:#263A6E;stroke-width:16;stroke-miterlimit:10;}
	.st6{fill:none;stroke:#263A6E;stroke-width:16;stroke-miterlimit:10;stroke-dasharray:25.5016,25.5016;}
	.st7{fill:#010101;}
	.st8{fill:#8AB3DF;}
	.st9{fill:#C1D9F1;}
	.st10{fill:#A3C6E9;}
	.st11{fill:#FCEDAD;}
	.st12{fill:#FBDD7D;}
	.st13{fill:#B7E4F7;stroke:#263A6E;stroke-width:9;stroke-miterlimit:10;}
	.st14{fill:#ED1C24;stroke:#263A6E;stroke-width:9;stroke-miterlimit:10;}
	.st15{fill:#F8B3B5;}
	.st16{fill:#ED1C24;}
	.st17{fill:#263A6E;stroke:#263A6E;stroke-width:16;stroke-miterlimit:10;}
	.st18{clip-path:url(#SVGID_00000002351700723000547230000001408472578216204160_);}
</style>
<path class="st1" d="M879.2,368.3H761l-25.1-43.7L761,281h118.2c3.1,0,5.9-1.7,7.5-4.2c1.5-2.6,1.8-5.8,0.4-8.5
	c-21.8-44.8-66.2-72.5-115.8-72.5c-41.1,0-79.6,19.5-103.9,52.4H424.8c-24.3-32.9-62.7-52.4-103.9-52.4
	c-71.1,0-128.9,57.8-128.9,128.9s57.8,128.9,128.9,128.9c41.1,0,79.6-19.5,103.9-52.4h242.7c24.3,32.9,62.8,52.4,103.9,52.4
	c49.6,0,94-27.7,115.8-72.5c1.4-2.7,1.1-5.9-0.4-8.5C885.1,370,882.3,368.3,879.2,368.3z M270.4,324.6l25.2-43.7h50.6l25.2,43.7
	l-25.2,43.7h-50.6L270.4,324.6z"/>
<g>
	<g>
		<g>
			<path class="st0" d="M879.2,368.3H761l-25.1-43.7L761,281h118.2c3.1,0,5.9-1.7,7.5-4.2c1.5-2.6,1.8-5.8,0.4-8.5
				c-21.8-44.8-66.2-72.5-115.8-72.5c-41.1,0-79.6,19.5-103.9,52.4H424.8c-24.3-32.9-62.7-52.4-103.9-52.4
				c-71.1,0-128.9,57.8-128.9,128.9s57.8,128.9,128.9,128.9c41.1,0,79.6-19.5,103.9-52.4h242.7c24.3,32.9,62.8,52.4,103.9,52.4
				c49.6,0,94-27.7,115.8-72.5c1.4-2.7,1.1-5.9-0.4-8.5C885.1,370,882.3,368.3,879.2,368.3z M771.3,436c-36.9,0-71.2-18.2-92-48.8
				c-1.7-2.4-4.4-3.8-7.4-3.8H420.2c-3,0-5.7,1.4-7.4,3.8c-20.8,30.5-55.1,48.8-92,48.8c-61.3,0-111.4-50-111.4-111.4
				s50-111.4,111.4-111.4c36.9,0,71.2,18.2,92,48.8c1.7,2.4,4.4,3.8,7.4,3.8H672c3,0,5.7-1.4,7.4-3.8c20.8-30.5,55.1-48.8,92-48.8
				c37.9,0,72.2,18.9,92.7,50H756c-3.1,0-6.1,1.7-7.6,4.4l-30.4,52.6c-1.5,2.7-1.5,6.1,0,8.7l30.4,52.6c1.5,2.7,4.5,4.4,7.6,4.4
				h108.1C843.6,417.1,809.2,436,771.3,436z"/>
		</g>
	</g>
	<g>
		<g>
			<path class="st0" d="M389.2,320.3l-30.3-52.6c-1.5-2.7-4.5-4.4-7.6-4.4h-60.8c-3.1,0-6.1,1.7-7.6,4.4l-30.3,52.6
				c-1.7,2.7-1.7,6.1,0,8.7l30.3,52.6c1.5,2.7,4.5,4.4,7.6,4.4h60.8c3.1,0,6.1-1.7,7.6-4.4l30.3-52.6
				C390.9,326.3,390.9,322.9,389.2,320.3z M346.2,368.3h-50.6l-25.2-43.7l25.2-43.7h50.6l25.2,43.7L346.2,368.3z"/>
		</g>
	</g>
</g>
<g>
	<g>
		<path class="st0" d="M656.6,896.2H403.7c-4.6,0-8.4-3.8-8.4-8.4c0-4.6,3.8-8.4,8.4-8.4h252.9c4.6,0,8.4,3.8,8.4,8.4
			C665,892.4,661.2,896.2,656.6,896.2z"/>
	</g>
	<g>
		<path class="st0" d="M779.9,895.5c-3.9,0-7.4-2.7-8.2-6.6c-1-4.5,1.9-9,6.5-9.9l79.1-16.8c7.8-2,13.5-9.4,13.5-17.8l0-70.5
			c0-8.5-5.8-15.9-14.1-17.9l-139.6-34.2h-454l-61.3,21.7c-7.4,2.6-12.3,9.6-12.3,17.4v81.6c0,9.1,6.5,16.7,15.4,18.2l71.3,9.7
			c4.6,0.6,7.8,4.8,7.2,9.4c-0.6,4.6-5,7.8-9.4,7.2l-71.5-9.7c-17.3-2.9-29.7-17.5-29.7-34.8v-81.6c0-14.9,9.4-28.2,23.5-33.2
			l62.7-22.2c0.9-0.3,1.9-0.5,2.8-0.5h456.4c0.7,0,1.3,0.1,2,0.2l140.6,34.4c15.8,3.9,26.9,18,26.9,34.3l0,70.5
			c0,16.1-10.9,30.1-26.5,34.1l-79.4,16.9C781,895.5,780.5,895.5,779.9,895.5z"/>
	</g>
	<g>
		<g>
			<path class="st0" d="M718.1,721.7H516.7c-4,0-7.5-2.8-8.2-6.7L483,587.4h-76L363.6,716c-1.2,3.4-4.3,5.7-7.9,5.7h-94
				c-2.9,0-5.6-1.5-7.1-4c-1.5-2.5-1.7-5.6-0.4-8.1l56-112c8.3-16.6,25-26.9,43.5-26.9h47.1c0.1,0,0.3,0,0.4,0h88.5
				c0.1,0,0.2,0,0.3,0h83.3c17.6,0,34.4,7.5,46.2,20.6l104.8,116.5c2.2,2.5,2.8,6,1.4,9C724.4,719.7,721.4,721.7,718.1,721.7z
				 M523.6,704.9h175.6L607,602.4c-8.6-9.5-20.8-15-33.7-15h-73.2L523.6,704.9z M275.2,704.9h74.4l39.7-117.5h-35.6
				c-12.2,0-23.1,6.8-28.5,17.6L275.2,704.9z"/>
		</g>
	</g>
	<g>
		<g>
			<path class="st0" d="M718.1,936.5c-41.6,0-75.5-33.9-75.5-75.5s33.9-75.5,75.5-75.5s75.5,33.9,75.5,75.5S759.7,936.5,718.1,936.5
				z M718.1,802.2c-32.4,0-58.7,26.4-58.7,58.7s26.4,58.7,58.7,58.7s58.7-26.4,58.7-58.7S750.5,802.2,718.1,802.2z"/>
		</g>
	</g>
	<g>
		<circle class="st0" cx="718.1" cy="860.9" r="13.4"/>
	</g>
	<g>
		<g>
			<path class="st0" d="M342.2,936.5c-41.6,0-75.5-33.9-75.5-75.5s33.9-75.5,75.5-75.5s75.5,33.9,75.5,75.5S383.8,936.5,342.2,936.5
				z M342.2,802.2c-32.4,0-58.7,26.4-58.7,58.7s26.4,58.7,58.7,58.7s58.7-26.4,58.7-58.7S374.6,802.2,342.2,802.2z"/>
		</g>
	</g>
	<g>
		<circle class="st0" cx="342.2" cy="860.9" r="13.4"/>
	</g>
	<g>
		<path class="st0" d="M590.5,761.9h-40.3c-4.6,0-8.4-3.8-8.4-8.4s3.8-8.4,8.4-8.4h40.3c4.6,0,8.4,3.8,8.4,8.4
			S595.2,761.9,590.5,761.9z"/>
	</g>
	<g>
		<path class="st0" d="M416,761.9h-40.3c-4.6,0-8.4-3.8-8.4-8.4s3.8-8.4,8.4-8.4H416c4.6,0,8.4,3.8,8.4,8.4S420.7,761.9,416,761.9z"
			/>
	</g>
</g>
<g>
	<defs>
		<polygon id="SVGID_1_" points="861.7,749.6 793.8,734.6 721.9,720.4 655.3,575.7 815.6,493.6 934.4,493.6 986,533.8 1025.7,594.7 
			1043.1,678.2 996.9,731.2 		"/>
	</defs>
	<clipPath id="SVGID_00000049207713713037303490000011770652109444343945_">
		<use xlink:href="#SVGID_1_"  style="overflow:visible;"/>
	</clipPath>
	<g style="clip-path:url(#SVGID_00000049207713713037303490000011770652109444343945_);">
		<g>
			<path class="st0" d="M939.9,536.1c-0.2,0-0.4,0-0.5,0c-1.2-0.2-2.3-0.3-3.5-0.4c-0.6,0-1.2-0.1-1.8-0.1c-2,0-3.6-1.7-3.6-3.7
				c0-2,1.7-3.6,3.7-3.6c0.8,0,1.5,0,2.1,0.1c1.4,0.1,2.8,0.2,4.1,0.4c2,0.3,3.4,2.2,3.1,4.2C943.2,534.8,941.7,536.1,939.9,536.1z"
				/>
			<path class="st0" d="M939.9,540.1c-0.4,0-0.8,0-1.2-0.1c-1-0.2-2.1-0.3-3.2-0.3c-0.5,0-1.1-0.1-1.6-0.1c-2.1,0-4-0.9-5.4-2.4
				s-2.2-3.4-2.1-5.5c0.1-4.1,3.5-7.5,7.7-7.5c0.9,0,1.7,0.1,2.4,0.1c1.5,0.1,3,0.3,4.4,0.5c4.2,0.6,7.1,4.5,6.4,8.7
				C946.9,537.3,943.7,540.1,939.9,540.1z"/>
		</g>
		<g>
			<path class="st0" d="M924.3,536.6c-4.3,1-8.4,2.6-12.3,4.9c-0.9,0.5-1.9,0.7-2.9,0.4c-1-0.3-1.8-0.9-2.2-1.8
				c-9-17.5-27.4-27.9-47.1-26.7c-21.7,1.4-40.1,17.2-44.7,38.5c-1.2,5.8-1.5,11.6-0.7,17.4c0.2,1.2-0.3,2.4-1.2,3.2
				c-0.9,0.8-2.2,1.1-3.3,0.8c-3.1-0.8-6.1-1.3-9-1.5c-27.1-1.8-50.5,18.8-52.3,45.8c-0.1,0.9-0.1,1.8-0.1,2.7
				c-0.1,11.3,4.2,22.7,12.1,32.1c1.3,1.5,1.1,3.9-0.4,5.1c-0.7,0.6-1.5,0.9-2.4,0.9c-1,0-2.1-0.4-2.8-1.3
				c-9-10.7-13.9-23.8-13.8-36.9c0-1,0.1-2.1,0.1-3.1c2-31.1,28.9-54.7,60.1-52.7c1.8,0.1,3.5,0.3,5.3,0.6c-0.2-5,0.2-9.9,1.2-14.9
				c5.3-24.5,26.4-42.6,51.3-44.2c21.3-1.3,41.4,9.3,52.2,27.4c3.5-1.8,7.3-3.1,11.1-4c2-0.4,3.9,0.8,4.4,2.8
				C927.5,534.2,926.2,536.1,924.3,536.6z"/>
			<path class="st0" d="M757.8,662.5c-2.3,0-4.4-1-5.9-2.7c-9.6-11.4-14.9-25.5-14.7-39.5c0-1.1,0.1-2.3,0.1-3.4
				c2.2-33.2,31-58.5,64.3-56.4c0.4,0,0.7,0.1,1.1,0.1c0.1-3.7,0.6-7.5,1.4-11.2c5.7-26.2,28.3-45.7,55-47.4
				c21.6-1.4,41.9,8.6,54,26.3c2.8-1.2,5.8-2.1,8.8-2.8c4.1-0.9,8.2,1.7,9.1,5.8c0.9,4.1-1.7,8.2-5.8,9.1l0,0
				c-3.9,0.9-7.6,2.4-11.1,4.4c-1.8,1.1-4,1.4-6,0.8c-2-0.6-3.8-2-4.7-3.9c-8.2-16-25.2-25.6-43.3-24.5c-19.9,1.3-36.8,15.8-41,35.3
				c-1.1,5.3-1.4,10.7-0.6,16c0.4,2.5-0.6,5.1-2.5,6.8c-1.9,1.7-4.5,2.3-7,1.7c-2.8-0.7-5.6-1.2-8.3-1.4
				c-24.8-1.6-46.4,17.3-48,42.1c-0.1,0.8-0.1,1.7-0.1,2.5c-0.1,10.4,3.8,20.8,11.1,29.5c1.3,1.6,1.9,3.5,1.8,5.6
				c-0.2,2-1.1,3.9-2.7,5.2C761.3,661.8,759.6,662.5,757.8,662.5z"/>
		</g>
		<g>
			<path class="st0" d="M180.3,782.5v-36.3v-3.7v-11.9c0-6.7,4.5-12.6,11.3-14.6c6.2-1.8,12.2-3.5,18.1-5.1
				c17.1-4.7,31.8-8.8,44.6-15.2c2.9-1.5,8.7-4.5,15.9-8.4c20.7-11.1,55.2-29.7,76.1-38.3c24.1-9.9,58.3-19,144.8-19
				c73.3,0,106,4.9,140.1,21.1c27.5,13.1,54.2,35.4,71.9,50.1c6.9,5.7,12.6,10.5,16.3,13.1c2.6-3.1,5.3-6.3,8.2-9.7
				c22.5-26.9,53.4-63.6,91.9-93.7c0.4-0.3,9.3-6.9,22.6-11c1.9-0.6,4,0.5,4.6,2.4c0.6,1.9-0.5,4-2.4,4.6c-12,3.7-20.3,9.8-20.3,9.8
				c-18.7,14.6-35.7,30.9-50.7,46.8c6.4,3.7,13.7,5.9,21.2,6.4c6.5,0.4,13-0.5,19.2-2.6c1.6-0.6,3.3,0,4.2,1.4
				c0.9,1.4,0.8,3.2-0.3,4.5c-3,3.3-5.8,9.6-5.6,16.4l-0.3,42.1c3.2,0.8,6.4,1.6,9.7,2.4l0.2-34.3c-0.2-5.1,2.5-7.1,4-7.8
				c3-1.4,6.7-0.4,8.7,1.3c6.8,6,15.2,9.4,24.3,10c17.9,1.2,34.6-9.6,41-26.2c1.6-4.1,2.5-8.5,2.7-13c0.1-2,1.8-3.5,3.8-3.5
				c2,0.1,3.6,1.8,3.5,3.8c-0.2,4-0.9,8-2.1,11.9c9.1,8.5,20.9,13.2,33.4,13.2c0.1,0,0.3,0,0.4,0c23.6-0.2,44.3-17.9,48.1-41.2
				c2.9-18.2-4.4-36.3-19.1-47.4c-0.1-0.1-0.2-0.2-0.3-0.3c-5.8-4.3-12.3-7.2-19.4-8.6c-2-0.4-3.3-2.3-2.9-4.3
				c0.4-2,2.3-3.3,4.3-2.9c6.8,1.4,13.2,4,19,7.7c1.8-4.2,2.8-8.6,3.1-13.1c1.1-17.2-8.7-33.4-24.4-40.4c-1.8-0.8-2.7-3-1.9-4.8
				c0.8-1.8,3-2.7,4.8-1.9c18.5,8.2,30.1,27.3,28.8,47.5c-0.4,5.9-1.9,11.7-4.4,17.1c1.3,1.1,2.7,2.3,3.9,3.6
				c0.1,0.1,0.2,0.3,0.3,0.5c12.4,12.7,18.1,30.6,15.2,48.5c-4.3,26.8-28.1,47.1-55.2,47.3c-0.1,0-0.3,0-0.4,0
				c-13.4,0-26.1-4.6-36.3-13.2c-8.6,17.3-27,28.2-46.6,26.9c-10.7-0.7-20.5-4.8-28.5-11.8c-0.1-0.1-0.4-0.2-0.6-0.2
				c0,0.2-0.1,0.6-0.1,1.1l-0.2,36.3c11.8,3.2,23.7,7,35.6,11.5c0.4,0.2,42.6,17.3,42.6,58.7v39.9c0,21.3-17.3,38.6-38.6,38.6h-57
				c-9.9,26.6-35.5,45.6-65.5,45.6c-30,0-55.6-19-65.5-45.6H387.4c-9.9,26.6-35.5,45.6-65.5,45.6c-30,0-55.6-19-65.5-45.6h-52.6
				c-22.2,0-40.2-18-40.2-40.2v-45.2C163.6,790.1,171.1,782.5,180.3,782.5z M794,677.2c-9.2-0.6-18-3.4-25.8-8.2
				c-13.3,14.4-25,28.3-35,40.3c-2.1,2.5-4.1,4.9-6,7.2c3,0.5,6.1,0.9,9.2,1.4c19.5,2.9,43,6.5,68,12.1l0.2-40.3
				c-0.1-4.4,0.8-9,2.5-13.2C802.8,677.2,798.4,677.5,794,677.2z M886.2,771.8c-22.6-3.4-37.2-5.1-50.3-5.8
				c-1.3-0.1-2.6,0.5-3.4,1.5c-0.9,1-1.1,2.4-0.8,3.7c4.1,15.8,18.6,26.3,29.6,26.3h37.5C897,786.9,892,778.4,886.2,771.8z
				 M745.8,923c34.5,0,62.6-28.1,62.6-62.6s-28.1-62.6-62.6-62.6s-62.6,28.1-62.6,62.6S711.3,923,745.8,923z M321.9,923
				c34.5,0,62.6-28.1,62.6-62.6s-28.1-62.6-62.6-62.6c-34.5,0-62.6,28.1-62.6,62.6S287.4,923,321.9,923z M170.9,844.5
				c0,18.1,14.7,32.9,32.9,32.9h50.3c-1.4-5.4-2.1-11.1-2.1-17c0-38.5,31.3-69.9,69.9-69.9c38.5,0,69.9,31.3,69.9,69.9
				c0,5.9-0.7,11.5-2.1,17H678c-1.4-5.4-2.1-11.1-2.1-17c0-38.5,31.3-69.9,69.9-69.9c38.5,0,69.9,31.3,69.9,69.9
				c0,5.9-0.7,11.5-2.1,17h54.7c17.3,0,31.3-14,31.3-31.3v-39.9c0-0.4,0-0.8,0-1.2h-38.2c-13.6,0-31.5-12.1-36.7-31.8
				c-0.9-3.6-0.1-7.3,2.2-10.2c2.3-2.9,5.8-4.4,9.5-4.2c11.1,0.6,23.3,1.9,40.3,4.3c-7.6-5.8-14.3-8.6-15-8.8
				c-44.9-16.9-92-24-126.3-29.2c-5.5-0.8-10.8-1.6-15.7-2.4l-0.6-0.1l-0.5-0.3c-4.1-2.1-10.8-7.7-20.1-15.5
				c-17.4-14.5-43.7-36.5-70.4-49.1c-32.9-15.7-64.9-20.4-136.9-20.4c-85.2,0-118.6,8.9-142,18.5c-20.5,8.4-54.9,26.9-75.4,37.9
				c-7.3,3.9-13.1,7-16.1,8.5c-13.4,6.7-29.2,11.1-45.9,15.7c-5.8,1.6-11.8,3.3-17.9,5.1c-3.6,1.1-6.1,4.1-6.1,7.6v8.3h45.1
				c3.4,0,6.5,1.5,8.6,4.1c2.1,2.6,2.9,6,2.3,9.2c-4.5,21.8-24,37.6-46.3,37.6h-17c-5.3,0-9.5,4.3-9.5,9.5V844.5z M187.6,746.2v36.3
				h9.8c18.8,0,35.3-13.4,39.1-31.7c0.3-1.5-0.3-2.6-0.8-3.1c-0.7-0.9-1.8-1.4-3-1.4H187.6z"/>
			<path class="st0" d="M745.8,934.3c-29.8,0-56.9-18.2-68.2-45.6H390.1c-11.4,27.4-38.5,45.6-68.2,45.6s-56.9-18.2-68.2-45.6h-49.9
				c-24.4,0-44.2-19.8-44.2-44.2v-45.2c0-10.1,7.2-18.5,16.8-20.4v-48.3c0-8.5,5.7-15.9,14.2-18.4c6.4-1.9,12.6-3.6,18.1-5.1
				c16.9-4.7,31.5-8.7,43.9-15c2.9-1.5,8.9-4.7,15.8-8.4c20.7-11.1,55.4-29.8,76.5-38.4c24.4-10,59.1-19.3,146.3-19.3
				c74,0,107.1,5,141.8,21.5c28,13.3,54.9,35.8,72.7,50.7c4.9,4.1,9.6,8,13.1,10.7c1.9-2.2,3.8-4.5,5.8-6.9
				c22.7-27,53.7-64,92.5-94.3c0.5-0.3,10-7.4,23.9-11.7c2-0.6,4-0.4,5.8,0.6c1.8,1,3.1,2.6,3.7,4.5c0.6,2,0.4,4-0.6,5.8
				c-1,1.8-2.6,3.1-4.5,3.7c-11.2,3.4-19,9.2-19.1,9.2c-15.2,11.9-30.5,25.8-46.5,42.5c4.7,2,9.7,3.2,14.8,3.6
				c6,0.4,11.9-0.4,17.7-2.4c3.3-1.1,6.9,0.1,8.9,3c1.9,2.9,1.7,6.7-0.7,9.3c-2.3,2.6-4.8,8-4.6,13.6l0,0.1l-0.2,38.9
				c0.6,0.1,1.1,0.3,1.7,0.4l0.1-29.1c-0.2-7.6,4.3-10.6,6.3-11.5c4.6-2.2,10-0.7,13,1.9c6.2,5.4,13.7,8.5,21.9,9
				c16,1.1,31.2-8.7,37-23.6c1.5-3.7,2.3-7.7,2.5-11.7c0.2-4.1,3.6-7.3,7.7-7.3c0.1,0,0.1,0,0.2,0c2.1,0.1,4,1,5.4,2.5
				c1.4,1.5,2.1,3.5,2,5.5c-0.2,3.5-0.7,6.9-1.5,10.3c8.1,6.8,18.3,10.5,28.9,10.5l0.4,0c21.7-0.2,40.6-16.4,44.1-37.8
				c2.7-16.7-4-33.4-17.5-43.5c-0.2-0.2-0.5-0.4-0.6-0.5c-5.3-3.8-11.1-6.4-17.5-7.7c-4.1-0.8-6.8-4.9-6-9c0.8-4.1,4.9-6.8,9-6
				c5.6,1.1,11,3,16.1,5.7c0.7-2.4,1.1-4.9,1.3-7.5c1-15.5-7.8-30.2-22.1-36.4c-3.9-1.7-5.6-6.2-3.9-10.1c1.7-3.9,6.2-5.6,10.1-3.9
				c20.1,8.9,32.6,29.5,31.1,51.4c-0.4,5.4-1.5,10.7-3.5,15.7c0.7,0.6,1.3,1.2,1.9,1.9c0.3,0.3,0.5,0.6,0.6,0.8
				c13,13.6,19,32.9,16,51.6c-4.6,28.7-30.1,50.4-59.1,50.7l-0.5,0c-12.8,0-24.8-3.8-35-11.2c-10.1,16.3-28.9,26.2-48.1,24.9
				c-9-0.6-17.5-3.4-25-8.3l-0.1,26.6c11.6,3.3,22.7,6.9,33,10.8c0.5,0.2,45.2,18.4,45.2,62.5v39.9c0,23.5-19.1,42.6-42.6,42.6H814
				C802.6,916.1,775.5,934.3,745.8,934.3z M745.8,801.9c-32.3,0-58.6,26.3-58.6,58.6s26.3,58.6,58.6,58.6s58.6-26.3,58.6-58.6
				S778.1,801.9,745.8,801.9z M321.9,801.9c-32.3,0-58.6,26.3-58.6,58.6s26.3,58.6,58.6,58.6s58.6-26.3,58.6-58.6
				S354.2,801.9,321.9,801.9z M818.5,873.4h49.8c15.1,0,27.3-12.2,27.3-27.3V809h-34.2c-15.1,0-34.9-13.3-40.5-34.8
				c-1.3-4.8-0.2-9.8,3-13.7c3.1-3.8,7.8-5.9,12.7-5.7c6.1,0.3,12.3,0.8,19.4,1.6c-43.2-15.6-88.1-22.4-121.2-27.4l-1-0.2
				c-5.2-0.8-10.1-1.5-14.8-2.3l-1.2-0.2l-1.1-0.6c-4.5-2.3-11-7.7-20.8-15.9c-17.2-14.4-43.3-36.1-69.5-48.6
				c-32.3-15.4-63.9-20.1-135.2-20.1c-84.5,0-117.5,8.7-140.5,18.2c-20.4,8.3-54.6,26.8-75,37.7c-7.9,4.2-13.2,7.1-16.2,8.6
				c-13.8,6.9-29.7,11.3-46.6,16c-5.8,1.6-11.7,3.3-17.9,5.1c-1.9,0.6-3.2,2.1-3.2,3.7v4.3h41.1c4.6,0,8.9,2,11.7,5.6
				c2.9,3.5,4,8.1,3.1,12.6c-4.9,23.6-26,40.8-50.2,40.8h-17c-3.1,0-5.5,2.5-5.5,5.5v45.2c0,15.9,13,28.9,28.9,28.9h45.4
				c-0.8-4.3-1.1-8.6-1.1-13c0-40.7,33.1-73.9,73.9-73.9s73.9,33.1,73.9,73.9c0,4.3-0.4,8.7-1.1,13H673c-0.8-4.3-1.1-8.6-1.1-13
				c0-40.7,33.1-73.9,73.9-73.9s73.9,33.1,73.9,73.9C819.6,864.8,819.3,869.1,818.5,873.4z M832.5,767.6l3.1,2.5c0,0-0.1,0.1,0,0.2
				c3.6,13.8,16.5,23.3,25.7,23.3h32.5c-1.8-6.5-5.1-12.6-9.7-18.1c-21.6-3.2-35.7-4.8-48.4-5.5L832.5,767.6z M191.6,778.5h5.8
				c16.8,0,31.6-11.9,35.1-28.3h-40.9V778.5z M734.8,713.6c0.7,0.1,1.5,0.2,2.2,0.3c18,2.7,40.1,6.1,63.5,11.1l0.2-35.3
				c-0.1-2.8,0.2-5.7,0.8-8.5c-2.6,0.2-5.2,0.2-7.8,0l0,0c-8.6-0.6-17.1-3-24.8-7.1c-12.5,13.6-23.6,27-32.7,37.8
				C735.8,712.4,735.3,713,734.8,713.6z M813.5,671.5l-0.3,0.8c0.2-0.3,0.4-0.6,0.7-0.9C813.8,671.5,813.6,671.5,813.5,671.5z"/>
		</g>
	</g>
</g>
</svg>
