<?xml version="1.0" encoding="utf-8"?>
<!-- Generator: Adobe Illustrator 26.0.3, SVG Export Plug-In . SVG Version: 6.00 Build 0)  -->
<svg version="1.1" id="Layer_1" xmlns="http://www.w3.org/2000/svg" xmlns:xlink="http://www.w3.org/1999/xlink" x="0px" y="0px"
	 viewBox="0 0 1080 1080" style="enable-background:new 0 0 1080 1080;" xml:space="preserve">
<style type="text/css">
	.st0{fill:#9BC9EB;}
	.st1{fill:#263A6E;}
	.st2{fill:#FFFFFF;}
	.st3{fill:#4F74B9;}
	.st4{fill:#39B54A;}
</style>
<g>
	<path class="st0" d="M861.2,423.2c0,5-4.1,9.1-9.1,9.1H540v29.9h-18.1v-29.9H209.7c-5,0-9.1-4.1-9.1-9.1
		c0-149.9,148-271.9,330.3-271.9S861.2,273.3,861.2,423.2z"/>
	<g>
		<g>
			<path class="st1" d="M668.5,884.9h-275c-5,0-9.1-4.1-9.1-9.1s4.1-9.1,9.1-9.1h275c5,0,9.1,4.1,9.1,9.1S673.5,884.9,668.5,884.9z"
				/>
		</g>
		<g>
			<path class="st1" d="M802.5,884.2c-4.2,0-8-2.9-8.9-7.2c-1.1-4.9,2.1-9.8,7-10.8l86-18.3c8.5-2.2,14.7-10.2,14.7-19.4l0-76.7
				c0-9.3-6.3-17.3-15.3-19.5l-151.8-37.2H240.5l-66.7,23.6c-8,2.8-13.4,10.5-13.4,18.9v88.8c0,9.9,7.1,18.2,16.8,19.8l77.5,10.5
				c5,0.7,8.5,5.3,7.8,10.3c-0.7,5-5.4,8.5-10.3,7.8l-77.8-10.5c-18.8-3.1-32.3-19-32.3-37.8v-88.8c0-16.2,10.2-30.7,25.5-36.1
				l68.2-24.1c1-0.4,2-0.5,3.1-0.5h496.4c0.7,0,1.5,0.1,2.2,0.3l152.9,37.4c17.2,4.2,29.2,19.5,29.2,37.3l0,76.7
				c0,17.5-11.9,32.7-28.8,37.1L804.5,884C803.8,884.2,803.2,884.2,802.5,884.2z"/>
		</g>
		<g>
			<g>
				<path class="st1" d="M735.3,695.1h-219c-4.4,0-8.1-3.1-8.9-7.3l-27.7-138.7H397l-47.2,139.8c-1.3,3.7-4.7,6.2-8.6,6.2H238.9
					c-3.2,0-6.1-1.6-7.8-4.3c-1.7-2.7-1.8-6-0.4-8.9l60.9-121.8c9-18,27.1-29.3,47.3-29.3h51.3c0.1,0,0.3,0,0.4,0H487
					c0.1,0,0.2,0,0.4,0h90.6c19.1,0,37.4,8.2,50.2,22.4l114,126.7c2.4,2.7,3,6.5,1.6,9.8C742.2,693,738.9,695.1,735.3,695.1z
					 M523.8,676.9h191L614.5,565.4c-9.3-10.4-22.7-16.3-36.6-16.3h-79.7L523.8,676.9z M253.7,676.9h80.9l43.2-127.8H339
					c-13.2,0-25.1,7.3-31,19.2L253.7,676.9z"/>
			</g>
		</g>
		<g>
			<g>
				<path class="st1" d="M735.3,928.7c-45.3,0-82.1-36.8-82.1-82.1s36.8-82.1,82.1-82.1s82.1,36.8,82.1,82.1
					S780.6,928.7,735.3,928.7z M735.3,782.7c-35.2,0-63.9,28.7-63.9,63.9s28.7,63.9,63.9,63.9s63.9-28.7,63.9-63.9
					S770.6,782.7,735.3,782.7z"/>
			</g>
		</g>
		<g>
			<circle class="st1" cx="735.3" cy="846.6" r="14.6"/>
		</g>
		<g>
			<g>
				<path class="st1" d="M326.5,928.7c-45.3,0-82.1-36.8-82.1-82.1s36.8-82.1,82.1-82.1s82.1,36.8,82.1,82.1
					S371.8,928.7,326.5,928.7z M326.5,782.7c-35.2,0-63.9,28.7-63.9,63.9s28.7,63.9,63.9,63.9s63.9-28.7,63.9-63.9
					S361.7,782.7,326.5,782.7z"/>
			</g>
		</g>
		<g>
			<circle class="st1" cx="326.5" cy="846.6" r="14.6"/>
		</g>
		<g>
			<path class="st1" d="M596.6,738.9h-43.8c-5,0-9.1-4.1-9.1-9.1s4.1-9.1,9.1-9.1h43.8c5,0,9.1,4.1,9.1,9.1S601.7,738.9,596.6,738.9
				z"/>
		</g>
		<g>
			<path class="st1" d="M406.8,738.9H363c-5,0-9.1-4.1-9.1-9.1s4.1-9.1,9.1-9.1h43.8c5,0,9.1,4.1,9.1,9.1S411.9,738.9,406.8,738.9z"
				/>
		</g>
	</g>
	<g>
		<g>
			<g>
				<path class="st1" d="M530.9,151.3c-182.2,0-330.3,121.9-330.3,271.9c0,5,4.1,9.1,9.1,9.1h642.4c5,0,9.1-4.1,9.1-9.1
					C861.2,273.3,713.1,151.3,530.9,151.3z M219.1,414.1c4.5-106.4,90.1-196.2,207.9-230.2c21-6.1,43.2-10.4,66.1-12.6
					c12.4-1.3,25-1.9,37.8-1.9s25.4,0.6,37.8,1.9c22.9,2.2,45.1,6.4,66.1,12.6c117.8,34,203.4,123.8,207.9,230.2H219.1z"/>
			</g>
		</g>
		<g>
			<path class="st1" d="M741,432.3c-5,0-9.1-4.1-9.1-9.1c0-139.9-90.1-253.7-200.9-253.7C420.2,169.5,330,283.3,330,423.2
				c0,5-4.1,9.1-9.1,9.1s-9.1-4.1-9.1-9.1c0-149.9,98.3-271.9,219.2-271.9c120.8,0,219.2,122,219.2,271.9
				C750.1,428.2,746,432.3,741,432.3z"/>
		</g>
		<g>
			<path class="st1" d="M617.4,432.3c-5,0-9.1-4.1-9.1-9.1c0-149.5-40.8-253.7-77.4-253.7s-77.4,104.2-77.4,253.7
				c0,5-4.1,9.1-9.1,9.1s-9.1-4.1-9.1-9.1c0-131.8,33.5-271.9,95.6-271.9s95.6,140.1,95.6,271.9
				C626.5,428.2,622.4,432.3,617.4,432.3z"/>
		</g>
		<g>
			<path class="st1" d="M540,423.2v73c0,5-4.1,9.1-9.1,9.1c-5,0-9.1-4.1-9.1-9.1v-73c0-5,4.1-9.1,9.1-9.1
				C535.9,414.1,540,418.2,540,423.2z"/>
		</g>
	</g>
</g>
</svg>
