<?xml version="1.0" encoding="utf-8"?>
<!-- Generator: Adobe Illustrator 26.0.3, SVG Export Plug-In . SVG Version: 6.00 Build 0)  -->
<svg version="1.1" id="Layer_1" xmlns="http://www.w3.org/2000/svg" xmlns:xlink="http://www.w3.org/1999/xlink" x="0px" y="0px"
	 viewBox="0 0 1080 1080" style="enable-background:new 0 0 1080 1080;" xml:space="preserve">
<style type="text/css">
	.st0{fill:#9BC9EB;}
	.st1{fill:#4D598D;}
	.st2{fill:#9BC9EB;stroke:#4D598D;stroke-width:16;stroke-linecap:round;stroke-linejoin:round;stroke-miterlimit:10;}
	.st3{fill:#4D598D;stroke:#4D598D;stroke-width:0.3;stroke-miterlimit:10;}
	.st4{fill:#FFFFFF;}
	.st5{fill:#263A6E;}
	.st6{fill:#0E71B9;}
	.st7{fill:#23376F;}
	.st8{fill:#FFFFFF;stroke:#23376F;stroke-width:24;stroke-linecap:round;stroke-linejoin:round;stroke-miterlimit:10;}
	.st9{fill:#20ADE4;}
	.st10{fill:#EDF4FB;}
	.st11{fill:#234698;}
	.st12{fill-rule:evenodd;clip-rule:evenodd;fill:#0E71B9;}
	.st13{fill-rule:evenodd;clip-rule:evenodd;fill:#EDF4FB;}
	.st14{fill:#C6DEF4;}
	.st15{fill:#ABC7E8;}
	.st16{fill-rule:evenodd;clip-rule:evenodd;fill:#9CC0E6;}
	.st17{fill-rule:evenodd;clip-rule:evenodd;fill:#FFFFFF;}
	.st18{fill-rule:evenodd;clip-rule:evenodd;fill:#BBD4EE;}
	.st19{fill:#568AC8;}
	.st20{fill-rule:evenodd;clip-rule:evenodd;fill:#7AA8D9;}
	.st21{fill:#BBD4EE;}
	.st22{fill-rule:evenodd;clip-rule:evenodd;fill:#F4B1B1;}
	.st23{fill-rule:evenodd;clip-rule:evenodd;fill:#CDDFF3;}
	.st24{fill-rule:evenodd;clip-rule:evenodd;fill:#3050A3;}
	
		.st25{clip-path:url(#SVGID_00000111904896849244608590000008660851090299398793_);fill:url(#SVGID_00000181084341517012851680000011030259313421719945_);}
	.st26{fill-rule:evenodd;clip-rule:evenodd;fill:#25AFA6;}
	.st27{fill-rule:evenodd;clip-rule:evenodd;fill:#5ABEBB;}
	.st28{fill-rule:evenodd;clip-rule:evenodd;fill:#355399;}
	.st29{fill-rule:evenodd;clip-rule:evenodd;fill:#223B74;}
	.st30{fill-rule:evenodd;clip-rule:evenodd;fill:#76A1D5;}
	.st31{fill-rule:evenodd;clip-rule:evenodd;fill:#E98385;}
	.st32{fill:#F4B1B1;}
	.st33{fill:#F5EC79;}
	.st34{fill:#DDE293;}
	.st35{fill-rule:evenodd;clip-rule:evenodd;fill:#F5EC79;}
	.st36{fill-rule:evenodd;clip-rule:evenodd;fill:#DDE293;}
	.st37{fill-rule:evenodd;clip-rule:evenodd;fill:#F3AF8F;}
	.st38{fill-rule:evenodd;clip-rule:evenodd;fill:#7FAADA;}
	.st39{fill-rule:evenodd;clip-rule:evenodd;fill:#929CCF;}
	.st40{fill-rule:evenodd;clip-rule:evenodd;fill:#6E7DBD;}
	.st41{fill:#6E7DBD;}
	.st42{fill-rule:evenodd;clip-rule:evenodd;fill:#E16C6C;}
	.st43{fill:#929CCF;}
	.st44{opacity:0.79;fill-rule:evenodd;clip-rule:evenodd;fill:#FFFFFF;}
	.st45{fill:#11497F;}
	.st46{fill:#C4E8FA;}
	.st47{fill:none;stroke:#4F74B9;stroke-width:9.983;stroke-linecap:round;stroke-linejoin:round;stroke-miterlimit:10;}
	.st48{fill:#4F74B9;}
</style>
<g>
	<path class="st5" d="M489.3,490.4c-4.2,0-7.8-3.2-8.2-7.4c-3.7-39.3,9.8-73.9,41.1-105.7c3.2-3.2,8.4-3.3,11.6-0.1
		c3.2,3.2,3.3,8.4,0.1,11.6c-28.1,28.5-39.7,58-36.5,92.7c0.4,4.5-2.9,8.5-7.4,8.9C489.9,490.4,489.6,490.4,489.3,490.4z"/>
	<path class="st5" d="M597.8,490.4c-4.2,0-7.8-3.2-8.2-7.5c-2.7-31.3-23.8-61-66.5-93.4c-3.6-2.7-4.3-7.9-1.6-11.5
		c2.7-3.6,7.9-4.3,11.5-1.6c29.3,22.3,68.8,57.4,72.9,105.1c0.4,4.5-3,8.5-7.5,8.9C598.3,490.4,598.1,490.4,597.8,490.4z"/>
	<g>
		<path class="st0" d="M596.5,321.1H370.1c-17.1,0-31,13.9-31,31l0,0c0,17.1,13.9,31,31,31c81,0,143.8,0,226.4,0
			c17.1,0,31-13.9,31-31l0,0C627.5,335,613.6,321.1,596.5,321.1z"/>
		<path class="st5" d="M596.5,391.2H370.1c-21.6,0-39.2-17.6-39.2-39.2s17.6-39.2,39.2-39.2h226.4c21.6,0,39.2,17.6,39.2,39.2
			S618.1,391.2,596.5,391.2z M370.1,329.3c-12.5,0-22.8,10.2-22.8,22.8s10.2,22.8,22.8,22.8h226.4c12.5,0,22.8-10.2,22.8-22.8
			s-10.2-22.8-22.8-22.8H370.1z"/>
	</g>
	<g>
		<path class="st0" d="M632.7,725.1C616.2,792.3,555.6,842,483.3,842c-84.9,0-153.8-68.7-153.8-153.8c0-85.7,69.8-153.7,153.8-153.7
			c62.3,0,115.9,37,140,90.1"/>
		<path class="st5" d="M483.3,850.2c-89.3,0-162-72.7-162-162c0-89.3,72.7-161.9,162-161.9c63.4,0,121.3,37.3,147.5,94.9
			c1.9,4.1,0,9-4.1,10.9c-4.1,1.9-9,0-10.9-4.1c-23.5-51.8-75.5-85.3-132.6-85.3c-80.3,0-145.6,65.3-145.6,145.5
			c0,80.3,65.3,145.6,145.6,145.6c67.2,0,125.4-45.5,141.4-110.6c1.1-4.4,5.5-7.1,9.9-6c4.4,1.1,7.1,5.5,6,9.9
			C622.8,799.6,558.1,850.2,483.3,850.2z"/>
	</g>
	<path class="st4" d="M483.3,763.7c-27.7,0-50.2-18.8-50.2-41.9c0-4.5,3.7-8.2,8.2-8.2c4.5,0,8.2,3.7,8.2,8.2
		c0,14,15.2,25.5,33.8,25.5c18.6,0,33.8-11.4,33.8-25.5c0-14-15.2-25.5-33.8-25.5c-27.7,0-50.2-18.8-50.2-41.9
		c0-23.1,22.5-41.9,50.2-41.9c27.7,0,50.2,18.8,50.2,41.9c0,4.5-3.7,8.2-8.2,8.2s-8.2-3.7-8.2-8.2c0-14-15.2-25.5-33.8-25.5
		c-18.6,0-33.8,11.4-33.8,25.5c0,14,15.2,25.5,33.8,25.5c27.7,0,50.2,18.8,50.2,41.9C533.5,744.9,511,763.7,483.3,763.7z"/>
	<path class="st4" d="M483.3,786.1c-4.5,0-8.2-3.7-8.2-8.2V598.5c0-4.5,3.7-8.2,8.2-8.2c4.5,0,8.2,3.7,8.2,8.2v179.5
		C491.5,782.5,487.8,786.1,483.3,786.1z"/>
	<path class="st5" d="M742.5,572c-3.1,0-6.1-1.8-7.5-4.8c-34.8-76.7-87.1-141.3-143.5-177.2c-3.8-2.4-4.9-7.5-2.5-11.3
		c2.4-3.8,7.5-4.9,11.3-2.5c59.8,38.1,113,103.5,149.6,184.2c1.9,4.1,0,9-4.1,10.9C744.8,571.7,743.7,572,742.5,572z"/>
	<path class="st5" d="M483.3,926.6c-81.5,0-159.4-2-216.4-26.1c-62.8-26.6-93.4-78.3-93.4-157.8c0-64.1,19.1-136.8,53.8-204.6
		c36-70.3,85.3-127.8,138.8-161.9c3.8-2.4,8.9-1.3,11.3,2.5c2.4,3.8,1.3,8.9-2.5,11.3C271.3,456,190,610.9,190,742.6
		c0,155.6,121.6,167.6,293.3,167.6c91.9,0,178.8-2.8,232.6-36.5c3.8-2.4,8.9-1.2,11.3,2.6c2.4,3.8,1.2,8.9-2.6,11.3
		C667.2,923.6,577.7,926.6,483.3,926.6z"/>
	<path class="st5" d="M784.8,926.2c-5.4,0-10.7-1.3-15.6-3.8c-41.2-21.4-71.6-46.7-95.6-79.5c-39.5-54.2-58.5-125.9-58.2-219.4
		c0.2-16.5,11.8-30.6,27.8-33.7c13.7-2.7,26.6-6.1,39.4-10.5c26.7-8.6,54.5-21,85.1-38.2c10.5-5.9,23.6-5.9,34.2,0
		c41.6,23.4,88.2,41.6,124.7,48.7c16,3.1,27.7,17.3,27.7,33.8c0.4,74.2-11.4,134.1-36,183c-0.2,0.4-0.3,0.8-0.6,1.1
		c-12.1,23.6-27.4,44.9-45.7,63.2c-19.6,19.6-43,36.5-71.4,51.4C795.6,925,790.2,926.2,784.8,926.2z M784.8,553.2
		c-3.1,0-6.3,0.8-9.1,2.3c-31.6,17.7-60.3,30.6-88,39.5c-13.4,4.5-27,8.2-41.4,11c-8.3,1.6-14.4,9.1-14.5,17.7
		c-0.3,89.8,17.7,158.4,55,209.6c22.5,30.7,51.1,54.4,90,74.6c5,2.6,11.1,2.6,16.1,0c26.8-14.1,48.9-30,67.4-48.4
		c17.2-17.2,31.6-37.2,42.9-59.4c0,0,0,0,0,0c0-0.1,0.1-0.1,0.1-0.2c23.5-46.6,34.8-104.2,34.5-176c0-8.7-6.1-16.2-14.4-17.8
		c0,0,0,0,0,0c-38.6-7.5-85.8-25.9-129.5-50.5C791.1,554,787.9,553.2,784.8,553.2z M902.4,803.5
		C902.4,803.5,902.4,803.5,902.4,803.5C902.4,803.5,902.4,803.5,902.4,803.5z M902.4,803.5C902.4,803.5,902.4,803.5,902.4,803.5
		C902.4,803.5,902.4,803.5,902.4,803.5z M902.4,803.5C902.4,803.5,902.4,803.5,902.4,803.5C902.4,803.5,902.4,803.5,902.4,803.5z
		 M902.4,802.7c0,0.2,0,0.5,0,0.7C902.4,803.2,902.4,803,902.4,802.7z M902.4,802.7C902.4,802.7,902.4,802.7,902.4,802.7
		C902.4,802.7,902.4,802.7,902.4,802.7z M904.7,797.9C904.7,797.9,904.7,797.9,904.7,797.9C904.7,797.9,904.7,797.9,904.7,797.9z
		 M904.7,797.9C904.7,797.9,904.7,797.9,904.7,797.9C904.7,797.9,904.7,797.9,904.7,797.9z"/>
	<g>
		<path class="st0" d="M779.8,594.4c3.1-1.7,6.8-1.7,9.9,0c36.4,19.7,70.7,33.4,104.1,41.6c4.8,1.2,8.2,5.6,8.1,10.5
			c-2.9,124-46.5,184.1-111.9,221.9c-3.2,1.9-7.3,1.9-10.5,0.1c-52.4-29.6-108.4-83.6-111.9-222c-0.2-4.9,3.2-9.3,8-10.5
			C701.1,629.7,742.1,614.7,779.8,594.4z"/>
		<path class="st5" d="M784.8,878c-3.2,0-6.3-0.8-9.2-2.4c-48.1-27.2-112.4-80.4-116.1-228.9c-0.4-8.7,5.6-16.6,14.2-18.8
			c22.3-5.4,62.4-19.4,102.2-40.8c0,0,0,0,0,0c5.5-3,12.2-3,17.7,0c36.1,19.5,69.5,32.9,102.2,40.8c8.6,2.1,14.6,10,14.4,18.7
			c-2.7,113.4-38.4,184-116,228.8C791.3,877.2,788.1,878,784.8,878z M783.7,601.6L783.7,601.6c-41.2,22.2-82.9,36.7-106.1,42.3
			c-1,0.2-1.8,1.2-1.7,2.1c0,0.1,0,0.1,0,0.2c3.5,140.2,63.2,189.9,107.7,215.1c0.7,0.4,1.6,0.4,2.3,0
			c72.1-41.7,105.4-108,107.9-215.1c0-1-0.8-2.1-1.9-2.4c-34-8.3-68.7-22.1-106.1-42.3C785.2,601.2,784.4,601.2,783.7,601.6z"/>
	</g>
	<path class="st4" d="M768.7,755.3c-2.1,0-4.2-0.8-5.8-2.4l-21.1-21.1c-3.2-3.2-3.2-8.4,0-11.6c3.2-3.2,8.4-3.2,11.6,0l15.3,15.3
		l47.4-47.4c3.2-3.2,8.4-3.2,11.6,0c3.2,3.2,3.2,8.4,0,11.6l-53.2,53.2C772.9,754.5,770.8,755.3,768.7,755.3z"/>
	<path class="st5" d="M569.6,329.3H397c-2.7,0-5.2-1.3-6.8-3.6c-21.4-31.3-36.6-95.7-39-128.3c-1.6-21.5,1.6-33.9,10.4-40.1
		c12.4-8.8,29.9-1.1,52,8.6c19.9,8.7,44.7,19.6,69.6,19.6c25,0,49.8-10.9,69.7-19.6c22.1-9.7,39.6-17.3,52-8.6
		c8.8,6.2,12,18.6,10.4,40.1c-2.4,32.6-17.6,97-39,128.3C574.9,327.9,572.4,329.3,569.6,329.3z M401.4,312.9h163.7
		c17.9-29.2,31.7-86.5,33.8-116.7c0,0,0,0,0,0c1.5-20.3-2.3-24.7-3.5-25.5c-4.8-3.4-21.4,3.8-35.9,10.2c-21.3,9.3-47.8,20.9-76.1,21
		c-28.5-0.1-55-11.7-76.3-21c-14.6-6.4-31.1-13.6-35.9-10.2c-1.2,0.9-5,5.2-3.5,25.5C369.8,226.3,383.5,283.7,401.4,312.9z"/>
</g>
</svg>
