<?xml version="1.0" encoding="utf-8"?>
<!-- Generator: Adobe Illustrator 26.0.3, SVG Export Plug-In . SVG Version: 6.00 Build 0)  -->
<svg version="1.1" id="Layer_1" xmlns="http://www.w3.org/2000/svg" xmlns:xlink="http://www.w3.org/1999/xlink" x="0px" y="0px"
	 viewBox="0 0 1080 1080" style="enable-background:new 0 0 1080 1080;" xml:space="preserve">
<style type="text/css">
	.st0{fill:#9BC9EB;}
	.st1{fill:#4D598D;}
	.st2{fill:#9BC9EB;stroke:#4D598D;stroke-width:16;stroke-linecap:round;stroke-linejoin:round;stroke-miterlimit:10;}
	.st3{fill:#4D598D;stroke:#4D598D;stroke-width:0.3;stroke-miterlimit:10;}
	.st4{fill:#FFFFFF;}
	.st5{fill:#263A6E;}
	.st6{fill:#0E71B9;}
	.st7{fill:#23376F;}
	.st8{fill:#FFFFFF;stroke:#23376F;stroke-width:24;stroke-linecap:round;stroke-linejoin:round;stroke-miterlimit:10;}
	.st9{fill:#20ADE4;}
	.st10{fill:#EDF4FB;}
	.st11{fill:#234698;}
	.st12{fill-rule:evenodd;clip-rule:evenodd;fill:#0E71B9;}
	.st13{fill-rule:evenodd;clip-rule:evenodd;fill:#EDF4FB;}
	.st14{fill:#C6DEF4;}
	.st15{fill:#ABC7E8;}
	.st16{fill-rule:evenodd;clip-rule:evenodd;fill:#9CC0E6;}
	.st17{fill-rule:evenodd;clip-rule:evenodd;fill:#FFFFFF;}
	.st18{fill-rule:evenodd;clip-rule:evenodd;fill:#BBD4EE;}
	.st19{fill:#568AC8;}
	.st20{fill-rule:evenodd;clip-rule:evenodd;fill:#7AA8D9;}
	.st21{fill:#BBD4EE;}
	.st22{fill-rule:evenodd;clip-rule:evenodd;fill:#F4B1B1;}
	.st23{fill-rule:evenodd;clip-rule:evenodd;fill:#CDDFF3;}
	.st24{fill-rule:evenodd;clip-rule:evenodd;fill:#3050A3;}
	
		.st25{clip-path:url(#SVGID_00000178921947151341638980000011649591362241131928_);fill:url(#SVGID_00000143609807569314003260000001241410851243207861_);}
	.st26{fill-rule:evenodd;clip-rule:evenodd;fill:#25AFA6;}
	.st27{fill-rule:evenodd;clip-rule:evenodd;fill:#5ABEBB;}
	.st28{fill-rule:evenodd;clip-rule:evenodd;fill:#355399;}
	.st29{fill-rule:evenodd;clip-rule:evenodd;fill:#223B74;}
	.st30{fill-rule:evenodd;clip-rule:evenodd;fill:#76A1D5;}
	.st31{fill-rule:evenodd;clip-rule:evenodd;fill:#E98385;}
	.st32{fill:#F4B1B1;}
	.st33{fill:#F5EC79;}
	.st34{fill:#DDE293;}
	.st35{fill-rule:evenodd;clip-rule:evenodd;fill:#F5EC79;}
	.st36{fill-rule:evenodd;clip-rule:evenodd;fill:#DDE293;}
	.st37{fill-rule:evenodd;clip-rule:evenodd;fill:#F3AF8F;}
	.st38{fill-rule:evenodd;clip-rule:evenodd;fill:#7FAADA;}
	.st39{fill-rule:evenodd;clip-rule:evenodd;fill:#929CCF;}
	.st40{fill-rule:evenodd;clip-rule:evenodd;fill:#6E7DBD;}
	.st41{fill:#6E7DBD;}
	.st42{fill-rule:evenodd;clip-rule:evenodd;fill:#E16C6C;}
	.st43{fill:#929CCF;}
	.st44{opacity:0.79;fill-rule:evenodd;clip-rule:evenodd;fill:#FFFFFF;}
	.st45{fill:#11497F;}
	.st46{fill:#C4E8FA;}
	.st47{fill:none;stroke:#4F74B9;stroke-width:9.983;stroke-linecap:round;stroke-linejoin:round;stroke-miterlimit:10;}
	.st48{fill:#4F74B9;}
</style>
<g>
	<path class="st0" d="M412.7,660.8c0,0,55.6,5.8,78.9,16.6c23.3,10.8,42,26.1,62.5,27.1V485.6H416.4L412.7,660.8z"/>
	<path class="st5" d="M511.7,596.9c4,0,7.1,3.1,7.1,7.1v42.4c0,4-3.1,7.1-7.1,7.1s-7.1-3.1-7.1-7.1v-42.4
		C504.6,600,507.8,596.9,511.7,596.9z"/>
	<path class="st0" d="M547.1,490.8H426.8c-4,0-7.1,3.1-7.1,7.1v155.9c0,4-3.1,7.1-7.1,7.1s-7.1-3.1-7.1-7.1V497.9
		c0-11.7,9.5-21.2,21.2-21.2H738c11.7,0,21.2,9.5,21.2,21.2v141.4c0,11.7-9.5,21.2-21.2,21.2H561.2v36.9c0,3.8-3.1,7.1-7.1,7.1
		c-4,0-7.1-3.3-7.1-7.1V490.8z"/>
	<path class="st0" d="M902.5,738.2c-6.9-5.8-15.7-6.2-27.6-3.1c1.6-4.1,2.4-8.2,2.3-12.2c-0.3-8.4-4.4-15.8-12.3-22.3
		c-8.8-7.4-20.7-5.5-34.9-0.7V433.6c23.9-3.4,42.4-24,42.4-48.9v-14.1c0,0,0-0.1,0-0.3c0-0.9-0.1-1.7-0.6-2.4v-0.1
		c-0.4-0.8-0.9-1.6-1.6-2.1l-1-1l-81.7-81.8v-96.2c0-11.7-9.5-21.2-21.2-21.2H398.6c-11.7,0-21.2,9.5-21.2,21.2v96.2l-81.7,81.8
		l-1,1c-0.7,0.6-1.1,1.3-1.6,2.1v0.1c-0.4,0.7-0.6,1.6-0.6,2.4c0,0.1,0,0.3,0,0.3v14.1c0,24.9,18.5,45.5,42.4,48.9v216.7
		c0,4,3.1,7.1,7.1,7.1s7.1-3.1,7.1-7.1V434.2h21.2c18.1,0,33.8-9.8,42.4-24.2c8.6,14.4,24.3,24.2,42.4,24.2h28.3
		c18.1,0,33.8-9.8,42.4-24.2c8.6,14.4,24.3,24.2,42.4,24.2h28.3c18.1,0,33.8-9.8,42.4-24.2c8.6,14.4,24.3,24.2,42.4,24.2h28.3
		c18.1,0,33.8-9.8,42.4-24.2c8.6,14.4,24.3,24.2,42.4,24.2h21.2v299.7c0,4,3.1,7.1,7.1,7.1s7.1-3.1,7.1-7.1V715
		c13.2-4.8,22.1-6.7,25.9-3.5c4.7,3.8,7.1,7.8,7.2,12c0.1,5.4-3.4,12.2-10.2,18.9c-5.4,2.1-11.2,4.5-17.4,7.1
		c-31.1,12.7-76,31.3-139.5,45.8c2.8-4.7,4.7-9.9,5.5-15.7c1.6-11.9-0.7-21.6-6.8-29.1c-10.9-13.6-30.4-15.3-39.9-16.1
		c-95.5-8.5-120.7-21.8-142.9-33.7c-29.1-15.4-54.2-28.9-200.4-29.1c-3.4-7.1-10.6-11.9-19-11.9H186.4c-11.7,0-21.2,9.5-21.2,21.2
		v192.2c0,11.6,9.5,21.2,21.2,21.2h106.2c7.8,0,14.6-4.2,18.1-10.5c23.2,7.1,108.2,30.7,216.7,30.7c109.9,0,244-24.3,362.1-115.1
		c2.4-1.7,24.3-16.8,25.3-36.5v-1.1C914.8,755.4,912.5,746.5,902.5,738.2z M391.5,186.7c0-4,3.1-7.1,7.1-7.1h367.7
		c4,0,7.1,3.1,7.1,7.1v91.9H391.5V186.7z M881.2,787.9C649.8,966,354.6,882.6,313.8,869.8V685.7c140.7,0.4,164.4,13,191.7,27.6
		c23.3,12.4,49.8,26.5,148.1,35.2c7.5,0.6,23.1,2,30.1,10.9c3.5,4.4,4.8,10.5,3.8,18.4c-1,6.9-4.4,16.8-23.1,24
		c-0.1,0-0.3,0.1-0.4,0.1c-24.9,7.6-74.1,14-167.2,1.7c-4-0.6-7.4,2.3-7.9,6.1c-0.4,3.8,2.3,7.4,6.1,7.9c35.9,4.8,67.8,7.1,95.3,7.1
		c31.4,0,57.3-3,77.5-9.2c0.3,0,0.6,0,0.9-0.1h0.1c80.9-15.4,135.6-37.9,172-52.8c6.7-2.8,12.9-5.4,18.5-7.6
		c0.4-0.1,0.8-0.3,1.3-0.6c11.5-4.2,20.7-7.1,26.7-7.1c2.7,0,4.8,0.6,6.2,1.7c5,4.2,7.4,8.5,7.1,13.2
		C900.1,772.8,886.7,784.1,881.2,787.9z"/>
	<g>
		<path class="st5" d="M877.2,722.9c0.1,4-0.7,8.1-2.3,12.2c-2.5,6.2-6.9,12.4-13.3,18.5c-0.3,0.3-0.6,0.6-1,0.8
			c-0.4,0.3-0.8,0.4-1.3,0.6c-0.9,0.4-1.7,0.6-2.5,0.6c-2,0-3.8-0.7-5.1-2.1c-2.8-2.8-2.7-7.4,0.1-10l1-1
			c6.8-6.8,10.3-13.6,10.2-18.9c-0.1-4.2-2.5-8.2-7.2-12c-3.8-3.1-12.7-1.3-25.9,3.5c-1.4,0.6-3,1.1-4.5,1.7
			c-3.7,1.3-7.8-0.4-9.2-4.1c-0.3-0.9-0.4-1.7-0.4-2.5c0-2.8,1.7-5.5,4.5-6.7c3.4-1.3,6.5-2.4,9.6-3.5c14.3-4.8,26.2-6.6,34.9,0.7
			C872.8,707,876.9,714.5,877.2,722.9z"/>
		<path class="st5" d="M902.5,738.2c-6.9-5.8-15.7-6.2-27.6-3.1c-6.4,1.4-13.7,4.1-22.1,7.4c-5.4,2.1-11.2,4.5-17.4,7.1
			c-31.1,12.7-76,31.3-139.5,45.8c2.8-4.7,4.7-9.9,5.5-15.7c1.6-11.9-0.7-21.6-6.8-29.1c-10.9-13.6-30.4-15.3-39.9-16.1
			c-95.5-8.5-120.7-21.8-142.9-33.7c-29.1-15.4-54.2-28.9-200.4-29.1h-4.8c-4,0-7.1,3.1-7.1,7.1v196.3c0,3.1,1.8,5.8,4.7,6.8
			c0.3,0.1,2.4,0.9,6.4,2.1c23.2,7.1,108.2,30.7,216.7,30.7c109.9,0,244-24.3,362.1-115.1c2.4-1.7,24.3-16.8,25.3-36.5v-1.1
			C914.8,755.4,912.5,746.5,902.5,738.2z M881.2,787.9C649.8,966,354.6,882.6,313.8,869.8V685.7c140.7,0.4,164.4,13,191.7,27.6
			c23.3,12.4,49.8,26.5,148.1,35.2c7.5,0.6,23.1,2,30.1,10.9c3.5,4.4,4.8,10.5,3.8,18.4c-1,6.9-4.4,16.8-23.1,24
			c-0.1,0-0.3,0.1-0.4,0.1c-3.4,1.3-5.2,5.1-4.2,8.5c1,3.7,4.5,5.8,8.1,5.1c0.3,0,0.6,0,0.9-0.1h0.1c80.9-15.4,135.6-37.9,172-52.8
			c6.7-2.8,12.9-5.4,18.5-7.6c0.4-0.1,0.8-0.3,1.3-0.6c11.5-4.2,20.7-7.1,26.7-7.1c2.7,0,4.8,0.6,6.2,1.7c5,4.2,7.4,8.5,7.1,13.2
			C900.1,772.8,886.7,784.1,881.2,787.9z"/>
		<path class="st5" d="M668.8,815.4h-0.1c-0.3,0.1-0.6,0.1-0.9,0.1c-20.2,6.2-46.1,9.2-77.5,9.2c-27.6,0-59.4-2.3-95.3-7.1
			c-3.8-0.6-6.5-4.1-6.1-7.9c0.6-3.8,4-6.6,7.9-6.1c93.1,12.3,142.3,5.9,167.2-1.7c0.1,0,0.3-0.1,0.4-0.1c3.8-1.1,7.8,1,8.9,4.7
			C674.5,810.3,672.4,814.1,668.8,815.4z"/>
		<path class="st5" d="M311.6,671.5c-3.4-7.1-10.6-11.9-19-11.9H186.4c-11.7,0-21.2,9.5-21.2,21.2v192.2c0,11.6,9.5,21.2,21.2,21.2
			h106.2c7.8,0,14.6-4.2,18.1-10.5c2-3.1,3.1-6.8,3.1-10.8V680.9C313.8,677.5,313.1,674.4,311.6,671.5z M292.6,880.2H186.4
			c-4,0-7.1-3.3-7.1-7.1V680.9c0-4,3.1-7.1,7.1-7.1h106.2c4,0,7.1,3.1,7.1,7.1v192.2C299.7,876.9,296.6,880.2,292.6,880.2z"/>
		<circle class="st5" cx="253.7" cy="834.1" r="14.1"/>
		<path class="st5" d="M829.9,427.1v306.8c0,4-3.1,7.1-7.1,7.1s-7.1-3.1-7.1-7.1V427.1c0-4,3.1-7.1,7.1-7.1S829.9,423.2,829.9,427.1
			z"/>
		<path class="st5" d="M349.1,427.1v223.2c0,4-3.1,7.1-7.1,7.1s-7.1-3.1-7.1-7.1V427.1c0-4,3.1-7.1,7.1-7.1S349.1,423.2,349.1,427.1
			z"/>
		<path class="st5" d="M518.8,603.9v42.4c0,4-3.1,7.1-7.1,7.1s-7.1-3.1-7.1-7.1v-42.4c0-4,3.1-7.1,7.1-7.1S518.8,600,518.8,603.9z"
			/>
		<path class="st5" d="M758.5,367.6l-0.6-1.1c-1.3-1.8-3.4-3-5.8-3H639c-4,0-7.1,3.1-7.1,7.1v14.1c0,9.2,2.5,18,7.1,25.3
			c8.6,14.4,24.3,24.2,42.4,24.2h28.3c18.1,0,33.8-9.8,42.4-24.2c4.5-7.4,7.1-16.1,7.1-25.3v-14.1
			C759.2,369.6,759.1,368.6,758.5,367.6z M709.7,420.1h-28.3c-19.5,0-35.4-15.8-35.4-35.4v-7.1h99v7.1
			C745.1,404.2,729.2,420.1,709.7,420.1z"/>
		<path class="st5" d="M525.9,363.5H412.7c-2,0-3.7,0.9-5.1,2l-0.8,1.3c-0.3,0.7-0.6,1.3-0.9,2c-0.1,0.6-0.3,1.1-0.3,1.8v14.1
			c0,9.2,2.5,18,7.1,25.3c8.6,14.4,24.3,24.2,42.4,24.2h28.3c18.1,0,33.8-9.8,42.4-24.2c4.5-7.4,7.1-16.1,7.1-25.3v-14.1
			C532.9,366.6,529.8,363.5,525.9,363.5z M483.4,420.1h-28.3c-19.5,0-35.4-15.8-35.4-35.4v-7.1h99v7.1
			C518.8,404.2,502.9,420.1,483.4,420.1z"/>
		<path class="st5" d="M871.8,367.9v-0.1c-0.4-0.8-0.9-1.6-1.6-2.1l-1-1c-1.1-0.7-2.5-1.1-4-1.1H752.2c-4,0-7.1,3.1-7.1,7.1v14.1
			c0,9.2,2.5,18,7.1,25.3c8.6,14.4,24.3,24.2,42.4,24.2h28.3c2.4,0,4.8-0.1,7.1-0.6c23.9-3.4,42.4-24,42.4-48.9v-14.1
			c0,0,0-0.1,0-0.3C872.4,369.4,872.2,368.6,871.8,367.9z M858.2,384.7c0,19.5-15.8,35.4-35.4,35.4h-28.3
			c-19.5,0-35.4-15.8-35.4-35.4v-7.1h99V384.7z"/>
		<path class="st5" d="M645.9,369.4l-0.1-0.6c-0.7-3.1-3.4-5.4-6.8-5.4H525.9c-3.4,0-6.1,2.3-6.8,5.4l-0.1,0.6
			c-0.1,0.4-0.1,0.9-0.1,1.3v14c0,9.2,2.5,18,7.1,25.3c8.6,14.4,24.3,24.2,42.4,24.2h28.3c18.1,0,33.8-9.8,42.4-24.2
			c4.5-7.4,7.1-16.1,7.1-25.3v-14C646.1,370.3,646.1,369.9,645.9,369.4z M596.6,420.1h-28.3c-19.5,0-35.4-15.8-35.4-35.4v-7.1h99
			v7.1C631.9,404.2,616.1,420.1,596.6,420.1z"/>
		<path class="st5" d="M412.7,363.5H299.6c-1.4,0-2.8,0.4-4,1.1l-1,1c-0.7,0.6-1.1,1.3-1.6,2.1v0.1c-0.4,0.7-0.6,1.6-0.6,2.4
			c0,0.1,0,0.3,0,0.3v14.1c0,24.9,18.5,45.5,42.4,48.9c2.3,0.4,4.7,0.6,7.1,0.6h28.3c18.1,0,33.8-9.8,42.4-24.2
			c4.5-7.4,7.1-16.1,7.1-25.3v-14.1C419.8,366.6,416.7,363.5,412.7,363.5z M370.3,420.1H342c-19.5,0-35.4-15.8-35.4-35.4v-7.1h99
			v7.1C405.6,404.2,389.8,420.1,370.3,420.1z"/>
		<path class="st5" d="M545.4,281.2c-1.3-1.7-3.3-2.5-5.4-2.5h-73.1c-2.4,0-4.7,1.3-6.1,3.3l-6.9,10.9l-45,70.7l-1.3,2l-0.8,1.3
			c-0.3,0.7-0.6,1.3-0.9,2c-0.1,0.6-0.3,1.1-0.3,1.8v0.1c0,1.1,0.3,2.3,0.9,3.3c1.3,2.3,3.7,3.7,6.2,3.7h113.2
			c3.4,0,6.4-2.5,6.9-5.9l0.1-0.9v-0.3l1.3-7.1l11.7-70.7l1-5.9C547.4,284.8,546.8,282.7,545.4,281.2z M519.9,363.5h-94.3l45.1-70.7
			h61L519.9,363.5z"/>
		<path class="st5" d="M758.5,367.6l-0.6-1.1l-1.3-3h-0.1l-20.9-44.6l-12.3-26.2l-4.7-10c-1.3-2.5-3.7-4.1-6.5-4.1h-87.3
			c-2.1,0-4.1,0.9-5.4,2.5c-1.4,1.6-2,3.7-1.6,5.7l1,5.9l11.7,70.7l1.3,7.1v0.3l0.1,0.9c0.6,3.4,3.5,5.9,6.9,5.9h113.2
			c2.4,0,4.7-1.3,5.9-3.3c0.7-1.3,1.1-2.4,1.1-3.8C759.2,369.6,759.1,368.6,758.5,367.6z M644.9,363.5l-11.7-70.7h74.5l33.2,70.7
			H644.9z"/>
		<path class="st5" d="M473,282.3c-1.1-2.3-3.5-3.7-6.1-3.7h-82.5c-1.8,0-3.7,0.7-5,2.1l-2.1,2.1l-81.7,81.8l-1,1
			c-0.7,0.6-1.1,1.3-1.6,2.1v0.1c-0.4,0.7-0.6,1.6-0.6,2.4c0,0.1,0,0.3,0,0.3c0,1,0.1,1.8,0.6,2.7c1.1,2.7,3.7,4.4,6.5,4.4h113.2
			c2.4,0,4.7-1.3,5.9-3.3l1.1-1.8l5.8-9.1l45.1-70.7l2.1-3.3C474.2,287.2,474.2,284.6,473,282.3z M408.9,363.5h-92.2l70.7-70.7h66.5
			L408.9,363.5z"/>
		<path class="st5" d="M645.9,369.4l-0.1-0.6l-0.9-5.4l-11.7-70.7l-1.4-8.2c-0.6-3.4-3.5-5.9-6.9-5.9H540c-3.4,0-6.4,2.5-6.9,5.9
			l-1.4,8.2l-11.7,70.7l-0.9,5.4l-0.1,0.6c-0.1,0.4-0.1,0.9-0.1,1.3c0,1.6,0.6,3.1,1.7,4.4c1.3,1.7,3.3,2.5,5.4,2.5H639
			c2.1,0,4.1-0.9,5.4-2.5c1.1-1.3,1.7-2.8,1.7-4.4C646.1,370.3,646.1,369.9,645.9,369.4z M534.2,363.5l11.7-70.7h73l11.7,70.7H534.2
			z"/>
		<path class="st5" d="M735.6,318.9l20.9,44.6h0.1L735.6,318.9z M735.6,318.9l20.9,44.6h0.1L735.6,318.9z M871.8,367.9v-0.1
			c-0.4-0.8-0.9-1.6-1.6-2.1l-1-1l-81.7-81.8l-2.1-2.1c-1.3-1.4-3.1-2.1-5-2.1h-68.3c-2.4,0-4.7,1.3-5.9,3.3
			c-1.3,2.1-1.4,4.7-0.4,6.8l2,4.1l33.2,70.7h0.1l4,8.5l0.7,1.6c1.1,2.5,3.7,4.1,6.4,4.1h113.2c2.8,0,5.4-1.7,6.5-4.4
			c0.4-0.8,0.6-1.7,0.6-2.7c0,0,0-0.1,0-0.3C872.4,369.4,872.2,368.6,871.8,367.9z M756.7,363.5l-21.1-44.6l-12.3-26.2h54.2
			l70.7,70.7H756.7z M735.6,318.9l20.9,44.6h0.1L735.6,318.9z"/>
		<path class="st5" d="M624.9,278.6h-158c2.5,0,5,1.4,6.1,3.7c1.3,2.3,1.3,5-0.1,7.2l-2.1,3.3h148.2l-1-5.9c-0.4-2,0.1-4.1,1.6-5.7
			C620.8,279.5,622.7,278.6,624.9,278.6z M624.9,278.6h-158c2.5,0,5,1.4,6.1,3.7c1.3,2.3,1.3,5-0.1,7.2l-2.1,3.3h148.2l-1-5.9
			c-0.4-2,0.1-4.1,1.6-5.7C620.8,279.5,622.7,278.6,624.9,278.6z M766.3,165.5H398.6c-11.7,0-21.2,9.5-21.2,21.2v99
			c0,4,3.1,7.1,7.1,7.1h396c4,0,7.1-3.1,7.1-7.1v-99C787.5,174.9,778,165.5,766.3,165.5z M391.5,278.6v-91.9c0-4,3.1-7.1,7.1-7.1
			h367.7c4,0,7.1,3.1,7.1,7.1v91.9H391.5z M624.9,278.6h-158c2.5,0,5,1.4,6.1,3.7c1.3,2.3,1.3,5-0.1,7.2l-2.1,3.3h148.2l-1-5.9
			c-0.4-2,0.1-4.1,1.6-5.7C620.8,279.5,622.7,278.6,624.9,278.6z"/>
		<path class="st5" d="M561.2,483.7v213.7c0,3.8-3.1,7.1-7.1,7.1c-4,0-7.1-3.3-7.1-7.1V490.8H426.8c-4,0-7.1,3.1-7.1,7.1v155.9
			c0,4-3.1,7.1-7.1,7.1s-7.1-3.1-7.1-7.1V497.9c0-11.7,9.5-21.2,21.2-21.2h127.3C558.1,476.6,561.2,479.7,561.2,483.7z"/>
		<path class="st5" d="M738,476.6H554.1c-4,0-7.1,3.1-7.1,7.1v169.7c0,4,3.1,7.1,7.1,7.1H738c11.7,0,21.2-9.5,21.2-21.2V497.9
			C759.2,486.1,749.8,476.6,738,476.6z M745.1,639.3c0,4-3.1,7.1-7.1,7.1H561.2V490.8H738c4,0,7.1,3.1,7.1,7.1V639.3z"/>
	</g>
</g>
</svg>
