<?xml version="1.0" encoding="utf-8"?>
<!-- Generator: Adobe Illustrator 26.0.3, SVG Export Plug-In . SVG Version: 6.00 Build 0)  -->
<svg version="1.1" id="Layer_1" xmlns="http://www.w3.org/2000/svg" xmlns:xlink="http://www.w3.org/1999/xlink" x="0px" y="0px"
	 viewBox="0 0 1080 1080" style="enable-background:new 0 0 1080 1080;" xml:space="preserve">
<style type="text/css">
	.st0{fill:#9BC9EB;}
	.st1{fill:#263A6E;}
	.st2{fill:#FFFFFF;}
	.st3{fill:#4F74B9;}
	.st4{fill:#39B54A;}
</style>
<path class="st1" d="M557.3,527.3c0,95,0,189.9,0,284.9c0,27.6-16.2,44.2-43.6,44.2c-114.7,0-229.5,0-344.2,0
	c-27.3,0-43.3-16-43.3-43.3c0-190.3,0-380.6,0-570.8c0-29.8,15.9-45.5,45.6-45.5c113,0,226,0,339,0c31,0,46.5,15.6,46.5,46.7
	C557.3,338,557.3,432.6,557.3,527.3z"/>
<path class="st1" d="M823.5,521.1c9.1-1.3,17.4,3.5,27.6,3.8c-4-10.2-7.6-19.5-11.4-28.7c-22.4-54.8-45-109.6-67.4-164.4
	c-14.7-35.8-41.6-54.1-80.5-54.3c-29.5-0.1-58.9,0-88.4,0c-13,0-19.4-4.6-19.2-13.6c0.2-8.7,6.4-13.1,18.7-13.2
	c30.9,0,61.7-0.2,92.6,0c45.6,0.3,83.8,26.8,100.9,69c23.7,58.4,47.7,116.7,71.6,175.1c0.4,0.9,1,1.8,1.6,2.6c0.7-0.1,1.7,0,1.8-0.3
	c18.8-33,45.1-33.9,74.3-29.5c26.9,4.1,44.8,30.8,42.1,58.4c-2.6,25.9-25.4,46.7-52.1,47.5c-8.6,0.2-20.5-2.9-25,1.5
	c-4.5,4.3,4.8,14.2,6.5,22.3c1.9,9.6,3.6,19.1,3.6,28.8c0,40.9-0.1,81.8,0,122.7c0,11.2-2.3,21.4-10.6,29.4
	c-3.2,3.1-3.1,6.7-3.1,10.5c0,18,0.2,36.1-0.1,54.1c-0.3,23.3-16.8,40-40,40.3c-27,0.3-54.1,0.3-81.1,0
	c-22.7-0.2-39.2-16.6-39.8-39.5c-0.4-14.6-0.6-29.1,0-43.7c0.4-8.6-2-11.1-10.8-11c-43.3,0.4-86.7,0.2-130,0.2
	c-3.5,0-7,0.3-10.3-0.5c-6.8-1.7-10.9-6.3-10.5-13.5c0.4-7.1,4.6-11.5,11.6-12.6c3.4-0.5,6.9-0.2,10.4-0.2c90.1,0,180.3,0,270.4,0
	c15.5,0,17.1-1.7,17.1-17.4c0-38.8,0.1-77.7,0-116.5c-0.1-47.6-33.7-81.4-81.2-81.6c-68.3-0.2-136.6-0.1-204.9-0.1
	c-3.1,0-6.2-0.1-9.4,0c-7.8,0.1-12.9-3.8-13.9-11.2c-1.1-7.2,2-12.9,10-14.3c2.6,1.5,5.4,0.9,8.1,0.9c70.9,0,141.8,0,212.7,0
	C818.1,522.1,821,522.7,823.5,521.1z"/>
<path class="st1" d="M762.4,708.2c-13.5,0-27,0.1-40.5,0c-13.5-0.2-19.2-7.6-15-20.1c8.7-26.1,19.9-51,38-72.2
	c19.6-22.8,43.6-33.3,73.9-26.8c47.8,10.1,64.1,58.2,32.1,95.4c-13.5,15.6-30.5,23.5-51.1,23.8C787.4,708.3,774.9,708.2,762.4,708.2
	z"/>
<path class="st1" d="M661.2,642.3c19.1,7,25.5,23,15.8,40.3c-6.4,11.4-13.1,22.8-20.2,33.8c-7.8,12.2-19.3,18.5-33.9,18.7
	c-8.3,0.1-16.6,0.3-24.9-0.1c-8.5-0.4-13.8-5.1-13.5-13.8c0.3-8.1,5.5-12.5,13.5-12.8c6.2-0.3,12.5-0.6,18.7,0
	c9.9,1,16.4-2.8,21-11.6c4.8-9.1,10.3-17.8,16.7-28.7c-16.5,0-31.1,0-45.7,0c-3.8,0-7.6,0.2-11.4-0.2c-6.5-0.7-11.2-4.1-12.5-10.6
	c-1.4-6.9,1.2-12.2,8-14.9C615.6,642.8,638.4,643.2,661.2,642.3z"/>
<path class="st1" d="M823.5,521.1c-2.7,3.1-6.4,2-9.7,2c-69.8,0.1-139.6,0.1-209.4,0c-3.3,0-7,1.1-9.8-1.9c0.3-0.1,0.7-0.3,1-0.3
	C671.6,520.3,747.5,519.7,823.5,521.1z"/>
<path class="st1" d="M661.2,642.3c-22.8,2.6-45.6,2.2-68.5,0.3C615.5,640.3,638.4,640.9,661.2,642.3z"/>
<path class="st4" d="M530,527.4c0,93.9,0,187.8,0,281.7c0,16.8-3.2,19.9-20.1,19.9c-111.9,0-223.9,0-335.8,0
	c-17.8,0-20.6-2.8-20.6-20.3c0-187.5,0-375,0-562.4c0-19.5,2.8-22.3,22-22.3c110.9,0,221.8,0,332.7,0c18.5,0,21.7,3.3,21.7,21.7
	C530,339.6,530,433.5,530,527.4z"/>
<path class="st0" d="M826.4,856.5c-12.8,0-25.6,0.2-38.4-0.1c-10.6-0.2-15.4-4.7-15.6-15.2c-0.3-15.2,0.1-30.5-0.2-45.7
	c-0.1-5.1,2-6.4,6.7-6.4c31.5,0.1,63,0.1,94.5,0c4.7,0,6.8,1.2,6.8,6.3c-0.3,15.6,0.1,31.2-0.2,46.7c-0.2,9.7-5.1,14.1-15.2,14.3
	C852.1,856.7,839.3,856.5,826.4,856.5z"/>
<path class="st0" d="M918.5,546.5c-25.5,0.3-25.5,0.3-24.6-25.6c0.5-16.9,10.5-27.1,27.3-27.7c5.5-0.2,11.1-0.3,16.6,0.3
	c13.4,1.4,23.2,12.7,23.3,26.2c0.1,13.5-9.6,25.2-22.8,26.7C931.7,547.1,925.1,546.5,918.5,546.5z"/>
<path class="st0" d="M772.9,681.4c-9.7,0-19.4-0.1-29,0.1c-4.3,0.1-5.6-1.2-3.8-5.5c8.4-19.5,18.4-37.9,34.9-52
	c14.2-12.2,30.4-11.9,46.9-6.4c15.1,5.1,20.9,16.2,17.5,31.8c-4,18.2-19.7,31.5-38.4,32C791.5,681.7,782.2,681.4,772.9,681.4z"/>
<path class="st2" d="M340.8,331.8c-43,0-86,0-129,0c-12.2,0-18.4-4.6-18.4-13.2c0.1-8.5,6.9-13.9,18.3-13.9c87-0.1,174-0.1,261.1,0
	c12.7,0,20.4,9.2,16.3,18.9c-3.1,7.3-9.2,8.4-16.2,8.4C428.9,331.7,384.8,331.8,340.8,331.8z"/>
<path class="st2" d="M341.7,426.6c-42.3,0-84.6,0-126.9,0c-3.5,0-7.1,0.3-10.3-0.6c-7.1-1.9-11.6-6.9-11-14.4
	c0.6-7.4,5.2-11.8,13.1-12.1c2.4-0.1,4.9-0.1,7.3-0.1c85.6,0,171.2,0,256.9,0c1.4,0,2.8,0,4.2,0c9.4,0.4,15.8,5.7,15.2,13.4
	c-0.8,9-6.4,13.6-15.3,13.7c-10.7,0.2-21.5,0.1-32.2,0.1C409,426.6,375.4,426.6,341.7,426.6z"/>
<path class="st2" d="M340.8,520.6c-43,0-85.9,0-128.9,0c-11.6,0-18.7-5.3-18.5-13.4c0.3-8.5,7.1-13.8,18.4-13.8
	c87,0,173.9,0,260.9-0.1c8.3,0,14.3,2.6,16.8,10.7c2,6.6-1.5,11.4-6.7,15c-3.7,2.5-8,1.7-12.1,1.7
	C427.4,520.6,384.1,520.6,340.8,520.6z"/>
<path class="st2" d="M321.8,751.3c-4.5,0-7.9-2.2-10.9-5.3c-26.9-27-54-53.8-80.8-80.9c-7.2-7.3-7.3-13.6-0.2-20.8
	c22-22.5,22.8-27.9,47.4-1.5c10.4,11.1,21.4,21.7,32.4,32.3c9,8.7,15.1,8.7,24-0.2c26.3-26.1,52.5-52.4,78.7-78.6
	c11-11,16-10.9,26.8-0.2c21.7,21.4,21.7,21.4-0.1,43.2c-34.8,34.8-69.6,69.6-104.4,104.4C331.1,747.3,327.6,751.2,321.8,751.3z"/>
</svg>
