<?xml version="1.0" encoding="utf-8"?>
<!-- Generator: Adobe Illustrator 26.0.3, SVG Export Plug-In . SVG Version: 6.00 Build 0)  -->
<svg version="1.1" id="Layer_1" xmlns="http://www.w3.org/2000/svg" xmlns:xlink="http://www.w3.org/1999/xlink" x="0px" y="0px"
	 viewBox="0 0 1080 1080" style="enable-background:new 0 0 1080 1080;" xml:space="preserve">
<style type="text/css">
	.st0{fill:#9BC9EB;}
	.st1{fill:#4D598D;}
	.st2{fill:#9BC9EB;stroke:#4D598D;stroke-width:16;stroke-linecap:round;stroke-linejoin:round;stroke-miterlimit:10;}
	.st3{fill:#4D598D;stroke:#4D598D;stroke-width:0.3;stroke-miterlimit:10;}
	.st4{fill:#FFFFFF;}
	.st5{fill:#263A6E;}
	.st6{fill:#0E71B9;}
	.st7{fill:#23376F;}
	.st8{fill:#FFFFFF;stroke:#23376F;stroke-width:24;stroke-linecap:round;stroke-linejoin:round;stroke-miterlimit:10;}
	.st9{fill:#20ADE4;}
	.st10{fill:#EDF4FB;}
	.st11{fill:#234698;}
	.st12{fill-rule:evenodd;clip-rule:evenodd;fill:#0E71B9;}
	.st13{fill-rule:evenodd;clip-rule:evenodd;fill:#EDF4FB;}
	.st14{fill:#C6DEF4;}
	.st15{fill:#ABC7E8;}
	.st16{fill-rule:evenodd;clip-rule:evenodd;fill:#9CC0E6;}
	.st17{fill-rule:evenodd;clip-rule:evenodd;fill:#FFFFFF;}
	.st18{fill-rule:evenodd;clip-rule:evenodd;fill:#BBD4EE;}
	.st19{fill:#568AC8;}
	.st20{fill-rule:evenodd;clip-rule:evenodd;fill:#7AA8D9;}
	.st21{fill:#BBD4EE;}
	.st22{fill-rule:evenodd;clip-rule:evenodd;fill:#F4B1B1;}
	.st23{fill-rule:evenodd;clip-rule:evenodd;fill:#CDDFF3;}
	.st24{fill-rule:evenodd;clip-rule:evenodd;fill:#3050A3;}
	
		.st25{clip-path:url(#SVGID_00000121976892577252482580000006565669564662367676_);fill:url(#SVGID_00000034786968424503959660000012856002584621215128_);}
	.st26{fill-rule:evenodd;clip-rule:evenodd;fill:#25AFA6;}
	.st27{fill-rule:evenodd;clip-rule:evenodd;fill:#5ABEBB;}
	.st28{fill-rule:evenodd;clip-rule:evenodd;fill:#355399;}
	.st29{fill-rule:evenodd;clip-rule:evenodd;fill:#223B74;}
	.st30{fill-rule:evenodd;clip-rule:evenodd;fill:#76A1D5;}
	.st31{fill-rule:evenodd;clip-rule:evenodd;fill:#E98385;}
	.st32{fill:#F4B1B1;}
	.st33{fill:#F5EC79;}
	.st34{fill:#DDE293;}
	.st35{fill-rule:evenodd;clip-rule:evenodd;fill:#F5EC79;}
	.st36{fill-rule:evenodd;clip-rule:evenodd;fill:#DDE293;}
	.st37{fill-rule:evenodd;clip-rule:evenodd;fill:#F3AF8F;}
	.st38{fill-rule:evenodd;clip-rule:evenodd;fill:#7FAADA;}
	.st39{fill-rule:evenodd;clip-rule:evenodd;fill:#929CCF;}
	.st40{fill-rule:evenodd;clip-rule:evenodd;fill:#6E7DBD;}
	.st41{fill:#6E7DBD;}
	.st42{fill-rule:evenodd;clip-rule:evenodd;fill:#E16C6C;}
	.st43{fill:#929CCF;}
	.st44{opacity:0.79;fill-rule:evenodd;clip-rule:evenodd;fill:#FFFFFF;}
	.st45{fill:#11497F;}
	.st46{fill:#C4E8FA;}
	.st47{fill:none;stroke:#4F74B9;stroke-width:9.983;stroke-linecap:round;stroke-linejoin:round;stroke-miterlimit:10;}
	.st48{fill:#4F74B9;}
</style>
<g>
	<path class="st5" d="M796.1,906.9H181.3c-4.3,0-7.8-3.5-7.8-7.8s3.5-7.8,7.8-7.8h614.8c4.3,0,7.8,3.5,7.8,7.8
		S800.3,906.9,796.1,906.9z"/>
	<g>
		<path class="st0" d="M553.2,266.4H285.7c-15.1,0-27.5,12.3-27.5,27.6v73.3h322.6v-73.3C580.8,278.8,568.4,266.4,553.2,266.4z"/>
		<path class="st5" d="M580.8,375.1H258.2c-4.3,0-7.8-3.5-7.8-7.8v-73.3c0-19.5,15.8-35.4,35.2-35.4h267.5
			c19.5,0,35.4,15.9,35.4,35.4v73.3C588.5,371.6,585,375.1,580.8,375.1z M266,359.6H573v-65.5c0-11-8.9-19.9-19.9-19.9H285.7
			c-10.9,0-19.7,8.9-19.7,19.9V359.6z"/>
	</g>
	<path class="st5" d="M328.2,274.2c-4.3,0-7.8-3.5-7.8-7.8v-85.6c0-4.3,3.5-7.8,7.8-7.8c4.3,0,7.8,3.5,7.8,7.8v85.6
		C336,270.7,332.5,274.2,328.2,274.2z"/>
	<path class="st5" d="M374.5,274.2c-4.3,0-7.8-3.5-7.8-7.8v-51.9c0-4.3,3.5-7.8,7.8-7.8s7.8,3.5,7.8,7.8v51.9
		C382.3,270.7,378.8,274.2,374.5,274.2z"/>
	<path class="st5" d="M223.1,906.9c-2.1,0-4-0.8-5.5-2.3c-1.5-1.5-2.3-3.4-2.3-5.5V395c0-19.5,15.9-35.4,35.4-35.4h337.6
		c19.5,0,35.4,15.9,35.4,35.4v504.1c0,4.3-3.5,7.7-7.7,7.8L223.1,906.9z M250.7,375.1c-11,0-19.9,8.9-19.9,19.9v496.4l377.3,0V395
		c0-11-8.9-19.9-19.9-19.9H250.7z"/>
	<path class="st5" d="M615.9,906.9c-4.3,0-7.8-3.5-7.8-7.8v-66.6c0-4.3,3.5-7.8,7.8-7.8c4.3,0,7.8,3.5,7.8,7.8v66.6
		C623.6,903.4,620.2,906.9,615.9,906.9z"/>
	<path class="st5" d="M658.3,455.1h-42.4c-4.3,0-7.8-3.5-7.8-7.8s3.5-7.8,7.8-7.8h42.4c4.3,0,7.8,3.5,7.8,7.8
		S662.6,455.1,658.3,455.1z"/>
	<path class="st5" d="M754.3,906.9c-4.3,0-7.8-3.5-7.8-7.8V571c0-4.3,3.5-7.8,7.8-7.8s7.8,3.5,7.8,7.8v328.1
		C762,903.4,758.6,906.9,754.3,906.9z"/>
	<g>
		<path class="st0" d="M337.8,488.6h-45.9c-3.1,0-5.6-2.5-5.6-5.6v-45.9c0-3.1,2.5-5.6,5.6-5.6h45.9c3.1,0,5.6,2.5,5.6,5.6V483
			C343.4,486.1,340.9,488.6,337.8,488.6z"/>
		<path class="st5" d="M337.8,496.3h-45.9c-7.4,0-13.3-6-13.3-13.3v-45.9c0-7.4,6-13.3,13.3-13.3h45.9c7.4,0,13.3,6,13.3,13.3V483
			C351.1,490.3,345.1,496.3,337.8,496.3z M294.1,480.8h41.6v-41.6h-41.6V480.8z"/>
	</g>
	<g>
		<path class="st0" d="M442.4,488.6h-45.9c-3.1,0-5.6-2.5-5.6-5.6v-45.9c0-3.1,2.5-5.6,5.6-5.6h45.9c3.1,0,5.6,2.5,5.6,5.6V483
			C448,486.1,445.5,488.6,442.4,488.6z"/>
		<path class="st5" d="M442.4,496.3h-45.9c-7.4,0-13.3-6-13.3-13.3v-45.9c0-7.4,6-13.3,13.3-13.3h45.9c7.4,0,13.3,6,13.3,13.3V483
			C455.7,490.3,449.8,496.3,442.4,496.3z M398.7,480.8h41.6v-41.6h-41.6V480.8z"/>
	</g>
	<g>
		<path class="st0" d="M547,488.6h-45.9c-3.1,0-5.6-2.5-5.6-5.6v-45.9c0-3.1,2.5-5.6,5.6-5.6H547c3.1,0,5.6,2.5,5.6,5.6V483
			C552.6,486.1,550.1,488.6,547,488.6z"/>
		<path class="st5" d="M547,496.3h-45.9c-7.4,0-13.3-6-13.3-13.3v-45.9c0-7.4,6-13.3,13.3-13.3H547c7.4,0,13.3,6,13.3,13.3V483
			C560.3,490.3,554.4,496.3,547,496.3z M503.3,480.8h41.6v-41.6h-41.6V480.8z"/>
	</g>
	<g>
		<path class="st0" d="M337.8,585.7h-45.9c-3.1,0-5.6-2.5-5.6-5.6v-45.9c0-3.1,2.5-5.6,5.6-5.6h45.9c3.1,0,5.6,2.5,5.6,5.6v45.9
			C343.4,583.2,340.9,585.7,337.8,585.7z"/>
		<path class="st5" d="M337.8,593.4h-45.9c-7.4,0-13.3-6-13.3-13.3v-45.9c0-7.4,6-13.3,13.3-13.3h45.9c7.4,0,13.3,6,13.3,13.3v45.9
			C351.1,587.4,345.1,593.4,337.8,593.4z M294.1,577.9h41.6v-41.6h-41.6V577.9z"/>
	</g>
	<g>
		<path class="st0" d="M442.4,585.7h-45.9c-3.1,0-5.6-2.5-5.6-5.6v-45.9c0-3.1,2.5-5.6,5.6-5.6h45.9c3.1,0,5.6,2.5,5.6,5.6v45.9
			C448,583.2,445.5,585.7,442.4,585.7z"/>
		<path class="st5" d="M442.4,593.4h-45.9c-7.4,0-13.3-6-13.3-13.3v-45.9c0-7.4,6-13.3,13.3-13.3h45.9c7.4,0,13.3,6,13.3,13.3v45.9
			C455.7,587.4,449.8,593.4,442.4,593.4z M398.7,577.9h41.6v-41.6h-41.6V577.9z"/>
	</g>
	<g>
		<path class="st0" d="M547,585.7h-45.9c-3.1,0-5.6-2.5-5.6-5.6v-45.9c0-3.1,2.5-5.6,5.6-5.6H547c3.1,0,5.6,2.5,5.6,5.6v45.9
			C552.6,583.2,550.1,585.7,547,585.7z"/>
		<path class="st5" d="M547,593.4h-45.9c-7.4,0-13.3-6-13.3-13.3v-45.9c0-7.4,6-13.3,13.3-13.3H547c7.4,0,13.3,6,13.3,13.3v45.9
			C560.3,587.4,554.4,593.4,547,593.4z M503.3,577.9h41.6v-41.6h-41.6V577.9z"/>
	</g>
	<g>
		<path class="st0" d="M337.8,682.8h-45.9c-3.1,0-5.6-2.5-5.6-5.6v-45.9c0-3.1,2.5-5.6,5.6-5.6h45.9c3.1,0,5.6,2.5,5.6,5.6v45.9
			C343.4,680.3,340.9,682.8,337.8,682.8z"/>
		<path class="st5" d="M337.8,690.5h-45.9c-7.4,0-13.3-6-13.3-13.3v-45.9c0-7.4,6-13.3,13.3-13.3h45.9c7.4,0,13.3,6,13.3,13.3v45.9
			C351.1,684.5,345.1,690.5,337.8,690.5z M294.1,675h41.6v-41.6h-41.6V675z"/>
	</g>
	<g>
		<path class="st0" d="M442.4,682.8h-45.9c-3.1,0-5.6-2.5-5.6-5.6v-45.9c0-3.1,2.5-5.6,5.6-5.6h45.9c3.1,0,5.6,2.5,5.6,5.6v45.9
			C448,680.3,445.5,682.8,442.4,682.8z"/>
		<path class="st5" d="M442.4,690.5h-45.9c-7.4,0-13.3-6-13.3-13.3v-45.9c0-7.4,6-13.3,13.3-13.3h45.9c7.4,0,13.3,6,13.3,13.3v45.9
			C455.7,684.5,449.8,690.5,442.4,690.5z M398.7,675h41.6v-41.6h-41.6V675z"/>
	</g>
	<g>
		<path class="st0" d="M547,682.8h-45.9c-3.1,0-5.6-2.5-5.6-5.6v-45.9c0-3.1,2.5-5.6,5.6-5.6H547c3.1,0,5.6,2.5,5.6,5.6v45.9
			C552.6,680.3,550.1,682.8,547,682.8z"/>
		<path class="st5" d="M547,690.5h-45.9c-7.4,0-13.3-6-13.3-13.3v-45.9c0-7.4,6-13.3,13.3-13.3H547c7.4,0,13.3,6,13.3,13.3v45.9
			C560.3,684.5,554.4,690.5,547,690.5z M503.3,675h41.6v-41.6h-41.6V675z"/>
	</g>
	<path class="st5" d="M488.6,906.9H350.2c-4.3,0-7.8-3.5-7.8-7.8V758.9c0-17.5,14.2-31.7,31.7-31.7h90.6c0,0,0,0,0,0
		c8.5,0,16.4,3.3,22.4,9.3c6,6,9.3,13.9,9.3,22.4v140.2C496.4,903.4,492.9,906.9,488.6,906.9z M358,891.4h122.9V758.9
		c0-4.3-1.7-8.4-4.7-11.4c-3-3-7.1-4.7-11.4-4.7c0,0,0,0,0,0h-90.6c-8.9,0-16.2,7.2-16.2,16.2V891.4z"/>
	<path class="st5" d="M419.4,906.9c-4.3,0-7.8-3.5-7.8-7.8V735c0-4.3,3.5-7.8,7.8-7.8c4.3,0,7.8,3.5,7.8,7.8v164.1
		C427.2,903.4,423.7,906.9,419.4,906.9z"/>
	<path class="st4" d="M525.2,334.2c-4.3,0-7.8-3.5-7.8-7.8v-19.1c0-4.3,3.5-7.8,7.8-7.8c4.3,0,7.8,3.5,7.8,7.8v19.1
		C533,330.7,529.5,334.2,525.2,334.2z"/>
	<path class="st4" d="M472.3,334.2c-4.3,0-7.8-3.5-7.8-7.8v-19.1c0-4.3,3.5-7.8,7.8-7.8c4.3,0,7.8,3.5,7.8,7.8v19.1
		C480.1,330.7,476.6,334.2,472.3,334.2z"/>
	<path class="st4" d="M366.6,334.2c-4.3,0-7.8-3.5-7.8-7.8v-19.1c0-4.3,3.5-7.8,7.8-7.8c4.3,0,7.8,3.5,7.8,7.8v19.1
		C374.3,330.7,370.9,334.2,366.6,334.2z"/>
	<path class="st4" d="M313.7,334.2c-4.3,0-7.8-3.5-7.8-7.8v-19.1c0-4.3,3.5-7.8,7.8-7.8c4.3,0,7.8,3.5,7.8,7.8v19.1
		C321.5,330.7,318,334.2,313.7,334.2z"/>
	<path class="st4" d="M419.5,334.2c-4.3,0-7.8-3.5-7.8-7.8v-19.1c0-4.3,3.5-7.8,7.8-7.8c4.3,0,7.8,3.5,7.8,7.8v19.1
		C427.2,330.7,423.7,334.2,419.5,334.2z"/>
	<g>
		<path class="st0" d="M702.5,713.8h-35c-3.5,0-6.4-2.9-6.4-6.4v-59.6c0-3.5,2.9-6.4,6.4-6.4h35c3.5,0,6.4,2.9,6.4,6.4v59.6
			C708.9,711,706.1,713.8,702.5,713.8z"/>
		<path class="st5" d="M702.5,721.6h-35c-7.8,0-14.1-6.3-14.1-14.1v-59.6c0-7.8,6.3-14.1,14.1-14.1h35c7.8,0,14.1,6.3,14.1,14.1
			v59.6C716.7,715.3,710.3,721.6,702.5,721.6z M669,706.1h32.2v-56.8H669V706.1z"/>
	</g>
	<g>
		<path class="st0" d="M709,543.2V573c0,3.5-2.9,6.4-6.4,6.4h-35c-3.5,0-6.4-2.9-6.4-6.4v-59.6c0-3.5,2.9-6.4,6.4-6.4h16.2
			L709,543.2z"/>
		<path class="st5" d="M702.6,587.1h-35c-7.8,0-14.1-6.3-14.1-14.1v-59.6c0-7.8,6.3-14.1,14.1-14.1h16.2c2.5,0,4.9,1.2,6.4,3.3
			l25.1,36.1c0.9,1.3,1.4,2.8,1.4,4.4V573C716.7,580.8,710.4,587.1,702.6,587.1z M669,571.6h32.2v-26l-21.4-30.8H669V571.6z"/>
	</g>
	<g>
		<path class="st0" d="M702.5,848.2h-35c-3.5,0-6.4-2.9-6.4-6.4v-59.6c0-3.5,2.9-6.4,6.4-6.4h35c3.5,0,6.4,2.9,6.4,6.4v59.6
			C708.9,845.3,706.1,848.2,702.5,848.2z"/>
		<path class="st5" d="M702.5,855.9h-35c-7.8,0-14.1-6.3-14.1-14.1v-59.6c0-7.8,6.3-14.1,14.1-14.1h35c7.8,0,14.1,6.3,14.1,14.1
			v59.6C716.7,849.6,710.3,855.9,702.5,855.9z M669,840.4h32.2v-56.8H669V840.4z"/>
	</g>
	<path class="st5" d="M775.4,586.6c-4.2,0-8.3-0.9-12.2-2.6l0,0c-102-46.2-126.6-146.6-116.7-218.6c1.8-12.8,11.8-23.2,24.5-25.3
		c32-5.4,61.4-17.3,87.4-35.5c10.2-7.1,23.8-7.1,34,0c26,18.2,55.5,30.2,87.5,35.5c12.7,2.1,22.8,12.5,24.5,25.3
		c5.7,41.3-0.4,84.1-17.1,120.7c-19.8,43.5-54.3,77.3-99.7,97.9C783.7,585.8,779.5,586.6,775.4,586.6z M775.4,314.7
		c-2.8,0-5.7,0.9-8.1,2.6c-27.9,19.6-59.4,32.4-93.8,38.1c-6.1,1-10.9,6-11.7,12.1c-9.2,66.7,13.6,159.6,107.8,202.3l0,0
		c3.6,1.6,8,1.6,11.6,0c94.2-42.7,117-135.7,107.9-202.3c-0.8-6.1-5.7-11.1-11.7-12.1c-34.3-5.7-65.9-18.6-93.8-38.1
		C781.1,315.6,778.2,314.7,775.4,314.7z"/>
	<g>
		<path class="st0" d="M775.4,535.6c-2.7,0-5.3-0.7-7.6-2c-48.8-28.1-76.7-78.3-76.4-137.9c0-6.7,4.7-12.6,11.4-14.3
			c23-6,44.8-15.1,65.1-27c2.3-1.4,4.9-2.1,7.6-2.1c2.7,0,5.3,0.7,7.6,2.1c20.2,11.9,42.2,21,65.1,27c6.7,1.7,11.4,7.6,11.4,14.3
			c0.3,59.6-27.6,109.8-76.5,137.9C780.7,534.9,778.1,535.6,775.4,535.6z"/>
		<path class="st5" d="M775.4,543.3c-4,0-8-1-11.5-3c-51.3-29.5-80.6-82.2-80.3-144.6c0.1-10.2,7.1-19.2,17.2-21.8
			c22.3-5.8,43.5-14.6,63.1-26.2c7-4.1,16-4.1,23,0c19.6,11.5,40.9,20.3,63.2,26.2c10.1,2.6,17.1,11.6,17.2,21.8
			c0.3,62.5-29,115.2-80.4,144.6C783.4,542.3,779.4,543.3,775.4,543.3z M775.4,360.1c-1.3,0-2.5,0.3-3.7,1
			c-20.8,12.2-43.4,21.6-67,27.8c-3.3,0.9-5.6,3.7-5.6,6.9c-0.3,56.7,26.2,104.5,72.5,131.1c2.2,1.3,5.2,1.3,7.5,0
			c46.4-26.6,72.9-74.4,72.6-131.1c0-3.2-2.3-6-5.6-6.9c-23.7-6.2-46.2-15.6-67.1-27.8C778,360.4,776.7,360.1,775.4,360.1z"/>
	</g>
	<path class="st4" d="M766.8,462.6c-2.1,0-4-0.8-5.5-2.3l-15.8-15.8c-3-3-3-7.9,0-11c3-3,7.9-3,11,0l10.3,10.3l27.6-27.6
		c3-3,7.9-3,11,0c3,3,3,7.9,0,11l-33.1,33.1C770.8,461.7,768.8,462.6,766.8,462.6z"/>
	<path class="st5" d="M615.9,840.3H488.7c-4.3,0-7.8-3.5-7.8-7.8s3.5-7.8,7.8-7.8h127.2c4.3,0,7.8,3.5,7.8,7.8
		S620.2,840.3,615.9,840.3z"/>
	<path class="st5" d="M350.2,840.3H223.1c-4.3,0-7.8-3.5-7.8-7.8s3.5-7.8,7.8-7.8h127.2c4.3,0,7.8,3.5,7.8,7.8
		S354.5,840.3,350.2,840.3z"/>
</g>
</svg>
