<?xml version="1.0" encoding="utf-8"?>
<!-- Generator: Adobe Illustrator 26.0.3, SVG Export Plug-In . SVG Version: 6.00 Build 0)  -->
<svg version="1.1" id="Layer_1" xmlns="http://www.w3.org/2000/svg" xmlns:xlink="http://www.w3.org/1999/xlink" x="0px" y="0px"
	 viewBox="0 0 1080 1080" style="enable-background:new 0 0 1080 1080;" xml:space="preserve">
<style type="text/css">
	.st0{fill:#9BC9EB;}
	.st1{fill:#4D598D;}
	.st2{fill:#9BC9EB;stroke:#4D598D;stroke-width:16;stroke-linecap:round;stroke-linejoin:round;stroke-miterlimit:10;}
	.st3{fill:#4D598D;stroke:#4D598D;stroke-width:0.3;stroke-miterlimit:10;}
	.st4{fill:#FFFFFF;}
	.st5{fill:#263A6E;}
	.st6{fill:#0E71B9;}
	.st7{fill:#23376F;}
	.st8{fill:#FFFFFF;stroke:#23376F;stroke-width:24;stroke-linecap:round;stroke-linejoin:round;stroke-miterlimit:10;}
	.st9{fill:#20ADE4;}
	.st10{fill:#EDF4FB;}
	.st11{fill:#234698;}
	.st12{fill-rule:evenodd;clip-rule:evenodd;fill:#0E71B9;}
	.st13{fill-rule:evenodd;clip-rule:evenodd;fill:#EDF4FB;}
	.st14{fill:#C6DEF4;}
	.st15{fill:#ABC7E8;}
	.st16{fill-rule:evenodd;clip-rule:evenodd;fill:#9CC0E6;}
	.st17{fill-rule:evenodd;clip-rule:evenodd;fill:#FFFFFF;}
	.st18{fill-rule:evenodd;clip-rule:evenodd;fill:#BBD4EE;}
	.st19{fill:#568AC8;}
	.st20{fill-rule:evenodd;clip-rule:evenodd;fill:#7AA8D9;}
	.st21{fill:#BBD4EE;}
	.st22{fill-rule:evenodd;clip-rule:evenodd;fill:#F4B1B1;}
	.st23{fill-rule:evenodd;clip-rule:evenodd;fill:#CDDFF3;}
	.st24{fill-rule:evenodd;clip-rule:evenodd;fill:#3050A3;}
	
		.st25{clip-path:url(#SVGID_00000114033309215499379680000012730333501086713748_);fill:url(#SVGID_00000106840777564986777350000008084615765401284539_);}
	.st26{fill-rule:evenodd;clip-rule:evenodd;fill:#25AFA6;}
	.st27{fill-rule:evenodd;clip-rule:evenodd;fill:#5ABEBB;}
	.st28{fill-rule:evenodd;clip-rule:evenodd;fill:#355399;}
	.st29{fill-rule:evenodd;clip-rule:evenodd;fill:#223B74;}
	.st30{fill-rule:evenodd;clip-rule:evenodd;fill:#76A1D5;}
	.st31{fill-rule:evenodd;clip-rule:evenodd;fill:#E98385;}
	.st32{fill:#F4B1B1;}
	.st33{fill:#F5EC79;}
	.st34{fill:#DDE293;}
	.st35{fill-rule:evenodd;clip-rule:evenodd;fill:#F5EC79;}
	.st36{fill-rule:evenodd;clip-rule:evenodd;fill:#DDE293;}
	.st37{fill-rule:evenodd;clip-rule:evenodd;fill:#F3AF8F;}
	.st38{fill-rule:evenodd;clip-rule:evenodd;fill:#7FAADA;}
	.st39{fill-rule:evenodd;clip-rule:evenodd;fill:#929CCF;}
	.st40{fill-rule:evenodd;clip-rule:evenodd;fill:#6E7DBD;}
	.st41{fill:#6E7DBD;}
	.st42{fill-rule:evenodd;clip-rule:evenodd;fill:#E16C6C;}
	.st43{fill:#929CCF;}
	.st44{opacity:0.79;fill-rule:evenodd;clip-rule:evenodd;fill:#FFFFFF;}
	.st45{fill:#11497F;}
	.st46{fill:#C4E8FA;}
	.st47{fill:none;stroke:#4F74B9;stroke-width:9.983;stroke-linecap:round;stroke-linejoin:round;stroke-miterlimit:10;}
	.st48{fill:#4F74B9;}
</style>
<g>
	<path class="st5" d="M557.4,919.8c-68,0-230.4-106.7-237.4-111.3c-3.5-2.3-4.7-7.4-2.6-11.3c2.1-3.9,6.7-5.1,10.3-2.8
		c1.7,1.1,171.4,112.6,232.4,108.9c95.5-5.9,314.7-178.5,316.9-180.2c0.2-0.2,0.5-0.4,0.7-0.5c9.5-5.8,15.4-16.8,15.4-28.7
		c0-19.3-14.4-32-28.2-33.1c-5.2-0.4-10.3,0.7-15,3.3c-0.1,0-0.2,0.1-0.3,0.1l-142,68.6c-3.8,1.8-8.2-0.1-9.9-4.2s0.1-9,3.8-10.8
		l141.8-68.5c7.1-3.8,14.6-5.4,22.5-4.8c23.7,1.8,42.2,23.6,42.2,49.5c0,17.7-8.7,34-22.7,42.8c-13.1,10.3-225.6,176.9-324.4,183
		C559.9,919.7,558.7,919.8,557.4,919.8z"/>
	<path class="st5" d="M670.1,757.2H500.2c-4.1,0-7.5-3.7-7.5-8.2c0-4.5,3.4-8.2,7.5-8.2h169.9c16.9,0,30.7-15,30.9-33.6l-0.1-1
		c0-0.2,0-0.3,0-0.5c-0.5-18.3-14-32.7-30.8-32.7h-87.9c-1.9,0-3.6-0.8-5-2.1c-14.8-14.7-31.2-27.4-48.8-37.8
		c-28-16.6-57-25.7-83.8-26.5c-23.9-0.6-48-0.9-69.7-0.7c-30.1,0.1-50.5,0.7-50.7,0.7c-4.1,0.1-7.6-3.5-7.7-8
		c-0.1-4.5,3.2-8.3,7.3-8.4c0.2,0,20.8-0.6,51-0.7c21.9-0.2,46.1,0,70.1,0.7c29.2,0.8,60.5,10.6,90.5,28.4
		c17.8,10.5,34.4,23.3,49.5,37.9h85.1c24.9,0,44.9,21.2,45.8,48.4l0.1,1.2c0,0.2,0,0.5,0,0.7C716,734.6,695.4,757.2,670.1,757.2z"/>
	<g>
		<path class="st0" d="M302.8,557.6h-93.6c-16.5,0-29.9,14.7-29.9,32.8v219c0,18.1,13.4,32.8,29.9,32.8h93.6
			c16.5,0,29.9-14.7,29.9-32.8c0-43.7,0-175.4,0-219C332.7,572.3,319.3,557.6,302.8,557.6z"/>
		<path class="st5" d="M302.8,850.5h-93.6c-20.6,0-37.4-18.4-37.4-41v-219c0-22.6,16.8-41,37.4-41h93.6c10,0,19.4,4.3,26.4,12
			c7.1,7.8,11,18.1,11,29v219C340.2,832.1,323.4,850.5,302.8,850.5z M209.2,565.8c-12.4,0-22.4,11-22.4,24.6v219
			c0,13.6,10.1,24.6,22.4,24.6h93.6c12.4,0,22.4-11,22.4-24.6v-219c0-6.6-2.3-12.8-6.6-17.4c-4.2-4.6-9.9-7.2-15.9-7.2H209.2z"/>
	</g>
	<path class="st4" d="M280.9,771.7c0,15.1-11.1,27.3-24.8,27.3c-13.8,0-24.8-12.2-24.8-27.3s11.1-27.4,24.8-27.4
		C269.8,744.4,280.9,756.6,280.9,771.7z"/>
	<path class="st5" d="M761.8,496.2H500c-2.1,0-4.1-1-5.5-2.6c-1.4-1.7-2.1-3.9-2-6.2c2.6-37.8,17.9-72.9,42.8-98.9
		c25.8-27.1,59.7-42,95.5-42c35.1,0,68.6,14.4,94.4,40.6c25.7,26.3,41.3,61.9,43.9,100.2c0.2,2.3-0.6,4.5-2,6.2
		C765.9,495.3,763.9,496.2,761.8,496.2z M508.4,479.8h245.1c-4-30.9-17.4-59.2-38.3-80.6c-23-23.3-52.9-36.2-84.2-36.2
		c-31.9,0-62.2,13.3-85.2,37.4C525.4,421.6,512.3,449.5,508.4,479.8z"/>
	<g>
		<ellipse class="st0" cx="626.8" cy="238.8" rx="64.1" ry="70.4"/>
		<path class="st5" d="M626.8,317.4c-18.3,0-36.7-7.7-50.6-23c-27.9-30.6-27.9-80.5,0-111.2c27.9-30.6,73.4-30.6,101.3,0
			c27.9,30.6,27.9,80.5,0,111.2C663.5,309.7,645.1,317.4,626.8,317.4z M626.8,176.7c-14.5,0-29,6.1-40,18.2
			c-22.1,24.2-22.1,63.7,0,87.9c22.1,24.2,58,24.2,80.1,0c22.1-24.2,22.1-63.7,0-87.9C655.8,182.7,641.3,176.7,626.8,176.7z"/>
	</g>
	<path class="st5" d="M695.3,496.3c-4.1,0-7.5-3.7-7.5-8.2v-33.2c0-4.5,3.4-8.2,7.5-8.2s7.5,3.7,7.5,8.2V488
		C702.8,492.6,699.5,496.3,695.3,496.3z"/>
	<path class="st5" d="M566.6,496.3c-4.1,0-7.5-3.7-7.5-8.2v-33.2c0-4.5,3.4-8.2,7.5-8.2s7.5,3.7,7.5,8.2V488
		C574.1,492.6,570.7,496.3,566.6,496.3z"/>
	<g>
		<path class="st0" d="M540.5,394.5c-22.9,23.9-37.9,56.8-40.5,93.5H358.6c4.5-65.5,54.2-117.1,115-117.1
			C498.5,370.9,521.6,379.6,540.5,394.5z"/>
		<path class="st5" d="M500,496.2H358.6c-2.1,0-4.1-1-5.5-2.6c-1.4-1.7-2.1-3.9-2-6.2c2.3-33.9,16.1-65.3,38.7-88.5
			c22.8-23.3,52.5-36.2,83.7-36.2c25.8,0,50.5,8.7,71.3,25.1c1.8,1.4,3,3.7,3.1,6.1c0.2,2.4-0.7,4.8-2.3,6.5
			c-22.3,23.2-35.8,54.5-38.2,88.2C507.2,492.9,503.9,496.2,500,496.2z M367,479.8h126.3c3.6-31.4,16-60.7,35.5-84
			c-16.6-10.9-35.5-16.7-55.2-16.7C420.2,379.2,374.8,422.7,367,479.8z"/>
	</g>
	<path class="st5" d="M566.6,496.3H457.2c-4.1,0-7.5-3.7-7.5-8.2s3.4-8.2,7.5-8.2h109.4c4.1,0,7.5,3.7,7.5,8.2
		S570.7,496.3,566.6,496.3z"/>
	<path class="st5" d="M470.2,339.1c-6.2,0-12.5-1-18.6-3c-33.7-11.2-52.8-50.4-42.6-87.4l0,0c10.2-37,45.9-58,79.6-46.8
		c33.7,11.2,52.8,50.4,42.6,87.4c-4.9,17.9-15.9,32.7-31,41.5C490.8,336.3,480.5,339.1,470.2,339.1z M423.3,253.4
		c-7.8,28.3,6.8,58.3,32.6,66.9c12.5,4.2,25.7,2.7,37.2-4c11.5-6.8,19.9-18,23.7-31.8c7.8-28.3-6.8-58.3-32.6-66.9
		C458.4,209,431.1,225.1,423.3,253.4L423.3,253.4z"/>
	<path class="st5" d="M417,496.1c-4.1,0-7.5-3.7-7.5-8.2v-29c0-4.5,3.4-8.2,7.5-8.2c4.1,0,7.5,3.7,7.5,8.2v29
		C424.5,492.4,421.2,496.1,417,496.1z"/>
	<path class="st5" d="M800.6,496.3H608.7c-4.1,0-7.5-3.7-7.5-8.2s3.4-8.2,7.5-8.2h191.8c4.1,0,7.5,3.7,7.5,8.2
		S804.7,496.3,800.6,496.3z"/>
	<g>
		<path class="st0" d="M900.6,488H761.8c-2.6-37.6-18.1-70.9-41.6-94.8c18.5-14,41.1-22.2,65.4-22.2C846,370.9,896.1,422,900.6,488z
			"/>
		<path class="st5" d="M900.6,496.2H761.8c-3.9,0-7.2-3.3-7.5-7.6c-2.3-34.3-16.3-66-39.2-89.4c-1.7-1.7-2.5-4.1-2.4-6.6
			c0.2-2.5,1.3-4.8,3.2-6.2c20.5-15.5,44.6-23.7,69.7-23.7c31.1,0,60.7,12.8,83.5,36c22.8,23.2,36.6,54.7,39,88.7
			c0.2,2.3-0.6,4.5-2,6.2C904.7,495.3,902.7,496.2,900.6,496.2z M768.6,479.8h123.7c-7.9-57.1-53.3-100.6-106.6-100.6
			c-19,0-37.3,5.3-53.5,15.5C752.2,418.1,764.9,447.8,768.6,479.8z"/>
	</g>
	<path class="st5" d="M782,339c-16.4,0-32.7-6.8-45.2-20.5c-24.9-27.3-24.9-71.8,0-99.1c24.9-27.3,65.4-27.3,90.3,0
		c24.9,27.3,24.9,71.8,0,99.1C814.7,332.2,798.3,339,782,339z M782,215.3c-13.1,0-25.3,5.6-34.6,15.7c-9.2,10.1-14.3,23.6-14.3,37.9
		s5.1,27.8,14.3,37.9c9.2,10.1,21.5,15.7,34.6,15.7c13.1,0,25.3-5.6,34.6-15.7c19.1-20.9,19.1-55,0-75.9
		C807.3,220.9,795,215.3,782,215.3z"/>
	<path class="st5" d="M842.2,496.1c-4.1,0-7.5-3.7-7.5-8.2v-29c0-4.5,3.4-8.2,7.5-8.2s7.5,3.7,7.5,8.2v29
		C849.7,492.4,846.4,496.1,842.2,496.1z"/>
</g>
</svg>
