<?xml version="1.0" encoding="utf-8"?>
<!-- Generator: Adobe Illustrator 26.0.3, SVG Export Plug-In . SVG Version: 6.00 Build 0)  -->
<svg version="1.1" id="Layer_1" xmlns="http://www.w3.org/2000/svg" xmlns:xlink="http://www.w3.org/1999/xlink" x="0px" y="0px"
	 viewBox="0 0 1080 1080" style="enable-background:new 0 0 1080 1080;" xml:space="preserve">
<style type="text/css">
	.st0{fill:#263A6E;}
	.st1{fill:#9BC9EB;}
	.st2{fill:#FFFFFF;}
	.st3{fill:#4F74B9;}
	.st4{fill:#39B54A;}
	.st5{fill:none;stroke:#263A6E;stroke-width:16;stroke-miterlimit:10;}
	.st6{fill:none;stroke:#263A6E;stroke-width:16;stroke-miterlimit:10;stroke-dasharray:25.5016,25.5016;}
	.st7{fill:#010101;}
	.st8{fill:#8AB3DF;}
	.st9{fill:#C1D9F1;}
	.st10{fill:#A3C6E9;}
	.st11{fill:#FCEDAD;}
	.st12{fill:#FBDD7D;}
	.st13{fill:#B7E4F7;stroke:#263A6E;stroke-width:9;stroke-miterlimit:10;}
	.st14{fill:#ED1C24;stroke:#263A6E;stroke-width:9;stroke-miterlimit:10;}
	.st15{fill:#F8B3B5;}
	.st16{fill:#ED1C24;}
	.st17{fill:#263A6E;stroke:#263A6E;stroke-width:16;stroke-miterlimit:10;}
	.st18{clip-path:url(#SVGID_00000088836632946937032430000002150454826979132349_);}
	.st19{fill:#263A6E;stroke:#263A6E;stroke-width:5;stroke-miterlimit:10;}
	.st20{fill:#9BC9EB;stroke:#263A6E;stroke-width:5;stroke-miterlimit:10;}
</style>
<g>
	<path class="st19" d="M500.5,437.5l-8.1,1.4c-2.4,0.4-4,2.7-3.6,5.1c0.4,2.4,2.7,4,5.1,3.6l8.1-1.4l5.9-1c1.4-0.2,2.6-1.1,3.2-2.4
		c0.6-1.3,0.6-2.7,0-4l-27.2-52.7l57.1,33.1c1.1,0.6,2.4,0.8,3.5,0.4c1.2-0.4,2.1-1.2,2.7-2.4l28.8-62.9l27.4,74.3
		c0.5,1.3,1.5,2.3,2.8,2.7c1.3,0.4,2.7,0.2,3.8-0.6l82.9-59.4l-27.4,74.8c-0.4,1.2-0.3,2.5,0.2,3.6c0.6,1.1,1.6,1.9,2.8,2.2
		l60.4,15.5l-56.2,26.4c-1.3,0.6-2.2,1.8-2.4,3.1c-0.3,1.4,0.1,2.8,1.1,3.8l2.9,3.1l5.5,5.9c0.9,0.9,2,1.4,3.2,1.4
		c1.1,0,2.1-0.4,3-1.2c1.8-1.7,1.9-4.4,0.2-6.2l-4.3-4.6l61.8-29c1.7-0.8,2.7-2.5,2.5-4.4c-0.2-1.8-1.5-3.4-3.3-3.8l-67.6-17.4
		l30.6-83.7c0.7-1.8,0.1-3.8-1.5-5c-1.5-1.2-3.7-1.2-5.2-0.1l-89.8,64.3l-29.1-78.9c-0.6-1.7-2.2-2.8-4-2.9
		c-1.7-0.1-3.4,0.9-4.2,2.6l-31.3,68.2L475.3,371c-1.7-1-3.8-0.7-5.2,0.6c-1.4,1.3-1.8,3.5-0.9,5.2L500.5,437.5z"/>
	<path class="st19" d="M557.2,515.1v-17.1c0-8.7-7.1-15.8-15.8-15.8h-33.2c-5.7,0-10.7,3.1-13.5,7.7l-17.3-46.7
		c-9-24.3-32.5-40.6-58.4-40.6H225.2c-25.9,0-49.4,16.3-58.4,40.6l-17.3,46.7c-2.8-4.6-7.8-7.7-13.5-7.7h-33.2
		c-8.7,0-15.8,7.1-15.8,15.8v17.1c0,8.7,7.1,15.8,15.8,15.8H129l-14.2,17l-0.3,0.4c-7.3,10.8-11.1,23.5-11.1,36.6v8.1v18.2v62.4
		c0,10.1,4.3,19.3,11.1,25.8v41.5c0,12.6,10.2,22.8,22.8,22.8h33.8c12.6,0,22.8-10.2,22.8-22.8v-31.6h256.4v31.6
		c0,12.6,10.2,22.8,22.8,22.8h33.8c12.6,0,22.8-10.2,22.8-22.8v-41.5c6.8-6.5,11.1-15.6,11.1-25.8v-62.4V593v-8.1
		c0-13.1-3.9-25.7-11.1-36.6l-14.4-17.4h26.2C550.1,530.9,557.2,523.8,557.2,515.1z M175.1,446.1c7.7-20.9,27.9-34.9,50.1-34.9H419
		c22.3,0,42.4,14,50.1,34.9l22.3,60.3c-1.1,8-7.8,12.9-17.7,12.9H170.5c-10,0-16.7-4.9-17.7-12.9L175.1,446.1z M102.8,522.1
		c-3.9,0-7-3.1-7-7v-17.1c0-3.9,3.1-7,7-7H136c3.9,0,7,3.1,7,7v9.4l-4.5,12.1l-2.2,2.7H102.8z M112.2,593v-8.1
		c0-3.3,0.3-6.6,0.9-9.8c17.9,7.8,44,14.9,45.4,15.3c6.5,1.5,11.9,6.4,14.1,13l5.2,13.2c0.4,1.1,0.3,2-0.1,2.6
		c-0.4,0.6-1.3,0.9-2.4,0.9h-26c-21.2,0-33.4-9.1-37.1-12.3V593z M185.1,740.8c0,7.7-6.3,14-14,14h-33.8c-7.7,0-14-6.3-14-14v-35.4
		c4.8,2.4,10.1,3.7,15.7,3.7h46.1V740.8z M520.9,740.8c0,7.7-6.3,14-14,14h-33.8c-7.7,0-14-6.3-14-14v-31.6h46.1
		c5.7,0,11-1.4,15.7-3.7V740.8z M531.1,575c0.6,3.2,0.9,6.5,0.9,9.8v8.1v14.6c-3.7,3.2-15.9,12.3-37.1,12.3h-26
		c-1.1,0-2-0.3-2.4-0.9c-0.4-0.6-0.4-1.5-0.2-2.3l5.4-13.6c2.1-6.4,7.5-11.3,14.2-12.8C487.1,589.9,513.2,582.8,531.1,575z
		 M522.5,553.4c2.7,4.1,4.8,8.5,6.4,13c-17.2,7.8-45,15.3-45.1,15.3c-9.5,2.2-17.3,9.3-20.3,18.3l-5.4,13.6
		c-1.3,3.8-0.8,7.6,1.3,10.5c2.1,2.9,5.6,4.5,9.5,4.5h26c17.6,0,29.9-5.6,37.1-10.2v55.1c0,14.8-12,26.8-26.8,26.8H139.1
		c-14.8,0-26.8-12-26.8-26.8v-55.1c7.2,4.6,19.5,10.2,37.1,10.2h26c4,0,7.5-1.7,9.5-4.5c2.1-2.9,2.6-6.7,1.2-10.7l-5.2-13.2
		c-3.1-9.2-10.9-16.3-20.2-18.5c-0.3-0.1-28-7.6-45.3-15.4c1.6-4.6,3.7-8.9,6.4-13l24.5-29.5l2.1-5.6c4.7,6.1,12.5,9.9,22.1,9.9
		h303.3c9.6,0,17.5-3.7,22.1-9.9l2.1,5.6L522.5,553.4z M507.9,522.1l-2.2-2.7l-4.5-12.1v-9.4c0-3.9,3.1-7,7-7h33.2c3.9,0,7,3.1,7,7
		v17.1c0,3.9-3.1,7-7,7H507.9z"/>
	<path class="st19" d="M439.6,596.4H204.6c-2.2,0-4.3,1.1-5.6,2.8c-1.3,1.8-1.6,4.1-1,6.1l9.5,30.7c2.1,6.3,7.9,10.5,14.5,10.5
		h200.1c6.6,0,12.5-4.2,14.6-10.6l9.4-30.5c0.7-2.1,0.3-4.4-0.9-6.2C443.9,597.4,441.8,596.4,439.6,596.4z M428.4,633.3
		c-0.9,2.7-3.4,4.5-6.2,4.5H222.1c-2.8,0-5.3-1.8-6.2-4.4l-8.7-28.2H437L428.4,633.3z"/>
	<path class="st19" d="M439.6,671.8H204.6c-2.4,0-4.4,2-4.4,4.4c0,2.4,2,4.4,4.4,4.4h235.1c2.4,0,4.4-2,4.4-4.4
		C444,673.8,442.1,671.8,439.6,671.8z"/>
	<path class="st19" d="M988.3,700c0,0-165.5,0-165.5,0c1.6-6.5,2.5-13.4,2.5-20.4c0-46.3-37.7-84-84-84c-46.3,0-84,37.7-84,84
		c0,7,0.9,13.9,2.5,20.4H594c-20.8,0-37.6-16.9-37.6-37.6v-48c0-0.5,0-1,0-1.5h45.9c16.4,0,37.9-14.6,44.1-38.2
		c1.1-4.3,0.2-8.8-2.6-12.3c-2.8-3.4-7-5.3-11.4-5.1c-13.4,0.7-28,2.2-48.5,5.1c9.2-7,17.3-10.3,18-10.6
		c54.1-20.3,110.6-28.9,151.9-35.1c6.6-1,13-2,18.9-2.9c0.5-0.1,0.9-0.2,1.3-0.4c7-3.6,25.1-17.6,46.1-33.7
		c21.3-16.4,45.4-35,59.9-44.2l1.3-0.9c17.3-11,36.9-23.5,106.9-23.5c2.4,0,4.4-2,4.4-4.4c0-2.4-2-4.4-4.4-4.4
		c-72.6,0-93.3,13.2-111.6,24.8l-1.3,0.8c-14.9,9.5-39.2,28.2-60.6,44.7c-19.2,14.8-37.4,28.8-44.2,32.6c-5.7,0.9-11.7,1.8-18.1,2.8
		c-41.7,6.3-98.8,14.9-153.8,35.6c-0.5,0.2-51.2,20.8-51.2,70.6v48c0,25.6,20.8,46.4,46.4,46.4h68.5c11.9,32,42.7,54.8,78.8,54.8
		c36.1,0,66.9-22.8,78.8-54.8h168.2c2.4,0,4.4-2,4.4-4.4C992.7,702,990.7,700,988.3,700z M572.4,573.1c27.1-4.1,44.7-6.1,60.4-6.9
		c1.6-0.1,3.1,0.6,4.1,1.8c1,1.3,1.4,2.9,1,4.5c-5,18.9-22.4,31.7-35.6,31.7h-45.1C559.4,591.2,565.5,581,572.4,573.1z M741.3,754.8
		c-41.5,0-75.2-33.7-75.2-75.2c0-41.5,33.7-75.2,75.2-75.2c41.5,0,75.2,33.7,75.2,75.2C816.5,721.1,782.8,754.8,741.3,754.8z"/>
	<path class="st19" d="M741.3,634.9c-2.4,0-4.4,2-4.4,4.4c0,2.4,2,4.4,4.4,4.4c19.8,0,35.9,16.1,35.9,35.9
		c0,19.8-16.1,35.9-35.9,35.9c-19.8,0-35.9-16.1-35.9-35.9c0-9.6,3.7-18.6,10.5-25.4c1.7-1.7,1.7-4.5,0-6.2c-1.7-1.7-4.5-1.7-6.2,0
		c-8.4,8.4-13.1,19.7-13.1,31.6c0,24.7,20.1,44.7,44.7,44.7c24.7,0,44.7-20.1,44.7-44.7C786,654.9,766,634.9,741.3,634.9z"/>
	<path class="st19" d="M988.1,430.4c0.1,0,0.1,0,0.2,0c2.3-0.1,4.2-2,4.2-4.4c0-2.4-1.9-4.3-4.2-4.4c-0.1,0-0.1,0-0.2,0
		c-60.2,0-81.5,11.7-99.7,24.8c-27.4,19.7-62.7,49.5-81.9,67.6c-2.4,2.3-3.2,5.7-2,8.7c1.1,2.8,3.7,4.6,6.7,4.6h177.1
		c2.4,0,4.4-2,4.4-4.4c0-2.4-2-4.4-4.4-4.4c0,0-173.7,0-173.7,0c19.4-18,52.7-46.1,78.9-64.9C911.2,440.9,930.5,430.4,988.1,430.4z"
		/>
	<path class="st19" d="M954.1,560.3h33.1c0.4,0,0.7,0,1-0.1c2.7-0.5,4.7-2.8,4.7-5.6s-2-5.1-4.7-5.6c-0.3-0.1-0.7-0.1-1-0.1h-33.1
		c-3.2,0-5.7,2.6-5.7,5.7S951,560.3,954.1,560.3z"/>
</g>
<path class="st20" d="M112.2,593v-8.1c0-3.3,0.3-6.6,0.9-9.8c17.9,7.8,44,14.9,45.4,15.3c6.5,1.5,11.9,6.4,14.1,13l5.2,13.2
	c0.4,1.1,0.3,2-0.1,2.6c-0.4,0.6-1.3,0.9-2.4,0.9h-26c-21.2,0-33.4-9.1-37.1-12.3V593z"/>
<path class="st20" d="M531.1,575c0.6,3.2,0.9,6.5,0.9,9.8v8.1v14.6c-3.7,3.2-15.9,12.3-37.1,12.3h-26c-1.1,0-2-0.3-2.4-0.9
	c-0.4-0.6-0.4-1.5-0.2-2.3l5.4-13.6c2.1-6.4,7.5-11.3,14.2-12.8C487.1,589.9,513.2,582.8,531.1,575z"/>
<path class="st20" d="M428.4,633.3c-0.9,2.7-3.4,4.5-6.2,4.5H222.1c-2.8,0-5.3-1.8-6.2-4.4l-8.7-28.2H437L428.4,633.3z"/>
<path class="st20" d="M572.4,573.1c27.1-4.1,44.7-6.1,60.4-6.9c1.6-0.1,3.1,0.6,4.1,1.8c1,1.3,1.4,2.9,1,4.5
	c-5,18.9-22.4,31.7-35.6,31.7h-45.1C559.4,591.2,565.5,581,572.4,573.1z"/>
</svg>
