<?xml version="1.0" encoding="utf-8"?>
<!-- Generator: Adobe Illustrator 26.0.3, SVG Export Plug-In . SVG Version: 6.00 Build 0)  -->
<svg version="1.1" id="Layer_1" xmlns="http://www.w3.org/2000/svg" xmlns:xlink="http://www.w3.org/1999/xlink" x="0px" y="0px"
	 viewBox="0 0 1080 1080" style="enable-background:new 0 0 1080 1080;" xml:space="preserve">
<style type="text/css">
	.st0{fill:#9BC9EB;}
	.st1{fill:#4D598D;}
	.st2{fill:#9BC9EB;stroke:#4D598D;stroke-width:16;stroke-linecap:round;stroke-linejoin:round;stroke-miterlimit:10;}
	.st3{fill:#4D598D;stroke:#4D598D;stroke-width:0.3;stroke-miterlimit:10;}
	.st4{fill:#FFFFFF;}
	.st5{fill:#263A6E;}
	.st6{fill:#0E71B9;}
	.st7{fill:#23376F;}
	.st8{fill:#FFFFFF;stroke:#23376F;stroke-width:24;stroke-linecap:round;stroke-linejoin:round;stroke-miterlimit:10;}
	.st9{fill:#20ADE4;}
	.st10{fill:#EDF4FB;}
	.st11{fill:#234698;}
	.st12{fill-rule:evenodd;clip-rule:evenodd;fill:#0E71B9;}
	.st13{fill-rule:evenodd;clip-rule:evenodd;fill:#EDF4FB;}
	.st14{fill:#C6DEF4;}
	.st15{fill:#ABC7E8;}
	.st16{fill-rule:evenodd;clip-rule:evenodd;fill:#9CC0E6;}
	.st17{fill-rule:evenodd;clip-rule:evenodd;fill:#FFFFFF;}
	.st18{fill-rule:evenodd;clip-rule:evenodd;fill:#BBD4EE;}
	.st19{fill:#568AC8;}
	.st20{fill-rule:evenodd;clip-rule:evenodd;fill:#7AA8D9;}
	.st21{fill:#BBD4EE;}
	.st22{fill-rule:evenodd;clip-rule:evenodd;fill:#F4B1B1;}
	.st23{fill-rule:evenodd;clip-rule:evenodd;fill:#CDDFF3;}
	.st24{fill-rule:evenodd;clip-rule:evenodd;fill:#3050A3;}
	
		.st25{clip-path:url(#SVGID_00000020381354638630064070000015502031190798702210_);fill:url(#SVGID_00000105392300462517321410000000311162355972198334_);}
	.st26{fill-rule:evenodd;clip-rule:evenodd;fill:#25AFA6;}
	.st27{fill-rule:evenodd;clip-rule:evenodd;fill:#5ABEBB;}
	.st28{fill-rule:evenodd;clip-rule:evenodd;fill:#355399;}
	.st29{fill-rule:evenodd;clip-rule:evenodd;fill:#223B74;}
	.st30{fill-rule:evenodd;clip-rule:evenodd;fill:#76A1D5;}
	.st31{fill-rule:evenodd;clip-rule:evenodd;fill:#E98385;}
	.st32{fill:#F4B1B1;}
	.st33{fill:#F5EC79;}
	.st34{fill:#DDE293;}
	.st35{fill-rule:evenodd;clip-rule:evenodd;fill:#F5EC79;}
	.st36{fill-rule:evenodd;clip-rule:evenodd;fill:#DDE293;}
	.st37{fill-rule:evenodd;clip-rule:evenodd;fill:#F3AF8F;}
	.st38{fill-rule:evenodd;clip-rule:evenodd;fill:#7FAADA;}
	.st39{fill-rule:evenodd;clip-rule:evenodd;fill:#929CCF;}
	.st40{fill-rule:evenodd;clip-rule:evenodd;fill:#6E7DBD;}
	.st41{fill:#6E7DBD;}
	.st42{fill-rule:evenodd;clip-rule:evenodd;fill:#E16C6C;}
	.st43{fill:#929CCF;}
	.st44{opacity:0.79;fill-rule:evenodd;clip-rule:evenodd;fill:#FFFFFF;}
	.st45{fill:#11497F;}
	.st46{fill:#C4E8FA;}
	.st47{fill:none;stroke:#4F74B9;stroke-width:9.983;stroke-linecap:round;stroke-linejoin:round;stroke-miterlimit:10;}
	.st48{fill:#4F74B9;}
</style>
<g>
	<path class="st0" d="M764.2,544.6h-36.9c-7.6-44.6-30.5-84.5-65.6-113.6l18.4-32c8.9-15.4,3.6-35.3-11.9-44.3
		c-7.6-4.4-16.3-5.6-24.6-3.3c-8.5,2.3-15.4,7.7-19.8,15.1l-18.4,32c-42-15.6-89.1-15.6-131.1,0l-18.4-32
		c-4.4-7.4-11.3-12.8-19.8-15.1c-0.6-0.2-1.4-0.3-2-0.3c-13.6,7.4-26.4,16.2-38.4,26c-1.4,7.4-0.1,15.1,3.8,21.9l18.4,32
		c-35.1,29.2-58,69-65.6,113.6h-36.9c-2.9,0-5.7,0.5-8.5,1.2c-0.4,5.4-0.8,11-0.8,16.6c2.7-1.7,5.9-2.7,9.2-2.7h118.6
		c-0.5,2.3-0.8,4.4-0.9,6.6c-0.4,3.6-0.6,7.1-0.6,10.7c0,3.6,0.2,7.1,0.6,10.7c0.2,2.3,0.5,4.4,0.9,6.6H315.5
		c-2.9,0-5.7-0.8-8.2-2.1c0.6,5.7,1.4,11.3,2.3,16.8c2,0.3,3.9,0.5,5.9,0.5h36.9c7.6,44.6,30.5,84.5,65.6,113.6l-18.4,32
		c-0.8,1.4-1.5,2.9-2.1,4.4c4.2,3.3,8.5,6.6,13,9.7c0.3-2.3,1.1-4.5,2.3-6.5L471.9,660c0.8,0.6,1.4,1.1,2.1,1.5
		c1.8,1.7,3.8,3,5.9,4.4c2.6,1.8,5.1,3.5,7.9,4.8c0.8,0.5,1.7,0.9,2.4,1.4c2.1,1.2,4.4,2.3,6.6,3.2c1.8,0.8,3.5,1.5,5.3,2.1
		l-37,64.2l-1.2,2l-21.2,36.6c-1.4,2.4-3.3,4.4-5.7,5.7c4.8,2.6,9.7,5,14.8,7.3c1.5-1.7,2.9-3.5,4.1-5.4l18.4-31.9
		c21,7.7,43,11.6,65.6,11.6s44.6-3.9,65.6-11.6l18.4,31.9c3.2,5.4,7.7,9.8,13.3,12.5c16.5-5.9,32.2-13.4,46.8-22.7
		c1.4-7.4,0.3-15.4-3.8-22.4l-18.4-32c35.1-29.2,58-69,65.6-113.6h36.9c18,0,32.5-14.5,32.5-32.5S782.2,544.6,764.2,544.6z M637,374
		c2.3-3.9,6-6.8,10.6-8c4.4-1.2,9.1-0.6,13.1,1.7c4.1,2.4,6.9,6,8.2,10.6c0.5,1.5,0.6,2.9,0.6,4.4c0,3-0.9,6-2.4,8.8l-59.2,102.7
		c-0.8-0.6-1.4-1.1-2.1-1.5c-1.8-1.7-3.8-3-5.9-4.4c-2.6-1.8-5.1-3.5-7.9-4.8c-0.8-0.5-1.7-0.9-2.4-1.4c-2.1-1.2-4.4-2.3-6.6-3.2
		c-1.8-0.8-3.5-1.5-5.3-2.1l37-64.2l1.2-2L637,374z M412.7,391.4c-2.3-3.9-3-8.6-1.8-13.1c1.2-4.5,4.1-8.2,8.2-10.6
		c2.7-1.5,5.6-2.3,8.6-2.3c1.5,0,3,0.1,4.5,0.6c4.5,1.2,8.3,4.1,10.6,8l21.2,36.6l1.2,2.1l37,64c-1.8,0.6-3.5,1.4-5.3,2.1
		c-2.3,0.9-4.5,2-6.6,3.2c-0.8,0.5-1.7,0.9-2.4,1.4c-2.7,1.4-5.3,3-7.9,4.8c-2.1,1.4-4.1,2.7-5.9,4.4c-0.8,0.4-1.4,0.9-2.1,1.5
		L412.7,391.4z M495.9,658.1c-2.4-1.4-4.8-2.7-7.1-4.2c-1.7-1.2-3.3-2.4-5-3.8c-1.4-0.9-2.6-2-3.9-3.2c-1.5-1.2-3-2.6-4.5-4.1
		c-11.6-11.5-20.2-25.8-24.5-42c0-0.3-0.1-0.5-0.1-0.8c-0.5-2-0.9-3.9-1.4-5.7c-0.6-3.2-1.1-6.2-1.2-9.2c-0.3-2.7-0.5-5.4-0.5-8
		c0-2.6,0.2-5.3,0.5-8c0.1-3,0.6-6,1.2-9.2c0.5-1.8,0.9-3.8,1.4-5.7c0-0.3,0.1-0.5,0.1-0.8c4.2-16.2,12.8-30.5,24.5-42
		c1.5-1.5,3-2.9,4.5-4.1c1.4-1.2,2.6-2.3,3.9-3.2c1.5-1.4,3.2-2.4,4.7-3.5c2.4-1.7,4.8-3.2,7.4-4.4c4.4-2.6,9.2-4.5,14.1-6.2
		c1.7-0.6,3.5-1.2,5.3-1.7c0.3-0.1,0.6-0.1,0.9-0.3c0.3-0.1,0.5-0.1,0.8-0.3c7.4-1.8,15.1-2.9,23-2.9c7.9,0,15.6,1.1,23,2.9
		c0.3,0.2,0.5,0.2,0.8,0.3c0.3,0.2,0.6,0.2,0.9,0.3c1.8,0.5,3.6,1.1,5.3,1.7c4.8,1.7,9.7,3.6,14.1,6.2c2.6,1.2,5,2.7,7.4,4.4
		c1.5,1.1,3.2,2.1,4.7,3.5c1.4,0.9,2.6,2,3.9,3.2c1.5,1.2,3,2.6,4.5,4.1c11.6,11.5,20.2,25.8,24.5,42c0,0.3,0.1,0.5,0.1,0.8
		c0.5,2,0.9,3.9,1.4,5.7c0.6,3.2,1.1,6.2,1.2,9.2c0.3,2.7,0.5,5.4,0.5,8c0,2.6-0.2,5.3-0.5,8c-0.1,3-0.6,6-1.2,9.2
		c-0.5,1.8-0.9,3.8-1.4,5.7c0,0.3-0.1,0.5-0.1,0.8c-4.2,16.2-12.8,30.5-24.5,42c-1.5,1.5-3,2.9-4.5,4.1c-1.4,1.2-2.6,2.3-3.9,3.2
		c-1.7,1.4-3.3,2.6-5,3.8c-2.3,1.5-4.7,2.9-7.1,4.2c-4.4,2.4-9.2,4.4-14.1,6c-1.7,0.6-3.5,1.2-5.3,1.7c-0.3,0.1-0.6,0.1-0.9,0.3
		c-0.3,0.1-0.5,0.1-0.8,0.3c-7.4,1.8-15.1,2.9-23,2.9c-7.9,0-15.6-1.1-23-2.9c-0.3-0.2-0.5-0.2-0.8-0.3c-0.3-0.2-0.6-0.2-0.9-0.3
		c-1.8-0.5-3.6-1.1-5.3-1.7C505.1,662.4,500.3,660.5,495.9,658.1z M667.1,762.7c2.3,3.9,3,8.6,1.8,13.1c-1.2,4.5-4.1,8.2-8.2,10.6
		c-4.1,2.3-8.8,2.9-13.1,1.7c-4.5-1.2-8.3-4.1-10.6-8l-21.2-36.6l-1.2-2.1l-37-64c1.8-0.6,3.5-1.4,5.3-2.1c2.3-0.9,4.5-2,6.6-3.2
		c0.8-0.5,1.7-0.9,2.4-1.4c2.7-1.4,5.3-3,7.9-4.8c2.1-1.4,4.1-2.7,5.9-4.4c0.8-0.4,1.4-0.9,2.1-1.5L667.1,762.7z M764.2,594.5H645.6
		c0.5-2.3,0.8-4.4,0.9-6.6c0.4-3.6,0.6-7.1,0.6-10.7c0-3.6-0.2-7.1-0.6-10.7c-0.2-2.3-0.5-4.4-0.9-6.6h118.6
		c9.5,0,17.4,7.9,17.4,17.4C781.6,586.6,773.7,594.5,764.2,594.5z"/>
	<path class="st0" d="M842,176.8H237.7c-54.1,0-98.2,44.1-98.2,98.2v604.3c0,54.1,44.1,98.2,98.2,98.2H842
		c54.1,0,98.2-44.1,98.2-98.2V274.9C940.2,220.9,896.1,176.8,842,176.8z M872.5,858.2c0,29-23.6,52.6-52.6,52.6H260.1
		c-29,0-52.6-23.6-52.6-52.6v-69.4h0.5c15.8,0,28.6-12.8,28.6-28.6v-62.2c0-15.8-12.8-28.6-28.6-28.6h-0.5V484.9h0.5
		c15.8,0,28.6-12.8,28.6-28.6v-62.2c0-15.8-12.8-28.6-28.6-28.6h-0.5v-67.1c0-29.2,23.6-52.6,52.6-52.6h559.9
		c29,0,52.6,23.4,52.6,52.6V858.2z"/>
	<g>
		<path class="st1" d="M842,176.8H237.7c-54.1,0-98.2,44.1-98.2,98.2v604.3c0,54.1,44.1,98.2,98.2,98.2H842
			c54.1,0,98.2-44.1,98.2-98.2V274.9C940.2,220.9,896.1,176.8,842,176.8z M925.1,879.2c0,45.8-37.3,83.1-83.1,83.1H237.7
			c-45.8,0-83.1-37.3-83.1-83.1V274.9c0-45.8,37.3-83.1,83.1-83.1H842c45.8,0,83.1,37.3,83.1,83.1V879.2z"/>
		<path class="st1" d="M207.5,645.1c-4.2,0-7.6-3.4-7.6-7.6V516.7c0-4.2,3.4-7.6,7.6-7.6c4.2,0,7.6,3.4,7.6,7.6v120.9
			C215.1,641.7,211.7,645.1,207.5,645.1z"/>
		<path class="st1" d="M826.9,917H252.8c-29.2,0-52.9-23.7-52.9-52.9v-45.3c0-4.2,3.4-7.6,7.6-7.6c4.2,0,7.6,3.4,7.6,7.6v45.3
			c0,20.8,16.9,37.8,37.8,37.8h574.1c20.8,0,37.8-16.9,37.8-37.8V290.1c0-20.8-16.9-37.8-37.8-37.8H252.8
			c-20.8,0-37.8,16.9-37.8,37.8v45.3c0,4.2-3.4,7.6-7.6,7.6c-4.2,0-7.6-3.4-7.6-7.6v-45.3c0-29.2,23.7-52.9,52.9-52.9h574.1
			c29.2,0,52.9,23.7,52.9,52.9v574.1C879.8,893.3,856.1,917,826.9,917z"/>
		<path class="st1" d="M207.5,660.2h-60.4c-4.2,0-7.6,3.3-7.6,7.6v120.9c0,4.2,3.3,7.6,7.6,7.6h60.4c20.8,0,37.8-16.9,37.8-37.8
			v-60.4C245.3,677.1,228.4,660.2,207.5,660.2z M230.2,758.4c0,12.5-10.1,22.7-22.7,22.7h-52.9V675.3h52.9
			c12.5,0,22.7,10.1,22.7,22.7V758.4z"/>
		<path class="st1" d="M207.5,358h-60.4c-4.2,0-7.6,3.3-7.6,7.6v120.9c0,4.2,3.3,7.6,7.6,7.6h60.4c20.8,0,37.8-16.9,37.8-37.8v-60.4
			C245.3,375,228.4,358,207.5,358z M230.2,456.2c0,12.5-10.1,22.7-22.7,22.7h-52.9V373.1h52.9c12.5,0,22.7,10.1,22.7,22.7V456.2z"/>
		<path class="st1" d="M728.4,551.1c0.6,4.2-2.3,8-6.3,8.6H721c-3.8,0-7-2.7-7.6-6.5c-0.5-2.9-0.9-5.7-1.4-8.6
			c-7.4-39.1-27.6-74.5-58-100.5c-2.1-1.8-4.4-3.6-6.6-5.4c-3.3-2.6-3.9-7.4-1.4-10.6c2.6-3.3,7.3-3.9,10.6-1.4
			c1.8,1.4,3.5,2.7,5.1,4.2c35.1,29.2,58,69,65.6,113.6C727.8,546.7,728.1,549,728.4,551.1z"/>
		<path class="st1" d="M615.9,410.6l-1.2,2c-1.4,1.7-3.6,2.7-5.7,2.7c-1.1,0-2-0.2-2.9-0.6c-2.7-1.1-5.4-2.1-8.2-3
			c-37.3-13-78.7-13-116,0c-2.7,0.9-5.4,2-8.2,3c-3,1.4-6.5,0.5-8.6-2l-1.2-2.1c-1.5-3.9,0.3-8.3,4.2-9.8c2.1-0.8,4.1-1.7,6.2-2.3
			c42-15.6,89.1-15.6,131.1,0c2.1,0.6,4.1,1.5,6.2,2.3C615.6,402.3,617.4,406.7,615.9,410.6z"/>
		<path class="st1" d="M432.3,438.7c-2.3,1.8-4.5,3.6-6.6,5.4c-30.4,26-50.6,61.3-58,100.5c-0.5,2.9-0.9,5.7-1.4,8.6
			c-0.6,3.8-3.8,6.5-7.6,6.5h-1.1c-4.1-0.6-6.9-4.4-6.3-8.6c0.3-2.1,0.6-4.4,1.1-6.5c7.6-44.6,30.5-84.5,65.6-113.6
			c1.7-1.5,3.3-2.9,5.1-4.2c3.3-2.6,8-2,10.6,1.4C436.2,431.3,435.6,436.1,432.3,438.7z"/>
		<path class="st1" d="M433.7,726c-1.5,2-3.6,3-5.9,3c-1.7,0-3.3-0.6-4.7-1.7c-1.8-1.4-3.5-2.7-5.1-4.2c-35.1-29.2-58-69-65.6-113.6
			c-0.4-2.1-0.8-4.4-1.1-6.5c-0.6-4.2,2.3-8,6.3-8.6h0.9c3.8,0,7.1,2.7,7.7,6.5c0.5,2.9,0.9,5.7,1.4,8.6
			c7.4,39.1,27.6,74.5,58,100.5c2.1,1.8,4.4,3.6,6.6,5.4C435.6,718,436.2,722.9,433.7,726z"/>
		<path class="st1" d="M611.6,753.4c-2.1,0.9-4.1,1.7-6.2,2.4c-21,7.7-43,11.6-65.6,11.6s-44.6-3.9-65.6-11.6
			c-2.1-0.8-4.1-1.5-6.2-2.4c-3.9-1.5-5.7-5.9-4.2-9.8l1.2-2c2.1-2.6,5.6-3.5,8.6-2.1c2.7,1.1,5.4,2.1,8.2,3c37.3,13,78.7,13,116,0
			c2.7-0.9,5.4-2,8.2-3c3-1.4,6.5-0.5,8.6,2l1.2,2.1C617.4,747.5,615.6,751.9,611.6,753.4z"/>
		<path class="st1" d="M728.4,603.1c-0.3,2.1-0.6,4.4-1.1,6.5c-7.6,44.6-30.5,84.5-65.6,113.6c-1.7,1.5-3.3,2.9-5.1,4.2
			c-1.4,1.1-3,1.7-4.7,1.7c-2.3,0-4.4-1.1-5.9-3c-2.6-3.2-2-8,1.4-10.6c2.3-1.8,4.5-3.6,6.6-5.4c30.4-26,50.6-61.3,58-100.5
			c0.5-2.9,0.9-5.7,1.4-8.6c0.6-3.8,3.9-6.5,7.7-6.5h0.9C726.1,595.1,729,598.8,728.4,603.1z"/>
		<path class="st1" d="M646.5,566.4c-0.2-2.3-0.5-4.4-0.9-6.6c-0.8-5.1-2-10.3-3.5-15.1c-4.8-15-12.7-28.6-23.1-39.7
			c-3.5-3.9-7.3-7.6-11.2-10.7c-0.8-0.6-1.4-1.1-2.1-1.5c-1.8-1.7-3.8-3-5.9-4.4c-2.6-1.8-5.1-3.5-7.9-4.8c-0.8-0.5-1.7-0.9-2.4-1.4
			c-2.1-1.2-4.4-2.3-6.6-3.2c-1.8-0.8-3.5-1.5-5.3-2.1c-4.8-1.8-9.7-3.3-14.8-4.5c-7.4-1.5-15.1-2.4-23-2.4c-7.9,0-15.6,0.9-23,2.4
			c-5.1,1.2-10,2.7-14.8,4.5c-1.8,0.6-3.5,1.4-5.3,2.1c-2.3,0.9-4.5,2-6.6,3.2c-0.8,0.5-1.7,0.9-2.4,1.4c-2.7,1.4-5.3,3-7.9,4.8
			c-2.1,1.4-4.1,2.7-5.9,4.4c-0.8,0.4-1.4,0.9-2.1,1.5c-3.9,3.2-7.7,6.8-11.2,10.7c-10.4,11.2-18.3,24.8-23.1,39.7
			c-1.5,4.8-2.7,10-3.5,15.1c-0.5,2.3-0.8,4.4-0.9,6.6c-0.4,3.6-0.6,7.1-0.6,10.7c0,3.6,0.2,7.1,0.6,10.7c0.2,2.3,0.5,4.4,0.9,6.6
			c0.8,5.1,2,10.3,3.5,15.1c4.8,15,12.7,28.6,23.1,39.7c3.5,3.9,7.3,7.6,11.2,10.7c0.8,0.6,1.4,1.1,2.1,1.5c1.8,1.7,3.8,3,5.9,4.4
			c2.6,1.8,5.1,3.5,7.9,4.8c0.8,0.5,1.7,0.9,2.4,1.4c2.1,1.2,4.4,2.3,6.6,3.2c1.8,0.8,3.5,1.5,5.3,2.1c4.8,1.8,9.7,3.3,14.8,4.5
			c7.4,1.5,15.1,2.4,23,2.4c7.9,0,15.6-0.9,23-2.4c5.1-1.2,10-2.7,14.8-4.5c1.8-0.6,3.5-1.4,5.3-2.1c2.3-0.9,4.5-2,6.6-3.2
			c0.8-0.5,1.7-0.9,2.4-1.4c2.7-1.4,5.3-3,7.9-4.8c2.1-1.4,4.1-2.7,5.9-4.4c0.8-0.4,1.4-0.9,2.1-1.5c3.9-3.2,7.7-6.8,11.2-10.7
			c10.4-11.2,18.3-24.8,23.1-39.7c1.5-4.8,2.7-10,3.5-15.1c0.5-2.3,0.8-4.4,0.9-6.6c0.4-3.6,0.6-7.1,0.6-10.7
			C647.1,573.5,647,570,646.5,566.4z M604.4,642.8c-1.5,1.5-3,2.9-4.5,4.1c-1.4,1.2-2.6,2.3-3.9,3.2c-1.7,1.4-3.3,2.6-5,3.8
			c-2.3,1.5-4.7,2.9-7.1,4.2c-4.4,2.4-9.2,4.4-14.1,6c-1.7,0.8-3.5,1.4-5.3,1.7c-0.3,0.1-0.6,0.1-0.9,0.3c-0.3,0.1-0.5,0.1-0.8,0.3
			c-7.4,1.8-15.1,2.9-23,2.9c-7.9,0-15.6-1.1-23-2.9c-0.3-0.2-0.5-0.2-0.8-0.3c-0.3-0.2-0.6-0.2-0.9-0.3c-1.8-0.3-3.6-0.9-5.3-1.7
			c-4.8-1.7-9.7-3.6-14.1-6c-2.4-1.4-4.8-2.7-7.1-4.2c-1.7-1.2-3.3-2.4-5-3.8c-1.4-0.9-2.6-2-3.9-3.2c-1.5-1.2-3-2.6-4.5-4.1
			c-11.6-11.5-20.2-25.8-24.5-42c0-0.3-0.1-0.5-0.1-0.8c-0.5-2-0.9-3.9-1.4-5.7c-0.6-3.2-1.1-6.2-1.2-9.2c-0.3-2.7-0.5-5.4-0.5-8
			c0-2.6,0.2-5.3,0.5-8c0.1-3,0.6-6,1.2-9.2c0.5-1.8,0.9-3.8,1.4-5.7c0-0.3,0.1-0.5,0.1-0.8c4.2-16.2,12.8-30.5,24.5-42
			c1.5-1.5,3-2.9,4.5-4.1c1.4-1.2,2.6-2.3,3.9-3.2c1.5-1.4,3.2-2.4,4.7-3.5c2.4-1.7,4.8-3.2,7.4-4.4c4.4-2.6,9.2-4.5,14.1-6.2
			c1.7-0.8,3.5-1.4,5.3-1.7c0.3-0.1,0.6-0.1,0.9-0.3c0.3-0.1,0.5-0.1,0.8-0.3c7.4-1.8,15.1-2.9,23-2.9c7.9,0,15.6,1.1,23,2.9
			c0.3,0.2,0.5,0.2,0.8,0.3c0.3,0.2,0.6,0.2,0.9,0.3c1.8,0.3,3.6,0.9,5.3,1.7c4.8,1.7,9.7,3.6,14.1,6.2c2.6,1.2,5,2.7,7.4,4.4
			c1.5,1.1,3.2,2.1,4.7,3.5c1.4,0.9,2.6,2,3.9,3.2c1.5,1.2,3,2.6,4.5,4.1c11.6,11.5,20.2,25.8,24.5,42c0,0.3,0.1,0.5,0.1,0.8
			c0.5,2,0.9,3.9,1.4,5.7c0.6,3.2,1.1,6.2,1.2,9.2c0.3,2.7,0.5,5.4,0.5,8c0,2.6-0.2,5.3-0.5,8c-0.1,3-0.6,6-1.2,9.2
			c-0.5,1.8-0.9,3.8-1.4,5.7c0,0.3-0.1,0.5-0.1,0.8C624.6,617,616,631.3,604.4,642.8z"/>
		<path class="st1" d="M668.3,354.7c-7.6-4.4-16.3-5.6-24.6-3.3c-8.5,2.3-15.4,7.7-19.8,15.1l-18.4,32l-7.6,13.1l-35,60.6l-2.9,5.1
			c-1.2,2-1.4,4.4-0.5,6.6c0.6,1.5,1.8,2.9,3.3,3.8c0.3,0.2,0.5,0.2,0.8,0.3c0.3,0.2,0.6,0.2,0.9,0.3c1.8,0.5,3.6,1.1,5.3,1.7
			c4.8,1.7,9.7,3.6,14.1,6.2c2.6,1.2,5,2.7,7.4,4.4c1.5,1.1,3.2,2.1,4.7,3.5c1.4,0.9,2.6,2,3.9,3.2c1.5,1.2,3,2.6,4.5,4.1
			c1.5,1.4,3.3,2.1,5.3,2.1h1.1c2.3-0.3,4.4-1.7,5.6-3.8l2.7-4.8l35-60.7l7.7-13.1l18.4-32C689.1,383.6,683.8,363.6,668.3,354.7z
			 M667.1,391.4l-59.2,102.7c-0.8-0.6-1.4-1.1-2.1-1.5c-1.8-1.7-3.8-3-5.9-4.4c-2.6-1.8-5.1-3.5-7.9-4.8c-0.8-0.5-1.7-0.9-2.4-1.4
			c-2.1-1.2-4.4-2.3-6.6-3.2c-1.8-0.8-3.5-1.5-5.3-2.1l37-64.2l1.2-2L637,374c2.3-3.9,6-6.8,10.6-8c4.4-1.2,9.1-0.6,13.1,1.7
			c4.1,2.4,6.9,6,8.2,10.6c0.5,1.5,0.6,2.9,0.6,4.4C669.5,385.7,668.6,388.7,667.1,391.4z"/>
		<path class="st1" d="M519.8,477.4l-2.9-5.1l-35-60.6l-7.6-13.1l-18.4-32c-4.4-7.4-11.3-12.8-19.8-15.1c-0.6-0.2-1.4-0.3-2-0.3
			c-7.7-1.8-15.7-0.5-22.7,3.6c-8.6,5-14.2,13.3-15.7,22.4c-1.4,7.4-0.1,15.1,3.8,21.9l18.4,32l7.7,13.1l35,60.7l2.7,4.8
			c1.2,2.1,3.3,3.5,5.6,3.8h1.1c2,0,3.8-0.8,5.3-2.1c1.5-1.5,3-2.9,4.5-4.1c1.4-1.2,2.6-2.3,3.9-3.2c1.5-1.4,3.2-2.4,4.7-3.5
			c2.4-1.7,4.8-3.2,7.4-4.4c4.4-2.6,9.2-4.5,14.1-6.2c1.7-0.6,3.5-1.2,5.3-1.7c0.3-0.1,0.6-0.1,0.9-0.3c0.3-0.1,0.5-0.1,0.8-0.3
			c1.5-0.9,2.7-2.3,3.3-3.8C521.1,481.8,521,479.3,519.8,477.4z M496.8,478.9c-2.3,0.9-4.5,2-6.6,3.2c-0.8,0.5-1.7,0.9-2.4,1.4
			c-2.7,1.4-5.3,3-7.9,4.8c-2.1,1.4-4.1,2.7-5.9,4.4c-0.8,0.4-1.4,0.9-2.1,1.5l-59.2-102.7c-2.3-3.9-3-8.6-1.8-13.1
			c1.2-4.5,4.1-8.2,8.2-10.6c2.7-1.5,5.6-2.3,8.6-2.3c1.5,0,3,0.1,4.5,0.6c4.5,1.2,8.3,4.1,10.6,8l21.2,36.6l1.2,2.1l37,64
			C500.3,477.4,498.6,478.1,496.8,478.9z"/>
		<path class="st1" d="M502.1,677.4l-37,64.2c2.1-2.6,5.6-3.5,8.6-2.1c2.7,1.1,5.4,2.1,8.2,3l35-60.6
			C511.8,680.7,506.9,679.2,502.1,677.4z M502.1,677.4l-37,64.2c2.1-2.6,5.6-3.5,8.6-2.1c2.7,1.1,5.4,2.1,8.2,3l35-60.6
			C511.8,680.7,506.9,679.2,502.1,677.4z M502.1,677.4l-37,64.2c2.1-2.6,5.6-3.5,8.6-2.1c2.7,1.1,5.4,2.1,8.2,3l35-60.6
			C511.8,680.7,506.9,679.2,502.1,677.4z M520.2,670.1c-0.6-1.5-1.8-2.9-3.3-3.8c-0.3-0.2-0.5-0.2-0.8-0.3c-0.3-0.2-0.6-0.2-0.9-0.3
			c-1.8-0.5-3.6-1.1-5.3-1.7c-4.8-1.7-9.7-3.6-14.1-6c-2.4-1.4-4.8-2.7-7.1-4.2c-1.7-1.2-3.3-2.4-5-3.8c-1.4-0.9-2.6-2-3.9-3.2
			c-1.5-1.2-3-2.6-4.5-4.1c-1.7-1.7-4.1-2.4-6.3-2.1c-2.3,0.3-4.4,1.7-5.6,3.8l-2.7,4.8l-35,60.7l-7.7,13.1l-18.4,32
			c-0.8,1.4-1.5,2.9-2.1,4.4c-5.7,14.6-0.1,31.7,14.1,39.9c5,2.9,10.6,4.4,16.2,4.4c2.9,0,5.7-0.3,8.5-1.1c6.2-1.7,11.6-5,15.7-9.7
			c1.5-1.7,2.9-3.5,4.1-5.4l18.4-31.9l7.6-13.3l35-60.6l2.9-5.1C521,674.8,521.1,672.4,520.2,670.1z M465.1,741.6l-1.2,2l-21.2,36.6
			c-1.4,2.4-3.3,4.4-5.7,5.7c-1.5,1.1-3,1.8-4.8,2.3c-4.4,1.2-9.1,0.6-13.1-1.7c-4.1-2.4-6.9-6-8.2-10.6c-0.6-2.1-0.8-4.4-0.5-6.5
			v-0.1c0.3-2.3,1.1-4.5,2.3-6.5L471.9,660c0.8,0.6,1.4,1.1,2.1,1.5c1.8,1.7,3.8,3,5.9,4.4c2.6,1.8,5.1,3.5,7.9,4.8
			c0.8,0.5,1.7,0.9,2.4,1.4c2.1,1.2,4.4,2.3,6.6,3.2c1.8,0.8,3.5,1.5,5.3,2.1L465.1,741.6z M502.1,677.4l-37,64.2
			c2.1-2.6,5.6-3.5,8.6-2.1c2.7,1.1,5.4,2.1,8.2,3l35-60.6C511.8,680.7,506.9,679.2,502.1,677.4z M502.1,677.4l-37,64.2
			c2.1-2.6,5.6-3.5,8.6-2.1c2.7,1.1,5.4,2.1,8.2,3l35-60.6C511.8,680.7,506.9,679.2,502.1,677.4z"/>
		<path class="st1" d="M680.2,755.2l-18.4-32l-7.7-13.1l-35-60.7l-2.7-4.8c-1.2-2.1-3.3-3.5-5.6-3.8c-2.3-0.3-4.7,0.5-6.3,2.1
			c-1.5,1.5-3,2.9-4.5,4.1c-1.4,1.2-2.6,2.3-3.9,3.2c-1.7,1.4-3.3,2.6-5,3.8c-2.3,1.5-4.7,2.9-7.1,4.2c-4.4,2.4-9.2,4.4-14.1,6
			c-1.7,0.6-3.5,1.2-5.3,1.7c-0.3,0.1-0.6,0.1-0.9,0.3c-0.3,0.1-0.5,0.1-0.8,0.3c-1.5,0.9-2.7,2.3-3.3,3.8c-0.9,2.3-0.8,4.7,0.5,6.6
			l2.9,5.1l35,60.6l7.6,13.3l18.4,31.9c3.2,5.4,7.7,9.8,13.3,12.5c2,1.1,4.2,2,6.5,2.6c2.7,0.8,5.6,1.1,8.5,1.1
			c5.6,0,11.2-1.5,16.2-4.4c8.5-5,14.1-13,15.7-21.9C685.3,770.1,684.3,762.1,680.2,755.2z M637,780.1l-21.2-36.6l-1.2-2.1l-37-64
			c1.8-0.6,3.5-1.4,5.3-2.1c2.3-0.9,4.5-2,6.6-3.2c0.8-0.5,1.7-0.9,2.4-1.4c2.7-1.4,5.3-3,7.9-4.8c2.1-1.4,4.1-2.7,5.9-4.4
			c0.8-0.4,1.4-0.9,2.1-1.5l59.2,102.7c2.3,3.9,3,8.6,1.8,13.1c-1.2,4.5-4.1,8.2-8.2,10.6c-4.1,2.3-8.8,2.9-13.1,1.7
			C643.1,786.9,639.3,784,637,780.1z"/>
		<path class="st1" d="M434.1,594.5h-75.5c3.8,0,7.1,2.7,7.7,6.5c0.5,2.9,0.9,5.7,1.4,8.6h69.9C436.1,604.7,434.9,599.6,434.1,594.5
			z M434.1,594.5h-75.5c3.8,0,7.1,2.7,7.7,6.5c0.5,2.9,0.9,5.7,1.4,8.6h69.9C436.1,604.7,434.9,599.6,434.1,594.5z M434.1,594.5
			h-75.5c3.8,0,7.1,2.7,7.7,6.5c0.5,2.9,0.9,5.7,1.4,8.6h69.9C436.1,604.7,434.9,599.6,434.1,594.5z M434.1,594.5h-75.5
			c3.8,0,7.1,2.7,7.7,6.5c0.5,2.9,0.9,5.7,1.4,8.6h69.9C436.1,604.7,434.9,599.6,434.1,594.5z M434.1,594.5h-75.5
			c3.8,0,7.1,2.7,7.7,6.5c0.5,2.9,0.9,5.7,1.4,8.6h69.9C436.1,604.7,434.9,599.6,434.1,594.5z M434.1,594.5h-75.5
			c3.8,0,7.1,2.7,7.7,6.5c0.5,2.9,0.9,5.7,1.4,8.6h69.9C436.1,604.7,434.9,599.6,434.1,594.5z M434.1,594.5h-75.5
			c3.8,0,7.1,2.7,7.7,6.5c0.5,2.9,0.9,5.7,1.4,8.6h69.9C436.1,604.7,434.9,599.6,434.1,594.5z M449.4,594.3
			c-0.6-3.2-1.1-6.2-1.2-9.2c-0.3-2.7-0.5-5.4-0.5-8c0-2.6,0.2-5.3,0.5-8c0.1-3,0.6-6,1.2-9.2c0.5-1.8,0.9-3.8,1.4-5.7
			c0-0.3,0.1-0.5,0.1-0.8c0.3-2-0.1-4.1-1.5-5.9c-1.4-1.8-3.6-2.9-5.9-2.9h-128c-2.9,0-5.7,0.5-8.5,1.2c-13.9,3.6-24,16.2-24,31.3
			c0,16,11.5,29.2,26.6,32c2,0.3,3.9,0.5,5.9,0.5h128c2.3,0,4.5-1.1,5.9-2.9c1.4-1.8,1.8-3.9,1.5-5.9c0-0.3-0.1-0.5-0.1-0.8
			C450.3,598.1,449.8,596.1,449.4,594.3z M315.5,594.5c-2.9,0-5.7-0.8-8.2-2.1c-5.4-2.9-9.2-8.6-9.2-15.3c0-6.2,3.3-11.6,8.2-14.7
			c2.7-1.7,5.9-2.7,9.2-2.7h118.6c-0.5,2.3-0.8,4.4-0.9,6.6c-0.4,3.6-0.6,7.1-0.6,10.7c0,3.6,0.2,7.1,0.6,10.7
			c0.2,2.3,0.5,4.4,0.9,6.6H315.5z M434.1,594.5h-75.5c3.8,0,7.1,2.7,7.7,6.5c0.5,2.9,0.9,5.7,1.4,8.6h69.9
			C436.1,604.7,434.9,599.6,434.1,594.5z M434.1,594.5h-75.5c3.8,0,7.1,2.7,7.7,6.5c0.5,2.9,0.9,5.7,1.4,8.6h69.9
			C436.1,604.7,434.9,599.6,434.1,594.5z M434.1,594.5h-75.5c3.8,0,7.1,2.7,7.7,6.5c0.5,2.9,0.9,5.7,1.4,8.6h69.9
			C436.1,604.7,434.9,599.6,434.1,594.5z M434.1,594.5h-75.5c3.8,0,7.1,2.7,7.7,6.5c0.5,2.9,0.9,5.7,1.4,8.6h69.9
			C436.1,604.7,434.9,599.6,434.1,594.5z M434.1,594.5h-75.5c3.8,0,7.1,2.7,7.7,6.5c0.5,2.9,0.9,5.7,1.4,8.6h69.9
			C436.1,604.7,434.9,599.6,434.1,594.5z M434.1,594.5h-75.5c3.8,0,7.1,2.7,7.7,6.5c0.5,2.9,0.9,5.7,1.4,8.6h69.9
			C436.1,604.7,434.9,599.6,434.1,594.5z M434.1,594.5h-75.5c3.8,0,7.1,2.7,7.7,6.5c0.5,2.9,0.9,5.7,1.4,8.6h69.9
			C436.1,604.7,434.9,599.6,434.1,594.5z"/>
		<path class="st1" d="M713.5,553.2c-0.5-2.9-0.9-5.7-1.4-8.6h-69.9c1.5,4.8,2.7,10,3.5,15.1H721C717.2,559.7,714,557,713.5,553.2z
			 M713.5,553.2c-0.5-2.9-0.9-5.7-1.4-8.6h-69.9c1.5,4.8,2.7,10,3.5,15.1H721C717.2,559.7,714,557,713.5,553.2z M713.5,553.2
			c-0.5-2.9-0.9-5.7-1.4-8.6h-69.9c1.5,4.8,2.7,10,3.5,15.1H721C717.2,559.7,714,557,713.5,553.2z M713.5,553.2
			c-0.5-2.9-0.9-5.7-1.4-8.6h-69.9c1.5,4.8,2.7,10,3.5,15.1H721C717.2,559.7,714,557,713.5,553.2z M713.5,553.2
			c-0.5-2.9-0.9-5.7-1.4-8.6h-69.9c1.5,4.8,2.7,10,3.5,15.1H721C717.2,559.7,714,557,713.5,553.2z M713.5,553.2
			c-0.5-2.9-0.9-5.7-1.4-8.6h-69.9c1.5,4.8,2.7,10,3.5,15.1H721C717.2,559.7,714,557,713.5,553.2z M713.5,553.2
			c-0.5-2.9-0.9-5.7-1.4-8.6h-69.9c1.5,4.8,2.7,10,3.5,15.1H721C717.2,559.7,714,557,713.5,553.2z M713.5,553.2
			c-0.5-2.9-0.9-5.7-1.4-8.6h-69.9c1.5,4.8,2.7,10,3.5,15.1H721C717.2,559.7,714,557,713.5,553.2z M764.2,544.6h-128
			c-2.3,0-4.5,1.1-5.9,2.9c-1.4,1.8-1.8,3.9-1.5,5.9c0,0.3,0.1,0.5,0.1,0.8c0.5,2,0.9,3.9,1.4,5.7c0.6,3.2,1.1,6.2,1.2,9.2
			c0.3,2.7,0.5,5.4,0.5,8c0,2.6-0.2,5.3-0.5,8c-0.1,3-0.6,6-1.2,9.2c-0.5,1.8-0.9,3.8-1.4,5.7c0,0.3-0.1,0.5-0.1,0.8
			c-0.3,2,0.1,4.1,1.5,5.9c1.4,1.8,3.6,2.9,5.9,2.9h128c18,0,32.5-14.5,32.5-32.5S782.2,544.6,764.2,544.6z M764.2,594.5H645.6
			c0.5-2.3,0.8-4.4,0.9-6.6c0.4-3.6,0.6-7.1,0.6-10.7c0-3.6-0.2-7.1-0.6-10.7c-0.2-2.3-0.5-4.4-0.9-6.6h118.6
			c9.5,0,17.4,7.9,17.4,17.4C781.6,586.6,773.7,594.5,764.2,594.5z M713.5,553.2c-0.5-2.9-0.9-5.7-1.4-8.6h-69.9
			c1.5,4.8,2.7,10,3.5,15.1H721C717.2,559.7,714,557,713.5,553.2z M713.5,553.2c-0.5-2.9-0.9-5.7-1.4-8.6h-69.9
			c1.5,4.8,2.7,10,3.5,15.1H721C717.2,559.7,714,557,713.5,553.2z M713.5,553.2c-0.5-2.9-0.9-5.7-1.4-8.6h-69.9
			c1.5,4.8,2.7,10,3.5,15.1H721C717.2,559.7,714,557,713.5,553.2z M713.5,553.2c-0.5-2.9-0.9-5.7-1.4-8.6h-69.9
			c1.5,4.8,2.7,10,3.5,15.1H721C717.2,559.7,714,557,713.5,553.2z M713.5,553.2c-0.5-2.9-0.9-5.7-1.4-8.6h-69.9
			c1.5,4.8,2.7,10,3.5,15.1H721C717.2,559.7,714,557,713.5,553.2z M713.5,553.2c-0.5-2.9-0.9-5.7-1.4-8.6h-69.9
			c1.5,4.8,2.7,10,3.5,15.1H721C717.2,559.7,714,557,713.5,553.2z"/>
	</g>
</g>
</svg>
