<?xml version="1.0" encoding="utf-8"?>
<!-- Generator: Adobe Illustrator 26.0.3, SVG Export Plug-In . SVG Version: 6.00 Build 0)  -->
<svg version="1.1" id="Layer_1" xmlns="http://www.w3.org/2000/svg" xmlns:xlink="http://www.w3.org/1999/xlink" x="0px" y="0px"
	 viewBox="0 0 1080 1080" style="enable-background:new 0 0 1080 1080;" xml:space="preserve">
<style type="text/css">
	.st0{fill:#9BC9EB;}
	.st1{fill:#4D598D;}
	.st2{fill:#9BC9EB;stroke:#4D598D;stroke-width:16;stroke-linecap:round;stroke-linejoin:round;stroke-miterlimit:10;}
	.st3{fill:#4D598D;stroke:#4D598D;stroke-width:0.3;stroke-miterlimit:10;}
	.st4{fill:#FFFFFF;}
	.st5{fill:#263A6E;}
	.st6{fill:#0E71B9;}
	.st7{fill:#23376F;}
	.st8{fill:#FFFFFF;stroke:#23376F;stroke-width:24;stroke-linecap:round;stroke-linejoin:round;stroke-miterlimit:10;}
	.st9{fill:#20ADE4;}
	.st10{fill:#EDF4FB;}
	.st11{fill:#234698;}
	.st12{fill-rule:evenodd;clip-rule:evenodd;fill:#0E71B9;}
	.st13{fill-rule:evenodd;clip-rule:evenodd;fill:#EDF4FB;}
	.st14{fill:#C6DEF4;}
	.st15{fill:#ABC7E8;}
	.st16{fill-rule:evenodd;clip-rule:evenodd;fill:#9CC0E6;}
	.st17{fill-rule:evenodd;clip-rule:evenodd;fill:#FFFFFF;}
	.st18{fill-rule:evenodd;clip-rule:evenodd;fill:#BBD4EE;}
	.st19{fill:#568AC8;}
	.st20{fill-rule:evenodd;clip-rule:evenodd;fill:#7AA8D9;}
	.st21{fill:#BBD4EE;}
	.st22{fill-rule:evenodd;clip-rule:evenodd;fill:#F4B1B1;}
	.st23{fill-rule:evenodd;clip-rule:evenodd;fill:#CDDFF3;}
	.st24{fill-rule:evenodd;clip-rule:evenodd;fill:#3050A3;}
	
		.st25{clip-path:url(#SVGID_00000181784123579890279380000000923721392812467871_);fill:url(#SVGID_00000144332860457841804290000017545961369640289438_);}
	.st26{fill-rule:evenodd;clip-rule:evenodd;fill:#25AFA6;}
	.st27{fill-rule:evenodd;clip-rule:evenodd;fill:#5ABEBB;}
	.st28{fill-rule:evenodd;clip-rule:evenodd;fill:#355399;}
	.st29{fill-rule:evenodd;clip-rule:evenodd;fill:#223B74;}
	.st30{fill-rule:evenodd;clip-rule:evenodd;fill:#76A1D5;}
	.st31{fill-rule:evenodd;clip-rule:evenodd;fill:#E98385;}
	.st32{fill:#F4B1B1;}
	.st33{fill:#F5EC79;}
	.st34{fill:#DDE293;}
	.st35{fill-rule:evenodd;clip-rule:evenodd;fill:#F5EC79;}
	.st36{fill-rule:evenodd;clip-rule:evenodd;fill:#DDE293;}
	.st37{fill-rule:evenodd;clip-rule:evenodd;fill:#F3AF8F;}
	.st38{fill-rule:evenodd;clip-rule:evenodd;fill:#7FAADA;}
	.st39{fill-rule:evenodd;clip-rule:evenodd;fill:#929CCF;}
	.st40{fill-rule:evenodd;clip-rule:evenodd;fill:#6E7DBD;}
	.st41{fill:#6E7DBD;}
	.st42{fill-rule:evenodd;clip-rule:evenodd;fill:#E16C6C;}
	.st43{fill:#929CCF;}
	.st44{opacity:0.79;fill-rule:evenodd;clip-rule:evenodd;fill:#FFFFFF;}
	.st45{fill:#11497F;}
	.st46{fill:#C4E8FA;}
	.st47{fill:none;stroke:#4F74B9;stroke-width:9.983;stroke-linecap:round;stroke-linejoin:round;stroke-miterlimit:10;}
	.st48{fill:#4F74B9;}
</style>
<g>
	<path class="st0" d="M540,282c-18.3,0-33.1,14.8-33.1,33.1s14.8,33.1,33.1,33.1c18.3,0,33.1-14.8,33.1-33.1S558.3,282,540,282z
		 M540,282c-18.3,0-33.1,14.8-33.1,33.1s14.8,33.1,33.1,33.1c18.3,0,33.1-14.8,33.1-33.1S558.3,282,540,282z M884.1,533.4h-21.8
		l-90.5-258.8l42.7-13.9c17.5-5.7,27-24.3,21.3-41.7c-2.8-8.5-8.6-15.2-16.4-19.3c-7.9-4-16.9-4.6-25.3-2l-202.6,65.9
		c-5.4-5.3-11.5-9.8-18.4-13.2v-27.9c0-18.3-14.8-33.1-33.1-33.1c-18.3,0-33.1,14.8-33.1,33.1v27.9c-20.3,10.3-35.1,30-38.8,53.3
		l-202.6,65.8c-17.5,5.7-27,24.3-21.3,41.7c2.8,8.5,8.6,15.2,16.4,19.3c4.8,2.4,9.9,3.6,15.1,3.6c3.4,0,6.9-0.5,10.2-1.6l20.4-6.6
		l-88.5,253.1h-21.8c-3.7,0-6.6,2.9-6.6,6.6c0,49.1,54,86,125.7,86c71.7,0,125.7-36.9,125.7-86c0-3.7-2.9-6.6-6.6-6.6h-21.8
		l-90.4-258.3l166.6-54.1c5.4,5.3,11.5,9.8,18.4,13.2v391.8h-59.5c-18.3,0-33.1,14.8-33.1,33.1c0,7.4,2.5,14.4,6.6,19.8H368
		c-18.3,0-33.1,14.8-33.1,33.1c0,18.3,14.8,33.1,33.1,33.1H712c18.3,0,33.1-14.8,33.1-33.1c0-18.3-14.8-33.1-33.1-33.1h-52.9
		c4.1-5.4,6.6-12.4,6.6-19.8c0-18.3-14.8-33.1-33.1-33.1h-59.5V379.7c20.2-10.3,35.1-30,38.8-53.3l144.6-47l-88.8,253.9h-21.8
		c-3.7,0-6.6,2.9-6.6,6.6c0,49.1,54,86,125.7,86c71.7,0,125.7-36.9,125.7-86C890.7,536.3,887.8,533.4,884.1,533.4z M315,758.3
		c-59.7,0-107.1-28.6-112.1-66.2h224.2C422.1,729.8,374.7,758.3,315,758.3z M398.3,678.9H231.8L315,440.9L398.3,678.9z M564.2,369.4
		c-0.4,0.1-0.7,0.3-1.1,0.5c-7.1,3-15,4.6-23.2,4.6c-8.2,0-16-1.6-23.2-4.6c-0.4-0.3-0.7-0.4-1.1-0.5c-7.7-3.3-14.4-8.3-20-14.4
		c-0.3-0.3-0.4-0.5-0.7-0.8c-9.1-10.6-14.7-24.1-14.7-39.2c0-2.1,0.1-4.1,0.3-6.1v-0.4c2.4-21.4,16.2-39.4,35.1-47.9
		c0.4-0.1,0.7-0.3,1.1-0.5c7.1-3,15-4.6,23.2-4.6c8.2,0,16,1.6,23.2,4.6c0.4,0.3,0.7,0.4,1.1,0.5c7.7,3.3,14.4,8.3,20,14.4
		c0,0.1,0.1,0.3,0.3,0.4c9.4,10.6,15.1,24.3,15.1,39.6c0,2.1-0.1,4.1-0.3,6.1v0.4C596.9,343,583.1,361,564.2,369.4z M765,295.3
		l83.2,238.1H681.7L765,295.3z M765,612.8c-59.7,0-107.1-28.6-112.1-66.2H877C872,584.2,824.6,612.8,765,612.8z M540,282
		c-18.3,0-33.1,14.8-33.1,33.1s14.8,33.1,33.1,33.1c18.3,0,33.1-14.8,33.1-33.1S558.3,282,540,282z M540,282
		c-18.3,0-33.1,14.8-33.1,33.1s14.8,33.1,33.1,33.1c18.3,0,33.1-14.8,33.1-33.1S558.3,282,540,282z M540,282
		c-18.3,0-33.1,14.8-33.1,33.1s14.8,33.1,33.1,33.1c18.3,0,33.1-14.8,33.1-33.1S558.3,282,540,282z"/>
	<g>
		<path class="st5" d="M559.8,254.4V245c-6.4-1.8-13-2.8-19.8-2.8c-6.9,0-13.5,0.9-19.8,2.8v9.4c0,2.4-1.3,4.5-3.3,5.7
			c7.1-3,15-4.6,23.2-4.6c8.2,0,16,1.6,23.2,4.6C561.2,258.9,559.8,256.8,559.8,254.4z M540,374.6c-8.2,0-16-1.6-23.2-4.6
			c2,1.2,3.3,3.3,3.3,5.7v9.4c6.4,1.8,13,2.8,19.8,2.8c6.9,0,13.5-0.9,19.8-2.8v-9.4c0-2.4,1.3-4.5,3.3-5.7
			C556,373,548.2,374.6,540,374.6z M480.5,315c0-2.1,0.1-4.1,0.3-6.1c-0.1,2.6-1.8,5-4.5,6l-8.9,2.9c0.4,14,4.9,26.9,12.2,37.7
			l9-2.9c2-0.7,4.2-0.3,5.8,0.9c0.4,0.1,0.7,0.4,0.8,0.7C486,343.6,480.5,330.1,480.5,315z M559.8,254.4V245
			c-6.4-1.8-13-2.8-19.8-2.8c-6.9,0-13.5,0.9-19.8,2.8v9.4c0,2.4-1.3,4.5-3.3,5.7c7.1-3,15-4.6,23.2-4.6c8.2,0,16,1.6,23.2,4.6
			C561.2,258.9,559.8,256.8,559.8,254.4z M540,374.6c-8.2,0-16-1.6-23.2-4.6c2,1.2,3.3,3.3,3.3,5.7v9.4c6.4,1.8,13,2.8,19.8,2.8
			c6.9,0,13.5-0.9,19.8-2.8v-9.4c0-2.4,1.3-4.5,3.3-5.7C556,373,548.2,374.6,540,374.6z M480.5,315c0-2.1,0.1-4.1,0.3-6.1
			c-0.1,2.6-1.8,5-4.5,6l-8.9,2.9c0.4,14,4.9,26.9,12.2,37.7l9-2.9c2-0.7,4.2-0.3,5.8,0.9c0.4,0.1,0.7,0.4,0.8,0.7
			C486,343.6,480.5,330.1,480.5,315z M612.7,312.3c-0.4-14-4.9-26.9-12.2-37.7c-2.6-4-5.7-7.7-9-11c-5.4-5.3-11.5-9.8-18.4-13.2
			c-4.2-2.2-8.6-4-13.2-5.3c-6.4-1.8-13-2.8-19.8-2.8c-6.9,0-13.5,0.9-19.8,2.8c-4.6,1.3-9,3-13.2,5.3c-20.3,10.3-35.1,30-38.8,53.3
			c-0.7,3.7-0.9,7.5-0.9,11.4c0,0.9,0,1.8,0.1,2.8c0.4,14,4.9,26.9,12.2,37.7c2.6,4,5.7,7.7,9,11c5.4,5.3,11.5,9.8,18.4,13.2
			c4.2,2.2,8.6,4,13.2,5.3c6.4,1.8,13,2.8,19.8,2.8c6.9,0,13.5-0.9,19.8-2.8c4.6-1.3,9-3,13.2-5.3c20.2-10.3,35.1-30,38.8-53.3
			c0.7-3.7,0.9-7.5,0.9-11.4C612.8,314.1,612.8,313.2,612.7,312.3z M564.2,369.4c-0.4,0.1-0.7,0.3-1.1,0.5c-7.1,3-15,4.6-23.2,4.6
			c-8.2,0-16-1.6-23.2-4.6c-0.4-0.3-0.7-0.4-1.1-0.5c-7.7-3.3-14.4-8.3-20-14.4c-0.3-0.3-0.4-0.5-0.7-0.8
			c-9.1-10.6-14.7-24.1-14.7-39.2c0-2.1,0.1-4.1,0.3-6.1v-0.4c2.4-21.4,16.2-39.4,35.1-47.9c0.4-0.1,0.7-0.3,1.1-0.5
			c7.1-3,15-4.6,23.2-4.6c8.2,0,16,1.6,23.2,4.6c0.4,0.3,0.7,0.4,1.1,0.5c7.7,3.3,14.4,8.3,20,14.4c0,0.1,0.1,0.3,0.3,0.4
			c9.4,10.6,15.1,24.3,15.1,39.6c0,2.1-0.1,4.1-0.3,6.1v0.4C596.9,343,583.1,361,564.2,369.4z M480.5,315c0-2.1,0.1-4.1,0.3-6.1
			c-0.1,2.6-1.8,5-4.5,6l-8.9,2.9c0.4,14,4.9,26.9,12.2,37.7l9-2.9c2-0.7,4.2-0.3,5.8,0.9c0.4,0.1,0.7,0.4,0.8,0.7
			C486,343.6,480.5,330.1,480.5,315z M540,374.6c-8.2,0-16-1.6-23.2-4.6c2,1.2,3.3,3.3,3.3,5.7v9.4c6.4,1.8,13,2.8,19.8,2.8
			c6.9,0,13.5-0.9,19.8-2.8v-9.4c0-2.4,1.3-4.5,3.3-5.7C556,373,548.2,374.6,540,374.6z M559.8,254.4V245c-6.4-1.8-13-2.8-19.8-2.8
			c-6.9,0-13.5,0.9-19.8,2.8v9.4c0,2.4-1.3,4.5-3.3,5.7c7.1-3,15-4.6,23.2-4.6c8.2,0,16,1.6,23.2,4.6
			C561.2,258.9,559.8,256.8,559.8,254.4z M540,374.6c-8.2,0-16-1.6-23.2-4.6c2,1.2,3.3,3.3,3.3,5.7v9.4c6.4,1.8,13,2.8,19.8,2.8
			c6.9,0,13.5-0.9,19.8-2.8v-9.4c0-2.4,1.3-4.5,3.3-5.7C556,373,548.2,374.6,540,374.6z M559.8,254.4V245c-6.4-1.8-13-2.8-19.8-2.8
			c-6.9,0-13.5,0.9-19.8,2.8v9.4c0,2.4-1.3,4.5-3.3,5.7c7.1-3,15-4.6,23.2-4.6c8.2,0,16,1.6,23.2,4.6
			C561.2,258.9,559.8,256.8,559.8,254.4z"/>
		<path class="st5" d="M540,282c-18.3,0-33.1,14.8-33.1,33.1s14.8,33.1,33.1,33.1c18.3,0,33.1-14.8,33.1-33.1S558.3,282,540,282z
			 M540,334.9c-11,0-19.8-8.9-19.8-19.8c0-11,8.9-19.8,19.8-19.8c11,0,19.8,8.9,19.8,19.8C559.8,326,551,334.9,540,334.9z"/>
		<path class="st5" d="M413.9,683.3l-1.6-4.4l-90.4-258.3l-0.7-2c-1.8-5.3-10.6-5.3-12.4,0l-2.5,7.1l-88.5,253.1l-1.6,4.4
			c-0.8,2.1-0.4,4.4,0.8,6.1c1.3,1.7,3.3,2.8,5.4,2.8h185.3c2.1,0,4.1-1.1,5.4-2.8C414.3,687.7,414.7,685.4,413.9,683.3z
			 M231.8,678.9L315,440.9l83.2,238.1H231.8z"/>
		<path class="st5" d="M745.1,857.6c0,18.3-14.8,33.1-33.1,33.1H368c-18.3,0-33.1-14.8-33.1-33.1c0-18.3,14.8-33.1,33.1-33.1h105.9
			c3.7,0,6.6,2.9,6.6,6.6c0,3.7-2.9,6.6-6.6,6.6H368c-11,0-19.8,8.9-19.8,19.8c0,11,8.9,19.8,19.8,19.8H712c11,0,19.8-8.9,19.8-19.8
			c0-11-8.9-19.8-19.8-19.8H566.5c-3.7,0-6.6-2.9-6.6-6.6c0-3.7,2.9-6.6,6.6-6.6H712C730.3,824.5,745.1,839.3,745.1,857.6z"/>
		<path class="st5" d="M665.7,804.7c0,7.4-2.5,14.4-6.6,19.8c-6.1,8.1-15.6,13.2-26.5,13.2c-3.7,0-6.6-2.9-6.6-6.6
			c0-3.7,2.9-6.6,6.6-6.6c11,0,19.8-8.9,19.8-19.8s-8.9-19.8-19.8-19.8H447.4c-11,0-19.8,8.9-19.8,19.8s8.9,19.8,19.8,19.8
			c3.7,0,6.6,2.9,6.6,6.6c0,3.7-2.9,6.6-6.6,6.6c-10.9,0-20.4-5.2-26.5-13.2c-4.1-5.4-6.6-12.4-6.6-19.8c0-18.3,14.8-33.1,33.1-33.1
			h185.3C650.9,771.6,665.7,786.4,665.7,804.7z"/>
		<path class="st5" d="M492.5,365.2l-4,1.3l-166.6,54.1l-15.6,5.2l-20.4,6.6c-3.3,1.1-6.7,1.6-10.2,1.6c-5.2,0-10.3-1.2-15.1-3.6
			c-7.8-4.1-13.6-10.8-16.4-19.3c-5.7-17.3,3.8-36,21.3-41.7l202.6-65.8l4-1.3c3.4-1.2,7.3,0.8,8.3,4.2c0.3,0.7,0.3,1.3,0.3,2v0.4
			c-0.1,2.6-1.8,5-4.5,6l-8.9,2.9L269.5,382c-10.3,3.4-16,14.7-12.7,25c1.7,5,5.2,9.1,9.9,11.6c4.6,2.4,10.1,2.8,15.1,1.2
			l197.7-64.3l9-2.9c2-0.7,4.2-0.3,5.8,0.9c0.7,0.4,1.1,0.9,1.5,1.4c0.5,0.5,0.8,1.2,1.1,1.9C497.9,360.4,496.1,364.1,492.5,365.2z"
			/>
		<path class="st5" d="M814.4,260.7l-42.7,13.9l-15.2,4.9l-144.6,47l-4,1.3c-0.7,0.3-1.3,0.4-2,0.4c-2.8,0-5.4-1.9-6.4-4.6
			c-0.3-0.7-0.3-1.3-0.3-2v-0.4c0.1-2.6,1.8-5,4.5-6l8.9-2.9l197.8-64.2c10.3-3.4,16-14.7,12.7-25c-1.7-5-5.2-9.1-9.9-11.6
			c-4.6-2.4-10.1-2.8-15.1-1.2l-197.7,64.3l-9,2.9c-2.5,0.8-5.3,0-7-2c-0.1-0.1-0.3-0.3-0.3-0.4c-0.5-0.5-0.8-1.2-1.1-1.9
			c-1.1-3.6,0.8-7.3,4.4-8.3l4-1.3l202.6-65.9c8.3-2.6,17.3-2,25.3,2c7.8,4.1,13.6,10.8,16.4,19.3
			C841.4,236.3,831.9,255,814.4,260.7z"/>
		<path class="st5" d="M863.8,537.8l-1.6-4.4l-90.5-258.8l-0.5-1.5c-1.8-5.3-10.6-5.3-12.4,0l-2.2,6.3l-88.8,253.9l-1.6,4.4
			c-0.8,2.1-0.4,4.4,0.8,6.1c1.3,1.7,3.3,2.8,5.4,2.8h185.3c2.1,0,4.1-1.1,5.4-2.8C864.2,542.1,864.6,539.9,863.8,537.8z
			 M681.7,533.4L765,295.3l83.2,238.1H681.7z"/>
		<path class="st5" d="M884.1,533.4H645.9c-3.7,0-6.6,2.9-6.6,6.6c0,49.1,54,86,125.7,86c71.7,0,125.7-36.9,125.7-86
			C890.7,536.3,887.8,533.4,884.1,533.4z M765,612.8c-59.7,0-107.1-28.6-112.1-66.2H877C872,584.2,824.6,612.8,765,612.8z"/>
		<path class="st5" d="M434.1,678.9H195.9c-3.7,0-6.6,2.9-6.6,6.6c0,49.1,54,86,125.7,86c71.7,0,125.7-36.9,125.7-86
			C440.8,681.9,437.8,678.9,434.1,678.9z M315,758.3c-59.7,0-107.1-28.6-112.1-66.2h224.2C422.1,729.8,374.7,758.3,315,758.3z"/>
		<path class="st5" d="M573.1,222.4v32c0,3.6-2.9,6.6-6.6,6.6c-0.8,0-1.6-0.1-2.2-0.4c-0.4-0.1-0.7-0.3-1.1-0.5
			c-2-1.2-3.3-3.3-3.3-5.7v-32c0-11-8.9-19.8-19.8-19.8c-11,0-19.8,8.9-19.8,19.8v32c0,2.4-1.3,4.5-3.3,5.7
			c-0.4,0.3-0.7,0.4-1.1,0.5c-0.7,0.3-1.5,0.4-2.2,0.4c-3.7,0-6.6-3-6.6-6.6v-32c0-18.3,14.8-33.1,33.1-33.1
			C558.3,189.3,573.1,204.2,573.1,222.4z"/>
		<path class="st5" d="M573.1,375.7v402.5c0,3.7-2.9,6.6-6.6,6.6h-52.9c-3.7,0-6.6-2.9-6.6-6.6V375.7c0-3.6,2.9-6.6,6.6-6.6
			c0.8,0,1.6,0.1,2.2,0.4c0.4,0.1,0.7,0.3,1.1,0.5c2,1.2,3.3,3.3,3.3,5.7v395.9h39.7V375.7c0-2.4,1.3-4.5,3.3-5.7
			c0.4-0.3,0.7-0.4,1.1-0.5c0.7-0.3,1.5-0.4,2.2-0.4C570.2,369,573.1,372.1,573.1,375.7z"/>
	</g>
</g>
</svg>
