<?xml version="1.0" encoding="utf-8"?>
<!-- Generator: Adobe Illustrator 26.0.3, SVG Export Plug-In . SVG Version: 6.00 Build 0)  -->
<svg version="1.1" id="Layer_1" xmlns="http://www.w3.org/2000/svg" xmlns:xlink="http://www.w3.org/1999/xlink" x="0px" y="0px"
	 viewBox="0 0 1080 1080" style="enable-background:new 0 0 1080 1080;" xml:space="preserve">
<style type="text/css">
	.st0{fill:#9BC9EB;}
	.st1{fill:#4D598D;}
	.st2{fill:#9BC9EB;stroke:#4D598D;stroke-width:16;stroke-linecap:round;stroke-linejoin:round;stroke-miterlimit:10;}
	.st3{fill:#4D598D;stroke:#4D598D;stroke-width:0.3;stroke-miterlimit:10;}
	.st4{fill:#FFFFFF;}
	.st5{fill:#263A6E;}
	.st6{fill:#0E71B9;}
	.st7{fill:#23376F;}
	.st8{fill:#FFFFFF;stroke:#23376F;stroke-width:24;stroke-linecap:round;stroke-linejoin:round;stroke-miterlimit:10;}
	.st9{fill:#20ADE4;}
	.st10{fill:#EDF4FB;}
	.st11{fill:#234698;}
	.st12{fill-rule:evenodd;clip-rule:evenodd;fill:#0E71B9;}
	.st13{fill-rule:evenodd;clip-rule:evenodd;fill:#EDF4FB;}
	.st14{fill:#C6DEF4;}
	.st15{fill:#ABC7E8;}
	.st16{fill-rule:evenodd;clip-rule:evenodd;fill:#9CC0E6;}
	.st17{fill-rule:evenodd;clip-rule:evenodd;fill:#FFFFFF;}
	.st18{fill-rule:evenodd;clip-rule:evenodd;fill:#BBD4EE;}
	.st19{fill:#568AC8;}
	.st20{fill-rule:evenodd;clip-rule:evenodd;fill:#7AA8D9;}
	.st21{fill:#BBD4EE;}
	.st22{fill-rule:evenodd;clip-rule:evenodd;fill:#F4B1B1;}
	.st23{fill-rule:evenodd;clip-rule:evenodd;fill:#CDDFF3;}
	.st24{fill-rule:evenodd;clip-rule:evenodd;fill:#3050A3;}
	
		.st25{clip-path:url(#SVGID_00000100377901261936699210000015027098969354738856_);fill:url(#SVGID_00000086664055997347397860000013016103902351729068_);}
	.st26{fill-rule:evenodd;clip-rule:evenodd;fill:#25AFA6;}
	.st27{fill-rule:evenodd;clip-rule:evenodd;fill:#5ABEBB;}
	.st28{fill-rule:evenodd;clip-rule:evenodd;fill:#355399;}
	.st29{fill-rule:evenodd;clip-rule:evenodd;fill:#223B74;}
	.st30{fill-rule:evenodd;clip-rule:evenodd;fill:#76A1D5;}
	.st31{fill-rule:evenodd;clip-rule:evenodd;fill:#E98385;}
	.st32{fill:#F4B1B1;}
	.st33{fill:#F5EC79;}
	.st34{fill:#DDE293;}
	.st35{fill-rule:evenodd;clip-rule:evenodd;fill:#F5EC79;}
	.st36{fill-rule:evenodd;clip-rule:evenodd;fill:#DDE293;}
	.st37{fill-rule:evenodd;clip-rule:evenodd;fill:#F3AF8F;}
	.st38{fill-rule:evenodd;clip-rule:evenodd;fill:#7FAADA;}
	.st39{fill-rule:evenodd;clip-rule:evenodd;fill:#929CCF;}
	.st40{fill-rule:evenodd;clip-rule:evenodd;fill:#6E7DBD;}
	.st41{fill:#6E7DBD;}
	.st42{fill-rule:evenodd;clip-rule:evenodd;fill:#E16C6C;}
	.st43{fill:#929CCF;}
	.st44{opacity:0.79;fill-rule:evenodd;clip-rule:evenodd;fill:#FFFFFF;}
	.st45{fill:#11497F;}
	.st46{fill:#C4E8FA;}
	.st47{fill:none;stroke:#4F74B9;stroke-width:9.983;stroke-linecap:round;stroke-linejoin:round;stroke-miterlimit:10;}
	.st48{fill:#4F74B9;}
</style>
<g>
	<path class="st5" d="M739.3,533.7c-16,0-31.6-2.5-46.5-7.4c-21.6-7-40.9-18.5-57.2-34.2c-4-3.7-7.7-7.6-11.4-12
		c-17.7-21-29.2-46.2-33.4-72.7c-1.3-8.1-2-16.3-2-24.2c0-83,67.5-150.5,150.5-150.5c40.2,0,78,15.7,106.5,44.1
		c28.4,28.4,44.1,66.2,44.1,106.4C889.9,466.1,822.4,533.7,739.3,533.7z M739.3,248c-74.5,0-135.1,60.6-135.1,135.1
		c0,7.1,0.6,14.5,1.8,21.8c3.8,23.8,14.1,46.4,30,65.3c3.3,3.9,6.6,7.4,10.1,10.6c0.1,0,0.1,0.1,0.2,0.1
		c14.6,14.1,31.9,24.4,51.3,30.7c13.3,4.4,27.4,6.6,41.7,6.6c74.6,0,135.2-60.7,135.2-135.2c0-36.1-14.1-70-39.6-95.5
		C809.4,262,775.4,248,739.3,248z"/>
	<path class="st5" d="M630.2,482.8H364.3c-3.4,0-6.4-2.2-7.4-5.5l-17.8-60.7c-0.7-2.3-0.2-4.8,1.2-6.8c1.5-1.9,3.7-3.1,6.2-3.1h252
		c3.6,0,6.7,2.5,7.5,5.9c4.2,18.1,16,40.7,30.1,57.5c1.9,2.3,2.3,5.5,1.1,8.2C635.9,481,633.2,482.8,630.2,482.8z M370.1,467.4
		h244.7c-9.9-14.4-17.8-30.5-22.2-45.3H356.8L370.1,467.4z"/>
	<path class="st5" d="M458.1,623.3h-41c-2.2,0-4.3-1-5.8-2.6c-1.5-1.7-2.1-3.9-1.8-6.1l18.3-140.5c0.5-3.8,3.8-6.7,7.6-6.7h41
		c2.2,0,4.3,1,5.8,2.6c1.5,1.7,2.1,3.9,1.8,6.1l-18.3,140.5C465.2,620.4,461.9,623.3,458.1,623.3z M425.8,607.9h25.5l16.3-125.1
		h-25.5L425.8,607.9z"/>
	<path class="st5" d="M561.4,623.3h-41c-2.2,0-4.3-1-5.8-2.6c-1.5-1.7-2.1-3.9-1.8-6.1l18.4-140.5c0.5-3.8,3.8-6.7,7.6-6.7h41
		c2.2,0,4.3,1,5.8,2.6c1.5,1.7,2.1,3.9,1.8,6.1l-18.4,140.5C568.6,620.4,565.3,623.3,561.4,623.3z M529.2,607.9h25.5l16.4-125.1
		h-25.5L529.2,607.9z"/>
	<path class="st5" d="M665,623.3h-41.1c-2.2,0-4.3-1-5.8-2.6c-1.5-1.7-2.1-3.9-1.8-6.1l17.1-129.2c0.6-4.2,4.4-7.2,8.6-6.6
		c4.2,0.6,7.2,4.4,6.6,8.6l-15.9,120.5h25.6l14-96.1c0.6-4.2,4.5-7.1,8.7-6.5c4.2,0.6,7.1,4.5,6.5,8.7l-14.9,102.7
		C672,620.5,668.8,623.3,665,623.3z"/>
	<g>
		<path class="st0" d="M745.8,629.3c0,19-15.5,34.5-34.5,34.5H414.7c-20.6,0-39.6-8.5-53.4-22.4c-9.1-9.2-15.9-20.7-19.4-34.1
			L244.5,235c-4.8-18.5,6.2-37.2,24.7-42c18.4-4.9,37.3,6.1,42,24.6l52,196.8l17.9,69l27.7,106.7c0.7,2.8,3.2,4.7,6,4.7h296.6
			C730.4,594.8,745.8,610.3,745.8,629.3z"/>
		<path class="st5" d="M711.3,671.5H414.7c-22.2,0-43.1-8.8-58.9-24.6c-10.5-10.6-17.6-23.2-21.3-37.5L237,237
			c-5.8-22.5,7.7-45.5,30.2-51.3c10.9-2.9,22.2-1.3,32,4.4c9.7,5.7,16.6,14.9,19.3,25.8l52,196.7l45.4,174.7h295.4
			c23.3,0,42.2,18.9,42.2,42.2C753.5,652.6,734.6,671.5,711.3,671.5z M278,199.6c-2.3,0-4.6,0.3-6.9,0.9
			c-14.3,3.7-22.9,18.3-19.2,32.6l97.5,372.4c3,11.7,8.9,22,17.4,30.6c12.8,13,29.9,20.1,48,20.1h296.6c14.8,0,26.8-12,26.8-26.8
			c0-14.8-12-26.8-26.8-26.8H414.7c-6.4,0-12-4.3-13.5-10.6l-45.6-175.6l-52-196.7c-1.8-7-6.1-12.8-12.3-16.4
			C287.3,200.8,282.7,199.6,278,199.6z M416.2,588.2L416.2,588.2C416.2,588.2,416.2,588.2,416.2,588.2z"/>
	</g>
	<path class="st5" d="M385.4,820.2c-0.6,0-1.2-0.1-1.8-0.2c-21.9-5.1-44.7-12-68-20.4c-3.8-1.4-5.9-5.4-4.8-9.2l41.3-152.8
		c1.1-4.1,5.3-6.5,9.4-5.4c4.1,1.1,6.5,5.3,5.4,9.4l-39.4,145.9c18,6.3,35.8,11.6,53,15.9l37-101.6c0.9-3.4,4-5.9,7.6-5.9h207.4
		c3.4,0,6.4,2.3,7.5,5.3l37.7,93.2c17.6-5.6,34.9-12.1,52.5-19.7l-29.3-108.9c-1.1-4.1,1.3-8.3,5.4-9.4c4.1-1.1,8.3,1.3,9.4,5.4
		l31.1,115.3c1,3.7-0.8,7.5-4.3,9c-22.5,10-44.4,18.2-67,25.1c-3.8,1.2-7.9-0.8-9.4-4.5l-38.6-95.5H430.4l-37.8,103.8
		C391.5,818.2,388.5,820.2,385.4,820.2z M625.2,704c0,0.7,0.1,1.3,0.3,2C625.3,705.4,625.2,704.7,625.2,704z M432.6,704
		C432.6,704,432.6,704,432.6,704C432.6,704,432.6,704,432.6,704z M625.2,704C625.2,704,625.2,704,625.2,704
		C625.2,704,625.2,704,625.2,704z M432.6,704C432.6,704,432.6,704,432.6,704C432.6,704,432.6,704,432.6,704z"/>
	<g>
		<path class="st0" d="M820.4,769.9c-8.6-17-29.4-23.9-46.4-15.2c-78.8,39.8-162.3,63.8-251.3,65.1c-96.5,1.4-188.5-23.9-275.6-65.4
			c-17.1-8.2-37.7-1-45.9,16.2c-8.2,17.2-1,37.8,16.2,46c99.9,47.8,199.4,71.6,297.4,71.6c103.7,0,202.8-27.3,290.5-72
			C822.2,807.6,828.9,786.9,820.4,769.9z"/>
		<path class="st5" d="M514.7,895.8c-99.2,0-200.4-24.3-300.7-72.4c-20.9-10-29.8-35.3-19.8-56.3c10-21,35.2-29.8,56.2-19.8
			c93.9,44.9,183,66,272.2,64.7c82.6-1.2,166-22.9,248-64.3c10-5.1,21.4-6,32.2-2.5c10.8,3.5,19.5,11,24.6,21.1l0,0
			c5.1,10.1,5.9,21.5,2.4,32.2c-3.5,10.7-11,19.4-21,24.4C715.1,870.6,613.4,895.8,514.7,895.8z M232.2,758.6
			c-10,0-19.6,5.6-24.2,15.2c-6.4,13.4-0.7,29.4,12.6,35.8c98.2,47,197.2,70.9,294.1,70.9c96.3,0,195.6-24.6,287-71.1
			c6.4-3.2,11.2-8.7,13.4-15.5c2.2-6.8,1.7-14-1.5-20.4c0,0,0,0,0,0c-3.2-6.4-8.8-11.2-15.6-13.4c-6.8-2.2-14.1-1.7-20.4,1.6
			c-84.1,42.5-169.7,64.7-254.7,65.9c-91.6,1.4-182.9-20.3-279.1-66.2C240,759.4,236.1,758.6,232.2,758.6z"/>
	</g>
	<path class="st5" d="M605.9,441.3h-0.3c-4.2,0-7.7-3.4-7.7-7.7v-0.9c0-4.2,3.4-7.7,7.7-7.7c3.5,0,6.4,2.3,7.4,5.5
		c1,2.1,0.9,4.6-0.2,6.7C611.3,439.7,608.7,441.3,605.9,441.3z M613.3,432.7L613.3,432.7L613.3,432.7z"/>
	<path class="st5" d="M739.4,461.1c-23.6,0-42.8-19.2-42.8-42.8c0-4.2,3.4-7.7,7.7-7.7s7.7,3.4,7.7,7.7c0,15.1,12.3,27.4,27.4,27.4
		c15.1,0,27.4-12.3,27.4-27.4c0-15.1-12.3-27.4-27.4-27.4c-23.6,0-42.8-19.2-42.8-42.8c0-23.6,19.2-42.8,42.8-42.8
		c23.6,0,42.8,19.2,42.8,42.8c0,4.2-3.4,7.7-7.7,7.7s-7.7-3.4-7.7-7.7c0-15.1-12.3-27.4-27.4-27.4c-15.1,0-27.4,12.3-27.4,27.4
		c0,15.1,12.3,27.4,27.4,27.4c23.6,0,42.8,19.2,42.8,42.8C782.2,441.9,763,461.1,739.4,461.1z"/>
	<path class="st5" d="M739.4,320.5c-4.2,0-7.7-3.4-7.7-7.7V292c0-4.2,3.4-7.7,7.7-7.7s7.7,3.4,7.7,7.7v20.9
		C747.1,317.1,743.6,320.5,739.4,320.5z"/>
	<path class="st5" d="M739.4,481.9c-4.2,0-7.7-3.4-7.7-7.7v-20.9c0-4.2,3.4-7.7,7.7-7.7s7.7,3.4,7.7,7.7v20.9
		C747.1,478.5,743.6,481.9,739.4,481.9z"/>
	<path class="st5" d="M831.6,390.8h-8.1c-4.2,0-7.7-3.4-7.7-7.7c0-4.2,3.4-7.7,7.7-7.7h8.1c4.2,0,7.7,3.4,7.7,7.7
		C839.3,387.4,835.8,390.8,831.6,390.8z"/>
	<path class="st5" d="M655.3,390.8h-8.1c-4.2,0-7.7-3.4-7.7-7.7c0-4.2,3.4-7.7,7.7-7.7h8.1c4.2,0,7.7,3.4,7.7,7.7
		C663,387.4,659.5,390.8,655.3,390.8z"/>
</g>
</svg>
