<?xml version="1.0" encoding="utf-8"?>
<!-- Generator: Adobe Illustrator 26.0.3, SVG Export Plug-In . SVG Version: 6.00 Build 0)  -->
<svg version="1.1" id="Layer_1" xmlns="http://www.w3.org/2000/svg" xmlns:xlink="http://www.w3.org/1999/xlink" x="0px" y="0px"
	 viewBox="0 0 1080 1080" style="enable-background:new 0 0 1080 1080;" xml:space="preserve">
<style type="text/css">
	.st0{fill:#9BC9EB;}
	.st1{fill:#4D598D;}
	.st2{fill:#9BC9EB;stroke:#4D598D;stroke-width:16;stroke-linecap:round;stroke-linejoin:round;stroke-miterlimit:10;}
	.st3{fill:#4D598D;stroke:#4D598D;stroke-width:0.3;stroke-miterlimit:10;}
	.st4{fill:#FFFFFF;}
	.st5{fill:#263A6E;}
	.st6{fill:#0E71B9;}
	.st7{fill:#23376F;}
	.st8{fill:#FFFFFF;stroke:#23376F;stroke-width:24;stroke-linecap:round;stroke-linejoin:round;stroke-miterlimit:10;}
	.st9{fill:#20ADE4;}
	.st10{fill:#EDF4FB;}
	.st11{fill:#234698;}
	.st12{fill-rule:evenodd;clip-rule:evenodd;fill:#0E71B9;}
	.st13{fill-rule:evenodd;clip-rule:evenodd;fill:#EDF4FB;}
	.st14{fill:#C6DEF4;}
	.st15{fill:#ABC7E8;}
	.st16{fill-rule:evenodd;clip-rule:evenodd;fill:#9CC0E6;}
	.st17{fill-rule:evenodd;clip-rule:evenodd;fill:#FFFFFF;}
	.st18{fill-rule:evenodd;clip-rule:evenodd;fill:#BBD4EE;}
	.st19{fill:#568AC8;}
	.st20{fill-rule:evenodd;clip-rule:evenodd;fill:#7AA8D9;}
	.st21{fill:#BBD4EE;}
	.st22{fill-rule:evenodd;clip-rule:evenodd;fill:#F4B1B1;}
	.st23{fill-rule:evenodd;clip-rule:evenodd;fill:#CDDFF3;}
	.st24{fill-rule:evenodd;clip-rule:evenodd;fill:#3050A3;}
	
		.st25{clip-path:url(#SVGID_00000015332870881183611660000018224818945947233452_);fill:url(#SVGID_00000183970777632009794330000010863238516365440683_);}
	.st26{fill-rule:evenodd;clip-rule:evenodd;fill:#25AFA6;}
	.st27{fill-rule:evenodd;clip-rule:evenodd;fill:#5ABEBB;}
	.st28{fill-rule:evenodd;clip-rule:evenodd;fill:#355399;}
	.st29{fill-rule:evenodd;clip-rule:evenodd;fill:#223B74;}
	.st30{fill-rule:evenodd;clip-rule:evenodd;fill:#76A1D5;}
	.st31{fill-rule:evenodd;clip-rule:evenodd;fill:#E98385;}
	.st32{fill:#F4B1B1;}
	.st33{fill:#F5EC79;}
	.st34{fill:#DDE293;}
	.st35{fill-rule:evenodd;clip-rule:evenodd;fill:#F5EC79;}
	.st36{fill-rule:evenodd;clip-rule:evenodd;fill:#DDE293;}
	.st37{fill-rule:evenodd;clip-rule:evenodd;fill:#F3AF8F;}
	.st38{fill-rule:evenodd;clip-rule:evenodd;fill:#7FAADA;}
	.st39{fill-rule:evenodd;clip-rule:evenodd;fill:#929CCF;}
	.st40{fill-rule:evenodd;clip-rule:evenodd;fill:#6E7DBD;}
	.st41{fill:#6E7DBD;}
	.st42{fill-rule:evenodd;clip-rule:evenodd;fill:#E16C6C;}
	.st43{fill:#929CCF;}
	.st44{opacity:0.79;fill-rule:evenodd;clip-rule:evenodd;fill:#FFFFFF;}
	.st45{fill:#11497F;}
	.st46{fill:#C4E8FA;}
	.st47{fill:none;stroke:#4F74B9;stroke-width:9.983;stroke-linecap:round;stroke-linejoin:round;stroke-miterlimit:10;}
	.st48{fill:#4F74B9;}
</style>
<path class="st5" d="M484.8,238c38.8,0.1,72.3,0,100.7-0.2c0.4,0,0.9-0.1,1.3-0.2c11.9-3.8,15.2-15.7,6.3-24.5
	c-0.9-0.9-2.5-1.4-4.8-1.7c-0.2-0.4-0.6-0.6-1-0.6c-36.2-0.7-72.3-0.4-108.3,0.6c-4.3,2.8-6.8,6.4-7.4,10.7c-0.6,4,0.4,7.7,3,11
	C477,236.3,480.4,237.9,484.8,238z"/>
<path class="st5" d="M580.1,869.4l-87.1-0.2c-7.2,0-13,5.8-13,13l0,1.7c0,7.2,5.8,13,13,13l87.1,0.2c7.2,0,13-5.8,13-13l0-1.7
	C593.1,875.2,587.3,869.4,580.1,869.4z"/>
<g>
	<g>
		<path class="st0" d="M742.1,837.9H326c0,0,4.8-54.5,15.9-87.3c2.9-8.8,9.2-16,17.6-20c17.4-8.5,48.3-21.4,73.7-31.7
			c23-9.4,41.5-16.6,41.5-16.6l0,0l60.4,61l58.4-61h0c0.3,0.1,18.7,7.3,41.5,16.6c25.4,10.3,56.3,23.2,73.7,31.7
			c8.3,4,14.6,11.3,17.5,20C737.2,783.4,742.1,837.9,742.1,837.9z"/>
		<path class="st0" d="M433.7,523.4c0,0-8.7-47.5,1-83.6c9.7-36.1,44.2-27.5,44.2-27.5s17.6-53.1,80.6-32.8
			c63,20.3,98.5,94.1,74.9,144c0,0-14.8-7.3-27.8-35.8c-13.2-28.9-47.8-39.3-73.8-27.2c-7.5,3.5-16.2,3.5-23.5-0.4
			c-10.4-5.6-25.5-10.3-39.5-1.5c0,0-19,13.4-18.2,39.1C452.2,515.6,434.3,522.7,433.7,523.4z"/>
		<g>
			<path class="st5" d="M534,676.3c-11.7,0-23.3-2.7-34.5-8c0,0,0,0,0,0c-2.5-1.2-9.2-4.6-17.5-11.7c-12.3-10.4-22.5-23.7-30.4-39.6
				c-12.1-24.3-15.6-36.7-17.5-43.4c-1.5-5.4-1.6-5.5-3.4-6.6c-8.8-5.6-13.9-14.8-13.9-25.3c0-16,12.7-22.9,14.2-23.7
				c0.8-0.4,1.8-0.7,2.7-0.7c3.3,0,6,2.7,6,6c0,2.4-1.4,4.4-3.4,5.4c-0.9,0.5-7.5,4.5-7.5,12.9c0,6.4,3,11.8,8.3,15.2
				c5.8,3.7,6.9,7.6,8.5,13.5c1.9,6.7,5.1,18,16.7,41.3c9,18,19.9,29.4,27.5,35.8c7.4,6.3,13.2,9.2,14.8,9.9c0.1,0,0.1,0.1,0.2,0.1
				c19.1,9.2,39.3,9.2,58.5,0c0.1,0,0.2-0.1,0.2-0.1c1.6-0.7,7.3-3.6,14.6-9.8c0,0,0.1-0.1,0.1-0.1c7.6-6.4,18.5-17.8,27.5-35.8
				c11.6-23.3,14.8-34.5,16.7-41.3c1.7-5.9,2.8-9.9,8.5-13.5c5.4-3.4,8.3-8.8,8.3-15.2c0-8.9-7.3-12.8-7.6-13c-3-1.5-4.2-5.1-2.7-8
				c1.5-3,5.1-4.2,8.1-2.7c0.6,0.3,14.2,7.2,14.2,23.7c0,10.5-5.1,19.7-13.9,25.3c-1.8,1.1-1.9,1.2-3.4,6.6
				c-1.9,6.7-5.4,19.1-17.5,43.4c-7.9,15.8-18.1,29.1-30.3,39.5c0,0-0.1,0.1-0.1,0.1c-8.4,7.1-15,10.5-17.5,11.7c0,0,0,0,0,0
				C557.4,673.7,545.7,676.3,534,676.3z M569.9,667.4c-0.4,0.4-0.9,0.7-1.4,0.9C568.8,668.2,569.3,667.9,569.9,667.4z M569.9,667.4
				C569.9,667.4,569.9,667.4,569.9,667.4C569.9,667.4,569.9,667.4,569.9,667.4z M569.9,667.4C569.9,667.4,569.9,667.4,569.9,667.4
				C569.9,667.4,569.9,667.4,569.9,667.4z M569.9,667.4C569.9,667.4,569.9,667.4,569.9,667.4C569.9,667.4,569.9,667.4,569.9,667.4z
				 M569.9,667.4C569.9,667.4,569.9,667.4,569.9,667.4C569.9,667.4,569.9,667.4,569.9,667.4z M569.9,667.4
				C569.9,667.4,569.9,667.4,569.9,667.4C569.9,667.4,569.9,667.4,569.9,667.4z M569.9,667.4C569.9,667.4,569.9,667.4,569.9,667.4
				C569.9,667.4,569.9,667.4,569.9,667.4z"/>
			<path class="st5" d="M634.5,529.4c-0.9,0-1.8-0.2-2.7-0.6c-0.7-0.3-16.8-8.6-30.6-38.7c-5.4-11.8-15.2-20.9-27.7-25.4
				c-12.6-4.6-26.5-4.2-38.2,1.2c-9.5,4.4-20,4.2-28.9-0.6c-8.8-4.8-21.8-9-33.3-1.8c-1.4,1.1-16.2,12.5-15.6,33.9
				c0.3,9-3,21.6-20.3,30.8c-0.1,0.1-0.2,0.1-0.3,0.2c-1.5,1-3.3,1.3-5,0.8c-2.2-0.6-3.8-2.4-4.2-4.7c-0.4-2-8.8-49.3,1.2-86.2
				c5.8-21.5,19.6-29,30.1-31.6c6.3-1.5,12.2-1.4,16.2-1c2.5-5.3,7.6-14.2,16.4-21.9c12.4-10.8,34.5-21.3,69.7-10
				c33.5,10.8,62.2,37.4,76.8,71c12.2,28.2,12.8,57.8,1.7,81.2c-0.7,1.5-1.9,2.6-3.5,3.1C635.8,529.3,635.2,529.4,634.5,529.4z
				 M438.1,527.4C438.1,527.4,438.1,527.4,438.1,527.4C438.1,527.4,438.1,527.4,438.1,527.4z M555.8,449.4c7.4,0,14.9,1.3,22,3.9
				c15.4,5.7,27.7,17,34.4,31.7c7.2,15.6,14.8,24.4,19.7,28.9c6.6-19.1,5-42.2-4.7-64.5c-13.2-30.5-39.2-54.6-69.5-64.3
				c-56.4-18.2-72.4,27-73.1,29c-1,3-4.1,4.7-7.1,3.9c-0.1,0-7.7-1.8-16,0.4c-10.6,2.7-17.6,10.4-21,22.9
				c-6.8,25.1-4.2,56.7-2.3,71.9c5.1-4.3,7.6-9.4,7.4-15.5c-0.8-28.6,19.9-43.5,20.8-44.2c0.1-0.1,0.2-0.1,0.2-0.2
				c13-8.3,28.8-7.9,45.6,1.2c5.5,3,12.1,3.1,18.1,0.3C538.3,451.3,547,449.4,555.8,449.4z"/>
			<path class="st5" d="M742,843.9c-3.1,0-5.7-2.3-6-5.5c0-0.5-4.9-54.1-15.6-85.9c-2.4-7.2-7.7-13.2-14.5-16.5
				c-17.7-8.6-49.7-21.9-73.4-31.5c-22.3-9-40-16-41.3-16.5c-1.6-0.6-2.9-1.9-3.5-3.5l-11.3-30.2c-0.3-0.7-0.4-1.4-0.4-2.1
				c0-3.3,2.7-6,6-6c2.6,0,4.9,1.7,5.7,4.1l10.3,27.5c5.8,2.3,21,8.3,39.1,15.6c23.9,9.7,56.1,23.1,74.1,31.9
				c9.7,4.7,17.2,13.3,20.6,23.5c11.1,33.1,15.9,86.4,16.1,88.7c0.3,3.3-2.1,6.2-5.4,6.5C742.4,843.9,742.2,843.9,742,843.9z"/>
			<path class="st5" d="M326,843.9c-0.2,0-0.4,0-0.5,0c-3.3-0.3-5.7-3.2-5.4-6.5c0.2-2.3,5-55.5,16.2-88.7
				c3.4-10.2,10.9-18.8,20.6-23.5c18-8.7,50.2-22.2,74.1-31.9c17.9-7.3,33.3-13.4,39.1-15.6l10.4-27.7c1.2-3.1,4.6-4.7,7.7-3.5
				c3.1,1.2,4.7,4.6,3.5,7.7l-11.3,30.2c-0.3,0.9-0.9,1.8-1.7,2.4c-0.5,0.5-1.1,0.8-1.8,1.1c-0.2,0.1-18.7,7.3-41.4,16.6
				c-23.7,9.6-55.7,22.9-73.4,31.5c-6.8,3.3-12.1,9.3-14.5,16.5c-10.7,31.8-15.5,85.4-15.6,85.9C331.7,841.5,329.1,843.9,326,843.9z
				"/>
			<path class="st5" d="M535,749.2c-1.6,0-3.1-0.6-4.3-1.8l-60.4-61c-2.3-2.4-2.3-6.2,0-8.5c2.4-2.3,6.2-2.3,8.5,0l56,56.6
				l54.2-56.5c0.3-0.3,0.7-0.6,1-0.9c0.9-0.6,2.1-1,3.3-1c3.3,0,6,2.7,6,6c0,1.6-0.7,3.1-1.7,4.2l-58.3,60.9
				C538.2,748.6,536.7,749.2,535,749.2C535,749.2,535,749.2,535,749.2z"/>
			<path class="st5" d="M433.8,802.9c-15.8,0-28.6-12.8-28.6-28.6s12.8-28.6,28.6-28.6s28.6,12.8,28.6,28.6S449.6,802.9,433.8,802.9
				z M433.8,757.7c-9.2,0-16.6,7.4-16.6,16.6c0,9.1,7.4,16.6,16.6,16.6s16.6-7.4,16.6-16.6C450.4,765.1,443,757.7,433.8,757.7z"/>
			<path class="st5" d="M432.9,757.7c-2.7,0-5.2-1.9-5.8-4.6c-1.8-7.6-5.6-34.1,0.3-55.8c0.9-3.2,4.2-5.1,7.4-4.2
				c3.2,0.9,5.1,4.2,4.2,7.4c-4.9,17.9-2.2,41.4-0.2,49.9c0.8,3.2-1.2,6.5-4.4,7.2C433.8,757.7,433.4,757.7,432.9,757.7z"/>
			<path class="st5" d="M634.9,751.4c-0.3,0-0.6,0-1-0.1c-3.3-0.5-5.5-3.6-5-6.9c1.7-10.4,4-29.9,0.2-44c-0.9-3.2,1-6.5,4.2-7.4
				c3.2-0.9,6.5,1,7.4,4.2c4.2,15.4,2.4,35.2,0.1,49C640.3,749.3,637.8,751.4,634.9,751.4z"/>
			<path class="st5" d="M661.9,830.5c-0.3,0-0.6,0-0.9-0.1l-15.6-2.3c-1.6-0.2-3-1.1-3.9-2.3c-1-1.3-1.4-2.9-1.1-4.5l1.1-7.7
				c0.5-3.3,3.5-5.5,6.8-5.1c3.3,0.5,5.6,3.5,5.1,6.8l-0.3,1.8l3.7,0.5c0.9-7.6,2.4-21.3,2.5-33c0.1-13-7.1-25.1-18.3-30.9
				c-6-3.1-12-3.9-18.6-2.7c-12.4,2.3-22.7,11.9-26.3,24.4c-3.2,11.2-5.7,24.7-7,32.3l3.7,0.5l0.3-1.8c0.5-3.3,3.5-5.5,6.8-5.1
				c3.3,0.5,5.6,3.5,5.1,6.8l-1.1,7.7c-0.5,3.3-3.5,5.6-6.8,5.1l-15.7-2.3c-2.9-0.4-5-2.8-5.1-5.7c0-0.4,0-0.8,0.1-1.2
				c0.4-2.7,3.5-23.3,8.3-39.8c4.9-16.8,18.9-29.7,35.6-32.8c9.2-1.7,18-0.4,26.3,3.8c15.2,7.8,24.9,24.1,24.8,41.6
				c-0.1,17.4-3,38.1-3.4,40.4c-0.3,2.4-2.1,4.5-4.5,5.1C662.9,830.5,662.4,830.5,661.9,830.5z"/>
		</g>
	</g>
</g>
<path class="st5" d="M698.3,961.7H369.7c-42.2,0-76.5-34.3-76.5-76.5v-651c0-42.2,34.3-76.5,76.5-76.5h328.5
	c42.2,0,76.5,34.3,76.5,76.5v651C774.8,927.4,740.4,961.7,698.3,961.7z M369.7,172.7c-33.9,0-61.5,27.6-61.5,61.5v651
	c0,33.9,27.6,61.5,61.5,61.5h328.5c33.9,0,61.5-27.6,61.5-61.5v-651c0-33.9-27.6-61.5-61.5-61.5H369.7z"/>
<rect x="300.8" y="252" class="st5" width="466.5" height="14.7"/>
<rect x="300.8" y="838" class="st5" width="466.5" height="14.7"/>
</svg>
