<?xml version="1.0" encoding="utf-8"?>
<!-- Generator: Adobe Illustrator 26.0.3, SVG Export Plug-In . SVG Version: 6.00 Build 0)  -->
<svg version="1.1" id="Layer_1" xmlns="http://www.w3.org/2000/svg" xmlns:xlink="http://www.w3.org/1999/xlink" x="0px" y="0px"
	 viewBox="0 0 1080 1080" style="enable-background:new 0 0 1080 1080;" xml:space="preserve">
<style type="text/css">
	.st0{fill:#9BC9EB;}
	.st1{fill:#4D598D;}
	.st2{fill:#9BC9EB;stroke:#4D598D;stroke-width:16;stroke-linecap:round;stroke-linejoin:round;stroke-miterlimit:10;}
	.st3{fill:#4D598D;stroke:#4D598D;stroke-width:0.3;stroke-miterlimit:10;}
	.st4{fill:#FFFFFF;}
	.st5{fill:#263A6E;}
	.st6{fill:#0E71B9;}
	.st7{fill:#23376F;}
	.st8{fill:#FFFFFF;stroke:#23376F;stroke-width:24;stroke-linecap:round;stroke-linejoin:round;stroke-miterlimit:10;}
	.st9{fill:#20ADE4;}
	.st10{fill:#EDF4FB;}
	.st11{fill:#234698;}
	.st12{fill-rule:evenodd;clip-rule:evenodd;fill:#0E71B9;}
	.st13{fill-rule:evenodd;clip-rule:evenodd;fill:#EDF4FB;}
	.st14{fill:#C6DEF4;}
	.st15{fill:#ABC7E8;}
	.st16{fill-rule:evenodd;clip-rule:evenodd;fill:#9CC0E6;}
	.st17{fill-rule:evenodd;clip-rule:evenodd;fill:#FFFFFF;}
	.st18{fill-rule:evenodd;clip-rule:evenodd;fill:#BBD4EE;}
	.st19{fill:#568AC8;}
	.st20{fill-rule:evenodd;clip-rule:evenodd;fill:#7AA8D9;}
	.st21{fill:#BBD4EE;}
	.st22{fill-rule:evenodd;clip-rule:evenodd;fill:#F4B1B1;}
	.st23{fill-rule:evenodd;clip-rule:evenodd;fill:#CDDFF3;}
	.st24{fill-rule:evenodd;clip-rule:evenodd;fill:#3050A3;}
	
		.st25{clip-path:url(#SVGID_00000157300798040845165420000000403231630524142777_);fill:url(#SVGID_00000180355097518876144900000015518164955385701281_);}
	.st26{fill-rule:evenodd;clip-rule:evenodd;fill:#25AFA6;}
	.st27{fill-rule:evenodd;clip-rule:evenodd;fill:#5ABEBB;}
	.st28{fill-rule:evenodd;clip-rule:evenodd;fill:#355399;}
	.st29{fill-rule:evenodd;clip-rule:evenodd;fill:#223B74;}
	.st30{fill-rule:evenodd;clip-rule:evenodd;fill:#76A1D5;}
	.st31{fill-rule:evenodd;clip-rule:evenodd;fill:#E98385;}
	.st32{fill:#F4B1B1;}
	.st33{fill:#F5EC79;}
	.st34{fill:#DDE293;}
	.st35{fill-rule:evenodd;clip-rule:evenodd;fill:#F5EC79;}
	.st36{fill-rule:evenodd;clip-rule:evenodd;fill:#DDE293;}
	.st37{fill-rule:evenodd;clip-rule:evenodd;fill:#F3AF8F;}
	.st38{fill-rule:evenodd;clip-rule:evenodd;fill:#7FAADA;}
	.st39{fill-rule:evenodd;clip-rule:evenodd;fill:#929CCF;}
	.st40{fill-rule:evenodd;clip-rule:evenodd;fill:#6E7DBD;}
	.st41{fill:#6E7DBD;}
	.st42{fill-rule:evenodd;clip-rule:evenodd;fill:#E16C6C;}
	.st43{fill:#929CCF;}
	.st44{opacity:0.79;fill-rule:evenodd;clip-rule:evenodd;fill:#FFFFFF;}
	.st45{fill:#11497F;}
	.st46{fill:#C4E8FA;}
	.st47{fill:none;stroke:#4F74B9;stroke-width:9.983;stroke-linecap:round;stroke-linejoin:round;stroke-miterlimit:10;}
	.st48{fill:#4F74B9;}
</style>
<g>
	<g>
		<g>
			<path class="st0" d="M168.7,501.7c0,22.1,17.8,39.9,40,39.9h69.5v-39.9c0-22-17.8-39.8-40-39.8h-29.5
				C186.5,461.9,168.7,479.7,168.7,501.7z"/>
			<path class="st5" d="M278.1,549.7h-69.5c-26.5,0-48-21.5-48-48c0-26.4,21.6-47.9,48-47.9h29.5c26.5,0,48,21.5,48,47.9v39.9
				C286.2,546.1,282.6,549.7,278.1,549.7z M208.7,470c-17.6,0-31.9,14.2-31.9,31.7c0,17.6,14.3,31.8,31.9,31.8H270v-31.8
				c0-17.5-14.3-31.7-31.9-31.7H208.7z"/>
		</g>
		<g>
			<path class="st0" d="M891.6,501.7c0,22.1-17.8,39.9-40,39.9h-69.5v-39.9c0-22,17.8-39.8,40-39.8h29.5
				C873.8,461.9,891.6,479.7,891.6,501.7z"/>
			<path class="st5" d="M851.7,549.7h-69.5c-4.5,0-8.1-3.6-8.1-8.1v-39.9c0-26.4,21.6-47.9,48-47.9h29.5c26.5,0,48,21.5,48,47.9
				C899.7,528.2,878.2,549.7,851.7,549.7z M790.3,533.5h61.4c17.6,0,31.9-14.3,31.9-31.8c0-17.5-14.3-31.7-31.9-31.7h-29.5
				c-17.6,0-31.9,14.2-31.9,31.7V533.5z"/>
		</g>
		<path class="st5" d="M219.6,741.5c-4.5,0-8.1-3.6-8.1-8.1V600.9c0-37.1,30.2-67.4,67.4-67.4h448.9c4.5,0,8.1,3.6,8.1,8.1
			c0,4.5-3.6,8.1-8.1,8.1H279c-28.3,0-51.2,23-51.2,51.2v132.5C227.7,737.9,224.1,741.5,219.6,741.5z"/>
		<path class="st5" d="M839.7,741.5c-4.5,0-8.1-3.6-8.1-8.1V600.9c0-28.2-23-51.2-51.2-51.2h-52.5c-4.5,0-8.1-3.6-8.1-8.1
			c0-4.5,3.6-8.1,8.1-8.1h52.5c37.2,0,67.4,30.2,67.4,67.4v132.5C847.7,737.9,844.1,741.5,839.7,741.5z"/>
		<path class="st5" d="M782.2,549.7c-3.5,0-6.8-2.3-7.8-5.9l-48.8-173.7c-7.4-24.1-29.2-41-54.4-42c-4.5-0.2-7.9-4-7.7-8.4
			c0.2-4.5,4-7.9,8.4-7.7c32,1.4,59.8,22.9,69.2,53.5c0,0.1,0,0.1,0.1,0.2l48.9,173.8c1.2,4.3-1.3,8.8-5.6,10
			C783.6,549.6,782.9,549.7,782.2,549.7z"/>
		<path class="st5" d="M278.2,549.7c-0.7,0-1.4-0.1-2.2-0.3c-4.3-1.2-6.8-5.6-5.6-9.9l47.9-173.8c0-0.1,0-0.1,0.1-0.2
			c9.4-31.4,37.9-53,70.9-53.7c4.5-0.1,8.2,3.5,8.2,7.9c0.1,4.5-3.5,8.2-7.9,8.2c-25.9,0.5-48.3,17.5-55.7,42.1L286,543.8
			C285,547.4,281.7,549.7,278.2,549.7z"/>
		<g>
			<path class="st0" d="M846.3,733.4H213c-10.1,0-18.3,8.2-18.3,18.3v30.6c0,10.1,8.2,18.3,18.3,18.3c181.1,0,398,0,633.3,0
				c10.1,0,18.3-8.2,18.3-18.3v-30.6C864.7,741.6,856.4,733.4,846.3,733.4z"/>
			<path class="st5" d="M846.3,808.7H213c-14.6,0-26.4-11.8-26.4-26.4v-30.6c0-14.6,11.9-26.4,26.4-26.4h633.3
				c7.1,0,13.7,2.7,18.7,7.7c5,5,7.7,11.6,7.7,18.7v30.6C872.7,796.9,860.9,808.7,846.3,808.7z M213,741.5
				c-5.7,0-10.3,4.6-10.3,10.2v30.6c0,5.6,4.6,10.2,10.3,10.2h633.3c5.7,0,10.3-4.6,10.3-10.2v-30.6c0-2.7-1.1-5.3-3-7.2
				c-1.9-1.9-4.5-3-7.3-3H213z"/>
		</g>
		<path class="st5" d="M344.7,885.3h-60.5c-17.4,0-31.5-14.1-31.5-31.5v-53.2c0-4.5,3.6-8.1,8.1-8.1h107.4c4.5,0,8.1,3.6,8.1,8.1
			v53.2C376.2,871.2,362.1,885.3,344.7,885.3z M268.9,808.7v45.1c0,8.5,6.9,15.3,15.3,15.3h60.5c8.5,0,15.3-6.9,15.3-15.3v-45.1
			H268.9z"/>
		<path class="st5" d="M775.1,885.3h-60.5c-17.4,0-31.5-14.1-31.5-31.5v-53.2c0-4.5,3.6-8.1,8.1-8.1h107.4c4.5,0,8.1,3.6,8.1,8.1
			v53.2C806.6,871.2,792.5,885.3,775.1,885.3z M699.2,808.7v45.1c0,8.5,6.9,15.3,15.3,15.3h60.5c8.5,0,15.3-6.9,15.3-15.3v-45.1
			H699.2z"/>
		<path class="st5" d="M727.8,548.9c-3.6,0-6.8-2.4-7.8-6l-35.9-132.4c-4-14.7-17.5-25.1-32.7-25.2c-4.5,0-8.1-3.7-8-8.1
			c0-4.4,3.6-8,8.1-8c0,0,0,0,0.1,0c22.4,0.1,42.3,15.4,48.2,37.1l35.9,132.4c1.2,4.3-1.4,8.8-5.7,9.9
			C729.2,548.8,728.5,548.9,727.8,548.9z"/>
		<path class="st5" d="M331.4,548.9c-0.7,0-1.4-0.1-2.1-0.3c-4.3-1.2-6.9-5.6-5.7-9.9l35.9-132.4c5.9-21.9,25.9-37.1,48.6-37.1h0.2
			c4.5,0,8.1,3.6,8.1,8.1c0,4.5-3.6,8.1-8.1,8.1h-0.2c-15.4,0-29,10.4-33,25.2l-35.9,132.4C338.2,546.5,335,548.9,331.4,548.9z"/>
		<g>
			<path class="st0" d="M357.4,631.4v35.1c0,6.5-5.2,11.7-11.7,11.7h-48.3c-6.5,0-11.7-5.2-11.7-11.7v-35.1
				c0-6.5,5.2-11.7,11.7-11.7h48.3C352.1,619.7,357.4,624.9,357.4,631.4z"/>
			<path class="st5" d="M345.6,686.3h-48.3c-10.9,0-19.8-8.9-19.8-19.8v-35.1c0-10.9,8.9-19.8,19.8-19.8h48.3
				c10.9,0,19.8,8.9,19.8,19.8v35.1C365.4,677.4,356.6,686.3,345.6,686.3z M297.3,627.8c-2,0-3.6,1.6-3.6,3.6v35.1
				c0,2,1.6,3.6,3.6,3.6h48.3c2,0,3.6-1.6,3.6-3.6v-35.1c0-2-1.6-3.6-3.6-3.6H297.3z"/>
		</g>
		<g>
			<path class="st0" d="M773.7,631.4v35.1c0,6.5-5.2,11.7-11.7,11.7h-48.3c-6.5,0-11.7-5.2-11.7-11.7v-35.1
				c0-6.5,5.2-11.7,11.7-11.7h48.3C768.4,619.7,773.7,624.9,773.7,631.4z"/>
			<path class="st5" d="M761.9,686.3h-48.3c-10.9,0-19.8-8.9-19.8-19.8v-35.1c0-10.9,8.9-19.8,19.8-19.8h48.3
				c10.9,0,19.8,8.9,19.8,19.8v35.1C781.7,677.4,772.9,686.3,761.9,686.3z M713.6,627.8c-2,0-3.6,1.6-3.6,3.6v35.1
				c0,2,1.6,3.6,3.6,3.6h48.3c2,0,3.6-1.6,3.6-3.6v-35.1c0-2-1.6-3.6-3.6-3.6H713.6z"/>
		</g>
		<g>
			<path class="st0" d="M620.2,629.1l-15,46.8c-1.6,4.8-6.1,8.1-11.1,8.1H465.2c-4.7,0-9.7-3.7-11.1-8.1l-15-46.8
				c-2.4-7.6,3.2-15.3,11.1-15.3h158.9C617,613.8,622.7,621.5,620.2,629.1z"/>
			<path class="st5" d="M594.1,692.2H465.2c-8.2,0-16.3-5.9-18.8-13.8l-15-46.8c-2-6.1-0.9-12.5,2.9-17.7c3.8-5.2,9.6-8.1,16-8.1
				h158.9c6.4,0,12.2,3,16,8.1c3.8,5.2,4.8,11.6,2.9,17.7c0,0,0,0,0,0l-15,46.8C610.3,686.6,602.7,692.2,594.1,692.2z M450.2,621.9
				c-1.6,0-2.5,0.9-2.9,1.5c-0.4,0.6-1,1.7-0.5,3.2l15,46.8c0.4,1.1,2.3,2.5,3.5,2.5h128.9c1.6,0,3-1,3.4-2.5l15-46.8
				c0.5-1.5-0.1-2.7-0.5-3.2c-0.4-0.6-1.3-1.5-2.9-1.5H450.2z M620.2,629.1L620.2,629.1L620.2,629.1z"/>
		</g>
		<path class="st5" d="M530.4,507.9c-4.4,0-8.8-0.9-12.9-2.8c-96.4-44.5-147.7-149.9-152.4-313.3c-0.4-13.9,8.5-26.5,21.7-30.7
			c101.6-32.4,198.7-31.3,288.7,3.2c12,4.6,20,16.3,19.9,29.2c-0.2,73.2-14.1,140.6-40,194.8c-26.7,55.8-65.7,96.3-112.7,117.1
			C538.8,507.1,534.6,507.9,530.4,507.9z M530.9,153.7c-45.2,0-91.6,7.6-139.2,22.7c-6.3,2-10.6,8.1-10.4,14.9
			c4.5,156.8,52.6,257.4,143,299.1c3.7,1.7,8.2,1.8,11.8,0.1c87.8-38.8,142.6-152.7,143.1-297.2c0-6.2-3.8-11.9-9.5-14.1
			c0,0,0,0,0,0C625.1,162.3,578.8,153.7,530.9,153.7z"/>
		<g>
			<path class="st0" d="M527,453.3c-67.6-37.6-103.7-117-110.6-242.7l-0.3-5.7l5.5-1.5C459,193.2,495.8,188,530.9,188
				c62.5,0,111.2,18.2,113.7,18.8c-0.4,1.7,0.2,183.9-110.8,246.5l-3.4,1.9L527,453.3z"/>
			<path class="st5" d="M530.4,463.3c-1.4,0-2.7-0.3-3.9-1l-3.4-1.9c0,0,0,0,0,0c-70.2-39.1-107.7-120.6-114.7-249.3l-0.3-5.7
				c-0.2-3.8,2.3-7.2,5.9-8.2l5.5-1.5c38.1-10.5,75.7-15.8,111.5-15.8c37.4,0,78.1,6.6,114.4,18.6c0.7,0.2,1.1,0.4,1.4,0.5
				c3.8,1,6.3,4.7,6,8.6c0,0.2,0,0.6,0,1.2c-1.3,44.6-13.5,194.4-114.8,251.6l-3.4,1.9C533.2,462.9,531.8,463.3,530.4,463.3z
				 M424.5,211c6.8,121.9,41.4,198.7,105.9,234.9c90.5-51.5,104-186.3,106-233.3c-33.7-10.7-71-16.5-105.4-16.5
				C496.8,196.1,461,201.1,424.5,211z M652.7,207.6c0,0.3-0.1,0.6-0.1,0.9C652.6,208.4,652.7,208.1,652.7,207.6z"/>
		</g>
		<path class="st4" d="M515.4,335.4c-2.1,0-4.1-0.8-5.7-2.4l-19.3-19.3c-3.2-3.2-3.2-8.3,0-11.4c3.2-3.2,8.3-3.2,11.4,0l13.6,13.6
			l43.7-43.7c3.2-3.2,8.3-3.2,11.4,0c3.2,3.2,3.2,8.3,0,11.4L521.1,333C519.5,334.6,517.5,335.4,515.4,335.4z"/>
	</g>
</g>
</svg>
