<?xml version="1.0" encoding="utf-8"?>
<!-- Generator: Adobe Illustrator 26.0.3, SVG Export Plug-In . SVG Version: 6.00 Build 0)  -->
<svg version="1.1" id="Layer_1" xmlns="http://www.w3.org/2000/svg" xmlns:xlink="http://www.w3.org/1999/xlink" x="0px" y="0px"
	 viewBox="0 0 1080 1080" style="enable-background:new 0 0 1080 1080;" xml:space="preserve">
<style type="text/css">
	.st0{fill:#9BC9EB;}
	.st1{fill:#4D598D;}
	.st2{fill:#9BC9EB;stroke:#4D598D;stroke-width:16;stroke-linecap:round;stroke-linejoin:round;stroke-miterlimit:10;}
	.st3{fill:#4D598D;stroke:#4D598D;stroke-width:0.3;stroke-miterlimit:10;}
	.st4{fill:#FFFFFF;}
	.st5{fill:#263A6E;}
	.st6{fill:#0E71B9;}
	.st7{fill:#23376F;}
	.st8{fill:#FFFFFF;stroke:#23376F;stroke-width:24;stroke-linecap:round;stroke-linejoin:round;stroke-miterlimit:10;}
	.st9{fill:#20ADE4;}
	.st10{fill:#EDF4FB;}
	.st11{fill:#234698;}
	.st12{fill-rule:evenodd;clip-rule:evenodd;fill:#0E71B9;}
	.st13{fill-rule:evenodd;clip-rule:evenodd;fill:#EDF4FB;}
	.st14{fill:#C6DEF4;}
	.st15{fill:#ABC7E8;}
	.st16{fill-rule:evenodd;clip-rule:evenodd;fill:#9CC0E6;}
	.st17{fill-rule:evenodd;clip-rule:evenodd;fill:#FFFFFF;}
	.st18{fill-rule:evenodd;clip-rule:evenodd;fill:#BBD4EE;}
	.st19{fill:#568AC8;}
	.st20{fill-rule:evenodd;clip-rule:evenodd;fill:#7AA8D9;}
	.st21{fill:#BBD4EE;}
	.st22{fill-rule:evenodd;clip-rule:evenodd;fill:#F4B1B1;}
	.st23{fill-rule:evenodd;clip-rule:evenodd;fill:#CDDFF3;}
	.st24{fill-rule:evenodd;clip-rule:evenodd;fill:#3050A3;}
	
		.st25{clip-path:url(#SVGID_00000088106774490012427080000016130362454380110980_);fill:url(#SVGID_00000171710285260069439860000015394590256681720995_);}
	.st26{fill-rule:evenodd;clip-rule:evenodd;fill:#25AFA6;}
	.st27{fill-rule:evenodd;clip-rule:evenodd;fill:#5ABEBB;}
	.st28{fill-rule:evenodd;clip-rule:evenodd;fill:#355399;}
	.st29{fill-rule:evenodd;clip-rule:evenodd;fill:#223B74;}
	.st30{fill-rule:evenodd;clip-rule:evenodd;fill:#76A1D5;}
	.st31{fill-rule:evenodd;clip-rule:evenodd;fill:#E98385;}
	.st32{fill:#F4B1B1;}
	.st33{fill:#F5EC79;}
	.st34{fill:#DDE293;}
	.st35{fill-rule:evenodd;clip-rule:evenodd;fill:#F5EC79;}
	.st36{fill-rule:evenodd;clip-rule:evenodd;fill:#DDE293;}
	.st37{fill-rule:evenodd;clip-rule:evenodd;fill:#F3AF8F;}
	.st38{fill-rule:evenodd;clip-rule:evenodd;fill:#7FAADA;}
	.st39{fill-rule:evenodd;clip-rule:evenodd;fill:#929CCF;}
	.st40{fill-rule:evenodd;clip-rule:evenodd;fill:#6E7DBD;}
	.st41{fill:#6E7DBD;}
	.st42{fill-rule:evenodd;clip-rule:evenodd;fill:#E16C6C;}
	.st43{fill:#929CCF;}
	.st44{opacity:0.79;fill-rule:evenodd;clip-rule:evenodd;fill:#FFFFFF;}
	.st45{fill:#11497F;}
	.st46{fill:#C4E8FA;}
	.st47{fill:none;stroke:#4F74B9;stroke-width:9.983;stroke-linecap:round;stroke-linejoin:round;stroke-miterlimit:10;}
	.st48{fill:#4F74B9;}
</style>
<g>
	<path class="st1" d="M594.5,893.9h-377c-24.4,0-44.2-19.8-44.2-44.2v-473c0-24.4,19.8-44.2,44.2-44.2h377
		c24.4,0,44.2,19.8,44.2,44.2v213.5c0,4.1-3.3,7.4-7.4,7.4c-4.1,0-7.4-3.3-7.4-7.4V376.7c0-16.3-13.2-29.5-29.5-29.5h-377
		c-16.3,0-29.5,13.2-29.5,29.5v473c0,16.3,13.2,29.5,29.5,29.5h377c14.6,0,27.2-10.9,29.2-25.4c0.6-4,4.3-6.8,8.3-6.3
		c4,0.6,6.8,4.3,6.3,8.3C635.2,877.5,616.4,893.9,594.5,893.9z"/>
	<path class="st1" d="M274.9,802.2c-4.1,0-7.4-3.3-7.4-7.4V431.6c0-4.1,3.3-7.4,7.4-7.4c4.1,0,7.4,3.3,7.4,7.4v363.3
		C282.3,798.9,279,802.2,274.9,802.2z"/>
	<path class="st1" d="M362.3,802.2c-4.1,0-7.4-3.3-7.4-7.4V431.6c0-4.1,3.3-7.4,7.4-7.4c4.1,0,7.4,3.3,7.4,7.4v363.3
		C369.6,798.9,366.3,802.2,362.3,802.2z"/>
	<path class="st1" d="M449.6,802.2c-4.1,0-7.4-3.3-7.4-7.4V431.6c0-4.1,3.3-7.4,7.4-7.4s7.4,3.3,7.4,7.4v363.3
		C457,798.9,453.7,802.2,449.6,802.2z"/>
	<path class="st1" d="M537,802.2c-4.1,0-7.4-3.3-7.4-7.4V431.6c0-4.1,3.3-7.4,7.4-7.4s7.4,3.3,7.4,7.4v363.3
		C544.3,798.9,541,802.2,537,802.2z"/>
	<g>
		<path class="st0" d="M493.2,149.7H318.6c-20.3,0-36.8,16.5-36.8,36.8v153.2h46.3V199.2h155.6v140.6l46.4-0.1V186.6
			C530.1,166.2,513.6,149.7,493.2,149.7z"/>
		<path class="st1" d="M483.7,347.2c-1.9,0-3.8-0.8-5.2-2.1c-1.4-1.4-2.2-3.3-2.2-5.2V206.6H335.4v133.2c0,4.1-3.3,7.4-7.4,7.4
			h-46.3c-4.1,0-7.4-3.3-7.4-7.4V186.6c0-24.4,19.8-44.2,44.2-44.2h174.7c24.4,0,44.2,19.8,44.2,44.2v153.2c0,4.1-3.3,7.3-7.3,7.4
			L483.7,347.2C483.7,347.2,483.7,347.2,483.7,347.2z M530.1,339.8L530.1,339.8L530.1,339.8z M328.1,191.9h155.6
			c4.1,0,7.4,3.3,7.4,7.4v133.3l31.7,0V186.6c0-16.3-13.2-29.5-29.5-29.5H318.6c-16.3,0-29.5,13.2-29.5,29.5v145.9h31.6V199.2
			C320.7,195.1,324,191.9,328.1,191.9z"/>
	</g>
	<g>
		<path class="st0" d="M303.1,886.6v29.9c0,7.6-6.2,13.9-13.9,13.9h-38.2c-7.6,0-13.9-6.2-13.9-13.9v-29.9H303.1z"/>
		<path class="st1" d="M289.2,937.6h-38.2c-11.7,0-21.2-9.5-21.2-21.2v-29.9c0-4.1,3.3-7.4,7.4-7.4h66c4.1,0,7.4,3.3,7.4,7.4v29.9
			C310.4,928.1,300.9,937.6,289.2,937.6z M244.4,893.9v22.5c0,3.6,2.9,6.5,6.5,6.5h38.2c3.6,0,6.5-2.9,6.5-6.5v-22.5H244.4z"/>
	</g>
	<g>
		<path class="st0" d="M568,886.6v29.9c0,7.6-6.2,13.9-13.9,13.9h-42.4c-7.6,0-13.9-6.2-13.9-13.9v-29.9H568z"/>
		<path class="st1" d="M554.1,937.6h-42.5c-11.7,0-21.2-9.5-21.2-21.2v-29.9c0-4.1,3.3-7.4,7.4-7.4H568c4.1,0,7.4,3.3,7.4,7.4v29.9
			C575.3,928.1,565.8,937.6,554.1,937.6z M505.1,893.9v22.5c0,3.6,2.9,6.5,6.5,6.5h42.5c3.6,0,6.5-2.9,6.5-6.5v-22.5H505.1z"/>
	</g>
	<path class="st1" d="M530.1,250.2h-46.4c-4.1,0-7.4-3.3-7.4-7.4c0-4.1,3.3-7.4,7.4-7.4h46.4c4.1,0,7.4,3.3,7.4,7.4
		C537.4,246.9,534.1,250.2,530.1,250.2z"/>
	<path class="st1" d="M328.1,250.2h-46.3c-4.1,0-7.4-3.3-7.4-7.4c0-4.1,3.3-7.4,7.4-7.4h46.3c4.1,0,7.4,3.3,7.4,7.4
		C335.4,246.9,332.1,250.2,328.1,250.2z"/>
	<path class="st1" d="M733.7,937.6c-5.3,0-10.7-1.3-15.5-3.8c-42.2-21.9-73.3-47.8-98-81.4c-40.5-55.5-60-129.1-59.6-224.9
		c0.2-16.4,11.8-30.5,27.7-33.6c14.1-2.8,27.4-6.3,40.7-10.8c27.5-8.8,56.1-21.7,87.7-39.4c10.5-5.9,23.6-5.9,34.1,0
		c43.5,24.4,90.3,42.7,128.5,50.2l0,0c16,3.1,27.6,17.3,27.6,33.7c0.4,76.1-11.7,137.6-36.9,187.7c-0.2,0.4-0.3,0.7-0.5,1.1
		c-12.3,24.2-28.1,46-46.8,64.7c-20.1,20.1-44,37.3-73.1,52.6C744.4,936.4,739,937.6,733.7,937.6z M733.7,554.1
		c-3.4,0-6.8,0.8-9.9,2.5c-32.4,18.2-61.9,31.4-90.2,40.5c-13.8,4.7-27.7,8.4-42.5,11.3c-9.1,1.8-15.7,9.9-15.8,19.3
		c-0.3,92.6,18.3,163.3,56.8,216.1c23.2,31.7,52.8,56.2,92.9,77c5.5,2.8,12,2.8,17.5,0c27.7-14.6,50.5-30.9,69.5-50
		c17.7-17.7,32.7-38.4,44.3-61.4c0,0,0-0.1,0.1-0.1c0,0,0-0.1,0.1-0.1c24.3-48.1,35.9-107.4,35.6-181.5c0-9.5-6.6-17.6-15.7-19.3
		c0,0,0,0,0,0c-39.6-7.7-88-26.6-132.8-51.8C740.5,554.9,737.1,554.1,733.7,554.1z M855.7,812.5
		C855.7,812.5,855.7,812.5,855.7,812.5C855.7,812.5,855.7,812.5,855.7,812.5z M855.7,812.5C855.7,812.5,855.7,812.5,855.7,812.5
		C855.7,812.5,855.7,812.5,855.7,812.5z M857.8,807.5L857.8,807.5L857.8,807.5z M857.8,807.5C857.8,807.5,857.8,807.5,857.8,807.5
		C857.8,807.5,857.8,807.5,857.8,807.5z"/>
	<g>
		<path class="st0" d="M728.6,597.5c3.2-1.7,7-1.7,10.2,0c37.4,20.3,72.7,34.4,107.1,42.7c4.9,1.2,8.5,5.8,8.3,10.8
			c-1.3,57.3-11.3,103.6-30.2,141.2l-0.5,1c-9.6,18.5-21.6,35.2-36,49.6c-13.5,13.5-29.5,25.4-48.4,36.3c-3.3,2-7.5,2-10.8,0.1
			c-53.9-30.4-111.5-86-115.1-228.3c-0.2-5,3.3-9.6,8.2-10.8C650.1,633.3,692.2,617.1,728.6,597.5z"/>
		<path class="st1" d="M733.6,888.1c-3.1,0-6.1-0.8-8.9-2.3c-49.2-27.8-115-82.3-118.8-234.4c-0.4-8.5,5.4-16.1,13.8-18.2
			c30.2-7.3,71.6-23.9,105.4-42.1c5.4-2.9,11.8-2.9,17.2,0c37.2,20.1,71.6,33.9,105.3,42.1c8.3,2.1,14.2,9.7,14,18.1
			c-1.4,58.4-11.5,105.6-31,144.3l-0.5,1c-10.1,19.5-22.6,36.8-37.4,51.5c-13.8,13.8-30.1,26.1-49.9,37.5
			C740,887.2,736.8,888.1,733.6,888.1z M733.7,603.6c-0.5,0-1.1,0.1-1.6,0.4c0,0,0,0,0,0c-34.8,18.8-77.5,35.8-108.8,43.4
			c-1.5,0.4-2.7,1.8-2.6,3.3c0,0.1,0,0.1,0,0.2c3.6,144.7,65.3,196,111.3,222.1c1,0.6,2.4,0.6,3.4,0c18.7-10.8,34-22.3,46.9-35.2
			c13.7-13.7,25.3-29.7,34.6-47.8l0.5-0.9c18.5-36.7,28.1-81.9,29.4-138.1c0-1.6-1.2-3.1-2.8-3.5c-34.9-8.5-70.5-22.7-108.8-43.4
			C734.7,603.7,734.2,603.6,733.7,603.6z M728.6,597.5L728.6,597.5L728.6,597.5z"/>
	</g>
	<path class="st4" d="M717.2,761.9c-1.9,0-3.8-0.7-5.2-2.2L690.2,738c-2.9-2.9-2.9-7.5,0-10.4c2.9-2.9,7.5-2.9,10.4,0l16.5,16.5
		l49.5-49.5c2.9-2.9,7.5-2.9,10.4,0c2.9,2.9,2.9,7.5,0,10.4l-54.7,54.7C720.9,761.2,719,761.9,717.2,761.9z"/>
</g>
</svg>
